<svg xmlns="http://www.w3.org/2000/svg" width="34.667" height="32" viewBox="0 0 34.667 32">
  <g id="Group_493" data-name="Group 493" transform="translate(-713 -382)">
    <path id="Path_1759" data-name="Path 1759" d="M34.708,6.75H31.375v2a.669.669,0,0,1-.667.667H29.375a.669.669,0,0,1-.667-.667v-2h-16v2a.669.669,0,0,1-.667.667H10.708a.669.669,0,0,1-.667-.667v-2H6.708a3.343,3.343,0,0,0-3.333,3.333V32.75a3.343,3.343,0,0,0,3.333,3.333h28a3.343,3.343,0,0,0,3.333-3.333V10.083A3.343,3.343,0,0,0,34.708,6.75Zm.667,25a1.672,1.672,0,0,1-1.667,1.667h-26A1.672,1.672,0,0,1,6.042,31.75v-15a.669.669,0,0,1,.667-.667h28a.669.669,0,0,1,.667.667Z" transform="translate(709.625 377.917)" fill="#fff"/>
    <path id="Path_1760" data-name="Path 1760" d="M11.667,5.167A.669.669,0,0,0,11,4.5H9.667A.669.669,0,0,0,9,5.167v2h2.667Z" transform="translate(710.667 377.5)" fill="#fff"/>
    <path id="Path_1761" data-name="Path 1761" d="M27.417,5.167A.669.669,0,0,0,26.75,4.5H25.417a.669.669,0,0,0-.667.667v2h2.667Z" transform="translate(713.583 377.5)" fill="#fff"/>
  </g>
</svg>
