<svg id="圖層_1" data-name="圖層 1" xmlns="http://www.w3.org/2000/svg" viewBox="0 0 300 300"><defs><style>.cls-1{fill:#f5b81b;}.cls-2{fill:#06143f;}.cls-3{fill:#f7f8f8;stroke:#4c4948;}.cls-3,.cls-5{stroke-miterlimit:10;}.cls-4{fill:#e6e6e6;}.cls-5{fill:none;stroke:#f5b81b;stroke-width:2px;}.cls-6{fill:#f6f9e2;}.cls-7{fill:#6c4018;}.cls-8{fill:#401f00;}.cls-9{fill:#231815;}.cls-10{fill:#2f1000;}.cls-11{fill:#eaec82;}.cls-12{fill:#f2f2f0;}.cls-13{fill:#4b3c20;}.cls-14{fill:#fef5e8;}.cls-15{fill:#fce7c1;}.cls-16{fill:#f5aa1b;}.cls-17{fill:#fff;}</style></defs><title>蛤蠣02</title><ellipse class="cls-1" cx="149.98" cy="146.83" rx="149.13" ry="80.6"/><ellipse class="cls-2" cx="150.21" cy="145.52" rx="147.21" ry="77.72"/><ellipse class="cls-3" cx="150.24" cy="153.28" rx="106.86" ry="58.69"/><ellipse class="cls-4" cx="150.24" cy="157.89" rx="98.9" ry="54.55"/><ellipse class="cls-5" cx="150.3" cy="153.34" rx="106.42" ry="58.99"/><ellipse class="cls-6" cx="150.49" cy="153.28" rx="106.61" ry="58.68"/><path class="cls-7" d="M143,105.32c2.86,4.62,5.47,11.14,9.92,14.43,4.77,3.54,10.67,3.91,14.52,8.89,1.71,2.21,4.53-.31,4.18-2.43-.3-1.8,2.65-5.2,3.37-6.81a15.3,15.3,0,0,0,1.58-5.27c.23-4-2.54-6.93-5.44-9.28-3.07-2.49-6.26-2.37-9.85-3.54a14.86,14.86,0,0,0-5.9-1.1c-.51,0-7,1.93-7,1.83l-1.49,3.67c2-.36,5.93-1.83,7.66-.56l.6-4.57c-2.49.72-6.88,1-8,3.81-.89,2.14.32,4.35,1.67,6,4.78,5.8,11.22,10.27,17.46,14.39a2.52,2.52,0,0,0,3.67-1.49c1.14-5.77,7.19-11,1.45-16.18-5.08-4.58-14.72-4.42-21-4.14a2.51,2.51,0,0,0-.66,4.91l12,3.81c1.26.4,4.57.75,5.42,1.44q1.72-.44.35,1.51l-.92,3.06,3.67-1.49c-2.68-1.3-4.75-4-7.17-5.73a45.57,45.57,0,0,0-8.25-4.7c-1.73-.77-4.57.56-3.67,2.82,2.24,5.65,9.08,6.89,13.81,9.93l1.93-4.57c-3.27-1.09-6.56-2.06-9.9-2.9s-4.25,3.65-1.33,4.82c4,1.58,8.36,3,11.75-.3h-3.54c3.95,3.58,7.42-.35,5.85-4.68l-4.18,2.43A11,11,0,0,1,167,116l2.16-3.76-2.49-.51a2.52,2.52,0,0,0-3.42,3.42c1.28,2.57,5.33,8.62,4.46,11.37-1,3.07,3.85,4.39,4.82,1.33,1.51-4.77-2.92-11.14-5-15.22l-3.42,3.42a9.11,9.11,0,0,0,5,1.2,2.53,2.53,0,0,0,2.16-3.76,19.6,19.6,0,0,0-2.37-3.75c-1.53-2-5,.17-4.18,2.43l.48.58,2.43-.64-.4-.12a2.55,2.55,0,0,0-3.54,0c-1.68,1.62-5.15-.29-6.89-1l-1.33,4.82c3.34.84,6.63,1.81,9.9,2.9,2.78.93,4.23-3.09,1.93-4.57a51.32,51.32,0,0,0-5.81-3.28c-1.79-.85-4.88-1.58-5.7-3.66l-3.67,2.82a44.23,44.23,0,0,1,8.25,4.7c2.47,1.82,4.4,4.39,7.17,5.73a2.54,2.54,0,0,0,3.67-1.49c1.17-3.89,3.06-7.6-1.29-9.85-5.66-2.92-13-4.18-19-6.11l-.66,4.91c4.57-.2,11.77-.68,15.78,1.86,1.55,1,2.5,2.35,2,4.13a17.61,17.61,0,0,1-1.3,2.1A23.05,23.05,0,0,0,165,122l3.67-1.49c-4-2.64-7.93-5.14-11.22-8.61-1.23-1.3-3-2.49-4.12-3.86q-2.5-1.47-.49-1.56l3.55-1a2.53,2.53,0,0,0,.6-4.57c-3.26-2.38-7.89-.6-11.52.05a2.51,2.51,0,0,0-1.49,3.67c1.49,2,3,2.57,5.55,2.24,3-.38,5-2,8.24-1.41,1.66.29,3.3,1.12,5,1.5,6,1.37,10.5,5.21,7.08,11.7-1.72,3.26-3.69,5.14-3.06,8.95L171,125.1c-3.11-4-7.48-5.72-12-7.77-5.81-2.65-8.44-9.29-11.68-14.54-1.69-2.73-6-.22-4.32,2.52Z"/><path class="cls-8" d="M138.22,108.16a27.68,27.68,0,0,0,8.6,13.45c4.6,3.92,10.34,4.86,15.13,8.22l1.93-4.57a47.58,47.58,0,0,1-6.68-1.69c-3.1-1.07-3.51-2.87-4.78-5.73A94.53,94.53,0,0,0,145.5,105a2.51,2.51,0,0,0-4.57,1.93c1.24,5,3.05,10.09,7.22,13.35,5.29,4.15,12.67,6.69,18.67,9.69l.6-4.57a7.43,7.43,0,0,1-5.68-.46c-2.92-1.27-5.47,3-2.52,4.32a14.28,14.28,0,0,0,9.53,1c2-.46,2.51-3.61.6-4.57-5-2.52-10.18-4.88-15.13-7.56-5.19-2.81-7.06-6.9-8.46-12.49l-4.57,1.93c3.42,5.34,5.45,11.23,8.56,16.67,2.39,4.18,8.53,5.06,12.81,5.88a2.51,2.51,0,0,0,1.93-4.57c-3.82-2.69-8.54-3.47-12.4-6.14a22.88,22.88,0,0,1-9-12.54c-.91-3.08-5.73-1.77-4.82,1.33Z"/><path class="cls-9" d="M172.41,127.58l4.17-9.69c.77-1.79,1.84-3.73,1.65-5.74-.37-3.86-4.64-7.07-7.6-9a27.78,27.78,0,0,0-26.47-2.19c-2.76,1.25-7.14,3.42-7.78,6.77-.78,4.05,4.3,8.63,6.63,11.42,6.78,8.13,16.59,15.61,27.68,11.72,1.51-.53.86-2.94-.66-2.41-8.71,3.05-16.68-1.81-22.56-8-2.41-2.55-6.58-6.37-7.83-9.7-1.85-4.94,4.42-7.3,8-8.47a25.33,25.33,0,0,1,20,2c3.08,1.71,8.41,5.32,8,9.57-.38,3.77-3.84,9.07-5.33,12.54-.63,1.46,1.52,2.74,2.16,1.26Z"/><path class="cls-10" d="M154.93,115.22c6.49-.6,12.34,1.22,17.8,4.69.68.43,1.31-.65.63-1.08-5.62-3.57-11.74-5.48-18.43-4.86-.79.07-.8,1.32,0,1.25Z"/><path class="cls-11" d="M151.46,107.58c8.13-.59,15.34,2.05,21.93,6.71.66.47,1.28-.62.63-1.08-6.76-4.78-14.22-7.49-22.56-6.88-.8.06-.8,1.31,0,1.25Z"/><path class="cls-10" d="M151.64,109.06c8.23-.82,15.55,1.7,22.32,6.31.67.45,1.29-.63.63-1.08-6.91-4.72-14.53-7.32-22.95-6.49-.79.08-.8,1.33,0,1.25Z"/><path class="cls-12" d="M96.56,136.91A21.38,21.38,0,0,0,93.49,143l4.57-.6-.8-1.35a2.51,2.51,0,0,0-4.91.66c-.2,2.11-2,3.67-2.88,5.5a20.37,20.37,0,0,0-1.23,5.62c-.29,1.9-.9,3.84-.72,5.78.22,2.37,1.69,4.29,1.6,6.72l4.91-.66a16.55,16.55,0,0,0-2-4.32c-1.48-2.28-5.46-.89-4.57,1.93,1.74,5.48,5.57,11.43,12.36,10.27,2.67-.46,5.39-2.06,7.81-3.23,3.3-1.6,6-4.76,9.64-5.51l-1.93-4.57-4.64,3.13a2.5,2.5,0,0,0,2.52,4.32,65.23,65.23,0,0,0,8.87-5.48c1.82-1.25,2.69-2.36,2.69-4.59,0-2.08-1.2-4.45-1.8-6.41a28.45,28.45,0,0,1-1-5.85c-.34-3.23-2.05-5.58-3.23-8.61-1.53-3.93-4.22-11.44-9.6-11.12-6,.35-11.07,9.38-13.84,13.77-1.4,2.23,1.31,4.51,3.42,3.42A52.2,52.2,0,0,0,112,132l-3.93-.51a107.92,107.92,0,0,1,7.79,18.63c.22.71,1.68,4.37,1.43,5.06-.55,1.51-2.64,1.51-3.88,1.91-2.89.95-5.5,2.59-8.33,3.7-1.67.66-3.39,1.21-5.1,1.74-2,.63-3.88,2.07-4.56-1a24.11,24.11,0,0,1,.12-7.54,17.9,17.9,0,0,1,5.53-9.56c1-1,6.32-5.91,7.91-5.38,1.37.46,2.8,7.32,3.32,8.83l1.5,4.34c.75,2.18,1.33,2.67-.8,3.81-3.09,1.64-7.16,2-10.54,2.47-1.37.2-2.73.4-4.08.72-1.8.43-1.57,1.07-1.91-.37-.54-2.32,2.43-7.3,3.38-9.28,1.64-3.41,3-5.65,6.35-7.3.64-.31,2.94-.5,1.38-1.5.39.25,1.09,5.14,1.21,5.66.88,3.75,1.93,7.45,3.07,11.12l1.75-3.08c-2.87.44-5.38.41-8.24,1.18a25.67,25.67,0,0,1-10.07.7l2.41,3.16c.81-3,3.87-5.73,5.55-8.28,1.86-2.84,3.37-7.12,6.21-9.15l-3.67-2.82c-2.38,6.93-7.25,12.63-9.9,19.46-.93,2.39,2.54,4.13,4.18,2.43a136.39,136.39,0,0,0,12.74-15.31c1.65-2.3-2-5.14-3.93-3-3.27,3.66-7.12,6.39-8.18,11.44a2.53,2.53,0,0,0,3.67,2.82,27.78,27.78,0,0,0,8.73-6.67l-3.93-3a36.17,36.17,0,0,1-2.4,4.27,2.52,2.52,0,0,0,1.49,3.67l1.78.51-.9-3.42-.26.5,2.16-1.24-1.24-.56c-2.66-1.83-5.16,2.5-2.52,4.32,2,1.39,4.84,2.11,6.18-.5a2.56,2.56,0,0,0-.9-3.42,7.3,7.3,0,0,0-3-1l1.49,3.67a36.17,36.17,0,0,0,2.4-4.27c1.14-2.4-1.91-5.29-3.93-3a24.32,24.32,0,0,1-7.72,5.89l3.67,2.82c.85-4,4.28-6.31,6.89-9.23l-3.93-3a127.57,127.57,0,0,1-12,14.3l4.18,2.43c2.65-6.84,7.5-12.49,9.9-19.46.68-2-1.91-4.09-3.67-2.82-3.38,2.43-4.89,6-7,9.42s-5.89,6.9-7,11a2.54,2.54,0,0,0,2.41,3.16A27.81,27.81,0,0,0,105,161c3.36-.77,6.5-1.09,9.88-1.61a2.52,2.52,0,0,0,1.75-3.08c-1.53-4.91-2.82-9.86-3.9-14.89-.56-2.6-1-4.77-4.05-4.84-7.72-.19-11.56,6.74-14.2,12.75C92.89,153,88,163,94.5,164.9c1.6.47,2.83-.13,4.35-.55a58.91,58.91,0,0,1,6.85-1.24c3.72-.57,9.55-1.38,12.57-3.85,1.87-1.53,1.78-3.54,1.24-5.71a145.33,145.33,0,0,0-5.4-15.64c-3-8-8.82-3.2-13.79.66-6.39,5-10,11.31-9.89,19.45.12,6.8,1.05,12.2,9.14,9.9,5.51-1.57,10.43-4.49,15.83-6.15,2.68-.83,6.78-1.32,7.26-4.75.53-3.8-2.39-9.63-3.67-13.15A118.2,118.2,0,0,0,112.38,129a2.52,2.52,0,0,0-3.93-.51,48,48,0,0,1-12.22,9l3.42,3.42a56.89,56.89,0,0,1,5.12-7c2-2.3,3.62-4.38,6.5-2.07,1.75,1.4,2.2,4,3,5.93.86,2.12,2.43,4.29,2.75,6.56.2,1.4-.06,2.77.27,4.22.45,2,2.46,5.24,2.21,7.21-.18,1.47-.37,1.08-1.79,1.85a13.75,13.75,0,0,0-1.76,1c-1.82,1.35-3.07,2.71-5.22,3.71l2.52,4.32,4.64-3.13a2.51,2.51,0,0,0-1.93-4.57c-7.86,1.62-19.13,16.26-23.65,2l-4.57,1.93A8,8,0,0,1,89.21,166a2.51,2.51,0,0,0,4.91-.66,15.12,15.12,0,0,0-.91-4.87c-.75-2.86-.25-5.78.24-8.7.63-3.71,3.54-6.19,3.9-10.06l-4.91.66a10.63,10.63,0,0,0,1.3,2.55,2.54,2.54,0,0,0,4.57-.6,16.21,16.21,0,0,1,2.57-4.9c1.9-2.6-2.43-5.1-4.32-2.52Z"/><path class="cls-9" d="M123.49,159.13c-7.37,3.61-13.91,10-22.12,11.71-16.58,3.39-13-18.76-8.15-27.54a66.25,66.25,0,0,1,9.3-12.54c1.63-1.78,4.81-5.38,7.41-5.35,2.3,0,4.38,3.54,5.49,5.23,5.35,8.18,6.43,18.6,8,28,.27,1.58,2.68.91,2.41-.66-1.15-6.74-2.1-13.57-4.32-20.07-1.48-4.32-4.87-13.1-9.67-14.95-3.77-1.45-8.81,3.51-11.13,6a62.09,62.09,0,0,0-11.45,16.56c-4,9-6.09,25.17,6.67,27.85,10.46,2.2,20.17-7.91,28.77-12.12,1.44-.71.18-2.86-1.26-2.16Z"/><path class="cls-13" d="M107.84,135.62a47.48,47.48,0,0,0-9.06,19.79c-.16.78,1,1.12,1.21.33a46.12,46.12,0,0,1,8.74-19.24c.49-.63-.39-1.52-.88-.88Z"/><path class="cls-13" d="M113.31,146.64c-2.24,3.92-4.31,7.86-4.67,12.43-.06.8,1.19.8,1.25,0,.34-4.34,2.38-8.09,4.5-11.8a.63.63,0,0,0-1.08-.63Z"/><path class="cls-14" d="M122.13,133.15a5.31,5.31,0,0,0-3.58-.16,8.9,8.9,0,0,0-3,2.44,17.75,17.75,0,0,0-2.59,2.78,20.31,20.31,0,0,0-1.4,3.28c-1.09,2.68,3.17,4.29,4.57,1.93a48.88,48.88,0,0,0,3.6-7.55,2.52,2.52,0,0,0-1.75-3.08,2.56,2.56,0,0,0-3.08,1.75,41.33,41.33,0,0,1-3.1,6.35l4.57,1.93a15,15,0,0,1,.7-1.72,6.6,6.6,0,0,1,1.17-1.29,15.23,15.23,0,0,0,1.68-1.68q.8-.51.18-.41l.7.25c3,1.06,4.36-3.77,1.33-4.82Z"/><path class="cls-15" d="M124.12,143.69a22.12,22.12,0,0,0-.34-2.66l-4.18,2.43.93,1.2,3.42-3.42c-1.4-.63-2.77-2.42-4.15-3.28a2.53,2.53,0,0,0-3.67,1.49c-1.14,3.49-2.34,7-3.39,10.49a32.7,32.7,0,0,0-1.14,4.44c-.18,1.15.39,3.77-.14,4.68l2.16-1.24-.51,0,2.16,1.24.28.87-4.66-1.26a5.69,5.69,0,0,0,1.44,4.82,2.49,2.49,0,0,0,2.43.64,81.31,81.31,0,0,0,8.58-3.49c2.36-1.08,3.25-2.72,3.84-5.19,1.06-4.46-.42-11.26-5-13.38-1.84-.86-4.39.58-3.67,2.82,1.11,3.47,2.9,7,2.32,10.74h4.82c-1.09-3.9-1.7-7.58-4.25-10.82-1.72-2.19-4.54.29-4.18,2.43.21,1.21,1.27,6.21.14,7.36l2.43-.64c-.36-.09.77-5.59.85-6.09l-4.91-.66-1,10.31,3.76-2.16c-1.79-1.11-3.73-1.58-5.21.3-2,2.5,1.55,6.07,3.54,3.54l-.85.48c1.74,1.08,3.59-.37,3.76-2.16l1-10.31c.27-2.78-4.44-3.45-4.91-.66-.53,3.13-3.1,12.2,3,12.29,5.68.08,3.78-9.75,3.25-12.91l-4.18,2.43c1.88,2.39,2.17,5.78,3,8.62.62,2.2,4.43,2.55,4.82,0,.74-4.86-.86-8.81-2.32-13.39l-3.67,2.82c3.1,1.45,4,7.92,1.14,9.81a21.65,21.65,0,0,1-3.45,1.21c-1.32.55-2.61,1.47-3.94,1.9l2.43.64,0-1.29c.19-2.73-3.34-3-4.66-1.26a3.55,3.55,0,0,0-.28,4.18,2.51,2.51,0,0,0,2.16,1.24l.51,0a2.49,2.49,0,0,0,2.16-1.24c1.47-2.51.59-6.12,1.37-8.9,1.13-4,2.51-8,3.81-11.91l-3.67,1.49c1.54,1,2.5,2.53,4.15,3.28,2.18,1,4.73-1.09,3.42-3.42a7.72,7.72,0,0,0-1.71-2.21,2.52,2.52,0,0,0-4.18,2.43l.16,1.33c.22,3.19,5.22,3.22,5,0Z"/><path class="cls-9" d="M123.85,146.14c4.58,4.57,2.75,13.53-3.8,14.79-1.58.3-.91,2.71.66,2.41,8.48-1.63,10.79-13.1,4.91-19a1.25,1.25,0,0,0-1.77,1.77Z"/><path class="cls-9" d="M126.16,144.84c-1.94-3.19-.8-9-6.19-8.73-4.33.18-5.82,5-6.77,8.43-1,3.63-1.91,7.28-2.86,10.92-.54,2.06-1.88,4.94-1,7.14,1.87,4.83,8.27,2.11,11.32.52,1.43-.75.16-2.9-1.26-2.16-2.57,1.35-7.22,1.33-7.32-2.1a15.56,15.56,0,0,1,1-3.64c.79-3,1.58-6.07,2.38-9.1.25-.95.48-1.91.79-2.84a11.86,11.86,0,0,1,1.15-2.71l5.19.43c.78.71.76,3.9,1.5,5.11.84,1.37,3,.12,2.16-1.26Z"/><path class="cls-9" d="M124.91,138.64c-1.22-1.63.37-3.94-1.08-5.6-.74-.84-3.41-1.4-4.17-1.61-3.73-1-5,1.8-6.48,5.07-2.36,5.39-12.76,25.51-2.2,28.16a1.25,1.25,0,0,0,.66-2.41c-6.92-1.74,2.21-22.57,4.36-26a4.18,4.18,0,0,1,2.46-2.48,3.22,3.22,0,0,0,.7.7,7.22,7.22,0,0,1,1.61.43c1.73,1.49.72,3.3,2,5,1,1.27,3.12,0,2.16-1.26Z"/><path class="cls-9" d="M114.51,144c-7.9-2.84-9.5,5.8-9.17,11.72.13,2.26.21,4.5.17,6.77,0,1-.26,2.08.34,2.91,1.34,1.87,4,0,5.49-.78s.16-2.92-1.26-2.16a9.06,9.06,0,0,0-2.13,1.35q.07-1.33.08-2.65c0-1.33,0-2.65-.1-4-.19-3.71-1.1-13.29,5.91-10.77,1.52.54,2.17-1.87.66-2.41Z"/><path class="cls-16" d="M111.4,145.76c-1.94,3-1.31,7-2.55,10.33-.71,1.9-3.09,6.32-.88,8.05a1.25,1.25,0,0,0,1.77-1.77c-.07-.09-.2-1.83-.44-1.66l-1.88-1.08.25,2.7c.14,1.58,2.61,1.62,2.5,0a4.61,4.61,0,0,1,.41-2.92c.55-1.52-1.84-2.15-2.41-.66a5.43,5.43,0,0,0-.57,2.26c.21,1.26-.23,1.13.94.81l1.41.57c-1.51-2.49.46-4.49.92-6.89.6-3.16-.35-5.78,2.33-8.32a1.26,1.26,0,0,0-.88-2.13c-1.71-.11-2.25.89-3.49,1.91l1.77,1.77a3.21,3.21,0,0,0,1.2-1.78c.47-1.21-1.26-2-2.09-1.22l-.93.83,1.51,2,1.16-1.17c1.15-1.16-.56-2.8-1.77-1.77a5.62,5.62,0,0,0-2.35,4.42c-.17,2.85-.69,5.75-.68,8.6a1.25,1.25,0,0,0,2.5,0c0-3.06-.56-6.79,1.24-9.43.91-1.33-1.25-2.58-2.16-1.26-2.09,3-1.59,7.18-1.59,10.69h2.5c0-1.71.37-3.41.53-5.11.21-2.19-.06-4.59,1.77-6.15l-1.77-1.77-1.16,1.17c-1,1,.35,2.85,1.51,2a12.76,12.76,0,0,0,1.44-1.22l-2.09-1.22-.56.68c-1.24,1,.54,2.78,1.77,1.77a7.25,7.25,0,0,1,1.72-1.18l-.88-2.13a9.92,9.92,0,0,0-2.46,3.86c-.66,1.76-.3,3.11-.43,4.93-.15,2.1-1.78,3.55-1.78,5.6a8.78,8.78,0,0,0,1,3.85,1.28,1.28,0,0,0,1.41.57c2.2-.61.8-3.3,1.38-4.82l-2.41-.66a8.1,8.1,0,0,0-.5,3.59h2.5l-.25-2.7c-.08-.84-1-1.69-1.88-1.08-1.64,1.19-1.2,4.15-.07,5.59l1.77-1.77c-1-.75,1.89-6.58,2.13-7.92.41-2.37.38-5.37,1.69-7.43.87-1.36-1.3-2.62-2.16-1.26Z"/><path class="cls-17" d="M120.85,155.2c-.16.15-.63.45.05,0l1.26-.34h0l2.5,2.5v0l-2.5,2.5h0a2.75,2.75,0,0,0,1.77-.73,2.5,2.5,0,0,0,0-3.54,2.39,2.39,0,0,0-1.77-.73h0a2.69,2.69,0,0,0-1.77.73,2.53,2.53,0,0,0-.73,1.77v0a2.56,2.56,0,0,0,2.5,2.5,3.1,3.1,0,0,0,2.26-1.13,2.52,2.52,0,0,0,0-3.54,2.55,2.55,0,0,0-3.54,0Z"/><path class="cls-17" d="M121.25,153.31a4.68,4.68,0,0,0-2.27,2.12c-.38.71.7,1.34,1.08.63a3.61,3.61,0,0,1,1.82-1.67.63.63,0,0,0,.22-.86.64.64,0,0,0-.86-.22Z"/><path class="cls-17" d="M120.27,146.92c-4.14,2.19-6.13,8.48-7.31,12.68a.63.63,0,0,0,1.21.33c1.06-3.75,3-10,6.74-11.93.71-.38.08-1.46-.63-1.08Z"/><path class="cls-6" d="M76.54,170.68,121,169.43c3.21-.09,3.23-5,0-5l-30.25-.2v5l30.07-2.6v-5q-23.7,2.27-47.52,2.47c-3.26,0-3.17,4.75,0,5L108,171.86l-.66-4.91-18.51,4.19c-3.2.72-1.77,5.29,1.33,4.82a168.15,168.15,0,0,1,21.59-1.84l-.66-4.91L96.2,172.56c-2.73.61-2.16,5,.66,4.91q15.78-.7,31.46-2.52c3.12-.36,3.3-4.95,0-5a294.21,294.21,0,0,1-46.95-4.52l-.66,4.91,19.61,2.41-.66-4.91-30.38,4.11c-3,.4-1.93,4.69.66,4.91,25.17,2.17,50.34.18,75.44-1.91v-5q-18.08,2-36.26,2.47l.66,4.91a46.78,46.78,0,0,1,17.62-1.48v-5A334.92,334.92,0,0,1,71,170.39v5q29.79,1,59.54,3l-.66-4.91c-11.45,2.75-23.13,3-34.85,3.05v5l36.4-1.26c2.67-.09,3.58-4.5.66-4.91q-26.89-3.79-53.53-9.06l-.66,4.91a225.7,225.7,0,0,1,36.29-1.07c2.76.14,3.48-4.51.66-4.91-15.26-2.19-30.51-4.44-45.57-7.8v4.82a142.18,142.18,0,0,1,41.37-.91v-5a143.5,143.5,0,0,1-31.88,0v5l38.94,1.59v-5a64.6,64.6,0,0,1-22.18-2.3l-.66,4.91q19-2.09,38-2.94a2.5,2.5,0,0,0,0-5l-51.35-4v5A230.85,230.85,0,0,1,115.06,155v-5l-27.73,2.66a2.5,2.5,0,0,0,0,5l59,2.94v-5l-26.33.51c-3.23.06-3.21,4.87,0,5a36.19,36.19,0,0,1,8.24,1.3l.66-4.91a81.35,81.35,0,0,1-23.38-2.25l-.66,4.91,22.49,1.5c2.78.19,3.46-4.43.66-4.91l-58.18-10-.66,4.91a75.82,75.82,0,0,1,17.41,2.12V149A223.73,223.73,0,0,0,58,155a2.51,2.51,0,0,0,.66,4.91l35.77,1.27v-5c-5.06-.08-13.47,1.63-16.41-3-1.47-2.33-2.91-4-5.84-3.39-2.73.54-2.16,5.17.66,4.91a127.8,127.8,0,0,1,25.85.26c2.81.31,3.38-4.28.66-4.91a21.14,21.14,0,0,0-7.52-.48c-1.85.21-3.68,2.77-1.77,4.27L104.23,165c2.5,2,6.06-1.55,3.54-3.54L93.61,150.34l-1.77,4.27a16.09,16.09,0,0,1,6.19.31l.66-4.91a127.8,127.8,0,0,0-25.85-.26l.66,4.91c-1.21.24,3.88,5.65,5.1,6,4.61,1.42,11,.47,15.82.55,3.22.05,3.21-4.89,0-5L58.65,155l.66,4.91a223.73,223.73,0,0,1,28.6-6.09c2.5-.36,2.26-4.28,0-4.82a81.67,81.67,0,0,0-18.74-2.3c-2.73,0-3.51,4.42-.66,4.91l58.18,10,.66-4.91-22.49-1.5c-2.82-.19-3.38,4.25-.66,4.91a86.15,86.15,0,0,0,24.71,2.43c2.75-.13,3.47-4.14.66-4.91a42.07,42.07,0,0,0-9.57-1.48v5l26.33-.51c3.23-.06,3.2-4.84,0-5l-59-2.94v5L115.06,155a2.5,2.5,0,0,0,0-5,230.85,230.85,0,0,0-33.49-1.47c-3.25.09-3.18,4.75,0,5l51.35,4v-5q-19.05.85-38,2.94c-2.66.29-3.56,4.1-.66,4.91a68.73,68.73,0,0,0,23.51,2.48,2.5,2.5,0,0,0,0-5l-38.94-1.59c-3.28-.13-3.12,4.65,0,5a143.5,143.5,0,0,0,31.88,0,2.5,2.5,0,0,0,0-5A146.59,146.59,0,0,0,68,157.44c-2.45.42-2.32,4.3,0,4.82,15.05,3.37,30.31,5.61,45.57,7.8l.66-4.91a225.7,225.7,0,0,0-36.29,1.07c-2.56.28-3.67,4.32-.66,4.91q26.64,5.27,53.53,9.06l.66-4.91-36.4,1.26c-3.21.11-3.23,5,0,5,12.16-.09,24.3-.37,36.18-3.23,2.86-.69,2-4.73-.66-4.91q-29.74-2-59.54-3c-3.26-.11-3.15,4.71,0,5a334.92,334.92,0,0,0,56.34.45,2.5,2.5,0,0,0,0-5,50.42,50.42,0,0,0-18.95,1.66c-2.68.75-2.2,5,.66,4.91q18.19-.44,36.26-2.47c3.14-.35,3.24-5.27,0-5C120.27,172,95.1,174,69.93,171.85l.66,4.91L101,172.66c3-.41,1.85-4.6-.66-4.91l-19.61-2.41c-2.78-.34-3.43,4.42-.66,4.91a302.65,302.65,0,0,0,48.28,4.69v-5q-15.69,1.82-31.46,2.52l.66,4.91L112.44,174c2.76-.62,2.14-5-.66-4.91a178.53,178.53,0,0,0-22.92,2L90.18,176l18.51-4.19c2.9-.66,2-4.7-.66-4.91L73.28,164.1v5q23.81-.2,47.52-2.47c3.17-.3,3.22-5.28,0-5l-30.07,2.6c-3.16.27-3.27,5,0,5l30.25.2v-5l-44.44,1.25c-3.21.09-3.22,5.09,0,5Z"/><path class="cls-6" d="M181.71,122.19c-12.2,1.43-24.4,2.72-36.68,1.44l.66,4.91,31.54-6.72c2.76-.59,2.14-5-.66-4.91q-18.18.54-36.27,2.31c-2.58.25-3.66,4.35-.66,4.91q11.64,2.19,23.43,3.23v-5a72.1,72.1,0,0,1-13.28.32l.66,4.91A144.5,144.5,0,0,1,169,125l-.66-4.91a219.93,219.93,0,0,1-26.52,4.45c-3.1.38-3.31,5,0,5l34.09-.05-.66-4.91a169.71,169.71,0,0,1-18.46,2.76,2.5,2.5,0,0,0,0,5l11.45,1.51-.66-4.91a42,42,0,0,1-13.15,1.1l.66,4.91q9.06-1.76,18.22-2.77c3.15-.34,3.22-5.31,0-5q-11.46,1.09-23,1.53v5a196.41,196.41,0,0,1,21.78-1v-5a202.3,202.3,0,0,1-21.92.7v5l9-1.19c3.08-.41,3.32-5,0-5l-8.67,0c-3.22,0-3.22,5,0,5l8.67,0v-5l-9,1.19c-3.09.41-3.32,4.93,0,5a202.3,202.3,0,0,0,21.92-.7c3.16-.27,3.27-5,0-5a196.41,196.41,0,0,0-21.78,1c-3.14.32-3.27,5.12,0,5q11.51-.44,23-1.53v-5q-9.84,1.08-19.55,3c-2.91.57-2,4.73.66,4.91a46.69,46.69,0,0,0,14.48-1.28c3-.73,1.92-4.57-.66-4.91l-11.45-1.51v5a181.89,181.89,0,0,0,19.78-2.94c2.78-.61,2.12-4.92-.66-4.91l-34.09.05v5a231,231,0,0,0,27.85-4.63c2.68-.67,2.19-5.12-.66-4.91a154.87,154.87,0,0,0-19.87,2.74c-2.9.59-2,4.73.66,4.91a72.1,72.1,0,0,0,13.28-.32,2.5,2.5,0,0,0,0-5q-11.13-1-22.1-3.05l-.66,4.91q18.1-1.77,36.27-2.31l-.66-4.91-31.54,6.72c-3,.63-1.95,4.64.66,4.91,12.27,1.28,24.48,0,36.68-1.44,3.16-.37,3.2-5.37,0-5Z"/><path class="cls-6" d="M179.52,120l-21.41,2.44c-3.15.36-3.28,4.81,0,5a73.51,73.51,0,0,0,20.2-1.64L177,121l-12.31,4.42c-2.55.92-2.3,4.93.66,4.91l8.61-.05c3.22,0,3.22-5,0-5l-8.61.05.66,4.91,12.31-4.42A2.5,2.5,0,0,0,177,121a68.48,68.48,0,0,1-18.87,1.46v5L179.52,125c3.16-.36,3.2-5.36,0-5Z"/><path class="cls-17" d="M218.85,133.72a92.59,92.59,0,0,1,13,11.3c3.61,3.8,7.29,7.14,5.6,12.68-2.64,8.67-10.09,14.8-18.7,16.84-9.39,2.23-5.41,16.69,4,14.46,14.11-3.34,26.26-14.74,29.66-29,4.05-17.07-13.8-30.46-25.94-39.21-3.31-2.39-8.32-.55-10.26,2.69-2.25,3.75-.58,7.91,2.69,10.26Z"/><path class="cls-17" d="M200.11,181.67a109.43,109.43,0,0,1-30.62,6c-9.61.46-9.67,15.46,0,15a124,124,0,0,0,34.61-6.55c9.07-3.13,5.17-17.62-4-14.46Z"/></svg>