<svg id="圖層_1" data-name="圖層 1" xmlns="http://www.w3.org/2000/svg" viewBox="0 0 300 300"><defs><style>.cls-1{fill:#f5b81b;}.cls-2{fill:#06143f;}.cls-3{fill:#f7f8f8;stroke:#4c4948;}.cls-3,.cls-5{stroke-miterlimit:10;}.cls-4{fill:#e6e6e6;}.cls-5{fill:none;stroke:#f5b81b;stroke-width:2px;}.cls-6{fill:#da7751;}.cls-7{fill:#decf8c;}.cls-8{fill:#eee6d5;}.cls-9{fill:#f3e9cf;}.cls-10{fill:#bc7a4a;}.cls-11{fill:#9d875a;}.cls-12{fill:#f3c341;}.cls-13{fill:#231815;}.cls-14{fill:#35240d;}</style></defs><title>鰈魚02</title><ellipse class="cls-1" cx="149.98" cy="146.83" rx="149.13" ry="80.6"/><ellipse class="cls-2" cx="150.21" cy="145.52" rx="147.21" ry="77.72"/><ellipse class="cls-3" cx="150.24" cy="153.28" rx="106.86" ry="58.69"/><ellipse class="cls-4" cx="150.24" cy="157.89" rx="98.9" ry="54.55"/><ellipse class="cls-5" cx="150.3" cy="153.34" rx="106.42" ry="58.99"/><path class="cls-6" d="M156.44,166.27l.37,0h0a1.34,1.34,0,0,0,.28,0l.37,0a1.33,1.33,0,0,0,.34-2.63,6.86,6.86,0,0,0-1.72,0,1.33,1.33,0,0,0,.35,2.63Z"/><path class="cls-7" d="M57.14,150.23c-3,1.52-6,3.44-6.66,7-.56,3.23.86,6.42,3,8.81l2.46-4.23a.81.81,0,0,1-1.06-.6L54.31,165l8.29-8c2.38-2.31-.46-6.44-3.19-4.24a9.63,9.63,0,0,0-3.57,5.68,9.06,9.06,0,0,0-.08,3.23c.2,1.21,1.09,2.48.94,3.71l1.63-2.12a4.08,4.08,0,0,1-1.5.11c-2.89-.19-4.26,3.91-1.36,5.08L61,170.61a2.67,2.67,0,0,0,3.48-1.42,13.84,13.84,0,0,0,.69-5.25,12,12,0,0,0-.49-2.47c-.46-1.57-.32-1.36-1.84-2l-1.61-2.79a22.2,22.2,0,0,0,.5,10.94c.15.52.32,1,.51,1.53s.3.75.47,1.12q.24.87.37-.27l1.74-1q.71.37,0-.43l-2.46,4.23a5.75,5.75,0,0,1,4.26,5.51l4.75-1.95-2.66-3.48c-1.76-2.31-6.08-.11-4.58,2.6a18.06,18.06,0,0,0,9.31,8.38l.68-5.08c-1,0-1.44-.6-1.89-1.32l-3.15,4a37.85,37.85,0,0,0,11.62,1.69l-2.8-3.66c.33-.62-1.74-.07-2.32-.06-1.2,0-2.9,0-3.57-1.25l-3.48,3.46a26.13,26.13,0,0,0,12.7,2.78l-1.36-5.09a2.61,2.61,0,0,1-1.93.39v5.27a14.32,14.32,0,0,1,8.81,1.43l1.36-5.08a14.18,14.18,0,0,0-6-.09,2.67,2.67,0,0,0,0,5.27,57.16,57.16,0,0,1,6.57,1.73c.31.1,4.73,1.4,4.68,2l3-2.3c-3.77-.75-5.86-6-8.27-8.58a31.36,31.36,0,0,0-9.71-6.81c-1.68-.81-3.13-1.59-3.88-3.39a23.22,23.22,0,0,1-1-4.22c-.6-2.9-1.47-5.52-3.85-7.44a2.68,2.68,0,0,0-4.27,1.75,13.25,13.25,0,0,0,3,9.72c2.19,2.62,6.43-.56,4.24-3.19-1-1.19-3.85-4.31-3.51-6l-1,1.78.35-.21-1.94.51.4.06-2.12-1.63.16.31A2.67,2.67,0,0,0,70,159.3l-.06-2.51-5.27.7c1.41,7.73,3.28,15.79,9.65,21l2-4.72-1.81-.1c-2.8-.16-4.38,4.06-1.36,5.08l3.15,1.07c3.22,1.1,5.29-3.8,2.05-4.9l-3.15-1.07-1.36,5.08,1.81.1a2.68,2.68,0,0,0,2-4.72c-5.2-4.25-6.52-11.25-7.66-17.52-.63-3.42-5.35-2.67-5.27.7l.06,2.51,5.09-1.36c-1.44-2.75-5.58-2.62-6.06.8-.46,3.23,2.67,7.25,4.6,9.58l4.24-3.19a7.89,7.89,0,0,1-2-5.85l-4.27,1.75c2.26,1.82,2.05,5.72,2.84,8.33,1.13,3.79,3.68,5.78,7.13,7.45A25.81,25.81,0,0,1,86.53,186c2.43,3.36,4.85,6.41,9.12,7.26a2.68,2.68,0,0,0,3-2.3c.29-3-1.71-5-4.31-6.19a53.47,53.47,0,0,0-11.53-3.44v5.27a10.58,10.58,0,0,1,4.59.1c3.07.7,3.89-3.82,1.36-5.08a19.26,19.26,0,0,0-11.56-1.8,2.67,2.67,0,0,0,0,5.27,7.29,7.29,0,0,0,4.62-.75,2.67,2.67,0,0,0-1.36-5.09,20.67,20.67,0,0,1-9.95-2.41c-2-1-4.57,1.45-3.48,3.46a8.5,8.5,0,0,0,7.91,4.53c3.07,0,6.24-.22,7.79-3.18,1-2-1-3.67-2.8-3.66a29.48,29.48,0,0,1-8.87-1.32,2.68,2.68,0,0,0-3.15,4,7.35,7.35,0,0,0,6.84,3.39c2.71-.06,3-4.17.68-5.08A12.35,12.35,0,0,1,69,173.51l-4.58,2.6,2.66,3.48c1.69,2.21,4.91.62,4.75-1.95A11.09,11.09,0,0,0,63,167.57c-2.43-.58-3.56,2.51-2.46,4.23s2.62,2.87,4.67,2.56a3.68,3.68,0,0,0,3.11-4c-.17-1.92-1.48-3.74-1.87-5.65a18.45,18.45,0,0,1,.06-7.33,2.68,2.68,0,0,0-1.61-2.79,4.48,4.48,0,0,0-6,3c-1,3.28,1.74,6.11.71,9.51L63,165.71l-5.51-2.24-1.36,5.08a12.22,12.22,0,0,0,4.18-.46A2.6,2.6,0,0,0,62,166c.41-3.26-2.59-6.46.63-9l-3.19-4.24-8.29,8a2.75,2.75,0,0,0-.52,3.72,5.84,5.84,0,0,0,4.63,2.68c2.09.13,4.07-2.39,2.46-4.23-1-1.14-2.11-2.61-2-4.22.1-1.87,2.05-2.77,3.5-3.5,3-1.54,1-6.46-2-4.91Z"/><path class="cls-8" d="M64.26,161.13c.05.1-.46,1.16-.58,1.8a5.2,5.2,0,0,0,.19,2.56,7.52,7.52,0,0,0,3.51,4.11c1.84,1.1,3.58,1.52,4.62,3.51,1,1.84,1.55,3.79,2.69,5.55a19.92,19.92,0,0,0,9.13,7.48c1.95.78,4.22.82,6.06,1.76,2.31,1.18,4.47,3.16,6.59,4.66l2-4.72c-1.82-.16-3-1.77-4.26-3a41,41,0,0,0-3.94-3.44,16.76,16.76,0,0,0-8.39-3.54c-1.74-.15-2.62-.09-3.79-1.58a43.61,43.61,0,0,1-2.49-3.72,21.07,21.07,0,0,0-5.66-6.49,2.71,2.71,0,0,0-4.09,1.06c-2,3.57.65,7,2.9,9.7,2.85,3.36,5.58,7.19,9.42,9.48,2.85,1.7,6-2,3.28-4.18-2.17-1.75-4.14-1.1-6.68-1.2-3.34-.14-3.92-4.21-4.36-6.81-.58-3.36-5.85-2.68-5.27.7S66.43,181.6,69,184a8,8,0,0,0,4.21,2.16c1.22.19,4-.57,4.93.17l3.28-4.18c-2.66-1.58-4.53-3.87-6.51-6.2-1.13-1.33-5.24-4.88-4.2-6.76l-4.09,1.06c4.86,3.35,6.24,12.19,12.84,12.81a13.67,13.67,0,0,1,4.94,1,20.46,20.46,0,0,1,4.75,3.39c2.64,2.35,4.84,5.34,8.61,5.68,2.48.22,4.22-3.14,2-4.72-3.33-2.36-6.6-5.41-10.67-6.28a15.14,15.14,0,0,1-9.92-6.3c-2.08-3.09-2.45-6.83-5.79-9-1.06-.69-4.17-1.49-4.35-2.87-.06-.48.75-1.46.83-2a4.47,4.47,0,0,0-.66-2.79c-1.64-3-6.57-1-4.91,2Z"/><path class="cls-9" d="M102.51,195l7,2.84,2.05-4.9-8.63-2.48a10.82,10.82,0,0,0-1.92-.55l.35,2.32.66.17a6.35,6.35,0,0,0,3.4.37l-1.36-5.09-1.13.58a2.69,2.69,0,0,0,0,4.91,28.29,28.29,0,0,0,6.76,2.27l.68-5.27a41.85,41.85,0,0,0-7.22-.52c-2.3,0-3,3.49-1.29,4.72,7.78,5.45,17.1,6.79,26.4,6.25l-.7-5.27c-7.89,1.4-15.43-3.27-23.4-2.7-3,.21-3,5.07,0,5.27l26.69,1.75-.67-5.09q-2.68,1.11-5.31,2.34a2.68,2.68,0,0,0,.67,5.09,20.59,20.59,0,0,0,11.77-1c3-1.12,1.52-5.22-1.36-5.09a53.77,53.77,0,0,1-12.44-.93l.67,5.09a28.85,28.85,0,0,1,10.1-3.28,2.67,2.67,0,0,0,0-5.27q-15.31-2-30.51-4.71l-.68,5.27a138.21,138.21,0,0,0,15.79,1.63c2.75.13,4.46-4.22,1.36-5.08l-16.07-4.48-.68,5.08a45.23,45.23,0,0,1,13.22.2l.68-5.27q-11.68-1.87-23.46-3c-3.39-.33-4.09,4.94-.68,5.27a175.65,175.65,0,0,1,22.87,3.75l.68-5.27a190.47,190.47,0,0,0-19.93-3.07v5.27a170,170,0,0,1,28,1.93c3.39.51,4-4.66.68-5.27a353.42,353.42,0,0,0-37-4.71v5.27l21.2-1.13c2.54-.14,3.2-4.36.68-5.08l-26.3-7.55-1.36,5.08,21.54,4.45.68-5.27-26.07-5.23c-2.89-.58-4.27,4.28-1.36,5.08l18.11,5L97,174.66l-11.47-1.41c-2.86-.35-4.33,4.23-1.36,5.08l14.73,4.27,1.36-5.08a96.75,96.75,0,0,1-22-5.21l0,4.91c2.64-1,5.47-1,8.28-1.15l9.49-.33c3-.11,3-5,0-5.27l-17.69-1.62.67,5.09a78.44,78.44,0,0,1,12.41-2.57c3-.39,2.93-4.79,0-5.27A126.39,126.39,0,0,1,72.5,162l-.68,5.08a93.81,93.81,0,0,1,12.25-.86c2.62,0,3.1-4.31.68-5.08l-8.3-2.65-1.36,5.08,3.58.39A2.67,2.67,0,0,0,80,158.9l-.38-.17,1.61,2.1-.06-.49-.54,2,.29-.41-1.74,1c.58-.11,1.44.33,2.08.3a3.8,3.8,0,0,0,2.18-.83,2.68,2.68,0,0,0-1.26-4.76l-10.37-1.48v5.27l2-.32-2.44-4.27a19.58,19.58,0,0,1-2.67,3c-1.42,1.28-1.45,3.79.57,4.57a33.71,33.71,0,0,0,6.09,1.71l-2.12-1.63A7.83,7.83,0,0,0,79,169.09l-1.26-4.76a3.73,3.73,0,0,1-3,.39c-3.14-.62-3.82,3.76-1.36,5.08A80.55,80.55,0,0,0,85.09,175c3.21,1.12,5.17-3.46,2.05-4.9l-4.71-2.18c-2.69-1.24-5.14,2.81-2.67,4.54a101.41,101.41,0,0,0,22.57,12c3.42,1.28,7,2.58,10.7,2.58s7.21-1.77,10.93-1.74l-1.26-4.76-4.52,3.05c-1.94,1.31-1,4.5,1.26,4.76a44.84,44.84,0,0,0,15.66-.89l-1.95-4.75a9.87,9.87,0,0,1-5.52,2.75l1.36,5.09a34.09,34.09,0,0,1,11.49-2l-.67-5.09c-6.22,1.94-13.13,1-17.6,6.67a2.69,2.69,0,0,0,2.44,4.27,49.44,49.44,0,0,0,18-4.43l-3.1-4.1c-2.69,3.82-6.38,7.32-11.1,8.32-5.42,1.14-10.67-1.59-15.37-3.94l-.68,5.08,29.83-2.47-2.8-3.66c-.86,1.69-2.64,2.63-4.21,3.56-2.33,1.38-.55,5.19,1.95,4.75l5.08-.88-2.8-3.66-.31.49,3.1,4.1c1.41-2,3.47-3,5.51-4.25L155,189c2-1.17.94-4.62-1.26-4.76a49.82,49.82,0,0,0-14.63,1.2l3,2.28,0-.55-.54,2c.64-1,3.29-1.22,4.38-1.57l5.47-1.72,10.45-3.29c3.3-1,1.21-5.82-2-4.91a86.19,86.19,0,0,1-15.13,2.75l.7,5.27a182,182,0,0,1,24.71-3.8l-3-2.28q.26-1.24-.93-.06-.78.4-1.57.75c-.8.35-1.61.67-2.44.94a27.75,27.75,0,0,1-6.16,1.22l.7,5.27a68.17,68.17,0,0,0,11.22-2.9l-2-4.91-.23.09a2.68,2.68,0,0,0-1.63,2.81c.81,3.38,4.17,3.62,7,2.56,3.21-1.19,1.19-6.1-2-4.91q-1.37.06-.64.31l1,1.74-.1-.4-1.63,2.81.23-.09c3.2-1.27,1.2-6-2-4.91a60,60,0,0,1-9.9,2.55,2.66,2.66,0,0,0,.7,5.27A31.81,31.81,0,0,0,167,185.06c2.45-1.13,6.11-2.81,5.36-6.13a2.73,2.73,0,0,0-3-2.28,182,182,0,0,0-24.71,3.8c-3.29.74-2.76,5.59.7,5.27a93.54,93.54,0,0,0,16.45-3.1l-2-4.91-14.43,4.54c-3.3,1-8.9,1.63-8.54,6.21a2.67,2.67,0,0,0,3,2.28,45.11,45.11,0,0,1,13.26-1.2l-1.26-4.76c-4.56,2.68-10.59,5.07-13.76,9.49-1.42,2,.6,5.43,3.1,4.1a6.3,6.3,0,0,0,3.19-3.35,2.68,2.68,0,0,0-2.8-3.66l-5.08.88,1.95,4.75a14.1,14.1,0,0,0,5.91-5.75c1-1.9-.94-3.81-2.8-3.66l-29.83,2.47c-2.8.23-2.88,4-.68,5.08,5.85,2.92,12.23,5.74,18.89,4.13,5.76-1.39,10.46-5.36,13.82-10.13,1.45-2.05-.55-5.26-3.1-4.1a45.45,45.45,0,0,1-16.68,4.08l2.44,4.27c3.42-4.35,10.58-3.53,15.43-5,2.45-.76,2-5.07-.67-5.09A41.56,41.56,0,0,0,127,185.58c-2.86,1-1.61,5.53,1.36,5.09a14.65,14.65,0,0,0,8-3.77c1.7-1.59.94-5.44-1.95-4.75a40.65,40.65,0,0,1-14.28.89l1.26,4.76,4.52-3.05c1.79-1.21,1.09-4.74-1.26-4.76-3.4,0-6.43,1.08-9.75,1.57-3.65.54-7.13-.78-10.5-2A95.58,95.58,0,0,1,83,168.25l-2.67,4.54L85.09,175l2.05-4.9a80.55,80.55,0,0,1-11.69-5.16L74.08,170a9.08,9.08,0,0,0,6.82-1.42c2.2-1.38.73-4.25-1.26-4.76-1.44-.36-1.54-2.15-2.86-2.79-1.58-.77-3.72-.87-5.4-1.52l.57,4.57a26.39,26.39,0,0,0,3.65-4,2.69,2.69,0,0,0-2.44-4.27l-2,.32a2.67,2.67,0,0,0,0,5.27l10.37,1.48-1.26-4.76c.61-.43.76-.23-.05-.49a3.19,3.19,0,0,0-1.46,0A3.12,3.12,0,0,0,76.47,159,3.2,3.2,0,0,0,78,163.8l1.36-5.08-3.58-.39c-2.86-.31-4.32,4.14-1.36,5.08l8.3,2.65.68-5.08a93.81,93.81,0,0,0-12.25.86c-2.47.34-3.27,4.24-.68,5.08a135.61,135.61,0,0,0,20.23,4.44V166.1A86.75,86.75,0,0,0,76.93,169c-2.58.76-1.86,4.86.67,5.09l17.69,1.62v-5.27c-6.18.22-13.23-.47-19.08,1.83-2.08.82-2.2,4.11,0,4.91a103.08,103.08,0,0,0,23.41,5.58c2.85.33,4.34-4.22,1.36-5.08l-14.73-4.27-1.36,5.08,11.47,1.41c2.85.35,4.34-4.26,1.36-5.08l-18.11-5-1.36,5.08,26.07,5.23c3.35.67,4-4.58.68-5.27l-21.54-4.45c-2.89-.6-4.26,4.25-1.36,5.08l26.3,7.55.68-5.08-21.2,1.13c-3,.16-3,5,0,5.27a353.42,353.42,0,0,1,37,4.71l.68-5.27a178.09,178.09,0,0,0-29.34-1.93c-3,0-2.94,5,0,5.27a190.47,190.47,0,0,1,19.93,3.07c3.36.7,4-4.5.68-5.27A175.65,175.65,0,0,0,94,181.19l-.68,5.27q11.77,1.14,23.46,3c3.37.54,4.05-4.72.68-5.27a50.31,50.31,0,0,0-14.6-.2c-2.42.32-3.33,4.34-.68,5.08l16.07,4.48,1.36-5.08a138.21,138.21,0,0,1-15.79-1.63c-3.38-.55-4,4.67-.68,5.27q15.2,2.71,30.51,4.71v-5.27a32.85,32.85,0,0,0-11.41,3.63,2.68,2.68,0,0,0,.67,5.09,59.61,59.61,0,0,0,13.81.92l-1.36-5.09a15.61,15.61,0,0,1-9.08.6l.67,5.09q2.63-1.24,5.31-2.34c2.35-1,2.05-4.91-.67-5.09l-26.69-1.75v5.27c8-.57,15.31,4.14,23.4,2.7a2.66,2.66,0,0,0-.7-5.27c-7.79.45-15.89-.59-22.42-5.16l-1.29,4.72a34.13,34.13,0,0,1,5.84.52c3.4.57,4-4.58.68-5.27a22.58,22.58,0,0,1-5.38-1.9l0,4.91,1.13-.58a2.67,2.67,0,0,0-1.36-5.09c-2,.16-3.63-1.1-5.71-.3a4.29,4.29,0,0,0-2.75,4.52c.35,2.45,2.53,3,4.61,3.63l8.63,2.48c3.19.92,5.3-3.58,2.05-4.9l-7-2.84c-3.17-1.28-5.23,3.61-2.05,4.9Z"/><path class="cls-9" d="M170.67,187.15a17.37,17.37,0,0,0,10-.91c2.71-1.07,1.7-4.47-.67-5.09l-7.46-2,1.75,4.27a8.53,8.53,0,0,1,2.7-2.6c2.33-1.46.55-5.08-1.95-4.75l-3.81.5.7,5.27a23.45,23.45,0,0,1,3.29-.26,13.21,13.21,0,0,1,1.48.06q1.2.54,1.32-.91c-2.31,1.37-.56,5.22,1.95,4.75l8.76-1.63-1.95-4.75a5.64,5.64,0,0,1-3.93,1.46l1.26,4.76c4.4-2.76,9.75-4.06,14.44-6.28a110.43,110.43,0,0,0,14-8c2.89-1.93-.32-6-3.19-4.24a38.9,38.9,0,0,1-18.5,5.54c-3,.12-6.1-.37-9.13,0s-5.81,2.27-8.92,2.48l.7,5.27a62.57,62.57,0,0,1,19-1.74l-.67-5.09a34.77,34.77,0,0,1-10.53,1.74l1.36,5.09c10.51-3.45,22.85-2,31.46-10.13,1.81-1.71.91-5.16-1.95-4.75-7.19,1-13.8,4-20.62,6.32a96.66,96.66,0,0,1-22.07,4.74,93.64,93.64,0,0,1-11.18.43c-3.33-.08-6.85-.77-10.16-.28s-5.83,3.06-9.1,3.86c-4,1-8.45,1-12.56,1.47-3.4.36-2.7,5.63.7,5.27,4-.42,8.08-.6,12-1.34a16.08,16.08,0,0,0,4.73-1.64c1.47-.8,2.86-1.9,4.52-2.28,3.25-.75,7.23.22,10.55.25a105.79,105.79,0,0,0,11.18-.46,102.69,102.69,0,0,0,21.21-4.38c7.15-2.27,14-5.62,21.47-6.68L211,165.81c-8.05,7.6-20.36,6.21-30.28,9.46-3.1,1-1.41,5.14,1.36,5.09a39.15,39.15,0,0,0,11.84-2.09c2.48-.83,1.94-4.92-.67-5.09a67.09,67.09,0,0,0-20.4,1.75,2.66,2.66,0,0,0,.7,5.27c3.29-.22,6.07-2.19,9.33-2.52,3.44-.34,6.93.2,10.38-.09a44.66,44.66,0,0,0,19.33-6.46l-3.19-4.24A101.08,101.08,0,0,1,194.88,175c-4.62,2.09-9.6,3.46-13.92,6.17-1.9,1.19-1,4.68,1.26,4.76a11.17,11.17,0,0,0,7.8-2.49c2-1.59.79-5.26-1.95-4.75l-8.76,1.63,1.95,4.75c2.48-1.48,2.45-5.07.46-6.94-2.57-2.42-7.26-1.9-10.44-1.46-3.38.46-2.7,5.71.7,5.27l3.81-.5-1.95-4.75a12.24,12.24,0,0,0-3.68,3.56,2.7,2.7,0,0,0,1.75,4.27l7.46,2-.67-5.09a12.42,12.42,0,0,1-7.35.55c-3.34-.7-4,4.57-.68,5.27Z"/><path class="cls-9" d="M211.29,171.94a23.18,23.18,0,0,0,8.93-6.65l-4.54-2.67,1.9-.67,0,4.91c5.73-2,11.87-3.67,17.38-6.26a12.78,12.78,0,0,0,5-4.07c1.25-1.71,2.22-4,4.3-4.86l-2.6-4.58-4.29,3.25a2.69,2.69,0,0,0,1.26,4.76c5.19.93,6.75-5.6,7.2-9.4a16.72,16.72,0,0,0-.43-7.56,7.36,7.36,0,0,0-1.86-2.94,6.88,6.88,0,0,0-1.14-.82c-1.84-1.11-.19-.18-.44.87l-3.66,2.11.21.21c1.47,3.08,6.39,1.08,4.91-2a6,6,0,0,0-3.07-3.1c-1.7-.83-3.28.55-3.66,2.11-.81,3.29,3.3,3.44,3.87,6,.27,1.21-.19,9.47-1.26,9.28l1.26,4.76,4.29-3.25a2.67,2.67,0,0,0-2.6-4.58c-4.44,1.73-5.21,7-9.26,8.93-5.44,2.66-11.68,4.24-17.38,6.26-2.22.79-2.06,4,0,4.91a3.62,3.62,0,0,0,5-2.18c.77-2.75-2.49-5.13-4.54-2.67a17.41,17.41,0,0,1-6.77,5c-3.15,1.33-1.14,6.25,2,4.91Z"/><path class="cls-7" d="M76.5,159c4.43-.91,7.22,1.2,9.82,4.53,2.26,2.9,4.52,5.57,8.38,6.07v-5.27a6.24,6.24,0,0,1-6-3.44l-3.76,3.69a127.17,127.17,0,0,1,15.76,13.14l3.28-4.18a50.48,50.48,0,0,1-5.91-6.62l-3.15,4a113.23,113.23,0,0,1,16.15,10.47l2.67-4.54A112.53,112.53,0,0,1,98,168.74l-2.67,4.54a108.53,108.53,0,0,0,22.75,5.42l-.67-5.09A15.8,15.8,0,0,1,110,175c-3.38-.23-4.1,4.8-.68,5.27A116.35,116.35,0,0,0,137,181c4-.42,7.35-2.76,11.33-3.18,4.64-.49,9.34-.63,14-.93a131.73,131.73,0,0,0,26.28-3.94,244.44,244.44,0,0,0,25.75-8.77,121.54,121.54,0,0,0,26.69-14c2.78-2-.42-6.24-3.19-4.24-13.88,10-30.82,16-47.09,20.91a117.25,117.25,0,0,1-26.22,4.59c-4.44.3-8.89.57-13.34.86a31.12,31.12,0,0,0-10.73,2.47c-4.37,1.82-10.1,1.45-14.76,1.4A124.44,124.44,0,0,1,110,175l-.68,5.27a21.5,21.5,0,0,0,10.19-1.7,2.68,2.68,0,0,0-.67-5.09,101.72,101.72,0,0,1-21.38-5.05c-2.65-.94-5.35,2.87-2.67,4.54a121.54,121.54,0,0,0,16.92,8.82c2.75,1.16,5.05-2.69,2.67-4.54A121.66,121.66,0,0,0,97,166c-2.41-1.28-4.64,2.06-3.15,4a58.35,58.35,0,0,0,6.88,7.61c2.52,2.35,5.68-1.83,3.28-4.18A127.17,127.17,0,0,0,88.2,160.35c-2.59-1.82-5.23,1.14-3.76,3.69a11.4,11.4,0,0,0,10.94,5.52c3-.23,2.93-4.88,0-5.27-3.75-.49-5.75-5.91-8.58-8.12a13.5,13.5,0,0,0-11-2.48c-3.33.69-2.66,6,.7,5.27Z"/><path class="cls-10" d="M81.15,157l10.76.54c3.38.17,4.09-4.69.68-5.27l-5.19-.88.67,5.09a11.39,11.39,0,0,1,4.22-.91c3.44-.12,2.66-5.3-.7-5.27l-4.4,0,.7,5.27,7-1.48a2.66,2.66,0,0,0-.7-5.27,49.7,49.7,0,0,0-8.77,1c-2.33.47-3.4,4.23-.68,5.08l10.85,3.39.68-5.08a15,15,0,0,1-6.29-1.1c-3.18-1.25-5.21,3.57-2.05,4.9a12.93,12.93,0,0,1,5.81,4.73l1.77-4.23a10,10,0,0,1-5.45-1.5L88,161l9.11,5.11c2.32,1.3,4.77-2.12,3.15-4a16.63,16.63,0,0,0-6.68-4.9c-2.7-1.08-5.19,2.78-2.67,4.54a79,79,0,0,0,24.65,11.55c3.2.86,5.37-3.83,2.05-4.9l-21-6.78a2.66,2.66,0,0,0-2.05,4.9l15.47,8,2.05-4.9-7-2.59-2.05,4.9a89.77,89.77,0,0,0,23.39,4.58,2.66,2.66,0,0,0,.68-5.27l-5.84-1.21-.68,5.27a83.12,83.12,0,0,0,21.42-.58c2.83-.45,3.11-5.24,0-5.27l-20.64-.16c-2.75,0-4.43,4-1.36,5.08a44.41,44.41,0,0,0,9.41,2.35v-5.27a10.93,10.93,0,0,1-3.76.29v5.27l11.23-1.6c3.38-.48,2.7-5.7-.7-5.27l-7.06.9c-3.39.43-2.7,5.67.7,5.27a16.87,16.87,0,0,1,6.83.51l.68-5.08-12.85.28.7,5.27,15-.38c3.13-.08,2.81-4.76,0-5.27a132.73,132.73,0,0,1-34.64-11.4l0,4.91a41.88,41.88,0,0,1,15-2v-5.27a64.61,64.61,0,0,1-13.63-.38l.67,5.09a66,66,0,0,1,12.38-2.55c3.42-.38,2.69-5.51-.7-5.27a111.48,111.48,0,0,1-16.66,0l.67,5.09a12.26,12.26,0,0,1,4.75-.94c2.57,0,3.16-4.38.68-5.08l-7.84-2.22.57,4.57a5.1,5.1,0,0,1,3.59-1.34c3.43-.07,2.67-5.29-.7-5.27l-5.95,0,1.36,5.09,5.4-2.23c3.19-1.31,1.2-6-2-4.91h.32l1.61,2.1-.07-.37-.54,2-.5.35-3.13-.86.21.22,1.77-4.23a43.34,43.34,0,0,1-8,1L96,152.75a17.91,17.91,0,0,1,7.67-1.3v-5.27l-10,1.71c-2.8.48-3.13,5.25,0,5.27a93,93,0,0,1,14.06,1.16L106,150.05a13.62,13.62,0,0,1-5.48,3.93c-2,.79-2.32,4.25,0,4.91l10,2.87.68-5.08L95.56,157l.7,5.27a49.76,49.76,0,0,1,17,1.14v-5.27a69,69,0,0,1-13.4-.17l-.68,5.27a152.34,152.34,0,0,1,21.93,2V160a51.16,51.16,0,0,1-16.8-.9l-.68,5.27a190.63,190.63,0,0,1,19.9,3.47v-5.27A57.35,57.35,0,0,1,110,161.11l-.68,5.27q13.66,1.38,27.22,3.51l.68-5.27-14.32-1c-3.38-.23-4.1,4.83-.68,5.27l18.23,2.35c3.42.44,4-4.59.68-5.27l-3-.62-.68,5.27a126.22,126.22,0,0,1,14.72,3l.68-5.08a62.46,62.46,0,0,1-10.74-.75l-.68,5.27c8.8.72,17.67,1.26,26.5,1.12s16.5-3.59,24.57-6.67l26.67-10.2L232,152.46a49.24,49.24,0,0,0,11-5.35c1.81-1.28,1.07-3.64-.57-4.57-1-.59-1.05-2.54-1.18-3.54a29.55,29.55,0,0,0-.77-4.54c-1.18-4.06-4.37-5.93-8.2-7.17-3.23-1-5.31,3.84-2.05,4.9,2,.65,4.26,1.24,5.07,3.4A20.3,20.3,0,0,1,236,140c.45,3.22,1.42,5.78,4.36,7.44l-.57-4.57c-3.3,2.32-7.12,3.63-10.85,5.06l-12.35,4.72-25.19,9.64c-7.62,2.91-15,6.43-23.32,6.68a234.32,234.32,0,0,1-26-1.1c-3.39-.28-4.08,4.75-.68,5.27a70.3,70.3,0,0,0,12.11.75c2.56-.05,3.18-4.4.68-5.08a138,138,0,0,0-16.09-3.4c-3.41-.5-4,4.59-.68,5.27l3,.62.68-5.27-18.23-2.35-.68,5.27,14.32,1c3.39.23,4.08-4.73.68-5.27q-13.56-2.13-27.22-3.51c-3.45-.35-4,4.54-.68,5.27a62.86,62.86,0,0,0,14.93,1.4c3.22-.07,2.69-4.65,0-5.27A190.63,190.63,0,0,0,104.3,159c-3.44-.41-4,4.55-.68,5.27a55.6,55.6,0,0,0,18.17.9c3.05-.34,2.91-4.78,0-5.27a152.34,152.34,0,0,0-21.93-2c-3.33-.06-4.16,4.89-.68,5.27a76.4,76.4,0,0,0,14.77.17c3.21-.27,2.72-4.61,0-5.27A54,54,0,0,0,95.56,157c-3.47.37-2.63,5.33.7,5.27l15.55-.29c2.57,0,3.16-4.37.68-5.08l-10-2.87,0,4.91a19.33,19.33,0,0,0,7.65-5.56,2.68,2.68,0,0,0-1.75-4.27,93,93,0,0,0-14.06-1.16v5.27l10-1.71c2.83-.48,3.12-5.1,0-5.27a24.09,24.09,0,0,0-10.36,1.65c-3,1.18-1.52,5.18,1.36,5.09a43.34,43.34,0,0,0,8-1c1.74-.39,3.25-2.64,1.77-4.23l-.21-.22a2.77,2.77,0,0,0-3.13-.86,3.26,3.26,0,0,0-2,4.31c.92,2.08,3.34,2.09,5.18,1.46l-2-4.91-5.4,2.23c-3,1.23-1.49,5.11,1.36,5.09l5.95,0-.7-5.27a9.54,9.54,0,0,0-6.08,2.36c-1.35,1.16-1.52,4,.57,4.57l7.84,2.22.68-5.08a16.05,16.05,0,0,0-6.07,1.3c-2.35,1-2,4.89.67,5.09a120.87,120.87,0,0,0,18,0l-.7-5.27a73.07,73.07,0,0,0-13.69,2.9c-2.62.82-1.82,4.76.67,5.09a71.37,71.37,0,0,0,15,.38c3-.23,3-5.12,0-5.27a49,49,0,0,0-17.66,2.36c-2.34.76-1.93,4,0,4.91a138.08,138.08,0,0,0,36,11.77v-5.27l-15,.38c-3.42.09-2.69,5.34.7,5.27l12.85-.28c2.58-.06,3.16-4.36.68-5.08a23.5,23.5,0,0,0-9.59-.87l.7,5.27,7.06-.9-.7-5.27-11.23,1.6c-2.93.42-3,5,0,5.27a15.18,15.18,0,0,0,5.14-.3c2.79-.66,3.16-4.84,0-5.27a37.66,37.66,0,0,1-8-2l-1.36,5.08,20.64.16v-5.27a77.52,77.52,0,0,1-20,.57c-3.43-.35-4,4.58-.68,5.27l5.84,1.21.68-5.27a84.37,84.37,0,0,1-22-4.21c-3.21-1.08-5.29,3.71-2.05,4.9l7,2.59a2.66,2.66,0,0,0,2.05-4.9l-15.47-8-2.05,4.9,21,6.78,2.05-4.9a74.86,74.86,0,0,1-23.42-10.83L91.5,162A10.89,10.89,0,0,1,96,165.21l3.15-4L90,156.05c-3-1.67-5,3.23-2.05,4.9a15,15,0,0,0,8.2,1.87c2.1-.07,2.81-2.74,1.77-4.23a18.16,18.16,0,0,0-8-6.44l-2.05,4.9a21.48,21.48,0,0,0,9,1.46c2.58-.11,3.15-4.31.68-5.08L86.77,150l-.68,5.08a49.7,49.7,0,0,1,8.77-1l-.7-5.27-7,1.48a2.66,2.66,0,0,0,.7,5.27l4.4,0-.7-5.27A15.41,15.41,0,0,0,86,151.56a2.68,2.68,0,0,0,.67,5.09l5.19.88.68-5.27-10.76-.54c-3.39-.17-4.1,5.1-.68,5.27Z"/><path class="cls-10" d="M103.36,151.7q2.77-.49,5.54-.94c2.5-.41,3.22-4.11.68-5.08a10.34,10.34,0,0,0-10.52,1.62c-1.72,1.42-1.14,4.5,1.26,4.76l15.49,1.63v-5.27L108,150.05c-3.07.65-2.88,4.53,0,5.27l9.51,2.43.68-5.27-9-2.12,1.26,4.76a15,15,0,0,1,11.3-4.18,2.66,2.66,0,0,0,.68-5.27c-9.66-1.9-18.32,4.11-27.84,4.25L96,155,103,152.1c2.6-1.09,1.81-4.53-.67-5.09a15.32,15.32,0,0,0-12.21,2.5,2.68,2.68,0,0,0,.57,4.57,15.23,15.23,0,0,0,5.1,1.26v-5.27H94.11c-2.61,0-3.12,4.33-.68,5.08a54,54,0,0,0,18.31,2.33c1.48-.06,2.77-.19,4,.75a18,18,0,0,1,2.23,2.33c1.7,1.86,3.4,3.24,5.94,3.67,3.39.57,4-4.61.68-5.27-6.7-1.32-12-7.65-19.26-4.44a2.68,2.68,0,0,0-.63,4.55c3.43,2.7,7.65,2.11,11.57,3.48,4.1,1.42,7.69,3.91,11.89,5.1,8.76,2.47,18.52,2,27.55,2.4v-5.27a68.94,68.94,0,0,1-42.67-13l1,1.74c-.11-.75,25.5-.35,27.92-.23,3.36.16,4.12-4.92.68-5.27L121,145.87l1.75,4.27a3.69,3.69,0,0,1,3.09-1.8l-1.36-5.09c-2.65,1.14-5.48.43-8.22,0a18.45,18.45,0,0,0-8.25.4c-3.15,1-1.37,5.1,1.36,5.09,13.24,0,26.36-1.81,39.38-4,6.37-1.09,12.72-2.29,19.07-3.43s13.05-2.43,19.65-1.26v-5.27A333.41,333.41,0,0,0,149,139a106.35,106.35,0,0,1-16,1.1c-4.88.12-9.74.92-13.63,4.07-1.66,1.34-1.18,4.65,1.26,4.76q16.34.73,32.58,2.74l-.67-5.09a44.42,44.42,0,0,1-21.94,2.53l-.68,5.27a80.72,80.72,0,0,1,15,2l-1.26-4.76c-1.86,1.33-6.28.41-8.48.37l-9.26-.18c-2.7-.05-4.5,4.19-1.36,5.08l8.24,2.34,1.36-5.08-14-3.76v5.27a23.43,23.43,0,0,1,11.95,2.11l1.36-5.08-13.43-.57a2.66,2.66,0,0,0-.68,5.27q10,2.4,19.76,5.75l0-4.91a18.13,18.13,0,0,1-6.76.46c-3.4-.37-4,4.69-.68,5.27a170.43,170.43,0,0,1,20.7,4.9l1.36-5.08A180.32,180.32,0,0,1,128,158.41c-3.21-.93-5.34,3.79-2.05,4.9a251.52,251.52,0,0,0,36.86,9.36c2.89.5,4.28-4.25,1.36-5.08a215.1,215.1,0,0,1-27.8-10.07L135,162.59l18,2.75v-5.27a11.21,11.21,0,0,1-4.78-.27l-.68,5.08,14.1-.66c2.6-.12,3.12-4.26.68-5.08l-17-5.72,0,4.91c6.71-2.86,13.82-4.26,21-5.6a2.66,2.66,0,0,0-.7-5.27l-24.76,1.81.7,5.27q13.44-3.23,27-5.68l-1.95-4.75a49.85,49.85,0,0,1-21.78,12.36l2.6,4.58a98.75,98.75,0,0,1,23.15-13.74c2.68-1.13,1.67-5.79-1.36-5.09a228.36,228.36,0,0,1-22.72,4.06c-3.4.43-2.7,5.58.7,5.27l20.29-1.88-.7-5.27a43.58,43.58,0,0,1-19.23-.7V149a49.47,49.47,0,0,1,14.51-1.43L160,143.87a5,5,0,0,1-3.6,2.39l.7,5.27,25.86-5.18a2.67,2.67,0,0,0,0-5.27l-10.63-2.44,1.75,4.27c6.36-8.13,18.23-6.37,27.29-6.58A62.16,62.16,0,0,0,215.63,134c4.62-1.2,9.31-2.46,14.12-2.2v-5.27a145.68,145.68,0,0,1-40.59,3.7v5.27a235.84,235.84,0,0,1,28.89-3.09l-1.36-5.09c-9.4,3.42-19.55,2.62-29.37,2.9-10.84.31-21.18,3-31.57,5.87-3,.85-1.49,5.31,1.36,5.09a98,98,0,0,1,22.39.88v-5.27c-9.11,2.08-18.54,4.37-25.75,10.68-2.56,2.24.37,6.23,3.19,4.24a46.82,46.82,0,0,1,16.48-7.39l-1.95-4.75c-8.89,5.1-18.79,8.08-28.54,11-3,.9-1.53,5.38,1.36,5.09a45.86,45.86,0,0,1,7.88-.11l-2.3-3c-.2.87-4.64,1.75-5.46,2-2.28.66-4.59,1.22-6.91,1.72-3.29.71-2.73,5.78.7,5.27l14-2.08-1.36-5.09a33.24,33.24,0,0,1-9.68,2.69c-3.49.42-2.62,5.29.7,5.27l14.51-.1,7.26,0c2,0,5.18-.66,6.91.61l.63-4.55-14.11,7.1c-2.26,1.13-2.13,4.76.67,5.09,14.07,1.65,25.33-7.82,38.09-11.8l-2.6-4.58a66.76,66.76,0,0,1-32.36,9.58l.7,5.27A72.29,72.29,0,0,0,172,167.54a2.67,2.67,0,0,0,0-5.27l-18.94-3.76,1.26,4.76q13.15-7.8,27-14.23l-3.1-4.1A31.65,31.65,0,0,1,166.55,153l2,4.91A192.56,192.56,0,0,1,195.8,145.3l-2.6-4.58a52.17,52.17,0,0,1-20,9l1.95,4.75a69.17,69.17,0,0,1,22.1-12.08l-2-4.91A31.11,31.11,0,0,1,187,139l1.95,4.75a46.47,46.47,0,0,1,17.62-6l-1.36-5.09a46.5,46.5,0,0,1-14.28,4.93l1.36,5.09A91,91,0,0,1,206,139.56l-1.36-5.09a212.48,212.48,0,0,1-30.34,11.47l2,4.91a137.12,137.12,0,0,1,24.3-8.5l-1.36-5.09a121,121,0,0,1-16.42,4.39l2.44,4.27a11.1,11.1,0,0,1,3.55-2.48c2.63-1.2,1.73-5.68-1.36-5.09a52,52,0,0,0-8.28,2.31l2.6,4.58a38.31,38.31,0,0,1,13.62-4.93L192.93,136a78.53,78.53,0,0,1-16.84,15.12c-2.59,1.73-.14,5.58,2.6,4.58a84.5,84.5,0,0,1,10.63-3.13l-1.95-4.75a25.29,25.29,0,0,1-10.1,4.31l1.95,4.75a58.18,58.18,0,0,1,20.61-8l-1.36-5.09a134.43,134.43,0,0,1-26.31,9.29c-3.28.78-2.77,5.54.7,5.27a64.6,64.6,0,0,1,13.23.34l-.67-5.09a72,72,0,0,1-16.24,3.76l.7,5.27a63.57,63.57,0,0,1,11.52-.91L180.14,157a29.44,29.44,0,0,1-8.65,4.17c-2.87.86-1.59,5.68,1.36,5.09q-.43-3.93-2.17-2.43c-1.6,1-1.32,4,.57,4.57,8.54,2.51,15.72-1.85,23.23-5.35,8.47-3.94,17.79-6.22,26.68-9,6.15-1.93,18.64-4.57,18.69-13,.05-8.64-12.73-9.67-18.79-8.68-9.32,1.52-18.32,5.91-26,11.24-2.48,1.72-.16,5.78,2.6,4.58A190.63,190.63,0,0,1,223.8,139c2.68-.73,1.76-4.76-.67-5.09l-7.78-1.06.67,5.09a1.66,1.66,0,0,1,1.53-.14l0-4.91a31.92,31.92,0,0,1-9.47,3.41l2.44,4.27a17.35,17.35,0,0,1,3.27-2.58c2.65-1.67.12-5.54-2.6-4.58l-4.9,1.74c-2.79,1-1.61,5.77,1.36,5.09a35.21,35.21,0,0,1,10.84-.83l-1.26-4.76a174.24,174.24,0,0,1-21.33,13.1c-2.46,1.27-1.8,5.84,1.36,5.09l4.51-1.07-1.36-5.09L190,150.34c-2.85,1-1.61,5.58,1.36,5.09l10.29-1.68-1.36-5.09a117.21,117.21,0,0,1-18.86,7.59l2,4.91q14.49-4.86,29.27-8.76l-1.95-4.75a18.51,18.51,0,0,1-11.91,2.8l.67,5.09q10.41-4.59,21.17-8.31l-2-4.91A36.58,36.58,0,0,1,206.59,146l1.36,5.09a98.68,98.68,0,0,0,15.39-6.71,2.66,2.66,0,0,0-2-4.91l-10.5,3.4,2,4.91a90.67,90.67,0,0,1,9.54-4.33l-2.6-4.58-1.89,1.69c-2.18,1.94-.33,5.75,2.6,4.58l6.88-2.73c2.78-1.1,1.65-5.55-1.36-5.09l1.08.55-1.77,4.23a22.74,22.74,0,0,1,5.08-.06c1.09.14,1.65.73.84-.7s-1.07-.68-2.35-.08l-9.1,4.26,3.1,4.1,3.71-4.29c1.67-1.93-.31-4.32-2.44-4.27l-11.35.27,2.44,4.27a60.48,60.48,0,0,1,9.84-9.46c1.08-.82,1-.82,2.13-.64s1.79.77,2.94.7a4.09,4.09,0,0,0,3.62-2.64c1.38-3.13-3.52-5.18-4.9-2.05q1-1.13-.46-1.31a15.43,15.43,0,0,0-1.58-.38,5.11,5.11,0,0,0-2,.26,15.66,15.66,0,0,0-4.5,3,68.75,68.75,0,0,0-9.32,9.24c-1.63,1.94.29,4.32,2.44,4.27l11.35-.27-2.44-4.27-3.71,4.29c-1.72,2,.72,5.21,3.1,4.1l9.1-4.26c2.18-1,5.27-1.94,5.59-4.72.65-5.71-8.56-4.95-11.88-4.62-1.85.19-3.14,2.76-1.77,4.23a4,4,0,0,0,3.86,1.52l-1.36-5.09-6.88,2.73,2.6,4.58,1.89-1.69c2.19-2,.33-5.71-2.6-4.58a90.67,90.67,0,0,0-9.54,4.33,2.66,2.66,0,0,0,2,4.91l10.5-3.4-2-4.91a98.68,98.68,0,0,1-15.39,6.71c-2.9,1-1.58,5.46,1.36,5.09a40.91,40.91,0,0,0,13.37-4,2.66,2.66,0,0,0-2-4.91q-10.75,3.72-21.17,8.31c-2.35,1-2.06,4.82.67,5.09a24.43,24.43,0,0,0,15.78-3.83c2.16-1.38.62-5.43-1.95-4.75q-15.44,4.06-30.59,9.11c-3.27,1.1-1.21,5.9,2,4.91a117.21,117.21,0,0,0,18.86-7.59c2.55-1.29,1.8-5.61-1.36-5.09l-10.29,1.68,1.36,5.09,10.47-3.64c2.8-1,1.6-5.79-1.36-5.09l-4.51,1.07,1.36,5.09a183.76,183.76,0,0,0,22.51-13.77,2.68,2.68,0,0,0-1.26-4.76A39.79,39.79,0,0,0,207,135l1.36,5.09,4.9-1.74-2.6-4.58a22.82,22.82,0,0,0-4.26,3.54c-1.61,1.67.27,4.68,2.44,4.27a36.34,36.34,0,0,0,10.78-3.76c1.8-1,2.44-4.12,0-4.91A7.61,7.61,0,0,0,214,133a2.68,2.68,0,0,0,.67,5.09l7.78,1.06-.67-5.09a190.63,190.63,0,0,0-26.16,9.19l2.6,4.58c7-4.88,15.43-9,24-10.3a20.09,20.09,0,0,1,6.46,0c1.55.28,4.75,1.09,5.59,2.71,1.82,3.55-7.17,6.34-9.29,7.05-8.85,3-17.91,5.33-26.7,8.49C194,157.3,190.1,159.4,186,161.3c-3.91,1.83-8.39,3.47-12.73,2.2l.57,4.57c1.57-1,2.75-2.65,2.21-4.59a3.44,3.44,0,0,0-3.94-2.49l1.36,5.09a33.83,33.83,0,0,0,9.83-4.84c1.76-1.24,1.11-4.72-1.26-4.76a70.94,70.94,0,0,0-12.9.91c-3.36.56-2.71,5.65.7,5.27a78.09,78.09,0,0,0,17.56-4.11c2.54-.91,1.89-4.77-.67-5.09a71.56,71.56,0,0,0-14.6-.34l.7,5.27a140.78,140.78,0,0,0,27.62-9.64c2.6-1.23,1.75-5.66-1.36-5.09a65,65,0,0,0-23.1,9c-2.25,1.42-.59,5.23,1.95,4.75a31.52,31.52,0,0,0,12.6-5.34c2.08-1.48.69-5.34-1.95-4.75a95,95,0,0,0-11.94,3.48l2.6,4.58a83.56,83.56,0,0,0,17.83-16.09,2.68,2.68,0,0,0-2.44-4.27,45.13,45.13,0,0,0-16.12,6c-2.67,1.6-.11,5.59,2.6,4.58a43.59,43.59,0,0,1,7-2l-1.36-5.09a17.93,17.93,0,0,0-5.71,4.11c-1.58,1.67.25,4.7,2.44,4.27a130.85,130.85,0,0,0,17.73-4.74c2.8-1,1.6-5.81-1.36-5.09a144.16,144.16,0,0,0-25.61,8.85c-3.17,1.45-1.22,5.86,2,4.91a212.48,212.48,0,0,0,30.34-11.47c2.65-1.24,1.74-5.55-1.36-5.09a99.91,99.91,0,0,0-15,3.46c-2.89.9-1.59,5.59,1.36,5.09a50.83,50.83,0,0,0,15.59-5.28c2.52-1.35,1.83-5.52-1.36-5.09a52.92,52.92,0,0,0-20.11,7.07c-2.5,1.49-.41,4.89,1.95,4.75a36.15,36.15,0,0,0,9.58-1.89c3.25-1.09,1.22-6-2-4.91A73.29,73.29,0,0,0,172,150.25c-1.92,1.56-.8,5.35,1.95,4.75a58.43,58.43,0,0,0,22.46-10c2.48-1.82.19-5.62-2.6-4.58A192.56,192.56,0,0,0,166.55,153c-2.9,1.63-1.26,6.22,2,4.91a37.65,37.65,0,0,0,13.91-9.69c1.79-2-.75-5.19-3.1-4.1q-14.48,6.74-28.22,14.9c-2.17,1.29-.77,4.35,1.26,4.76l18.94,3.76v-5.27a72.29,72.29,0,0,1-10.45,1.44c-3.44.22-2.67,5.39.7,5.27a72,72,0,0,0,34.86-10.61c2.74-1.67.07-5.41-2.6-4.58-11.67,3.64-22.57,12.95-35.4,11.44l.67,5.09,14.11-7.1c1.7-.85,2.35-3.29.63-4.55-4-2.93-10.36-1.7-15-1.67l-17.62.12.7,5.27a38.13,38.13,0,0,0,11-3c2.69-1.2,1.71-5.55-1.36-5.09l-14,2.08.7,5.27c3.56-.77,7.08-1.68,10.55-2.77,3.07-1,5.59-2.17,6.38-5.52a2.67,2.67,0,0,0-2.3-3,54.09,54.09,0,0,0-9.26.11l1.36,5.09c10.25-3.11,20.39-6.36,29.73-11.71,2.29-1.31.56-5.33-1.95-4.75a53.54,53.54,0,0,0-19,8.41l3.19,4.24c6.53-5.71,15-7.78,23.25-9.66,2.84-.65,3.11-4.79,0-5.27a104.22,104.22,0,0,0-23.76-.88l1.36,5.09c10.56-2.94,21-5.36,32-5.56,9.79-.18,19.63.19,29-3.21,3-1.09,1.5-5.22-1.36-5.09a235.84,235.84,0,0,0-28.89,3.09c-2.83.48-3.12,5.11,0,5.27a150.53,150.53,0,0,0,42-3.7c2.7-.63,3.23-5.09,0-5.27-5.18-.29-10.11.8-15.09,2.09a65.78,65.78,0,0,1-16.92,2.43c-10.14,0-21.67-.27-28.58,8.54a2.69,2.69,0,0,0,1.75,4.27l10.63,2.44v-5.27l-25.86,5.18c-3.32.67-2.7,5.85.7,5.27a10.71,10.71,0,0,0,7.8-5.61c.83-1.45-.53-3.58-2.11-3.66a54.09,54.09,0,0,0-15.89,1.43,2.67,2.67,0,0,0,0,5.27,47.11,47.11,0,0,0,20.61.7,2.66,2.66,0,0,0-.7-5.27l-20.29,1.88.7,5.27a228.36,228.36,0,0,0,22.72-4.06l-1.36-5.09a104,104,0,0,0-24.33,14.41c-2.51,2-.19,5.34,2.6,4.58a53,53,0,0,0,23-13c1.73-1.67,1-5.28-1.95-4.75q-13.6,2.45-27,5.68a2.66,2.66,0,0,0,.7,5.27l24.76-1.81-.7-5.27c-7.56,1.43-15.15,2.92-22.26,6-2,.85-2.28,4.15,0,4.91l17,5.72L161,159l-14.1.66c-2.55.12-3.19,4.35-.68,5.08a17.66,17.66,0,0,0,7.54.64,2.67,2.67,0,0,0,0-5.27l-18-2.75c-3-.46-4.07,3.89-1.36,5.08a215.1,215.1,0,0,0,27.8,10.07l1.36-5.08a241.93,241.93,0,0,1-35.48-9l-2.05,4.9a189.93,189.93,0,0,0,27.16,5.76c2.87.39,4.3-4.19,1.36-5.08a181.88,181.88,0,0,0-22.08-5.27l-.68,5.27a25.07,25.07,0,0,0,9.45-.81c2.21-.6,2.08-4.2,0-4.91q-10.42-3.56-21.14-6.12l-.68,5.27,13.43.57c2.92.12,4.21-3.79,1.36-5.08a29,29,0,0,0-14.7-2.48c-3.27.28-2.65,4.55,0,5.27l14,3.76c2.86.77,4.25-4.27,1.36-5.08L126.64,152l-1.36,5.08,12.35.24c3.22.06,6.5.51,9.26-1.45,2-1.46.86-4.27-1.26-4.76a80.72,80.72,0,0,0-15-2c-3.36-.13-4.13,4.81-.68,5.27a50,50,0,0,0,24.63-2.88,2.68,2.68,0,0,0-.67-5.09q-16.23-2-32.58-2.74l1.26,4.76c3.7-3,8.53-3.06,13.09-3.07A88.56,88.56,0,0,0,151.53,144a295.87,295.87,0,0,1,36.62-3.9c3.12-.18,2.83-4.76,0-5.27-6.39-1.13-12.8-.2-19.13.92-6.68,1.18-13.34,2.45-20,3.61-13.34,2.31-26.78,4.16-40.34,4.21l1.36,5.09c2.71-.84,5.67,0,8.4.37a15.21,15.21,0,0,0,8.08-.82,2.67,2.67,0,0,0-1.36-5.09,8.63,8.63,0,0,0-6.57,3.79,2.68,2.68,0,0,0,1.75,4.27l21.64,2.18.68-5.27q-12.43-.6-24.87-.32c-3.14.07-6.77.07-8.47,3.22-2,3.71,1.14,5.61,3.93,7.4a74.79,74.79,0,0,0,43.2,11.7c3-.11,3-5.12,0-5.27l-13.47-.65a65.75,65.75,0,0,1-12.31-1.28c-4.07-1-7.54-3.3-11.39-4.84a24.85,24.85,0,0,0-5.21-1.45c-2.09-.34-4.28-.28-6-1.65l-.63,4.55c2.58-1.14,5.19-.11,7.57,1.08,3,1.48,5.7,3.07,9,3.72l.68-5.27c-2-.34-3.38-2.88-4.79-4.2a9.13,9.13,0,0,0-6.36-2.63c-2.81,0-5.57.23-8.39,0a45.83,45.83,0,0,1-9.58-1.86l-.68,5.08h1.63c3,0,3-5.06,0-5.27a10.76,10.76,0,0,1-3.72-.89l.57,4.57a10.14,10.14,0,0,1,8.34-1.48l-.67-5.09L94,150.1c-3,1.24-1.52,5.13,1.36,5.09,9-.13,17.42-6,26.46-4.24l.68-5.27a20.18,20.18,0,0,0-15.17,5.21,2.7,2.7,0,0,0,1.26,4.76l9,2.12c3.34.79,3.94-4.44.68-5.27l-9.51-2.43v5.27l7.75-1.63c2.81-.59,3.15-4.93,0-5.27L101,146.79l1.26,4.76a5,5,0,0,1,5.27-1l.68-5.08q-2.77.46-5.54.94c-3.36.59-2.68,5.86.7,5.27Z"/><path class="cls-10" d="M219.24,144.27a44.06,44.06,0,0,1-7.28,4.24c-3.1,1.43-1.1,6.35,2,4.91a51.42,51.42,0,0,0,8.46-4.91c2.79-2-.42-6.23-3.19-4.24Z"/><path class="cls-11" d="M62.78,145.53A15.4,15.4,0,0,0,58.59,148a1.33,1.33,0,0,0-.18,1.32c.78,2.53,4.77,1.34,6.16,3.22l1.57-2-3.6-1.67a1.33,1.33,0,0,0-1.33,2.27c2,1.55,4.56,3.08,5.77,5.33l2.29-1.3c-1.49-1.71-4.53-4.91-2.14-7.21L65.28,146a21.77,21.77,0,0,0-2.11,2.67L65.44,150A2.53,2.53,0,0,1,67,148.08c1.29-.82.06-2.85-1.3-2.29l-1.45.6,1.82,1.4c0-.24,1.63-1,1.9-1.18l-2-1.57c-.46,1.35-.92,3.07-2.63,3.35l1.4.81,0-.08-1.49,1.15c.81,0,3.84-.33,4.5.16-.42-.31,0,.39,0,.71.09.9.31,1.83.46,2.71l2.55-.68-1.36-3.51a1.34,1.34,0,0,0-1.4-.81c-3.84,1-2.87,6.94.69,7.64,2.2.43,4.67-1.83,6.44-2.76a66.84,66.84,0,0,1,8.79-3.83c1.39-.5.8-2.91-.68-2.55l-12.67,3.16,1.22,2.14c2.81-3.46,6.76-5.32,10.78-7l-1-2.46Q76.2,145.75,71,148.45a1.33,1.33,0,0,0,1,2.46l9.61-3.27-1-2.46A12.7,12.7,0,0,1,76,146.74a1.33,1.33,0,0,0,.35,2.63,14.56,14.56,0,0,0,5.28-1.73,1.33,1.33,0,0,0-1-2.46L71,148.45l1,2.46q5.2-2.7,10.47-5.27c1.52-.74.58-3.13-1-2.46-4.46,1.87-8.76,4-11.87,7.83-.68.83.06,2.43,1.22,2.14L83.5,150l-.68-2.55a67.41,67.41,0,0,0-7.57,3.2c-1.09.55-2.16,1.13-3.22,1.73a9.42,9.42,0,0,1-1.48.87,1,1,0,0,1-1.17.16q-1.63.21-1.12-1.91l-1.4-.81,1.36,3.51a1.33,1.33,0,0,0,2.55-.68c-.24-1.45-.13-4.09-1.35-5.17s-4.31-.65-5.91-.7A1.38,1.38,0,0,0,62,148.78a1.78,1.78,0,0,0,.2,1.43,1.37,1.37,0,0,0,1.4.81c2.73-.46,3.88-2.49,4.72-5a1.34,1.34,0,0,0-2-1.57c-1.27,1-2.88,1-2.94,3a1.35,1.35,0,0,0,1.82,1.4l1.45-.6L65.35,146A5.37,5.37,0,0,0,63,149c-.45,1.33,1.38,2.66,2.27,1.33a21.77,21.77,0,0,1,2.11-2.67c1-1.09-.76-2.93-1.84-1.88-3.63,3.51-1.13,7.78,1.62,10.93.92,1.06,3,.11,2.29-1.3-1.49-2.78-4.16-4.49-6.58-6.41l-1.33,2.27,3.6,1.67a1.34,1.34,0,0,0,1.57-2,4.92,4.92,0,0,0-2.35-1.82c-.55-.21-3.35-.42-3.47-.81l-.18,1.32A12.56,12.56,0,0,1,63.79,148c1.53-.75.53-3.21-1-2.46Z"/><path class="cls-11" d="M70.61,141.86l-1.92.55c-3.23.93-3.22,6.37,0,7.36,3.79,1.18,6.18-.69,8.19-3.75q.34-.41-.38,0a5,5,0,0,0,1-.21,5.77,5.77,0,0,0,2.18-1.23c1.55-1.52,1.13-3,1.56-4.82l-.82,2c-.38.42-2,.78-.7.73a5.88,5.88,0,0,0,1.85-.52,11.37,11.37,0,0,0,2.61-1.81c1.84-1.45,4.4-1.3,6.64-1.45l17.74-1.21-1.05-7.9a48.5,48.5,0,0,1-16.42-.31l0,7.9A68.87,68.87,0,0,1,105,135.91c4.64.11,9.26,1.11,13.9.7,4.43-.39,4.53-7.64,0-7.9s-8.07-1.16-12.41.74c-4,1.76-8,3.54-12.16,5q-3.14,1.13-6.34,2.1c-2.11.64-4.56,1-6.43,2.24-3.56,2.39-4.22,8,0,10.14,3.86,2,8.38-.59,12.14-1.75a117.93,117.93,0,0,1,13.87-3.47c4.14-.74,8.29-.54,12.38-1.64,4.66-1.25,9.29-2.63,13.93-4,2.29-.65,3.35-4.35,1.67-6.08-3.49-3.61-7.69-4.53-12.57-4.21s-9.12.65-13.9-.47l1,7.64c2-.57,4.49.15,6.57.2a12.48,12.48,0,0,0,7.66-2c3.42-2.28.87-7.6-2.92-7.13l-5,.62c-5.09.63-4.05,8.49,1.05,7.9l12.89-1.5c3.87-.45,7.93-1.31,11.83-1.07l-3.44-3.43c0-.43-.67.12-1.06.29a13.53,13.53,0,0,1-2,.57c-1.71.43-3.42.88-5.11,1.38a101.16,101.16,0,0,0-9.84,3.49c-4.8,2-1.81,8.94,3,7.37a37.91,37.91,0,0,1,9.61-1.72l-2.92-7.13a2.07,2.07,0,0,1-1.5.38l1.05,7.9a35,35,0,0,0,11.88-2.85l-3.91-6.87-1.21.88c-2.59,1.89-1.7,7.08,1.89,7.14a37.48,37.48,0,0,0,17.92-4c3.88-2,2.69-8.23-2-7.64-1.55.19-3.1.35-4.66.45-1,.06-2.86.5-3.78.1l1.64,1.28.44,1-.27,2.06-.77.74c3.21-.65,4.83-4.91,1.93-7.08l-1.73-1.29-1.93,7.08a23.84,23.84,0,0,1,10.72,0c5,1.12,6-6.79,1-7.9a29.25,29.25,0,0,0-12.78,0c-3.17.71-4.87,4.89-1.93,7.08l1.73,1.29,1.93-7.08c-2.25.46-4.39,1.33-5.38,3.57a5.12,5.12,0,0,0,1,5.72c1.76,1.71,4.11,1.51,6.38,1.46a70.65,70.65,0,0,0,7.47-.55l-2-7.64a29.4,29.4,0,0,1-13.89,3.45l1.89,7.14,1.21-.88c3.63-2.66.27-8.68-3.91-6.87a28.64,28.64,0,0,1-9.91,2.32c-5.16.3-4,8,1.05,7.9a9.19,9.19,0,0,0,5.24-1.92c3.42-2.49.86-7.35-2.92-7.13a45.8,45.8,0,0,0-11.58,2.24l3,7.37A108.2,108.2,0,0,1,137.95,137c4.91-1.26,8.82-4,8.62-9.48a4,4,0,0,0-3.44-3.43c-4.31-.26-8.6.46-12.86,1l-13.92,1.62,1.05,7.9,5-.62-2.92-7.13c-1.41.94-3.63.35-5.19.23a20,20,0,0,0-7.27.57c-1.67.47-2.65,2.61-2.44,4.21a4.16,4.16,0,0,0,3.44,3.43,38.79,38.79,0,0,0,11.61.88c2.63-.19,7.36-1.55,9.51.68l1.67-6.08c-4.11,1.17-8.21,2.37-12.33,3.51-3.64,1-7.32.8-11,1.39a113.14,113.14,0,0,0-12.25,2.84q-2.75.75-5.48,1.61c-1,.32-4.34,1.91-5.13,1.49l1.64,1.28q-1.42,3.09.11,2.41a6.63,6.63,0,0,1,.64-.2,15.47,15.47,0,0,0,2.16-.61q2.29-.66,4.56-1.4,4.3-1.41,8.51-3.1c2.69-1.08,5.27-2.4,8-3.47,2.51-1,5.08,0,7.68.1l0-7.9c-4.5.39-9.17-.71-13.7-.73A77.35,77.35,0,0,0,90,129.2a4,4,0,0,0,0,7.9,55.22,55.22,0,0,0,18.49.3c5.11-.77,4-8.25-1.05-7.9l-11.15.76a108.43,108.43,0,0,0-10.88.85,13.83,13.83,0,0,0-4.29,1.39c-1,.54-2.09,1.7-2.8,2-1.48.7-2.66.49-3.9,1.84a4.6,4.6,0,0,0-1.15,2.32c-.05.25-.45,2.2-.09,1.47L75.39,138c-1,.55-2.45.69-3.52,1.61a8.06,8.06,0,0,0-1.57,1.92l-.54.92q-.53.56.44-.17l2.06.27-.53-.17,0,7.36,1.92-.55c2.08-.6,2.91-3.35,2.18-5.2-.86-2.18-3.14-2.77-5.2-2.18Z"/><path class="cls-11" d="M159,135.7q3.86-1.73,7.81-3.23c3.72-1.42,2.91-7.18-1-7.64-1.75-.2-4.49-.07-6.1-.8l1.64,1.28-.36-.5-1.67,6.08c2.64-.9,5.09-.4,7.81-.35,2.95.05,5.71-.91,8.62-1.23a47.64,47.64,0,0,1,8,.15,15.47,15.47,0,0,0,4.42-.38c.65-.15,3-1.07,3.66-.62l3-7.09a13.38,13.38,0,0,0-6.23.68c-2.13.62-4,.44-6.23.65-5.67.53-11.35,1.84-17,2.78l1.05,7.9c6.78-1.69,13.68-2.31,20.49-3.75,2.92-.62,5.62-2.1,8.7-1.48,1.51.3,2.66,1,4.28.9,1.09-.09,2.26-.81,3.33-.71,5.09.47,6.14-7.43,1-7.9-1.64-.15-3,.54-4.51.59-1,0-2-.62-3.1-.78-3.57-.53-6.73.29-10.09,1.3-3.21,1-6.79,1-10.09,1.59-3.72.64-7.41,1.43-11.08,2.34-4.84,1.21-4.13,8.77,1.05,7.9,5.34-.89,10.67-1.94,16-2.67,2-.27,4,0,6-.41,1.75-.37,3.5-1.35,5.31-1,3.72.66,6.31-5,3-7.09s-6.32-1.68-10.08-.9c-3.26.68-6.82-.22-10.17,0s-6.69,1.49-10.07,1.28a24.87,24.87,0,0,0-10.11,1c-2.49.84-3.1,4.12-1.67,6.08,2.23,3.06,6.77,2.74,10.17,3.14l-1-7.64q-3.95,1.51-7.81,3.23c-4.68,2.09-1.67,9.47,3,7.37Z"/><path class="cls-11" d="M207.68,124.2c3.81-1.72,7.61,1.9,11.43,2a20.1,20.1,0,0,0,2.47-.29c2-.16.88.16,2.08.73.95.45,2.92.08,3.54.6l1.33-2.27c-1.85-1.05-4.06-.53-6.1-.37a29.44,29.44,0,0,1-4.22.24c-1.63-.11-3-.87-4.51-1.33a10.17,10.17,0,0,0-9.72,2.28,1.34,1.34,0,0,0,1,2.38,61.74,61.74,0,0,1,11.54-.41c1.69.1,2.05-2.53.34-2.63a65.49,65.49,0,0,0-12.22.41l1,2.38a7.88,7.88,0,0,1,4.55-2.14c2.2-.22,3.81.86,5.87,1.4a13.58,13.58,0,0,0,4.38.24c2-.12,5.34-1,7.12,0,1.34.76,2.44-1.35,1.33-2.27-1.26-1-2.9-.58-4.3-1.32-2-1.08-3.23-.18-5.44-.31-4.4-.25-7.89-3.88-12.44-1.82-1.56.7-.55,3.16,1,2.46Z"/><path class="cls-12" d="M84.83,150.87a77.86,77.86,0,0,0-4.55,27.84c0,.85,1.33.67,1.32-.18a76.05,76.05,0,0,1,4.46-27.16c.29-.8-.94-1.32-1.22-.51Z"/><path class="cls-12" d="M113.47,144.35a170,170,0,0,0-9.35,41.17c-.08.85,1.23,1,1.32.17a168.47,168.47,0,0,1,9.26-40.82c.29-.8-.93-1.32-1.22-.51Z"/><path class="cls-12" d="M141.62,139.59a184.58,184.58,0,0,0-9.78,43.6c-.08.85,1.23,1,1.32.17a183.06,183.06,0,0,1,9.68-43.25c.29-.8-.94-1.32-1.22-.51Z"/><path class="cls-12" d="M167.31,133.09c-.18,4-2.45,7.55-3.94,11.18a94.14,94.14,0,0,0-3.69,10.81,96.93,96.93,0,0,0-3.38,22.23c0,.85,1.29,1,1.32.17a95.4,95.4,0,0,1,3.83-23.79,94,94,0,0,1,3.91-10.73c1.38-3.17,3.09-6.17,3.25-9.69,0-.85-1.28-1-1.32-.17Z"/><path class="cls-12" d="M197.12,130a127.22,127.22,0,0,0-9.21,37.59c-.07.85,1.24,1,1.32.17a126,126,0,0,1,9.12-37.24.66.66,0,0,0-1.22-.51Z"/><path class="cls-12" d="M222.56,127.54a40.21,40.21,0,0,1-3.56,7.6q-2.13,4.05-3.86,8.31a95.88,95.88,0,0,0-4.91,16.22c-.18.84,1.14,1,1.32.17a93.73,93.73,0,0,1,5.2-16.82c2.1-5,5.54-9.73,7-15,.23-.81-1-1.33-1.22-.51Z"/><path class="cls-12" d="M240.38,131.39a55.92,55.92,0,0,0-3.52,12.5c-.14.84,1.18,1,1.32.17a54.4,54.4,0,0,1,3.43-12.15.66.66,0,0,0-1.22-.51Z"/><path class="cls-13" d="M184.18,121q-26.43,1.14-52.8,3.43c-8.49.74-17,1.52-25.45,2.57C98.15,128,90,129,82.52,131.26c-3.94,1.2-6.42,3.75-9.32,6.51a40.14,40.14,0,0,1-11.44,7.57c-.78.35-.28,1.58.5,1.23A41.61,41.61,0,0,0,71,141.38c3-2.31,5.33-5.51,8.57-7.44,3.51-2.08,8-2.6,11.94-3.35s8.07-1.38,12.13-1.92c16.89-2.24,33.94-3.52,50.94-4.67q14.86-1,29.75-1.64c.85,0,.67-1.35-.18-1.32Z"/><path class="cls-13" d="M61.1,145.94c-5.81,3.2-13,7.7-12.31,15.37.29,3.18,2.33,5.51,4.92,7.18,3.86,2.48,7.67,3.82,9.89,8.15,1.57,3.06,2.78,5.88,5.95,7.61,3.58,2,7.83,2.09,11.75,2.87,5.08,1,8.56,4,12.86,6.65A53.44,53.44,0,0,0,107,199.24a108.76,108.76,0,0,0,13.38,2.84c4,.63,8.26,1.43,12.33.63,3.57-.7,6.72-2.6,9.68-4.63a120.43,120.43,0,0,1,11.49-7.4,55.35,55.35,0,0,1,6.23-3,14.51,14.51,0,0,1,7.89-.52,38.59,38.59,0,0,0,11.57,0c8.07-1.2,15.66-4.57,22.71-8.56,9.2-5.2,17.79-11.47,27.46-15.81,7.4-3.32,17.08-7.16,17-16.81,0-.85-1.33-.67-1.32.18.12,9.81-11.16,13-18.28,16.39-7.33,3.53-14.1,8.09-21,12.3s-14,8-21.77,10a41.43,41.43,0,0,1-11.87,1.42c-3.55-.12-7.09-1.39-10.62-.53-6.95,1.69-13.47,6.47-19.21,10.52-3.21,2.26-6.56,4.46-10.49,5.15-4.25.75-8.83-.25-13-.94-9-1.49-18.13-3.74-25.82-8.86-3.1-2.06-5.9-4.3-9.54-5.33s-7.47-1.09-11.07-2.22a10.46,10.46,0,0,1-5.91-4.16c-1.09-1.69-1.73-3.61-2.76-5.33-1.79-3-4.68-4.46-7.6-6.09-4.58-2.55-7.76-6.17-5.63-11.68,1.82-4.73,6.62-7.37,10.82-9.68.74-.41.25-1.64-.5-1.23Z"/><path class="cls-13" d="M184.76,122.41c12.51-2.24,25.17-.54,37.48,2.09,7.39,1.58,13.76,3.55,19.45,8.72,1.39,1.27,3.29,2.64,4,4.41s0,3.18-.34,5a4.73,4.73,0,0,0,1.21,4.65c.62.59,1.43-.46.82-1-2.33-2.25.71-6.08-.14-8.76-.8-2.51-3.9-4.65-5.79-6.28-5.28-4.56-11.41-6.36-18.11-7.82-12.7-2.76-25.79-4.6-38.72-2.28-.84.15-.67,1.47.18,1.32Z"/><path class="cls-13" d="M57.16,149.44a36.82,36.82,0,0,1,10.14,8c.57.63,1.63-.16,1.06-.8a38.8,38.8,0,0,0-10.69-8.42c-.75-.4-1.26.82-.51,1.22Z"/><path class="cls-13" d="M68.27,158c17.71-10,38.06-12.94,57.92-15.71,10.89-1.52,21.93-2.62,32.49-5.79,5.56-1.67,11-3.53,16.78-4.5,5.5-.92,11.07-1.26,16.63-1.67l40-2.92c.85-.06.68-1.38-.18-1.32l-35.75,2.61c-11,.8-21.73,1.57-32.34,4.83a140.38,140.38,0,0,1-17,4.42c-5.7,1-11.45,1.7-17.17,2.5-10.31,1.44-20.66,2.8-30.84,5-10.81,2.38-21.38,5.8-31,11.27-.73.42-.24,1.65.5,1.23Z"/><path class="cls-14" d="M66.61,149.55l3.32-.8c.82-.2.66-1.52-.18-1.32l-3.32.8c-.82.2-.66,1.52.18,1.32Z"/><path class="cls-14" d="M77.4,149.54l4.56-2c.78-.35.28-1.58-.5-1.23l-4.56,2c-.78.35-.28,1.58.5,1.23Z"/><path class="cls-14" d="M82.23,140.53l2.93-.49c.84-.14.67-1.46-.18-1.32l-2.93.49c-.84.14-.67,1.46.18,1.32Z"/><path class="cls-14" d="M76.11,144.27a16.42,16.42,0,0,1,5.45-1.56.66.66,0,0,0-.18-1.32A17.49,17.49,0,0,0,75.61,143c-.77.37-.27,1.6.5,1.23Z"/><path class="cls-14" d="M95.83,143.13l2-.64a.67.67,0,0,0,.36-.87.68.68,0,0,0-.87-.36l-2,.64a.67.67,0,0,0-.36.87.68.68,0,0,0,.87.36Z"/><path class="cls-14" d="M81.1,136.9a32.25,32.25,0,0,1,6.4-1.34.66.66,0,0,0-.18-1.32,34,34,0,0,0-6.73,1.42c-.82.26-.31,1.49.5,1.23Z"/><path class="cls-14" d="M93.48,133.57a23.15,23.15,0,0,1,3.75-.54c.85-.05.68-1.37-.18-1.32a23.15,23.15,0,0,0-3.75.54c-.83.19-.66,1.51.18,1.32Z"/><path class="cls-14" d="M96,138.49a25.75,25.75,0,0,1,5.53-.28c.85,0,1-1.27.17-1.32a27.41,27.41,0,0,0-5.87.28.66.66,0,0,0,.18,1.32Z"/><path class="cls-14" d="M108.25,142.08a13.68,13.68,0,0,0,3.89-.75c.81-.28.3-1.51-.5-1.23a12.5,12.5,0,0,1-3.56.67c-.85,0-.67,1.35.18,1.32Z"/><path class="cls-14" d="M92.19,141l-4.07,1.54c-.8.3-.3,1.53.5,1.23l4.07-1.54c.8-.3.3-1.53-.5-1.23Z"/><path class="cls-14" d="M91.55,136.95,89,138a.66.66,0,0,0,.5,1.23l2.52-1.07a.66.66,0,0,0-.5-1.23Z"/><path class="cls-14" d="M70.86,151.38A16.44,16.44,0,0,1,68,152.86a.66.66,0,0,0,.5,1.23,18.19,18.19,0,0,0,3.18-1.65c.72-.47-.08-1.52-.8-1.06Z"/><path class="cls-14" d="M62.63,148.72l-1.19.49a.66.66,0,0,0,.5,1.23l1.19-.49a.66.66,0,0,0-.5-1.23Z"/><path class="cls-14" d="M67.92,151.43l-1.28.7a.68.68,0,0,0-.36.87.67.67,0,0,0,.87.36l1.28-.7a.68.68,0,0,0,.36-.87.67.67,0,0,0-.87-.36Z"/><path class="cls-14" d="M72.72,141.8a3.59,3.59,0,0,1-1.17,1.93c-.65.56.15,1.62.8,1.06A5.12,5.12,0,0,0,74,142c.19-.83-1.13-1-1.32-.17Z"/><path class="cls-14" d="M75.64,146a2.81,2.81,0,0,1-2.08,1.79c-.83.17-.67,1.48.18,1.32a4.18,4.18,0,0,0,3.13-2.59c.31-.8-.92-1.31-1.22-.51Z"/><path class="cls-14" d="M102.53,143.4l1.91-.45a.68.68,0,0,0,.57-.75.67.67,0,0,0-.75-.57l-1.91.45a.68.68,0,0,0-.57.75.67.67,0,0,0,.75.57Z"/><path class="cls-14" d="M104.79,131.56a15.54,15.54,0,0,0,4-1,.66.66,0,0,0-.5-1.23,14.18,14.18,0,0,1-3.63.94.66.66,0,0,0,.18,1.32Z"/><path class="cls-14" d="M102.05,135l2.63-.35a.66.66,0,0,0-.18-1.32l-2.63.35a.66.66,0,0,0,.18,1.32Z"/><path class="cls-14" d="M107.87,139a7.44,7.44,0,0,0,4.12-1c.74-.43-.07-1.49-.8-1.06a5.83,5.83,0,0,1-3.15.77c-.85,0-1,1.28-.17,1.32Z"/><path class="cls-14" d="M116.21,140.71l2.12-.35c.84-.14.67-1.45-.18-1.32l-2.12.35c-.84.14-.67,1.45.18,1.32Z"/><path class="cls-14" d="M89.13,146.34a5.16,5.16,0,0,0-3.09,1c-.7.5.11,1.56.8,1.06a3.66,3.66,0,0,1,2.12-.71.69.69,0,0,0,.74-.57.67.67,0,0,0-.57-.74Z"/><path class="cls-14" d="M114.29,132.59l3-1.2a.66.66,0,0,0-.5-1.23l-3,1.2a.66.66,0,0,0,.5,1.23Z"/><path class="cls-14" d="M111.53,133.06l-2.33.27a.66.66,0,0,0,.18,1.32l2.33-.27a.66.66,0,0,0-.18-1.32Z"/><path class="cls-14" d="M115.81,136.72a9.33,9.33,0,0,1,3.81-.46c.85.07,1-1.25.17-1.32a11,11,0,0,0-4.49.55c-.81.28-.3,1.5.5,1.23Z"/><path class="cls-14" d="M120.39,132.19l2.88-1c.81-.29.3-1.52-.5-1.23l-2.88,1c-.81.29-.3,1.52.5,1.23Z"/><path class="cls-14" d="M127.82,133.82a17.42,17.42,0,0,0,5.38-.05c.84-.14.67-1.46-.18-1.32a16.2,16.2,0,0,1-5,.05.66.66,0,0,0-.17,1.32Z"/><path class="cls-14" d="M133.45,136.48l3.37-1.54c.78-.36.28-1.59-.5-1.23l-3.37,1.54c-.78.36-.28,1.59.5,1.23Z"/><path class="cls-14" d="M142.8,130.91a16.21,16.21,0,0,0,4.39-.84c.81-.27.3-1.5-.5-1.23a15,15,0,0,1-4.06.75c-.85,0-.67,1.36.18,1.32Z"/><path class="cls-14" d="M154.52,129.32a3.32,3.32,0,0,1,2.25-.43.66.66,0,0,0,.17-1.32,4.74,4.74,0,0,0-3.21.68c-.73.45.08,1.5.8,1.06Z"/><path class="cls-14" d="M164.4,127.52l2.42-.45c.84-.16.67-1.47-.18-1.32l-2.42.45c-.84.16-.67,1.47.18,1.32Z"/><path class="cls-14" d="M174.45,126.67l2.61-.47c.84-.15.67-1.47-.18-1.32l-2.61.47c-.84.15-.67,1.47.18,1.32Z"/><path class="cls-14" d="M185,128.54a1.32,1.32,0,0,1,1.12-.23.67.67,0,0,0,.74-.57.68.68,0,0,0-.57-.74,2.61,2.61,0,0,0-2.09.48.66.66,0,0,0,.8,1.06Z"/><path class="cls-14" d="M191.15,125.32a9.18,9.18,0,0,1,3.31-.41c.85.05,1-1.27.17-1.32a11,11,0,0,0-4,.49c-.82.26-.31,1.48.5,1.23Z"/><path class="cls-14" d="M199.75,126.44a3.72,3.72,0,0,0,2.6-.52.67.67,0,0,0,.13-.93.68.68,0,0,0-.93-.13,2.34,2.34,0,0,1-1.64.27c-.84-.15-1,1.17-.17,1.32Z"/><path class="cls-14" d="M208,124.33l1.52-.1a.66.66,0,1,0-.18-1.32l-1.52.1a.66.66,0,0,0,.18,1.32Z"/><path class="cls-14" d="M212.11,126.44h1.23a.69.69,0,0,0,.74-.57.67.67,0,0,0-.57-.74h-1.23a.69.69,0,0,0-.74.57.67.67,0,0,0,.57.74Z"/><path class="cls-14" d="M194,126.26a5.73,5.73,0,0,0-2.62-.52.67.67,0,0,0-.57.75.68.68,0,0,0,.75.57,4.26,4.26,0,0,1,1.93.43c.78.36,1.29-.86.51-1.22Z"/><path class="cls-14" d="M181.49,126.78l1-.57a.67.67,0,0,0,.13-.93.68.68,0,0,0-.93-.13l-1,.57a.67.67,0,0,0-.13.93.68.68,0,0,0,.93.13Z"/><path class="cls-14" d="M177.75,128.66l-3.61.94c-.82.21-.65,1.53.18,1.32l3.61-.94c.82-.21.65-1.53-.18-1.32Z"/><path class="cls-14" d="M167.91,131.46a9,9,0,0,1,2.93-1.79c.8-.3.3-1.53-.5-1.23a9.94,9.94,0,0,0-3.23,2c-.63.57.17,1.64.8,1.06Z"/><path class="cls-14" d="M170.58,125.66a2.58,2.58,0,0,1,1.85-.56c.85.08,1-1.24.17-1.32a4,4,0,0,0-2.82.81c-.67.53.12,1.59.8,1.06Z"/><path class="cls-14" d="M165,129.12,162,130.55c-.77.36-.27,1.59.5,1.23l3.07-1.43c.77-.36.27-1.59-.5-1.23Z"/><path class="cls-14" d="M147.78,134.79a2.21,2.21,0,0,1-1.68,1.08.66.66,0,0,0,.18,1.32,3.6,3.6,0,0,0,2.72-1.89.67.67,0,0,0-.36-.87.68.68,0,0,0-.87.36Z"/><path class="cls-14" d="M157.5,131.92l-1.58.82a.68.68,0,0,0-.36.87.67.67,0,0,0,.87.36l1.58-.82a.68.68,0,0,0,.36-.87.67.67,0,0,0-.87-.36Z"/><path class="cls-14" d="M141.56,136.75a4.39,4.39,0,0,0,2.4-1c.66-.54-.14-1.61-.8-1.06a3.16,3.16,0,0,1-1.77.73c-.85.08-.68,1.39.18,1.32Z"/><path class="cls-14" d="M123,138.25c.83.79,2,.49,3,.38l4.46-.47a.66.66,0,0,0-.18-1.32l-3.05.32c-.77.08-2.85.62-3.46,0s-1.43.46-.82,1Z"/><path class="cls-14" d="M131.87,129.25l3.76-.15c.85,0,.67-1.35-.18-1.32l-3.76.15c-.85,0-.67,1.35.18,1.32Z"/><path class="cls-14" d="M149.5,132.33A12.08,12.08,0,0,1,153.3,131c.84-.14.67-1.46-.18-1.32A13.13,13.13,0,0,0,149,131.1c-.74.41-.25,1.64.5,1.23Z"/><path class="cls-14" d="M139.17,132.15l1,.44a.66.66,0,0,0,.51-1.22l-1-.44a.66.66,0,0,0-.51,1.22Z"/><path class="cls-14" d="M128.87,128.9a1.72,1.72,0,0,0-1.58-.25.67.67,0,0,0-.36.87.68.68,0,0,0,.87.36.29.29,0,0,1,.26.07.66.66,0,0,0,.82-1Z"/><path class="cls-14" d="M160.44,123.81l-2.59.89c-.81.28-.3,1.51.5,1.23l2.59-.89c.81-.28.3-1.51-.5-1.23Z"/><path class="cls-14" d="M148,127.06a8.52,8.52,0,0,1,4.09-.62c.85.08,1-1.24.17-1.32a10,10,0,0,0-4.76.71.66.66,0,0,0,.5,1.23Z"/><path class="cls-14" d="M141.84,127.25l.81-.15a.68.68,0,0,0,.57-.75.67.67,0,0,0-.75-.57l-.81.15a.68.68,0,0,0-.57.75.67.67,0,0,0,.75.57Z"/><path class="cls-14" d="M187.24,122.92l-2.16-.13c-.85-.05-1,1.26-.17,1.32l2.16.13c.85.05,1-1.26.17-1.32Z"/><path class="cls-14" d="M207.53,127.06l3.77-.12c.85,0,.67-1.34-.18-1.32l-3.77.12c-.85,0-.67,1.34.18,1.32Z"/><path class="cls-14" d="M216,126.44l3-.27c.85-.08.68-1.39-.18-1.32l-3,.27c-.85.08-.68,1.39.18,1.32Z"/><path class="cls-14" d="M122.86,134.83l2.75-.14c.85,0,.67-1.36-.18-1.32l-2.75.14c-.85,0-.67,1.36.18,1.32Z"/><path class="cls-10" d="M155.51,137.16l-9.23,2.15c-1.65.38-1.32,3,.35,2.63l9.23-2.15c1.65-.38,1.32-3-.35-2.63Z"/><path class="cls-10" d="M154,164.9l-.17,2.22a1.33,1.33,0,0,0,2.63.34l.17-2.22a1.33,1.33,0,1,0-2.63-.34Z"/></svg>