<svg id="圖層_1" data-name="圖層 1" xmlns="http://www.w3.org/2000/svg" viewBox="0 0 300 300"><defs><style>.cls-1{fill:#f5b81b;}.cls-2{fill:#06143f;}.cls-3{fill:#f7f8f8;stroke:#4c4948;}.cls-3,.cls-5{stroke-miterlimit:10;}.cls-4{fill:#e6e6e6;}.cls-5{fill:none;stroke:#f5b81b;stroke-width:2px;}.cls-6{fill:#ed7103;}.cls-7{fill:#d55328;}.cls-8{fill:#bd4220;}.cls-10,.cls-11,.cls-12,.cls-13,.cls-25,.cls-26,.cls-27,.cls-9{fill:#facca0;}.cls-9{opacity:0.25;}.cls-10{opacity:0.21;}.cls-11{opacity:0.18;}.cls-12,.cls-24{opacity:0.33;}.cls-13{opacity:0.24;}.cls-14{fill:#f39900;}.cls-15{fill:#d86b2a;}.cls-16{fill:#df572a;}.cls-17{fill:#d76029;}.cls-18{fill:#e2662c;}.cls-19{fill:#9f3515;}.cls-20{fill:#231815;}.cls-21,.cls-23,.cls-24{fill:#f9cfce;}.cls-21,.cls-22{opacity:0.47;}.cls-25{opacity:0.42;}.cls-26{opacity:0.68;}.cls-27{opacity:0.63;}</style></defs><title>鮭魚03</title><ellipse class="cls-1" cx="149.98" cy="146.83" rx="149.13" ry="80.6"/><ellipse class="cls-2" cx="150.21" cy="145.52" rx="147.21" ry="77.72"/><ellipse class="cls-3" cx="150.24" cy="153.28" rx="106.86" ry="58.69"/><ellipse class="cls-4" cx="150.24" cy="157.89" rx="98.9" ry="54.55"/><ellipse class="cls-5" cx="150.3" cy="153.34" rx="106.42" ry="58.99"/><path class="cls-6" d="M125.7,83.37a32.4,32.4,0,0,1,21.19.57c7.26,2.63,13.4-8,7.6-13.06a105.78,105.78,0,0,0-12.93-9.62,7.93,7.93,0,0,0-9.47,1.22c-2.63,2.63-2.65,6.26-1.22,9.47C134,79,141.81,82.25,148.54,84.87c5.31,2.07,8.1,5.81,10.14,11.33,1.2,3.25,2.21,6.56,3.52,9.77.32.78,1.63,2.6,1.46,3.41,0-.1-.27-2.66-.23-.65.06,2.65,1.45,5,2.56,7.28,2.87,6,5.44,12.36,6.42,19a33.69,33.69,0,0,1,.13,9.26c-.21,1.55-.76,3-1.06,4.54a25,25,0,0,0-.28,3.33q0,.94,0,0l-.45,1.21c-1.64,4.37-3.93,9.32-7.5,12.5-.71.63-.85.46-1.85,1.28-.44.36-1.1.6-.4.37a16.28,16.28,0,0,0-2,.07,50.65,50.65,0,0,1-9.17-.75,70.6,70.6,0,0,1-17.51-5.66,127.67,127.67,0,0,1-18.86-11.26,63.06,63.06,0,0,1-8.22-6.3,7.61,7.61,0,0,1-1.88-2.45l-.41-.76q.3.64.06-.11t.05.06q.33,1.34-.52,1.57l-12.27-9.47a7.47,7.47,0,0,1-1.14,1.5l12.27,9.47a3.85,3.85,0,0,1,1.14-1.5L91.49,130.78c-8.72,9.94-15.34,25.13-8,37.73A23.61,23.61,0,0,0,97.63,179.3c7.19,1.89,14-.53,21.1-1.13,5.22-.44,10.63-6.56,6.75-11.76-6.55-8.76-15.75-14-26.75-14.56-3.84-.2-7.24,3.13-7.68,6.78-.41,3.47,1.71,8,5.6,8.57,2.2.33,5.51.49,7.15,1,2.88.93,5.75,3,8.28,4.57,5.34,3.37,10.46,8.36,17,8.73l-3.94-1.07c4,1.93,7.45,4.29,11.92,5.29a85,85,0,0,0,14,1.49c3.5.19,7.24,1.6,11.08,2.06,5.66.67,11-.58,16.19-2.75,15.47-6.49,36.4-11.35,42-29.42,2.63-8.43.47-19-3.24-26.83a30.66,30.66,0,0,1-3.32-10.65c-.35-4.38,1.85-8,1.84-12.35,0-15-11.62-24.75-23.72-31.36-3.15-1.72-6.37-3.3-9.56-4.94-5-2.59-9.69-3.68-15.32-2.78a40.32,40.32,0,0,0-7.32,1.9c-1,.36-1.2.24-2.13.58-1.14.41-.56.3-1.28-.11-4.45-2.54-8.62-4.79-13.84-5.13-4.22-.28-7.82,3.79-7.82,7.82,0,4.46,3.59,7.54,7.82,7.82a11.47,11.47,0,0,1,2.86,1.24c1.28.71,2.52,1.49,3.84,2.14a18.88,18.88,0,0,0,13.62,1.07c2.84-.76,6.6-2.64,9.27-2.08,2.42.51,4.9,2.31,7.11,3.44s4.65,2.4,6.92,3.71c1.37.79,2.71,1.6,4,2.47l1.29.88,1.26.91q-.85-.67.23.2a36.63,36.63,0,0,1,2.77,2.54c.52.53,1,1.08,1.48,1.64-.21-.25-.73-1.11.11.15a28.82,28.82,0,0,1,1.83,3.11c-.72-1.44.22.66.28.84a19.34,19.34,0,0,0,.52,1.89c-.18-1.09.1,1.42.09,1.29,0,.27-.3,1.92-.19,1.45a53.35,53.35,0,0,0-1.26,5.33,35.61,35.61,0,0,0,.74,13.8c1,4,2.93,7.44,4.43,11.19a36.24,36.24,0,0,1,2.17,10.4,11.91,11.91,0,0,1-2.22,7.53c-1.79,2.57-4.67,4.23-7.49,5.8-6.64,3.72-13.86,6.14-20.88,9-3.8,1.56-7.79,3.56-12,2.82-4-.69-8-2-12.2-2.21-3.79-.21-7.33-.26-10.85-1.17a17.19,17.19,0,0,1-4.81-2,15.18,15.18,0,0,0-7.7-2.65l3.94,1.07c-5.11-2.47-9.59-6.45-14.51-9.31a48.55,48.55,0,0,0-8.16-4c-2.62-.92-5.44-1-8.17-1.43l-2.08,15.35A18.59,18.59,0,0,1,112,174.3l6.75-11.76c-5.22.44-10.42,2.12-15.66,1.93a9.57,9.57,0,0,1-3.23-1,15.67,15.67,0,0,1-1.37-.88q.62.45,0-.07c-.25-.24-1.67-2-1.12-1.19,0,0-1.16-2.15-.69-1-.14-.34-.76-3-.65-2a14.56,14.56,0,0,1,.56-5.78,27.36,27.36,0,0,1,6-10.61c2.78-3.17,3.12-7.93,0-11.05a7.91,7.91,0,0,0-11.05,0,25.6,25.6,0,0,0-3.59,4.66c-4.46,7.44,6.35,16.31,12.27,9.47,1.29-1.48,2.45-3.07,3.59-4.66,5.12-7.15-6.61-16.31-12.27-9.47-13.43,16.21,10.12,30.45,22,37.78,13.67,8.45,29.26,14.58,45.53,14.56,8.56,0,15.07-5,19.93-11.72a44.73,44.73,0,0,0,4.65-8.46c.73-1.69,1.44-3.39,2.1-5.12a28.13,28.13,0,0,0,1.21-6c.53-4.12,1.57-8,1.5-12.26a57.78,57.78,0,0,0-2.15-14.28,93.7,93.7,0,0,0-4.63-12.52,34.55,34.55,0,0,0-2.35-5.1c-1.67-2.54-.17,1.75-.27-.33a12.42,12.42,0,0,0-1.34-4.78c-2-4.3-3.19-8.89-5-13.26a40.86,40.86,0,0,0-7.16-11.63c-3.54-4-8-5.93-12.81-7.82-3.21-1.25-7-2.69-8.33-5.74L133.67,74.75a79.11,79.11,0,0,1,9.77,7.18L151,68.87a46.71,46.71,0,0,0-29.5-.57c-9.58,3-5.5,18,4.16,15.07Z"/><path class="cls-6" d="M95.61,105.46l13.11,42.75,14.28-6a139.43,139.43,0,0,0-14.47-19.93c-4.44-5.12-13.57-1-13.34,5.53L95.55,138,110.11,134c-2-3.47-2.52-7.64-3.58-11.5l-.79,6c3-4.43,8.74-6.83,13.95-7.17l-7.54-9.89-.08.19,3.59-4.67,1.38-.54q2.12-.2,1.15-.17c-.83,0-1.28-.48,1.05.17l3.45,2-.07-.07v11.05l.08-.07-3.45,2c1-.28-2.54.17.42,0l-7.82-7.82,2.59-4.41,3.94-1.07-.49,0,3.94,1.07-.55-.37,2.8,2.8-.35-.5,1.07,3.94,0-.42-1.07,3.94.23-.34-2.8,2.8q-1.53.49-.64.26t-.84.11l-7.82-7.82c0,10,3.47,18.28,9.58,26,2.41,3.06,4.84,6,7,9.27a31.55,31.55,0,0,1,2.61,4.42,19.32,19.32,0,0,0,.73,2.37q.24.77,0,.35a7,7,0,0,1,.63-1.88l2.8-2.8q9.14,1.6,5.83-.31,1.16.93.49.33c-.44-.44-.89-.86-1.31-1.32s-.88-1-1.33-1.56c.86,1,.66.93-.16-.32a31.83,31.83,0,0,1-4.32-11.81l-15.07,4.16A21.9,21.9,0,0,1,120,143l15.35-2.08a12.18,12.18,0,0,1-.47-1.8q-.23-1.52-.13-.71l-15.35,2.08c2.56,11.3,7.72,23.46,20.56,25.62,6.52,1.1,12.87-.17,19.39-.66a66.4,66.4,0,0,1,19.75,1.5V151.84a104.36,104.36,0,0,1-35.47,1.11c-3.79-.51-7.27,3.36-7.68,6.78-.43,3.63,1.73,7.77,5.6,8.57a108,108,0,0,0,36,1.54c5.69-.73,12.06-1.35,17.08-4.38a24.19,24.19,0,0,0,10.75-13.07L191,154.26l.24.4-1.07-3.94,1.91-4.31,7.6-2-.15,0,5.46,5.46-.06-.25v4.16a4.1,4.1,0,0,1,.36-1.34L191,154.26c.21.32,1.35,2.4.46.66a9.44,9.44,0,0,1,.34,1.17,5,5,0,0,1,.52-3.79l2.8-2.8a5.81,5.81,0,0,1,2.89-.85l-.86-.23c-.55-.53-.64-.23-1.34-.64a16.31,16.31,0,0,1-3.27-2.8,45.39,45.39,0,0,1-6.27-8.65c-3.79-6.4-7.79-13.41-6.89-21.13l-1.07,3.94-4.64,2.49q1.14.05.3-.06c-.53-.4.59.2,1,.24s.91.31.23,0,.81.85.52.43a18.78,18.78,0,0,1,2.8,7.17c1.54,7.21,1.44,14.65,3.31,21.81,1.6,6.12,11.35,8.09,14.28,1.87,5.77-12.25,11.43-25.83,6.74-39.43l-14.28,6A43.87,43.87,0,0,1,194,151.52a8,8,0,0,0,5.46,9.61c3.92,1.08,8.7-1.32,9.61-5.46l4.24-19.19L199,138.35a5.68,5.68,0,0,1,.31,3.2c-.63,8.15,10.69,10,14.56,3.94a43.31,43.31,0,0,0,6.38-19.43l-13.34,5.53q1,1,.2.17-.38-1-.15-.15t0-.2a13.66,13.66,0,0,1,0,1.59c.11-1.31-.23,1-.27,1.18-.19.81-.41,1.61-.64,2.4-1,3.57-2,7.18-3.15,10.72C200.71,154,196.61,161.2,190,163a8.72,8.72,0,0,1-3.48.41,12.85,12.85,0,0,1-2-.44c-.33-.09-2.37-.81-1.88-.6s-1.47-.83-1.77-1c-1.33-.77.44.48-.74-.64-.94-.89-.09.5-.46-.71.3,1,0,1.49.26.46-.4,1.54.2-.55.3-.86-.37,1.14.55-1.18.69-1.47a54.74,54.74,0,0,0,2.69-6,14.79,14.79,0,0,0-1.45-13.36c-3.42-4.92-10.12-5.12-13.5,0-2.73,4.13-6.65,8.52-8.49,13.15q-.81,1.18-.18.5,7.21.27,3.87-1.24a28.53,28.53,0,0,0-3.16-1.81l-7.37-4.23c-8.25-4.76-17.27-9.61-24.49-15.41-6.41-5.14-12.34-11.45-14.53-19.14-1.29-4.51-.91-9.54-3.55-14a22.6,22.6,0,0,0-4.08-4.93c-.69-.65-1.41-1.25-2.09-1.91s-.72-.78-.35-.21q-.66-1.21-.31-.29c-1.13-2.95-3.19-5.2-6.5-5.6-2.83-.34-6.51.89-7.79,3.73a36.34,36.34,0,0,0,5,38.65c3.56,4.39,12.1,2.08,13.06-3.45,1.2-6.86.22-14.29,2.63-20.87l-2,3.45a4.1,4.1,0,0,1-3.83,1.16l.6.23a19.36,19.36,0,0,0,3.38,1.12q3.37,1.1,6.76,2.15c4.68,1.43,9.39,2.75,14.16,3.85a121.24,121.24,0,0,0,29.3,3.35c10.11-.19,10-15.11,0-15.63a155.66,155.66,0,0,1-32.35-5.18v15.07a169.49,169.49,0,0,1,42.45-4.54,7.79,7.79,0,0,0,7.68-6.78c.42-3.53-1.72-7.91-5.6-8.57a80.89,80.89,0,0,0-18.65-1.18c-6.25.38-11,8.58-5.53,13.34a75.37,75.37,0,0,1,13.92,16c3.29,5.12,13.1,5.2,14.28-1.87,1.14-6.84,1-14.08-2.33-20.33-1.9-3.54-5.22-7.23-9.33-7.89-3.8-.61-8,0-11.83,0-7,.11-14.07.18-20.89-1.47a31.51,31.51,0,0,1-9.6-3.78c-3.41-2.16-6.38-4.39-10.37-5.44-9.73-2.57-13.89,12.5-4.16,15.07a17,17,0,0,1,5,2.77,37.32,37.32,0,0,0,6.43,3.53,55.25,55.25,0,0,0,14.29,4c10,1.43,20,.82,30.07.79l-3.94-1.07c-1-.73.49.77.12.16s.62,1,.7,1.19c-.46-.9.17.42.27.78.2.67.36,1.33.5,2,.07.34.12,1.25.06.41.05.69.08,1.39.08,2.08s-.05,1.36-.06,2c0,1.67.19-.73-.1,1l14.28-1.87a90.12,90.12,0,0,0-16.36-19.18l-5.53,13.34a63.18,63.18,0,0,1,14.49.63L168.73,91a187,187,0,0,0-46.61,5.1c-7.58,1.8-7.3,13.11,0,15.07A176.33,176.33,0,0,0,158.63,117V101.32C144,101.59,129.85,98,116,93.62c-7-2.23-16.12-5.76-20.35,2.94-3.28,6.74-1.78,14.66-3,21.81l13.06-3.45a20,20,0,0,1-2.55-19.71L88.81,93.35c1.59,4.16,4.15,6.89,7.35,9.87,1,1,1,.67,1.43,2.46.57,2.29.62,4.2,1.07,6.73,1.49,8.36,6.72,16.17,12.44,22.25s12.78,11.08,19.9,15.47c8.39,5.17,16.94,10.54,25.73,15,6.51,3.3,13,1.3,16.68-4.94,2.73-4.62,5.75-9,8.7-13.51h-13.5q.76,1.3.34.28-.06-1.29,0,.12.15-1.26-.16.16-.48,1.3-.09.39c-1,2.42-2.34,4.66-3.26,7.1a15.81,15.81,0,0,0,2.7,16c6.63,8,19.32,10.23,28.69,6.45,11.65-4.7,18.1-15.59,21.59-27.14,2.81-9.32,7.87-21.45-.38-29.46-5.19-5-12.71-1-13.34,5.53a26.5,26.5,0,0,1-4.24,11.54L215,141.55a21.13,21.13,0,0,0-2.44-11.09c-2.92-6-12.88-4.51-14.28,1.87L194,151.52l15.07,4.16a60.3,60.3,0,0,0-6.92-43.89c-4.4-7.38-17.26-2.59-14.28,6,3.26,9.44-1.16,18.87-5.17,27.38L197,147c-2.64-10.1-1.57-20.88-6.33-30.44-2.25-4.51-6.18-8.45-11.12-9.8-4.57-1.24-9.74-1.3-13.26,2.34-4,4.11-2.75,11.63-1.63,16.67a55.27,55.27,0,0,0,5.7,14.09c4.37,8.05,10,17.35,18.37,21.78,5.34,2.81,13.52,4.58,17.24-1.66,2.51-4.21,1.09-9.78-1.43-13.66a7.92,7.92,0,0,0-14.28,1.87,10.1,10.1,0,0,0-.3,5.75c.62,2.41,2.89,5,5.46,5.46,7.55,1.23,13.15-6.24,9.12-13.07-3.56-6-12.16-4.37-14.28,1.87-1.82,5.36-11.42,5.85-17.13,6.49a87.91,87.91,0,0,1-27.43-1.5l-2.08,15.35a116.64,116.64,0,0,0,39.63-1.67c7.52-1.58,7.39-13.4,0-15.07a86.13,86.13,0,0,0-18.78-2.27c-5.82,0-11.53,1.11-17.32,1.36a13.42,13.42,0,0,1-5.55-.48,13.45,13.45,0,0,1-1.66-1q.66.53-.4-.41a6,6,0,0,1-1.15-1.38c-2-3.19-2.94-7.09-3.92-11.41-.85-3.75-4.92-6.15-8.57-5.6-3.42.51-7.29,3.78-6.78,7.68a42.29,42.29,0,0,0,1.15,6.67,7.83,7.83,0,0,0,8.57,5.6c3.49-.53,7.2-3.76,6.78-7.68a53.73,53.73,0,0,0-1.15-6.67c-1-4.11-5.65-6.55-9.61-5.46-4.34,1.19-6.25,5.45-5.46,9.61A41.56,41.56,0,0,0,129.21,161c2.37,2.58,5.43,5,9.1,5.06,5.34.12,8.9-4.34,9.12-9.39.37-8.71-5.75-16.71-10.86-23.18-2.46-3.11-5.19-6-7-9.63a23.18,23.18,0,0,1-2.1-10.34c0-4.05-3.57-8.05-7.82-7.82-2.87.16-5.89.88-8,3a8.56,8.56,0,0,0-.47,11.51,8.91,8.91,0,0,0,11.34,2.27c3.33-1.86,4.49-5.42,4.94-9,.5-4-4-8.06-7.82-7.82-3.14.2-5.65.48-8.11,2.66-3.09,2.74-2.94,8.29,0,11.05,5.12,4.8,13.2,2.32,15.65-3.82,1.83-4.58-2.84-10.2-7.54-9.89-8.63.57-17.07,3.51-23.31,9.71a24.87,24.87,0,0,0-4.14,5.2c-1.65,3-.79,5.87,0,8.91,1,4.29,2.17,8.5,4.41,12.35,3.81,6.55,14.84,3.92,14.56-3.94l-.35-10.17-13.34,5.53a116.45,116.45,0,0,1,12,16.77c4.45,7.47,16.93,2.62,14.28-6L110.69,101.3c-2.94-9.59-18-5.5-15.07,4.16Z"/><path class="cls-7" d="M95.81,138.54c-.23,2.7.67,5.4,1.42,8,.84,2.88,1.67,6.27,3.48,8.72,2.4,3.24,8.2,6.15,12.22,5.82a.79.79,0,0,0,.39-1.46c-3.15-1.79-6.13-3.65-8.24-6.68a36.63,36.63,0,0,1-4-8.43.79.79,0,0,0-1.54.21,21.38,21.38,0,0,0,1.18,10.11.78.78,0,0,0,1.51-.42L100.87,149l-1.43.6,4.15,7.75c.48.9,1.78.11,1.35-.79-1-2-2-4-3.12-5.89l-1.35.79a36.9,36.9,0,0,0,6,6.63l.95-1.23a7.44,7.44,0,0,1-2-2l-.88,1.15q5.78,2.08,11.66,3.8a.79.79,0,0,0,.6-1.43,5.36,5.36,0,0,0-4.57-.83c-.83.19-.65,1.24,0,1.51,2.34.94,4.26.47,6.7.51,2,0,3.28,1.62,5.28,1a.79.79,0,0,0,.19-1.43,13.44,13.44,0,0,0-8-2.34c-2.26,0-4.4.23-6.55-.63a20,20,0,0,1-4.76-2.86l-.6,1.43c5.15,1.74,9.72,5.12,15.4,3.9a.79.79,0,0,0,.34-1.31,26.39,26.39,0,0,0-9.91-5.33c-.82-.24-1.21.74-.76,1.31a13.24,13.24,0,0,0,6.58,4.53c.9.29,1.28-.94.6-1.43-2.06-1.48-4.57-2-6.68-3.39a53.09,53.09,0,0,1-6.53-5.83c-.75-.71-1.72.33-1.11,1.11a72.07,72.07,0,0,0,8.21,8.69l.95-1.23c-1.48-1.05-3-2.1-4.39-3.21-1.71-1.31-4.79-3.19-5.26-5.45l-1.31.76c4.19,3.87,7.23,8,12.56,10.46a.79.79,0,0,0,1.07-1.07,21.19,21.19,0,0,0-3.39-5c-1.49-1.62-3.16-2.86-4.13-4.9l-1.23.95,6,5.09.95-1.23c-2.76-1.69-6.09-2.33-8.51-4.58a27,27,0,0,1-5.58-7.66c-.35-.72-1.45-.34-1.46.39a12.68,12.68,0,0,0,1.92,6.92.79.79,0,0,0,1.43-.6c-.4-2.64-.32-5.94-2.52-7.79-.62-.52-1.8.18-1.23.95,2.64,3.53,5.71,6.77,8.61,10.09.49.57,1.6,0,1.31-.76a24.1,24.1,0,0,0-2.15-4.2c-.46-.71-1.72-.28-1.43.6a5.87,5.87,0,0,0,2.45,3.07,29.39,29.39,0,0,1,5.71,5.2c.49.62,1.54-.05,1.31-.76l-.58-1.78-1,1,1.87,1.66,1.23-.95c-2.28-2-4.54-4-6.85-5.9-1.83-1.54-5.09-2.73-6.28-4.79l-1.07,1.07a2.86,2.86,0,0,1,1.06.64c.8.61,1.58-.75.79-1.35a2.86,2.86,0,0,0-1.06-.64A.79.79,0,0,0,99.4,143c1.26,2.2,3.78,2.89,5.7,4.41,2.64,2.08,5.12,4.41,7.67,6.6a.79.79,0,0,0,1.23-.95,3.82,3.82,0,0,0-2.8-2.38.79.79,0,0,0-1,1l.58,1.78,1.31-.76a23.82,23.82,0,0,0-3.5-3.63c-1.4-1.15-3.65-2.12-4.25-4l-1.43.6a21.37,21.37,0,0,1,2,3.83l1.31-.76c-2.81-3.22-5.8-6.35-8.36-9.78l-1.23.95c1.84,1.55,1.78,4.9,2.12,7.1l1.43-.6a11,11,0,0,1-1.71-6.13l-1.46.39a28.37,28.37,0,0,0,5.82,8c2.53,2.36,5.93,3,8.83,4.82.74.45,1.63-.64.95-1.23l-6-5.09a.79.79,0,0,0-1.23.95c1.81,3.79,5.61,6.08,7.52,9.95L114,157c-5.22-2.39-8.15-6.44-12.24-10.22a.79.79,0,0,0-1.31.76c.84,4.08,7.22,7.34,10.37,9.59.72.52,1.6-.64.95-1.23a72.07,72.07,0,0,1-8.21-8.69l-1.11,1.11a75.91,75.91,0,0,0,6,5.48c2.31,1.75,5.17,2.31,7.5,4l.6-1.43a11.91,11.91,0,0,1-5.89-4.13l-.76,1.31a24.5,24.5,0,0,1,9.22,4.93l.34-1.31c-5.28,1.13-9.79-2.29-14.57-3.9-.91-.31-1.24.93-.6,1.43,2.3,1.78,5,3.46,8,3.73,4.09.37,7.7-.48,11.3,2.09l.19-1.43c-1.09.31-3.5-1.16-4.86-1.1-2.27.09-4.05.44-6.28-.46v1.51a3.42,3.42,0,0,1,3.37.67l.6-1.43q-5.89-1.72-11.66-3.8c-.61-.22-1.29.6-.88,1.15a11.74,11.74,0,0,0,2.55,2.54c.71.52,1.61-.65.95-1.23a35.06,35.06,0,0,1-5.73-6.32c-.57-.81-1.86-.1-1.35.79,1.12,1.93,2.16,3.88,3.12,5.89l1.35-.79-4.15-7.75a.79.79,0,0,0-1.43.6l1.36,5.41,1.51-.42a20.52,20.52,0,0,1-1.12-9.69l-1.54.21a36,36,0,0,0,4.75,9.61c2.18,2.86,5.13,4.68,8.22,6.43l.39-1.46c-4.6.38-10.31-3.28-12.12-7.33-1.72-3.88-3.81-9.34-3.45-13.61.08-1-1.48-1-1.56,0Z"/><path class="cls-7" d="M109.21,157.77c-1.58-.74-2.11-3.32-2.75-4.81s-1.11-3.55-2.14-4.66a1.69,1.69,0,0,0-1.81-.56c-.93.35-.89,1.34-1.29,2.09h1.35a10.48,10.48,0,0,0-2.81-3,.79.79,0,0,0-1.07.28l-.22.39a.78.78,0,0,0,1.35.79l.22-.39-1.07.28a8.41,8.41,0,0,1,2.25,2.45.79.79,0,0,0,1.35,0c.42-.8.25-1.39.92-.67.84.9,1.3,3,1.78,4.17.75,1.75,1.28,4.12,3.15,5,.91.42,1.7-.92.79-1.35Z"/><path class="cls-8" d="M116,164.46c6.11,1.22,12.23,2.42,18.33,3.67,5.39,1.11,11.54,3.52,17.06,2.45,2-.38,1.14-3.4-.83-3-3.1.6-6.31-.53-9.33-1.18q-4.24-.91-8.49-1.77c-5.3-1.07-10.6-2.12-15.9-3.18-2-.39-2.81,2.62-.83,3Z"/><path class="cls-8" d="M157.47,168.63c-4.13-.47-8.27.24-12.39-.23s-8.1-2-12.09-2.95c-8.3-2-16.71-3.52-25.12-5v3a44.56,44.56,0,0,1,8.83-1c2.6-.06,5.89-.54,8.29.55l.37-2.86a8.1,8.1,0,0,1-4.72-.44c-1.91-.71-2.66,2.28-.83,3a71.08,71.08,0,0,0,10.88,3.39,1.58,1.58,0,0,0,1.52-2.61,10.94,10.94,0,0,0-6.41-3.59c-1.62-.29-2.9,2-1.2,2.86a80.26,80.26,0,0,0,24.63,7.85v-3c-6.76,1.53-14.32-2-19.89-5.64l-.79,2.91c1.89.21,6.25.56,4.62-2.77L131,164.24a37.16,37.16,0,0,0,13.81,4.22c2,.21,2-2.91,0-3.13a33.13,33.13,0,0,1-12.23-3.8,1.58,1.58,0,0,0-2.14,2.14l.14.3V162.4l-.18.32,1.35-.77a13.86,13.86,0,0,1-3.24-.19c-1.66-.19-2,2.14-.79,2.91,6.33,4.16,14.65,7.68,22.29,6,1.43-.32,1.55-2.79,0-3a77.72,77.72,0,0,1-23.88-7.53l-1.2,2.86a8.18,8.18,0,0,1,5,2.79l1.52-2.61a71.08,71.08,0,0,1-10.88-3.39l-.83,3a11.27,11.27,0,0,0,6.38.44,1.58,1.58,0,0,0,.37-2.86c-2.75-1.25-5.73-1-8.7-1A51.67,51.67,0,0,0,107,160.44c-1.45.33-1.53,2.74,0,3,8.8,1.56,17.6,3.12,26.27,5.3,3.72.93,7.41,2.22,11.23,2.7,4.29.54,8.62-.2,12.92.3,2,.23,2-2.9,0-3.13Z"/><path class="cls-6" d="M114.11,184c3.22,0,3.22-5,0-5s-3.22,5,0,5Z"/><path class="cls-6" d="M198.16,83.24c1.15,1,2.49,1.64,3.72,2.51.68.48,1.34,1,2,1.54.42.34,1.81,1.17,2,1.73l2.86-1.2c-.63-1.22-1.17-2.86-2.23-3.77a2.33,2.33,0,0,0-1.42-.6c-.71,0-.91.36-1.42-.21l-1.11,2.67a10.76,10.76,0,0,1,2.06,0c2,.2,2-2.93,0-3.13a10.76,10.76,0,0,0-2.06,0,1.59,1.59,0,0,0-1.11,2.67,3.36,3.36,0,0,0,2.9,1.32,1.3,1.3,0,0,0,.58-.17q-.58.15,0,.67A11.52,11.52,0,0,0,206,89.39c.83,1.61,3.28.48,2.86-1.2s-2.38-2.83-3.66-3.85c-1.52-1.21-3.33-2.07-4.79-3.31s-3.75.9-2.21,2.21Z"/><path class="cls-6" d="M222.76,148.71c.24-1.54,1.36-2.68,1.6-4.21a8.21,8.21,0,0,0-1.13-4.76c-.82-1.75-3.09-.39-2.86,1.2l-.12,2.3a1.58,1.58,0,0,0,1.92,1.92,4.86,4.86,0,0,0,3-6.91,1.57,1.57,0,0,0-2.7,0,2.14,2.14,0,0,0,2.38-.87,5.45,5.45,0,0,0,.61-.9l-2.86-1.2-1,2.6,3.07.42c-.21-2.27,0-4.46-.06-6.72a3,3,0,0,0-1.31-2.65c-.46-.31-1.24-.3-1.66-.59-1.32-.92-1-2-1.16-3.32-.19-1.89-1.68-3.56-1.74-5.33l-2.91.79a4.8,4.8,0,0,1,.82,1.93,1.58,1.58,0,0,0,2.86.37c2.06-4.12-2.42-5.51-5.46-6.37l.69,2.61,2.51-3.07-2.61-1.52-.51,1.92a1.57,1.57,0,0,0,2.86,1.2c1.26-2,4.63-5.41,4.21-7.94-.44-2.69-3.68-1.69-5.08-3.32L215.05,109c-1.53,0-2,2.8-2.26,3.92a1.58,1.58,0,0,0,2.61,1.52l1.9-1.67a1.58,1.58,0,0,0,.24-1.89l-2.34-3.91c-.43-.71-1.77-2.19-1.76-2.93,0-1.14,1.55-1.62,2.14-2.87s-.36-2.74-1.77-2.3c-2.67.84-3.66,3.19-3.36,5.88a7.84,7.84,0,0,0,1.76,4.49c1.15,1.24,2.85,1.66,4.12,2.74,1.51,1.3,3.71-.84,2.21-2.21-1.94-1.76-4.94-4.28-4.17-7.27.47-1.86,2.38-2.49,1.73-4.59-.29-1-1.25-1.45-1.75-2.26-1-1.65-.28-2.31-.69-3.84-.54-2.06-3-3.06-4.6-4.13s-3.26,1.6-1.58,2.7a19,19,0,0,1,1.9,1.25,2.91,2.91,0,0,1,1.16,2.15,9.2,9.2,0,0,0,.62,2.74c.34.64,1.59,1.55,1.62,2.2s-1,1.58-1.2,2.2c-1.68,4.45,1.7,8.29,4.74,11.06l2.21-2.21a23.75,23.75,0,0,0-2.39-1.61,4.28,4.28,0,0,1-2.29-2.24,3.9,3.9,0,0,1,.78-4l-1.77-2.3c-.82,1.75-2.93,1.85-2.79,4.18a7.75,7.75,0,0,0,1.53,3.32l3.22,5.38.24-1.89-1.9,1.67,2.61,1.52c.48-2.23,4.14-7.74-.75-7.88a1.58,1.58,0,0,0-1.11,2.67,5.38,5.38,0,0,0,2.17,1.62c.44.18,1.25.11,1.56.37q.62-.55,0,.25l-.91,1.43-2.43,3.8,2.86,1.2.51-1.92c.37-1.41-1.58-2.78-2.61-1.52l-2.51,3.07a1.58,1.58,0,0,0,.69,2.61c.44.13,4.13.7,3.59,1.78l2.86.37a10.54,10.54,0,0,0-1.14-2.68,1.58,1.58,0,0,0-2.91.79c.07,1.78,1,2.87,1.52,4.52s.11,3.44,1,5a4,4,0,0,0,1,1.26c.38.31,1.39.55,1.69.88.84.91.57,1.44.55,2.66a37.41,37.41,0,0,0,.19,4.29,1.57,1.57,0,0,0,3.07.42l1-2.6c.64-1.71-2-2.65-2.86-1.2-1,1.61-3.24,3.38-1.55,5.43a2.38,2.38,0,0,0,4-.5h-2.7l-1.15,2.32,1.92,1.92a10.21,10.21,0,0,0,.12-4l-2.86,1.2c1.24,2.64-.41,4.09-.79,6.56-.3,2,2.71,2.82,3,.83Z"/><path class="cls-6" d="M120.94,88.49c10.52-1,21,1,31.52.75l-2.08-15.35q-2,.54.61.17l1.87,14.28c-.31.15,1.36-.17.65-.19a20.86,20.86,0,0,1,4.09,1c2.72.7,5.43,1.46,8.1,2.35A67.38,67.38,0,0,1,179.61,98c4.4,2.69,6.84,6.43,10.38,10.19s7.25,7.22,10,11.55a7.92,7.92,0,0,0,12.27,1.58c4.76-4.72,3-13.14-3.67-15a8.23,8.23,0,0,0-9.24,3.7c-1.85,3.16-1.06,6.71.64,9.7,2.36,4.16,8.95,5.37,12.27,1.58,2.09-2.38,3.85-4.88,4-8.14a17.86,17.86,0,0,0-1.58-7.4,47.94,47.94,0,0,0-7.59-13c-6.19-7.67-14.59-13.24-23.67-16.88-19.3-7.72-40.58-4.85-60.83-5.56-4.22-.15-7.82,3.7-7.82,7.82a7.94,7.94,0,0,0,7.82,7.82c16.45.57,33.5-1.65,49.6,2.65a46.24,46.24,0,0,1,18.84,9.89,34.43,34.43,0,0,1,6.43,7.48,35.41,35.41,0,0,1,2.17,4c.19.44.56,1.49.78,2.18q.23.69.42,1.39,2.29-5.79.36-3.31l12.27,1.58q.31,1.19.11.29v4.16l0-.24-2,3.45.13-.12-5.53,2.29-6.81-6.53,1.07-3.94.73-.93,12.27,1.58c-3.6-5.62-8.27-10.24-12.8-15.09-2.13-2.28-3.94-5-6.31-7a58.45,58.45,0,0,0-8.77-6.33,90,90,0,0,0-18.77-7.88c-7.52-2.25-14.44-4.15-21.89-.62-6,2.86-4.46,12.89,1.87,14.28a14.43,14.43,0,0,0,7.7-.17c8.12-2.63,7.07-15.57-2.08-15.35-10.53.25-21-1.78-31.52-.75-4.2.41-7.82,3.3-7.82,7.82,0,3.91,3.59,8.23,7.82,7.82Z"/><path class="cls-9" d="M204.14,84a52.35,52.35,0,0,1,6.77,7.82,1.2,1.2,0,0,0,1.32.54l2-.82-1.14-2A3.75,3.75,0,0,0,211.76,94c.61,1.52,1.74,2.3,1.88,4.11a23.29,23.29,0,0,1-.36,3.67c-.41,5,2.41,7.18,7,8.11,1.47.3,2.1-2,.62-2.26-1.64-.33-3.89-.69-4.87-2.24s-.42-3.59-.25-5.25a11.49,11.49,0,0,0,0-3.49c-.27-1.31-2.38-4.42-1.1-5.42.9-.71-.08-2.4-1.14-2l-2,.82,1.32.54a55.35,55.35,0,0,0-7.13-8.3c-1.09-1-2.75.62-1.66,1.66Z"/><path class="cls-6" d="M166.78,192.67a28.51,28.51,0,0,0,6.68-.11c1.56-.21,2.33-2.73.42-3.07a45.14,45.14,0,0,0-8-.7,1.56,1.56,0,0,0,0,3.13c4.12.09,8.17.06,12.1-1.32,1.54-.54,1.45-3.3-.42-3.07a35.64,35.64,0,0,1-5.64.25l.42,3.07a94,94,0,0,0,10.38-3.56l-1.52-2.61a28.64,28.64,0,0,1-3.93,3.22,1.56,1.56,0,0,0,1.58,2.7c5.76-3.28,12.68-3.5,18.33-7.05,1.43-.9.52-3.52-1.2-2.86a53.57,53.57,0,0,1-17.48,3.57l.42,3.07A63.54,63.54,0,0,0,190,184.06c3.32-1.41,6.44-3.21,9.92-4.23l-1.52-2.61-3.29,4.2c-.85,1.08-.12,3.21,1.52,2.61,5.06-1.85,9.1-5.17,13.1-8.68,1.36-1.19-.38-3.31-1.89-2.45a63.19,63.19,0,0,1-7.62,3.7l1.52,2.61a13,13,0,0,1,5-2.82l-1.92-1.92-.82,2.8c-.31,1.07.79,2.36,1.92,1.92a18.63,18.63,0,0,0,9.65-8,1.57,1.57,0,0,0-2.45-1.89,11.47,11.47,0,0,1-3.83,2.32l1.52,2.61a54.34,54.34,0,0,1,4.59-4.27c1.36-1.13-.43-3.45-1.89-2.45l-4.42,3,1.89,2.45,7.17-6-2.61-1.52a7.6,7.6,0,0,1-1.31,3.13l2.7,1.58A57.4,57.4,0,0,0,223.31,156c.58-1.94-2.39-2.73-3-.83a14.59,14.59,0,0,1-3.85,6,5.21,5.21,0,0,0-2,3.09c-.21,1.43,1.42,2.75,2.61,1.52l4.78-4.9-2.67-1.11-.47,1.71c-1.24,1.56,1,3.79,2.21,2.21,1.56-2,3.48-4.44,4-7s-1.75-4.18-1.68-6.68c.06-2-3.06-2-3.13,0a10.07,10.07,0,0,0,.84,4.31c.66,1.62.92,2,0,3.81a20.57,20.57,0,0,1-2.2,3.33l2.21,2.21a5.42,5.42,0,0,0,1.38-3.92,1.58,1.58,0,0,0-2.67-1.11l-4.78,4.9,2.61,1.52c.24-1.62,2.52-3,3.44-4.24a17.33,17.33,0,0,0,2.37-4.86l-3-.83a54.32,54.32,0,0,1-6.07,13.37c-1.08,1.72,1.57,3.21,2.7,1.58a9.47,9.47,0,0,0,1.62-3.87,1.58,1.58,0,0,0-2.61-1.52l-7.17,6c-1.36,1.13.43,3.45,1.89,2.45l4.42-3-1.89-2.45a54.34,54.34,0,0,0-4.59,4.27c-1,1.05,0,3.18,1.52,2.61a15.82,15.82,0,0,0,5.21-3.13l-2.45-1.89a15.25,15.25,0,0,1-7.78,6.59L207,178.1l.82-2.8a1.58,1.58,0,0,0-1.92-1.92A16.75,16.75,0,0,0,199.5,177c-1.11,1,.06,3.2,1.52,2.61a69.3,69.3,0,0,0,8.37-4l-1.89-2.45c-3.58,3.13-7.2,6.22-11.72,7.87l1.52,2.61,3.29-4.2c.89-1.13.12-3.1-1.52-2.61a70.56,70.56,0,0,0-9.3,3.95,58.75,58.75,0,0,1-11.69,3.54,1.57,1.57,0,0,0,.42,3.07,56.3,56.3,0,0,0,18.31-3.68l-1.2-2.86c-5.63,3.54-12.57,3.77-18.33,7.05l1.58,2.7a33.12,33.12,0,0,0,4.56-3.71c1-1,0-3.23-1.52-2.61a94,94,0,0,1-10.38,3.56,1.57,1.57,0,0,0,.42,3.07,35.64,35.64,0,0,0,5.64-.25l-.42-3.07c-3.67,1.29-7.42,1.29-11.27,1.21v3.13a40.34,40.34,0,0,1,7.16.59l.42-3.07a28.51,28.51,0,0,1-6.68.11c-2-.2-2,2.93,0,3.13Z"/><path class="cls-6" d="M219.31,124.67c3.22,0,3.22-5,0-5s-3.22,5,0,5Z"/><path class="cls-10" d="M218.08,120.93a16.51,16.51,0,0,0,3.42,11.39c.88,1.13,2.34-.31,1.84-1.42a9.56,9.56,0,0,1-.75-2.21c-.29-1.48-2.55-.85-2.26.62a12.77,12.77,0,0,0,1,2.77l1.84-1.42a14.11,14.11,0,0,1-2.74-9.73c.09-1.51-2.26-1.5-2.34,0Z"/><path class="cls-6" d="M81.41,164.43c-1.19,1.34-2.73,3.46-2.15,5.39a2,2,0,0,0,1,1.29c.42.26,1.86.21,2,.37a1.58,1.58,0,0,0,2.67-1.11l0-2.07-2.91.79c2.19,3.09,1.27,9.19,6.18,10,4.2.7,3.38-3.58,1.15-5.38l-2.21,2.21c4.9,3.81,10.47,2.91,16.25,2.23,7.2-.84,14,.88,20.91,2.81l.83-3a43.73,43.73,0,0,0-20.13.33c-1.8.45-1.26,2.92.42,3.07l11.28,1c3.39.3,8.11-.09,11.13,1.59v-2.7c-1.78.95-4.31.09-6.15-.23l-5.21-.9c-1.95-.34-2.82,2.52-.83,3,5.35,1.34,11,.13,16.23,1.84l.42-3.07-5.92.45a1.57,1.57,0,0,0-.42,3.07c5.8,1.89,11.62,2.41,17.52,3.77a54.31,54.31,0,0,0,16.95,1.36c1.63-.12,2.27-2.75.42-3.07a79.43,79.43,0,0,0-20.28-.94c-1.67.14-2.23,2.61-.42,3.07q7.57,1.91,14.94,4.43l.83-3-6.42-1.63c-2-.51-2.64,2.27-.83,3a18.63,18.63,0,0,0,12,.76l-1.2-2.86a19.3,19.3,0,0,1-6.38,1.73l.42,3.07L167.3,193a1.57,1.57,0,0,0,.69-2.61,7.18,7.18,0,0,0-6.91-1.51,1.56,1.56,0,0,0,.83,3,3.88,3.88,0,0,1,3.86.71l.69-2.61-13.77,2.16c-1.72.27-1.34,3.24.42,3.07a24.07,24.07,0,0,0,8-2.16c1.64-.76.46-3.29-1.2-2.86a15.87,15.87,0,0,1-10.38-.76l-.83,3,6.42,1.63a1.56,1.56,0,0,0,.83-3q-7.38-2.53-14.94-4.43l-.42,3.07a76.19,76.19,0,0,1,19.45.83l.42-3.07a58.5,58.5,0,0,1-8.21.25,65.89,65.89,0,0,1-9-1.74c-5.59-1.16-11-1.74-16.43-3.53l-.42,3.07,5.92-.45a1.57,1.57,0,0,0,.42-3.07c-5.3-1.72-10.88-.5-16.23-1.84l-.83,3c4.08.71,9.83,2.9,13.77.81a1.58,1.58,0,0,0,0-2.7c-3-1.69-7-1.5-10.34-1.8l-13.65-1.22.42,3.07a40,40,0,0,1,18.47-.33,1.56,1.56,0,0,0,.83-3c-5.61-1.57-11.35-3.16-17.22-3.2s-13.33,3-18.55-1c-1.56-1.21-3.79.93-2.21,2.21s-.2-1.94-.37-2.47-.31-1.41-.46-2.1a10.19,10.19,0,0,0-1.58-3.84,1.58,1.58,0,0,0-2.91.79l0,2.07,2.67-1.11c-1-1-1.93-.36-2.86-1l.77,1.35a3.74,3.74,0,0,1,1.26-3c1.33-1.5-.87-3.72-2.21-2.21Z"/><path class="cls-11" d="M125.31,186.08a75.9,75.9,0,0,0,50.13-4.19c1.12-.5.48-2.16-.59-2.18-10.94-.24-21.1,5.06-32.08,4.52s-21.32-4.72-32.34-3.74a1.18,1.18,0,0,0-.31,2.3l11.35,3.64c1.44.46,2.06-1.8.62-2.26l-11.35-3.64-.31,2.3c11-1,21.45,3.2,32.34,3.74s21.14-4.76,32.08-4.52l-.59-2.18a73.3,73.3,0,0,1-48.32,4,1.17,1.17,0,0,0-.62,2.26Z"/><path class="cls-12" d="M194.67,116a76.32,76.32,0,0,1,1.82,18.5c-.09,4,6.16,4,6.25,0a83.5,83.5,0,0,0-2-20.16c-.88-3.92-6.91-2.26-6,1.66Z"/><path class="cls-6" d="M100.22,82.11A5.6,5.6,0,0,1,99,83.7l2.45,1.89,1.89-3.51-2.86-1.2a4.53,4.53,0,0,1-1,2.32c-.8,1.25.87,3.11,2.14,2.14a5.19,5.19,0,0,0,.8-7.89v2.21c-.77.63,1.92,2.43,2.23,2.52a10,10,0,0,0,5.1-.45,3.16,3.16,0,0,0,1.92-2.2,23.35,23.35,0,0,1,3.32-6c.93-1.26-.89-3-2.14-2.14a9.31,9.31,0,0,0-2.29,2.08,1.56,1.56,0,0,0,2.21,2.21A7.74,7.74,0,0,1,116.22,74l-1.77-2.3-.41.83,2.91.79A3.34,3.34,0,0,0,115,70.22v2.7a39.49,39.49,0,0,0,3.39-2.17l-2.14-2.14c.36-.53-1.89,2.79-2.16,2.47L113,73.75c2-.19,4.11-.46,5.68-1.82a13.53,13.53,0,0,0,1.59-2.15,4,4,0,0,1,5.22-.89c1.79.91,3.37-1.77,1.58-2.7-2-1-6.47-4.34-7.56-.5a1.58,1.58,0,0,0,1.51,2,18,18,0,0,1,6.45,1.58c.9.39,1.83,1,2.85.55,2.06-.83,1.32-3,.28-4.28L130.3,68c1.64-.83,4.46-.73,6.27-.94s4-.82,5.69-.37c1.14.3,2.12,1.12,3.28,1.43s5.07-.15,5.6.7c1.06,1.7,3.77.13,2.7-1.58s-2.47-2.07-4.46-2.07a9.85,9.85,0,0,1-4.56-.72,11.68,11.68,0,0,0-2.2-.86c-2.28-.47-4.86.21-7.14.47s-4.71.21-6.76,1.24a1.59,1.59,0,0,0-.32,2.45l.21-1.4-1.11-.47a8.12,8.12,0,0,0-2.09-.7,21.36,21.36,0,0,0-4.38-.61l1.51,2-.64.5,1.35.7,2.26,1.16,1.58-2.7a8.67,8.67,0,0,0-7.19-.45,5.34,5.34,0,0,0-2.13,2.14c-1.34,2-2.32,2.51-4.75,2.74a1.59,1.59,0,0,0-1.11,2.67c2.58,3.11,5.62-1,7.07-3.11.85-1.26-.87-3-2.14-2.14a39.49,39.49,0,0,1-3.39,2.17,1.58,1.58,0,0,0,0,2.7l.38.43c.11,1.41,2.17,2.29,2.91.79l.41-.83a1.58,1.58,0,0,0-1.77-2.3,11,11,0,0,0-4.81,2.45l2.21,2.21a5,5,0,0,1,1.65-1.59l-2.14-2.14a25,25,0,0,0-2.81,4.43,9.54,9.54,0,0,1-.76,2.07c-1.35,1.29-2.92.57-4-.34-1.51-1.29-2.78-2.08-4.54-.65a1.58,1.58,0,0,0,0,2.21,2,2,0,0,1-.17,3l2.14,2.14a9.12,9.12,0,0,0,1.29-3.07c.38-1.67-2-2.82-2.86-1.2L98.74,84a1.57,1.57,0,0,0,2.45,1.89,12.64,12.64,0,0,0,1.72-2.23c1.05-1.72-1.65-3.29-2.7-1.58Z"/><path class="cls-13" d="M131.29,66.72c.3-.09,3.1,2.07,3.81,2.24a48.29,48.29,0,0,0,7.23.65q8.05.62,16.12,1c2.06.09,1.94-2.88,0-3.13-4.63-.58-9.06-2.09-13.66-2.83-3.65-.59-8.23.25-11.36-2l.32,2.45c5.72-5.58,14.33,3,20,4.8,1.65.53,2.84-2.13,1.2-2.86l-2.29-1-.79,2.91.31.09.79-2.91c-5.76.57-10.75-3-16.24-4.12-2-.41-2.8,2.61-.83,3,5.79,1.2,11,4.84,17.07,4.23a1.58,1.58,0,0,0,.79-2.91,2.46,2.46,0,0,0-1.89-.51c-1.39.09-2.33,2.23-.79,2.91l2.29,1,1.2-2.86c-7.2-2.31-15.66-11.18-23-4a1.59,1.59,0,0,0,.32,2.45c3.53,2.54,8,1.69,12.1,2.31,4.88.74,9.58,2.32,14.49,2.94V67.45q-8.38-.38-16.74-1a39,39,0,0,1-4.33-.36A7.83,7.83,0,0,1,134,64.51c-1.2-.84-2.07-1.26-3.55-.81-1.92.59-1.1,3.61.83,3Z"/><path class="cls-6" d="M141.3,63.47a41.22,41.22,0,0,0,7.49,3.43c2.54.85,5.42,1.17,7.19,3.38l1.52-2.61-3.69-1.14c-1.66-.51-2.84,2.12-1.2,2.86a32.62,32.62,0,0,0,6.61,2.21c2,.42,2.8-2.59.83-3a28.84,28.84,0,0,1-5.87-1.89L153,69.54l3.69,1.14c1.63.5,2.42-1.49,1.52-2.61-1.51-1.89-3.62-2.7-5.88-3.37a43.21,43.21,0,0,1-9.44-3.92,1.56,1.56,0,0,0-1.58,2.7Z"/><path class="cls-6" d="M117.92,89.08q1.36-.32,2.73-.55a8.74,8.74,0,0,0,4.67-3.59,5.82,5.82,0,0,0,.93-2.91,5.92,5.92,0,0,0-.14-3.12,7.91,7.91,0,0,0-3.59-4.67l-1.87-.79a7.87,7.87,0,0,0-4.16,0q-1.37.23-2.73.55a8,8,0,0,0-4.67,3.59,5.82,5.82,0,0,0-.93,2.91,5.92,5.92,0,0,0,.14,3.12,7.91,7.91,0,0,0,3.59,4.67,8.39,8.39,0,0,0,6,.79Z"/><path class="cls-10" d="M115.18,83.7a77.05,77.05,0,0,1,14.93-6.3c5.14-1.68,10.12-.77,15.42-.69a109.49,109.49,0,0,0,15.23-.84,57.17,57.17,0,0,1,7.62-.81,28,28,0,0,1,7.74,1.55l.83-6.14c-2.19-.13-4,.56-6.08,1.09a38.23,38.23,0,0,1-7,.8q-7.12.46-14.21,1.36c-4.6.59-9.19,1.29-13.76,2.13s-9.2,2.24-13.92,1.87c-4-.32-4,5.94,0,6.25,4.5.36,8.86-.79,13.24-1.65,4.78-.94,9.6-1.74,14.43-2.36s9.46-1.05,14.21-1.36c2-.13,4.07-.22,6.09-.51,2.33-.34,4.69-1.52,7-1.38,3.61.22,4.12-5.15.83-6.14a34.77,34.77,0,0,0-15.61-1.16,109.07,109.07,0,0,1-17.81,1c-2.72-.07-5.44-.41-8.16-.43a26.38,26.38,0,0,0-8.87,1.75A84.85,84.85,0,0,0,112,78.3c-3.48,2-.33,7.43,3.16,5.4Z"/><path class="cls-6" d="M102.66,81.87c3.22,0,3.22-5,0-5s-3.22,5,0,5Z"/><path class="cls-6" d="M84.3,101.57a4.18,4.18,0,0,0,1.18,4.22,1.6,1.6,0,0,0,2.21,0,1.58,1.58,0,0,0,0-2.21l-.23-.22,0-.06a2.59,2.59,0,0,1-.15-.28q.08.16,0,0a2,2,0,0,1-.06-.23q0,.24,0-.05t0-.05a2.33,2.33,0,0,1,.08-.3,1.56,1.56,0,0,0-3-.83Z"/><path class="cls-6" d="M92.27,80.5,90,83.63l2.45-.32c-.19-.22,2.1-3.95,2.27-4.72.31-1.45-1.49-2.73-2.61-1.52l-3.33,3.58,2.45,1.89c1-1.33,1.66-2.82,2.55-4.22a20.6,20.6,0,0,1,2.39-2.48c1-1.13,1.18-2.46-.21-3.35l-1.58,2.7c.67.41.95,1.19,1.6,1.58s1.34.5,2,.92a19.53,19.53,0,0,1,3.56,3.69l1.89-2.45v.6L101,80.89l.44.5L103,78.78c-1.55-.25-2.94-2.17-4.43-2.82a7.19,7.19,0,0,0-4.38-.39,1.59,1.59,0,0,0-1.15,1.51c-.2,2.32-1.63,4.21-1.66,6.59a1.58,1.58,0,0,0,2.91.79l4-5.56-2.86-1.2L93.64,83a1.57,1.57,0,0,0,2.61,1.52c1.54-1.74,3.15-3.39,4.85-5l-2.67-1.11a6.65,6.65,0,0,1-1.27,4.5l2.86.37.4-1.59L97.8,80.21c-.42,1.41-1.68,5.36-3.53,5.71-1.47.28-1.78-1.47-2.8-2.53a1.58,1.58,0,0,0-2.61.69,8.85,8.85,0,0,1-3.31,4.49,5.14,5.14,0,0,0-1.87,1.86c-1,2.12.51,4.95,1.71,6.64.6.84,2.18,1.18,2.7,0A21.48,21.48,0,0,0,89.89,90,1.57,1.57,0,0,0,87,89.19,11.13,11.13,0,0,0,85.77,94c-.1,2.86-.38,4.15-2.39,6.28-1.38,1.46.82,3.68,2.21,2.21,1.24-1.31,2.55-2.55,3.05-4.34.7-2.49-.16-4.95,1-7.38L86.76,90a16.55,16.55,0,0,1-1.38,5.5h2.7c-.92-1.3-2.11-2.91-1-4.22.53-.6,1.4-1,2-1.62a11.67,11.67,0,0,0,2.76-4.74l-2.61.69c1.78,1.86,2.42,4.6,5.64,3.46s5-4.94,5.92-8c.42-1.41-1.62-2.79-2.61-1.52A5.34,5.34,0,0,0,97,84.15c.23,1.45,2.18,1.36,2.86.37a9.28,9.28,0,0,0,1.7-6.07,1.58,1.58,0,0,0-2.67-1.11c-1.7,1.59-3.31,3.24-4.85,5l2.61,1.52,1.8-5.33c.6-1.79-1.89-2.55-2.86-1.2l-4,5.56,2.91.79c0-2.28,1.46-4.29,1.66-6.59L95,78.58c3.11-.51,4.35,2.76,7.14,3.21a1.58,1.58,0,0,0,1.52-2.61,4,4,0,0,0-1.08-1,1.58,1.58,0,0,0-2.35,1.35,2.51,2.51,0,0,0,1.53,2.1c1.58,1,3-1.16,1.89-2.45a33.46,33.46,0,0,0-7.75-6.68c-1.72-1.06-3.27,1.62-1.58,2.7l.26.17L93.85,74c0-.27-1.9,1.39-2.16,1.72-1.26,1.57-1.94,3.61-3.17,5.24-1.08,1.42,1.26,3.18,2.45,1.89l3.33-3.58-2.61-1.52c-.56,2.64-3.76,5.08-1.46,7.77a1.58,1.58,0,0,0,2.45-.32L95,82.07c1.19-1.63-1.52-3.19-2.7-1.58Z"/><path class="cls-11" d="M92.9,87.72a18.08,18.08,0,0,0-1.49,4.65l3.85-2.18c-1.33-.3-2.32-1.4-3.68-1.73a6.07,6.07,0,0,0-2-.13c-.5,0-1.92-.08-1.29.33C85.68,87,82.37,90.34,84,92.94c.74,1.17,3,4.17,1.16,5.24a3.21,3.21,0,0,0-1.44,3.53c.79,3.82,4.91,7.18,7.38,10q4.71,5.42,9.6,10.69a3.16,3.16,0,0,0,5.34-2.21c-.1-3.4,1.73-6.12,3.23-9s2.49-6,4.55-8.44c3.66-4.41,8.62-7.37,11.88-12.18,1.91-2.82-1.71-5.49-4.28-4.28s-5.67.28-7.94,1.73c-2.49,1.59-4.62,5-6.48,7.32a24.12,24.12,0,0,0-4.24,6.91c-.8,2.16-.89,6.19-2.68,7.77l3-.8c-1.71-.35-3.35-3.55-4.29-4.8A18.27,18.27,0,0,0,94,99.67c-3-1.89-6.31,2.43-3.79,4.91a28.09,28.09,0,0,1,4.74,6.12c1.89,3.27,6.24.92,5.71-2.41A46.39,46.39,0,0,0,96,94.39l-5.4,3.16q2.51,4.65,5.36,9.1a3.17,3.17,0,0,0,5.71-.75,36.84,36.84,0,0,0,.63-12.37l-6.14.83,2.26,12.71,6-1.66-2.39-11.86-6,1.66a25.3,25.3,0,0,1,1.16,7.43l6.14-.83a101,101,0,0,0-5.82-13.08c-.83-1.53-1.55-3-3.41-3.34s-3.89.77-5.53,1.27l3.53,4.59c2-3.38,3.15-7.15,4.45-10.83s-3.76-5-5.71-2.41l-1.65,2.21,5.71,2.41c.43-1.23,1.89-2.11,2.65-3.16a6.6,6.6,0,0,0,1.33-4l-5.34,2.21c1.63,1.92.82,4,.43,6.17a9.8,9.8,0,0,0,.38,5.68,30.48,30.48,0,0,0,3,4.58,26.06,26.06,0,0,1,3,6.68,3.15,3.15,0,0,0,6,0c.81-2.44,1.44-6.7,4.24-7.64,2.32-.78,3.35-4.49.75-5.71Q106.07,85,101,82c-2.53-1.51-6.18,1.66-4.28,4.28a19.89,19.89,0,0,0,6.43,5.84c2.88,1.62,5.57-1.54,4.28-4.28-1.51-3.19-4.65-6.12-4.64-9.81l-5.34,2.21c3.34,2.91,6.76,5.93,10.72,8,1.75.9,3.6,1.49,5.41,2.24,2,.83,3.76,2,6,1.72,2-.24,3.62-1.81,3-4-.78-2.76-2.86-3.81-5.57-4.06-3.37-.31-5.68-1.49-8.52-3.34-3.45-2.25-6.27,3-3.16,5.4a19.9,19.9,0,0,0,7.89,3.6c3.38.73,5.57-3.86,2.41-5.71A40.2,40.2,0,0,0,109.05,81c-3.3-1.2-5.61,4.18-2.41,5.71,4.71,2.25,9.6,5.41,15,4,3.89-1,2.24-7.05-1.66-6-3.31.87-7.29-2-10.18-3.37L107.39,87a31.19,31.19,0,0,1,5.13,2.45l2.41-5.71a15.52,15.52,0,0,1-6.4-3l-3.16,5.4a32.87,32.87,0,0,0,5.54,3.07c.28.11,6,1.84,5.68.6l3-4c-1.42.17-3-1-4.36-1.5a36.41,36.41,0,0,1-4.83-2.11,53.1,53.1,0,0,1-8.54-6.49A3.17,3.17,0,0,0,96.56,78c0,5.19,3.41,8.53,5.5,13l4.28-4.28a12.61,12.61,0,0,1-4.18-3.6l-4.28,4.28q5.05,3,10.38,5.5l.75-5.71c-5.49,1.84-7,7-8.6,12h6a32.75,32.75,0,0,0-3.11-7.31c-1.07-1.81-3.15-3.59-3.32-5.72s1-4.37.84-6.64A10.81,10.81,0,0,0,98,73.31c-1.83-2.17-5.27-.31-5.34,2.21,0,.67-1.53,1.77-2,2.27A9.57,9.57,0,0,0,88.92,81c-1.25,3.62,3.76,5,5.71,2.41l1.65-2.21-5.71-2.41a52.14,52.14,0,0,1-3.82,9.34,3.16,3.16,0,0,0,3.53,4.59,18.66,18.66,0,0,1,3.45-1.11l-2.21-.92c1.36,1.49,2.16,4.12,3,5.94,1,2.24,2,4.53,2.82,6.86,1.16,3.16,6.17,2.89,6.14-.83a31.59,31.59,0,0,0-1.39-9.09c-1.19-3.87-6.82-2.26-6,1.66l2.39,11.86c.8,4,6.72,2.26,6-1.66L102.24,92.7c-.61-3.44-6.41-2.68-6.14.83s.52,7.17-.41,10.71l5.71-.75Q98.55,99,96,94.39c-1.92-3.56-7.22-.42-5.4,3.16A41.23,41.23,0,0,1,94.59,110l5.71-2.41a34.47,34.47,0,0,0-5.71-7.38l-3.79,4.91c3.33,2.09,9.22,14.64,14.2,8.84,2.52-2.93,2.5-7.15,4.05-10.53a23.87,23.87,0,0,1,3.74-5.25,48.46,48.46,0,0,1,4.81-5.46l-2.21.92c3.35-.27,6.1-.45,9.21-1.91l-4.28-4.28c-3.6,5.31-9.65,8.34-13.09,13.84-1.79,2.86-3,6.12-4.59,9.11s-2.94,6.27-2.84,9.86l5.34-2.21q-4.06-4.4-8-8.89-1.78-2-3.53-4.07c-1.11-1.29-3.47-3.3-3.82-5l-1.44,3.53c5.47-3.13,3.86-9.38,1.08-13.79l-4.28,4.28c1.61,1.05,2.76.46,4.47.59,1.36.11,2.54,1.25,4,1.57s3.56-.45,3.85-2.18a12.07,12.07,0,0,1,.86-3.16c1.64-3.64-3.74-6.82-5.4-3.16Z"/><path class="cls-14" d="M140.67,97.7c3.52-.6,6.95,1,10.5.64,2.9-.31,5.68-1.36,8.57-1.78L159,95.26c-2,2.51-6.37.44-8.9.15a7.6,7.6,0,0,0-4.62.75.79.79,0,0,0,.39,1.46c2.61-.09,5.21-.25,7.8-.52,1.48-.16,3.39-.05,4.66-.9.6-.4.43-1.5-.39-1.46l-7.59.41c-.85,0-1.1,1.32-.21,1.54a13.12,13.12,0,0,0,8.38-.62.79.79,0,0,0-.21-1.54,17.54,17.54,0,0,0-4.34,0c-1,.11-1,1.68,0,1.56a17.54,17.54,0,0,1,4.34,0l-.21-1.54a11.71,11.71,0,0,1-7.55.62l-.21,1.54,7.59-.41-.39-1.46c-1.4.93-4.42.75-6.09.89-1.86.15-3.72.25-5.58.31l.39,1.46c4.06-2.06,10.52,3,13.83-1.14a.79.79,0,0,0-.76-1.31c-3.42.5-6.78,1.93-10.27,1.82-3-.1-5.73-1.2-8.8-.67-1,.17-.57,1.68.42,1.51Z"/><path class="cls-6" d="M90.3,120.15c-1.22,1.69-.71,3.1-.19,4.93a8.45,8.45,0,0,1-1.66,7.58c-1.33,1.82-3.2,2.73-4.27,4.79a9.75,9.75,0,0,0-1.39,5.44c.33,3.06,1.91,5.75-1.14,7.74A6.48,6.48,0,0,0,79,154a5.66,5.66,0,0,0,.32,4.73c.86,2.12.56,4.4,1.62,6.45.92,1.79,3.62.21,2.7-1.58-.59-1.14-.17-2.45-.38-3.65a17.8,17.8,0,0,0-.78-2.13c-.37-1.32-1.06-3.12.4-4.18.25-.18.91-.23,1.21-.42,2.84-1.81,2.76-6,2.22-8.83-.5-2.62-.25-5.07,1.69-7.12,1.62-1.71,3-2.53,4-4.74a15.84,15.84,0,0,0,1.68-4.71C94,126,92,123.17,93,121.73c1.18-1.63-1.53-3.19-2.7-1.58Z"/><path class="cls-6" d="M126.48,111.33a5.86,5.86,0,0,0-.59,2.94,1.56,1.56,0,1,0,3.13,0c0-.15,0-.29,0-.44s0-.2,0-.29q0,.22,0,.05c0-.14.06-.29.1-.43s.2-.51.08-.25a1.6,1.6,0,0,0-.56-2.14,1.58,1.58,0,0,0-2.14.56Z"/><path class="cls-7" d="M164.52,114.47a23.36,23.36,0,0,1,2.68,12l1.54-.21q-1.69-5.5-3.82-10.85c-.36-.91-1.81-.57-1.51.42a43.78,43.78,0,0,1,1.88,11.31l1.54-.21a27.38,27.38,0,0,1-.86-6.19h-1.56c.39,3.76.67,7.56-1.28,11l1.43.6a31.84,31.84,0,0,1,1.07-4.14l-1.51-.42-.79,2.86,1.51.42a41.29,41.29,0,0,1,1.57-6.67l-1.54-.21a17.16,17.16,0,0,1-3.71,10.72l1.31.76,1.41-3.68-1.51-.42c-.44,1.3-5.21,8.25-7,5.27l-1.07,1.07,4.41,2.88.79-1.35a12.37,12.37,0,0,0-3.64-1.54.79.79,0,0,0-.6,1.43,14.83,14.83,0,0,0,6.34,1.89.79.79,0,0,0,.39-1.46c-2.06-.92-4.06-1.93-6-3l-.19,1.43a9.57,9.57,0,0,0,6.49-3.76L161,134a4.12,4.12,0,0,1-.74,3.86l1.43.6a5.79,5.79,0,0,1,1.13-2.7.78.78,0,0,0-1.23-.95,25,25,0,0,0-2,2.53c-.51.72.44,1.34,1.07,1.07l.85-.36c.65-.28.4-1.26-.19-1.43a1.81,1.81,0,0,0-2.15.61.79.79,0,0,0,.16,1.23c3.41,1.8,5.9,3.74,6.63-1.3.11-.78-1-1.49-1.43-.6a20.71,20.71,0,0,1-2.05,3.59h1.35c-.83-1.54.6-4,.64-5.77,0-1-1.51-1-1.56,0a16.15,16.15,0,0,0,.2,3.52.79.79,0,0,0,1.43.19,26.16,26.16,0,0,0,3.13-14.22l-1.46.39c1.94,4.33.34,8.63-2,12.44l1.46.39c-.19-5.09,2.57-9.65,2.72-14.72l-1.54.21c2,5.44-.15,10.65-2.38,15.64l1.46.39a36.4,36.4,0,0,1,.22-5.86c.09-.77-1.13-1.07-1.46-.39l-.77,1.63,1.35.79,1.1-2.41-1.43-.6a17.37,17.37,0,0,0-.76,7.89.79.79,0,0,0,1.33.55c3-2.36,3.68-7.68,4.82-11.06h-1.51a11.85,11.85,0,0,1-2,8.49l1.43.6q.62-3.1,1.31-6.18a.78.78,0,0,0-1.51-.42l-1.32,3.89,1.54.21c.26-3,1.73-5.72,1.39-8.82a22.22,22.22,0,0,0-2.62-7.83c-1.21-2.2-3.41-3.43-5-5.28s-2.71-3.38-5-3.79l.34,1.31a5.08,5.08,0,0,1,5.46-.8L163,109l-1.58-.68-.55,1.33c5.93-.35,9.44,4.64,11.2,9.53,1,2.89.63,5.16.08,8.07-.5,2.65-.75,5.55-2.65,7.63l1.33.55-1.13-9.25-1.54.21a30.1,30.1,0,0,1,1.54,5.89c.14.89,1.53.65,1.54-.21l0-3.54h-1.56l.14,2.73a.78.78,0,0,0,1.56,0c.5-4.24,1.34-9.33-.26-13.45-1.31-3.35-5.26-4.43-8.23-5.86a.79.79,0,0,0-1.15.88,79.41,79.41,0,0,0,2.47,9.1.78.78,0,0,0,1.51-.42c-.81-3-1.76-6-4.34-8a.78.78,0,0,0-1.11,1.11,16,16,0,0,1,3.47,12.5.79.79,0,0,0,1.43.6,28.64,28.64,0,0,0,4.28-8.13l-1.43.19a23.64,23.64,0,0,1,2.09,6.89l1.51-.42-3.16-7.85c-.31-.77-1.55-.74-1.54.21a26.12,26.12,0,0,0,1.28,7.86.79.79,0,0,0,1.51,0,34.43,34.43,0,0,0,1.13-6.87l-1.46.39a17.56,17.56,0,0,1,1.57,13l1.43-.19a18.44,18.44,0,0,1-1.73-5.49l-1.51.42.82,4.43c.17.9,1.51.64,1.54-.21l.18-5.33-1.54.21.72,3.6a.78.78,0,0,0,1.54-.21q-.45-5.39-.44-10.79l-1.46.39a7.16,7.16,0,0,1,1.2,4.41l1.54-.21a19.06,19.06,0,0,0-5.69-11c-.53-.52-1.57,0-1.31.76a55.47,55.47,0,0,0,2.27,5.65l1.35-.79-1.36-2.43-1.35.79,3.4,4.59,1.07-1.07a29.23,29.23,0,0,1-6.6-5.24c-1.93-1.84-4.39-3.22-6.21-5.12l-.55,1.33a8.35,8.35,0,0,1,7.61,4.93l.88-1.15a4.08,4.08,0,0,1-2.13-1l-.6,1.43,1.22.24a.79.79,0,0,0,.88-1.15,13,13,0,0,0-4.26-5l-.6,1.43c2.66.66,5.36,1.4,6.81,3.94l1.07-1.07-4.68-3.07c-.79-.52-1.48.59-.95,1.23a14.21,14.21,0,0,0,2.66,2.45c.73.53,1.57-.62.95-1.23-1.19-1.17-2.32-2.37-3.41-3.64l-.95,1.23a8.42,8.42,0,0,1,4.26,3.8l1.35-.79-2-2.62-.47,1.15c1.14-.31,2.83,4.13,4,5,.7.51,1.35-.44,1.07-1.07l-1.26-2.78-1.23.95c1.6,1.5,1.62,3.6,1.57,5.65l1.54-.21a42.29,42.29,0,0,0-3.16-6.56c-.36-.61-1.56-.41-1.46.39l.5,3.9,1.33-.55a23.5,23.5,0,0,1-4.6-4.83c-.57-.81-1.89-.08-1.35.79A41.42,41.42,0,0,1,167.91,125a17.78,17.78,0,0,1,.47,7.35,22.9,22.9,0,0,1-.81,3l-.34,1a1.09,1.09,0,0,1-1,1.26c.56-.84-.8-1.62-1.35-.79-.86,1.29-.34,3.28,1.55,3,2.1-.27,2.7-4.11,3.1-5.59,2-7.46-1.46-15.52-5.33-21.8l-1.35.79a25,25,0,0,0,4.84,5.15c.45.36,1.43.2,1.33-.55l-.5-3.9-1.46.39a39.87,39.87,0,0,1,3,6.19.79.79,0,0,0,1.54-.21c.06-2.53-.08-4.94-2-6.75a.79.79,0,0,0-1.23.95l1.26,2.78,1.07-1.07c-2.18-1.58-1.31-6.15-5.17-5.11a.79.79,0,0,0-.47,1.15l2,2.62c.59.78,1.85.11,1.35-.79a9.6,9.6,0,0,0-4.82-4.36.79.79,0,0,0-.95,1.23c1.09,1.26,2.22,2.47,3.41,3.64l.95-1.23a12.09,12.09,0,0,1-2.34-2.2l-.95,1.23,4.68,3.07c.67.44,1.44-.42,1.07-1.07-1.66-2.9-4.66-3.89-7.75-4.66a.79.79,0,0,0-.6,1.43,11.51,11.51,0,0,1,3.7,4.46l.88-1.15-1.22-.24a.79.79,0,0,0-.6,1.43,6.62,6.62,0,0,0,2.5,1.18.79.79,0,0,0,.88-1.15,9.91,9.91,0,0,0-9-5.7.79.79,0,0,0-.55,1.33c2,2.14,4.72,3.68,6.88,5.76a27.06,27.06,0,0,0,6.26,4.84c.63.32,1.57-.39,1.07-1.07l-3.4-4.59a.78.78,0,0,0-1.35.79l1.36,2.43c.5.89,1.77.11,1.35-.79a51.86,51.86,0,0,1-2.11-5.28l-1.31.76a17.73,17.73,0,0,1,5.29,10.27c.14.91,1.49.62,1.54-.21a7.74,7.74,0,0,0-1.42-5.2.79.79,0,0,0-1.46.39q0,5.41.44,10.79l1.54-.21-.72-3.6c-.18-.89-1.51-.64-1.54.21l-.18,5.33,1.54-.21-.82-4.43c-.18-1-1.66-.56-1.51.42a19.65,19.65,0,0,0,1.89,5.86.79.79,0,0,0,1.43-.19,19.25,19.25,0,0,0-1.73-14.2.79.79,0,0,0-1.46.39,32.37,32.37,0,0,1-1.08,6.45h1.51a24.82,24.82,0,0,1-1.22-7.45l-1.54.21,3.16,7.85a.78.78,0,0,0,1.51-.42,25.11,25.11,0,0,0-2.25-7.27c-.31-.65-1.23-.4-1.43.19a27.26,27.26,0,0,1-4.13,7.76l1.43.6a17.8,17.8,0,0,0-3.87-14l-1.11,1.11c2.37,1.83,3.19,4.5,3.94,7.3l1.51-.42a79.41,79.41,0,0,1-2.47-9.1l-1.15.88c3.26,1.57,7.07,2.6,7.94,6.53.82,3.71.22,7.73-.22,11.44h1.56l-.14-2.73a.78.78,0,0,0-1.56,0l0,3.54,1.54-.21a30.1,30.1,0,0,0-1.54-5.89c-.28-.76-1.65-.73-1.54.21l1.13,9.25c.08.61.83,1.1,1.33.55,2.13-2.33,2.49-5.31,3.05-8.31.69-3.66.95-6.24-.41-9.78-2-5.24-6.1-10.18-12.38-9.8a.79.79,0,0,0-.55,1.33,3.32,3.32,0,0,0,2.68,1.14c.94,0,1-1.23.21-1.54a6.68,6.68,0,0,0-7,1.2.79.79,0,0,0,.34,1.31c2.48.44,3.56,2.7,5.2,4.32s3.45,2.88,4.48,5.22c1.2,2.73,2.31,5.77,1.79,8.79-.35,2-1.14,3.84-1.31,5.89-.08.92,1.27,1,1.54.21l1.32-3.89-1.51-.42q-.69,3.08-1.31,6.18a.79.79,0,0,0,1.43.6,13.54,13.54,0,0,0,2.17-9.7c-.11-.83-1.29-.65-1.51,0-1,3.05-1.83,8.32-4.42,10.37l1.33.55a16.54,16.54,0,0,1,.71-7.48c.27-.83-1.06-1.41-1.43-.6l-1.1,2.41c-.41.9.92,1.7,1.35.79l.77-1.63-1.46-.39a36.4,36.4,0,0,0-.22,5.86c0,.71,1.12,1.15,1.46.39,2.39-5.37,4.64-11,2.53-16.84a.79.79,0,0,0-1.54.21c-.15,5.07-2.92,9.6-2.72,14.72a.79.79,0,0,0,1.46.39c2.64-4.36,4.14-9.15,2-14-.32-.71-1.5-.35-1.46.39a24.62,24.62,0,0,1-2.92,13.43l1.43.19a10.09,10.09,0,0,1-.15-3.1h-1.56c-.06,2.43-1.69,4.24-.43,6.56a.79.79,0,0,0,1.35,0,20.71,20.71,0,0,0,2.05-3.59l-1.43-.6c-.16,1.12-.14,2.08-1.18,2-.86,0-2.38-1.26-3.16-1.67l.16,1.23.63-.21-.19-1.43-.85.36,1.07,1.07a14.64,14.64,0,0,1,1.79-2.21l-1.23-.95a9.44,9.44,0,0,0-1.29,3.07.79.79,0,0,0,1.43.6,6.2,6.2,0,0,0,.9-5.07.79.79,0,0,0-1.31-.34,8.52,8.52,0,0,1-5.8,3.36c-.69.1-.72,1.12-.19,1.43,2,1.12,4,2.13,6,3l.39-1.46A12.82,12.82,0,0,1,156,138l-.6,1.43a11.32,11.32,0,0,1,3.27,1.38c.86.53,1.63-.8.79-1.35l-4.41-2.88A.79.79,0,0,0,154,137.6c2.8,4.7,8.9-2.85,9.84-5.65.32-1-1.15-1.34-1.51-.42L161,135.22c-.27.71.83,1.37,1.31.76a18.79,18.79,0,0,0,4.17-11.82.79.79,0,0,0-1.54-.21,41.29,41.29,0,0,0-1.57,6.67c-.15,1,1.23,1.41,1.51.42l.79-2.86a.78.78,0,0,0-1.51-.42,31.84,31.84,0,0,0-1.07,4.14.79.79,0,0,0,1.43.6c2.1-3.67,1.91-7.67,1.49-11.75-.1-1-1.59-1-1.56,0a29,29,0,0,0,.92,6.61.79.79,0,0,0,1.54-.21,45.31,45.31,0,0,0-1.94-11.73l-1.51.42q2.13,5.35,3.82,10.85a.79.79,0,0,0,1.54-.21,25,25,0,0,0-2.9-12.79c-.47-.89-1.82-.1-1.35.79Z"/><path class="cls-7" d="M160,109.93c.54,1.26,1,2.5,1.41,3.81l1.31-.76-.34-.69-.55,1c.21-.06,1.75-.73,1.92-.77,1.41-.32.11-1.16,1.7,0,1.84,1.38,3.21,4.66,4,6.71a.8.8,0,0,0,1.15.47c.78-.36-.08,2.75-.12,2.84-.17.4-.35.79-.51,1.2a14.42,14.42,0,0,0-1.17,4.24c-.27,3.5,1.86,6.05-.82,9.25a8.13,8.13,0,0,1-4.72,3,11.82,11.82,0,0,1-2.44,0c-.11-.2.47-1.28.58-1.5,1.34-2.44,2.86-4.51,3.81-7.16.34-.95-1.17-1.36-1.51-.42a25.38,25.38,0,0,1-2,4.32c-.73,1.23-2,2.31-2.54,3.61-.37.95-.6,1.72.33,2.38,1.22.87,4.5.51,5.89,0,1.69-.67,3.29-2.53,4.31-3.95a6.78,6.78,0,0,0,1.49-4.63c-.15-1.64-.88-3-.8-4.73.1-2.12,1.13-3.91,1.87-5.85s.44-5.32-2.46-4l1.15.47a22.87,22.87,0,0,0-4.79-7.78c-2-2-2.38.06-4.8.72a.79.79,0,0,0-.55,1,2.63,2.63,0,0,0,.74,1.38c.51.6,1.54,0,1.31-.76-.45-1.43-1-2.81-1.57-4.18-.4-.92-1.74-.13-1.35.79Z"/><path class="cls-15" d="M139.05,129l.22,3.05,2.91-.79-1.27-2.38c-.81-1.53-3.55-.45-2.86,1.2l2.39,5.7,2.3-1.77a2.54,2.54,0,0,1-1.7-1.53l-2.14,2.14c1,.51,1.46,2.57,2.05,3.49a24.25,24.25,0,0,0,2.31,3,36.56,36.56,0,0,0,6.25,5.31c1.25.88,3-.89,2.14-2.14-2.52-3.48-5.47-6.89-7.59-10.64-1.93-3.42-1.44-7.51-3.26-11l-.93,2.3.33-.07-1.77-.72c.77,1,.24,3.18,0,4.3l1.92-1.09c1.18.21,5.28-15.33,6-17.19h-3c1,3.17-.46,5.24-1,8.24A47.22,47.22,0,0,0,142,126c0,1.92-.38,4.1.33,5.94a8.82,8.82,0,0,0,1.26,2,7.85,7.85,0,0,1,1.64,5.33l2.91-.79a58.94,58.94,0,0,1-4.06-8.64,10.82,10.82,0,0,1-.59-4.44,5.3,5.3,0,0,0-.26-2.39,1.57,1.57,0,0,0-3.07.42,17.65,17.65,0,0,0,2.8,11.26,114,114,0,0,1,6.58,12.37c.88,1.81,3.57.23,2.7-1.58-1.75-3.62-3.32-7.44-5.51-10.82-2.35-3.61-3.81-6.81-3.43-11.24l-3.07.42c.45,1.17-.16,2.69,0,3.92a16.91,16.91,0,0,0,1.25,3.95,66.1,66.1,0,0,0,4,8.35,1.58,1.58,0,0,0,2.91-.79,10.57,10.57,0,0,0-1.77-6.53c-1.78-2.69-1.5-4.77-1.43-7.91a29,29,0,0,1,1.17-8.65,10.54,10.54,0,0,0,.06-6.86,1.58,1.58,0,0,0-3,0c-1.72,4.37-2.93,9-4.32,13.44-.61,2-3.09,7,.49,7.6a1.6,1.6,0,0,0,1.92-1.09c.51-2,1.06-4.93-.27-6.71a1.65,1.65,0,0,0-1.77-.72l-.33.07a1.58,1.58,0,0,0-.93,2.3c1.8,3.46,1.29,7.54,3.26,11,2.12,3.74,5.07,7.16,7.59,10.64l2.14-2.14a29.32,29.32,0,0,1-6.72-6.17c-1.33-1.77-1.9-4.58-3.9-5.63a1.58,1.58,0,0,0-2.14,2.14,5.64,5.64,0,0,0,2.82,2.65c1.06.48,2.89-.36,2.3-1.77l-2.39-5.7-2.86,1.2,1.27,2.38a1.57,1.57,0,0,0,2.91-.79l-.22-3.05c-.14-2-3.27-2-3.13,0Z"/><path class="cls-14" d="M149.47,138.36l3,2.92c1.44,1.4,3.66-.81,2.21-2.21l-3-2.92c-1.44-1.4-3.66.81-2.21,2.21Z"/><path class="cls-14" d="M147.25,136.36c2.41,2.79,2.12,6.93,4.74,9.77a12.37,12.37,0,0,0,8.07,3.84c1.74.18,1.85-2.1.79-2.91-3.36-2.59-6.59-5.24-8.69-9L149.69,140c3.25,2.77,7.23,7.86,12,6.36a1.58,1.58,0,0,0,0-3l-5.22-1.64-.83,3a24.73,24.73,0,0,0,12,.06l-1.92-1.92c-.9,3.49-4.47.56-5.88,3-1,1.8,1.09,3.41,2.24,4.53l.69-2.61a3,3,0,0,1-2.85.16v3c2.23-.37,4.63.56,6.89.44a16.26,16.26,0,0,0,5.12-1.14c1.53-.59,1.48-3.16-.42-3.07a19.33,19.33,0,0,1-5.85-.58v3l4-1-2-1.51.41-.08-1.2,2.86a17.4,17.4,0,0,0,5,.65l-.42-3.07a7.4,7.4,0,0,1-4.05.52l.42,3.07c2.63-.61,5.28-1.11,8-1.46l-.79-2.91a14.4,14.4,0,0,1-5.35,1.91l1.2,2.86c1.65-.77,4.52-2.55,3.68-4.85s-4.46-1.67-6.22-1.72l1.11,2.67,2.83-3.08a1.58,1.58,0,0,0-1.52-2.61l-3.91,1,1.77,2.3c1.32-1.86,4.39-2.76,6.25-4a38.29,38.29,0,0,0,4.88-3.78l-2.21-2.21a33.08,33.08,0,0,1-6.53,5.16,1.56,1.56,0,0,0,1.58,2.7,51.42,51.42,0,0,0,6.46-4.44c1.42-1.14-.39-3.29-1.89-2.45l-3.63,2,2.14,2.14a37.37,37.37,0,0,0,4.82-9.68l-2.86.37c1.51,2.9.26,12.85-4.78,11.23l.69,2.61a4.44,4.44,0,0,1,2.33-1.84l-1.77-2.3a9.53,9.53,0,0,1-2.54,3.1c-1.49,1.22.41,3.1,1.89,2.45q1.86-.81,3.74-1.55l-1.92-1.92a4.89,4.89,0,0,1-.82,2.47c-.53.94.12,2.48,1.35,2.35a20,20,0,0,0,3.45-.64L177.39,145c-.17.5-1.71.9-2.15,1.39a2.47,2.47,0,0,0-.77,1.63c-.19,1.24,1,2.57,2.3,1.77a18.65,18.65,0,0,1,4.73-2.16l-1.2-2.86a17.47,17.47,0,0,1-3.88,1.88c-1.89.64-1.09,3.65.83,3,5.8-1.91,10-6.1,13.75-10.76L188.53,137c-2,3.85-6.5,7.9-11.18,7.28l1.35.77c-.16-.25,4.14-5.19,4.47-5.61l-2.45-1.89-1.7,3.78c-.57,1.28.71,3.11,2.14,2.14q2.43-1.65,4.75-3.44L184,137.58a71.24,71.24,0,0,1-6,5.84c-1.54,1.34.67,3.45,2.21,2.21,4.95-4,8.28-7.85,8.85-14.37.31-3.5.49-7,.6-10.56.1-3,.19-5.81-1.07-8.58l-2.7,1.58c3.87,6.73,7,15,2.43,22.16l2.7,1.58.69-1.52-2.86-.37,0,1.82a1.56,1.56,0,0,0,2.7,1.58c.9-1.46,1-3,1.63-4.6.54-1.36,1.66-2.35,1.79-3.86a2.73,2.73,0,0,0-3.65-3l1.77.72a35.91,35.91,0,0,0-4.5-7.08A1.58,1.58,0,0,0,186,122.2c.37,3.85,2.41,7.77.83,11.55l3,.83,1.44-7.76-3-.83c-.62,3.4-1,7.74-2.92,10.72-.59.93-.25,1.06-.59.09a15,15,0,0,1-.31-3l-.69-6.66-3.07.42a35.82,35.82,0,0,1,.3,6.21l2.67-1.11c-2.65-3-.48-6,1.74-8.39l-2.61-.69a52.5,52.5,0,0,1,.37,12.75c-.18,2,2.95,2,3.13,0,.21-2.32.34-4.65.4-7a1.57,1.57,0,0,0-3.07-.42,26.2,26.2,0,0,1-3.86,8.36l2.86,1.2c1.57-3.86,4.23-7.14,5.8-11,1.75-4.32,1.39-8.79.82-13.31a1.56,1.56,0,0,0-3.13,0q-.4,7.18-1.13,14.33h3.13c-.12-6.87-2.76-13.51-1.86-20.41l-2.35,1.35c5.69,4.12,5.93,12.32,8.56,18.31.77,1.75,3.11.39,2.86-1.2a6.35,6.35,0,0,0-.54-2.16c-.65-1.89-3.67-1.08-3,.83a13.14,13.14,0,0,1,.74,3.41l3.07-.42c-.7-4.46-1.09-9.14-2.31-13.5-1.11-4-3.52-7.18-6-10.38-1.15-1.48-3.19.4-2.45,1.89a18.83,18.83,0,0,1,1.88,4.2l.4-1.52c-1,1-2.07,1-2,2.69a1.56,1.56,0,0,0,3.13,0l.14-7.78-2.67,1.11c4.09,5,5.58,10.37,6.69,16.58a24.34,24.34,0,0,0,1,3.21c0,.05.52.82.5.83a13.47,13.47,0,0,1-2-.73,40.87,40.87,0,0,1-8.78-5,1.57,1.57,0,0,0-2.14.56c-1,1.83.08,2.64-.08,4.54l1.15-1.51c3-1-1.83-15.25-2.49-17.57l-2.86,1.2a119.55,119.55,0,0,1,6.76,13.5c.69,1.64,3.37.47,2.86-1.2a55.84,55.84,0,0,1-2.52-16.41l-3.07.42c.77,3,1.45,6,2,9,.23,1.23,1.61,8.58,1.58,8.6h1.58c-1.81-1-2.17-4.39-2.64-6.21-.55-2.11-1-4.23-1.44-6.37-.38-2-3.4-1.14-3,.83.33,1.71,3,18.16,7.63,14.1,1.82-1.6.32-5.82,0-7.8-.69-4.38-1.62-8.72-2.72-13a1.57,1.57,0,0,0-3.07.42,58.84,58.84,0,0,0,2.63,17.24l2.86-1.2a119.55,119.55,0,0,0-6.76-13.5,1.57,1.57,0,0,0-2.86,1.2c1.4,4.86,2.83,9.77,3.25,14.83.16,1.91,0,5.92,3.09,4.92a1.63,1.63,0,0,0,1.15-1.51c.07-.81-.69-2.32-.35-3l-2.14.56a37.07,37.07,0,0,0,11.5,6c2.41.67,4.66-.78,4-3.47a12.27,12.27,0,0,0-1-1.95,14.45,14.45,0,0,1-.92-4,32.3,32.3,0,0,0-1.46-6.22,33.48,33.48,0,0,0-5.82-10.16c-.9-1.1-2.65-.15-2.67,1.11l-.14,7.78h3.13c0,.88,1.44-.95,1.52-1.59.2-1.72-1.54-3.93-2.25-5.36L185,106.54c2.65,3.42,4.83,6.76,5.68,11.07.75,3.78,1.23,7.62,1.83,11.43.27,1.73,3.21,1.34,3.07-.42a17,17,0,0,0-.85-4.24l-3,.83a6.35,6.35,0,0,1,.54,2.16l2.86-1.2c-3-6.82-3.17-14.71-9.68-19.43-1.08-.78-2.22.32-2.35,1.35-.9,6.92,1.74,13.53,1.86,20.41,0,2,2.93,2,3.13,0q.73-7.16,1.13-14.33h-3.13c.62,4.88.91,9.38-1.38,13.9-1.65,3.25-3.74,6.2-5.12,9.59-.7,1.74,1.92,2.56,2.86,1.2a28.62,28.62,0,0,0,4.18-9.11l-3.07-.42c-.06,2.33-.19,4.65-.4,7h3.13a55.81,55.81,0,0,0-.49-13.59,1.57,1.57,0,0,0-2.61-.69c-3.51,3.79-5.62,8.41-1.74,12.81a1.58,1.58,0,0,0,2.67-1.11,40.46,40.46,0,0,0-.41-7c-.24-1.73-3.25-1.34-3.07.42.38,3.64.42,7.51,1.19,11.08.34,1.56,1.31,3.57,3.21,3.37s3-3.08,3.61-4.59a48.46,48.46,0,0,0,2.65-10.14c.36-2-2.65-2.81-3-.83l-1.44,7.76a1.56,1.56,0,0,0,3,.83c1.77-4.22-.3-8.13-.72-12.38l-2.67,1.11a32.46,32.46,0,0,1,4,6.45,1.58,1.58,0,0,0,1.77.72c-2.1.54-2.38,5.42-3.3,6.91l2.7,1.58a4.81,4.81,0,0,0,.29-4.23c-.42-1.1-2.25-1.73-2.86-.37l-.69,1.52a1.56,1.56,0,0,0,2.7,1.58c5.14-8.18,2-17.61-2.43-25.32-1-1.78-3.52-.22-2.7,1.58,1.13,2.48.71,5.52.6,8.18s-.28,5.53-.48,8.28c-.24,3.18-.76,5.94-2.84,8.49a34.58,34.58,0,0,1-5.17,4.76l2.21,2.21a71.24,71.24,0,0,0,6-5.84c1.12-1.24-.42-3.59-1.89-2.45s-3.13,2.34-4.75,3.44l2.14,2.14,1.7-3.78c.66-1.47-1.26-3.41-2.45-1.89L177.18,142a5.8,5.8,0,0,0-1.65,2.93c-.16,2.11,1.57,2.61,3.33,2.46,5.31-.46,10-4.19,12.37-8.82.76-1.48-1.28-3.35-2.45-1.89-3.38,4.2-7.11,8.23-12.37,10l.83,3a20.74,20.74,0,0,0,4.63-2.2c1.45-.93.55-3.38-1.2-2.86a21.73,21.73,0,0,0-5.47,2.48l2.3,1.77c.1-.67,1.53-1,2-1.44a3.21,3.21,0,0,0,.93-1.58,1.58,1.58,0,0,0-1.92-1.92,10.7,10.7,0,0,1-2.62.53l1.35,2.35a9,9,0,0,0,1.14-3.21c.16-1-.69-2.41-1.92-1.92q-2.26.89-4.49,1.86l1.89,2.45a11.6,11.6,0,0,0,3-3.73c.57-1.09-.4-2.83-1.77-2.3a8,8,0,0,0-3.71,2.64,1.59,1.59,0,0,0,.69,2.61c8.17,2.62,11.11-10.47,8.31-15.82a1.58,1.58,0,0,0-2.86.37,34.54,34.54,0,0,1-4.51,8.93c-.93,1.34.86,2.86,2.14,2.14l3.63-2-1.89-2.45a46.16,46.16,0,0,1-5.83,3.95l1.58,2.7a36.46,36.46,0,0,0,7.16-5.65c1.42-1.44-.72-3.55-2.21-2.21a33.48,33.48,0,0,1-7,4.87c-1.87,1-3.41,1.76-4.64,3.5-.83,1.17.54,2.6,1.77,2.3l3.91-1-1.52-2.61-2.83,3.08a1.58,1.58,0,0,0,1.11,2.67c1.09,0,3-.3,3.92.36l-.77-1.35a3.93,3.93,0,0,1-2.19,1.73c-1.73.81-.4,3.11,1.2,2.86a16.62,16.62,0,0,0,6.09-2.23c1.22-.73.83-3.13-.79-2.91-3,.39-5.88.9-8.79,1.57-1.87.43-1.19,2.86.42,3.07a9.18,9.18,0,0,0,4.89-.63c1.52-.62,1.49-3.1-.42-3.07a14.58,14.58,0,0,1-4.2-.54c-1.65-.46-2.86,2.11-1.2,2.86,2.25,1,4.32,0,4.29-2.62a1.58,1.58,0,0,0-2-1.51l-4,1a1.58,1.58,0,0,0,0,3,22.25,22.25,0,0,0,6.68.69l-.42-3.07a13.51,13.51,0,0,1-6.82.89,16.71,16.71,0,0,0-5.19-.19c-1.62.27-1.35,2.59,0,3a6.09,6.09,0,0,0,4.52-.16,1.58,1.58,0,0,0,.69-2.61,9.88,9.88,0,0,1-1.87-2.11v1.58c-.49.88,3,.05,3.61-.3a5.57,5.57,0,0,0,2.7-3.66,1.58,1.58,0,0,0-1.92-1.92,21.13,21.13,0,0,1-10.35-.06,1.56,1.56,0,0,0-.83,3l5.22,1.64v-3c-3,.93-6.91-3.82-9-5.56a1.57,1.57,0,0,0-2.45,1.89c2.37,4.24,6,7.19,9.81,10.12l.79-2.91a9,9,0,0,1-7.65-6.08c-.83-2.41-1.23-4.62-2.95-6.61-1.32-1.52-3.52.69-2.21,2.21Z"/><path class="cls-14" d="M161.14,97.62l8.8,6.77c3.17,2.44,6.19,4.45,7,8.6l2.86-1.2q-3.43-5.39-7.36-10.43c-2.11-2.69-4.4-6.56-8-7.22v3a13.64,13.64,0,0,0,6-2.27,1.56,1.56,0,0,0-1.58-2.7L165,94l1.58,2.7c2.56-1.41,5.34-3.5,8.26-4,3.93-.71,7.52,1.84,10.39,4.19a13.76,13.76,0,0,1,4.32,6.82,44.77,44.77,0,0,1,2.15,10.09l2.35-1.35c-2.53-1.08-4.19-3.15-6.32-4.81a16.62,16.62,0,0,0-6.41-2.9c-2.61-.65-5.74-1-7.83-2.86s-2.35-4.63-4.25-6.5L167,97.55c4.36,3.62,8.3,7.88,14,9.18,1.65.37,2.87-2,1.2-2.86l-9.52-4.66c-1-.5-3.39-2.26-4.48-2.19q-.83-.7-.49.24-.16.8.64.52a21.57,21.57,0,0,0,3.58.35c1.62.28,2.9-2,1.2-2.86A16,16,0,0,0,170,94l-.83,3c5.83,1.54,10.06,6.33,15.65,8.49l.83-3c-2-.68-4-1.35-5.94-2.07-.86-.31-5.29-1.5-5.5-2.09l-1.92,1.92,5.83,1.44a1.58,1.58,0,0,0,1.52-2.61,22,22,0,0,0-3.8-3.87,14.76,14.76,0,0,0-1.22-.9q-.8-.81-.47.68c.33.31,2.74.39,3.28.54,3.65,1,9.29,4.58,9.4,8.9l2.35-1.35q-6.59-4.6-13.5-8.7l-1.2,2.86a15.1,15.1,0,0,1,10,6.2c1.15,1.63,3.87.07,2.7-1.58a18.23,18.23,0,0,0-11.86-7.64,1.57,1.57,0,0,0-1.2,2.86q6.91,4.11,13.5,8.7a1.57,1.57,0,0,0,2.35-1.35c-.18-6.56-7.93-11.43-13.74-12.36-1.81-.29-5.59-.57-5.62,2.2,0,1.15.74,1.58,1.6,2.19a23.67,23.67,0,0,1,5.23,4.83L179,98.72l-5.83-1.44c-1.07-.26-2.36.75-1.92,1.92.72,1.94,2.66,2.34,4.48,3.06,3,1.19,6.08,2.24,9.14,3.28,1.93.66,2.67-2.3.83-3-5.61-2.18-9.73-6.93-15.65-8.49a1.56,1.56,0,0,0-.83,3,8.11,8.11,0,0,1,2.43.93l1.2-2.86c-1.82-.31-10.94-1.52-8.16,3.12,1.06,1.77,4.22,2.56,5.94,3.4l10.08,4.93,1.2-2.86c-5.17-1.17-8.72-5.1-12.65-8.37-1.52-1.26-3.67.77-2.21,2.21,1.89,1.86,2.25,4.66,4.25,6.5a14.58,14.58,0,0,0,6.28,3c3.08.8,6.11,1.25,8.64,3.34,2.07,1.71,3.75,3.66,6.26,4.74a1.58,1.58,0,0,0,2.35-1.35,30.82,30.82,0,0,0-1-5.84A42,42,0,0,0,192,101a17.61,17.61,0,0,0-6-7.55c-3-2.3-6.5-4.22-10.38-4.06S168.25,92.19,165,94c-1.78,1-.22,3.56,1.58,2.7l3.79-1.81-1.58-2.7a11.91,11.91,0,0,1-5.21,2c-1.52.21-1.46,2.75,0,3,3.13.57,6,5.48,7.77,7.89,2,2.7,3.93,5.48,5.74,8.33a1.57,1.57,0,0,0,2.86-1.2c-.76-3.81-3-6.24-6-8.56q-5.63-4.35-11.28-8.67c-1.59-1.23-3.15,1.49-1.58,2.7Z"/><path class="cls-14" d="M133.26,110.52a33.75,33.75,0,0,1-.81,5.6l1.31-.34a10.13,10.13,0,0,1-1.62-2.47.79.79,0,0,0-1.35,0,42,42,0,0,0-1.93,4.16l1.54.21a11.64,11.64,0,0,1,.24-3.23l-1.54-.21a60.86,60.86,0,0,0-.22,6.26l1.33-.55-.9-1.37-1.51.42c.82,2.56,2.31,7.55,4.85,8.86a.79.79,0,0,0,1.18-.67V127a.79.79,0,0,0-.78-.78H133a.79.79,0,0,0-.67,1.18l.54.94c.43.75,1.74.25,1.43-.6-.76-2.08-1.41-4.18-2-6.33l-1.51.42.37,1.38a.78.78,0,0,0,1.51-.42,57.1,57.1,0,0,1-1.5-8.5H129.6l.66,7.33,1.46-.39-.62-1.43c-.34-.78-1.41-.29-1.46.39a11.06,11.06,0,0,0,.14,2.67c.12.77,1.35.72,1.51,0l.54-2.46-1.15.47c1.25.68,1.36,3.36,1.52,4.51.13,1,1.55,1,1.56,0l.14-8.92c0-1-1.44-1-1.56,0l-.46,3.69h1.56a49.65,49.65,0,0,0-.53-5.45.79.79,0,0,0-1.51,0l-.78,4.73,1.51.42,1-7.77a.79.79,0,0,0-1.43-.6,12.22,12.22,0,0,1-1.76,2.33l1.31.34c-.36-1.55,2.34-4.44,3.24-5.45a23.71,23.71,0,0,1,4.31-3.72l-1.15-.88c-1,2.7-2.44,4.86-3,7.71-.62,3.1-1.06,6.26-1.58,9.38h1.51a27.39,27.39,0,0,1,0-11.41l-1.54-.21a31.44,31.44,0,0,0,.25,6.85c.13.93,1.46.6,1.54-.21l.77-8.24H134l-.13,2.77c0,1,1.46,1,1.56,0,.29-2.89,2.22-4.94,4.19-6.9l-1.31-.76a87.39,87.39,0,0,1-3.69,14.49c-.33,1,1.18,1.36,1.51.42a87.39,87.39,0,0,0,3.69-14.49.79.79,0,0,0-1.31-.76c-2.34,2.32-4.31,4.63-4.65,8h1.56l.13-2.77c0-1-1.47-1-1.56,0l-.77,8.24,1.54-.21a29.62,29.62,0,0,1-.2-6.43.78.78,0,0,0-1.54-.21,29.46,29.46,0,0,0,0,12.24.79.79,0,0,0,1.51,0c.52-3.12,1-6.28,1.58-9.38.56-2.8,2.08-5.06,3-7.71a.79.79,0,0,0-1.15-.88,25.18,25.18,0,0,0-5.94,5.56c-1.13,1.5-2.79,3.4-2.33,5.37a.79.79,0,0,0,1.31.34,20.92,20.92,0,0,0,2-2.65l-1.43-.6-1,7.77c-.13,1,1.34,1.42,1.51.42l.78-4.73H131.4a45.71,45.71,0,0,1,.48,5,.78.78,0,0,0,1.56,0l.46-3.69h-1.56l-.14,8.92h1.56c-.27-2-.31-4.79-2.29-5.86a.79.79,0,0,0-1.15.47l-.54,2.46h1.51a6.72,6.72,0,0,1-.08-2.26l-1.46.39.62,1.43c.31.7,1.52.35,1.46-.39l-.66-7.33c-.09-1-1.64-1-1.56,0a60,60,0,0,0,1.55,8.92l1.51-.42-.37-1.38a.78.78,0,0,0-1.51.42c.55,2.15,1.2,4.25,2,6.33l1.43-.6-.54-.94-.67,1.18h.1l-.78-.78v.14l1.18-.67c-2.11-1.09-3.49-5.92-4.13-7.92a.78.78,0,0,0-1.51.42,3.44,3.44,0,0,0,1.3,2.06.79.79,0,0,0,1.33-.55,60.86,60.86,0,0,1,.22-6.26c.08-.87-1.39-1.08-1.54-.21a18.91,18.91,0,0,0-.29,3.64.79.79,0,0,0,1.54.21,37.79,37.79,0,0,1,1.78-3.79H130.8a16.32,16.32,0,0,0,1.86,2.79.79.79,0,0,0,1.31-.34,36.16,36.16,0,0,0,.86-6c.06-1-1.5-1-1.56,0Z"/><path class="cls-14" d="M131.44,110.63a12.51,12.51,0,0,1-2.39,4.49,4.59,4.59,0,0,0-1.13,2.28c-.34,2.77,2.51,4.6,2.6,7.28,0,1,1.6,1,1.56,0-.1-2.93-3.47-5.43-1.93-8.46.93-1.83,2.23-3.07,2.79-5.18a.78.78,0,0,0-1.51-.42Z"/><path class="cls-16" d="M150.79,90.78a36.51,36.51,0,0,1,5.12-1.51l-.6-1.43-3.57,1.61c-.77.35-.3,1.41.39,1.46,2.55.17,4.64-.84,7.08-1.35,3.09-.65,6.35.38,9.39,1l-.47-1.15c-1.45,2-4.35-.46-6-.75a9.74,9.74,0,0,0-4.83.75c-.78.27-.72,1.63.21,1.54,2.84-.28,6-1,8.87-.44V89a47.66,47.66,0,0,1-8.1.51c-2.46-.06-4.92-.58-7.38-.52-2.2.06-4.31.77-6.52.79A29.77,29.77,0,0,1,135.83,88a.78.78,0,0,0-.42,1.51,39,39,0,0,0,7.2,1.66c2.9.29,5.44-.62,8.3-.7,2.65-.07,5.31.49,8,.53a50.5,50.5,0,0,0,7.92-.58c.77-.11.72-1.36,0-1.51-3-.63-6.26.09-9.28.39l.21,1.54c2.6-.88,4-.58,6.53.22a8.39,8.39,0,0,0,2,.59,3.4,3.4,0,0,0,3.21-1.53A.79.79,0,0,0,169,89c-2.58-.49-5.37-1.33-8-1.27-3.06.06-5.76,1.82-8.87,1.61l.39,1.46,3.57-1.61c.84-.38.22-1.61-.6-1.43a36.51,36.51,0,0,0-5.12,1.51c-.93.35-.53,1.86.42,1.51Z"/><path class="cls-16" d="M113.77,81.78q7.46,2.09,14.67,4.9L128,85.53c-1.16,1.9-1.67,4.7,1.2,5.13L129,89.23l-1,.31c-.85,0-1.11,1.38-.21,1.54q5.22.89,10.46,1.61a.79.79,0,0,0,.76-1.31c-1.2-1.54.62-1,1.69-.91a30.84,30.84,0,0,0,5.09.17.79.79,0,0,0,.21-1.54,4.81,4.81,0,0,0-2.71,0,.79.79,0,0,0-.34,1.31c1.26,1.55,4.23,0,5.79-.36l-.6-1.43-1.64.59c-.89.19-.64,1.5.21,1.54a16.32,16.32,0,0,0,5.15-.59c.71-.19.78-1.36,0-1.51-4.37-.83-8.84.28-13.3-.49a79.21,79.21,0,0,1-12.87-3.75.79.79,0,0,0-.76,1.31c1.7,1.53,4.57,1,5.95,2.73l.34-1.31-1.47-.37a.78.78,0,0,0-1.15.47,4.75,4.75,0,0,0,0,1.71l1.54-.21-.35-.87-1.15.88a39.74,39.74,0,0,0,6.72,3c.8.27,1.22-.76.76-1.31a4.89,4.89,0,0,0-5.32-1.65l.42,1.51,1.94-.19a.79.79,0,0,0,.6-1.43l-.82-.49-.6,1.43a10.62,10.62,0,0,1,3.08,1.57c.67.47,1.43-.43,1.07-1.07L135.19,88l-.67,1.18c7-.41,14,.87,20.93-.09,3.31-.45,5.94-1,9.16.15a14.58,14.58,0,0,0,8,.33c1-.19.57-1.69-.42-1.51a13.91,13.91,0,0,1-5.74.13c-1.39-.33-2.62-1.09-4-1.35-2.69-.5-5.45.54-8.1.83-6.57.71-13.19-.44-19.78-.05a.79.79,0,0,0-.67,1.18l1.23,2.2,1.07-1.07a12.67,12.67,0,0,0-3.45-1.73c-.85-.28-1.35,1-.6,1.43l.82.49.6-1.43a5,5,0,0,0-2.78.19.78.78,0,0,0,.42,1.51,3.19,3.19,0,0,1,3.8,1.25l.76-1.31a37.61,37.61,0,0,1-6.34-2.84c-.54-.3-1.42.22-1.15.88l.35.87c.3.73,1.64.75,1.54-.21V87.69l-1.15.47a3,3,0,0,0,2.67.53c.64-.12.67-.89.34-1.31-1.54-2-4.19-1.14-5.95-2.73L125.27,86a80.09,80.09,0,0,0,12.87,3.75,34.72,34.72,0,0,0,5.37.54c2.66,0,5.27-.56,7.93-.06V88.69a15.07,15.07,0,0,1-4.73.54l.21,1.54a4.52,4.52,0,0,0,2-.75.79.79,0,0,0-.6-1.43c-.59.14-3.83,1.3-4.27.76l-.34,1.31,1.88,0,.21-1.54a38.38,38.38,0,0,1-7.12-.52c-.66-.09-1.31-.36-1.9,0-1.72,1.21.41,3,1.13,3.88l.76-1.31q-5.25-.72-10.46-1.61L128,91.11a2.29,2.29,0,0,0,1.79-.53c.51-.32.52-1.32-.19-1.43q-1.45-1.56-.26-2.83a.79.79,0,0,0-.47-1.15q-7.22-2.81-14.67-4.9a.78.78,0,0,0-.42,1.51Z"/><path class="cls-8" d="M158.66,172.64c3.22,0,3.22-5,0-5s-3.22,5,0,5Z"/><path class="cls-7" d="M135.64,131c-2.28,4.44-.24,8.15,1.06,12.56s2.29,8.9,5.56,12.42c.65.7,1.55-.19,1.23-.95a87.27,87.27,0,0,1-5.42-16.78c-.36-1.74-.26-3.39-.46-5.08,0-.38.14-.72-.06-1.09-.68-1.29-1.16-.29-2.1-.87a.79.79,0,0,0-1.15.47c-.85,3.83.43,6.71,1.07,10.43a36.09,36.09,0,0,0,3.69,10.58.79.79,0,0,0,1.43-.19c.68-3.12-.69-6.84-1.25-9.91l-1.15.88c1.65.89,2.28,5,2.82,6.63l1.43-.6a22.31,22.31,0,0,1-2.76-12.17l-1.54.21,1,6.15,1.51-.42c-1-3.08-3.15-5.79-3.56-9.06l-1.46.39a17.11,17.11,0,0,1,1.86,3.25c.36.82,1.68.23,1.43-.6a44.71,44.71,0,0,1-1.41-6.43.77.77,0,0,0-.55-.55c-4.45-1.36-3.9,5.24-3.5,7.71,1,6,4.16,11.41,7.7,16.28.59.8,1.94,0,1.35-.79a43.64,43.64,0,0,1-6.58-12c-.65-2-1.49-4.67-1.21-6.77a2.35,2.35,0,0,1,1.44-2.42q.13.81.3,1.62c.26,1.26.59,2.49,1,3.72l1.43-.6a17.11,17.11,0,0,0-1.86-3.25c-.4-.55-1.56-.46-1.46.39.43,3.49,2.52,6.2,3.61,9.48a.78.78,0,0,0,1.51-.42l-1-6.15c-.14-.91-1.49-.63-1.54.21a23.88,23.88,0,0,0,3,13,.78.78,0,0,0,1.43-.6c-.78-2.33-1.17-6.28-3.54-7.57a.79.79,0,0,0-1.15.88c.49,2.63,1.83,6.45,1.25,9.08l1.43-.19a32.29,32.29,0,0,1-3.36-9.14c-.64-3.61-2.07-7-1.25-10.67l-1.15.47c-.07,0,1,.53.95.29a.53.53,0,0,1,.38.84,5.67,5.67,0,0,0,0,1.58,38.29,38.29,0,0,0,1.36,6.66,93.11,93.11,0,0,0,4.81,13.89l1.23-.95c-2.79-3-3.78-6.82-4.86-10.66-1.15-4.1-3.67-8.25-1.52-12.42.46-.89-.89-1.69-1.35-.79Z"/><path class="cls-17" d="M150.11,131.83c0,.52.68,3.32,1.67,2.73a.79.79,0,0,0-.28,1.07c2.12,2.88,5.4.17,7.16-1.71a44.47,44.47,0,0,0,4.15-4.72c.59-.85.73-1.63-.23-2.22a.79.79,0,0,0-1.15.47,11.47,11.47,0,0,1-2.74,5l1.31.76a11.72,11.72,0,0,1,2.15-4.41c.58-.75-.6-1.47-1.23-.95a41.1,41.1,0,0,0-4.83,4.81c-.5.58-1.45,2-2,1.93a6.19,6.19,0,0,1-2.22-2.45l-1,.75a8.71,8.71,0,0,0,7.6-1.83c.61-.5,0-1.54-.76-1.31l-6.21,2,.42,1.51c2.13-.73.91,1.67,1.89,2.56a1.76,1.76,0,0,0,1.66.31c2.28-.39,3.42-2.72,5.21-3.92.69-.46.28-1.75-.6-1.43q-2.75,1-5.56,1.83l.6,1.43a9.63,9.63,0,0,1,2-.71l-1-.75c.07.89-1.6,3.6.87,3.35,2.29-.23,4.56-4.43,5.38-6.19.42-.91-.93-1.7-1.35-.79a14.33,14.33,0,0,1-2.86,4.22c-1.26,1.26-.38.45-.47-.59a.79.79,0,0,0-1-.75,16.66,16.66,0,0,0-2.32.87c-.81.37-.23,1.67.6,1.43q2.81-.82,5.56-1.83l-.6-1.43c-1,.64-4.11,4.28-4.81,3.78-.18-.13-.3-1.22-.57-1.5a1.52,1.52,0,0,0-1.21-.49.79.79,0,0,0-.67.39c-1,1.57,1.65,2.94,2.62,1.63,1.53-2.06-2.29-3.41-3.73-2.91-.94.32-.55,1.82.42,1.51l6.21-2-.76-1.31a7,7,0,0,1-6.08,1.43.79.79,0,0,0-1,.75c.08,1.58,1.4,2.35,2.52,3.36.61.55,1,1.1,1.92.84s2-2.15,2.67-2.87a40.07,40.07,0,0,1,4.56-4.5l-1.23-.95a12.68,12.68,0,0,0-2.31,4.79.79.79,0,0,0,1.31.76,13.28,13.28,0,0,0,3.14-5.64l-1.15.47c-1.15-.72-6.49,9.85-8.94,6.52l-.28,1.07c2.13-1.26-.82-2.66-.89-4.08-.05-1-1.62-1-1.56,0Z"/><path class="cls-17" d="M139.1,139c1.45,3.18,1.51,6.63,2.25,10,.42,1.9,1.36,6.45,3,7.81,1.21,1,3.34,0,4.7-.32,4.13-1,8.17-2.4,12.48-1.56,1,.19,1.4-1.31.42-1.51a2.77,2.77,0,0,0-2.32.25l1.07,1.07c1.63-3-4.47-2.28-5.67-2.31a.79.79,0,0,0-.39,1.46,10.76,10.76,0,0,0,5.19,1.39l-.21-1.54a54.74,54.74,0,0,1-10.86,1.92l.39,1.46a34.38,34.38,0,0,0,5.35-3,.79.79,0,0,0,.2-.76c-.44-2.64-4.22-1.69-5.88-.84-1,.53-1.7,1.57-2.88.81-.56-.36-.92-2.69-1.18-3.44l-2.76-8a.78.78,0,0,0-1.51.42,29.35,29.35,0,0,0,6.16,13.09c.48.59,1.59,0,1.31-.76L143,142.37l-1.43.6c2.91,4.1,7.25,6.25,11.73,8.25a.78.78,0,0,0,.79-1.35,82.42,82.42,0,0,0-9.38-5.63c-.54-.28-1.43.2-1.15.88l2.36,5.78c.51,1.24.85,3.09,1.74,4.13s2.06.53,3.26,0c1.79-.85,2.95-1.44,2.59-3.63s-2.45-3.69-4.45-4.31c-3.76-1.17-4.09,4.48-1.43,5.9a1.52,1.52,0,0,0,2.39-.78c.73-1.56-.3-3.13-1.52-4a.79.79,0,0,0-1.15.47,3.14,3.14,0,0,0,1,3.73c.47.4,1.38.18,1.33-.55a12.68,12.68,0,0,0-.32-2.38l-1.31.76a6.9,6.9,0,0,1,1.75,2,.79.79,0,0,0,1.46-.39,7,7,0,0,0,0-1.79l-1.54.21.27,1.4c.17.87,1.56.66,1.54-.21q-.15.4.3-.1a.83.83,0,0,0,.36-.88l0-.27-1.15.88,1.27.84c.84.56,1.62-.8.79-1.35l-1.27-.84c-.63-.41-1.25.27-1.15.88-.13-.81-.68.37-.66.84l1.54-.21-.27-1.4a.78.78,0,0,0-1.54.21,7,7,0,0,1,0,1.79l1.46-.39a11.3,11.3,0,0,0-2-2.31.79.79,0,0,0-1.31.76l.26,2,1.33-.55-.58-2.2-1.15.47q-.66,1.56,1.55-.71a5,5,0,0,1,2.68,2.58,2,2,0,0,1-3.58,1.39c-.57-.61-1.1-2.69-1.42-3.47l-1.89-4.62-1.15.88a82.42,82.42,0,0,1,9.38,5.63l.79-1.35c-4.19-1.87-8.44-3.84-11.17-7.69-.47-.66-1.78-.28-1.43.6L146.42,155l1.31-.76a27.81,27.81,0,0,1-5.76-12.4l-1.51.42,2.76,8c.42,1.22.85,4.59,2,5.33.86.55,1.2.21,2-.26.31-.18,5-3.34,4.92-1.67,0,.36-3.43,1.82-3.86,2a.79.79,0,0,0,.39,1.46,56.82,56.82,0,0,0,11.27-2,.79.79,0,0,0-.21-1.54,8.33,8.33,0,0,1-4.4-1.17L155,154c.53,0,4,.48,4.32,0-.41.74.38,1.36,1.07,1.07l1.11-.1.42-1.51a19.05,19.05,0,0,0-7.38.08c-1.93.37-8.08,2.91-9.34,1.66-.9-.89-1.41-3.35-1.8-4.6a30.63,30.63,0,0,1-1-4.44,29.23,29.23,0,0,0-2-7.9c-.42-.91-1.76-.12-1.35.79Z"/><path class="cls-17" d="M152.58,152.88l2.89,1.06c.85.31,1.34-1,.6-1.43a3.62,3.62,0,0,1-1.87-2l-.88,1.15,4.12,1.28.21-1.54-.7-.32-.88,1.15,3.26,1.31c.81.33,1.41-1.08.6-1.43l-4.1-1.78-.6,1.43a44.92,44.92,0,0,0,8.42.79l-.55-1.33c-1.1,1-2.43.82-3.7.68-.89-.1-1,1.31-.21,1.54,2.39.66,4.1.34,6.45-.14,2.14-.44,4.2.6,6.16-.46a.79.79,0,0,0-.39-1.46,13.73,13.73,0,0,0-8.58,2.07.79.79,0,0,0,.6,1.43l8.48-2.29-.76-1.31a7.22,7.22,0,0,1-3.91,2l.42,1.51,8.54-2.76-.88-1.15-1.26.85a.78.78,0,0,0,.42,1.51c2.06-.59,4.08-1.26,6.08-2l-.6-1.43a3.7,3.7,0,0,0-1.58,1.23.79.79,0,0,0,.76,1.31l10.35-3.09a.79.79,0,0,0-.21-1.54c-3,.07-6.1,1.59-8.94,2.51l.6,1.43,8.13-5.38L188,145.17a8.54,8.54,0,0,1-1.5,2.34c-.63.76.37,1.82,1.11,1.11a54.67,54.67,0,0,0,6.26-7.27c.54-.75-.6-1.52-1.23-.95l-4.75,4.33c-.64.59.22,1.75.95,1.23,3.51-2.49,5.24-6.2,6.86-10.07l-1.43.19a19.65,19.65,0,0,0,2.13,3.48q.49.63,1,1.21c.92,1,1.56.84,0,2-2.66,2.08-5.93,3.65-8.8,5.41l1.15.47c-.25-1,2.53-3.89,3.14-4.82a32.55,32.55,0,0,0,2.55-4.8l-1.23.16c.31.3,3.46,3.59,2.41,2.05a3.69,3.69,0,0,0-1.16-1.22.79.79,0,0,0-1.15.47c-.53,1.45-.38,2.57-1.72,3.64a11.31,11.31,0,0,0-2.35,1.8c-.61.78.47,1.89,1.11,1.11,1-1.22,2.81-4,3.72-4.24-1,.24-.56,1.74.42,1.51l.29-.07a.8.8,0,0,0,.57-.75c0-1,0-2.17-1.3-2.33-1.91-.23-3.84,3.59-4.81,4.79l1.11,1.11c1-1.22,2.58-1.5,3.53-2.68s.47-2.18.94-3.45l-1.15.47c1.2.88,2,3.23,3.76,1.48a.79.79,0,0,0,.12-.95,22.64,22.64,0,0,0-3.23-3.83.79.79,0,0,0-1.23.16A34.77,34.77,0,0,1,189.4,146c-.84,1.06-1.5,1.76-1.13,3.15a.79.79,0,0,0,1.15.47l6.84-4.21c1-.62,3.22-1.44,3.75-2.56a1.5,1.5,0,0,0-.12-1.77c-.36-.65-1.21-1.16-1.71-1.74a18,18,0,0,1-2.58-4c-.33-.68-1.2-.37-1.43.19-1.44,3.45-3,6.91-6.14,9.13l.95,1.23,4.75-4.33-1.23-.95a52.32,52.32,0,0,1-6,7l1.11,1.11a13.73,13.73,0,0,0,1.74-2.66c.33-.65-.37-1.53-1.07-1.07l-8.13,5.38c-.71.47-.28,1.71.6,1.43,2.6-.84,5.77-2.38,8.52-2.45l-.21-1.54-10.35,3.09.76,1.31,1.27-1c.76-.41.24-1.75-.6-1.43-2,.76-4,1.44-6.08,2l.42,1.51a3.86,3.86,0,0,0,2.19-1.57c.42-.55-.27-1.34-.88-1.15l-8.54,2.76a.78.78,0,0,0,.42,1.51,8.58,8.58,0,0,0,4.6-2.39.79.79,0,0,0-.76-1.31L163,153.37l.6,1.43a12.19,12.19,0,0,1,7.79-1.86l-.39-1.46c-1.2.65-2.85-.2-4.14-.1-2.59.19-4.56,1.29-7.26.54l-.21,1.54c1.84.21,3.4.16,4.8-1.13a.79.79,0,0,0-.55-1.33,42.57,42.57,0,0,1-8-.74c-.8-.15-1.47,1.05-.6,1.43l4.1,1.78.6-1.43-3.26-1.31c-.64-.26-1.23.61-.88,1.15a2,2,0,0,0,2,1.1.79.79,0,0,0,.21-1.54l-4.12-1.28a.79.79,0,0,0-.88,1.15,6,6,0,0,0,2.43,2.56l.6-1.43L153,151.38c-.95-.35-1.35,1.16-.42,1.51Z"/><path class="cls-18" d="M138.11,113.6a9,9,0,0,0,2-.68l-1-.75a2.88,2.88,0,0,1-1.29,3.25l1.31.34.19-1.78c.28-.83-1.05-1.41-1.43-.6a6.71,6.71,0,0,1-1.28,2.07l1.31.76.37-1.42-1.54-.21c-.33,2.8-1.38,5.44-1.73,8.24-.33,2.59.52,4.36.84,6.85l1.54-.21c-.44-2.38,1.35-4.65,1.65-7a.79.79,0,0,0-1.18-.67,4.88,4.88,0,0,0-2,2.49l1.51.42a36.34,36.34,0,0,1,2.15-8.2l-1.54-.21a14.31,14.31,0,0,1-1.37,4.54l1.43.6a48,48,0,0,1,4.91-10.17.79.79,0,0,0-1.07-1.07L137.66,113l1.15.47c-.54-1.62,2-2.81,3.08-2.36.73.3,1.31-.81.76-1.31a2.91,2.91,0,0,0-4.57.49c-.46.62.45,1.51,1.07,1.07l2.74-.61c1,.21,1.4-1.3.42-1.51a4.42,4.42,0,0,0-3.94.77l1.07,1.07,2.11-.18.76-1.31c-2.46-1-5.9,1.61-5,4.28a.79.79,0,0,0,1.15.47l4.22-2.76-1.07-1.07a49.73,49.73,0,0,0-5.07,10.55c-.28.83,1.07,1.42,1.43.6a17.54,17.54,0,0,0,1.59-5.33c.1-.94-1.24-1-1.54-.21a36.34,36.34,0,0,0-2.15,8.2.78.78,0,0,0,1.51.42l1.3-1.56-1.18-.67c-.34,2.64-2.11,4.64-1.59,7.38.16.85,1.65.67,1.54-.21-.37-2.88-1.21-5.09-.59-8.09.48-2.35,1.2-4.61,1.48-7,.1-.89-1.32-1-1.54-.21l-.37,1.42c-.18.7.79,1.39,1.31.76a10.82,10.82,0,0,0,1.52-2.38l-1.43-.6a5,5,0,0,0-.19,2.61c.1.64.91.67,1.31.34a4.52,4.52,0,0,0,1.75-4.35c-.05-.44-.47-1-1-.75a9,9,0,0,1-2,.68.78.78,0,0,0,.42,1.51Z"/><path class="cls-8" d="M120,131.92a5.05,5.05,0,0,1,.15-3.54.78.78,0,0,0-1.35-.79c-.84,1.49-.62,3.13-.3,4.74.19,1,1.7.57,1.51-.42Z"/><path class="cls-8" d="M118,134.63c-.2,3.77.87,7.77-.17,11.45-.61,2.18-3.4,3.59-2.79,6l2.3-1.77-1.3-.72.32,2.45a12.71,12.71,0,0,0,4.26-8.17c.38-3.74-1-7.5.43-11.11l-3.07-.42c-.34,2.82-1.13,6-.71,8.8.34,2.31,3.54,9.12,0,10-1.61.38-1.35,2.52,0,3l4.24,1.56.42-3.07-1.68-.44-1.58,2.7a36.52,36.52,0,0,0,5,2c2,.55,4,.53,5.82,1.65,1.48.93,3.25-1.28,1.89-2.45-.74-.64-7.56-5.83-8.44-4.4l-1.35.77c1-.09,2.8,1.75,3.51,2.33,1.27,1,3.53-.3,2.45-1.89-2.56-3.78-7.22-8.95-6.64-13.79l-2.35,1.35a7.18,7.18,0,0,0,.4,2,25.75,25.75,0,0,0,1.93,2.79c1.11,1.87.78,4,2.34,5.68,1.36,1.48,3.57-.73,2.21-2.21-.87-1-.7-2.44-1.07-3.58a9,9,0,0,0-1.45-2.49c-1.11-1.57-1.16-3.76-2.79-4.84a1.58,1.58,0,0,0-2.35,1.35c-.66,5.59,4.13,11,7.07,15.37l2.45-1.89c-1.35-1.09-7.07-6.07-7.55-1.25a2.93,2.93,0,0,0,1.74,2.8c1.11.64,2.53.87,3.69,1.45a19.21,19.21,0,0,1,4,2.72l1.89-2.45a13,13,0,0,0-4.68-1.56,27.92,27.92,0,0,1-6.18-2.08,1.56,1.56,0,0,0-1.58,2.7,5.16,5.16,0,0,0,3.26.87,1.57,1.57,0,0,0,.42-3.07l-4.24-1.56v3c4.1-1,4-3.86,3.56-7.53-.29-2.31-1.34-4.58-1.4-6.89a51.38,51.38,0,0,1,.82-7.36c.23-1.9-2.47-1.9-3.07-.42-2.51,6.26,1.89,12.64-3.89,17.9a1.58,1.58,0,0,0,.32,2.45l1.3.72a1.58,1.58,0,0,0,2.3-1.77c.12.48,1.83-2,2-2.24a12,12,0,0,0,1.16-3.89c.5-3.47-.26-7-.07-10.47.1-2-3-2-3.13,0Z"/><path class="cls-19" d="M203.49,116.12l-1.36-1.52a.78.78,0,0,0-1.11,1.11l1.36,1.52a.78.78,0,1,0,1.11-1.11Z"/><path class="cls-19" d="M202.32,116.82c2.18,1.56,2.91,4.11,4.28,6.28a23.38,23.38,0,0,1,1.52,2.29c.65,1.37.46,3,.73,4.42.12.64.9.68,1.31.34.71-.58.75-.7.7-1.61l-1.54.21c.3,1.13-1.91,3.35-2.54,4.24l1.35.79c1.6-3,1.32-4.27-.57-6.82l-1.23.95.92,2.28h1.35c-.32-.53,0-1.55,0-2.06a9.2,9.2,0,0,0-1-3.24c-.93-2.08-1.71-4.39-3.31-6-.6-.62-1.76.21-1.23.95,1.24,1.71,2.57,3.38,3.74,5.14.93,1.4,1.06,3,1.89,4.37a.79.79,0,0,0,1.46-.39c.18-2-1.23-3-2.16-4.6-1.14-2-1.65-4.2-3-6.11l-1.23.95a39.36,39.36,0,0,1,6.92,9.59c.46.89,1.81.1,1.35-.79a40.73,40.73,0,0,0-7.17-9.91c-.61-.62-1.74.2-1.23.95a29.22,29.22,0,0,1,2.32,4.8c.56,1.26,2.7,3.89,2.59,5.13l1.46-.39c-.83-1.39-.92-3-1.89-4.37-1.19-1.75-2.49-3.43-3.74-5.14l-1.23.95c1.46,1.51,2.25,3.81,3.07,5.73s0,3.7,1,5.3a.79.79,0,0,0,1.35,0c.94-1.67.1-2.95-1.17-4.18-.61-.59-1.77.21-1.23.95a4.54,4.54,0,0,1,.57,5.25.78.78,0,0,0,1.35.79c1.15-1.6,3.26-3.35,2.7-5.44a.79.79,0,0,0-1.54.21l-.24.51,1.31.34c-.26-1.39,0-2.66-.51-4a27.59,27.59,0,0,0-2.36-3.88c-1.32-2.29-2.18-4.48-4.38-6.06-.82-.59-1.6.77-.79,1.35Z"/><path class="cls-8" d="M186,170.75a30.69,30.69,0,0,0,5.31-4.37c.7-.72-.4-1.83-1.11-1.11a28.85,28.85,0,0,1-5,4.13c-.84.55-.06,1.9.79,1.35Z"/><path class="cls-8" d="M185.55,166.88c-5.14,4.5-12,6-18.39,7.91l-21.44,6.28a1.56,1.56,0,0,0,.83,3c3.11-.81,6.2-1.69,9.27-2.65,2.24-.7,5.44-1.21,7.4-2.53,3.66-2.48-2.49-5.4-4.16-6.52v2.7l4.56-2.13-1.89-2.45c-2.26,2.68-.07,5.56,3.09,5.66,2.57.08,5.31-1.18,7.74-1.9l9.27-2.74-1.52-2.61c-2.13,1.94-6.72,2.17-9.44,2.46a31.06,31.06,0,0,0-3.32.25,1.29,1.29,0,0,0-1.71.93q1.13-.1,2.27-.12c2.58,0,5.14.52,7.71.44s4.8-1.68,7.37-1.89c2-.16,2-3.29,0-3.13s-3.71,1.17-5.68,1.67c-2.65.66-5.59-.17-8.27-.22-1.9,0-7.61-.51-6.91,2.92s6.18,2.53,8.53,2.28c3.79-.41,8.71-.7,11.65-3.38a1.57,1.57,0,0,0-1.52-2.61l-8.11,2.4-3.47,1-2.32.68a4.49,4.49,0,0,1-3.16.1,1.57,1.57,0,0,0-1.89-2.45l-4.56,2.13a1.58,1.58,0,0,0,0,2.7,20,20,0,0,0,2,1.37c1.08.54.57.75,1.19.08-.78.86-4.09,1.38-5.14,1.71-3.25,1-6.54,2-9.84,2.83l.83,3,23.82-7c6.22-1.82,12.42-3.67,17.39-8,1.52-1.33-.7-3.53-2.21-2.21Z"/><path class="cls-8" d="M154.62,115.07a5.27,5.27,0,0,1,1.47,1.83l2.7-1.58-.31-1-2.86.37a4.77,4.77,0,0,1,1,3.12,1.58,1.58,0,0,0,2.91.79,3.28,3.28,0,0,0,.59-1.78l-3.07.42a22,22,0,0,1,1,3.48c.4,2,3.37,1.13,3-.83a6.16,6.16,0,0,1,.06-3.1h-3l1.79,7.47a1.58,1.58,0,0,0,2.61.69l.55-.53-2.45-.32.19.44V123c-.51.9-2.31,1.41-3.21,1.86l-3.93,2c-1.42.72-.7,2.9.79,2.91a8.06,8.06,0,0,0,5.5-2,1.57,1.57,0,0,0-.32-2.45,5,5,0,0,0-3.68-.49,32.59,32.59,0,0,0-5.69,1.89c-2.29,1.06-4.45,3.71-3.22,6.2.74,1.51,2.8.62,2.91-.79a30.66,30.66,0,0,0-.15-6.44,1.58,1.58,0,0,0-2.91-.79,21.12,21.12,0,0,0-2.09,4c-.41,1,.61,1.9,1.51,2a18.14,18.14,0,0,0,9.29-1.66c1.48-.67.65-2.89-.79-2.91a6.61,6.61,0,0,1-6.11-3.74l-2.14,2.14a13.71,13.71,0,0,0,13.94-.43,1.59,1.59,0,0,0,.56-2.14c-1.47-2.33-2.84-4.77-4.42-7a4.69,4.69,0,0,0-3.38-2.4c-3.19-.43-6.1,2.06-7.44,4.74-.92,1.84-2,6.31.55,7.47,3.68,1.68,3.84-5.29,5.21-6.74l-2.61-.69c.54,2-.9,4.17-.53,6.31.23,1.35,2.24,1.48,2.86.37a46.18,46.18,0,0,0,3.09-7.16l-3.07-.42c0,2.11-.8,5.45,1,7a1.65,1.65,0,0,0,1.89.24,11.48,11.48,0,0,0,3.76-3.59l-2.61-1.52-.42,2.06,2.86-.37a5.21,5.21,0,0,1-.88-1.8,1.57,1.57,0,0,0-3.07.42,12.69,12.69,0,0,0,.46,3.51c.45,1.65,3.22,1.39,3.07-.42l-.32-3.8-3.07.42.61,1.93c.6,1.91,3.62,1.1,3-.83l-.61-1.93c-.5-1.6-3.23-1.42-3.07.42l.32,3.8,3.07-.42a6.26,6.26,0,0,1-.35-2.68l-3.07.42a10.86,10.86,0,0,0,1.19,2.55,1.58,1.58,0,0,0,2.86-.37l.42-2.06c.28-1.36-1.56-2.87-2.61-1.52a9.91,9.91,0,0,1-3.13,3.1l1.89.24c-.6-.48-.13-4-.13-4.74a1.57,1.57,0,0,0-3.07-.42,41.34,41.34,0,0,1-2.78,6.42l2.86.37c-.38-2.18,1.15-4,.53-6.31a1.58,1.58,0,0,0-2.61-.69,7,7,0,0,0-1.58,2.46c-.2.51-.6,3.48-1,3.63l1.52.4c-.9-.73.06-3.1.44-3.81.91-1.73,1.85-2.46,3.76-2.18s2.32,1.54,3.38,3.22l2.53,4,.56-2.14a10.53,10.53,0,0,1-10.78.43A1.58,1.58,0,0,0,146,124.2a9.77,9.77,0,0,0,8.81,5.29l-.79-2.91a15,15,0,0,1-7.71,1.23l1.51,2a16.94,16.94,0,0,1,1.78-3.28l-2.91-.79a30.66,30.66,0,0,1,.15,6.44l2.91-.79c-.65-1.31,7.41-3.79,8.31-3.33l-.32-2.45a4.12,4.12,0,0,1-3.29,1.08l.79,2.91c2.28-1.16,5.51-2.16,7.4-3.89a2.34,2.34,0,0,0,.66-3.1,1.58,1.58,0,0,0-2.45-.32l-.55.53,2.61.69L161.1,116a1.58,1.58,0,0,0-3,0,11.83,11.83,0,0,0-.06,4.76l3-.83a22,22,0,0,0-1-3.48,1.57,1.57,0,0,0-3.07.42l-.17.2,2.91.79a7.57,7.57,0,0,0-1.39-4.7c-.71-1-2.55-1-2.86.37a3.67,3.67,0,0,0,.62,3.36c1.16,1.59,3.75.2,2.7-1.58a10.78,10.78,0,0,0-2-2.46c-1.46-1.38-3.68.83-2.21,2.21Z"/><path class="cls-20" d="M156.07,112.59c1.85-.51,4.34,4.6,5,6a15.9,15.9,0,0,1,1.65,7.82c-.34,5.34-4.25,9.94-9.86,9.58a.79.79,0,0,0-.67,1.18A10.59,10.59,0,0,0,166,141.63c5.74-2.81,8-10.75,8.65-16.58.64-6.17-1.33-13.15-7-16.44-4.27-2.47-11.56-2.56-13.49,2.91-.33,1,1.17,1.36,1.51.42,1.14-3.25,5.3-3.87,8.24-3.16a11.38,11.38,0,0,1,6.54,4.48c2.86,4,3.22,9.18,2.32,13.88-.78,4.06-2.26,8.86-5.42,11.72-4.41,4-11,2.37-13.84-2.53l-.67,1.18c6.65.43,11.31-5.31,11.45-11.62a18.89,18.89,0,0,0-2.89-10c-1.15-1.94-3-5.57-5.75-4.82a.78.78,0,0,0,.42,1.51Z"/><path class="cls-20" d="M153.88,136.09c-.86-.71-4-3.12-2.82-4.37.28-.29,3.91-.49,4.47-.65a17.13,17.13,0,0,0,7.36-4.52c.71-.72-.4-1.82-1.11-1.11a15.52,15.52,0,0,1-6.67,4.12,15.84,15.84,0,0,1-3.66.59,3.33,3.33,0,0,0-1.83.34c-2.55,1.83,1.89,5.67,3.15,6.71.77.64,1.88-.46,1.11-1.11Z"/><path class="cls-20" d="M154.71,137.88l-6.78-5.39c-.78-.62-1.89.48-1.11,1.11l6.78,5.39c.78.62,1.89-.48,1.11-1.11Z"/><path class="cls-20" d="M146.28,104.45c-4.74,8.36-10.93,18.66-8.92,28.72,1.79,9,11.08,14,18.34,18.14a.78.78,0,0,0,.79-1.35c-7-4-16.23-8.85-17.67-17.63-1.58-9.56,4.3-19.15,8.81-27.1a.78.78,0,0,0-1.35-.79Z"/><path class="cls-20" d="M146,104.46c-1.39,13.81-4.09,33.89,7.46,44.48.74.68,1.85-.42,1.11-1.11-5.42-5-7.29-13-7.89-20-.66-7.78.11-15.6.89-23.34.1-1-1.46-1-1.56,0Z"/><path class="cls-20" d="M153.08,138.58c3.15,4.48,9.23,5.41,14.16,3.6,5.74-2.1,10.21-7.5,12.28-13.12a17.92,17.92,0,0,0-2.85-17.69C171.81,105,165.13,99.74,159,94.72l-.55,1.33c7.59-.93,13.25-8.15,21.44-6,5.93,1.56,9.37,7.44,11.4,12.8A66.47,66.47,0,0,1,195,121.25c.79,10.24-2.54,19.36-11.34,25.13-9.21,6-21.51,6-31.07.81-.88-.48-1.67.87-.79,1.35,16.44,9,41.18,1.89,44.52-18.32,1.31-7.91-.19-17.05-2.5-24.73-1.74-5.76-4.55-12.05-9.85-15.36a14,14,0,0,0-9.42-1.87c-5.9.82-10.29,5.51-16.1,6.22-.58.07-1.14.85-.55,1.33,4.64,3.78,9.16,7.73,13.41,11.94s8.19,9,7.92,15.31a21.3,21.3,0,0,1-7.74,14.85c-4.66,3.87-13,5.64-17-.13-.57-.82-1.93,0-1.35.79Z"/><path class="cls-20" d="M168.35,90.27c-6.69,2.51-14.36,3.41-21.43,4.24-7.26.86-14.55.92-21.67-.92l-.42,1.51c11.86,2.8,23.91,5.45,36.12,3.47,1-.16.57-1.67-.42-1.51-11.91,1.93-23.73-.74-35.29-3.47a.78.78,0,0,0-.42,1.51c7.25,1.88,14.69,1.85,22.09,1,7.22-.85,15-1.74,21.84-4.3.93-.35.53-1.86-.42-1.51Z"/><path class="cls-20" d="M142,101c-3.15-.43-6.39,3.39-8.44,5.39-2.62,2.57-5,5.59-6.09,9.15-2,6.75,2.22,12.8,8.31,15.43.91.39,1.71-1,.79-1.35-5.27-2.28-9.25-7.28-7.72-13.25a18.34,18.34,0,0,1,4.44-7.45c1.47-1.62,5.93-6.74,8.29-6.41,1,.13,1.41-1.37.42-1.51Z"/><path class="cls-20" d="M140.37,101.92c-3.22,4.19-4.15,9.3-5.23,14.36-.89,4.16-2.82,9.11-.61,13.13.49.88,1.84.09,1.35-.79-2.15-3.9.34-9.95,1.22-14,.92-4.25,1.93-8.37,4.63-11.88.61-.8-.75-1.58-1.35-.79Z"/><path class="cls-20" d="M121.4,114.52c1.46,16.4,9.83,34.17,23.26,44.1.81.6,1.59-.76.79-1.35-12.95-9.58-21.08-26.95-22.49-42.75-.09-1-1.65-1-1.56,0Z"/><path class="cls-20" d="M121.33,113.43a39,39,0,0,0-.52,24.53c2,7,5.14,15,11,19.62.78.61,1.9-.49,1.11-1.11-5.68-4.42-8.7-12.21-10.63-18.93a37.53,37.53,0,0,1,.52-23.7c.35-.95-1.16-1.35-1.51-.42Z"/><path class="cls-20" d="M112.64,152c5.39,6.18,13.53,6.83,21.31,7,9.08.18,18.07-1.36,27-2.78,8.06-1.28,16.21-1.85,24-4.41a52.11,52.11,0,0,0,19.22-11.22c.74-.68-.37-1.79-1.11-1.11a50.55,50.55,0,0,1-19.47,11.12c-6.77,2.1-13.76,2.66-20.72,3.74-8.41,1.31-16.81,2.85-25.34,3.08-8.25.23-18,.13-23.81-6.51-.66-.76-1.76.35-1.11,1.11Z"/><path class="cls-20" d="M117,156.08c16,7.15,32.73,13.88,50.5,14.35,15.26.41,30.85-3.35,38.73-17.58.49-.88-.86-1.67-1.35-.79-8,14.44-24.29,17.57-39.6,16.72-16.68-.93-32.41-7.31-47.49-14-.91-.41-1.71.94-.79,1.35Z"/><path class="cls-20" d="M193.1,106.37c4.38,2.45,6.48,6.42,8.61,10.77,2.71,5.55,5.25,11.4,4,17.69-.19,1,1.31,1.4,1.51.42,1.23-6.31-1-12.17-3.65-17.81-2.37-5-4.73-9.64-9.69-12.41-.88-.49-1.67.86-.79,1.35Z"/><path class="cls-20" d="M194.55,135.59l5.63,6.7c.65.77,1.75-.34,1.11-1.11l-5.63-6.7c-.65-.77-1.75.34-1.11,1.11Z"/><path class="cls-20" d="M101.66,74.59a18.3,18.3,0,0,1-5.16-3.8.78.78,0,0,0-.95-.12c-3.31,2.55-6.13,5.74-7.34,9.82-.83,2.8-.84,5-3.29,7-1.07.87-2.52,1.77-3,3.14a3.15,3.15,0,0,0,.52,3c1.26,1.87,3.18,2.29,1.41,4.77-.77,1.07-1.67,1.29-1.7,2.82s1,2.82,1.85,4a20.58,20.58,0,0,1,3.83,7.54c.6,2.55.75,5.18,1.15,7.76a36.57,36.57,0,0,0,4,11.7c4.43,8.21,11.52,14.64,19.39,19.49.86.53,1.64-.82.79-1.35-8.14-5-15.44-11.79-19.64-20.51-2.08-4.32-2.87-8.71-3.5-13.43-.52-4-1.37-7.45-3.7-10.75-.64-.91-1.85-1.86-2.14-3-.83-3.2.35-2.58,1.61-3.77a2.51,2.51,0,0,0,1-2.16,4.78,4.78,0,0,0-1.68-2.55c-1-1.06-2.24-2.29-1.23-3.82A9.8,9.8,0,0,1,86,88.57a8,8,0,0,0,2.74-3.23c.89-2.25.76-4.59,1.91-6.83.78-1.52,3.34-6,5.32-6,.28,0,1.37,1.21,1.54,1.34a20.68,20.68,0,0,0,3.33,2.05c.89.46,1.69-.89.79-1.35Z"/><path class="cls-20" d="M97.82,74.23C105,80.37,113.8,83,122.57,86c.41.14,3.07.67,3.28,1.12.74,1.63-.63,1.27-.61,2.22a2.8,2.8,0,0,0,1.1,2.35c1.26,1.07,3,1,4.58,1.25l8.55,1.12c.45.06.74-.41.78-.78a4.43,4.43,0,0,0-1.49-3.92l-.95,1.23c8.8,3.78,17.85-.72,26.8,1.74a.78.78,0,0,0,.42-1.51c-8.78-2.42-17.87,2.09-26.42-1.59-.75-.32-1.66.57-.95,1.23a2.77,2.77,0,0,1,1,2.81l.78-.78c-3.24-.43-6.56-.68-9.77-1.28-3.84-.72-1.91-2-1.76-4.47a.8.8,0,0,0-.57-.75c-9.83-3.36-20.39-6-28.44-12.91-.76-.65-1.87.45-1.11,1.11Z"/><path class="cls-20" d="M86.72,132.74a9,9,0,0,0-4.44,7.19c-.27,2.41.27,4.93-.29,7.3-.6,2.53-2.5,4-3.88,6-2.93,4.34,3,6.62,1.34,11.12-1,2.73-2.7,4.27-.09,6.63.9.82,2,1.38,3,2.11,1.88,1.41.85,3.13,1.88,4.77.6,1,1.93,1.09,2.92,1.2,2.8.32,5.66.35,8.47.52,11.36.69,23,2.17,34.41.92s22.06-5.28,32.37-10c.91-.42.12-1.76-.79-1.35-11.1,5.07-22.76,9.34-35,10.06a160.54,160.54,0,0,1-19.15-.5c-6.2-.38-12.43-.63-18.62-1.13-2.3-.19-2.54.25-3.15-2.25a6.71,6.71,0,0,0-.3-1.35,6.29,6.29,0,0,0-2.21-2.27c-.69-.5-1.44-.91-2.11-1.43-1.86-1.44-1.25-2.32-.51-4.39.61-1.74,1.19-3.17.69-5.05-.71-2.67-3.54-4.54-1.32-7.36,1.27-1.61,2.7-2.89,3.37-4.89,1.69-5-1.35-11.23,4.27-14.53a.78.78,0,0,0-.79-1.35Z"/><path class="cls-20" d="M96.82,180q16.39,3.77,32.79,7.54a109.51,109.51,0,0,1,14.72,4.18c4.35,1.68,8.24,4.27,13.08,3.76a154,154,0,0,0,29.54-6.58c8.4-2.66,16.54-6.34,23.5-11.82,7.2-5.67,13-13.13,15.27-22.11a.78.78,0,0,0-1.51-.42c-6,23.42-32.07,32.34-53.08,36.76-3,.63-6,1.2-9,1.77-3.55.67-6.89,1.41-10.41.15-5.65-2-10.89-4.51-16.77-6-12.51-3.18-25.18-5.84-37.77-8.73-1-.23-1.4,1.28-.42,1.51Z"/><path class="cls-20" d="M204.3,141.78a54.81,54.81,0,0,1,7.8-11.43l-1.31-.76c-1.25,3.73,1.81,6.58,1.76,10.21,0,2.84-2.57,5.74-4.26,7.85-1.53,1.91-3.12,3.76-4.5,5.79-.57.83.79,1.62,1.35.79,2.72-4,7.42-7.85,8.73-12.66,1.11-4.1-2.88-7.67-1.57-11.58a.79.79,0,0,0-1.31-.76,56.39,56.39,0,0,0-8,11.75c-.46.89.89,1.68,1.35.79Z"/><path class="cls-20" d="M222.85,128.88c1.32,4.36,2.69,9,1.25,13.51-.47,1.47-1.31,2.82-1.7,4.32s.26,6.46-1.26,7c-.95.32-.54,1.83.42,1.51a3.3,3.3,0,0,0,2.4-3c.15-1.18-.31-2.35-.28-3.52,0-1.79.94-3.32,1.57-5,1.95-5.12.64-10.25-.89-15.3a.78.78,0,0,0-1.51.42Z"/><path class="cls-20" d="M225.62,154.86a12.2,12.2,0,0,0-1.15-4.69c-.42-.91-1.77-.12-1.35.79a10.19,10.19,0,0,1,.94,3.91c0,1,1.61,1,1.56,0Z"/><path class="cls-20" d="M212.48,142.48l1.21,6.18c.3,1.55.45,3.29,1.35,4.64,1.29,1.94,3.64,2.14,5.78,2,1,0,1-1.61,0-1.56a7.9,7.9,0,0,1-2.74-.17c-1.87-.62-2.26-2.28-2.61-4-.5-2.5-1-5-1.47-7.51-.19-1-1.7-.57-1.51.42Z"/><path class="cls-20" d="M111.57,79.9a46.37,46.37,0,0,1,22.23-9c2-.22,3.69.43,5.68.65a44.53,44.53,0,0,0,5.29,0A108.93,108.93,0,0,0,158,70.83c4-.52,7.92-2,11.91-2.14,4.48-.13,8.61,2.31,12.56,4.14q11.84,5.48,23.39,11.53c.89.47,1.68-.88.79-1.35q-12.35-6.45-25-12.28c-3.19-1.46-6.51-3.27-10.07-3.58-4.24-.37-8.45,1.34-12.6,2a102.23,102.23,0,0,1-14.87.88,30.22,30.22,0,0,1-6.29-.43,12.91,12.91,0,0,0-4.34-.25,47.89,47.89,0,0,0-22.75,9.23c-.8.59,0,1.95.79,1.35Z"/><path class="cls-20" d="M205.8,83.67a10,10,0,0,0,3.29,4.72c1.28,1,4.11,1.35,4.21,3.15.07,1.24-.88,1.74-.33,3.11.42,1,1.52,1.65,2.05,2.6a4.43,4.43,0,0,1-1,5.45.8.8,0,0,0,0,1.11c1.74,1.89,4.45,6.23,7.52,4.52l-1.18-.67c0,4-2.53,7.64-4.32,11.06l-5.08,9.67c-.47.89.88,1.68,1.35.79l6.21-11.82c1.64-3.12,3.44-6.08,3.41-9.7a.79.79,0,0,0-1.18-.67c-1,.54-3.16-1.6-3.72-2.21l-1.91-2.07v1.11a6.08,6.08,0,0,0,2-4.72c-.1-2.53-2.78-4.23-2.46-6.76.15-1.14,1-2,0-3.06-.62-.63-1.61-.63-2.38-.91a8.24,8.24,0,0,1-4.93-5.11c-.34-.94-1.85-.53-1.51.42Z"/><path class="cls-20" d="M224.18,128.41c-2.5-1.52-2.32-4.37-2.89-6.88a28.81,28.81,0,0,0-2.21-5.11c-.4-.92-1.75-.12-1.35.79a37,37,0,0,1,1.85,3.93c.4,1.33.44,2.74.76,4.09a6.78,6.78,0,0,0,3.05,4.53.78.78,0,0,0,.79-1.35Z"/><path class="cls-20" d="M88,134.22a16.9,16.9,0,0,0,2.8-7.28c.13-1-1.37-1.41-1.51-.42a15.87,15.87,0,0,1-2.65,6.91c-.57.83.79,1.62,1.35.79Z"/><path class="cls-20" d="M108.94,78.67c1-3,2.09-7.14,5.18-8.39a6.56,6.56,0,0,0,3.1-1.82c2-2.23,2.63-4.39,6.38-3.36,3.08.85,6.09,3,8.82,4.62a.78.78,0,0,0,.79-1.35c-4.22-2.51-11.35-8.21-15.54-3.09-.85,1-1.53,2.58-2.79,3.19-1,.5-2.1.15-3.07.85-2.34,1.69-3.5,6.32-4.38,8.94-.32,1,1.19,1.37,1.51.42Z"/><path class="cls-20" d="M128.38,65.87c2.6-1.53,5.24-3.49,8-4.68,3.68-1.59,7.32,1,10.59,2.55,4.91,2.34,9.83,4.52,15.23,5.43,1,.17,1.41-1.34.42-1.51-7.16-1.21-13.25-4.82-19.85-7.61-2.06-.87-4.12-1.45-6.29-.63-3.09,1.17-6,3.44-8.89,5.1a.78.78,0,0,0,.79,1.35Z"/><path class="cls-17" d="M194.63,137.75c.64,1.11,1.8,2.47,1.7,3.76s-2,2.53-3.08,3.33c-.8.59,0,2,.79,1.35,1.39-1,3.46-2.26,4-4s-1.19-3.74-2-5.2a.78.78,0,0,0-1.35.79Z"/><path class="cls-17" d="M146.19,148.59c1.8,1.28,4.13,1.82,5.53,3.61l.34-1.31a.76.76,0,0,1-.84,0c-.94-.36-1.35,1.15-.42,1.51a2.23,2.23,0,0,0,1.67,0,.8.8,0,0,0,.34-1.31c-1.49-1.91-3.94-2.49-5.85-3.86-.82-.58-1.6.77-.79,1.35Z"/><path class="cls-14" d="M190,106.74a1.25,1.25,0,0,0,0-2.5,1.25,1.25,0,0,0,0,2.5Z"/><path class="cls-14" d="M184.84,106l-.3-.2a.78.78,0,1,0-.79,1.35l.3.2a.78.78,0,1,0,.79-1.35Z"/><path class="cls-7" d="M160.27,140.16a3.5,3.5,0,0,0,1.94-3c.06-1-1.5-1-1.56,0a1.94,1.94,0,0,1-1.17,1.63.79.79,0,0,0-.28,1.07.8.8,0,0,0,1.07.28Z"/><path class="cls-14" d="M189.61,124.54c3.22,0,3.22-5,0-5s-3.22,5,0,5Z"/><path class="cls-14" d="M110,75.59l-.86,3.21,1.51.42c.3-1.35,3.13-2.74,4.23-3.44a40.56,40.56,0,0,1,4.55-2.52,36.83,36.83,0,0,1,11.09-3.11.79.79,0,0,0,.39-1.46c-2.27-1.62-6.19-4.17-9.13-4a2.81,2.81,0,0,0-2,1c-.51.48-4.47,5.53-5.05,4.56a.79.79,0,0,0-1.23-.16,2.06,2.06,0,0,0-.8,1.08c-.22.48,0,1.24.67,1.18a13.39,13.39,0,0,0,3.08-.64.79.79,0,0,0-.21-1.54l-1.12-.35-.19,1.43,1.42-.28-.6-1.43-4.68,3L112,73.8l.88-.76-1.23-.95a33,33,0,0,1-2.62,4c-.54.71.63,1.59,1.23.95a13.22,13.22,0,0,1,4.22-3l-.95-1.23A12.12,12.12,0,0,1,111,74.82L112,76a50.74,50.74,0,0,1,5.1-3.57l-.95-1.23A14.4,14.4,0,0,1,112.57,74l.95,1.23a24.52,24.52,0,0,1,6.21-4L118.78,70a9.48,9.48,0,0,1-2.32,1.44l.79,1.35A27.31,27.31,0,0,1,122.43,70c.63-.25.85-1.35,0-1.51a21.12,21.12,0,0,0-3.55-.36l.55,1.33,1.27-.84-.95-1.23c-.83,1-1.69,2-2.6,3-.71.74.34,1.72,1.11,1.11l4.27-3.42L121.43,67,120.35,68l1.15.47a11.58,11.58,0,0,0,2.18,1.42l.39-1.46a8.88,8.88,0,0,0-3.37,1c-.66.34-.38,1.54.39,1.46l6.69-.69c.82-.08,1.13-1.32.21-1.54a17.37,17.37,0,0,1-5.69-2.41l-.39,1.46a3.47,3.47,0,0,1,3.53,1.47l1.07-1.07L122.67,66l-.39,1.46a9.87,9.87,0,0,1,4.78,1.76l.6-1.43c-2.18-.85-3.95-3.17-6.47-3-2.3.11-2.91,2.16-4.41,3.5-1.85,1.66-4.28,2-5.85,4.08a18.07,18.07,0,0,0-2.54,5.93.78.78,0,0,0,1.51.42c.6-2.05,1.2-4.27,2.67-5.9,1.26-1.4,3-1.75,4.51-2.8s2.59-3.88,5-3.57c1.78.23,3.47,2.22,5.19,2.9.87.34,1.3-1,.6-1.43a11.64,11.64,0,0,0-5.56-2c-.79-.08-1,1.1-.39,1.46l3.84,2.11c.62.34,1.58-.41,1.07-1.07a5.16,5.16,0,0,0-4.88-2.24.79.79,0,0,0-.39,1.46,18.24,18.24,0,0,0,6.07,2.57l.21-1.54-6.69.69.39,1.46,2.58-.8c.71-.08,1.14-1.05.39-1.46-1.07-.58-2.09-2.18-3.51-1.7a1.51,1.51,0,0,0-1,2,.79.79,0,0,0,1.15.47,4.77,4.77,0,0,0,1.39-1.31A.78.78,0,0,0,121.43,67l-4.27,3.42,1.11,1.11c.91-1,1.77-1.93,2.6-3a.79.79,0,0,0-.95-1.23,3.21,3.21,0,0,0-1.58,1.09.79.79,0,0,0,.55,1.33A12.68,12.68,0,0,1,122,70V68.53a29.25,29.25,0,0,0-5.55,2.93.78.78,0,0,0,.79,1.35,15.14,15.14,0,0,0,2.63-1.69c.75-.59-.21-1.56-.95-1.23a25.86,25.86,0,0,0-6.52,4.24c-.68.6.19,1.65.95,1.23a15.59,15.59,0,0,0,3.86-3,.78.78,0,0,0-.95-1.23,54,54,0,0,0-5.42,3.82c-.7.56.2,1.69.95,1.23a13.39,13.39,0,0,0,2.84-2.32.79.79,0,0,0-.95-1.23,14,14,0,0,0-4.54,3.29l1.23.95a33,33,0,0,0,2.62-4,.79.79,0,0,0-1.23-.95l-.88.76c-.67.58.2,1.71.95,1.23l4.68-3a.79.79,0,0,0-.6-1.43l-1.42.28a.79.79,0,0,0-.19,1.43,3,3,0,0,0,1.91.56L116,70.2a8.22,8.22,0,0,1-2.66.58L114,72l.56-.76L113.36,71c1.42,2.35,3.48.36,4.73-1,1.52-1.71,2.53-3.77,5-3.42s5,2.07,7,3.47l.39-1.46a38.46,38.46,0,0,0-12.39,3.57,48.78,48.78,0,0,0-6,3.55c-1.28.88-2.66,1.52-3,3.09a.78.78,0,0,0,1.51.42l.86-3.21a.78.78,0,0,0-1.51-.42Z"/><path class="cls-6" d="M88.78,174.33l.1-.3a1.58,1.58,0,0,0-1.09-1.92,1.6,1.6,0,0,0-1.92,1.09l-.1.3a1.58,1.58,0,0,0,1.09,1.92,1.6,1.6,0,0,0,1.92-1.09Z"/><path class="cls-21" d="M94.85,76.47c-4.46,3.32-4.74,10.07-5.9,15.12-.9,3.92,5.12,5.59,6,1.66L96.43,87c.27-1.16.5-4.28,1.57-5.08,3.19-2.37.08-7.8-3.16-5.4Z"/><g class="cls-22"><path class="cls-23" d="M93.61,106.88c6.43,0,6.45-10,0-10s-6.45,10,0,10Z"/></g><path class="cls-21" d="M119.91,78.93a36,36,0,0,1,13.55-3.42c4.53-.21,9,.4,13.56-.08a116.76,116.76,0,0,0,12.23-2.21c4.34-.93,9-2.08,13.08.37a1.17,1.17,0,0,0,1.18-2c-3.15-1.91-6.62-2-10.2-1.51-5.47.8-10.78,2.45-16.3,3-5.09.54-10.17-.27-15.25.2a39.39,39.39,0,0,0-13,3.62c-1.37.64-.18,2.66,1.18,2Z"/><path class="cls-24" d="M135.91,67.62a17.51,17.51,0,0,0,8.34,1c1.48-.18,1.5-2.52,0-2.34a16,16,0,0,1-7.71-.93c-1.41-.53-2,1.73-.62,2.26Z"/><path class="cls-25" d="M186.15,171.31a33,33,0,0,0,8.57,12.35c.37.34.93-.21.55-.55a32.19,32.19,0,0,1-8.37-12c-.18-.46-.94-.26-.75.21Z"/><path class="cls-25" d="M173.59,176.39a18,18,0,0,0,4.51,6.73c.37.34.92-.21.55-.55a17.16,17.16,0,0,1-4.31-6.39c-.18-.46-.93-.26-.75.21Z"/><path class="cls-25" d="M171.67,171.09a12,12,0,0,1,1.88,5c.05.39.68.4.63,0a12.68,12.68,0,0,0-2-5.36c-.22-.34-.76,0-.54.32Z"/><path class="cls-26" d="M162.4,171.07c-.13,3.37-.15,6.8,1.68,9.76.21.34.75,0,.54-.32-1.77-2.87-1.72-6.18-1.6-9.44,0-.4-.61-.4-.63,0Z"/><path class="cls-26" d="M164.1,180.77a15.56,15.56,0,0,1,4.1,6.58c.12.38.73.22.6-.17a16.24,16.24,0,0,0-4.26-6.86c-.29-.28-.73.16-.44.44Z"/><path class="cls-26" d="M206.79,107.24a19,19,0,0,1,7.35-6.1c.36-.17,0-.71-.32-.54a19.62,19.62,0,0,0-7.57,6.33c-.24.33.31.64.54.32Z"/><path class="cls-26" d="M194.08,104.35c2.32-5,5.63-9.82,10.82-12,.37-.16.05-.7-.32-.54C199.31,94,195.9,99,193.54,104c-.17.36.37.68.54.32Z"/><path class="cls-26" d="M189.16,90.51c2.29-3.95,6.2-6.18,10.11-8.26.36-.19,0-.73-.32-.54-4,2.13-8,4.44-10.34,8.48a.31.31,0,0,0,.54.32Z"/><path class="cls-26" d="M181.34,85.4a11.2,11.2,0,0,1,6.5-9.11c.37-.16.05-.7-.32-.54a11.83,11.83,0,0,0-6.81,9.65c0,.4.58.39.63,0Z"/><path class="cls-26" d="M123.28,75.65a19.08,19.08,0,0,1,2.7,7c.08.39.68.23.6-.17a19.54,19.54,0,0,0-2.76-7.13c-.22-.33-.76,0-.54.32Z"/><path class="cls-26" d="M133.33,75.43l2.48,12.21c.08.39.68.23.6-.17l-2.48-12.21c-.08-.39-.68-.23-.6.17Z"/><path class="cls-26" d="M150.67,74.15q1,7.81,1.41,15.67c0,.4.65.4.63,0q-.45-7.86-1.41-15.67c0-.39-.67-.4-.63,0Z"/><path class="cls-26" d="M141.92,72a54.59,54.59,0,0,1,2.37,11.75c0,.4.66.4.63,0a55.37,55.37,0,0,0-2.39-11.92c-.12-.38-.73-.22-.6.17Z"/><path class="cls-26" d="M156.58,71.41a69.55,69.55,0,0,1,2.41,18,.31.31,0,0,0,.63,0,70.21,70.21,0,0,0-2.44-18.17.31.31,0,0,0-.6.17Z"/><path class="cls-26" d="M175.56,72.12a26.9,26.9,0,0,0-6.88,16.7c0,.4.61.4.63,0A26.15,26.15,0,0,1,176,72.56c.26-.3-.18-.75-.44-.44Z"/><path class="cls-26" d="M145.43,158.95a10.09,10.09,0,0,0,2.73,6.65c.27.3.71-.15.44-.44a9.4,9.4,0,0,1-2.54-6.21.31.31,0,0,0-.63,0Z"/><path class="cls-26" d="M155.4,157.34a16.48,16.48,0,0,0,3.36,10.71c.23.32.78,0,.54-.32A15.92,15.92,0,0,1,156,157.34c0-.4-.6-.4-.63,0Z"/><path class="cls-26" d="M165.26,156a38.71,38.71,0,0,0,4.23,12.75c.19.35.73,0,.54-.32a38.16,38.16,0,0,1-4.17-12.6c-.06-.4-.66-.23-.6.17Z"/><path class="cls-26" d="M177.92,154.41a62.5,62.5,0,0,1,2.9,13.28c0,.4.67.4.63,0a63.26,63.26,0,0,0-2.93-13.45c-.13-.38-.73-.22-.6.17Z"/><path class="cls-26" d="M189.14,151q1.2,6.44,1.76,13c0,.4.66.4.63,0q-.57-6.61-1.78-13.13c-.07-.4-.68-.23-.6.17Z"/><path class="cls-26" d="M199,145a27.69,27.69,0,0,1,2.26,11.2.31.31,0,0,0,.63,0,28.45,28.45,0,0,0-2.35-11.51c-.16-.37-.7-.05-.54.32Z"/><path class="cls-26" d="M209,135.05c.24,3.24,1.11,7.09.1,10.25-.12.38.48.55.6.17,1-3.23.17-7.11-.08-10.42,0-.4-.66-.4-.63,0Z"/><path class="cls-26" d="M90.47,119.59a110.37,110.37,0,0,0,14.44,3c2.26.31,4.65.33,6.8,1.14,2.67,1,4.36,3.23,6,5.44.24.32.78,0,.54-.32-2.57-3.43-4.94-5.77-9.3-6.4A143.36,143.36,0,0,1,90.64,119a.31.31,0,0,0-.17.6Z"/><path class="cls-26" d="M96.25,133.16c2-1.7,4.48-1.54,6.91-1.54,1.83,0,4.06-.28,5.85.24s3.73,2,5.43,3l5.75,3.31a.31.31,0,0,0,.32-.54c-2.79-1.6-5.57-3.22-8.36-4.81a10.57,10.57,0,0,0-4.62-1.74c-3.6-.29-8.77-.8-11.72,1.69-.31.26.14.7.44.44Z"/><path class="cls-26" d="M131.73,97.1a28.71,28.71,0,0,0-3.8,8.5c-.85,3.82,0,8.13-4.32,10.1-.37.17,0,.71.32.54a7.18,7.18,0,0,0,4-5.42c.46-2.38.33-4.72,1.13-7.06a32.68,32.68,0,0,1,3.17-6.35.31.31,0,0,0-.54-.32Z"/><path class="cls-26" d="M88.6,108.22c3.67,2.59,9.49,1.46,13.61.7a29.75,29.75,0,0,1,5-1,10.26,10.26,0,0,1,5.08,1.79,65.29,65.29,0,0,1,7.22,4.92c.32.25.63-.3.32-.54-3.38-2.6-8.06-6.81-12.62-6.79-5.73,0-13,4.13-18.33.36-.33-.23-.64.31-.32.54Z"/><path class="cls-26" d="M88.44,86.7c14.44,2.53,25.81,12.81,33.27,25,.21.34.75,0,.54-.32-7.54-12.32-19.05-22.74-33.64-25.29-.39-.07-.56.53-.17.6Z"/><path class="cls-26" d="M147.82,104.22a20.82,20.82,0,0,1,5.64-4.49c.35-.19,0-.73-.32-.54a21.3,21.3,0,0,0-5.76,4.59c-.27.3.17.74.44.44Z"/><path class="cls-26" d="M166.77,103.64l-2.54,2.88c-.26.3.18.74.44.44l2.54-2.88c.26-.3-.18-.74-.44-.44Z"/><path class="cls-26" d="M129.2,141.45a22.83,22.83,0,0,0,2.06,12.89c.17.36.71,0,.54-.32a22.26,22.26,0,0,1-2-12.57c.05-.4-.57-.39-.63,0Z"/><path class="cls-26" d="M124.74,131.27a18.26,18.26,0,0,0-1.69,9.39c0,.4.66.4.63,0a17.63,17.63,0,0,1,1.61-9.08c.17-.36-.37-.68-.54-.32Z"/><path class="cls-26" d="M121.23,128.09a25.91,25.91,0,0,1,1.28-5c.14-.38-.46-.54-.6-.17a25.91,25.91,0,0,0-1.28,5c-.06.39.54.56.6.17Z"/><path class="cls-26" d="M163.44,143.88v5.89a.31.31,0,0,0,.63,0v-5.89a.31.31,0,0,0-.63,0Z"/><path class="cls-26" d="M172.94,140a28.93,28.93,0,0,1,6.29,8c.19.36.73,0,.54-.32a29.39,29.39,0,0,0-6.39-8.17c-.3-.27-.74.17-.44.44Z"/><path class="cls-26" d="M177.54,134.53c2.89,3.23,7.09,5.09,9.41,8.84.21.34.75,0,.54-.32-2.36-3.8-6.59-5.69-9.51-9-.27-.3-.71.14-.44.44Z"/><path class="cls-26" d="M178,113.17A19.8,19.8,0,0,0,191.28,106c.25-.31-.19-.75-.44-.44a19.19,19.19,0,0,1-12.88,7c-.4,0-.4.67,0,.63Z"/><path class="cls-26" d="M181.64,124.64a31.7,31.7,0,0,1,11,8.25c.26.31.7-.14.44-.44A32.06,32.06,0,0,0,182,124.1c-.36-.16-.68.37-.32.54Z"/><path class="cls-26" d="M180.91,119.17a15,15,0,0,1,13.29,5.91c.24.32.78,0,.54-.32a15.64,15.64,0,0,0-13.83-6.22c-.4,0-.4.66,0,.63Z"/><path class="cls-26" d="M171.29,105c2.47-4.46,4-8.67,2.68-13.78a.31.31,0,0,0-.6.17c1.32,4.93-.24,9-2.62,13.3-.2.35.34.67.54.32Z"/><path class="cls-26" d="M151.72,95.57a2.46,2.46,0,0,1-1,1.6c-.31.25.13.69.44.44a3,3,0,0,0,1.14-1.88c.06-.39-.55-.56-.6-.17Z"/><path class="cls-26" d="M175.35,108.87c3-2.83,6.39-5.4,7.78-9.4S184,94,181.5,90.88c-.25-.31-.69.13-.44.44,5.49,6.79-1.38,12.58-6.14,17.1-.29.28.15.72.44.44Z"/><path class="cls-26" d="M113.89,69.87a8.39,8.39,0,0,0-.12,5.37c.12.38.72.22.6-.17a7.81,7.81,0,0,1,.12-5c.14-.38-.47-.54-.6-.17Z"/><path class="cls-26" d="M121.11,65.54a20.86,20.86,0,0,1,4,4.73c.21.34.75,0,.54-.32a21.42,21.42,0,0,0-4.1-4.86c-.3-.26-.74.18-.44.44Z"/><path class="cls-26" d="M138.45,61.46A8.17,8.17,0,0,0,138,69c.16.37.7,0,.54-.32a7.5,7.5,0,0,1,.43-7,.31.31,0,0,0-.54-.32Z"/><path class="cls-26" d="M148.15,64.45a6.08,6.08,0,0,0-.6,4.91.31.31,0,0,0,.6-.17,5.45,5.45,0,0,1,.54-4.43c.21-.34-.33-.66-.54-.32Z"/><path class="cls-26" d="M112.61,150c1.76-5.7,7.45-2.14,11.36-1.72.4,0,.4-.58,0-.63-2.72-.29-5.67-2.25-8.41-1.47a5.26,5.26,0,0,0-3.54,3.65c-.12.39.48.55.6.17Z"/><path class="cls-26" d="M129.27,136.53a4.19,4.19,0,0,0,1.23-.64,4.88,4.88,0,0,1,2.58-.56l4.55,0a.31.31,0,0,0,0-.63c-1.7,0-3.41-.09-5.12,0a4.83,4.83,0,0,0-1.43.17c-.73.25-1.21.87-2,1.05-.39.09-.23.7.17.6Z"/><path class="cls-26" d="M137,148.78a12.82,12.82,0,0,0,6-5.41.31.31,0,0,0-.54-.32,12.27,12.27,0,0,1-5.75,5.19c-.37.16,0,.7.32.54Z"/><path class="cls-26" d="M151.31,155.8c1.88-.94,3.4-2.69,3.06-4.91-.06-.4-.66-.23-.6.17.29,1.92-1.19,3.4-2.78,4.2-.36.18,0,.72.32.54Z"/><path class="cls-26" d="M197.13,127.1c3.47-2.3,7.22,2.43,8.05,5.35a.31.31,0,0,0,.6-.17c-.94-3.32-5.15-8.25-9-5.72-.33.22,0,.76.32.54Z"/><path class="cls-26" d="M196.76,118.64a5.23,5.23,0,0,1,4.76.71c.33.23.64-.31.32-.54a5.83,5.83,0,0,0-5.24-.77c-.38.13-.22.73.17.6Z"/><path class="cls-26" d="M213.21,129.75A14.75,14.75,0,0,1,221,128.7c.4,0,.39-.58,0-.63a15.32,15.32,0,0,0-8.06,1.14c-.37.16-.05.7.32.54Z"/><path class="cls-26" d="M214.39,141.73c3-1.38,6.07-2.69,9.34-1.51.38.14.54-.47.17-.6-3.42-1.23-6.7.12-9.82,1.57-.36.17,0,.71.32.54Z"/><path class="cls-26" d="M215.94,150.61c2-1.1,3.87-.82,5.95-.16.38.12.55-.48.17-.6-2.25-.71-4.29-1-6.43.23-.35.19,0,.74.32.54Z"/><path class="cls-26" d="M86.22,173.19a54.65,54.65,0,0,0,48.63-6.46c.33-.23,0-.77-.32-.54a54.05,54.05,0,0,1-48.15,6.4c-.38-.13-.54.47-.17.6Z"/><path class="cls-26" d="M83.26,160.64a76.07,76.07,0,0,0,20,1.75,29.67,29.67,0,0,0,15.61-4.84c.33-.23,0-.77-.32-.54-4.89,3.36-10.6,4.66-16.47,4.8A78,78,0,0,1,83.43,160c-.39-.09-.56.51-.17.6Z"/><path class="cls-26" d="M84,147.65c2.92,1.27,6.52.83,9.64.81a56.35,56.35,0,0,0,11.58-1.17c.39-.09.23-.69-.17-.6a53.28,53.28,0,0,1-10.25,1.13c-3.2.07-7.49.6-10.48-.71-.37-.16-.68.38-.32.54Z"/><path class="cls-26" d="M89,136c1.83,1.84,4.37,2.23,6.84,2.53.4,0,.39-.58,0-.63-2.3-.28-4.69-.64-6.4-2.35A.31.31,0,0,0,89,136Z"/><path class="cls-26" d="M135.22,166.59a7.1,7.1,0,0,1,3.3-1.46c.4-.07.23-.67-.17-.6a7.72,7.72,0,0,0-3.58,1.62c-.31.25.13.69.44.44Z"/><path class="cls-27" d="M198.4,163.17c3.07,2.13,2.6,5.87,4.15,8.85,1.12,2.17,3.12,3.65,5,5.07.32.24.64-.3.32-.54a16.94,16.94,0,0,1-4.37-4.09,15.91,15.91,0,0,1-1.68-4.72,8.27,8.27,0,0,0-3.14-5.12c-.33-.23-.64.31-.32.54Z"/><path class="cls-27" d="M208.26,151.21c5.94,2.37,4.58,11.82,9.6,15.43.33.23.64-.31.32-.54-5.2-3.73-3.42-13-9.75-15.49-.37-.15-.54.46-.17.6Z"/><path class="cls-27" d="M158.38,173.48c1,3-.15,5.15-1.27,7.88-.64,1.57-.78,3.24-1.55,4.77-1.36,2.72-2,4.14-.67,7.07.16.37.7,0,.54-.32-1.66-3.77.13-4.69,1.25-7.66.61-1.61.81-3.16,1.56-4.76,1.16-2.46,1.65-4.5.74-7.15-.13-.38-.73-.22-.6.17Z"/><path class="cls-27" d="M144.91,177.68c.15,2.28-6.1,3.6-7.66,4.3a8,8,0,0,0-4.38,4c-.16.36.38.68.54.32,1.48-3.32,5.08-4,8.12-5.23,1.23-.51,4.12-1.66,4-3.35,0-.4-.65-.4-.63,0Z"/></svg>