<svg id="圖層_1" data-name="圖層 1" xmlns="http://www.w3.org/2000/svg" viewBox="0 0 300 300"><defs><style>.cls-1{fill:#f5b81b;}.cls-2{fill:#06143f;}.cls-3{fill:#f7f8f8;stroke:#4c4948;}.cls-3,.cls-5{stroke-miterlimit:10;}.cls-4{fill:#e6e6e6;}.cls-5{fill:none;stroke:#f5b81b;stroke-width:2px;}.cls-6{fill:#e05b0b;}.cls-7{fill:#fae1b5;}.cls-8{fill:#040000;}.cls-9{fill:#dc4625;}.cls-10{fill:#231815;}</style></defs><title>蝦02</title><ellipse class="cls-1" cx="149.98" cy="146.83" rx="149.13" ry="80.6"/><ellipse class="cls-2" cx="150.21" cy="145.52" rx="147.21" ry="77.72"/><ellipse class="cls-3" cx="150.24" cy="153.28" rx="106.86" ry="58.69"/><ellipse class="cls-4" cx="150.24" cy="157.89" rx="98.9" ry="54.55"/><ellipse class="cls-5" cx="150.3" cy="153.34" rx="106.42" ry="58.99"/><path class="cls-6" d="M105.74,186.34l.38.66c.18,1.83,2.4,3.12,3.85,1.6a25.17,25.17,0,0,0,4-5.38c.78-1.41-.18-3.52-1.95-3.4a7.17,7.17,0,0,0-5.6,2.7c-1.84,2.19,1.11,5.29,3.19,3.19,1.06-1.07,3.15-4.15,4.64-4.48l-2.2-.58q-.29-1.68-1.45.63l-2.45,2.5a2.27,2.27,0,0,0,2.74,3.55c4.07-2.31,5.93-6.22,8.85-9.69,3.35-4,8.82-3.86,12.3-7.6,1.85-2-.46-4.51-2.74-3.55-4.17,1.76-8.41,3.41-12.52,5.3-2.67,1.23-5,2.66-6.22,5.4l4.13.54c-.4-1.85-.3-2.32,1.16-3.47,2-1.57-.66-5.05-2.74-3.55l-3.58,2.61c-1.88,1.37-.84,5.14,1.74,4.13a12.35,12.35,0,0,0,7.06-6.3l-4.13-1.74a8.32,8.32,0,0,0-.35,3.74c.1,3.48-1.26,5.3-3.46,7.81l3.77,2.2c1.93-5.2,5.12-9.25,2.54-14.83-1-2.14-4.15-.94-4.21,1.14l.26-.25,2.2,3.77a8,8,0,0,1,6.78-1.75l.6-4.43c-4.2-.21-8.42,1.07-8.56,5.9a2.28,2.28,0,0,0,3.4,1.95L131.67,168c2-.91,1.06-4.45-1.14-4.21a95.92,95.92,0,0,1-21.51,0c-2.5-.28-3.11,4-.6,4.43l.48.13a2.28,2.28,0,0,0,3.77-2.2c-.14-.86,4.43-1.2,4.94-1.18a13.19,13.19,0,0,1,4.6.95l1.2-4.35c-4.77-1.3-9.7-.75-10.46,4.92-.17,1.27,1.18,2.18,2.26,2.26,3.63.26,8.38.46,11.62-1.48a2.22,2.22,0,0,0,1.12-1.95l0-.43a2.39,2.39,0,0,0-1.66-2.18l-.35-.13.54,4.13q2.73-2.19,5.67.24l2.86-2.18-.87-.63-3.19,3.19A12.93,12.93,0,0,0,147.57,169a2.27,2.27,0,0,0-1.74-4.13,21.13,21.13,0,0,1-5.82.26q-1.44-.1-2.87-.31-1.49-3.36,1.17-2.72l-1.14-4.21c-2.16,1.15-5.9,2.55-4.42,5.72,1.38,3,6,3.76,8.86,3.81a2.28,2.28,0,0,0,1.6-3.85l-3-2.78-2.74,3.55c4.27,2.34,9.73,4.39,14.69,3.63s9.48-6.48,13.07-9.59l-3.19-3.19-6,5.24,3.19,3.19,2.85-2.76c1.95-1.89-.52-4.56-2.74-3.55a25.11,25.11,0,0,1-17.73,1.27,2.27,2.27,0,0,0-1.74,4.13,21.23,21.23,0,0,0,17.44,1.85,2.27,2.27,0,0,0-.6-4.43,49.92,49.92,0,0,1-16.51-3.43l1.35,3.32,5-7-3.9-2.28c-1.64,2.7-5.22,5.74-2,8.89a4.35,4.35,0,0,0,3.94,1.06c1.31-.18,4.59-2.56,5.7-1.8l1.14-4.21a37,37,0,0,1-6.78-1c-2.41-.59-4.08,2.91-1.74,4.13,4.69,2.44,9.64,4.56,14.85,2.49,1.79-.71,2.47-4,0-4.35a30.21,30.21,0,0,0-13.14.8c-2.06.59-2.23,3.85,0,4.35a21.83,21.83,0,0,0,16.3-2.47l-3.4-1.95a6.29,6.29,0,0,1-.83,3.58l3.55-.46c-.67-.79,5.71-5.22,6.17-5.58l-3.77-1,.12,2,1.66-2.18c-5.46,2.23-11.08-3-16.89-.93a2.3,2.3,0,0,0-1,3.77c2.13,2.68,5.29,2.88,8.35,1.75,5.12-1.88,9.5-4.2,15-5.09l-1.2-4.35-4.5,1.84c-2.12.87-2.18,4.69.6,4.43,6.4-.58,13-5.73,11.7-12.59a2.27,2.27,0,0,0-3.77-1c-3.35,3.69-6.38,6.4-11.42,7.47-4.67,1-9.39,1.8-14.08,2.7l2.78,1.58a4.44,4.44,0,0,1,1.1-4.28l-3.55-.46.14.92a2.28,2.28,0,0,0,2.78,2.78L169,146.91l-2.78-1.58.15.5.58-2.2c-1.19,1.51-6.28,2.1-8.15,2.65l-8.08,2.35c-2.34.68-2,4.72.6,4.43,3-.33,6.58-1.27,7-4.83a4.46,4.46,0,0,0-1.11-3.62c-1.07-1.21-4.91-1.82-5.33-3.17a2.28,2.28,0,0,0-3.77-1,3.06,3.06,0,0,0,0,4.67,2.28,2.28,0,0,0,3.55-.46c1.7-3.13,2.71-7.09-1-8.93s-8.12-1.07-11.9.58l2.74,3.55c3.65-4.19,11.21-2.07,12.58-8.89a2.28,2.28,0,0,0-3.77-2.2c-1.69,1.44-3.77,3.39-6,3.92l2.55,1c-.77-1.1,2.8-7.08,3.55-8.69,1.4-3,2.92-6,4.51-8.9H151c1.13,2.13-2.82,7.3-3.91,9.18-1.6,2.77-3.34,5.44-5.17,8.06-1.37,2,1.24,4.08,3.09,3.09l8.22-4.41-3.4-1.95A11.88,11.88,0,0,0,155,141.3l1.74-4.13a6.69,6.69,0,0,1-2.83-3.15L150,136.3a14.45,14.45,0,0,1,2.48,7.46l4.21-1.14a22,22,0,0,1-2.1-9.62h-4.51a38.56,38.56,0,0,1-.18,7.82l4.43-.6c-.34-1.4-.79-2.86-1-4.28-.42-2.47.06-.64.74.73a44.36,44.36,0,0,1,3.42,9.46l3.77-2.2a16.91,16.91,0,0,1-2.8-4.86c-.85-2.22-4.53-2.13-4.43.6a27.17,27.17,0,0,0,1.44,8,2.29,2.29,0,0,0,4.13.54c1.89-3.12,7.26-3.43,10.38-4.78a32.47,32.47,0,0,0,8.08-5c2-1.7,5-4.23,5.62-7a4.76,4.76,0,0,0-.27-2.83c-.12-.29-2.08-2.75-2.27-2.44l-3.55.46,2,1.57c1.42,1.12,3.92.54,3.85-1.6a4.26,4.26,0,0,0-.69-2.59c-.66-1.06-2.9-1.77-3.24-2.78L176.7,124c-.76-.22-1.36,3.73-1.45,4.08-.8,3.32-2.16,3.87-4.8,5.44-3.79,2.26-7.6,4.49-11.4,6.74l2.28,3.9a39.78,39.78,0,0,1,15.15-7.22l-1.2-4.35a20.09,20.09,0,0,0-9.84,6.74c-1.43,1.81.46,5.19,2.74,3.55,3.4-2.46,7-4.78,10.26-7.43,1.87-1.52,3.12-2.78,3.15-5.28,0-2.91-4.49-2.91-4.51,0,0,1.64-4.28,3.82-5.4,4.63L165.89,139l2.74,3.55a15.93,15.93,0,0,1,7.85-5.58,2.26,2.26,0,0,0-1.2-4.35A42.84,42.84,0,0,0,159,140.24c-2.24,1.71-.3,5.42,2.28,3.9,3.8-2.25,7.61-4.48,11.4-6.74,2.26-1.35,4.81-2.65,6.07-5.08a10.88,10.88,0,0,0,.84-2.94c.29-1.39,1.42-3.93,1.49-5.47a4.07,4.07,0,0,0-3.23-4.29,2.27,2.27,0,0,0-2.78,2.78,5.16,5.16,0,0,0,1.33,2.33c.5.51,2.42,1.21,2.45,1.84l3.85-1.6-2-1.57a2.3,2.3,0,0,0-3.55.46c-1.4,2.25-.26,3.21.61,5.3q1.9,1,0,3.13-.93,1-2,2a27.66,27.66,0,0,1-4.58,3.4c-5,3-12.4,2.91-15.63,8.25l4.13.54a23.12,23.12,0,0,1-1.28-6.8l-4.43.6a24.33,24.33,0,0,0,4,6.85c1.51,1.86,4.26-.18,3.77-2.2-1-4.32-3.25-14.58-9-15-6.77-.49-3.65,8.08-2.82,11.49.65,2.67,4.14,1.75,4.43-.6a38.56,38.56,0,0,0,.18-7.82c-.22-2.86-4.52-2.94-4.51,0a27.48,27.48,0,0,0,2.71,11.9c1,2,4.33,1,4.21-1.14a19.27,19.27,0,0,0-3.09-9.74,2.26,2.26,0,0,0-3.9,2.28c1.38,2.51,2.79,4.26,5.52,5.23s3.66-2.73,1.74-4.13a7.48,7.48,0,0,1-3-7.28c.19-1.8-2-2.68-3.4-1.95l-8.22,4.41,3.09,3.09a108,108,0,0,0,7.82-13c1.5-3,2.92-5.67,1.25-8.82a2.27,2.27,0,0,0-3.9,0c-2.39,4.39-4.58,8.86-6.53,13.46-1.11,2.62-3.38,6-1.53,8.69a2.35,2.35,0,0,0,2.55,1c3-.71,5.69-3.1,8-5.08l-3.77-2.2c-.61,3.06-4.56,3.13-6.88,3.94a10,10,0,0,0-4.54,3,2.27,2.27,0,0,0,2.74,3.55c3-1.3,5.88-1.54,8.69.2l-1.12-1.95a5.27,5.27,0,0,1-.83,3.92l3.55-.46,0,1.71-3.77-1a5.38,5.38,0,0,0,2.06,3.07c1.18.87,5.61,2.4,1.69,2.83l.6,4.43c5.09-1.48,10.36-2.7,15.35-4.46,2.05-.73,4.07-1.88,3.3-4.39a2.3,2.3,0,0,0-2.78-1.58l-18.52,4.55,2.78,2.78a5.64,5.64,0,0,0-.6-4.4,2.27,2.27,0,0,0-3.55-.46,9.73,9.73,0,0,0-2.26,8.68,2.3,2.3,0,0,0,2.78,1.58c5.64-1.08,11.76-1.64,17.19-3.49,4.26-1.45,7.33-4.57,10.29-7.83l-3.77-1c.62,3.41-4.36,6.6-7.35,6.87l.6,4.43,4.5-1.84a2.26,2.26,0,0,0-1.2-4.35,45.5,45.5,0,0,0-8.57,2.2c-2.26.84-8.38,4.79-10.36,2.3l-1,3.77c5.6-2,11,3.32,16.89.93a2.43,2.43,0,0,0,1.66-2.18,5.35,5.35,0,0,0-.28-3.17,2.29,2.29,0,0,0-3.77-1c-3.66,2.84-10.58,6.79-6.17,12a2.27,2.27,0,0,0,3.55-.46,13.32,13.32,0,0,0,1.45-5.86,2.28,2.28,0,0,0-3.4-1.95,17.06,17.06,0,0,1-12.82,2V161a24.78,24.78,0,0,1,10.74-.8v-4.35c-4.06,1.62-7.73-.13-11.37-2l-1.74,4.13a43.58,43.58,0,0,0,8,1.19c2.39.14,2.86-3,1.14-4.21a5,5,0,0,0-4.81-.54c-.44.15-2.26,1.38-2.57,1s1-1.76,1.39-2.41c1.54-2.53-2.23-4.59-3.9-2.28l-5,7c-.93,1.3.12,2.84,1.35,3.32a53.71,53.71,0,0,0,17.71,3.59l-.6-4.43a16.82,16.82,0,0,1-14-1.39l-1.74,4.13a30,30,0,0,0,21.2-1.73l-2.74-3.55L156,160.39c-2.11,2,1,5.08,3.19,3.19l6-5.24c2.2-1.91-1-5.09-3.19-3.19-2.61,2.26-6.05,6.55-9.28,7.92-3.93,1.67-9.65-.83-13-2.67-2.19-1.2-4.66,1.74-2.74,3.55l3,2.78,1.6-3.85-2.11-.16q-1.76-1.8-2.45-.11-1,1.19.26.29l2.14-1.14c2-1.07,1-4.2-1.14-4.21-4.5,0-10.81,2.83-7.6,8.33,2.83,4.85,11.71,4.21,16.32,3.31l-1.74-4.13a8.42,8.42,0,0,1-11.2-.93c-2.06-2.07-5.16,1.06-3.19,3.19a5.38,5.38,0,0,0,2.86,1.79,2.27,2.27,0,0,0,2.86-2.18c-.15-7.23-7.77-6.49-12.47-4.14-1.87.93-1.15,3.52.54,4.13l.35.13-1.66-2.18,0,.43,1.12-1.95c-2.49,1.49-6.54,1.07-9.35.86l2.26,2.26a4.49,4.49,0,0,1,4.75-.57c2.88.78,3.83-3.29,1.2-4.35-5.08-2-16.44-2.32-15.1,5.79l3.77-2.2a3.94,3.94,0,0,0-2.47-1.3l-.6,4.43a95.92,95.92,0,0,0,21.51,0l-1.14-4.21-14.51,6.71,3.4,1.95a4.07,4.07,0,0,1,4-1.39c2.5.12,3.13-4,.6-4.43a13.14,13.14,0,0,0-11.17,2.91c-1.75,1.4.14,4.51,2.2,3.77a4,4,0,0,0,3.05-4.1l-4.21,1.14c1.69,3.64-1.75,8-3,11.35-.78,2.1,2.32,3.85,3.77,2.2a22.36,22.36,0,0,0,4-5.63c1.17-2.7.05-5.34,1-7.92.86-2.39-3-4-4.13-1.74A7.59,7.59,0,0,1,110,173.1l1.74,4.13,3.58-2.61-2.74-3.55c-3.22,2.55-3.14,4-2.32,7.87.39,1.81,3.31,2.3,4.13.54,1.34-2.89,4.65-3.81,7.37-5l9.75-4.12-2.74-3.55c-3.07,3.31-8.26,3.35-11.54,6.74-3.08,3.18-4.72,7.58-8.7,9.84l2.74,3.55c2-2,7.53-6.06,4.19-9.28s-7.27,3-9.12,4.82l3.19,3.19,2.41-1.38-1.95-3.4a20.88,20.88,0,0,1-3.26,4.47l3.85,1.6a5.44,5.44,0,0,0-2.61-4.55c-2.36-1.71-4.61,2.21-2.28,3.9Z"/><path class="cls-6" d="M146.9,101.51a12.13,12.13,0,0,1,5.77-1.7c5-.22,6.28-7.51,1.2-8.87l-.87-.23,2,7.55.64-.6L152.45,99c-1.07.05-.94,0,.21.95.15.13,1.59,1.87,1.49.62l7.71-3.19-.23-.22-8.41,2.28c4.5,7.14,4.46,20.06-3.3,25l6.18,6.18a31.78,31.78,0,0,0-.59-34.18l-5.1,6.63c2.52,1.06,2.57,8.26,2.83,10.48.47,4.09.63,8.19.74,12.31.17,6.6,1.08,12.8,5.82,17.74l6.38-6.38a13,13,0,0,1-2.44-2.49,7.79,7.79,0,0,1-1.13-2l-2.4,2.11c-.12,1.09,2.74,4.6,3.56,5.46,2.65,2.78,7.13,3.48,9.8.35s1.56-8.1-.16-11.25c-2.32-4.25-6.71-6.74-9.08-10.88l-7.09,5.47c4.08,3.82,11.59,4.83,14.47,9.61,2.78,4.6,9.08,1.4,8.25-3.48a14,14,0,0,0-7.42-9.68,41.62,41.62,0,0,0-6.3-2.58,24.58,24.58,0,0,1-3.53-1.39c-.55-.3-2.82-2.32-2.44-1.32l-.46,3.48c-.59,1,.67.6,2,1.3a19.72,19.72,0,0,1,3.65,2.9,59.5,59.5,0,0,1,6.09,6.46c2.05,2.49,7,1.24,7.55-2,.41-2.5-.17-4.85.32-7.27a12.16,12.16,0,0,0,.16-6.19c-1.41-4.83-6.14-8-10.74-9.36-4.37-1.31-8.28,1.44-7.72,6.25.59,5.17,6.5,8,10.54,10.1a4.56,4.56,0,0,0,6.79-3.9,10.51,10.51,0,0,0-3.76-8.11c-2.13-1.9-6.56-2.86-7.77-5.46l.46,3.48.26-.89L164.48,109c1.45-.48,5.71,3,5.56,4.48-.6,5.77,8.44,5.73,9,0,.73-7.08-9.82-15.35-16.6-13.32-3.77,1.13-4.89,5.39-2.9,8.61a13.41,13.41,0,0,0,4.57,4c1.47.89,5.25,1.91,5.28,4l6.79-3.9c-.82-.43-6.17-2.71-6-4l-1.32,3.19.44-.56-3.19,1.32a9.45,9.45,0,0,1,3.52,1.73c1.27,1.19,1.16,1.77.88,3.44a23,23,0,0,0-.6,2.94c-.05,1.21.66,2.63.48,3.76l7.55-2c-3.49-4.24-7.79-9-12.82-11.44-4-1.94-10.13-2-12.86,2.2-2.91,4.47,2.32,8.72,5.88,10.61,4.19,2.23,12.16,2.68,13.11,8.26L179.5,129c-3.88-6.43-10.82-6.69-15.88-11.44-3.7-3.47-9.69.93-7.09,5.47a29.45,29.45,0,0,0,5.18,6.34c1,1,5.21,4.47,4.41,6.23l2.7-2.07q2.25.83.55-1-.65-1.18-1.37-2.31a13.23,13.23,0,0,0-3.34-3.62c-2.73-1.88-6.41-2.17-9,.1-5.52,4.81-.05,13.36,4.14,16.87,4.4,3.68,10.48-2.12,6.38-6.38-2.77-2.88-3-6.79-3.16-10.6-.15-4.65-.29-9.26-.86-13.89-.91-7.49-1.64-15.1-9.36-18.35-3.64-1.53-7.16,3.56-5.1,6.63a22.83,22.83,0,0,1,.59,25.06c-2.33,3.8,2.35,8.6,6.18,6.18,11.92-7.55,13.79-25.82,6.53-37.33-2.16-3.42-9-2.47-8.41,2.28a11.06,11.06,0,0,0,2.88,6.6c2.49,2.83,8,.67,7.71-3.19s-2.76-6-5.34-8.55a6.38,6.38,0,0,0-9.22-.13,4.55,4.55,0,0,0,2,7.55l.87.23,1.2-8.87a22.26,22.26,0,0,0-10.33,2.93c-5.05,2.86-.51,10.67,4.56,7.8Z"/><path class="cls-7" d="M165.05,104.25c.68,4,.83,8.07-.71,11.89-1,2.6-2.83,4.77-4.27,7.17-3.25,5.38-7.53,9.59-11.83,14.14-.5.53.3,1.33.8.8,2.87-3,5.95-6,8.62-9.17,2-2.36,3.3-5.14,5-7.7,3.7-5.63,4.67-10.68,3.52-17.43-.12-.71-1.21-.41-1.09.3Z"/><path class="cls-7" d="M150.57,143.12c6.44,1.64,11.07.52,15.89-4a40.69,40.69,0,0,0,10.34-16.26c.49-1.37-1.69-2-2.18-.6a38.58,38.58,0,0,1-7.82,13.3c-4.53,4.93-8.9,7.1-15.64,5.38a1.13,1.13,0,0,0-.6,2.18Z"/><path class="cls-7" d="M150.94,148.83c4.1,1.09,8.49,1.9,12.69.84,4.42-1.11,7.84-4.59,11.09-7.56,1.07-1-.53-2.58-1.6-1.6-3,2.74-6,6-10.1,7-3.79,1-7.8.14-11.49-.84a1.13,1.13,0,0,0-.6,2.18Z"/><path class="cls-7" d="M143.65,151.89c-.27,3.59.84,6.32,4.5,7.21a19.42,19.42,0,0,0,12.53-1.41c1.33-.59.18-2.53-1.14-1.95a17.36,17.36,0,0,1-8,1.56c-3.71-.19-5.95-1.18-5.63-5.42.11-1.45-2.15-1.44-2.26,0Z"/><path class="cls-7" d="M136,160.36a9,9,0,0,0,8.57,8.73c2.18.14,2.17-3.25,0-3.39a5.5,5.5,0,0,1-5.19-5.35c-.09-2.17-3.47-2.18-3.39,0Z"/><path class="cls-7" d="M123.12,166.45a23.39,23.39,0,0,0,5.84-.66l-2.2-3.77q.83-.47.08-.32l-1,0q-1,0-2.06,0c-1.38,0-2.75-.08-4.12-.19-2.9-.23-2.88,4.28,0,4.51a53.9,53.9,0,0,0,5.84.17c1.48,0,3.4.16,4.49-1.06a2.28,2.28,0,0,0-2.2-3.77,18.22,18.22,0,0,1-4.64.5c-2.91,0-2.91,4.47,0,4.51Z"/><path class="cls-7" d="M117.93,174.47c3.17-1.33,6.19-2.54,9.67-2.71,2.89-.14,2.91-4.65,0-4.51a31.29,31.29,0,0,0-10.87,2.87c-2.64,1.11-1.48,5.48,1.2,4.35Z"/><path class="cls-7" d="M142.49,135.35c2.13-2.24,2.86-5,4.34-7.62,1.6-2.86,4-5.19,5.57-8.08,2.44-4.39,5.51-9.64,1.63-14.06-1-1.09-2.55.51-1.6,1.6,1.61,1.83,1,5.25.08,7.2-.52,1.16-1.11,2.32-1.71,3.44a52.46,52.46,0,0,1-4.35,6.38c-2.2,3-3,6.84-5.56,9.55-1,1.05.59,2.65,1.6,1.6Z"/><path class="cls-7" d="M148.79,100.27a17.75,17.75,0,0,1,3.08,7,1.69,1.69,0,0,0,3.26-.9,21.43,21.43,0,0,0-4-8.49c-1.4-1.67-3.79.73-2.39,2.39Z"/><path class="cls-7" d="M151.41,108.25a17.74,17.74,0,0,1-.66,4.92,1.69,1.69,0,0,0,3.26.9,21.25,21.25,0,0,0,.78-5.82,1.69,1.69,0,0,0-3.39,0Z"/><path class="cls-7" d="M140.74,97.92c3.14-.18,6.9-1.1,9.82.43.64.34,1.21-.64.57-1-3.17-1.67-7-.79-10.39-.59-.72,0-.73,1.17,0,1.13Z"/><path class="cls-7" d="M151.35,114.93a2.91,2.91,0,0,1-.43,1.53,1.13,1.13,0,0,0,1.95,1.14,5.22,5.22,0,0,0,.73-2.67,1.13,1.13,0,0,0-2.26,0Z"/><path class="cls-7" d="M158.84,142.55a4.59,4.59,0,0,0,2.8-1.08,48.12,48.12,0,0,1,4.11-2.93,11.06,11.06,0,0,0,4.45-5.74c.49-1.37-1.69-2-2.18-.6a8.73,8.73,0,0,1-4,4.71,21.88,21.88,0,0,0-2.17,1.31c-.94.71-1.77,2-3,2.06-1.45.07-1.45,2.33,0,2.26Z"/><path class="cls-7" d="M150.28,136.93c2-1.41,4.35-1.88,6.33-3.33a26.72,26.72,0,0,0,6.17-6.66c3.38-5,5-10.57,3.93-16.57-.25-1.43-2.43-.82-2.18.6,1.06,6-1.16,11.7-4.87,16.39a20.88,20.88,0,0,1-5.39,5.13c-1.67,1-3.54,1.34-5.13,2.49-1.17.84,0,2.8,1.14,1.95Z"/><path class="cls-7" d="M155,134.35c2-2.36,3.26-5.29,5.47-7.5l-1.89-1.1a4.76,4.76,0,0,1-.81,1.91c-.76,1.28,1.1,2.28,1.95,1.14a62.47,62.47,0,0,0,5-8c.68-1.28-1.27-2.42-1.95-1.14a62.47,62.47,0,0,1-5,8l1.95,1.14a9.34,9.34,0,0,0,1-2.45,1.14,1.14,0,0,0-1.89-1.1c-2.22,2.22-3.43,5.14-5.47,7.5-.94,1.09.64,2.7,1.6,1.6Z"/><path class="cls-7" d="M163.74,117.19a60,60,0,0,1-7.34,12c-.89,1.13.7,2.74,1.6,1.6a62.33,62.33,0,0,0,7.69-12.5c.6-1.31-1.34-2.46-1.95-1.14Z"/><path class="cls-7" d="M149,99.61a13,13,0,0,1,2.16,4.23c.61,1.53,1.89,3.64,1.47,5.35-.51,2.12,2.75,3,3.26.9.62-2.57-.53-4.8-1.47-7.15-.82-2-1.51-4.08-3-5.72s-3.87.8-2.39,2.39Z"/><path class="cls-8" d="M164.11,101.53a19.67,19.67,0,0,1,12.19,9c1.54,2.67,2.11,5.06.58,7.81-1.3,2.33-2.92,4.56-4.43,6.77-4.52,6.62-16.15,22.24-24.92,12.2-1-1.1-2.55.51-1.6,1.6,9.82,11.25,22.66-4.27,28-12,1.84-2.65,5.27-6.36,6.14-9.45.61-2.18-.36-5.05-1.29-7a21.75,21.75,0,0,0-14.1-11.05c-1.41-.34-2,1.83-.6,2.18Z"/><path class="cls-8" d="M133.88,106.69c5.21-4.32,6.83-11,13.66-13.59,5.16-1.92,9.67-.67,12.81,4.15a22.47,22.47,0,0,1,3.54,10.16c.65,7.25-2.76,13.5-6.86,19.2-4.56,6.35-10.4,12-18.73,12a1.13,1.13,0,0,0,0,2.26c8.85.05,15.31-5.71,20.26-12.51,5.18-7.11,9-14.89,7.16-23.88-1.22-5.84-5.8-15.38-12.92-15A21,21,0,0,0,141,94.26c-3.48,3.17-5.09,7.8-8.75,10.83-1.12.93.48,2.52,1.6,1.6Z"/><path class="cls-9" d="M102.09,153.06c-2.33,1-4,3.39-6.45,4.06-2.8.76-1.61,5.11,1.2,4.35,3-.8,4.8-3.32,7.53-4.52a2.27,2.27,0,0,0,.81-3.09,2.31,2.31,0,0,0-3.09-.81Z"/><path class="cls-9" d="M85.31,136.72c3.22,0,3.22-5,0-5s-3.22,5,0,5Z"/><path class="cls-9" d="M136.49,101a41.47,41.47,0,0,1,6.27,1.76c1.87.53,3.51-.12,5.36,0l-1.95-1.12a8.4,8.4,0,0,1,.72,1.26l.35.67q.31.63.07.07c-1.05,2.71,3.31,3.88,4.35,1.2.83-2.13-1.13-6.36-3.55-6.6a8.35,8.35,0,0,0-2,.22,6.68,6.68,0,0,1-3.53-.57,27.93,27.93,0,0,0-6.13-1.41c-2.88-.36-2.85,4.16,0,4.51Z"/><path class="cls-9" d="M123.06,149.27a5.24,5.24,0,0,0,3.42-2.41,2.28,2.28,0,0,0-.81-3.09,2.31,2.31,0,0,0-3.09.81q-.2.3.12-.13l-.18.2-.2.18q.42-.32.13-.11l-.23.13q-.33.15.17-.07a2.72,2.72,0,0,0-.52.13,2.27,2.27,0,0,0-1.58,2.78,2.32,2.32,0,0,0,2.78,1.58Z"/><path class="cls-9" d="M90.85,146.67a19,19,0,0,1,3.17-.2c1.32,0,2.75-1.48,2.18-2.86a13.46,13.46,0,0,1-.34-9.86H91.51a26.17,26.17,0,0,0,3.3,9.14l3.55-2.74a9.93,9.93,0,0,1-2-7.43c.4-2.84-4-4.07-4.35-1.2a15,15,0,0,0,3.17,11.82c1.6,2.05,4.8-.58,3.55-2.74a22.8,22.8,0,0,1-2.84-8.06c-.38-2.38-3.7-1.9-4.35,0a17.29,17.29,0,0,0,.34,12.26L94,142a26.56,26.56,0,0,0-4.37.36c-2.86.45-1.65,4.8,1.2,4.35Z"/><path class="cls-9" d="M91.86,143.77a5.16,5.16,0,0,1-.21-.71c0-.06-.09-.44,0-.11s0-.15,0-.19l-3.85,1.6c-.37-.45-.07-.08,0,0s.17.32.26.48,0,.09-.07-.18l.08.22c.06.17.12.34.18.51a2.26,2.26,0,1,0,4.35-1.2A9.11,9.11,0,0,0,91,141.15a2.27,2.27,0,0,0-3.85,1.6,7,7,0,0,0,.4,2.22,2.31,2.31,0,0,0,2.78,1.58,2.28,2.28,0,0,0,1.58-2.78Z"/><path class="cls-6" d="M83.29,172.08c6.35-1.63,10-5.71,15.5-8.87l-2.28-3.9c-3.17,1.87-6.4,3.81-10.07,4.47-3.46.62-6.56.57-9.94,1.78-2.72,1-1.55,5.33,1.2,4.35,3.82-1.36,7.73-1,11.58-2.15a42.22,42.22,0,0,0,9.52-4.55c2.5-1.47.24-5.36-2.28-3.9-5,2.91-8.56,6.92-14.42,8.42-2.81.72-1.62,5.08,1.2,4.35Z"/><path class="cls-6" d="M43.19,184.85a116.33,116.33,0,0,0,36.44-13c2.59-1.45.32-5.06-2.28-3.9l-5.23,2.33c-1.4.62-1.34,2.58-.46,3.55a3,3,0,0,0,1.56.91c.24.07,1.88.29,1,0l-1.58-2.78-.1.32,2.78-1.58-.23-.07.54,4.13A84.84,84.84,0,0,1,85.34,170l-1.74-4.13a45.79,45.79,0,0,1-7.08,3.36l1.74,4.13,11.36-5.68c2.6-1.3.31-5.2-2.28-3.9L76,169.44c-2.26,1.13-.68,5,1.74,4.13a52.62,52.62,0,0,0,8.16-3.82c2.14-1.24.69-5.12-1.74-4.13a94,94,0,0,0-10.77,5.21,2.28,2.28,0,0,0,.54,4.13l.23.07a2.3,2.3,0,0,0,2.78-1.58l.1-.32a2.3,2.3,0,0,0-1.58-2.78,2.62,2.62,0,0,0-1-.21q-1.42,0,.41.47l-.46,3.55,5.23-2.33-2.28-3.9A112.61,112.61,0,0,1,42,180.5c-2.86.51-1.65,4.86,1.2,4.35Z"/><path class="cls-6" d="M54.2,180.5A37.31,37.31,0,0,0,68,176.11c2.36-1.3.66-4.57-1.74-4.13l-7.31,1.34c-2.48.45-1.94,4.67.6,4.43,3.44-.32,6.35-1.83,9.48-3.21l5.32-2.35,3-1.34q2.83-.44.38-1.62a2.26,2.26,0,0,0,2.2.58,11.34,11.34,0,0,0,2.86-1.13c2.58-1.35.3-5.24-2.28-3.9l-1.78.67,2.2.58c-1.62-1.74-4.27.21-5.85.91-4.73,2.09-10.42,5.82-15.55,6.3l.6,4.43,7.31-1.34-1.74-4.13A31.33,31.33,0,0,1,54.2,176c-2.85.35-2.88,4.87,0,4.51Z"/><path class="cls-6" d="M28.23,167.33c10.83-3.62,21.18-8.53,31.6-13.17A76.58,76.58,0,0,0,73.19,147c1.61-1.14,3.26-1.47,5-2.36,2.94-1.55,4.35-3.5,7.92-4.21l-1.2-4.35L80,137.16a2.28,2.28,0,0,0-.54,4.13,4.14,4.14,0,0,0,3.21.74c2.86-.31,2.89-4.82,0-4.51l-.93-.13-.54,4.13,4.91-1.08c2.85-.63,1.63-4.92-1.2-4.35a17.59,17.59,0,0,0-6.75,2.85,27.31,27.31,0,0,1-5,2.46c-2.1.91-3.72,3-5.7,4.13a71.21,71.21,0,0,1-7.25,3.57C49.26,154,38.38,159.18,27,163c-2.74.92-1.57,5.28,1.2,4.35Z"/><path class="cls-6" d="M142.09,100.94c4.87.52,5.82,5.31,5.44,9.4H152l.32-3.85h-4.51c-.15,6.77-2.41,12.85-5.75,18.68-2.93,5.1-6.23,10.84-10.81,14.63-4.27,3.54-11.63,2.46-16.89,4a35.46,35.46,0,0,0-12.53,6.89c-1.81,1.5.15,4.31,2.2,3.77,6.18-1.64,12.35-3.61,16.46-8.8a2.29,2.29,0,0,0-1-3.77,24.69,24.69,0,0,0-24.87,7.15,2.27,2.27,0,0,0,2.74,3.55,54.34,54.34,0,0,1,15.47-5.81l-1.74-4.13c-5.7,2.65-12.8,1.42-13.82,9-.24,1.82,2.06,2.64,3.4,1.95a200.8,200.8,0,0,1,28.79-12.17c2.82-.94,1.62-4.77-1.2-4.35a45.58,45.58,0,0,1-8.68.42l1.6,3.85a23.16,23.16,0,0,1,6-4.32c1.68-.8,1.38-.73,0,.41-.6.5-1.26.94-1.91,1.38a2.28,2.28,0,0,0,1.14,4.21,9.59,9.59,0,0,0,4.51-.92c1.87-.79,1.17-3.65-.54-4.13L124,136.28v4.35A30.34,30.34,0,0,0,137.29,134c1.63-1.45-.08-4.58-2.2-3.77l-1,.39c-2.69,1-1.52,5.39,1.2,4.35l1-.39-1.2-4.35c-3,1.24-7.92,5.32-3.77,8.51s6.43-2.66,8.09-5.2c1.18-1.82-1.24-4.43-3.09-3.09-3,2.19-8.52,4.63-8.53,9a2.29,2.29,0,0,0,1.66,2.18c2.73.61,4.34-1.69,5.45-3.92,2-4,2.8-8,6.83-10.59a2.26,2.26,0,0,0-2.28-3.9,13.07,13.07,0,0,0-6.7,8.52,2.28,2.28,0,0,0,3.32,2.55c6.4-3.8,5.52-13,11.73-16.37l-2.74-3.55c-9.14,7.52-13.72,18.65-24.69,24.25a18.09,18.09,0,0,1-9.67,2.16c-2.65-.22-4.95-1.41-7.66-1.18a11.08,11.08,0,0,0-9,6.66,2.29,2.29,0,0,0,1.35,3.32c2.45.72,5.29-1.11,4.39-3.95-1.13-3.53-4.48-1.5-5.74.63a2.32,2.32,0,0,0,.81,3.09c2.95,2.23,6.11-1.47,8.24-3.2,4.8-3.91,11.71-4.89,17.4-7.27,10.27-4.3,19.72-10.35,26.62-19.21,1.73-2.23-1.19-5.4-3.19-3.19l-1.25,1.16,2.74,3.55a15.7,15.7,0,0,1,1.7-1.52,2.27,2.27,0,0,0-1-3.77l-1-.16,1.58,2.78c.85-3.11,1.4-6.26,2-9.43h-4.35a18.44,18.44,0,0,1,.56,5.08h4.51c-.46-4.42-3.3-8.91-1.88-13.31l-4.13.54a16.59,16.59,0,0,1,.94,1.57l1.12-1.95-.15.07h2.28q-.2,0-.06-.23l-4.13.54c3.94,6.88-.72,13.18-6.29,17.18a57.15,57.15,0,0,0-5.69,4.33c-2.23,2.07-3.85,4.68-6.85,5.74-2.71,1-1.58,5.27,1.2,4.35a50.31,50.31,0,0,0,13.06-6.45,2.29,2.29,0,0,0-.54-4.13c-3-1-5.48.47-7.87,2.25a52.21,52.21,0,0,1-13.5,6.95c-9.31,3.46-19.77,5.62-28.41,10.56-2.52,1.44-.25,5.34,2.28,3.9,7.85-4.49,17.43-6.44,25.89-9.57a97.56,97.56,0,0,0,10.55-4.29c2.3-1.17,7.24-6.28,9.86-5.44l-.54-4.13a46.15,46.15,0,0,1-12,6l1.2,4.35c3.43-1.21,5.45-3.48,7.95-6,3.21-3.25,7.46-5.23,10.6-8.54,5.05-5.33,6.71-12.83,3-19.33a2.28,2.28,0,0,0-4.13.54c-.86,2.71,1.43,6.71,4.57,5.26a2.25,2.25,0,0,0,1.12-1.95c.07-1.41-.86-2.72-1.56-3.85a2.29,2.29,0,0,0-4.13.54c-1.7,5.27,1.18,9.34,1.72,14.51.29,2.83,4.45,3,4.51,0a22.86,22.86,0,0,0-.73-6.28c-.52-2.06-4-2.24-4.35,0-.57,3.17-1.12,6.32-2,9.43a2.27,2.27,0,0,0,1.58,2.78l1,.16-1-3.77a15.7,15.7,0,0,0-1.7,1.52c-1.8,1.73.61,5.07,2.74,3.55a11.28,11.28,0,0,0,2.16-1.87l-3.19-3.19c-6.09,7.82-14.18,13.37-23.17,17.41a121.54,121.54,0,0,1-13.76,5,16.2,16.2,0,0,0-4.86,2.3c-.53.38-5,4.26-5,4.3l.81,3.09-1.35-3.32,1.35,3.32c3.34-7,9.19-3,15-3.24,4.88-.24,9.36-2.26,13.37-4.95,9.11-6.1,13.68-15.95,22-22.8,2-1.68-.56-4.73-2.74-3.55-6.68,3.65-5.62,12.74-11.73,16.37l3.32,2.55a8.73,8.73,0,0,1,4.63-5.82l-2.28-3.9a17.38,17.38,0,0,0-5.5,5.55c-1.8,2.89-2.21,7-4.95,9.21l2.2-.58-.56-.12,1.66,2.18c0-1.63,4.95-4.09,6.29-5.07l-3.09-3.09c-1,1.59-2.69,4.76.78,3.32,2.62-1.09,1.55-5.4-1.2-4.35l-1,.39c-2.69,1-1.52,5.39,1.2,4.35l1-.39-2.2-3.77a25.6,25.6,0,0,1-11.25,5.49,2.28,2.28,0,0,0,0,4.35l6.34,1.76-.54-4.13-2.23.3,1.14,4.21c2.6-1.76,8.35-5.91,4.48-9.28-4.44-3.88-10.91,1.77-14,4.72a2.28,2.28,0,0,0,1.6,3.85,51.71,51.71,0,0,0,9.88-.58l-1.2-4.35a208.45,208.45,0,0,0-29.86,12.63l3.4,1.95c.36-2.67,4.59-2.72,6.44-3.21a31.14,31.14,0,0,0,5.15-1.93c2.43-1.13.64-4.63-1.74-4.13a58.38,58.38,0,0,0-16.55,6.26l2.74,3.55a20.11,20.11,0,0,1,20.48-6l-1-3.77c-3.66,4.62-9,6.18-14.47,7.63l2.2,3.77c5.53-4.58,12.08-6.71,19.17-7.25,5.71-.43,9.22-2.23,13.07-6.53,8.05-9,14.78-21.37,15.06-33.64.07-2.94-4.28-2.86-4.51,0l-.32,3.85c-.24,2.9,4.25,2.86,4.51,0,.65-7-2.61-13.12-10-13.91-2.89-.31-2.86,4.21,0,4.51Z"/><path class="cls-6" d="M88.61,146.6c1.09,3.66,3,8.36,7.71,6.8a2.29,2.29,0,0,0,1-3.77c-2.78-3.11-3.78-7.09-5.15-10.93a2.29,2.29,0,0,0-4.13-.54l-.28.43,4.13.54a9.26,9.26,0,0,1-.59-4.06l-4.43.6a7.41,7.41,0,0,1,.22,5l4.43.6c-.29-2.88.3-5.7.6-8.56A2.22,2.22,0,0,0,91,130.72c-4.22-2.52-9.22,2-13.7,2.48l.6,4.43q8.09-2.75,16-5.92a2.28,2.28,0,0,0,0-4.35,6.26,6.26,0,0,0-4.62,0,2.26,2.26,0,0,0,1.2,4.35c8.44-1.31,13.28-10.84,18.73-16.51,7.49-7.79,16.45-14.86,27.74-14.9,2.9,0,2.91-4.53,0-4.51-9.87,0-18.36,4.73-25.63,11.11a109.78,109.78,0,0,0-10.83,11.25c-3.26,3.81-5.9,8.39-11.21,9.22l1.2,4.35h2.22v-4.35q-7.94,3.17-16,5.92c-2.25.77-2.08,4.72.6,4.43a26.19,26.19,0,0,0,7.12-1.81c1.81-.72,3.16-2,4.3-1.29l-1.12-1.95c-.3,2.89-.89,5.66-.6,8.56.24,2.34,3.86,3.29,4.43.6a14.28,14.28,0,0,0-.22-7.37,2.27,2.27,0,0,0-4.43.6,17.93,17.93,0,0,0,.75,5.26,2.29,2.29,0,0,0,4.13.54l.28-.43-4.13-.54c1.65,4.64,3,9.18,6.31,12.93l1-3.77c-1.29.43-1.91-2.81-2.16-3.64-.83-2.78-5.18-1.6-4.35,1.2Z"/><path class="cls-6" d="M83.1,168.2c4.78-4.83,11.64-7,17.24-10.94l-2.74-3.55a19.77,19.77,0,0,1-5.87,3.75c-2.61,1.07-1.65,5.24,1.2,4.35a81.89,81.89,0,0,0,9.2-4c3.42-1.54,7.22-1.58,10.59-3.2,5.29-2.54,8.68-7.9,14.56-9.32l-1.74-4.13c-4.46,2.63-9.38,3.31-14.38,4.28a19.08,19.08,0,0,0-5.21,1.65c-2,1-5.7,4.75-8.11,2.62-1.29-1.14-4.12-.51-3.85,1.6l.52,4.15,4.43-.6c-1-4.34-3.9-7.13-6.67-10.44-1.87-2.23-5,1-3.19,3.19,2.26,2.7,4.67,4.9,5.51,8.45.57,2.42,4.75,2,4.43-.6l-.52-4.15-3.85,1.6c4.85,4.29,8.43.83,13.1-1.66,3.13-1.66,6.91-1.72,10.32-2.5a33.72,33.72,0,0,0,9.75-3.68,2.27,2.27,0,0,0-1.74-4.13c-5.64,1.37-8.86,5.61-13.57,8.59-3.34,2.12-7.07,2.09-10.67,3.5-3.45,1.34-6.55,3.3-10.11,4.41l1.2,4.35a26.21,26.21,0,0,0,7.86-4.91c1.87-1.69-.63-5-2.74-3.55a59.23,59.23,0,0,1-11.33,6.52c-3,1.25-4.58,2.86-6.82,5.13-2,2.07,1.14,5.26,3.19,3.19Z"/><path class="cls-6" d="M101.43,150c6.36-4.66,14.25-6,21-10a42.49,42.49,0,0,0,9.25-7.58c1.35-1.43,2.59-3,3.88-4.44q.8-1,1.69-1.89,2.93-1.86-3.61-3.48l.92-3.42c.91-1.6,2.29-1.18,0-1a29.63,29.63,0,0,1-3.46.38,17.13,17.13,0,0,1-5.36-1.17c-4.36-1.54-8.39-2.45-13-1.61a21.06,21.06,0,0,0-11,5.81c-2.28,2.25-4.92,7.61-8.1,8.51h3.6l3.2,3.17-6.53,8.57a28.23,28.23,0,0,0,7.73-1.61L95,129c-.31.25-1-.18-1.35-.38l-3.42,12.62A38.3,38.3,0,0,0,99,139.45c2.84-1,5.74-2.92,8.77-3.26,2.78-.32,5.29.69,8.11,0s4.65-2.29,6.73-4.12a51.21,51.21,0,0,1,14-9.14c2.51-1.06,5.38-1.52,7.56-3.24,2.69-2.13,3.15-5.72,3.84-8.86,1.13-5.19,2.4-11.9-4.5-13.57-5.43-1.31-13.69-.92-18.72,1.51a45.06,45.06,0,0,0-13.36,10.75A143.52,143.52,0,0,1,97.68,123c-5.72,5.09,1.74,14.79,8.21,10.64a42.76,42.76,0,0,0,8.92-7.86c1-1.09,6.48-6.94,5.52-8.12q-4.56,3.28-1,2.07a21.88,21.88,0,0,1,2.61-.29c1.48-.13,3-.16,4.45-.29a36.77,36.77,0,0,0,11.89-2.86c3.38-1.46,4.08-6.36,2.43-9.26-2-3.49-5.93-3.87-9.26-2.43-6.2,2.67-13.83,0-19.84,3.51-2.7,1.59-3.26,4.23-5,6.52A32,32,0,0,1,99.05,122l8.21,10.64c2.85-2.53,5.76-5,8.55-7.61s4.64-5.56,7.25-8.1c2.08-2,5.14-5.18,7.9-6.16a22.22,22.22,0,0,1,9.42-.3l-4-3.11.23.45-.92-3.42a31.73,31.73,0,0,1-2.13,8.22l3.11-4c-3.84,1.92-8,3-11.77,5.16a62.59,62.59,0,0,0-10.75,7.82c-1.74,1.56-1.51,1.74-3.62,1.29a16.37,16.37,0,0,0-7,.55c-4.51,1.13-8.45,3.82-13.16,4.32-6.35.68-9.63,8.93-3.42,12.62,6,3.57,12.47,2.52,17.76-1.73,5.14-4.13-.42-13.84-6.59-11.32a14.91,14.91,0,0,1-4.13,1.13c-4.7.54-7.29,3.87-6.53,8.57,1.16,7.17,9.61,7.64,14.41,4a40.29,40.29,0,0,0,6.45-6.15c1.63-1.93,3.11-4.24,5.52-5.24,2.8-1.17,5.08-.22,7.78.72a30.44,30.44,0,0,0,8.84,1.88c5.15.21,13.26-.92,15.86-6.1,2.8-5.57-1-11.94-6.79-13.36-6.17-1.51-10.74,2.55-14.44,6.87-3.9,4.54-7.78,8.33-13.34,10.74-5.82,2.52-11.9,4.21-17.09,8-3,2.18-4.37,5.85-2.43,9.26,1.67,2.93,6.32,4.58,9.26,2.43Z"/><path class="cls-6" d="M94.9,152.47l-5.06,4.73c-1.47,1.37-3.33,2.67-3.28,4.88.07,2.9,4.58,2.91,4.51,0,0,0,1.35-1.12,1.5-1.26l1.84-1.72,3.68-3.44c2.13-2-1.07-5.17-3.19-3.19Z"/><path class="cls-10" d="M89.7,128.64c9.3-1.68,12.67-10.82,18.42-17.15A39.73,39.73,0,0,1,136.77,98c1.45,0,1.46-2.3,0-2.26a41.12,41.12,0,0,0-25.75,9.8,53,53,0,0,0-8.91,9.89c-3.51,5-6.59,9.86-13,11-1.43.26-.82,2.43.6,2.18Z"/><path class="cls-10" d="M104.67,158c5.2-1.09,9.17-3.73,13.73-6.33,5.43-3.1,11.58-5.52,16.73-9,4.1-2.79,6.64-7,9-11.22,3.15-5.58,6.07-11.27,8.86-17,.63-1.3-1.31-2.45-1.95-1.14-2.43,5-4.95,10-7.64,14.85-2.81,5.1-5.63,10.37-10.8,13.42-4.51,2.66-9.37,4.82-13.94,7.39-4.81,2.7-9.13,5.75-14.61,6.9-1.42.3-.82,2.47.6,2.18Z"/><path class="cls-10" d="M85.89,135.73a21.39,21.39,0,0,0,8.89,19.68c1.18.85,2.31-1.11,1.14-1.95a19.15,19.15,0,0,1-7.77-17.73c.15-1.44-2.11-1.43-2.26,0Z"/><path class="cls-10" d="M135.39,97.41A14.83,14.83,0,0,0,140.67,99c3.37.36,7.34-.8,9.18,2.73,2.82,5.42,1.55,12.78-1.81,17.57-.84,1.19,1.12,2.32,1.95,1.14a20.39,20.39,0,0,0,2.52-17.86c-.72-2.4-1.33-4.38-3.75-5.23-4-1.41-8.2.14-12.23-1.89-1.29-.65-2.44,1.29-1.14,1.95Z"/><path class="cls-10" d="M93.86,154.14a59.34,59.34,0,0,1-16.67,9.15,1.13,1.13,0,0,0,.3,2.22c10.17.48,19.55-3.1,28.39-7.8,1.28-.68.14-2.63-1.14-1.95-8.51,4.53-17.47,8-27.25,7.49l.3,2.22a62.74,62.74,0,0,0,17.66-9.73c1.15-.89-.46-2.48-1.6-1.6Z"/><path class="cls-10" d="M79.06,137.33c-8.73,6.47-18.83,10.89-28.65,15.42q-16.07,7.42-32.65,13.63c-1.09.41-1.07,2.35.3,2.22,25-2.42,47.32-16.78,69.19-28,1.29-.67.15-2.61-1.14-1.95-21.47,11.06-43.49,25.37-68,27.74l.3,2.22q16-6,31.65-13.15c10.33-4.72,21-9.34,30.19-16.13,1.15-.86,0-2.82-1.14-1.95Z"/><path class="cls-10" d="M92.7,154.26c-9.14,6.66-19.16,11.86-29.25,16.9-10.26,5.13-20.52,10.21-32,12-1.31.2-.91,2.16.3,2.22,14.33.61,28.43-4.26,41.82-8.86,11.14-3.82,22.38-8.73,30.13-17.93.93-1.1-.66-2.71-1.6-1.6-7.83,9.28-19.25,14-30.5,17.81-12.82,4.3-26.17,8.9-39.85,8.31l.3,2.22c11.09-1.72,21.07-6.51,31-11.47,10.59-5.28,21.15-10.66,30.75-17.64,1.16-.85,0-2.81-1.14-1.95Z"/><path class="cls-10" d="M89.9,126.18c-5.26,4.33-11.56,6.48-18,8.48a1.14,1.14,0,0,0,0,2.18,24.72,24.72,0,0,0,15.52-.25c1.37-.45.79-2.63-.6-2.18a22.63,22.63,0,0,1-14.32.25v2.18c6.82-2.12,13.39-4.47,19-9.06,1.12-.92-.48-2.51-1.6-1.6Z"/><circle class="cls-10" cx="99.02" cy="148" r="2.83" transform="translate(-78.82 157.16) rotate(-59.16)"/><path class="cls-10" d="M88.81,128.75a2.63,2.63,0,0,1,.72-3.21,2.43,2.43,0,0,1,3.21.38"/><path class="cls-6" d="M138,134.13a38.63,38.63,0,0,0,6-7.65c1.41-2.54-2.48-4.82-3.9-2.28a33.83,33.83,0,0,1-5.29,6.74c-2,2.11,1.19,5.31,3.19,3.19Z"/><path class="cls-8" d="M178.35,121c7.5,6.55,1.42,15.6-5.19,19.66a43,43,0,0,1-10.62,4.86,21.14,21.14,0,0,1-5.84.92c-1.32,0-11.65-1.51-8.06-5.7.94-1.1-.65-2.7-1.6-1.6-2.86,3.35-.09,6.82,3.29,8.31,6.44,2.84,13.72.41,19.66-2.5,5.15-2.53,10.78-5.9,13-11.48a12.37,12.37,0,0,0-3.08-14.05c-1.09-1-2.69.64-1.6,1.6Z"/><path class="cls-8" d="M147.86,144.63c-3.5,0-3.86,6.13-3.52,8.66.59,4.38,4.85,5.28,8.65,5a44.88,44.88,0,0,0,18.48-5.75c5.19-2.93,7.08-6,6.37-12-.17-1.43-2.43-1.44-2.26,0,.51,4.29-.65,7.36-4.57,9.67a43.77,43.77,0,0,1-9.08,4A39.48,39.48,0,0,1,153,156c-1,.07-3.13.27-4-.26l-2.38-4.26a9.48,9.48,0,0,1,1.24-4.63,1.13,1.13,0,0,0,0-2.26Z"/><path class="cls-8" d="M143.23,149.34c-3.44,2.41-6.76,5.35-5.77,10,.83,3.91,4.79,7.92,8.52,9.2,9.49,3.24,20.25-7.84,23.21-15.75.51-1.36-1.67-2-2.18-.6A24.12,24.12,0,0,1,153,165.92c-4.32,1.56-7.94.39-10.89-2.93-4.14-4.66-2.19-8.55,2.3-11.7,1.18-.83.05-2.79-1.14-1.95Z"/><path class="cls-8" d="M137.25,157.34c-2.33.25-7.05.4-8.41,2.75s.46,6.36,1.86,8.24c4.62,6.2,11.8,4.17,17.64,1.12,1.29-.67.15-2.62-1.14-1.95-3.78,2-8.21,4.12-12.31,1.67-1.69-1-3.74-3.25-3.89-5.35-.29-3.92,3.75-3.95,6.25-4.22,1.43-.15,1.44-2.41,0-2.26Z"/><path class="cls-8" d="M132.55,167.38a71.66,71.66,0,0,1-7.56-.72c-2.46-.3-6.45-.08-8.38-1.79l-1.1,1.89A20.46,20.46,0,0,0,129,165.27c1.32-.61.17-2.56-1.14-1.95a18,18,0,0,1-11.73,1.26c-1-.23-2,1.09-1.1,1.89,1.83,1.62,4,1.72,6.38,2a106.5,106.5,0,0,0,11.15,1.16,1.13,1.13,0,0,0,0-2.26Z"/><path class="cls-8" d="M132,168.6c-6.39,1.36-10.84,5.69-15,10.5-1.49,1.74-5.48,8-8.27,7.9-7.18-.22-.34-5.15.46-6a28.53,28.53,0,0,0,2.81-3.67,1.14,1.14,0,0,0-.67-1.66,12.78,12.78,0,0,1-1.55-.29q-1,.07.16-.21a8.35,8.35,0,0,1,1.87-.48c1.05-.23,1-1.53.27-2.06l.65-3.92a7.41,7.41,0,0,1,2.5-.08c1.18,0,2.3.21,3.49.21a1.13,1.13,0,0,0,0-2.26c-3,0-7.32-1.27-9.32,1.85-1.43,2.23-.4,4.68,1.53,6.14l.27-2.06c-1.67.36-4.55.52-4.58,2.89s2.47,1.95,4.09,2.45l-.67-1.66c-1.79,2.67-4.54,4.25-6.41,6.65a3.15,3.15,0,0,0-.85,3.19c.57,2.39,3.28,3.52,5.52,3.32,4.12-.38,6.91-4.64,9.32-7.49,4.13-4.89,8.4-9.68,14.93-11.08,1.42-.3.82-2.48-.6-2.18Z"/><path class="cls-8" d="M141.47,138.27c-2.48,2.72-9.22,9.89-2.74,12.41,1.35.53,1.94-1.65.6-2.18-3.63-1.41,2.58-7.36,3.74-8.64,1-1.07-.61-2.67-1.6-1.6Z"/><path class="cls-8" d="M148.69,138.66l-2.86.23a3.38,3.38,0,0,0-2.09.61,3.31,3.31,0,0,0-.86,1.89c-.21.9-.4,1.81-.6,2.71-.32,1.42,1.86,2,2.18.6l.39-1.74c.08-.38.12-1.35.37-1.64s1.07-.21,1.44-.24l2-.17c1.44-.12,1.45-2.38,0-2.26Z"/><path class="cls-8" d="M146.47,144c-.88.38-1.91.21-2.82.51a4.52,4.52,0,0,0-1.75,1.06,9.88,9.88,0,0,0-2.17,3.93c-.49,1.37,1.69,2,2.18.6a6.23,6.23,0,0,1,1.85-3.15c1.05-.73,2.65-.49,3.85-1s.18-2.51-1.14-1.95Z"/><path class="cls-8" d="M145,147.82c-3.9.74-9.91,2.07-12.47,5.4-.88,1.15,1.08,2.28,1.95,1.14,1.12-1.46,4.15-2.38,5.76-3a35.58,35.58,0,0,1,5.36-1.42c1.43-.27.82-2.44-.6-2.18Z"/><path class="cls-8" d="M128.59,160.4c-4.72.94-8.69-.66-13.3-1.07a8.84,8.84,0,0,0-7.06,2c-2.88,2.81-3.28,9.52,1.95,9.09,1.44-.12,1.45-2.38,0-2.26q-3.69-2.7.69-6a7.56,7.56,0,0,1,3.67-.71c2.15,0,4.28.84,6.38,1.21a21.84,21.84,0,0,0,8.27-.15c1.42-.28.82-2.46-.6-2.18Z"/><path class="cls-7" d="M115.1,137.5c5.71,1.1,12.32-4.21,15.22-8.74L127.4,127a12.65,12.65,0,0,1-8.43,5.78c-2.13.44-1.23,3.7.9,3.26a16,16,0,0,0,10.46-7.34c1.16-1.85-1.75-3.54-2.92-1.71a15.57,15.57,0,0,1-4.83,4.71c-1.8,1.16-4.32,2.9-6.57,2.47s-3,2.85-.9,3.26Z"/><path class="cls-7" d="M117,136.73l6.85-3.85a29.63,29.63,0,0,0,5.81-3.62c1.6-1.48-.79-3.87-2.39-2.39s-4,2.46-5.93,3.54l-6,3.4c-1.9,1.07-.19,4,1.71,2.92Z"/><path class="cls-6" d="M136.85,192.41l.71,1.07a2.29,2.29,0,0,0,3.85,1.6,25.19,25.19,0,0,0,4.18-5.21,2.28,2.28,0,0,0-1.95-3.4A7.17,7.17,0,0,0,138,189a2.26,2.26,0,0,0,3.19,3.19c1.11-1,3.35-4,4.86-4.23l-2.2-.58q-.49-1.65-1.62.56l-2.56,2.39c-1.94,1.81.52,4.67,2.74,3.55,4.16-2.12,6.16-6,9.26-9.3,3.55-3.76,9-3.45,12.62-7,1.53-1.5,0-4.58-2.2-3.77-4.42,1.64-8.92,3.15-13.28,4.94-2.72,1.12-5,2.49-6.42,5.18l4.13.54-.54-3.18-.58,2.2a7.65,7.65,0,0,1,2.07-2.05c2.32-1.67.18-5.52-2.28-3.9l-3.7,2.44c-2,1.34-.81,5,1.74,4.13a12.36,12.36,0,0,0,7.29-6l-4.13-1.74c-.7,1.7-.24,2.73-.4,4.5-.27,3-2,4.81-4,6.84l3.55,2.74c2.05-4.85,5.83-9.2,3.57-14.69a2.27,2.27,0,0,0-4.43.6l.18-.32,1.74,4.13a8.45,8.45,0,0,1,7.33-1.7l.6-4.43c-4.26-.4-8.36.8-8.71,5.62a2.27,2.27,0,0,0,2.86,2.18l14.8-6.05c2.14-.88,2.18-4.62-.6-4.43a93.29,93.29,0,0,1-20.89-.86c-2.81-.44-4.09,3.77-1.2,4.35l.45.2c1.26,1.27,4.1.42,3.85-1.6-.37-3.1,8.25-.87,9-.51l1.74-4.13c-4.17-1.34-9.55-1.32-10.5,4a2.31,2.31,0,0,0,2.18,2.86c3.67.43,8.29.81,11.67-1a2.22,2.22,0,0,0,1.12-1.95l0-.43a2.39,2.39,0,0,0-1.66-2.18l-.35-.14.54,4.13q2.84-2.06,5.57.65l2.86-2.18-.81-.71-3.19,3.19a12.94,12.94,0,0,0,16.6,2.25c2.31-1.45.69-4.47-1.74-4.13-1.6.22-5.84.51-7.37-.26l-1.31-.24q-1.08-3.39,1.49-2.63l-1.14-4.21c-2.21,1.05-6,2.33-4.54,5.56,1.35,3,5.85,3.94,8.74,4.11,2,.12,2.9-2.52,1.6-3.85l-2.84-2.91L170,172.16c4.15,2.52,9.56,4.81,14.52,4.21s9.74-6.1,13.46-9l-3.19-3.19-6.25,5,3.19,3.19,3-2.63c1.62-1.43-.09-4.63-2.2-3.77a25.61,25.61,0,0,1-18.31.63c-2.5-.83-3.84,2.8-1.74,4.13a21.23,21.23,0,0,0,17.35,2.55c2.56-.7,1.86-4.24-.6-4.43a48.53,48.53,0,0,1-15.8-4l.46,3.55,5.35-6.78-3.55-2.74c-1.76,2.63-5.45,5.52-2.3,8.77a4.44,4.44,0,0,0,3.92,1.16c1.54-.17,4.51-2.43,5.76-1.49l1.14-4.21a36.83,36.83,0,0,1-6.73-1.36,2.27,2.27,0,0,0-1.74,4.13c4.6,2.66,9.43,4.91,14.74,3.07,1.93-.67,2.36-3.9,0-4.35a30.32,30.32,0,0,0-13.16.27,2.28,2.28,0,0,0,0,4.35,22,22,0,0,0,16.39-1.82l-3.4-1.95a6.31,6.31,0,0,1-1,3.52l3.55-.46c-.45-.58,5.42-4.46,6.1-4.94l-3.32-1.35.09,1.38,1.58-1.58c-5.51,2-10.93-3.52-16.83-1.68-1.27.4-2.24,2.08-1.35,3.32a6.71,6.71,0,0,0,7.33,2.84c2.37-.47,4.53-1.8,6.79-2.6a42.4,42.4,0,0,1,9.11-2.09l-.6-4.43L197.11,159c-2.26.81-2.1,4.56.6,4.43,6.48-.3,13.06-5.29,12.12-12.15-.24-1.74-2.7-2.08-3.77-1-3.53,3.55-6.7,6.07-11.77,6.91-4.71.78-9.46,1.38-14.18,2.07l2.78,1.58a4.45,4.45,0,0,1,1.39-4.2l-3.55-.46,0,.93a2.28,2.28,0,0,0,2.78,2.78l18.71-3.72-2.78-1.58.13.51.58-2.2c-1.21,1.41-6.44,1.79-8.29,2.23l-8.18,2c-2.43.59-2,4.6.6,4.43,3-.2,6.61-1.07,7.16-4.61a4.43,4.43,0,0,0-1-3.64c-1.14-1.38-4.71-1.83-5.14-3.43a2.29,2.29,0,0,0-3.77-1c-1.58,1.35-1.41,3.22-.09,4.67a2.28,2.28,0,0,0,3.55-.46c1.74-2.89,2.94-6.83-.49-8.81-3.59-2.06-7.94-1.62-11.64-.2l2.2,3.77c3.91-4.11,11.22-1.48,12.92-8.34.58-2.36-2.07-3.52-3.77-2.2s-4,3.18-6.21,3.6l2.55,1c-.63-1,3.39-7.29,4-8.53,1.53-3,3.18-5.84,4.91-8.69h-3.9c1,2-3.35,7.33-4.42,9-1.72,2.69-3.58,5.28-5.52,7.82-1.51,2,1.3,3.95,3.09,3.09l8.41-4L183.82,138a11.88,11.88,0,0,0,4.26,11.6l2.2-3.77c-1.39-.56-2-2.07-2.64-3.33l-3.9,2.28a14.66,14.66,0,0,1,2.09,7.58l4.43-.6a23.28,23.28,0,0,1-1.84-10.26h-4.51a35.42,35.42,0,0,1-.45,7.2h4.35c-.35-1.79-2-7.58.14-2.89a41.31,41.31,0,0,1,2.77,9.12l4.13-1.74a18.83,18.83,0,0,1-2.89-5.46c-.79-2.37-4.41-2-4.43.6a27.25,27.25,0,0,0,1.11,8,2.29,2.29,0,0,0,4.13.54c2-3,7.51-3,10.63-4.25a32.37,32.37,0,0,0,8.27-4.7c2.12-1.66,5.19-4,5.88-6.76a4.63,4.63,0,0,0-.22-2.83,13,13,0,0,0-2.06-2.53l-3.55.46,1.91,1.65a2.29,2.29,0,0,0,3.85-1.6,3.93,3.93,0,0,0-.94-3c-.66-.87-2.49-1.5-2.78-2.51L211,133.59c-.73-.24-1.54,3.12-1.64,3.49-.86,2.95-1.74,3.91-4.47,5.38-4.13,2.22-8.28,4.41-12.42,6.61l2.28,3.9a39.78,39.78,0,0,1,15.46-6.51l-1.2-4.35a20.11,20.11,0,0,0-10.11,6.34c-1.58,1.83.47,5,2.74,3.55,3.5-2.31,7.23-4.45,10.58-7,1.94-1.45,3.16-2.68,3.29-5.18.15-2.9-4.36-2.89-4.51,0-.08,1.47-4.71,3.69-5.68,4.33l-6,3.92,2.74,3.55a15.89,15.89,0,0,1,8.12-5.18c2.83-.79,1.62-4.9-1.2-4.35a42.86,42.86,0,0,0-16.54,7,2.26,2.26,0,0,0,2.28,3.9c3.9-2.08,7.8-4.14,11.69-6.23,2.48-1.33,5.29-2.64,6.53-5.34.69-1.51.74-3.23,1.26-4.8.35-1.05,1-1.84,1.11-3a4.07,4.07,0,0,0-3.13-4.36A2.27,2.27,0,0,0,209.4,132a5,5,0,0,0,1.27,2.37c.52.57,2.3,1.19,2.29,2l3.85-1.6-1.91-1.65a2.3,2.3,0,0,0-3.55.46c-1.44,2.11-.44,3.32.5,5.31s.58,2.41-1.25,4.1a27.83,27.83,0,0,1-5.17,3.76c-5.28,3-13,2.52-16.57,7.91l4.13.54a23,23,0,0,1-.95-6.85l-4.43.6a22.84,22.84,0,0,0,3.35,6.54,2.27,2.27,0,0,0,4.13-1.74c-.83-4.27-2.64-14.74-8.4-15.3-6.68-.65-3.88,8-3.21,11.47.42,2.13,4,2.18,4.35,0a41.6,41.6,0,0,0,.61-8.4,2.26,2.26,0,0,0-4.51,0,26.15,26.15,0,0,0,2,11.46c.91,2.19,4.46,2.16,4.43-.6a19.23,19.23,0,0,0-2.71-9.86c-1.47-2.54-5.17-.31-3.9,2.28s2.65,4.32,5.33,5.41c2.05.83,3.92-2.4,2.2-3.77a7.48,7.48,0,0,1-3.1-7.2,2.29,2.29,0,0,0-3.32-2.55l-8.41,4,3.09,3.09a108,108,0,0,0,8.39-12.61c1.67-3,3.09-5.5,1.54-8.76-.75-1.59-3.08-1.35-3.9,0a148.55,148.55,0,0,0-7.12,13.15c-1.24,2.62-3.57,5.83-1.81,8.61a2.35,2.35,0,0,0,2.55,1c3.07-.58,5.79-2.88,8.21-4.76l-3.77-2.2c-.73,3-4.85,2.85-7.12,3.55a10.1,10.1,0,0,0-4.65,2.8c-1.44,1.51,0,4.63,2.2,3.77,3.19-1.23,6.25-1.56,9.21.46l-1.12-1.95a5.16,5.16,0,0,1-1.06,3.86l3.55-.46.09,1.71L181,151a5.24,5.24,0,0,0,2,3.11c1.11.85,5.38,2.59,1.37,2.85l.6,4.43c5.14-1.25,10.49-2.2,15.54-3.78,2.14-.67,4-1.76,3.37-4.31a2.31,2.31,0,0,0-2.78-1.58l-18.71,3.72,2.78,2.78a5.62,5.62,0,0,0-.48-4.41,2.27,2.27,0,0,0-3.55-.46,9.72,9.72,0,0,0-2.55,8.59c.19,1.31,1.7,1.73,2.78,1.58,5.66-.82,11.85-1.08,17.33-2.72,4.3-1.29,7.51-4.29,10.61-7.41l-3.77-1c.48,3.54-4.71,6.3-7.77,6.44l.6,4.43,4.58-1.64c2.21-.79,2.1-4.76-.6-4.43a49.69,49.69,0,0,0-8.73,1.73c-2.17.67-9,4.6-10.6,2.36l-1.35,3.32c5.67-1.77,10.86,3.81,16.83,1.68a2.27,2.27,0,0,0,1.58-1.58,7.22,7.22,0,0,0-.09-3.78,2.27,2.27,0,0,0-3.32-1.35c-3.92,2.77-11.32,6.5-7,12,.89,1.15,2.91.7,3.55-.46a13.31,13.31,0,0,0,1.66-5.8c.12-1.8-2-2.69-3.4-1.95a17.12,17.12,0,0,1-12.91,1.37v4.35a24.63,24.63,0,0,1,10.76-.27v-4.35c-4.07,1.42-7.77-.6-11.26-2.61l-1.74,4.13a43.6,43.6,0,0,0,7.93,1.52c2.49.26,2.7-3,1.14-4.21a5.1,5.1,0,0,0-5.05-.58c-3.11,1-2.34.75-.71-1.69,1.41-2.1-1.95-4.76-3.55-2.74l-5.35,6.78c-.79,1-1,2.9.46,3.55a55.21,55.21,0,0,0,18.08,4.58l-.6-4.43a16.82,16.82,0,0,1-13.87-2.09L173,170.87a29.39,29.39,0,0,0,20.71-.63l-2.2-3.77-3,2.63c-2.21,2,1,5,3.19,3.19l6.25-5c2.28-1.81-.94-5-3.19-3.19-2.67,2.11-6.39,6.32-9.64,7.48-4,1.43-9.59-1.35-12.87-3.35-2.21-1.34-4.52,1.72-2.74,3.55l2.84,2.91,1.6-3.85-2.1-.28q-1.73-1.95-2.34-.24-1,1.15.33.3l2.19-1c2.15-1,.93-4.11-1.14-4.21-4.23-.2-10.4,2-8.14,7.5s11.79,5.16,16.53,4.49l-1.74-4.13a8.41,8.41,0,0,1-11.13-1.55c-2-2.17-5,1-3.19,3.19a5.37,5.37,0,0,0,2.81,1.87c1.42.55,2.83-.84,2.86-2.18.17-7.26-7.66-6.63-12.36-4.54-2,.89-1,3.49.54,4.13l.35.14-1.66-2.18,0,.43,1.12-1.95c-2.48,1.34-6.68.71-9.39.4l2.18,2.86q2.42-2.17,4.94-.82c2.39.77,4.09-3.05,1.74-4.13-4.44-2-16.81-3.7-15.84,4.41l3.85-1.6a4,4,0,0,0-2.44-1.36l-1.2,4.35a98.51,98.51,0,0,0,22.09,1l-.6-4.43-14.8,6.05,2.86,2.18a4.45,4.45,0,0,1,4.2-1.11c2.53.24,3.07-3.9.6-4.43a12.82,12.82,0,0,0-10.81,2.15c-1.93,1.41-.89,4.94,1.74,4.13a4,4,0,0,0,3.13-4l-4.43.6c1.66,4-1.61,7.64-3.12,11.21-.92,2.18,1.61,4.75,3.55,2.74a20.42,20.42,0,0,0,4.54-6.19c1-2.37.05-4.89,1-7.14s-2.92-3.95-4.13-1.74a8,8,0,0,1-4.6,4l1.74,4.13,3.7-2.44-2.28-3.9c-3.58,2.58-3.74,3.93-3,8.14.32,1.91,3.28,2.18,4.13.54,1.49-2.88,5-3.6,7.85-4.65l9.16-3.4-2.2-3.77c-3.2,3.15-8.41,3-11.83,6.22-3.22,3.07-5,7.33-9.15,9.42l2.74,3.55c2-1.91,7.82-5.78,4.45-9.09-3.12-3.06-7.39,2.77-9.33,4.56l3.19,3.19,2.49-1.2-1.95-3.4a20.88,20.88,0,0,1-3.47,4.3l3.85,1.6a5.1,5.1,0,0,0-2-4.27c-2.25-1.79-5.47,1.38-3.19,3.19Z"/><path class="cls-6" d="M182.29,109.71a12.15,12.15,0,0,1,5.87-1.34c5.18,0,6-7.35,1.2-8.87l-.86-.27,2,7.55.67-.57L188,107.53c-2.33,0,1.43,2.14,1.42,1.84l7.71-3.19-.08-.28-8.41,2.28c4.25,7.44,3.27,20.18-4.68,24.72l6.18,6.18a31.78,31.78,0,0,0,.73-34.17l-6.18,6.18c3.46,1.64,3,7.91,3.24,11.19.26,3.86.27,7.71.21,11.58-.12,6.89.42,13.28,5.15,18.67l6.38-6.38a12,12,0,0,1-2.36-2.7,7.12,7.12,0,0,1-.92-2L194,143.78c-.11,1.22,2.49,4.63,3.35,5.58,2.59,2.85,7.07,3.6,9.76.49s1.74-8,.12-11.26c-2.16-4.32-6.39-7-8.59-11.28l-7.09,5.47c4,4.05,11.27,5.28,14,10.28,2,3.7,9,2.28,8.41-2.28a14.1,14.1,0,0,0-6.17-10.39,29.31,29.31,0,0,0-6-3c-1.36-.55-6.5-2.07-7-3.64l-.46,3.48c-.74,1.08.81.92,2,1.66a18.69,18.69,0,0,1,3,2.59,52.49,52.49,0,0,1,5.62,6.32c2.11,2.8,7.38,3.11,8.25-1.08.47-2.27-.14-4.51.42-6.69.6-2.33,1.2-4.29.55-6.74-1.24-4.69-5.5-7.8-9.83-9.43s-8.82.33-8.46,5.55,6.21,8.44,10.28,10.81a4.56,4.56,0,0,0,6.79-3.9,10.48,10.48,0,0,0-3.53-8.22,21.8,21.8,0,0,0-3.6-2.6q-1.14-.64-2.26-1.33-1.83-2-.87.69L199.55,118c.93-.26,5.35,3.55,5.31,3.78-.84,5.68,7.85,8.14,8.71,2.4,1.1-7.41-7.86-16.7-15.63-15.11-3.83.79-5.25,4.87-3.61,8.17a12,12,0,0,0,4.16,4.34c1.56,1.08,5.52,2.44,5.44,4.71l6.79-3.9c-1.13-.66-5.83-2.82-5.66-4.32l-1.32,3.19.46-.54L201,122.07a11.28,11.28,0,0,1,3.53,2.15c1.08,1.31.8,1.85.38,3.4-.62,2.31,0,4.5-.42,6.69l8.25-1.08c-3.33-4.43-7.09-9.11-11.82-12.15-3.84-2.47-9.87-3.42-13.39.26-3.8,4,.26,8.59,3.76,11,3.3,2.22,13.07,3.82,13.65,8.48l8.41-2.28c-3.55-6.52-10.59-7.18-15.4-12.11-3.68-3.78-9.39,1-7.09,5.47a27,27,0,0,0,4.44,6c1.2,1.29,5.43,4.9,4.38,7l2.7-2.07q2.34.61.69-1.16-.6-1.2-1.27-2.37a12.79,12.79,0,0,0-3.25-3.7c-2.69-2-6.34-2.32-9-.06-5.55,4.74-.39,13.33,3.67,17,4.31,3.95,10.21-2,6.38-6.38-2.62-3-2.58-7-2.54-10.79,0-4.37.13-8.71-.17-13.08-.47-6.79-.64-15.63-7.71-19-3.85-1.83-8.69,2-6.18,6.18a22.83,22.83,0,0,1-.73,25.06c-2.62,3.87,2.44,8.31,6.18,6.18,12.29-7,14.6-25.36,7.92-37.08-2.11-3.69-8.82-2.31-8.41,2.28a11.09,11.09,0,0,0,2.72,6.67c2.48,3.08,7.85.5,7.71-3.19s-2.66-6.24-5.1-8.72c-2.75-2.79-6.34-2.71-9.21-.25-2.71,2.32-1,6.6,2,7.55l.86.27,1.2-8.87a22.24,22.24,0,0,0-10.42,2.57c-5.18,2.64-.62,10.43,4.56,7.8Z"/><path class="cls-7" d="M200.12,113.22a23.89,23.89,0,0,1-.65,10.71c-1,2.89-3.05,5.1-4.73,7.58-3.71,5.47-8.17,9.69-12.91,14.27-.52.51.28,1.3.8.8,2.72-2.63,5.53-5.2,8.17-7.91,2.3-2.36,3.85-5.15,5.76-7.8,4.12-5.71,5.59-10.49,4.69-17.64-.09-.71-1.22-.72-1.13,0Z"/><path class="cls-7" d="M184,151.55c6.37,1.93,11,1,16-3.33a40.63,40.63,0,0,0,11-15.79c.55-1.34-1.63-1.93-2.18-.6a38.64,38.64,0,0,1-8.42,12.92c-4.77,4.76-9.16,6.66-15.87,4.63a1.13,1.13,0,0,0-.6,2.18Z"/><path class="cls-7" d="M184.09,157.26c4,1.27,8.41,2.29,12.64,1.38,4.47-1,8-4.24,11.41-7.08,1.12-.93-.49-2.52-1.6-1.6-3.13,2.61-6.31,5.61-10.41,6.5-3.81.83-7.82-.24-11.44-1.38-1.39-.44-2,1.74-.6,2.18Z"/><path class="cls-7" d="M176.62,160c-.39,3.27.42,6.11,3.73,7.23a19,19,0,0,0,12.81-.63c1.34-.52.76-2.71-.6-2.18a18,18,0,0,1-7.83,1.34,14,14,0,0,1-3.78-.7c-2.31-.9-2.33-2.9-2.07-5.06.17-1.44-2.09-1.43-2.26,0Z"/><path class="cls-7" d="M168.63,168.18a9,9,0,0,0,8.25,9c2.16.24,2.15-3.15,0-3.39a5.51,5.51,0,0,1-4.86-5.65,1.69,1.69,0,0,0-3.39,0Z"/><path class="cls-7" d="M155.57,173.62a23.29,23.29,0,0,0,5.86-.43l-2.2-3.77c.73-.75-.3-.38-1-.39s-1.38,0-2.06-.06c-1.37-.07-2.74-.2-4.11-.37a2.27,2.27,0,0,0-2.26,2.26,2.31,2.31,0,0,0,2.26,2.26,53.9,53.9,0,0,0,5.83.43c1.54,0,3.33.27,4.5-.93a2.28,2.28,0,0,0-2.2-3.77,18.37,18.37,0,0,1-4.66.26c-2.9-.17-2.89,4.34,0,4.51Z"/><path class="cls-7" d="M150,181.37c3.25-1.2,6.28-2.24,9.79-2.25,2.9,0,2.91-4.52,0-4.51a31.41,31.41,0,0,0-11,2.41c-2.7,1-1.53,5.36,1.2,4.35Z"/><path class="cls-7" d="M176.24,143.38c2.23-2.14,3.08-4.84,4.66-7.42,1.71-2.8,4.19-5,5.92-7.83,2.66-4.32,5.89-9.36,2.2-14-.91-1.13-2.5.47-1.6,1.6,1.51,1.89.66,5.31-.3,7.2-.58,1.14-1.21,2.26-1.86,3.36a49.32,49.32,0,0,1-4.64,6.17c-2.36,2.88-3.28,6.7-6,9.29-1.05,1,.55,2.6,1.6,1.6Z"/><path class="cls-7" d="M183.85,108.36a18.44,18.44,0,0,1,3,7.48c.47,2.13,3.74,1.23,3.26-.9a20.73,20.73,0,0,0-3.34-8.29c-1.31-1.71-4.25,0-2.92,1.71Z"/><path class="cls-7" d="M186.32,116.82a17.79,17.79,0,0,1-.9,4.89c-.68,2.08,2.59,3,3.26.9a21.2,21.2,0,0,0,1-5.79c.08-2.18-3.3-2.18-3.39,0Z"/><path class="cls-7" d="M176.15,105.94c3.14,0,6.94-.79,9.79.88a.56.56,0,0,0,.57-1c-3.08-1.81-7-1.08-10.36-1a.56.56,0,0,0,0,1.13Z"/><path class="cls-7" d="M186,123.46a2.94,2.94,0,0,1-.52,1.5,1.13,1.13,0,1,0,1.95,1.14,5.19,5.19,0,0,0,.83-2.64,1.13,1.13,0,1,0-2.26,0Z"/><path class="cls-7" d="M192.26,151.34a5,5,0,0,0,3.11-1.22,33.5,33.5,0,0,1,4-2.5,11.09,11.09,0,0,0,4.67-5.56c.55-1.34-1.63-1.93-2.18-.6a8.79,8.79,0,0,1-4.19,4.51,20.54,20.54,0,0,0-2.23,1.21c-1,.69-1.79,1.84-3.14,1.9s-1.45,2.32,0,2.26Z"/><path class="cls-7" d="M184,145.31c2.29-1.5,4.94-1.89,7.18-3.57a27.89,27.89,0,0,0,5.31-5.3c3.73-4.83,5.88-10.51,5.08-16.65-.18-1.42-2.44-1.44-2.26,0,.79,6.09-1.52,11.76-5.48,16.36a21.66,21.66,0,0,1-5.24,4.65c-1.85,1.07-3.94,1.39-5.73,2.56-1.21.79-.08,2.75,1.14,1.95Z"/><path class="cls-7" d="M188.75,142.94c2.14-2.26,3.48-5.15,5.8-7.25l-1.89-1.1a5,5,0,0,1-.91,1.87c-.7,1.05,1,2.37,1.77,1.37a64.38,64.38,0,0,0,5.57-8,1.13,1.13,0,0,0-1.95-1.14,60.57,60.57,0,0,1-5.21,7.52l1.77,1.37a9.29,9.29,0,0,0,1.14-2.4c.36-1.13-1.1-1.82-1.89-1.1-2.33,2.11-3.65,5-5.8,7.25-1,1.05.59,2.65,1.6,1.6Z"/><path class="cls-7" d="M198.22,126.26a59.93,59.93,0,0,1-7.88,11.7c-.94,1.1.65,2.7,1.6,1.6a62.42,62.42,0,0,0,8.23-12.16c.67-1.29-1.28-2.43-1.95-1.14Z"/><path class="cls-7" d="M184.32,108c1.11,1.31,1.52,3.16,2.08,4.74s1.55,3.42,1.05,5c-.66,2.08,2.61,3,3.26.9.74-2.36-.28-4.58-1.05-6.81s-1.41-4.42-2.95-6.24c-1.41-1.67-3.79.74-2.39,2.39Z"/><path class="cls-8" d="M199.36,110.6a19.69,19.69,0,0,1,11.75,9.52c1.46,2.82,1.85,5.15.18,7.83-1.42,2.27-3.12,4.43-4.73,6.56-4.9,6.52-17.14,21.42-25.45,11-.91-1.14-2.49.47-1.6,1.6,9.31,11.68,22.89-3.42,28.54-10.85,1.95-2.56,5.56-6.12,6.54-9.17.7-2.15-.16-5.05-1-7A21.77,21.77,0,0,0,200,108.43a1.13,1.13,0,0,0-.6,2.18Z"/><path class="cls-8" d="M168.69,114.53c5-3.77,7-10.27,13.16-12.67,5.07-2,9.31-2.27,12.83,2.62a22.27,22.27,0,0,1,3.86,9.5c1.25,7.72-2,14.24-6.57,20.25-5,6.59-11.3,12.67-20.15,12.22-1.45-.07-1.45,2.18,0,2.26,9,.46,15.85-5.34,21.13-12.09s9.27-14.22,7.82-23.1c-1.07-6.54-5.65-16.4-13.58-15.4a21.36,21.36,0,0,0-10.61,4.17c-3.56,3-5.3,7.5-9,10.29-1.15.86,0,2.82,1.14,1.95Z"/><path class="cls-9" d="M135.51,159.12c-2.55,1-4.52,3.38-7.18,4-2.83.64-1.63,5,1.2,4.35s4.57-3,7.18-4a2.32,2.32,0,0,0,1.58-2.78,2.27,2.27,0,0,0-2.78-1.58Z"/><path class="cls-9" d="M119.13,142.23c3.22,0,3.22-5,0-5s-3.22,5,0,5Z"/><path class="cls-9" d="M171.24,108.72a35.24,35.24,0,0,1,6.45,2c2,.74,3.7.13,5.69.35L181.43,110c.13.19.92,2.17,1.21,1.52-1.16,2.63,2.73,4.93,3.9,2.28.92-2.09-.1-6.31-2.56-7.11a4.24,4.24,0,0,0-1.67-.05,7.58,7.58,0,0,1-3.86-.42,31.54,31.54,0,0,0-6-1.81c-2.84-.49-4.06,3.86-1.2,4.35Z"/><path class="cls-9" d="M155.67,156.51a5.18,5.18,0,0,0,4.08-2.4,2.27,2.27,0,0,0-.81-3.09,2.32,2.32,0,0,0-3.09.81c.39-.55,0-.07-.09.05-.29.31.43-.27,0,0l-.18.1q-.33.15.17-.07l-.26.08q-.36.07.2,0a2.47,2.47,0,0,0-1.6.66,2.29,2.29,0,0,0-.66,1.6c0,1.1,1,2.41,2.26,2.26Z"/><path class="cls-9" d="M123.61,152.48a22.85,22.85,0,0,1,3.78-.12,2.27,2.27,0,0,0,2.18-2.86,13.45,13.45,0,0,1,.16-9.87l-4.43-.6a27.51,27.51,0,0,0,3,9.86l3.9-2.28a10.22,10.22,0,0,1-1.93-8c.53-2.84-3.82-4.06-4.35-1.2a14.68,14.68,0,0,0,2.38,11.47,2.26,2.26,0,0,0,3.9-2.28A21.49,21.49,0,0,1,129.8,139a2.27,2.27,0,0,0-4.43-.6,17.29,17.29,0,0,0-.16,12.27l2.18-2.86a22.85,22.85,0,0,0-3.78.12c-2.85.32-2.89,4.84,0,4.51Z"/><path class="cls-9" d="M125.22,149.46c0-.11-.07-.21-.1-.32s-.06-.53-.06-.19,0,0,0-.11,0-.28,0-.41l-4.21,1.14a4.41,4.41,0,0,1,.34.51c.09.16.16.55,0,0,.08.35.24.69.34,1a2.26,2.26,0,1,0,4.35-1.2,7.93,7.93,0,0,0-1.17-2.64,2.26,2.26,0,0,0-4.21,1.14,7,7,0,0,0,.33,2.23,2.26,2.26,0,1,0,4.35-1.2Z"/><path class="cls-6" d="M115.52,177.44c6.4-1.34,10.29-5.29,15.87-8.2l-2.28-3.9c-3.55,1.88-7.19,3.83-11.28,4.1a36.84,36.84,0,0,0-9,1.22c-2.77.85-1.59,5.21,1.2,4.35,3.76-1.16,7.52-.69,11.31-1.53,3.56-.79,6.86-2.55,10.06-4.24,2.57-1.36.3-5.24-2.28-3.9-5.19,2.7-8.82,6.49-14.79,7.74-2.84.59-1.64,4.95,1.2,4.35Z"/><path class="cls-6" d="M74.29,188.49A117.79,117.79,0,0,0,111.86,177c2.25-1.13.66-5.07-1.74-4.13l-5.33,2.1a2.3,2.3,0,0,0-1,3.77,2.86,2.86,0,0,0,1.54.92c.27.09,1.81.37,1,.06l-1.58-2.78-.12.32,2.78-1.58-.22-.08.54,4.13a84.83,84.83,0,0,1,9.9-4.3l-1.74-4.13a47.66,47.66,0,0,1-7.24,3l1.74,4.13,11.6-5.17c2.65-1.18.35-5.07-2.28-3.9l-11.6,5.17c-2.33,1-.68,4.91,1.74,4.13a54.83,54.83,0,0,0,8.32-3.47c2.24-1.16.69-5-1.74-4.13a94.07,94.07,0,0,0-11,4.75c-1.87,1-1.15,3.51.54,4.13l.22.08a2.3,2.3,0,0,0,2.78-1.58l.12-.32a2.3,2.3,0,0,0-1.58-2.78,2.13,2.13,0,0,0-1-.23q-1.42.06.42.41l-1,3.77,5.33-2.1-1.74-4.13A111.17,111.17,0,0,1,74.29,184c-2.84.38-2.88,4.89,0,4.51Z"/><path class="cls-6" d="M86.09,184.58A37.39,37.39,0,0,0,100,180.76c2.51-1.24.56-4.44-1.74-4.13l-7.36,1c-2.52.35-1.92,4.55.6,4.43,3.51-.17,6.6-1.65,9.83-2.91l4.64-1.81c1.32-.52,5.6-1.11,4.07-2.91a2.26,2.26,0,0,0,2.2.58,11.31,11.31,0,0,0,2.9-1c2.63-1.23.34-5.12-2.28-3.9l-1.82.57,2.2.58c-1.65-1.95-5.26.5-6.92,1.15-4.56,1.78-9.91,4.93-14.82,5.17l.6,4.43,7.36-1-1.74-4.13a31.19,31.19,0,0,1-11.66,3.21c-2.88.22-2.9,4.74,0,4.51Z"/><path class="cls-6" d="M60.72,170.24c11.48-3.28,22.53-8,33.61-12.34a77.28,77.28,0,0,0,12.77-6.46c1.5-.93,2.92-.92,4.5-1.67,2.93-1.38,4.68-3.3,8.11-3.83l-1.2-4.35-4.95.86c-2,.35-2,3.17-.54,4.13a4.15,4.15,0,0,0,3.19.84c2.89-.18,2.91-4.7,0-4.51l-.91-.22-.54,4.13,4.95-.86c2.88-.5,1.63-4.79-1.2-4.35a17.76,17.76,0,0,0-6.86,2.57,31.08,31.08,0,0,1-5.11,2.23c-2.13.85-3.84,2.78-5.88,3.87a77.18,77.18,0,0,1-8.2,3.54c-10.87,4.29-21.7,8.86-32.95,12.08-2.79.8-1.6,5.15,1.2,4.35Z"/><path class="cls-6" d="M176.84,108.94c4.76.73,6.2,4.84,5.59,9.21l4.43.6.49-3.83h-4.51c-.75,11.35-8.28,23.61-16.59,31.19-4.7,4.29-10.68,3-16.53,4.1a34.4,34.4,0,0,0-14.4,6.47c-2,1.5-.9,4.7,1.74,4.13,6.27-1.36,12.46-3.08,16.81-8.1a2.29,2.29,0,0,0-1-3.77A24.69,24.69,0,0,0,127.74,155c-1.87,1.87.49,4.67,2.74,3.55a54.38,54.38,0,0,1,15.72-5.09l-1.2-4.35c-5.38,2.21-13.3,1-14.58,8.09a2.29,2.29,0,0,0,3.32,2.55A200.83,200.83,0,0,1,163,148.94c2.35-.67,2-4.7-.6-4.43a48.65,48.65,0,0,1-9.29.08l1.6,3.85a21.23,21.23,0,0,1,6.19-4c1.91-.74.81-.24-.44.67-.55.4-1.14.75-1.72,1.1a2.28,2.28,0,0,0,1.14,4.21,8.49,8.49,0,0,0,4-.54,2.28,2.28,0,0,0,0-4.35l-6.26-2v4.35a30.2,30.2,0,0,0,13.5-6.1c1.76-1.43-.13-4.45-2.2-3.77l-1,.34c-2.75.91-1.57,5.27,1.2,4.35l1-.34-1.2-4.35c-3,1.08-7.87,4.8-4.2,8.2,3.9,3.61,6.77-2.32,8.51-4.81,1.29-1.85-1.25-4.31-3.09-3.09-3.16,2.1-8.63,4.23-8.83,8.63a2.28,2.28,0,0,0,1.66,2.18c2.66.72,4.43-1.68,5.58-3.78,2.16-4,3.15-7.8,7.33-10.24,2.54-1.48.31-5.14-2.28-3.9a13.08,13.08,0,0,0-7,8.26c-.61,2,1.65,3.44,3.32,2.55,6.57-3.49,6-12.71,12.45-15.83l-2.28-3.9c-9.41,7.07-14.63,17.89-25.59,23.15a18.16,18.16,0,0,1-10.11,2c-2.52-.3-4.74-1.5-7.31-1.49-4.4,0-7.85,2.56-9.86,6.34a2.29,2.29,0,0,0,1.35,3.32c2.43.84,5.31-1.08,4.44-3.88-1.11-3.56-4.46-1.49-5.79.56a2.27,2.27,0,0,0,.35,2.74c3,2.48,5.76-.25,8.3-2.19,5-3.83,11.69-4.48,17.56-6.6,10.69-3.87,20.65-9.57,28.1-18.3,1.86-2.18-1.12-5.28-3.19-3.19L177,125.72l2.74,3.55,1.31-1.09c1.4-1.05,1.56-3.69-.54-4.13l-1-.2,1.58,2.78c1-3.07,1.68-6.19,2.39-9.33h-4.35a17.56,17.56,0,0,1,.31,5.1H184c-.26-4.48-2.89-9-1.26-13.38l-4.13.54a6,6,0,0,1,.82,1.63L181.1,109q1.58,1.15,1.65,0l-4.13.54c3.63,7-1.48,13.16-7.18,16.84a52.37,52.37,0,0,0-5.86,4.1c-2.33,2-4.05,4.45-7.12,5.38-2.77.84-1.61,5.14,1.2,4.35A50.35,50.35,0,0,0,173,134.34a2.29,2.29,0,0,0-.54-4.13c-3.12-1.16-5.89.54-8.42,2.3-4.1,2.87-8.6,4.46-13.34,6-9.46,3-20,4.75-28.84,9.31-2.58,1.33-.3,5.23,2.28,3.9,8-4.13,17.71-5.64,26.31-8.39a95.71,95.71,0,0,0,10.72-3.84c2.42-1.11,7.39-5.92,10.1-4.92l-.54-4.13a46.17,46.17,0,0,1-12.24,5.43l1.2,4.35c3.47-1.06,5.57-3.31,8.18-5.69,3.37-3.08,7.68-4.89,11-8.06,5.31-5.13,7.14-12.55,3.72-19.2-1-1.87-3.5-1.15-4.13.54-.78,2.11.93,6.76,3.9,5.54a2.4,2.4,0,0,0,1.66-2.18c.13-1.37-.81-2.79-1.44-3.9-1-1.82-3.48-1.19-4.13.54-1.92,5.15.8,9.43,1.1,14.58a2.26,2.26,0,0,0,4.51,0,23,23,0,0,0-.47-6.3c-.45-2.18-3.87-2.13-4.35,0-.71,3.14-1.4,6.26-2.39,9.33a2.27,2.27,0,0,0,1.58,2.78l1,.2-.54-4.13c-.78.59-1.49,1.15-2.22,1.79-1.92,1.68.59,4.94,2.74,3.55a11.3,11.3,0,0,0,2.22-1.79l-3.19-3.19c-6.78,7.95-15.7,13.29-25.43,16.89-4.54,1.68-9.23,2.65-13.81,4.12a16.2,16.2,0,0,0-4.66,2.51c-1,.71-1.92,1.49-2.87,2.24s-1.68.62-.81,1.34l.35,2.74-1.35-3.32,1.35,3.32c3.54-6.62,8.87-2.67,14.44-2.47,4.87.17,9.54-1.61,13.68-4a44.74,44.74,0,0,0,11.24-9.23c3.81-4.36,7.22-9.08,11.89-12.59a2.26,2.26,0,0,0-2.28-3.9c-6.83,3.32-6.14,12.48-12.45,15.83l3.32,2.55a8.75,8.75,0,0,1,4.94-5.56l-2.28-3.9a16.92,16.92,0,0,0-5.36,4.83c-.69,1-4.5,8.63-4.07,8.74l1.66,2.18c.07-1.46,5.35-3.9,6.6-4.73l-3.09-3.09c-1.07,1.54-2.32,4.37.78,3.24,2.69-1,1.59-5.27-1.2-4.35l-1,.34c-2.75.91-1.57,5.27,1.2,4.35l1-.34-2.2-3.77c-3.38,2.75-7.3,4.07-11.51,4.94-2.31.48-2,3.71,0,4.35l6.26,2v-4.35a3.89,3.89,0,0,1-2.79.38l1.14,4.21c2.68-1.65,8.57-5.61,4.73-9.09-4.35-4-11,1.4-14.23,4.23-1.61,1.4-.18,3.7,1.6,3.85a48.65,48.65,0,0,0,9.29-.08l-.6-4.43a208.4,208.4,0,0,0-30.39,11.31l3.32,2.55c.67-3.73,8.29-3.65,11.43-4.94a2.26,2.26,0,0,0-1.2-4.35,58.29,58.29,0,0,0-16.8,5.54l2.74,3.55a20.11,20.11,0,0,1,20.75-5l-1-3.77c-3.84,4.43-9.31,5.74-14.82,6.94l1.74,4.13a33.58,33.58,0,0,1,19.81-6.66c6.05-.19,9.71-2.08,13.93-6.5,8.23-8.63,15.22-20.42,16-32.48.2-3-4.16-2.8-4.51,0l-.49,3.83c-.32,2.5,4.08,3.12,4.43.6.92-6.65-1.32-13.63-8.75-14.76-2.84-.43-4.07,3.92-1.2,4.35Z"/><path class="cls-6" d="M121.9,152.34c.95,3.79,2.73,8.37,7.47,7a2.29,2.29,0,0,0,1-3.77c-2.62-3.22-3.43-7.3-4.61-11.18a2.29,2.29,0,0,0-4.13-.54l-.3.42,4.13.54a9.19,9.19,0,0,1-.38-4.09l-4.43.6a7.41,7.41,0,0,1-.06,5l4.43.6c-.15-2.7.5-5.28.9-7.93a2.38,2.38,0,0,0-1-2.55c-4-2.65-9.4,1.65-13.81,1.92l.6,4.43q8.2-2.39,16.27-5.2a2.28,2.28,0,0,0,0-4.35,6.25,6.25,0,0,0-4.62-.15c-2.32.7-2,4.72.6,4.43,8.71-1,13.59-9.58,19.43-15.21,8-7.69,17.41-14.62,29-14.15,2.91.12,2.9-4.4,0-4.51-9.6-.39-18.1,3.73-25.49,9.57a106.35,106.35,0,0,0-11.33,10.61c-3.29,3.48-6.45,8.62-11.61,9.19l.6,4.43,2.22.15v-4.35q-8.07,2.81-16.27,5.2c-2.37.69-2,4.59.6,4.43a26.31,26.31,0,0,0,7.19-1.52c1.84-.64,3.18-1.79,4.35-1l-1-2.55c-.45,3.06-1.24,6-1.06,9.13.14,2.46,3.76,3.16,4.43.6a14.28,14.28,0,0,0,.06-7.38c-.62-2.55-4.32-1.88-4.43.6a17.9,17.9,0,0,0,.54,5.29c.49,2,3.06,2,4.13.54l.3-.42-4.13-.54c1.45,4.74,2.58,9.26,5.78,13.17l1-3.77c-1.16.33-1.72-3.07-1.92-3.86-.7-2.82-5.06-1.62-4.35,1.2Z"/><path class="cls-6" d="M115.48,173.51c5-4.57,12-6.43,17.72-10.14l-2.74-3.55a19.57,19.57,0,0,1-6.06,3.44c-2.7,1-1.65,5.1,1.2,4.35,3.63-1,6.77-2.75,10.29-4,3.11-1.07,6.47-1,9.52-2.24,5.53-2.29,9.19-7.54,15.24-8.75l-1.74-4.13c-4.56,2.42-9.54,2.86-14.56,3.61a18.74,18.74,0,0,0-5.27,1.44c-2.12,1-5.8,4.45-8.2,2.13-1.31-1.27-4-.43-3.85,1.6l.33,4.17,4.43-.6c-.8-4.19-3.38-7-5.89-10.25-1.74-2.28-5.66,0-3.9,2.28,2.23,2.92,4.72,5.43,5.44,9.17.47,2.48,4.64,1.94,4.43-.6l-.33-4.17-3.85,1.6c4.65,4.5,8.45,1,13.17-1.19,3.2-1.49,7-1.39,10.43-2a33.6,33.6,0,0,0,9.89-3.26c2.37-1.25.66-4.61-1.74-4.13-5.81,1.16-9.34,5.51-14.34,8.23-3.28,1.79-7,1.56-10.42,2.76s-6.69,3-10.29,4l1.2,4.35a26.29,26.29,0,0,0,8-4.6c2-1.63-.6-4.93-2.74-3.55a62.44,62.44,0,0,1-11.62,6c-3,1.14-4.71,2.73-7,4.86-2.14,2,1.06,5.16,3.19,3.19Z"/><path class="cls-6" d="M134.79,156.06c6.53-4.35,14.51-5.37,21.41-9a42.59,42.59,0,0,0,9.53-7.22c1.41-1.37,2.72-2.84,4.08-4.27q.85-.95,1.78-1.82-2.55.08-3.67-3.13l.92-3.42c1.09-1.72,2-1.18,0-1.17-1.12,0-2.2.26-3.33.17a18.53,18.53,0,0,1-5.44-1.51c-4.23-1.71-8.16-2.75-12.77-2.07a21.26,21.26,0,0,0-11.37,5.5c-2.45,2.25-5.17,7.21-8.54,8h3.6l1.61.89,2,4.79-.09-.77-6.77,6.77a28.54,28.54,0,0,0,7.78-1.35l-5.22-12.38c-1.28.92-1.42,1.09-2.74.25l-3.42,12.62a39,39,0,0,0,8.8-1.42c2.66-.8,5.24-2.25,8-2.67s5.46.76,8.29.25c3.12-.57,5.14-2.09,7.53-4.06a47.55,47.55,0,0,1,14.91-8.53c2.62-.88,5.83-1.33,7.85-3.37,2.31-2.32,2.8-6.05,3.61-9.08,1.32-5,1.92-11.17-4.49-12.74-5.79-1.42-14-1.51-19.39,1.16a49.19,49.19,0,0,0-13.13,10,142.21,142.21,0,0,1-14.31,12.89c-6.07,4.93,1.71,14.41,8.21,10.64a40.67,40.67,0,0,0,8.2-6.47c1.57-1.56,6.32-5.43,6.29-7.82q1-1.83-1.82,1.33a14.12,14.12,0,0,1,2.59-.29c1.73-.13,3.47-.08,5.2-.13a33.67,33.67,0,0,0,11.1-1.82c8.07-3.06,4.57-16.16-3.6-13.06-6.73,2.55-14.82-.27-21.26,3.12-2.71,1.43-3.47,3.86-5.2,6.08a30.17,30.17,0,0,1-8.33,7.36l8.21,10.64c3-2.4,6-4.75,8.88-7.22s4.87-5.36,7.6-7.77c5.12-4.51,10.59-7.43,17.67-5.39l-4-3.11.21.46-.68-5.22c-.29,2.08-.82,5.26-1.81,7.06l1.06-1q-1.11.32-2.2.7c-1.22.41-2.41.87-3.6,1.36a59.44,59.44,0,0,0-13.54,7.64c-1.39,1.05-3.38,3.05-4.6,3.23-2.28.33-4.78-.58-7.2-.21-5.17.78-9.73,3.6-15,3.93A6.83,6.83,0,0,0,120.67,146a14.64,14.64,0,0,0,16.41-.25c5.76-4.12,2.56-15.16-5.22-12.38a13.84,13.84,0,0,1-4.18.86c-3.32.23-7.22,2.93-6.77,6.77.79,6.84,7.19,10.51,13.4,6.86a36.51,36.51,0,0,0,7.47-6.26c1.74-1.82,3.32-4.25,5.74-5.24,4.75-1.95,10.5,2.38,15.24,3.07,5.54.8,14.34.36,17.56-5.07s-.53-12.37-6.42-13.82c-6.17-1.51-10.73,2.31-14.66,6.51s-8,7.82-13.61,9.9c-6,2.24-12.25,3.8-17.67,7.41-7.22,4.81-.45,16.54,6.84,11.69Z"/><path class="cls-6" d="M127.83,158.46l-5.27,4.5c-1.57,1.34-3.37,2.5-3.42,4.76-.06,2.91,4.45,2.91,4.51,0,0,.46-.3.41.18.07a12.24,12.24,0,0,0,1-.82l2.16-1.84,4.07-3.48c2.21-1.89-1-5.07-3.19-3.19Z"/><path class="cls-10" d="M123.81,134.34C133.14,133.08,137,124.06,143,118a39.71,39.71,0,0,1,29.24-12.16,1.13,1.13,0,0,0,0-2.26,41,41,0,0,0-26.15,8.67,53.07,53.07,0,0,0-9.33,9.5c-3.73,4.81-7,9.53-13.51,10.4-1.43.19-.82,2.37.6,2.18Z"/><path class="cls-10" d="M137.46,164.39c5.27-.86,9.31-3.32,14-5.72,5.56-2.85,11.83-5,17.12-8.27,4.21-2.61,6.92-6.72,9.49-10.82,3.4-5.43,6.56-11,9.61-16.62.69-1.28-1.26-2.42-1.95-1.14-2.65,4.9-5.39,9.75-8.29,14.5-3,5-6.1,10.1-11.4,12.91-4.63,2.45-9.57,4.4-14.26,6.76-4.91,2.48-9.4,5.33-14.91,6.23-1.43.23-.82,2.41.6,2.18Z"/><path class="cls-10" d="M119.68,141a21.38,21.38,0,0,0,7.78,20.16c1.13.89,2.74-.7,1.6-1.6a19.15,19.15,0,0,1-7.2-18c.21-1.42-2-2-2.18-.6Z"/><path class="cls-10" d="M170.84,105.22c4.15,2.34,12.38,1,14.43,5.72,2.32,5.38.57,12.31-2.84,16.73-.89,1.15,1.07,2.27,1.95,1.14,3.95-5.11,4.84-11.53,3.28-17.74-.61-2.43-1.13-4.42-3.55-5.35-4-1.53-8.21-.25-12.12-2.45a1.13,1.13,0,0,0-1.14,1.95Z"/><path class="cls-10" d="M127,159.87a60.12,60.12,0,0,1-17.3,8.55,1.13,1.13,0,0,0,.3,2.22c10.15.92,19.65-2.25,28.7-6.55,1.31-.62.17-2.57-1.14-1.95-8.72,4.14-17.8,7.13-27.56,6.24l.3,2.22a62,62,0,0,0,17.84-8.78c1.18-.83,0-2.79-1.14-1.95Z"/><path class="cls-10" d="M112.7,142.58C103.33,148.9,92.53,153,82.1,157.24s-21.16,8.11-31.93,11.62c-1.16.38-1,2.29.3,2.22,25.08-1.3,48-14.68,70.36-25,1.32-.61.17-2.55-1.14-1.95-22,10.1-44.57,23.37-69.22,24.65l.3,2.22q17-5.53,33.5-12.26c10.1-4.13,20.49-8.12,29.58-14.24,1.2-.81.07-2.76-1.14-1.95Z"/><path class="cls-10" d="M125.57,160.1c-9.2,6.09-19.17,10.76-29.22,15.24-10.62,4.74-21.26,9.55-32.94,10.83a1.13,1.13,0,0,0,0,2.26c14.28,1.25,28.6-3,42.17-7,11.3-3.32,22.73-7.75,30.89-16.59,1-1.07-.61-2.67-1.6-1.6-8.24,8.93-19.87,13.14-31.28,16.41-13,3.72-26.54,7.71-40.18,6.52v2.26c11-1.21,21-5.35,31-9.79,11.07-4.91,22.14-9.89,32.26-16.59,1.21-.8.08-2.75-1.14-1.95Z"/><path class="cls-10" d="M124.26,131.76c-5.54,4.15-12,6.08-18.58,7.82a1.14,1.14,0,0,0,0,2.18,24.7,24.7,0,0,0,15.51.41,1.13,1.13,0,0,0-.6-2.18,22.63,22.63,0,0,1-14.31-.41v2.18c6.79-1.79,13.43-3.78,19.12-8,1.15-.86,0-2.82-1.14-1.95Z"/><circle class="cls-10" cx="132.21" cy="154.11" r="2.83" transform="translate(-69.23 179.67) rotate(-56.61)"/><path class="cls-10" d="M122.87,134.42a2.63,2.63,0,0,1,.87-3.17,2.43,2.43,0,0,1,3.19.53"/><path class="cls-6" d="M171.81,141.92a38.52,38.52,0,0,0,6.31-7.39c1.53-2.48-2.38-4.75-3.9-2.28a33.88,33.88,0,0,1-5.6,6.48c-2.09,2,1.1,5.21,3.19,3.19Z"/><path class="cls-8" d="M212.7,130.76c7.53,7.18.17,16.05-6.75,19.72a43.16,43.16,0,0,1-10.39,4.08,20.27,20.27,0,0,1-6.15.59c-1-.08-11-2.1-7.28-6.07,1-1.06-.6-2.66-1.6-1.6-3.44,3.68.48,7.51,4.1,8.89,5.95,2.28,12.43.53,18-1.86,5.47-2.32,11.54-5.5,14.11-11.18a12.36,12.36,0,0,0-2.5-14.17c-1.05-1-2.65.59-1.6,1.6Z"/><path class="cls-8" d="M181.11,152.92c-3.52-.19-4,6-3.84,8.55.37,4.41,4.7,5.42,8.46,5.34a44.41,44.41,0,0,0,18.71-4.95c5.32-2.7,7.3-5.75,6.86-11.75-.11-1.44-2.36-1.45-2.26,0,.33,4.47-1,7.29-5,9.43a43.82,43.82,0,0,1-9.25,3.59,37.2,37.2,0,0,1-9,1.41c-1.17,0-3.78.15-4.66-.75-.5-.51-2.3-8.75,0-8.62,1.45.08,1.45-2.18,0-2.26Z"/><path class="cls-8" d="M176.27,157.44c-3.42,2.18-6.86,4.92-6.2,9.45.59,4,4.3,8.31,8,9.78,9.25,3.64,20.56-6.65,23.88-14.44.56-1.32-1.38-2.47-1.95-1.14a24.2,24.2,0,0,1-13.6,12.85c-4.65,1.83-8.62,1-11.81-2.9-4.07-5-1.82-8.72,2.77-11.64,1.22-.78.09-2.73-1.14-1.95Z"/><path class="cls-8" d="M169.94,165.15c-2.36.15-7.07.11-8.5,2.42s.21,6.36,1.54,8.31c4.37,6.39,11.63,4.62,17.6,1.83,1.32-.61.17-2.56-1.14-1.95-4.1,1.91-9.09,3.89-13,.52-1.94-1.66-3.18-3.9-2.67-6.43.35-1.74.57-1.58,2.12-1.92a27,27,0,0,1,4.08-.54c1.44-.09,1.45-2.35,0-2.26Z"/><path class="cls-8" d="M164.79,175a80.47,80.47,0,0,1-8.41-1.21c-2.21-.37-5.68-.38-7.39-2l-1.1,1.89a20.2,20.2,0,0,0,13.25-.81c1.32-.55.74-2.73-.6-2.18a18.26,18.26,0,0,1-12,.81,1.14,1.14,0,0,0-1.1,1.89c1.94,1.88,4.64,2,7.19,2.42a97.69,97.69,0,0,0,10.2,1.5c1.45.09,1.45-2.17,0-2.26Z"/><path class="cls-8" d="M164.22,176.17c-7,1.21-11.78,5.94-16.42,11-1.3,1.4-2.54,2.9-4,4.18l-1.69,1.36q-3.7,2.74-4.72-2.27c.12-.53,3.22-2.54,3.59-2.91a28.7,28.7,0,0,0,3-3.55,1.14,1.14,0,0,0-.67-1.66c.11,0-2.1-.74-2-.37a14.88,14.88,0,0,1,2.61-.59,1.13,1.13,0,0,0,.5-1.89l1.44-4.13a23.8,23.8,0,0,1,2.84.29c.87.08,1.44.16,2.39.21,1.45.07,1.45-2.19,0-2.26-2.89-.14-6.81-1.5-9.08,1.09a4.46,4.46,0,0,0,.82,6.4l.5-1.89c-1.76.3-4.8.39-4.63,3,.15,2.24,2.42,1.79,4,2.36L142,182.8c-1.91,2.61-4.75,4-6.71,6.35a3.37,3.37,0,0,0-1,2.62c.15,2.55,2.85,4.08,5.18,4.08,3.78,0,6.6-3.52,8.91-6,4.7-5.06,9.3-10.25,16.44-11.49,1.43-.25.82-2.42-.6-2.18Z"/><path class="cls-8" d="M175,146.31c-1.91,1.91-4.65,4.15-5.52,6.83a4.22,4.22,0,0,0,2,5.31c1.32.58,2.47-1.36,1.14-1.95-3.87-1.71,2.6-7.26,3.93-8.6a1.13,1.13,0,0,0-1.6-1.6Z"/><path class="cls-8" d="M182.2,147l-2.87.11a3.25,3.25,0,0,0-2.1.55,3.44,3.44,0,0,0-.93,1.86c-.25.89-.48,1.79-.72,2.68a1.13,1.13,0,0,0,2.18.6l.47-1.72c.09-.35.19-1.38.44-1.62s1.15-.11,1.49-.13l2.05-.08c1.45-.05,1.46-2.31,0-2.26Z"/><path class="cls-8" d="M180,152.1c-1.65.62-3.25.14-4.73,1.35a9.55,9.55,0,0,0-2.49,4c-.55,1.34,1.63,1.93,2.18.6a6.14,6.14,0,0,1,2-3c1-.65,2.5-.3,3.65-.73,1.35-.5.76-2.69-.6-2.18Z"/><path class="cls-8" d="M178.14,156a34.88,34.88,0,0,0-7.44,1.86c-1.74.66-3.83,1.32-5.06,2.78-.93,1.11.66,2.71,1.6,1.6,1.26-1.5,3.86-2.19,5.67-2.76a35.7,35.7,0,0,1,5.83-1.3c1.43-.2.82-2.38-.6-2.18Z"/><path class="cls-8" d="M161.15,167.83c-5,.76-9-1.39-13.83-1.76a8.63,8.63,0,0,0-6.53,1.85c-3,2.75-3.62,9.33,1.63,9.13,1.45-.06,1.46-2.31,0-2.26-4.21.16.61-6.4,3.67-6.53,2.31-.09,4.47.85,6.67,1.37a22.86,22.86,0,0,0,9,.36c1.43-.22.82-2.39-.6-2.18Z"/><path class="cls-7" d="M148.82,144.35c5.71,1.24,12.43-3.72,15.56-8.14l-2.92-1.71a12.7,12.7,0,0,1-8.72,5.35c-2.15.34-1.23,3.61.9,3.26a16,16,0,0,0,10.74-6.91c1.25-1.8-1.68-3.47-2.92-1.71-2.13,3-7.76,7.45-11.74,6.58-2.12-.46-3,2.8-.9,3.26Z"/><path class="cls-7" d="M150.74,143.62l7.16-3.61a28.74,28.74,0,0,0,5.81-3.3c1.67-1.41-.74-3.79-2.39-2.39s-4.07,2.24-6,3.23L149,140.69c-1.95,1-.23,3.9,1.71,2.92Z"/><path class="cls-6" d="M169.34,211.45l.69,1.11a2.27,2.27,0,0,0,3.77,1,25.11,25.11,0,0,0,3.5-5.69,2.29,2.29,0,0,0-2.55-3.32A7.15,7.15,0,0,0,169.6,208c-1.44,2.09,1.91,4.72,3.55,2.74.91-1.1,3.08-2.87,3.48-4.22q1.88-1.81-2.62-.59l-2.21,2.72c-1.48,1.82.46,5.13,2.74,3.55,4.06-2.82,5.5-7,8.32-10.87,3-4.13,8.46-4.59,11.55-8.69,1.45-1.93-1.28-4.06-3.09-3.09-5.82,3.11-15.57,6-18,12.84h4.35c-.55-1.74-.69-2.35.63-3.61,2.12-2-1-5.09-3.19-3.19l-3.33,2.92c-2,1.77.55,4.64,2.74,3.55a12.37,12.37,0,0,0,6.25-7.11l-4.35-1.2c-.49,1.88,0,2.87.06,4.82.1,3-1.34,5.16-3.06,7.53l4.13,1.74c1.41-5.22,4.36-9.81,1.33-15-1.08-1.86-4.35-1.15-4.21,1.14l-.09.09,2.74,3.55a8.44,8.44,0,0,1,7.13-2.48v-4.51c-4.05.17-8.5,1.64-8.2,6.46a2.28,2.28,0,0,0,3.4,1.95l13.84-8c2.29-1.32.71-4.63-1.74-4.13a93.13,93.13,0,0,1-20.82,1.9c-2.93-.06-2.88,4.33,0,4.51l.4.27c1.65,1.26,3.77-.82,3.32-2.55-.36-1.37,4.07-1.78,4.54-1.81a11.57,11.57,0,0,1,4.67.47l1.2-4.35c-4.65-.82-9.94-.15-10.18,5.6a2.28,2.28,0,0,0,2.26,2.26c3.64-.07,8.44-.22,11.47-2.43a2.37,2.37,0,0,0,1-2.55l-.09-.42a2.23,2.23,0,0,0-1.58-1.58l-.36-.09.54,4.13c.76-.47,5.5-3.58,5.84-.59l2.86-2.18-1-.45-3.19,3.19a13,13,0,0,0,17.18,0c1.77-1.48-.13-4.38-2.2-3.77a22.16,22.16,0,0,1-6.48.85,28.2,28.2,0,0,1-3.48-.18q-1.34-3.23,1.82-2.67l-1.14-4.21c-2,1.34-5.66,3-4.14,6s6.24,3.39,9,3.18c1.71-.13,3.29-2.54,1.6-3.85l-3.2-2.49-2.74,3.55c4.51,2,10,3.52,14.95,2.43s8.91-7.23,12.2-10.65l-3.19-3.19-5.52,5.76,3.19,3.19,2.58-3c1.61-1.88-.41-4.89-2.74-3.55a25,25,0,0,1-17.51,3c-2.32-.44-4.23,3-1.74,4.13a21.54,21.54,0,0,0,18.06.18c2.09-.88,1-4.33-1.14-4.21a50,50,0,0,1-16.76-1.85l1.35,3.32,4.38-7.44-3.9-2.28c-1.38,2.82-4.59,5.94-1.61,9a4.22,4.22,0,0,0,3.68,1.11c1.5-.18,4.81-3.12,6-2.57l1.14-4.21a36.91,36.91,0,0,1-6.85-.35,2.26,2.26,0,0,0-1.2,4.35c5,2.05,10,3.44,15,.82,2.1-1.09,1-4.09-1.14-4.21a29.05,29.05,0,0,0-12.41,2,2.27,2.27,0,0,0,.6,4.43,21.32,21.32,0,0,0,15.44-3.87l-3.4-1.95a9.19,9.19,0,0,1-.62,4.2l3.77-1c-1-1,4.82-5.62,5.34-6.1l-3.77-1,.35,1.95,1.12-1.95c-3.11,1.62-6.71,0-9.94-.41a12,12,0,0,0-7,1,2.28,2.28,0,0,0-.46,3.55c2.43,2.54,5.56,2.57,8.63,1.13,4.84-2.27,9-5,14.25-6.39l-1.74-4.13L224,170.1c-2.4,1.25-.64,4.57,1.74,4.13,6-1.11,11.94-7,10.17-13.34-.57-2-3-2-4.13-.54-3.14,4.17-6,6.74-11.05,8.34-4.3,1.35-8.67,2.5-13,3.74l2.78,1.58a5.33,5.33,0,0,1,.86-4.87h-3.9l.3,1.48a2.27,2.27,0,0,0,2.86,2.18l18-6.23L225.91,165c-.62-1.52-5.86,1.29-7,1.76L211,169.82a2.26,2.26,0,0,0,1.2,4.35c3-.6,6.34-2.18,6.16-5.73a4.35,4.35,0,0,0-1.49-3.19c-1.05-.94-5.07-1.52-5.46-2.43-.6-1.43-2.52-2.41-3.77-1s-1.48,3.34.11,4.67c1,.82,2.92,1,3.55-.46,1.33-3.09,2.29-7.24-1.42-8.85-4-1.73-8.32-.54-11.94,1.43l3.09,3.09c2-2.73,6.17-2.71,8.72-4.78a7.25,7.25,0,0,0,2.82-5.31c.21-2-2.58-2.9-3.85-1.6-1.56,1.6-3.41,3.81-5.58,4.54l2.2.58c-.35-.42,2.54-7.42,2.84-8.27,1.13-3.22,2.38-6.39,3.73-9.52H208c1.47,2.26-1.91,7.44-2.85,9.49-1.33,2.9-2.83,5.72-4.41,8.5-1.07,1.88,1.14,4.37,3.09,3.09l7.78-5.14-3.4-1.95a11.92,11.92,0,0,0,6,10.76L216,158a5.12,5.12,0,0,1-3.19-2.75l-3.55,2.74a14.57,14.57,0,0,1,3,7.31l4.13-1.74a21.84,21.84,0,0,1-3.07-9.35l-4.43.6a35.42,35.42,0,0,1,.45,7.2l4.43-.6c-.47-1.37-1-2.77-1.42-4.17-.86-3,.46,0,1,.8a41,41,0,0,1,4,8.57l3.77-2.2a19.12,19.12,0,0,1-3.55-5.06c-.95-1.92-4.49-1.09-4.21,1.14a28.84,28.84,0,0,0,2.34,8.38,2.27,2.27,0,0,0,3.9,0c1.61-3.3,6.06-3.87,9.1-5.4a32.09,32.09,0,0,0,8.82-6.59c1.77-1.88,4.32-4.51,4.61-7.22a4.53,4.53,0,0,0-.7-2.91c-.19-.3-2.11-2.41-2.41-1.82l-3.09.81,2.11,1.38c1.32.86,3.61-.25,3.4-1.95a4.45,4.45,0,0,0-1.16-3c-1-1.08-2.83-1.24-3.42-2.55l-2.55,3.32c-.38-.07-.81,3.62-.87,4-.44,3.07-1.72,4.19-4.1,6-3.55,2.63-7.16,5.17-10.74,7.75l2.74,3.55a38.54,38.54,0,0,1,13.95-8.27l-1.74-4.13a20,20,0,0,0-9.06,7.76c-1.47,2.25,1.7,4.35,3.55,2.74,2.78-2.43,5.6-4.83,8.34-7.3,2-1.84,3.57-3.24,3.57-6.14s-4.51-2.91-4.51,0c0,1.93-4,4.48-5.23,5.55l-5.36,4.69,3.55,2.74a16,16,0,0,1,7.44-6.14c2.34-1,.67-4.94-1.74-4.13A44,44,0,0,0,218.1,161c-1.85,1.7.63,5.06,2.74,3.55,3.58-2.58,7.17-5.16,10.74-7.75,2-1.48,4.43-2.93,5.56-5.29a9.13,9.13,0,0,0,.77-3.24c.21-1.8,1-3.78,1-5.58a4,4,0,0,0-3.41-4.14,2.29,2.29,0,0,0-2.55,3.32c.47,1,3.95,3.1,4,3.26l3.4-1.95-2.11-1.38a2.27,2.27,0,0,0-3.09.81c-1.13,2.27-.38,3.3.85,5.27q.62.5,1.28.93a3.88,3.88,0,0,1-1.54,3.27,28.07,28.07,0,0,1-3.93,4c-4.74,3.93-13.26,4.68-16.09,10.5h3.9a20.84,20.84,0,0,1-1.72-6.1l-4.21,1.14a22.79,22.79,0,0,0,4.26,6c1.52,1.56,4.51,0,3.77-2.2-1.46-4.33-4.35-13.77-9.9-14.25-7.21-.62-3.49,8.05-2.33,11.45a2.27,2.27,0,0,0,4.43-.6,41.68,41.68,0,0,0-.61-8.4c-.42-2.48-4.67-1.94-4.43.6a27.48,27.48,0,0,0,3.69,11.63c1.39,2.37,4.46.65,4.13-1.74a18.73,18.73,0,0,0-4.14-9.31c-1.58-2-5,.62-3.55,2.74,1.56,2.32,3.11,4.12,5.89,4.83a2.27,2.27,0,0,0,1.74-4.13,7.41,7.41,0,0,1-3.81-6.86,2.27,2.27,0,0,0-3.4-1.95l-7.78,5.14,3.09,3.09a112.48,112.48,0,0,0,6.23-12.69c1.32-3.2,3.11-6.65,1-9.85-.83-1.26-3.18-1.66-3.9,0-1.95,4.51-3.73,9.07-5.25,13.75-1,3.16-3,6.68-.61,9.51a2.2,2.2,0,0,0,2.2.58c3-1,5.44-3.51,7.57-5.7l-3.85-1.6c-.29,2.72-4.85,3.39-6.8,4.31a10,10,0,0,0-4.13,3.5c-1.4,1.94,1.25,4.08,3.09,3.09.89-.48,9.45-4,7.18,1.25l3.55-.46-.11,1.72-3.77-1a5.51,5.51,0,0,0,2.72,3.2c.49.26,1.81.51,2.12.76l1.08.26a1.76,1.76,0,0,1-2,1.58l1.2,4.35c4.94-1.94,10-3.69,14.88-5.85,1.86-.83,4.14-2.11,3.14-4.54a2.3,2.3,0,0,0-2.78-1.58l-18,6.23,2.86,2.18a5,5,0,0,0-.92-3.75,2.29,2.29,0,0,0-3.9,0,9.43,9.43,0,0,0-1.31,8.35,2.29,2.29,0,0,0,2.78,1.58c5.47-1.58,11.36-2.73,16.61-5,4.44-1.87,7.31-5.45,10.14-9.21l-4.13-.54c1.09,3.91-3.72,7.17-7,7.78l1.74,4.13,4.32-2.25c2.31-1.2.7-4.76-1.74-4.13a48.09,48.09,0,0,0-8.2,2.89c-2,.91-8.19,5.71-10.28,3.52l-.46,3.55c3.17-1.49,6.79.22,10,.56a11.39,11.39,0,0,0,6.87-1.18A2.27,2.27,0,0,0,228,175a5.36,5.36,0,0,0-.52-3.15,2.29,2.29,0,0,0-3.77-1c-3.2,3-10.13,7.82-5.34,12.49a2.29,2.29,0,0,0,3.77-1,12,12,0,0,0,.78-5.4c-.11-1.55-1.89-3-3.4-1.95a17.76,17.76,0,0,1-13.16,3.26l.6,4.43a25.87,25.87,0,0,1,11.21-1.8L217,176.7c-3.78,2-7.9.21-11.52-1.28l-1.2,4.35a43.48,43.48,0,0,0,8.05.51c2.08-.07,3.28-3.19,1.14-4.21a5.35,5.35,0,0,0-5.23-.07c-.43.2-2.63,1.89-2.88,1.65s1.43-2.38,1.68-2.91c1.26-2.58-2.41-4.81-3.9-2.28l-4.38,7.44a2.28,2.28,0,0,0,1.35,3.32,53.75,53.75,0,0,0,18,2L217,181a16.51,16.51,0,0,1-13.5-.18L201.71,185a29.92,29.92,0,0,0,21-3.5L220,177.94l-2.58,3c-1.87,2.18,1.16,5.32,3.19,3.19l5.52-5.76c2-2.1-1.17-5.29-3.19-3.19-2.48,2.58-5.11,6.39-8.1,8.41-3.84,2.6-9.77.75-13.57-.9-2.1-.91-5,1.82-2.74,3.55l3.2,2.49,1.6-3.85a8,8,0,0,1-3.45-.2q-1.49.85.82-.59c1.72-1.12,1.25-4.42-1.14-4.21-4.39.39-10.69,3.53-7.13,8.83,3.16,4.7,11.88,3.38,16.47,2l-2.2-3.77a8.33,8.33,0,0,1-10.8,0c-2.2-1.84-5.37,1.22-3.19,3.19a5.38,5.38,0,0,0,3,1.61c1.28.3,3-.65,2.86-2.18-.8-7.12-8-6.19-12.63-3.3a2.28,2.28,0,0,0,.54,4.13l.36.09-1.58-1.58.09.42,1-2.55c-2.36,1.72-6.43,1.77-9.2,1.82l2.26,2.26,4.47-1.25c2.82.5,4-3.5,1.2-4.35-5-1.49-16.85-1-14.77,6.9l3.32-2.55a4,4,0,0,0-2.68-.89v4.51a98.67,98.67,0,0,0,22-2.06l-1.74-4.13-13.84,8,3.4,1.95a2.9,2.9,0,0,1,3.68-2,2.26,2.26,0,0,0,0-4.51,12.8,12.8,0,0,0-10.32,3.8c-1.95,1.88.52,4.58,2.74,3.55a3.74,3.74,0,0,0,2.33-4L175,195.05c2.12,3.66-.81,8-1.78,11.55-.7,2.6,2.68,3.73,4.13,1.74a19.33,19.33,0,0,0,3.6-6.79c.52-2.26-.7-4.54-.15-6.65.74-2.86-3.33-3.87-4.35-1.2a7.57,7.57,0,0,1-4.17,4.41l2.74,3.55,3.33-2.92-3.19-3.19c-3,2.82-3,4.24-1.79,8a2.28,2.28,0,0,0,4.35,0c1-2.9,4.82-4.2,7.3-5.53l8.61-4.61-3.09-3.09c-2.56,3.4-7.68,3.85-10.52,7.31s-4,8.06-7.73,10.63l2.74,3.55c1.77-2.17,6.89-6.54,3.69-9.6-3.41-3.26-7.08,3.31-8.73,5.31l3.55,2.74,2.45-1.36-2.55-3.32a20.22,20.22,0,0,1-2.79,4.78l3.77,1a5.1,5.1,0,0,0-2.76-3.81c-2.5-1.49-4.78,2.41-2.28,3.9Z"/><path class="cls-6" d="M202.4,123.53a14.46,14.46,0,0,1,6.73-2.59c4.37-.6,4.25-8,0-8.71l-.88-.15,2,7.55q-4.47-1-2.87.56a11.53,11.53,0,0,0,1,1.08c.42.38,1.71,1.55,1.65,1.2l7.55-4.39-.7-1.26-8.25,3.48c5,6.45,6.87,19.68-.43,25.29l6.18,6.18a32,32,0,0,0-4-34.91L206,124.4c2.95.94,3.4,6.88,4,9.41A123,123,0,0,1,212,146.44c.76,6.46,2,12.8,7.13,17.26l5.47-7.09A9.8,9.8,0,0,1,222,154a4.21,4.21,0,0,1-.71-1.24q-.46-1.15-.13-.07l-2.7,2.07c.09,0,5.63,6.33,6.87,6.87a5.9,5.9,0,0,0,8.14-3.12c3.6-9.32-7.38-13.68-11.57-19.65l-7.09,5.47a26.6,26.6,0,0,0,7.23,4c2.71,1,6.3,1.67,8.13,4.15,2.89,3.92,9.65,1.79,8.25-3.48a14,14,0,0,0-8-9.16,36.78,36.78,0,0,0-6.48-2.1c-1.76-.44-6-1.07-6.93-2.93v4.56c.82-1.65,11.78,8.1,12.57,8.89,2.9,2.93,7.44.58,7.71-3.19.18-2.56-.62-4.68-.28-7.25a10.37,10.37,0,0,0-.87-6.09c-2.14-4.37-7.32-7.28-12.07-7.82-4.57-.53-7.44,3.47-6.06,7.78,1.58,4.93,7.62,6.89,11.92,8.68,2.57,1.06,6-1.65,5.71-4.35a10.64,10.64,0,0,0-4.1-7.84c-2.12-1.69-7.07-2.39-8.41-4.69l.46,3.48.17-.91-2.07,2.7c.52-.23,5.25,3.19,5.24,3.87-.07,5.81,9,5.82,9,0,.08-7.4-11.16-15.13-18.07-12a5.55,5.55,0,0,0-2,8.33,12.12,12.12,0,0,0,4.78,3.76c1.27.62,5.8,1.65,6,3.3l5.71-4.35a38.45,38.45,0,0,1-4.13-2,7,7,0,0,1-1.22-.72q-1.32-1.18-.51,1.64l-3.9,2.24c3.21,0,5.39,1.94,5.21,4.91-.15,2.49.64,4.91.48,7.3l7.71-3.19c-3.9-3.94-8.55-8.19-13.75-10.31C218,130,212,130.16,209.38,134.45c-2.89,4.7,2.52,8.54,6.26,10.2,4,1.8,12.7,1.76,14,6.82l8.25-3.48a17.69,17.69,0,0,0-7.37-6c-3-1.36-6.73-1.93-9.41-4-3.64-2.83-10.33.86-7.09,5.47a29.08,29.08,0,0,0,5.65,5.9c1.7,1.39,6,4.08,5,6.79l2.07-2.7c1.64-1.09,2.68,1.57,1.37-1a15.11,15.11,0,0,0-1.58-2.18,14.07,14.07,0,0,0-3.51-3.46c-3-1.86-7-1.81-9.41.88-5.09,5.66,1.73,13.5,6.35,16.7,4.19,2.9,9.35-3.73,5.47-7.09-6-5.19-4.9-16.24-6.35-23.44s-2.89-15.68-10.79-18.18c-4.68-1.49-7,4.33-4.39,7.55a22.57,22.57,0,0,1,2.59,24c-1.78,3.58,2.26,9.19,6.18,6.18,11.12-8.56,12.11-26.64,3.67-37.65-3-3.9-9.47-1.84-8.25,3.48a9.73,9.73,0,0,0,3,5.25c3.46,3.26,8.31-.07,7.55-4.39-.56-3.14-3.63-5.37-6-7.28a6.32,6.32,0,0,0-8.86.46c-2,2.29-1.59,6.93,2,7.55l.88.15v-8.71a20,20,0,0,0-8.88,3.5c-4.74,3.29-.23,11.12,4.56,7.8Z"/><path class="cls-7" d="M221.06,124.32c1,3.66,1.57,7.53.63,11.27-.73,2.94-2.51,5.47-3.82,8.17-2.74,5.65-6.62,10.25-10.48,15.17-.44.56.35,1.37.8.8,2.37-3,4.83-6,7.11-9.06,2.05-2.78,3.28-5.94,4.9-9,3.14-5.9,3.71-11.1,2-17.67a.56.56,0,0,0-1.09.3Z"/><path class="cls-7" d="M210.11,164.38c6.57,1,11.06-.35,15.49-5.33a40.66,40.66,0,0,0,8.86-17.11,1.13,1.13,0,0,0-2.18-.6,38.89,38.89,0,0,1-5.88,13.09c-4.06,5.68-8.37,8.94-15.69,7.77-1.42-.23-2,1.95-.6,2.18Z"/><path class="cls-7" d="M211,170c4.28.73,8.8,1.17,13-.36s7.21-5.19,10.13-8.41c1-1.07-.62-2.68-1.6-1.6-2.36,2.61-4.94,5.85-8.16,7.41-4,1.91-8.56,1.49-12.74.77-1.42-.24-2,1.93-.6,2.18Z"/><path class="cls-7" d="M204.11,173.67c.06,3.34,1.15,6.13,4.68,6.8a19.07,19.07,0,0,0,12.73-2.42c1.27-.71.13-2.66-1.14-1.95a17.41,17.41,0,0,1-7.81,2.34c-3.55.17-6.13-.56-6.2-4.77a1.13,1.13,0,0,0-2.26,0Z"/><path class="cls-7" d="M197.3,182.75a9,9,0,0,0,9.19,8.08c2.17-.05,2.18-3.44,0-3.39a5.53,5.53,0,0,1-5.8-4.69c-.28-2.13-3.67-2.16-3.39,0Z"/><path class="cls-7" d="M184.8,190.16a22.93,22.93,0,0,0,5.77-1.14L188,185.71l-.16.22,1.35-1c-2.42.77-5.39.69-7.91.72-2.9,0-2.91,4.55,0,4.51a53.86,53.86,0,0,0,6-.39c1.8-.22,3.46-.2,4.61-1.75s-.77-3.92-2.55-3.32a18.16,18.16,0,0,1-4.57,1c-2.88.21-2.9,4.73,0,4.51Z"/><path class="cls-7" d="M180.92,198.44a27.84,27.84,0,0,1,9.44-3.49c2.87-.4,1.65-4.75-1.2-4.35-3.85.54-7.12,2.14-10.51,3.94-2.57,1.37-.29,5.26,2.28,3.9Z"/><path class="cls-7" d="M201.38,157.49c1.73-2.18,2.36-4.51,3.32-7.08,1.27-3.39,3.67-6.13,5.13-9.44,2-4.53,4.7-10.15.46-14.17-1.05-1-2.65.59-1.6,1.6,4.22,4-1.22,12.78-3.67,16.6-2.19,3.4-2.77,7.78-5.24,10.9-.89,1.13.69,2.73,1.6,1.6Z"/><path class="cls-7" d="M204.41,121.79a17.56,17.56,0,0,1,3.77,6.64c.75,2,4,1.15,3.26-.9-1.1-3-2.36-5.87-4.64-8.13a1.69,1.69,0,0,0-2.39,2.39Z"/><path class="cls-7" d="M207.85,129.45a18,18,0,0,1-.16,5c-.39,2.13,2.88,3,3.26.9a21.2,21.2,0,0,0,.28-5.87,1.74,1.74,0,0,0-1.69-1.69,1.7,1.7,0,0,0-1.69,1.69Z"/><path class="cls-7" d="M196.39,120.27c3.15-.48,6.72-1.69,9.81-.41.67.28,1-.81.3-1.09-3.28-1.35-7.07-.09-10.41.41-.72.11-.41,1.2.3,1.09Z"/><path class="cls-7" d="M208.4,136.16a3,3,0,0,1-.23,1.57,1.16,1.16,0,0,0,.4,1.54,1.14,1.14,0,0,0,1.54-.4,5.19,5.19,0,0,0,.54-2.71,1.16,1.16,0,0,0-1.13-1.13,1.14,1.14,0,0,0-1.13,1.13Z"/><path class="cls-7" d="M218.59,163a4.7,4.7,0,0,0,2.8-1.61,26.92,26.92,0,0,1,3.43-2.92,10.86,10.86,0,0,0,4-6.08,1.13,1.13,0,0,0-2.18-.6,9.2,9.2,0,0,1-4,5.45,13.81,13.81,0,0,0-1.93,1.52c-.85.86-1.4,1.87-2.71,2.05s-.82,2.38.6,2.18Z"/><path class="cls-7" d="M209.5,158.14c2.07-1.81,4.64-2.52,6.63-4.51a28.42,28.42,0,0,0,4.71-6.36c2.9-5.28,4-11,2.48-16.85a1.13,1.13,0,0,0-2.18.6c1.64,6.17-.12,12.35-3.71,17.49a19.16,19.16,0,0,1-5.4,5.56,26.9,26.9,0,0,0-4.12,2.47c-1.1,1,.5,2.55,1.6,1.6Z"/><path class="cls-7" d="M213.9,155.12c1.75-2.45,2.65-5.41,4.58-7.74l-1.89-1.1a5.21,5.21,0,0,1-.61,2,1.13,1.13,0,0,0,1.95,1.14,65.16,65.16,0,0,0,4.4-8.68c.56-1.34-1.62-1.92-2.18-.6a61.31,61.31,0,0,1-4.18,8.14l1.95,1.14a9.23,9.23,0,0,0,.84-2.52c.17-1-1.09-2.05-1.89-1.1-2.07,2.49-3.07,5.58-4.94,8.2-.85,1.18,1.11,2.31,1.95,1.14Z"/><path class="cls-7" d="M220.89,137.56a60.08,60.08,0,0,1-6.25,12.64c-.79,1.22,1.16,2.36,1.95,1.14a62.69,62.69,0,0,0,6.48-13.18c.49-1.37-1.69-2-2.18-.6Z"/><path class="cls-7" d="M204.53,121.12a12.8,12.8,0,0,1,2.58,4c.69,1.35,2.33,3.58,2.06,5.17-.36,2.13,2.9,3,3.26.9.4-2.37-.57-4.18-1.62-6.25s-2-4.55-3.89-6.21c-1.62-1.45-4,.93-2.39,2.39Z"/><path class="cls-8" d="M219.8,121.73a20.14,20.14,0,0,1,12,6.54c2,2.26,3.71,5.21,2.69,8.29-.8,2.42-2.54,4.9-3.77,7.13-3.87,7.05-14.17,24.57-24,15.24-1.05-1-2.65.59-1.6,1.6,11.08,10.49,22.5-6.57,27.22-15,1.5-2.68,4.28-6.31,4.91-9.31.47-2.23-.72-5-1.84-6.83a21.67,21.67,0,0,0-15-9.78c-1.42-.21-2,2-.6,2.18Z"/><path class="cls-8" d="M190.19,129.72c4.49-4.47,5.57-11,11.34-14.31,4.84-2.78,9.52-3,13.48,1.52a22.33,22.33,0,0,1,5,9.57c1.76,7.55-1,14.33-4.78,20.78-3.93,6.71-9.24,13-17.51,13.72-1.44.12-1.45,2.38,0,2.26,8.82-.76,14.76-7,19.09-14.22,4.5-7.54,7.66-15.66,5-24.43-1.7-5.66-7.14-14.87-14.17-13.91a21,21,0,0,0-11.3,5.85c-3.21,3.45-4.35,8.23-7.72,11.59a1.13,1.13,0,0,0,1.6,1.6Z"/><path class="cls-9" d="M163,178.62a16.13,16.13,0,0,0-3.27,2.56A8.72,8.72,0,0,1,157,183.3a2.32,2.32,0,0,0-1.58,2.78,2.28,2.28,0,0,0,2.78,1.58,11.73,11.73,0,0,0,3.93-2.5,17.19,17.19,0,0,1,3.18-2.64c2.54-1.4.27-5.3-2.28-3.9Z"/><path class="cls-9" d="M144.41,164c3.22,0,3.22-5,0-5s-3.22,5,0,5Z"/><path class="cls-9" d="M192.13,123.73a36.17,36.17,0,0,1,6.41,1.12c1.93.41,3.47-.38,5.33-.44l-1.6-.66c.42.46,1.13,1.4,1,2-.37,2.87,4.14,2.85,4.51,0,.29-2.26-1.9-6-4.44-5.84-1.83.11-3.14.7-5,.2a28.14,28.14,0,0,0-6.23-.9c-2.91-.1-2.9,4.42,0,4.51Z"/><path class="cls-9" d="M183.18,173.11a5.26,5.26,0,0,0,3.29-2.59,2.26,2.26,0,1,0-3.9-2.28l-.13.24q-.2.3.12-.13a3.08,3.08,0,0,0-.38.38q.42-.31.13-.11l-.23.13q-.33.15.17-.07l-.26.08a2.26,2.26,0,1,0,1.2,4.35Z"/><path class="cls-9" d="M150.87,173.46a18.77,18.77,0,0,1,3.13-.55,2.29,2.29,0,0,0,1.95-3.4,12.92,12.92,0,0,1-1.12-9.25h-4.35a26.21,26.21,0,0,0,4.07,8.82l3.55-2.74a10.18,10.18,0,0,1-2.8-7.76c.14-2.9-4.38-2.9-4.51,0a14.71,14.71,0,0,0,4.12,10.95c1.72,1.83,5.06-.62,3.55-2.74a22.77,22.77,0,0,1-3.62-7.74,2.28,2.28,0,0,0-4.35,0,17.83,17.83,0,0,0,1.57,12.72l1.95-3.4a26.64,26.64,0,0,0-4.33.71c-2.81.71-1.62,5.07,1.2,4.35Z"/><path class="cls-9" d="M151.64,170.07c-.16-.32,0,.12,0,.13s-.11-.32-.12-.36-.16-.88-.08-.21l-3.85,1.6.2.21q.23.28-.08-.12s.25.39.27.43a9.87,9.87,0,0,1,.48,1,2.26,2.26,0,0,0,1.35,1,2.31,2.31,0,0,0,1.74-.23,2.28,2.28,0,0,0,1-1.35,2.62,2.62,0,0,0-.23-1.74,7.73,7.73,0,0,0-1.57-2.41,2.27,2.27,0,0,0-2.47-.47,2.21,2.21,0,0,0-1.39,2.06,8.07,8.07,0,0,0,.77,2.72,2.27,2.27,0,0,0,3.09.81,2.32,2.32,0,0,0,.81-3.09Z"/><path class="cls-6" d="M145.66,199.45a27.32,27.32,0,0,0,7.44-3.85c2.58-1.93,4.58-4.5,7.21-6.36l-2.28-3.9c-3.23,2.32-6.58,4.8-10.52,5.68-3.34.75-6.22,1.17-9.36,2.64-2.63,1.23-.34,5.13,2.28,3.9,3.5-1.64,7.23-1.6,10.79-3a41.06,41.06,0,0,0,9.09-5.36c2.33-1.68.1-5.59-2.28-3.9-4.73,3.35-7.9,7.75-13.57,9.75-2.72,1-1.55,5.32,1.2,4.35Z"/><path class="cls-6" d="M106.89,215.84A116.35,116.35,0,0,0,142,199.58c2.37-1.63.29-5.34-2.28-3.9l-5,2.8a2.28,2.28,0,0,0-.46,3.55,3.46,3.46,0,0,0,1.58.88c.2.06,2,.11,1-.12L135.3,200l-.07.33,2.78-1.58-.23-.05.54,4.13a89.33,89.33,0,0,1,9.73-5.9l-2.28-3.9a49.23,49.23,0,0,1-7.26,4.27l2.28,3.9,10.79-6.7c2.46-1.53.2-5.44-2.28-3.9l-10.79,6.7c-2.5,1.55-.32,5.14,2.28,3.9a49.23,49.23,0,0,0,7.26-4.27,2.26,2.26,0,0,0-2.28-3.9,89.33,89.33,0,0,0-9.73,5.9c-1.47,1-1.5,3.68.54,4.13l.23.05a2.29,2.29,0,0,0,2.78-1.58l.07-.33a2.29,2.29,0,0,0-1.58-2.78c-1.24-.3-1.84-.72-.61.4l-.46,3.55,5-2.8-2.28-3.9a112.59,112.59,0,0,1-34,15.8c-2.8.77-1.61,5.12,1.2,4.35Z"/><path class="cls-6" d="M118.05,210.36a36,36,0,0,0,12.75-5.45c2-1.39.83-4.85-1.74-4.13l-7.16,2c-2.83.79-1.62,4.88,1.2,4.35,3.4-.63,6.32-2.62,9.3-4.29l4.35-2.42,2.9-1.62q2.77-.64.25-1.9a2.26,2.26,0,0,0,2.2.58,11.32,11.32,0,0,0,2.77-1.34c2.43-1.57.17-5.48-2.28-3.9l-1.69.88,2.2.58c-2-1.83-4.61.57-6.45,1.6-4.49,2.5-9.7,6.53-14.76,7.47l1.2,4.35,7.16-2L128.52,201a32.78,32.78,0,0,1-11.67,5c-2.84.62-1.64,5,1.2,4.35Z"/><path class="cls-6" d="M90.93,199.53c10.71-4.71,20.82-10.71,31-16.43,2.12-1.19,4.27-2.35,6.32-3.68,2.24-1.45,4-3.51,6.14-5,1.33-.91,2.82-1.17,4.12-2.14,2.46-1.85,3.84-3.7,7-4.61l-1.2-4.35-4.79,1.53c-1.68.54-2.41,3.26-.54,4.13a4.93,4.93,0,0,0,3.84.47c2.85-.57,1.64-4.92-1.2-4.35l-.36,0-.54,4.13,4.79-1.53c2.75-.88,1.61-5.16-1.2-4.35a16.84,16.84,0,0,0-5.58,2.64,37.46,37.46,0,0,1-5.39,3.56c-1.72.9-2.82,2.51-4.28,3.75a52.28,52.28,0,0,1-8.18,5.21c-10.58,6-21.12,12.24-32.26,17.14-2.65,1.17-.36,5.06,2.28,3.9Z"/><path class="cls-6" d="M197.71,123.19c4.88.07,6.48,4.4,6.47,8.64h4.51l0-3.86h-4.51a38.91,38.91,0,0,1-3.91,19.15c-2.44,5.33-5.19,11.39-9.39,15.59-4,4-11.23,3.6-16.39,5.65a35,35,0,0,0-11.9,7.92c-1.52,1.51,0,4.57,2.2,3.77,6.25-2.29,12.23-4.87,16-10.63a2.27,2.27,0,0,0-1.35-3.32,24.81,24.81,0,0,0-24.53,9.65c-1.37,1.8,1.3,4.32,3.09,3.09a54.35,54.35,0,0,1,14.85-7.25l-1.74-4.13c-5.25,3.05-12.81,2.68-13.12,10.17a2.27,2.27,0,0,0,3.4,1.95,204.62,204.62,0,0,1,28.07-15c2.41-1.06.65-4.71-1.74-4.13a45.52,45.52,0,0,1-8.6,1.26l1.6,3.85a22.27,22.27,0,0,1,6.49-5.3q1.18-1.71.35-.55a5.68,5.68,0,0,1-1,1.1,23.71,23.71,0,0,1-2.2,1.94c-1.51,1.24-.27,3.94,1.6,3.85a9.6,9.6,0,0,0,4.44-1.22c1.62-.87,1.39-3.78-.54-4.13l-6.48-1.18v4.35A30.43,30.43,0,0,0,196,156.67a2.27,2.27,0,0,0-2.74-3.55l-1,.48c-2.61,1.28-.32,5.17,2.28,3.9l1-.48-2.28-3.9c-2.83,1.49-6.86,6.14-2.57,8.72s6-3.15,7.42-5.79a2.27,2.27,0,0,0-3.55-2.74c-2.61,2.3-7.77,5.18-7.4,9.26a2.35,2.35,0,0,0,2.26,2.26c2.63.34,4.06-2.72,4.8-4.79,1.53-4.27,2.2-8.09,6-11.06,2-1.57-.62-5-2.74-3.55a13.2,13.2,0,0,0-6,9c-.3,1.71,1.56,3.82,3.32,2.55a14.12,14.12,0,0,0,5.13-7.09c1.3-3.62,1.59-8,5.05-10.28l-2.74-3.55c-8.56,8.47-12.18,20.4-23,26.83a17.74,17.74,0,0,1-8.93,2.76c-2.39,0-4.63-.81-7-.55-4.64.51-7.72,3.69-9.28,7.9a2.27,2.27,0,0,0,1.58,2.78c2.53.5,5.36-1.28,4.23-4.2-1.28-3.32-4.5-1.4-5.58.89a2.32,2.32,0,0,0,.81,3.09c3.62,2.25,6.56-2.5,8.86-4.62,4.14-3.82,10.88-5.39,15.87-8,10-5.26,18.86-12.34,25-21.9,1.6-2.5-2.2-4.54-3.9-2.28l-1.2,1.21,3.19,3.19a15.7,15.7,0,0,1,1.56-1.67,2.28,2.28,0,0,0-1.6-3.85l-1-.07,2.18,2.86c.6-3.37.89-6.76,1.18-10.17l-4.43.6a17.6,17.6,0,0,1,1.08,5l4.43-.6c-.79-4.15-4.08-8.17-3.06-12.49l-4.13.54c.23.3,1.21,2.16,1.18,1.45l1.12-1.95,1.82,0-4.13.54c4.49,6.4.91,13-4.3,17.62a54.44,54.44,0,0,0-6.22,5.89c-1.85,2.23-3.22,4.42-6,5.69s-.34,5,2.28,3.9a50.21,50.21,0,0,0,12.35-7.7,2.27,2.27,0,0,0-1-3.77c-3.11-.7-5.4.75-7.69,2.76a51.35,51.35,0,0,1-11.9,7.8c-9.19,4.45-19.82,7.64-28.2,13.5-2.36,1.65-.11,5.57,2.28,3.9,7.17-5,16.09-7.74,24-11.48a104.13,104.13,0,0,0,11-5.65c2-1.25,7-7,9.29-6.47l-1-3.77a46.24,46.24,0,0,1-11.44,7l2.28,3.9c3.51-1.62,5.2-4.58,7.69-7.36,2.91-3.25,6.72-5.54,9.39-9,4.27-5.6,5.16-13.09,1-19-1-1.47-3.68-1.5-4.13.54-.55,2.53,1.71,6.93,4.81,5.14a2.25,2.25,0,0,0,1.12-1.95A6.71,6.71,0,0,0,203,121c-1.08-1.43-3.64-1.54-4.13.54-1.3,5.58,2.06,9.62,3.06,14.89.47,2.48,4.61,1.94,4.43-.6a22.91,22.91,0,0,0-1.24-6.2,2.27,2.27,0,0,0-4.43.6c-.26,3-.49,6-1,9a2.3,2.3,0,0,0,2.18,2.86l1,.07-1.6-3.85a15.7,15.7,0,0,0-1.56,1.67,2.26,2.26,0,0,0,3.19,3.19,11.25,11.25,0,0,0,1.91-2.12l-3.9-2.28c-5.32,8.31-13,14.51-21.52,19.28a119.81,119.81,0,0,1-12.83,6,16.75,16.75,0,0,0-4.39,2.44c-.42.35-5.15,5-4.8,5.19l.81,3.09-1.35-3.32,1.58,2.78c2.58-7,9.5-3.44,15-4.32a26.11,26.11,0,0,0,11.89-5.71c8.76-6.91,12.39-17.23,20.16-24.92,1.78-1.76-.56-5-2.74-3.55a13.54,13.54,0,0,0-5.27,7c-1.32,3.57-1.59,8-4.91,10.41l3.32,2.55a8.79,8.79,0,0,1,3.95-6.31L197,145.79a16.6,16.6,0,0,0-4.86,6.16c-.53,1.12-2.59,8.39-2.73,8.37l2.26,2.26c-.18-2,4.86-5,6.08-6.07l-3.55-2.74a10.4,10.4,0,0,0-1,2.33,10.91,10.91,0,0,1-.67,1.54,3.87,3.87,0,0,0,3-.62c2.59-1.37.31-5.17-2.28-3.9l-1,.48c-2.61,1.28-.32,5.17,2.28,3.9l1-.48-2.74-3.55a25.46,25.46,0,0,1-10.65,6.58c-1.9.67-2.38,3.92,0,4.35l6.48,1.18-.54-4.13-2.16.6,1.6,3.85c2.46-2,7.35-6.52,3.26-9.45-4.68-3.34-10.56,2.72-13.32,5.87-1.21,1.37-.48,4,1.6,3.85a51.8,51.8,0,0,0,9.8-1.42l-1.74-4.13a204.62,204.62,0,0,0-28.07,15l3.4,1.95c.14-3.38,8.17-4.69,10.88-6.27,2.18-1.26.75-4.9-1.74-4.13a58.35,58.35,0,0,0-15.93,7.7l3.09,3.09a20,20,0,0,1,19.43-7.57l-1.35-3.32c-3.06,4.69-8.24,6.71-13.3,8.56l2.2,3.77a32.86,32.86,0,0,1,17.6-8.95c5.71-1.1,9.12-2.33,12.8-7.1,7.46-9.68,13.38-23.05,12.52-35.44-.2-2.87-4.54-2.94-4.51,0l0,3.86c0,2.9,4.51,2.91,4.51,0,0-6.88-3.56-13-11-13.16-2.91,0-2.91,4.47,0,4.51Z"/><path class="cls-6" d="M148.76,173.33c1.58,3.95,3.89,8.22,8.7,6.1a2.27,2.27,0,0,0,.46-3.55c-3.2-3-4.65-7-6.45-10.9a2.27,2.27,0,0,0-3.9,0l-.24.46,4.13.54a10.26,10.26,0,0,1-1-4l-4.43.6a10.62,10.62,0,0,1,.7,5.53l4.43-.6c-.51-2.62-.14-5.33-.11-8a2.22,2.22,0,0,0-1.12-1.95c-4.64-2.23-9.34,2.77-14,3.7l1.74,4.13q7.8-3.48,15.41-7.36a2.28,2.28,0,0,0-.54-4.13,6.83,6.83,0,0,0-5.15.54c-2.38,1.1-.66,4.73,1.74,4.13,8.4-2.11,12.23-11.84,17.2-18.07,6.69-8.37,15-16.45,26.2-17.52,2.87-.27,2.9-4.79,0-4.51-9.84.94-17.89,6.21-24.58,13.26a109,109,0,0,0-9.15,11.3c-3,4.19-5.48,9.83-10.87,11.18l1.74,4.13,1.67-.08-.54-4.13q-7.61,3.88-15.41,7.36c-2.46,1.1-.62,4.6,1.74,4.13a24.36,24.36,0,0,0,6.3-2.25c1.48-.74,3-2.48,4.22-1.91l-1.12-1.95c0,3.13-.33,6.1.27,9.18.53,2.71,4.16,1.71,4.43-.6a12.92,12.92,0,0,0-.86-6.73c-.85-2.16-4.68-2.15-4.43.6a17.69,17.69,0,0,0,1.17,5.18c.66,1.68,3.13,2.4,4.13.54l.24-.46h-3.9c2,4.28,3.63,8.53,7.15,11.81l.46-3.55c-.68.3-1.92-3-2.07-3.4-1.07-2.66-5.43-1.5-4.35,1.2Z"/><path class="cls-6" d="M145.18,195.7c4.43-5.37,11.25-8.27,16.59-12.86l-3.19-3.19a21.34,21.34,0,0,1-6,4.59c-2.22,1.16-.65,5.12,1.74,4.13a88.72,88.72,0,0,0,8.83-4.75c3.09-1.71,6.55-2.22,9.64-3.84,5.39-2.83,8.36-9,14.23-11l-1.74-4.13c-4.68,3.37-10,4.25-15.32,6a17.47,17.47,0,0,0-4.87,2.53c-2.18,1.6-4.3,4.44-7.08,2.36-1.7-1.28-3.69.82-3.32,2.55l.89,4.09,4.35-1.2c-1.44-4.27-4.4-6.75-7.51-9.85-2.06-2.05-5.26,1.14-3.19,3.19,2.45,2.44,5.2,4.45,6.35,7.85a2.26,2.26,0,0,0,4.35-1.2L159,177l-3.32,2.55c5,3.71,8.39-.38,12.49-3,3-1.9,6.64-2.34,9.95-3.43a33.72,33.72,0,0,0,9.4-4.5c1.92-1.38.87-5-1.74-4.13-5.58,1.91-8.54,6.37-13,9.9-2.74,2.17-6,2.55-9.08,3.88-3.72,1.59-6.87,4.23-10.62,5.79l1.74,4.13a24.62,24.62,0,0,0,6.9-5.29,2.26,2.26,0,0,0-3.19-3.19,56.19,56.19,0,0,1-10.12,7.14c-2.92,1.56-4.4,3.22-6.47,5.73-1.83,2.22,1.34,5.44,3.19,3.19Z"/><path class="cls-6" d="M162.75,175c5.42-4.8,12.8-6.68,18.68-10.83A41.27,41.27,0,0,0,190,156c1.28-1.61,2.5-3.26,3.68-4.94q.66-.93,1.3-1.88,2.68-2.09-2.62-1.62l-.92-3.42,0,.82.92-3.42c.59-1.3,2.3-1.08.26-.63a32.45,32.45,0,0,1-3.53.86,16,16,0,0,1-5.8-.65c-4.73-1.19-9.28-1.79-14-.2A21.44,21.44,0,0,0,159,148.38c-1.1,1.43-2,3-3.12,4.4a29.92,29.92,0,0,1-2.23,2.63c-.61.65-2.64,1.82-.71,1.08h3.6l3.06,3.32-4.73,8.33a27.83,27.83,0,0,0,7.39-2.59L154,154.91a1.52,1.52,0,0,1-1.25.49l-1.62,12.38a36.59,36.59,0,0,0,8.39-2.8c2.35-1.1,4.59-2.84,7.14-3.46,2.8-.68,5.6.14,8.43-.86,2.63-.93,4.45-2.77,6.29-4.79a48.45,48.45,0,0,1,12.76-10.11c2.45-1.34,5.72-2.17,7.7-4.23,2.39-2.49,2.4-6.19,2.8-9.41.68-5.46,1-11.81-6-12.72-5-.65-12.55.2-17.08,2.53-5.12,2.64-9.77,7.74-13.18,12.3a171.52,171.52,0,0,1-12.28,14.55c-6.12,6.54,2.87,14.81,9.58,9.58a39.08,39.08,0,0,0,7.09-7.65,46.35,46.35,0,0,0,3.12-4.41,15,15,0,0,0,1.27-2.7q1.24-2.32-.85,0c-3.54,2.22,2,.16,3,0,1.7-.34,3.42-.55,5.13-.83A32.94,32.94,0,0,0,195,139.17c7.66-4.17.83-15.87-6.84-11.69-6.06,3.3-13.95,1.58-19.75,5.54-2.79,1.9-3.18,4.86-4.92,7.47a34.66,34.66,0,0,1-7.41,8.29l9.58,9.58c2.6-2.78,5.29-5.51,7.82-8.36s4.42-6.39,7-9.29c1.92-2.17,4.46-5.32,7.09-6.62a21.13,21.13,0,0,1,8.89-1.42l-4-3.11.27.43-.92-3.42a30.27,30.27,0,0,1-1.2,8.39l3.11-4c-3.86,2.4-8.1,4-11.84,6.63s-6.83,6.35-10.47,9.3c-1.54,1.25-2.33.86-4.46,1a20.23,20.23,0,0,0-6.36,1.57c-4.44,1.82-8.19,4.35-13,5.3-5.52,1.11-6.8,9.91-1.62,12.38,6.17,2.93,12.66,2.23,17.66-2.6,5.69-5.49-1.53-14.11-8.21-10.64a15.56,15.56,0,0,1-4.16,1.22c-3.63.75-5.59,5-4.73,8.33,1.8,7,9.7,7.8,14.63,3.55a41.25,41.25,0,0,0,6.4-7.35c1.48-2.06,2.61-4.33,5-5.51,2.72-1.35,5.24-.37,8,.27a28.92,28.92,0,0,0,9.49.85c5.77-.57,13.78-2.75,14.86-9.4,1-6.26-4.86-11.1-10.76-10.81-6.39.32-9.62,5.74-13,10.37A33.72,33.72,0,0,1,168.67,156c-5.49,2.82-10.83,5.32-15.5,9.45-6.54,5.79,3.07,15.34,9.58,9.58Z"/><path class="cls-6" d="M155.77,178.65l-4.72,5.29c-1.24,1.39-3.1,2.92-2.86,5,.33,2.85,4.85,2.89,4.51,0,0-.27,1.09-1.29,1.32-1.54l1.57-1.76,3.37-3.78c1.93-2.16-1.25-5.37-3.19-3.19Z"/><path class="cls-10" d="M148.17,155.58c8.79-2.41,11.34-11.06,16.15-17.8,6.69-9.39,16.41-15.64,27.92-17,1.42-.17,1.44-2.43,0-2.26a41.12,41.12,0,0,0-25.07,12.33,55.33,55.33,0,0,0-8,10.85c-2.93,5.06-5.55,10.07-11.62,11.74a1.13,1.13,0,0,0,.6,2.18Z"/><path class="cls-10" d="M165.77,183.5c5.31-1.63,9.26-4.87,13.78-8,4.83-3.35,10.17-6.18,14.83-9.73,4.26-3.24,6.56-8.31,8.67-13,2.53-5.68,4.84-11.46,7-17.28.51-1.36-1.67-1.95-2.18-.6-2,5.38-4.15,10.72-6.47,16-2.42,5.47-4.75,10.6-9.87,14.08-4.12,2.8-8.39,5.36-12.49,8.18-4.55,3.13-8.54,6.59-13.91,8.23-1.38.43-.79,2.6.6,2.18Z"/><path class="cls-10" d="M145.12,162.85a21.4,21.4,0,0,0,10.57,18.84,1.13,1.13,0,0,0,1.14-1.95,19.12,19.12,0,0,1-9.45-16.89,1.13,1.13,0,0,0-2.26,0Z"/><path class="cls-10" d="M191.09,120.34c4.4,1.74,11.73-1.05,14.7,3.09,3.41,4.76,2.47,12.68-.23,17.4a1.13,1.13,0,0,0,1.95,1.14,20.43,20.43,0,0,0,.9-18.14c-.91-2.24-1.73-4.32-4.24-4.82-4.26-.86-8.24.84-12.48-.84-1.35-.53-1.94,1.65-.6,2.18Z"/><path class="cls-10" d="M154.82,180.48a60.12,60.12,0,0,1-16,10.8,1.14,1.14,0,0,0,.57,2.1c10.18-.45,19.18-4.81,27.58-10.31,1.21-.79.08-2.75-1.14-1.95-8,5.27-16.67,9.57-26.44,10l.57,2.1a62,62,0,0,0,16.46-11.15c1.06-1-.54-2.59-1.6-1.6Z"/><path class="cls-10" d="M138.33,165.29c-8.43,7.53-18.6,13-28.36,18.64s-19.86,10.9-30.06,15.85c-1.22.59-.31,2.29.87,2.06,24.57-4.67,45.41-21,66.05-34.16,1.22-.78.09-2.73-1.14-1.95-20.47,13-41.16,29.3-65.51,33.93l.87,2.06q16.06-7.78,31.53-16.69c9.45-5.46,19.17-10.85,27.35-18.15,1.09-1-.52-2.56-1.6-1.6Z"/><path class="cls-10" d="M153.46,180.91c-8.84,7.77-18.79,14-28.78,20.2-9.29,5.75-18.62,11.33-29.31,14a1.13,1.13,0,0,0,.3,2.22c14-.67,27.13-6.57,39.79-12.14,11.24-4.95,22.44-11,29.62-21.26.83-1.19-1.12-2.32-1.95-1.14-6.93,9.94-18,15.69-28.81,20.45-12.26,5.4-25.08,11.18-38.65,11.83l.3,2.22c10.88-2.72,20.4-8.38,29.85-14.23,10.15-6.28,20.25-12.66,29.23-20.56,1.09-1-.51-2.55-1.6-1.6Z"/><path class="cls-10" d="M148.31,153c-4.84,4.8-10.88,7.55-17.1,10.13-.93.38-1.21,1.91,0,2.18a24.88,24.88,0,0,0,15.7-1.73c1.33-.58.18-2.52-1.14-1.95a22.28,22.28,0,0,1-14,1.5v2.18c6.57-2.73,13-5.63,18.09-10.71a1.13,1.13,0,0,0-1.6-1.6Z"/><circle class="cls-10" cx="159.32" cy="173.98" r="2.83" transform="translate(-66.41 242.5) rotate(-64.4)"/><path class="cls-10" d="M147.39,155.74a2.63,2.63,0,0,1,.43-3.26,2.43,2.43,0,0,1,3.24.09"/><path class="cls-6" d="M196.7,156.76a38.82,38.82,0,0,0,5.31-8.14,2.33,2.33,0,0,0-.81-3.09,2.27,2.27,0,0,0-3.09.81,34.14,34.14,0,0,1-4.61,7.22,2.33,2.33,0,0,0,0,3.19,2.27,2.27,0,0,0,3.19,0Z"/><path class="cls-8" d="M236,140c8.32,6,2.19,15.81-4,20.29a46.63,46.63,0,0,1-8.37,4.93A24,24,0,0,1,218,167c-.89.15-13.52.37-9.78-4.92.84-1.19-1.12-2.32-1.95-1.14-3.39,4.79,3.22,8,7.12,8.45,6.51.75,12.84-2.52,18.1-6,4.57-3,9.26-7,10.47-12.57A12.28,12.28,0,0,0,237.15,138c-1.18-.85-2.31,1.11-1.14,1.95Z"/><path class="cls-8" d="M207.76,166.15c-3.88.32-3.66,7.76-2.44,10.25,1.65,3.37,5.66,3.39,8.89,2.86a44.43,44.43,0,0,0,17.69-7.39c5-3.5,6.48-6.72,5.21-12.74-.3-1.42-2.48-.82-2.18.6,1.11,5.21-1.19,8.27-5.39,11a43.64,43.64,0,0,1-8.2,4.16,39.28,39.28,0,0,1-7.73,2.19c-2.9.46-5.51.58-6.56-3.85-.17-.73.16-4.78.71-4.83,1.44-.12,1.45-2.38,0-2.26Z"/><path class="cls-8" d="M203.33,171.39c-3.21,2.73-6.16,6.07-4.61,10.53,1.43,4.12,6.18,8,10.55,8.4,9.33.83,18.15-9.84,20.35-17.9a1.13,1.13,0,0,0-2.18-.6,24.22,24.22,0,0,1-11.65,14.47c-4.38,2.46-8.53,2.13-12.15-1.25a6.16,6.16,0,0,1-2.4-5.65c.06-3.31,1.3-4.38,3.68-6.4,1.11-.94-.5-2.53-1.6-1.6Z"/><path class="cls-8" d="M198.05,179.82c-2.21.45-6.68,1.11-7.88,3.38s.8,6,2.2,7.72c5,6.21,12.31,3.6,17.95,0,1.22-.78.09-2.74-1.14-1.95-4.05,2.61-9,5.42-13.51,2-1.71-1.3-3.84-3.85-3-6.13.69-2,4.05-2.39,6-2.79,1.42-.29.82-2.46-.6-2.18Z"/><path class="cls-8" d="M194.58,190.2a71.66,71.66,0,0,1-7.59,0c-2.67-.08-6.52.43-8.77-1.12l-.57,2.1a20.17,20.17,0,0,0,13-2.67,1.13,1.13,0,0,0-1.14-1.95,18.29,18.29,0,0,1-11.85,2.37c-1.22-.15-1.38,1.54-.57,2.1,2.21,1.52,4.9,1.27,7.49,1.35a94.86,94.86,0,0,0,10,.1c1.44-.11,1.45-2.37,0-2.26Z"/><path class="cls-8" d="M194.17,191.44c-5.81,1.81-9.77,6-13.27,10.78-1.71,2.35-4.46,8.2-7.36,9.25q-6.36-1.1-3-3.32a22.67,22.67,0,0,0,1.91-2.17,27.65,27.65,0,0,0,2.48-3.9,1.14,1.14,0,0,0-.67-1.66c-1.88-.28-1.51-.48.2-1a1.14,1.14,0,0,0,.27-2.06q-.19-5,3.28-4.31a14.1,14.1,0,0,0,2.79-.11c1.44-.13,1.45-2.39,0-2.26-3,.27-7.37-.62-9.16,2.61-1.27,2.29-.09,4.75,1.95,6l.27-2.06c-1.58.5-4.33.86-4.43,3.07-.11,2.5,2.63,2.06,4.23,2.3l-.67-1.66c-1.52,2.81-4.08,4.68-5.76,7.23-.76,1.15-1.12,1.71-.64,3.23.74,2.33,3.47,3.3,5.72,2.93,3.7-.6,6-4.46,7.94-7.25,3.9-5.56,7.7-11.33,14.51-13.45,1.38-.43.79-2.61-.6-2.18Z"/><path class="cls-8" d="M200.59,160.56c-2.13,2.81-8.12,10.56-1.59,12.43a1.13,1.13,0,0,0,.6-2.18c-3.88-1.11,1.82-7.63,2.94-9.12.88-1.16-1.08-2.28-1.95-1.14Z"/><path class="cls-8" d="M207.73,160.17l-2.52.44a3.49,3.49,0,0,0-2.16.85,3.27,3.27,0,0,0-.66,1.93q-.19,1.47-.38,3c-.18,1.44,2.07,1.42,2.26,0l.23-1.77c.06-.48,0-1.39.45-1.63a6,6,0,0,1,1.59-.28l1.8-.31c1.43-.25.82-2.43-.6-2.18Z"/><path class="cls-8" d="M206.29,165.56a13.09,13.09,0,0,1-2.42.66,4.51,4.51,0,0,0-1.94,1.23,9.41,9.41,0,0,0-1.9,4.15,1.13,1.13,0,0,0,2.18.6,6.51,6.51,0,0,1,1.54-3.37c1-.85,2.56-.7,3.69-1.32s.14-2.65-1.14-1.95Z"/><path class="cls-8" d="M205.23,169.56a36.34,36.34,0,0,0-6.9,2.71c-1.8.94-4,2-5.07,3.75-.78,1.23,1.18,2.37,1.95,1.14.95-1.51,3.4-2.53,5-3.3a34,34,0,0,1,5.66-2.12,1.13,1.13,0,0,0-.6-2.18Z"/><path class="cls-8" d="M190,183.59c-4.95,1.46-9.19-.14-14.09.17-2.4.15-5,1-6.47,3-2.5,3.43-1.8,9.41,3.24,8.52,1.43-.25.82-2.43-.6-2.18q-3.26-2.13-.36-5.53a7,7,0,0,1,4.18-1.56,30.47,30.47,0,0,1,5.87.55,21.74,21.74,0,0,0,8.82-.8,1.13,1.13,0,0,0-.6-2.18Z"/><path class="cls-7" d="M174.67,162.07c3.1.31,5.89-1.64,8.26-3.43a19.39,19.39,0,0,0,5.73-6.55l-2.92-1.71a12.61,12.61,0,0,1-7.8,6.61c-2.08.63-1.19,3.9.9,3.26a16,16,0,0,0,9.82-8.17c1-1.94-1.92-3.65-2.92-1.71a16,16,0,0,1-4.39,5.23c-1.84,1.46-4.23,3.32-6.67,3.08-2.17-.21-2.15,3.17,0,3.39Z"/><path class="cls-7" d="M176.06,161.2l6.47-4.46c1.85-1.27,4-2.43,5.48-4.11s-.93-4-2.39-2.39-3.71,2.83-5.55,4.1l-5.71,3.94c-1.78,1.23-.09,4.16,1.71,2.92Z"/></svg>