<svg id="圖層_1" data-name="圖層 1" xmlns="http://www.w3.org/2000/svg" viewBox="0 0 300 300"><defs><style>.cls-1{fill:#f5b81b;}.cls-2{fill:#06143f;}.cls-3{fill:#f7f8f8;stroke:#4c4948;}.cls-3,.cls-5{stroke-miterlimit:10;}.cls-4{fill:#e6e6e6;}.cls-5{fill:none;stroke:#f5b81b;stroke-width:2px;}.cls-6{fill:#723934;}.cls-7{fill:#c1a690;}.cls-8{fill:#efefef;}.cls-9{fill:#231815;}.cls-10{fill:#612b26;}.cls-11{fill:#91514a;}</style></defs><title>鮪魚01</title><ellipse class="cls-1" cx="149.98" cy="146.83" rx="149.13" ry="80.6"/><ellipse class="cls-2" cx="150.21" cy="145.52" rx="147.21" ry="77.72"/><ellipse class="cls-3" cx="150.24" cy="153.28" rx="106.86" ry="58.69"/><ellipse class="cls-4" cx="150.24" cy="157.89" rx="98.9" ry="54.55"/><ellipse class="cls-5" cx="150.3" cy="153.34" rx="106.42" ry="58.99"/><path class="cls-6" d="M175.46,101.71a5.37,5.37,0,0,1-4.35,2l1.77,4.27,2-1-1.26-4.66q-7.78,4.49-15.7,8.73c-4,2.16-10.41,4.06-13.59,7.35a2.57,2.57,0,0,0-.39,3c1.81,3.4,6.66,4.53,10.16,4.84,7,.62,14,.2,21,1.23l.66-4.91c-6.07.75-12.28-.24-18.34-.77-3.07-.27-3,3.93-.66,4.91,4.85,2,11.38,1.37,16.54,1.56q4.77.18,9.55.23c2,0,4.92.56,6.8-.38,2.37-1.18,2.22-3.72.74-5.58-2.33-2.93-4.53-3.48-6-7.41-1.19-3.11-2-6.45-2.86-9.66s-5.68-1.78-4.82,1.33a37.7,37.7,0,0,0,5.59,11.93c1.34,1.89,1.93,2.18-.7,2.5-2.81.34-7.66.14-9.88-2L170,123.62l2.46.5,1.26-4.66a91.91,91.91,0,0,1-10.6.55c-1.2,0-9.48-.33-8.83-1.44l-2.16,1.24c4.78.15,9.94,2.16,14.66,3q6.66,1.18,13.4,1.73c3.06.24,3-3.93.66-4.91-7.26-3-15.14-3-22.69-4.9l-1.33,4.82c8,1.32,16.13,3.25,24.25,3.23,2.93,0,3.25-4,.66-4.91a74.45,74.45,0,0,0-18.89-4.09v5a70.68,70.68,0,0,1,16.28,2,2.51,2.51,0,0,0,1.93-4.57c-5.89-4.15-12.85-4.55-19.83-4.6v5c3.28-.41,6.57-.79,9.84-1.24,1.62-.22,3.75-.3,5-1.58a4.22,4.22,0,0,0,1-3.43c-.29-1.33-2.36-2.36-2.34-2.33l-.39,3,.28-.28c2-2-.56-5.41-3-3.93a28.07,28.07,0,0,1-5.78,2.66l1.93,4.57a41.87,41.87,0,0,1,11.74-4.51l-3.16-2.41-.67,7.59c-.28,3.2,4.72,3.19,5,0l.67-7.59c.15-1.7-1.71-2.74-3.16-2.41a46.69,46.69,0,0,0-12.94,5c-2.41,1.38-.81,5.48,1.93,4.57a33.7,33.7,0,0,0,7-3.16l-3-3.93-.28.28a2.55,2.55,0,0,0-.39,3c1.44,2.34,2.91.87-.21-.07-2.23-.67-6.62.83-8.95,1.12-3.1.39-3.32,5,0,5,6.14,0,12.14.27,17.31,3.91l1.93-4.57a76.59,76.59,0,0,0-17.61-2.18c-3.26,0-3.16,4.73,0,5a69.35,69.35,0,0,1,17.57,3.91l.66-4.91c-7.68,0-15.37-1.8-22.92-3-3.11-.52-4.51,4-1.33,4.82,7.55,1.86,15.43,1.93,22.69,4.9l.66-4.91a135.54,135.54,0,0,1-15.7-2.24c-4-.8-8.26-2.36-12.36-2.49A2.5,2.5,0,0,0,150,116c-7,11.81,19.12,8.9,23.74,8.41,2.36-.25,3.53-3.28,1.26-4.66a8.46,8.46,0,0,0-5-1.18,2.53,2.53,0,0,0-1.77,4.27c2.55,2.4,5.7,3,9.1,3.28,3,.29,8.65.81,11.25-1.48,2-1.79,1.36-3.81.12-5.81-2.8-4.53-5.68-8-7.13-13.34l-4.82,1.33c1.14,4.1,2.09,8.53,3.84,12.42a10.86,10.86,0,0,0,2.25,3.29c.49.51,3.77,2.47,3.71,3.13l1.24-2.16c-1.18.66-4.45,0-5.82,0q-4.3-.06-8.6-.22c-4.69-.18-10.85.44-15.21-1.38l-.66,4.91c6.06.53,12.27,1.52,18.34.77,2.49-.31,3.73-4.46.66-4.91A117.86,117.86,0,0,0,163,121.43c-3.51-.11-12.62,1.36-14.67-2.49l-.39,3c1.49-1.55,4.77-2.48,6.68-3.47q3.8-2,7.56-4,7.07-3.81,14-7.83c2-1.15,1.3-5-1.26-4.66a8.36,8.36,0,0,0-5.58,2.44c-1.46,1.41-.44,4.48,1.77,4.27a11.64,11.64,0,0,0,7.89-3.48c2.24-2.31-1.29-5.85-3.54-3.54Z"/><path class="cls-7" d="M176.87,100.16a145.82,145.82,0,0,1,7,13.48c1.9,4,4.86,8.58,5,13.11.06,2.41,3.81,2.42,3.75,0-.12-4.57-2.54-8.73-4.45-12.79a166.78,166.78,0,0,0-8-15.7c-1.25-2.06-4.49-.18-3.24,1.89Z"/><path class="cls-7" d="M185,102.42A30.09,30.09,0,0,0,181.79,98a2.51,2.51,0,0,0-3.54,0,2.56,2.56,0,0,0,0,3.54,21.78,21.78,0,0,1,2.46,3.4,2.5,2.5,0,0,0,4.32-2.52Z"/><path class="cls-7" d="M140.81,126.41a16.67,16.67,0,0,0,8.82,6.19c2.86.9,4.12-3,1.93-4.57-2-1.4-4-2.7-6-3.94l-1.93,4.57,16.88,5.71,1.33-4.82c-4-.58-7.93-1.29-11.87-2.14l-1.33,4.82A64.13,64.13,0,0,1,159.41,135l1.33-4.82-7.65-1.43c-3.12-.58-4.5,4.09-1.33,4.82,5.28,1.22,11.75,3.2,17.16,2,2.37-.51,2.4-4.34,0-4.82-2.73-.55-5.42-1.19-8.1-1.95l-1.33,4.82a128,128,0,0,0,16.45,1.9v-5a42.06,42.06,0,0,1-7.93,0c-2.82-.28-3.37,4.26-.66,4.91,6.73,1.63,14.35,1.67,21.25,1.26,5.62-.33,6.88-2.88,8.19-7.76a5.53,5.53,0,0,0-.2-4.35c-1.09-2.73-1.61-5.59-2.68-8.31-1.18-3-3-5.47-4.05-8.59s-2-5.36-4.48-7.51-6,1.43-3.54,3.54c3.34,2.88,3.47,7.6,5.6,11.3a21.91,21.91,0,0,1,2.58,7c.34,1.59,1.29,2.87,1.66,4.35a4,4,0,0,1-.24,2.92c-1.25,2.75-3.17,2.44-5.85,2.42-5.63-.06-11.42.23-16.93-1.1L168,135.5a42.07,42.07,0,0,0,7.93,0,2.5,2.5,0,0,0,0-5,117.56,117.56,0,0,1-15.12-1.72c-3.12-.56-4.48,3.93-1.33,4.82,2.68.76,5.37,1.4,8.1,1.95v-4.82c-4.26.91-10.29-1.08-14.51-2l-1.33,4.82,7.65,1.43a2.5,2.5,0,0,0,1.33-4.82,64.13,64.13,0,0,0-10.82-2.74c-3.11-.51-4.52,4.13-1.33,4.82,3.94.85,7.88,1.56,11.87,2.14,3.12.45,4.45-3.76,1.33-4.82l-16.88-5.71c-2.73-.92-4.32,3.15-1.93,4.57,2.07,1.24,4.08,2.54,6,3.94l1.93-4.57a10.82,10.82,0,0,1-5.83-3.89c-1.9-2.55-6.25-.06-4.32,2.52Z"/><path class="cls-7" d="M140.81,123.56c5.83,3.81,13.41,7.09,20.32,8.08a120,120,0,0,0,25.48.88c6.44-.54,8.69-3.19,7.34-9.26-.81-3.63-1.42-7.72-3.11-11.06a71.36,71.36,0,0,0-6.16-9.45c-1.88-2.57-6.22-.08-4.32,2.52,3.38,4.61,6.31,9.32,7.71,14.87.72,2.87,2.38,6.13-1,7.28-2.55.86-6.68.07-9.31,0-6.06-.2-12.65.25-18.56-1.22a53.28,53.28,0,0,1-15.84-6.94c-2.7-1.77-5.21,2.56-2.52,4.32Z"/><path class="cls-7" d="M177.39,99c-3.95,2.29-8,4.64-11.93,6.82-1.61.89-3.42,1.37-5,2.37-1.93,1.25-3.49,2.88-5.56,4-3,1.53-6.47,2.28-9.17,4.26-1.09.8-3,2.1-3.31,3.5a.63.63,0,0,0,.92.71c2.36-1.22,3.37-3.37,6.34-4.27a.63.63,0,0,0-.33-1.21,12,12,0,0,0-4,1.8c-1,.73-1.62,2-2.69,2.59l.92.71c.19-.83,4.57-3.78,4.88-4,3.11-1.85,6.72-2.61,9.76-4.66,6.32-4.26,13.08-7.68,19.72-11.54a.63.63,0,0,0-.63-1.08Z"/><path class="cls-7" d="M150,116.28a33.15,33.15,0,0,1,5.06-3.71c.65-.46,0-1.54-.63-1.08a34.68,34.68,0,0,0-5.32,3.9c-.56.58.33,1.47.88.88Z"/><path class="cls-8" d="M155.24,109.84a29.18,29.18,0,0,0-.18,16.36.63.63,0,0,0,1.21-.33,27.86,27.86,0,0,1,.18-15.69c.24-.77-1-1.1-1.21-.33Z"/><path class="cls-8" d="M164,105.93c-.34,7.41-1.16,17,3.31,23.46.46.66,1.54,0,1.08-.63-4.26-6.12-3.47-15.68-3.14-22.83,0-.8-1.21-.8-1.25,0Z"/><path class="cls-8" d="M177.09,99c-2.24,6.34-2.41,12.86-2.19,19.52.15,4.66.22,9,3.7,12.49a.63.63,0,0,0,.88-.88c-3.89-3.88-3.37-10-3.41-15.06a45.39,45.39,0,0,1,2.23-15.73c.27-.76-.94-1.09-1.21-.33Z"/><path class="cls-8" d="M185.82,115.42A59.62,59.62,0,0,0,187.24,131c.17.78,1.38.45,1.21-.33a58.39,58.39,0,0,1-1.38-15.25c0-.8-1.22-.8-1.25,0Z"/><path class="cls-9" d="M176.63,96.73l-22.09,12.81-10.2,5.91c-1.45.84-4.59,2-5.29,3.76-1.39,3.52,4.38,4.85,6.55,5.71A104.35,104.35,0,0,0,167.32,131c6.37,1.05,13.24,2,19.69,1.36,4.07-.39,7.56-2.22,7.26-6.84-.15-2.35-1.5-4.44-2.67-6.4a69.66,69.66,0,0,1-5.7-11c-1.88-4.93-3-9.62-7.67-12.65-1.36-.87-2.61,1.29-1.26,2.16,4.54,2.93,5.27,8.18,7.19,12.82,1.68,4.06,4.15,7.52,6.18,11.37,5,9.35-8.91,8.15-13.79,7.77a101.26,101.26,0,0,1-15.64-2.47,104.23,104.23,0,0,1-13.8-4.31q-2.37-.92-4.69-2-.92-1.93,1.5-2.28c1.7-1.63,4.75-2.75,6.8-3.94l27.19-15.77a1.25,1.25,0,0,0-1.26-2.16Z"/><path class="cls-9" d="M138.78,120.74c-1,9.56,10.33,14.26,18,15.49,5.94,1,12,1.07,18,1.45,5.11.33,10.49,1.13,15.58.24,10.89-1.91,7.22-11.09,5.05-18.71-2.81-9.89-5.24-19.34-15.75-23.4-1.5-.58-2.15,1.84-.66,2.41,9.19,3.55,11.38,12.18,13.75,20.77.91,3.3,3.08,7.18,3,10.65-.13,6.27-7.09,6.24-11.55,6.11-7.3-.22-14.67-.75-21.95-1.39-7.44-.66-22.12-3.17-21-13.62.17-1.6-2.33-1.59-2.5,0Z"/><path class="cls-10" d="M125.69,120.92a17,17,0,0,0-13.52,16.17l4.91-.66-1-2.68-4.57,1.93c3.37,7,12.59,9.81,19.94,10a139.72,139.72,0,0,0,14.59-.51c3.14-.26,7.39-.47,9.62-3,1.83-2.1,1.23-4,.06-6.22-1.78-3.41-2.74-6.81-5.69-9.43a17.54,17.54,0,0,1-3.93-4.3,19.33,19.33,0,0,0-2.12-3.47c-2.51-2.73-6.11-2.48-9.53-2.12a13.89,13.89,0,0,0-8.8,3.78c-1.58,1.58-2.59,3.46-4.48,4.75-1.56,1.07-3.4,1.63-4.89,2.82-4.17,3.33-6.2,10.82-.27,13.14,3.63,1.42,7.8,1.34,11.59.94a44.39,44.39,0,0,1,6.71-.56c2.59.12,5,1.15,7.59,1.38,4.85.43,12.62-1.61,9.82-7.86-1.5-3.35-4.77-5.1-7.13-7.73-2.12-2.36-2.13-5.88-5.61-6.68-8.89-2-13.23,7.87-19.44,11.61l3.67,1.49v-.59a2.52,2.52,0,0,0-3.08-3.08c-2.29.8-4.66,2-4.85,4.74a3.85,3.85,0,0,0,3.95,4.15c4.3.17,8.87-1.93,13.15-2.46,5.32-.66,10.52-.18,15.23,2.5l1.26-4.66c-7.17-.49-15.9-4.54-22.67-.78l3.42.9c-2.26-3.81,4.31-7.12,7.42-7l-1.26-4.66a66.47,66.47,0,0,0-8.83,6.39c-1.79,1.52-.2,4.12,1.77,4.27,4,.3,8.06.31,12.11.26,2.06,0,3.44-2.79,1.77-4.27l-3.68-3.27-2.43,4.18,1.44.62c2.61,1.89,5.11-2.45,2.52-4.32a4.81,4.81,0,0,0-2.63-1.12c-2.25-.42-4.46,2.38-2.43,4.18l3.68,3.27,1.77-4.27c-4,0-8.07,0-12.11-.26l1.77,4.27a58.64,58.64,0,0,1,7.82-5.61,2.52,2.52,0,0,0-1.26-4.66c-7.2-.24-16.17,7.07-11.74,14.54a2.55,2.55,0,0,0,3.42.9c3.4-1.89,7.24-.38,10.79.3a77.93,77.93,0,0,0,9.36,1.16c2.52.17,3.34-3.48,1.26-4.66A27.08,27.08,0,0,0,136,131.17a45,45,0,0,0-7.11.77c-1.48.26-2.93.6-4.4.92l-1.75.4q-2.7-.32-1.31,1.57l-3.08-3.08a4.4,4.4,0,0,0,0,3.25A2.53,2.53,0,0,0,122,136.5c4.4-2.65,7-7.92,11.53-10.13a7.88,7.88,0,0,1,3.15-.77q1.42-.72,1.44.74a20.71,20.71,0,0,1,1.34,2.62,26.7,26.7,0,0,0,4.64,4.64c.64.58,2.77,2.1,2.73,2.91-.1,2-4.67,1.36-5.57,1.22-2.69-.42-5.1-1.26-7.85-1.25-3.35,0-6.64.87-10,.82-1.83,0-4.22.2-5.22-1.51-1.19-2,.66-3.56,2.49-4.76s3.95-2,5.62-3.74c3-3,4.94-5.89,9.73-5.83,2.25,0,3.79.43,5.17,2.19.69.88,1,2.11,1.72,3,1.9,2.58,4.66,3.7,6.07,6.73.47,1,.87,2.19,1.25,3.23.8,2.22,1.38,2-1.15,3.12-3.33,1.45-9,.66-12.61.78-7,.24-17.22-.16-20.69-7.39-1.21-2.52-5.6-.73-4.57,1.93l1,2.68a2.51,2.51,0,0,0,4.91-.66A12,12,0,0,1,127,125.74c3.15-.66,1.82-5.48-1.33-4.82Z"/><path class="cls-7" d="M141.37,110.3a126.83,126.83,0,0,1,9.81,12.84c2.81,4.16,6.71,8.83,8.36,13.59.88,2.54-.62,7,2.41,8.55,2.12,1.09,4.53-.3,5.59-2.21,1.5-2.71.52-5.79-1.09-8.16-2.69-4-6-7.42-8.45-11.59-2.14-3.64-3.47-8-6-11.33s-6.38-3.43-9.78-5.74l-.6,4.57c2.88-.64,10.29,4.17,10.12-2.29l-4.66,1.26c5.09,10.75,13.75,18.94,19.18,29.47,1.48,2.86,5.79.33,4.32-2.52-5.43-10.53-14.1-18.74-19.18-29.47-1.08-2.28-4.72-1.12-4.66,1.26l0,.75,1.24-2.16c.87-.54-3.22-1.44-3.32-1.46a11.14,11.14,0,0,0-4.38.33c-2.24.5-2.27,3.44-.6,4.57,2.81,1.91,6.39,1.91,8.52,4.75,1.82,2.43,2.81,5.63,4.25,8.29a69.35,69.35,0,0,0,6,9.29c.82,1.07,1.7,2.1,2.54,3.15,1.08,1.34,3.53,7.31,4.1,4.26,1-5.57-4.4-11.77-7.16-16a151.92,151.92,0,0,0-13-17.54c-2.13-2.42-5.65,1.13-3.54,3.54Z"/><path class="cls-7" d="M135.73,109.32a7.19,7.19,0,0,1-4.21,3.28c-3,1.11-1.85,5.55,1.33,4.82,1.57-.36,4.47-2.21,5.73-.7,1.44,1.72,4.25.26,4.27-1.77v-1.72l-4.66,1.26c2.37,5,6.24,8.61,10.15,12.42,4.61,4.49,10.18,10.81,6.6,17.59-1.5,2.84,2.81,5.37,4.32,2.52,8-15.18-11.33-23.64-16.75-35.06-1.1-2.32-4.64-1.08-4.66,1.26V115l4.27-1.77c-3-3.58-6.85-1.44-10.59-.58l1.33,4.82a14.14,14.14,0,0,0,7.2-5.58c1.83-2.65-2.5-5.16-4.32-2.52Z"/><path class="cls-7" d="M130.2,113.69c-7,5-13.69,10.39-19.37,16.91-4.23,4.86-4,7.88,1.19,11.61,13.45,9.73,30.94,6.25,45.88,2.84,2.35-.54,1.36-4.15-1-3.62-12,2.73-24.9,5.65-36.77,1-2.16-.85-7.23-2.86-8.2-5.07-1.16-2.67,2.89-5.62,4.6-7.39a112.87,112.87,0,0,1,15.54-13c1.94-1.39.07-4.65-1.89-3.24Z"/><path class="cls-8" d="M115.73,125.66c2,2,2.66,5.41,3.26,8.1a16.15,16.15,0,0,1-.3,9.25c-.27.76.94,1.09,1.21.33a17.63,17.63,0,0,0,.3-9.91c-.66-2.93-1.37-6.48-3.58-8.65-.58-.56-1.46.32-.88.88Z"/><path class="cls-8" d="M123.08,118.3a48.25,48.25,0,0,1,10.24,29.09.63.63,0,0,0,1.25,0,49.68,49.68,0,0,0-10.61-30c-.49-.63-1.37.26-.88.88Z"/><path class="cls-8" d="M133.32,110.58a63.45,63.45,0,0,1,7.85,16.84c2,6.42,4.27,13.23,2.37,19.94a.63.63,0,0,0,1.21.33c1.82-6.45,0-12.73-1.87-19a67.26,67.26,0,0,0-8.48-18.77c-.45-.66-1.53,0-1.08.63Z"/><path class="cls-8" d="M151.25,126c1.35,2.91.78,6.4,1.32,9.49.72,4.09,1.21,7.36.37,11.5-.16.79,1,1.12,1.21.33a27.18,27.18,0,0,0-.08-10.75c-.68-3.72-.12-7.74-1.73-11.21-.34-.73-1.42-.09-1.08.63Z"/><path class="cls-9" d="M138.55,105.28c-5.78,4.15-11.56,8.32-17,12.88-5,4.16-11.63,9.26-14.79,15.07-5.59,10.29,18.9,15.26,24.92,15.86a91.29,91.29,0,0,0,24-.58c3.89-.69,6.25-2.89,5.9-7-.5-5.83-5.23-11.94-8.29-16.68a138.26,138.26,0,0,0-13.4-17.41c-1.08-1.2-2.84.57-1.77,1.77A133.36,133.36,0,0,1,156,134.25a42.55,42.55,0,0,1,2.08,4.12c1,2.38.93,2.12-.42,4.91-1.48,3-1.5,2.67-4.39,3-1.31.12-2.62.2-3.93.29a101.66,101.66,0,0,1-17.7.06,44.93,44.93,0,0,1-16.47-4.66c-2.82-1.5-6.87-3.58-6.29-7.43.31-2.06,4.58-5.44,6-6.91,7.51-7.63,16.22-13.91,24.89-20.14,1.29-.93,0-3.1-1.26-2.16Z"/><path class="cls-9" d="M141.35,107.48c2.27-.66,5-1.57,7.32-.81s3.46,3.27,4.62,5.26c2.36,4,4.83,8,7.46,11.9,2.34,3.45,5.65,6.8,7.56,10.47,2.31,4.44.28,5.65-2.88,7.58-2.13,1.3-4.39,2.41-6.64,3.5-1.45.7-.18,2.86,1.26,2.16,3.73-1.8,11.21-4.29,12.19-9,.48-2.36-1-4.26-2.21-6.06-2.14-3.07-4.48-6-6.6-9.09s-4.14-6.24-6.08-9.45c-1.41-2.33-2.56-5.17-4.36-7.21-3.27-3.7-8-2.84-12.31-1.6a1.25,1.25,0,0,0,.66,2.41Z"/><path class="cls-6" d="M169.06,150.19c-2.15,3.19.15,6.92,3.71,7.54,3,.52,6.19-.3,9.23,0,4,.37,7.84,1.72,11.9,1.7a103.36,103.36,0,0,0,11.65-1.12c2.17-.26,4.21-.46,5.76-2.19a7.31,7.31,0,0,0-.07-10.38,94.18,94.18,0,0,1-12.55-18.05c-1.87-3.45-3.64-10.92-9.14-6.94-2.25,1.63-3.56,4.9-5,7.16q-3.27,5-6.83,9.79c-2.43,3.28-10.29,9.75-6.45,14.36,2.23,2.68,9.41,3.73,10.25-.79s-5.22-6.48-7.75-3.26l3.93,3c.75-1.23,8,2.8,9.22,3,3.31.65,6.74.11,10.09.54l-.66-4.91a28,28,0,0,1-18.42-.25l-.66,4.91c11.63,1.39,23.17,2.52,34.81.58,2.45-.41,2.32-4.31,0-4.82-2.11-.46-2-3-3.12-4.67-1.56-2.35-3.54-4.31-5-6.79-2.86-5-7.55-7.7-9.19-13.56l-4.18,2.43,6.44,7.7c1.88,2.25,5.23-.62,3.93-3-1.21-2.25-2.3-6.06-5.2-6.51-2.69-.42-5.8,2.34-7.88,3.68-7,4.56-10.73,9.79-13.76,17.54a2.51,2.51,0,0,0,2.41,3.16c4.73-.58,8.87-2.16,13.43-3.32,5.39-1.37,10.36,2.59,15,5.05l.6-4.57c-6.76,1.35-20.62-8.79-24.24.76a2.52,2.52,0,0,0,2.41,3.16c2.11,0,4-1.11,6.11-.92,1.43.13,2.78,1.25,4.3,1,2-.31,3.12-1.9,3.74-3.73,2.54-7.47-4.85-13.23-4.2-20.45l-4.66,1.26q5.55,9.17,11.9,17.79l3.42-3.42c-5-3.14-6.79-10.18-13.28-11a2.46,2.46,0,0,0-2.16,1.24c-2.29,3.69,1.21,9,2.85,12.39,1.23,2.51,5.61.73,4.57-1.93-1.7-4.31-2.54-11-8.36-10.87-5.43.13-9.54,8.48-12.34,12.18-1.49,2,1.45,4.86,3.42,3.42,4.36-3.18,7.89-8,12.94-10.08l-2.82-3.67a35.67,35.67,0,0,1-7.3,7.16c-2.09,1.54-1,5.6,1.93,4.57a81,81,0,0,0,9.18-3.91l-2.52-4.32-3,1.6c-2.84,1.52-.31,5.84,2.52,4.32l3-1.6c2.85-1.53.34-5.75-2.52-4.32a70.48,70.48,0,0,1-8,3.41l1.93,4.57a44.23,44.23,0,0,0,9.09-9c1.27-1.67-.87-4.48-2.82-3.67-5.71,2.35-9.26,7-14.14,10.58l3.42,3.42c1.46-1.93,4.31-7.24,6.39-8.34,3.55-1.88,4.24,3.48,5.17,5.84l4.57-1.93c-.68-1.38-3.68-6-2.85-7.34L191,136.76c2.37.28,4.29,3.88,5.66,5.57a20.4,20.4,0,0,0,5.1,4.7c2,1.26,4.94-1.36,3.42-3.42q-6.36-8.63-11.9-17.79a2.52,2.52,0,0,0-4.66,1.26c-.46,5.08,2.21,8.67,3.86,13.23a9,9,0,0,1,.86,3.68c-.41,2.76-1.3,1.59-2.92,1.31-2.6-.44-4.21.86-6.75.87l2.41,3.16c.71-1.88,10.29,2.11,11.5,2.42a19.83,19.83,0,0,0,9.26.31c2.11-.42,2.43-3.59.6-4.57-4.23-2.27-9.09-5.94-14-6.29-5.52-.39-11.38,3.19-16.91,3.87l2.41,3.16c2-5.11,4.17-9.35,8.68-12.69,1.56-1.16,3.65-2.9,5.49-3.55,2.5-.88,2.23.3,3.54,2.72l3.93-3-6.44-7.7c-1.65-2-4.82.15-4.18,2.43,1.91,6.83,7,10.48,10.55,16.21.87,1.38,1.87,2.6,2.86,3.88,1.21,1.57,1.72,3.24,2.67,4.83,1.24,2.09,2.18,3,4.7,3.6v-4.82c-11.13,1.85-22.36.57-33.48-.76-2.95-.35-3.17,4-.66,4.91a32.41,32.41,0,0,0,21.08.25c2.84-.92,2-4.56-.66-4.91-3.11-.4-6.57.28-9.59-.5-2.39-.62-4.16-2.57-6.5-3.3a6.22,6.22,0,0,0-7.53,2.68c-1.45,2.36,2.14,5.3,3.93,3q-2.18-3.49.45-5.71l1.52-1.95q1.68-2.18,3.31-4.39,3.81-5.18,7.28-10.6,1-1.55,2-3.11a1.72,1.72,0,0,1,1,1.23c1,.78,1.82,3.67,2.46,4.76,2,3.42,4.35,6.74,6.56,10.06.92,1.38,1.82,2.76,2.83,4.07.78,1,3.15,2.71,3.49,3.85,1.47,5-8.49,4.32-11.38,4.55-4.22.33-8-.64-12.11-1.24a39.14,39.14,0,0,0-5.34-.43c-.52,0-5.74-.17-5.94.13,1.8-2.68-2.53-5.18-4.32-2.52Z"/><path class="cls-11" d="M185.78,132.56c-7.57,4.53-8.3,18.44-2.51,24.64,1.81,1.94,4.65-.12,4.18-2.43a32,32,0,0,1,4.46-24.42l-4.32-2.52-3.33,7.61,4.57,1.93a17.58,17.58,0,0,1,4.83-7.36c2.37-2.2-1.15-5.68-3.54-3.54-3.69,3.32-7.59,6.36-9,11.33-.85,3-.62,6.26-1.11,9.37a57.46,57.46,0,0,1-2.91,10c-1.07,3,3.76,4.35,4.82,1.33a59.57,59.57,0,0,0,3.44-15c.56-6.51,3.68-9.38,8.28-13.51l-3.54-3.54A23.06,23.06,0,0,0,184,136c-.93,2.64,3.43,4.53,4.57,1.93l3.33-7.61c1.27-2.9-2.51-5.27-4.32-2.52-5.56,8.45-7,18.44-5,28.27l4.18-2.43c-3.59-3.84-3.12-14,1.5-16.79,2.76-1.65.25-6-2.52-4.32Z"/><path class="cls-11" d="M184.13,142.15c3.95-6.38,15.31-13.81,10.53-22.39-1-1.8-3.24-1.42-4.32,0-1.32,1.73-1.83,3.91-3.13,5.7-1.45,2-3.32,3.65-4.91,5.54a18.33,18.33,0,0,0-4.6,10.7c-.26,3.21,4.74,3.19,5,0,.39-4.71,3.65-7.6,6.59-10.91,2.33-2.62,3.32-5.82,5.37-8.51h-4.32c2,3.55-2.8,7.7-4.92,10.09a53.09,53.09,0,0,0-5.61,7.25c-1.7,2.74,2.63,5.26,4.32,2.52Z"/><path class="cls-11" d="M169.66,152.24c-.18,1.74-.79,2.93.37,4.51a5.62,5.62,0,0,0,3.78,2.07c4.09.77,9.45,1.33,13.55.52a2.51,2.51,0,0,0,1.49-3.67l-2.28-3.2c-1.84-2.59-6.16-.14-4.32,2.52q1.18,1.71,2.28,3.47c1.7,2.72,5.94.28,4.32-2.52-1.44-2.49-6-5.61-4.77-8.69l-4.18,1.1a4.72,4.72,0,0,1,1.64,3.3l4.27-1.77c-1.61-2-3.05-3.87-3.08-6.53,0-1.66.32-2.46-.55-4a2.52,2.52,0,0,0-4.66,1.26,8.94,8.94,0,0,0,3.13,6.83l2.43-4.18L178,141.93a2.53,2.53,0,0,0-3.16,2.41c-.21,4.58,2.21,8.08,4.92,11.54l1.77-4.27c-1.47-.05-4.63.23-5.94-.55v.48l.52-1c.57-1,1-2,1.56-3L173,146.3c.21,2.55-.68,4.92.23,7.41,1.09,3,5.92,1.71,4.82-1.33-.71-2,.12-4,0-6.08-.19-2.29-3.42-3.63-4.66-1.26-1.37,2.61-4.09,6-2,8.9s7.1,2.56,10.19,2.66c2.39.08,3-2.69,1.77-4.27-1.9-2.42-3.6-4.78-3.46-8l-3.16,2.41,5.07,1.29c2.29.58,4.4-2.48,2.43-4.18a4.18,4.18,0,0,1-1.66-3.29l-4.66,1.26c.25.45-.39,2.68-.31,3.32a7.94,7.94,0,0,0,.73,2.38,30.06,30.06,0,0,0,4,5.89c1.33,1.67,4.43.3,4.27-1.77a10.11,10.11,0,0,0-3.1-6.84c-1.47-1.43-3.48-.59-4.18,1.1-2.21,5.35,3,8.53,5.28,12.55l4.32-2.52q-1.1-1.76-2.28-3.47L182.25,155l2.28,3.2,1.49-3.67c-2.4.47-5.09-.1-7.51-.29-.79-.06-3.13.17-3.61-.28s-.36-.65-.25-1.7c.33-3.2-4.67-3.17-5,0Z"/><path class="cls-7" d="M171.27,131.06l-6,11.84,4.57,1.93c1.6-4,3.59-11.64,7.78-13.72l-3.67-2.82a53.42,53.42,0,0,1-6.66,13.49l4.32,2.52c5.65-8.72,12-16.89,18.49-25l-3.93-3a24.71,24.71,0,0,1-8.07,8.1l3,3.93a28.08,28.08,0,0,0,5.84-8c1.4-2.86-2.7-5.35-4.32-2.52-2.71,4.74-8.43,7.1-11.73,11.53-4.63,6.21-9,12.67-13.43,19-1.87,2.65,2.44,5.08,4.32,2.52A92.75,92.75,0,0,0,168.57,140c1.56-2.88-2.46-5.1-4.32-2.52-2.92,4.05-5.53,8.11-6.73,13l4.91.66-.12-4.46a2.52,2.52,0,0,0-4.66-1.26c-2.84,4.7-.12,9,3.36,12.36l.51-3.93q1.8,1.05,1.88-.48a12.53,12.53,0,0,1,1-2.67,9,9,0,0,1,3.74-3.85l-3.42-3.42L160.49,150c-1.75,2.71,2.58,5.22,4.32,2.52L169,146c1.4-2.16-1.32-4.6-3.42-3.42-3.94,2.22-7.42,7-7.47,11.73,0,3.14,2.87,6,5.89,3.91a2.54,2.54,0,0,0,.51-3.93c-1.51-1.48-4.16-3.68-2.58-6.3l-4.66-1.26.12,4.46c.08,2.75,4.22,3.48,4.91.66,1.11-4.5,3.56-8.1,6.23-11.81l-4.32-2.52a92.75,92.75,0,0,1-6.79,10.75l4.32,2.52c4.63-6.55,8.9-13.68,14.06-19.81,3.41-4,8.4-6,11.1-10.71l-4.32-2.52a24.47,24.47,0,0,1-5.06,7c-2,2,.6,5.45,3,3.93a30.54,30.54,0,0,0,9.87-9.89c1.48-2.35-2.14-5.28-3.93-3-6.72,8.46-13.4,17-19.28,26-1.76,2.72,2.52,5.16,4.32,2.52a58.19,58.19,0,0,0,7.17-14.69c.73-2.22-1.84-3.73-3.67-2.82-5.73,2.84-7.87,11.21-10.07,16.71-1.05,2.63,3.29,4.43,4.57,1.93l6-11.84c1.46-2.86-2.86-5.4-4.32-2.52Z"/><path class="cls-7" d="M188.06,118.56c7.34,2.68,9.4,13.51,14.31,19.08,3,3.44,14.06,11.84,8,16.14-2.81,2-8.27,2.55-11.64,2.6-4.18.06-8.42-.41-12.6-.56-3.91-.15-7.42.42-11.29.71-4.25.32-8.66-.59-12.88-1.06-2.45-.27-3.43,3.62-1.26,4.66,5.51,2.63,10,.46,15.74,1.21,5.53.73,10.49,2.62,16.09,1.18,2.51-.64,2.24-4.05,0-4.82a40.17,40.17,0,0,0-13.07-1.82c-2.26,0-4.52,0-6.78-.06-1.36-.06-7,0-7.73-1.05v2.52c.79-1.81,3.38-2.85,4.84-4a18.22,18.22,0,0,0,3.61-4c2.13-3.12,4-6.36,6.29-9.41,4.79-6.44,9.91-12.54,13.25-19.91,1.32-2.91-3-5.45-4.32-2.52-3.11,6.88-7.76,12.66-12.28,18.63-2.28,3-4.27,6.15-6.37,9.29-2.38,3.56-6,4.88-8.54,8-3.76,4.73,2.94,6.47,6.41,7,7.82,1.25,15.74-.47,23.37,2.15V157.7c-4.79,1.23-9.37-.67-14.1-1.31s-9.63,1.45-13.88-.58l-1.26,4.66c5.35.59,10.5,1.36,15.86.66,5.74-.75,11.54-.17,17.31.09,7.12.32,18.6.35,22.1-7.65,2.82-6.44-6.07-14-9.84-17.92-6.6-6.93-8.21-18.35-17.95-21.9-3-1.1-4.33,3.73-1.33,4.82Z"/><path class="cls-7" d="M172.36,156.49a9.25,9.25,0,0,1-3.56-6.51c-.28-3.18-5.29-3.21-5,0a14.7,14.7,0,0,0,6,10.83,2.52,2.52,0,0,0,3.42-.9,2.56,2.56,0,0,0-.9-3.42Z"/><path class="cls-7" d="M181.37,120a58.18,58.18,0,0,0-8.11,4.29,3.09,3.09,0,0,0-1.56,3.28c.3,1.47,1.69,2.34,2.75,3.26,2.42,2.09,6-1.43,3.54-3.54l-1.08-.93c-.45-.39-.61-.93-.38-.12l-.25,1.93q-1,.82,0,.13l1.06-.62q1.06-.61,2.14-1.18c1.44-.77,2.9-1.49,4.38-2.18,2.91-1.36.38-5.67-2.52-4.32Z"/><path class="cls-7" d="M170.31,155.17a10.29,10.29,0,0,1,.56-4,2.5,2.5,0,1,0-4.82-1.33,14.28,14.28,0,0,0-.74,5.33,2.55,2.55,0,0,0,2.5,2.5,2.52,2.52,0,0,0,2.5-2.5Z"/><path class="cls-8" d="M170.14,146.7c2.25,1.84,2.76,3.57,3,6.47a10.16,10.16,0,0,0,.85,4.28c1.56,2.9,5.23,3.16,7.51,5.27.59.55,1.47-.33.88-.88-3.3-3.07-7.57-2.57-8-8.2-.24-3.42-.58-5.55-3.36-7.82-.62-.5-1.51.37-.88.88Z"/><path class="cls-8" d="M178,135.47a28.55,28.55,0,0,1,5.3,9.87,41.55,41.55,0,0,0,2.12,6.64c2.27,4.54,7.39,6.66,10.76,10.27.55.59,1.43-.3.88-.88a37.32,37.32,0,0,0-5.38-4.72,15.69,15.69,0,0,1-6.56-9.43,33.76,33.76,0,0,0-6.23-12.62c-.51-.62-1.39.26-.88.88Z"/><path class="cls-8" d="M187.11,122.17c3.5,3.93,6.11,7.58,6.7,12.9a27.05,27.05,0,0,0,2.16,8.85c2.65,5.71,6.72,12.67,12.6,15.51.72.35,1.36-.73.63-1.08-7.38-3.56-13.25-14.74-14.09-22.55-.66-6.08-3.09-10-7.12-14.52-.54-.6-1.42.28-.88.88Z"/><path class="cls-8" d="M200,130.26c2.18,4.59,6,8,8.24,12.59,1.89,3.9,3.2,7.65,6.83,10.25.65.47,1.28-.61.63-1.08-4.23-3-5.14-8.14-7.75-12.33-2.16-3.47-5.1-6.33-6.87-10.07-.35-.73-1.42-.09-1.08.63Z"/><path class="cls-8" d="M163.41,155.56a15.87,15.87,0,0,1,2.74,3.95,6.43,6.43,0,0,0,2.56,2.9c.71.38,1.34-.7.63-1.08-1.43-.77-2-2.24-2.7-3.6a13.5,13.5,0,0,0-2.36-3.05c-.56-.58-1.44.31-.88.88Z"/><path class="cls-9" d="M189.81,113c-4.18,7.67-8.68,15.15-13.57,22.38q-3.78,5.59-7.86,11c-2.27,3-5.5,6-7.05,9.45-1.86,4.15-.08,6.88,4.24,7.37,8.82,1,18.22.28,27-.49q5.93-.52,11.82-1.4c2.94-.43,6.91-.5,9.46-2.24,4.31-2.93,3.81-9.07,2-13.26-3.08-7-10.14-11-13.87-17.58-2.95-5.19-3.86-11.52-9.53-14.6-1.41-.77-2.68,1.39-1.26,2.16,4.71,2.55,5.77,8.06,8,12.51,2.33,4.64,6.15,8,9.61,11.75,4.83,5.25,10.18,16.16-.3,18.08a177.72,177.72,0,0,1-21.69,2.49c-5.93.34-13.52,1.5-19.32.16l-1.93-.09q-3.62-1.44-1.91-3.74c.27-1.83,2.27-3.37,3.39-4.81,1.54-2,3.08-3.95,4.57-6A267.72,267.72,0,0,0,192,114.25c.77-1.41-1.39-2.68-2.16-1.26Z"/><path class="cls-9" d="M189.25,111.92c-5,3.19-10.14,6.42-14.58,10.46-4.71,4.29-7.54,9.53-11.32,14.54-2.94,3.89-7.49,7.32-8,12.53-.43,4.71,2.76,8.57,5.84,11.72,1.13,1.15,2.9-.62,1.77-1.77-1.92-2-4.15-4.25-4.85-7-.93-3.65.91-6.57,3.14-9.2a95.9,95.9,0,0,0,7.51-9.86c5.54-8.47,13.28-13.92,21.71-19.25,1.36-.86.1-3-1.26-2.16Z"/><path class="cls-6" d="M124.24,135a7,7,0,0,1-5.21,1.79l1.76,4.28,2.59-.84-1.25-4.67q-8.94,4.19-18,8.12c-5,2.14-11.64,3.57-15.81,7a2.45,2.45,0,0,0-.66,2.44c1.18,3.9,6,5.62,9.6,6.18,7.31,1.14,14.61,1.21,21.89,2.83l.65-4.91c-6.1.36-12.19-1-18.2-2-2.58-.41-4.61,3.11-1.93,4.56,4.44,2.4,10.73,2.26,15.66,2.81q5.05.56,10.12,1c2.31.19,5.64,1,7.92.37,3.33-1,3-4.11,1.37-6.48-1.53-2.21-3.26-3.45-3.88-6.24-.8-3.62-.72-7.72-1-11.4-.2-3.19-5.2-3.21-5,0A36.7,36.7,0,0,0,128,152.75c.3.67,1.49,2.25,1.47,2.93q1.3,1.61-1.53.52h-1.79c-3.17-.23-7.57-.16-9.71-2.9l-1.78,4.25,1.89.4,1.78-4.25a93.66,93.66,0,0,1-11-.13c-2.21-.17-4.44-.67-6.64-.78-3.87-.19-.59.41,1,.9a154.31,154.31,0,0,0,22.76,5.45c2.56.38,4.65-3.13,1.93-4.56-7.25-3.83-15.4-4.45-23.09-7l-1.31,4.82c8,2,16.16,4.51,24.45,5,2.39.15,3.5-3.61,1.27-4.65A68.65,68.65,0,0,0,108.94,147l-.65,4.91a67,67,0,0,1,16.46,3.28c2.34.77,4.24-2.5,2.44-4.16-5.62-5.2-12.8-6-20.13-6.53l0,5c3.49-.21,7-.37,10.48-.64,1.74-.13,3.87-.14,5.25-1.4a4,4,0,0,0,1.32-3.21c-.13-1.28-2-2.73-1.85-2.24l-.66,2.44.35-.28c2.32-1.86-.59-5.15-3-4a32,32,0,0,1-6.66,2.41l1.89,4.58a49.05,49.05,0,0,1,13.26-4l-3.06-3.07-2.36,8c-.91,3.09,3.92,4.4,4.82,1.31l2.36-8c.58-2-1.28-3.35-3.06-3.07a53.59,53.59,0,0,0-14.44,4.46c-2.63,1.23-.79,5.25,1.89,4.58a37.8,37.8,0,0,0,7.85-2.9l-3-4-.35.28a2.42,2.42,0,0,0-.66,2.44c.18.48.38,1.29.82,1.6l.51.4q.39-2-1.24-1.45c-2.37-.92-8,.49-10.48.64a2.5,2.5,0,0,0,0,5c5.84.42,12,.86,16.55,5l2.44-4.16a72.3,72.3,0,0,0-17.79-3.46c-2.77-.19-3.45,4.47-.65,4.91A64.09,64.09,0,0,1,125,157.07l1.27-4.65c-7.81-.49-15.54-3-23.12-4.85-3.14-.77-4.36,3.81-1.31,4.82,7.22,2.41,15.06,2.9,21.85,6.49l1.93-4.56a147.62,147.62,0,0,1-21-4.9c-3.51-1.06-8.71-4.2-10.76.43-4.88,11,19.32,9.07,24.37,8.86,1.91-.08,3.59-2.83,1.78-4.25a8.26,8.26,0,0,0-5.47-1.89c-2.37-.11-3,2.7-1.78,4.25,3.43,4.41,15.62,6.52,20.38,3.29,1.87-1.27,2.14-3.22,1.46-5.22-.83-2.43-2.47-4.58-3.3-7.06a30.52,30.52,0,0,1-1.47-8l-5,0c.28,4.31.26,9,1.18,13.2.36,1.66,3.14,8.67,5.8,6-.65.65-6.35-.46-7.37-.54q-3.68-.31-7.36-.7c-4.54-.48-10.88-.11-14.94-2.31l-1.93,4.56c6.42,1,13,2.54,19.53,2.15,2.68-.16,3.54-4.27.65-4.91a114.24,114.24,0,0,0-13.75-2.23c-3-.29-13.09.48-14.22-3.25l-.66,2.44c1.69-1.38,4.94-2,7-2.89q4.35-1.81,8.68-3.69,8.62-3.75,17.14-7.74c2.31-1.08,1.14-4.71-1.25-4.67a8.81,8.81,0,0,0-6.08,2.27c-1.69,1.41-.33,4.35,1.76,4.28a13.5,13.5,0,0,0,8.7-3.22c2.5-2-1-5.59-3.5-3.57Z"/><path class="cls-7" d="M126.42,132.87a135.89,135.89,0,0,1,4.31,14.8c1.09,4.43,3.18,9.74,2.35,14.31-.43,2.36,3.19,3.36,3.62,1,.85-4.71-.64-9.27-1.75-13.84a155.59,155.59,0,0,0-4.9-17.23c-.83-2.24-4.46-1.29-3.62,1Z"/><path class="cls-7" d="M134.22,136.76a26.56,26.56,0,0,0-2.35-4.93,2.5,2.5,0,0,0-4.34,2.48c.4.65.78,1.32,1.12,2,.15.3.29.61.43.92l.1.23q-.1-.24,0,0l.22.59a2.5,2.5,0,0,0,4.83-1.3Z"/><path class="cls-7" d="M83.52,158.75c1.76,3.51,4.44,5.54,8,7,2.33,1,4.16-2.56,2.44-4.16-1.9-1.77-3.87-3.41-5.92-5l-2.55,4.3,16.26,7.22,1.93-4.56c-4-.88-7.93-1.9-11.84-3.08l-1.31,4.82a54.88,54.88,0,0,1,10,3.39l1.93-4.56-7.62-2c-3.12-.83-4.37,3.86-1.31,4.82,5.14,1.63,11.83,4.44,17.29,3.25,2.49-.54,2.31-4.18,0-4.83-2.7-.76-5.35-1.63-8-2.62l-1.31,4.82a122.67,122.67,0,0,0,16.64,3.09l0-5a38.61,38.61,0,0,1-7.56-.5A2.5,2.5,0,0,0,109.3,170c6.55,2.16,14.2,2.6,21.07,2.72,5.83.11,9-2.62,10.73-8.14.9-2.85-.47-3.55-.8-6.49s.47-5.25-.49-8.09c-1.79-5.32-1.15-11.76-5.08-16.11-2.16-2.4-5.72,1.12-3.57,3.5,2.82,3.12,1.83,8.64,3.28,12.53a15.82,15.82,0,0,1,.9,6.86c-.06,1.82.52,3.1.71,4.82a3.48,3.48,0,0,1-.77,3.17c-2.32,3.06-4.59,3-8,2.72-5.62-.43-11.34-.55-16.72-2.32L109.3,170a45.72,45.72,0,0,0,8.89.68c3.3-.08,3.1-4.63,0-5a113,113,0,0,1-15.31-2.91c-3.17-.82-4.28,3.71-1.31,4.82,2.63,1,5.28,1.86,8,2.62v-4.83c-4.24.92-10.67-2-14.68-3.25l-1.31,4.82,7.62,2c2.62.7,4.57-3.36,1.93-4.56a61.91,61.91,0,0,0-11.25-3.91,2.5,2.5,0,0,0-1.31,4.82c3.92,1.18,7.85,2.2,11.84,3.08,2.59.57,4.64-3.36,1.93-4.56L88,156.61a2.5,2.5,0,0,0-2.55,4.3c1.72,1.33,3.32,2.71,4.9,4.19l2.44-4.16a9.46,9.46,0,0,1-5-4.68c-1.44-2.88-5.78-.39-4.34,2.48Z"/><path class="cls-7" d="M83.79,155.22c12.47,10.63,29,12.53,44.81,12.93,2.62.07,5.72-.1,8-1.64,2.82-1.94,2.34-4.86,2.29-8-.06-3.63.19-7.79-.82-11.32a68.61,68.61,0,0,0-4.5-10.73c-1.41-2.9-5.74-.4-4.34,2.48,1.11,2.27,1.87,4.67,2.87,7,1.52,3.52,1.64,6.88,1.74,10.67s-.15,6.48-4.5,6.51a76.27,76.27,0,0,1-8-.67c-5.88-.59-12.34-.58-18-2.19a44.92,44.92,0,0,1-15.86-8.58c-2.43-2.08-6,1.41-3.57,3.5Z"/><path class="cls-7" d="M127,132.13c-3.81,1.8-7.76,3.18-11.44,5.18-2.38,1.29-4.87,1.9-7.29,3-2.07,1-3.77,2.45-5.82,3.46-3.78,1.86-8.33,2.37-11.93,4.57-1.32.81-3.58,2-4.2,3.44a.63.63,0,0,0,.85.86c2.74-1.15,4.31-3.36,7.54-4.1.78-.18.46-1.39-.33-1.21-3.34.77-4.94,3-7.84,4.22l.85.86c.24-.56,1.87-1.14,2.46-1.53a24.74,24.74,0,0,1,6.63-3.52,47.47,47.47,0,0,0,10.21-4.72c3.07-1.91,6.7-2.82,9.89-4.55,3.51-1.89,7.42-3.2,11-4.91.73-.34.1-1.43-.62-1.08Z"/><path class="cls-7" d="M95,148.51a19.53,19.53,0,0,1,2.94-1.8l3.16-1.79a.63.63,0,0,0-.62-1.08,42.42,42.42,0,0,0-6.35,3.78c-.62.52.26,1.4.88.89Z"/><path class="cls-8" d="M101.83,142A33.33,33.33,0,0,0,98,159.32c0,.8,1.29.8,1.25,0a32,32,0,0,1,3.61-16.69c.37-.71-.71-1.35-1.08-.64Z"/><path class="cls-8" d="M111.77,138.41c-1.89,7.48-5.14,17.86-1.66,25.28.34.73,1.42.1,1.08-.62-3.3-7,0-17.2,1.78-24.33a.63.63,0,0,0-1.21-.33Z"/><path class="cls-8" d="M126.89,131.9c-3.62,6.42-5.3,13.35-6.55,20.57-.81,4.67-1.9,9.41,1.07,13.51.47.65,1.56,0,1.08-.62-3.35-4.62-1.28-11.14-.28-16.24A54.77,54.77,0,0,1,128,132.54c.4-.7-.68-1.34-1.08-.64Z"/><path class="cls-8" d="M132.33,150a65.23,65.23,0,0,0-1.94,16.64.63.63,0,0,0,1.25,0,64,64,0,0,1,1.9-16.31.63.63,0,0,0-1.21-.33Z"/><path class="cls-9" d="M126.65,129.71l-23.49,11.06-12.65,6c-2.22,1-6.07,1.86-7.47,4.07C79,157.1,106,164.36,110,165.33c6.61,1.61,14.28,3.25,21.13,2.73,4-.3,7.26-2.48,7.71-6.76.3-2.89-1-5.6-2-8.23a55.34,55.34,0,0,1-3-11c-.78-5-.83-10-5-13.45-1.23-1-3,.73-1.78,1.75,3.59,3,3.69,7.28,4.3,11.55.72,5,2.35,9.48,4,14.21a8.74,8.74,0,0,1,.56,4.78q.69,3.08-2.51,3.48a4.41,4.41,0,0,1-3.62,1.17,38.39,38.39,0,0,1-6.82-.49,96.07,96.07,0,0,1-17.6-3.63,92.28,92.28,0,0,1-15.61-6.35c-3-1.54-5.36-2.21-1.59-4.53a73.66,73.66,0,0,1,7.23-3.4l32.53-15.31c1.46-.69.21-2.85-1.24-2.17Z"/><path class="cls-9" d="M82.4,152.29c-2.89,9,6.19,15.3,13.73,17.43,5.9,1.67,12.2,2.13,18.26,2.94,5.76.77,11.94,2.22,17.78,1.58,3.77-.41,7.31-1.87,9-5.45,2.2-4.58.32-10.32.06-15.14-.53-9.65-1.33-19.81-11-24.63-1.43-.71-2.72,1.44-1.27,2.15,8.6,4.27,9.31,13.09,9.76,21.63.2,3.76,1.28,7.85,1,11.59-.53,6.24-5.81,7.62-11.15,7.44-8.2-.28-16.66-1.84-24.76-3.11-7.52-1.18-22.42-5-19-15.78.49-1.53-1.92-2.19-2.41-.66Z"/><path class="cls-10" d="M188.19,162.24c.95,4.24-11,5.42-13.43,5.9a40.44,40.44,0,0,1-7.09,1.22,4.1,4.1,0,0,1-4.49-1.49,3.58,3.58,0,0,1-1.56-3.91l-3.67-2.82c-1.11,3.18-3.25,10.27-.47,13.17,2.4,2.5,6.77-.37,9-1.67,5.37-3.15,9-5.67,15.36-6a9.32,9.32,0,0,0,5-1.4c1.58-1.1,1.47-2.69,2.55-3.92l-3.93-.51c2.14,4.69-7.74,3.51-9.9,3.51s-4.35.6-6.57.75a2.66,2.66,0,0,1-2.27-.11q-2.09.28-1.56-1.75a8.51,8.51,0,0,1-.42-2.1c-.26-3.74,2.1-5.54,3.61-8.57.85-1.69,1.16-4.51,2.72-5.68,1.33-1,1.17.19,2.24,1.7.41.57.85,1.15,1.31,1.68,3.13,3.66,9.36,5.85,11,10.49l3.08-3.08c-5.1-1.32-8.82-4.56-14.39-3.28-5.18,1.19-9.07,4.94-12.67,8.6a2.52,2.52,0,0,0,2.43,4.18q10-2.68,20.2-4.47c2.84-.5,2.08-4.88-.66-4.91-4.1,0-11.14-1.66-13.45,2.88a2.52,2.52,0,0,0,3.42,3.42,16.64,16.64,0,0,0,4-3l-3.93-3-3.92,8.32a2.54,2.54,0,0,0,2.16,3.76c2.75.37,8.16,1.4,10.3-1.2,1.76-2.14.19-4.47-1.64-5.86-1.38-1.05-3.08-1.49-4.49-2.46a8,8,0,0,1-3.32-5.11c-.28-1-1-2.79-.16-2.58s2.43,2.72,3.47,3.39a11.15,11.15,0,0,0,4.92,1.52,2.51,2.51,0,0,0,2.41-3.16c-1.67-4.71-6.51-7.35-10.86-9.28a2.56,2.56,0,0,0-3.67,1.49,113.66,113.66,0,0,1-5.38,11.87l4.32,2.52c1.32-2.83,3.2-6.3,6.12-7.76h-2.52l.83,1,.64-2.43.63-.16,2.16,1.24-.34-.46c-1.89-2.57-6.23-.07-4.32,2.52,2.92,4,8-.21,5.18-4.17-4.6-6.47-10.93,3.94-12.7,7.73-1.34,2.87,2.81,5.41,4.32,2.52a125.25,125.25,0,0,0,5.89-13.07L170,149.71c2.76,1.23,7.47,3.19,8.56,6.29l2.41-3.16c-4-.5-5-5.69-9.31-5.47-2.82.14-4.42,2.59-4.46,5.22a16.35,16.35,0,0,0,3.36,9.84,10.3,10.3,0,0,0,4.32,3.21c.93.29,3.55.82,1.6-.15-.81-.4-3.73-.22-4.58-.33l2.16,3.76,3.92-8.32c1.16-2.45-1.82-5.16-3.93-3a8.06,8.06,0,0,1-3,2.24l3.42,3.42c.65-1.28,7.78-.41,9.13-.4L183,157.9q-10.2,1.8-20.2,4.47l2.43,4.18c2.89-2.94,6.18-6.55,10.47-7.32s7.74,2.25,11.73,3.28c1.73.45,3.73-1.22,3.08-3.08-1.37-3.86-4.12-6-7.34-8.36a26,26,0,0,1-6.67-6.88c-1-1.45-1.51-2.56-3.25-3.05-3.32-.93-6,2-7.37,4.62-1.16,2.23-1.81,4.58-3.22,6.7-1.25,1.88-2.73,3.47-3.07,5.8s.56,4.25.76,6.42c.16,1.78-.14,3,1.22,4.48,3.23,3.45,8.57.44,12.36.21,4.86-.29,10.07,1.24,14.17-2.2,2.78-2.34,3.2-5.69,1.75-8.86a2.51,2.51,0,0,0-3.93-.51,13.52,13.52,0,0,1-2.64,2.8c-1.9,1.34-3.07.89-5.3,1.11a19.24,19.24,0,0,0-7.21,2.38c-2.57,1.37-4.88,3.18-7.43,4.58a20,20,0,0,1-3.32,1.56l1.43-.08c-.6-2.39.58-5.47,1.36-7.71s-1.87-3.66-3.67-2.82c-3.67,1.7-4,6.13-1.82,9.22,2.48,3.56,5.55,6.08,9.94,5.57,6.61-.77,14-1.83,20.26-4.24,4.09-1.59,6.51-4.88,5.53-9.28-.7-3.14-5.52-1.81-4.82,1.33Z"/><path class="cls-11" d="M189.59,164.92c-2.19,2.92-7.93,3.39-11.22,4a88.09,88.09,0,0,1-12,1.44c-3.2.18-3.22,5.18,0,5a96,96,0,0,0,16.9-2.4c4.24-1,7.95-2,10.63-5.56,1.93-2.57-2.41-5.07-4.32-2.52Z"/><path class="cls-11" d="M168.69,142.5c3.52,3.21,7.06,6.39,10.54,9.64,3.05,2.85,11.38,9.29,10.27,14-.74,3.13,4.08,4.47,4.82,1.33,1.37-5.81-2.93-10.15-6.68-14.08-4.85-5.08-10.23-9.68-15.41-14.42-2.37-2.17-5.92,1.36-3.54,3.54Z"/><path class="cls-7" d="M142.47,152.11l-.24.24a2.5,2.5,0,0,0,3.54,3.54l.24-.24a2.5,2.5,0,0,0-3.54-3.54Z"/><path class="cls-7" d="M165.28,132.23c-5.3,2.59-10,3.63-13.71,8.57-2.13,2.81-3.6,6-5.42,9-1.06,1.75-3.67,7.83-5.36,8.63l3.67,2.82,1.19-4c.79-2.65-3.41-4.56-4.57-1.93-1.38,3.15-5.14,6.62-2.08,10.13,1.33,1.53,3.58,1.76,5.19,2.85,1.11.75,4.91,3.54,5.62,4.74l.9-3.42-.85.53c-1.45.91-1.8,3.5,0,4.32a17.1,17.1,0,0,0,3,1.12l1.33-4.82c-2.22-.38-3.66-1.55-5.44-2.82-1.21-.86-4.31-2.15-4.87-3.57l-3.08,3.08c5.86,1.17,11.14,3.47,14.31-3.24a62.73,62.73,0,0,0,3.65-11c1-3.84.68-11.22,5.3-12.72l-2.82-3.67c-2.18,4.19-3.16,8.34-6,12.29a54.37,54.37,0,0,0-3.49,5.19c-.67,1.21-2.87,8.33-5.52,5.77l-1.1,4.18c3.32-1.37,5.64-3,7.07-6.36.75-1.76,1.26-3.63,1.85-5.45s1.12-6,2.52-7.25c2.39-2.17-1.16-5.7-3.54-3.54-5,4.58-2.06,14.8-9.23,17.76-1.65.68-2.59,2.74-1.1,4.18,4.73,4.57,9.22,2.16,11.7-3.14a69.32,69.32,0,0,1,6.08-10.11c2.46-3.57,3.12-7.29,5.06-11,1-1.83-.64-4.38-2.82-3.67-5.47,1.77-6.86,6.46-7.82,11.69A77.09,77.09,0,0,1,152,158.29c-.87,2.57-.91,4.31-3.6,5.17-2.29.73-4-.34-6.25-.79-1.66-.33-3.84,1.15-3.08,3.08,1.14,2.88,2.89,3.72,5.43,5.33,2.82,1.8,5,4,8.36,4.55,3.11.53,4.5-4,1.33-4.82l-1.82-.61v4.32l.85-.53a2.54,2.54,0,0,0,.9-3.42c-1.31-2.2-3.89-3.73-5.84-5.36-1.1-.92-2.58-1.32-3.63-2.18-2.46-2-.19-3,.74-5.13L140.83,156l-1.19,4c-.67,2.25,1.81,3.7,3.67,2.82s2.66-2.25,3.55-4.18c1.53-3.31,3.63-6.29,5.42-9.47,1.9-3.36,3.81-7,7.23-9,2.54-1.54,5.62-2.22,8.29-3.53,2.89-1.41.36-5.73-2.52-4.32Z"/><path class="cls-7" d="M168,135.8c-.2,3.65-3.6,9.29-5.22,12.51-2,4.06-5.1,7.57-6.91,11.73-2.37,5.43-4,12.6,2.07,16,2.11,1.17,4-2.07,1.89-3.24-7.3-4,3-16.71,5.37-21,1.67-3.08,2.71-6.44,4.34-9.52,1.17-2.22,2.07-3.84,2.21-6.44.13-2.41-3.62-2.4-3.75,0Z"/><path class="cls-7" d="M170.8,141.36c1.41-.87,10.43,10.27,11.86,11.67,2.8,2.75,12.34,7.95,9.94,12-1.45,2.47-4.93,2.64-7.35,3.53a33.67,33.67,0,0,1-7.82,1.69c-2.66.37-5.2,1.32-7.85,1.74-3.76.59-7.72.12-11.49,0-2.41-.09-2.41,3.66,0,3.75,4.44.17,8.89.6,13.28-.28,3.81-.76,7.84-1.07,11.57-2,4.29-1.05,14.5-3.76,14.64-9.76.06-2.74-3-5.8-4.91-7.35a121.26,121.26,0,0,1-9.54-8.17c-3.36-3.33-8.54-13.6-14.21-10.1-2,1.27-.17,4.51,1.89,3.24Z"/><path class="cls-8" d="M188.39,153.93a29.62,29.62,0,0,0-2.26,8.87c-.13,3.2,1,6.27.66,9.47-.08.8,1.17.79,1.25,0,.29-2.85-.57-5.37-.66-8.19-.1-3.42,1.06-6.65,2.22-9.82.28-.76-.93-1.08-1.21-.33Z"/><path class="cls-8" d="M180,146.64c-4.7,8.81-5.25,17.54-3.77,27.24.12.79,1.33.46,1.21-.33-1.43-9.37-.9-17.77,3.64-26.28.38-.71-.7-1.34-1.08-.63Z"/><path class="cls-8" d="M170.16,136.89c-3.21,12.36-9,26.81.33,38,.52.62,1.4-.27.88-.88-9-10.74-3.07-24.95,0-36.77a.63.63,0,0,0-1.21-.33Z"/><path class="cls-8" d="M157.74,156.06c-4.16,6.57.77,13,1.13,19.92,0,.8,1.29.81,1.25,0-.34-6.51-5.25-13-1.3-19.29.43-.68-.65-1.31-1.08-.63Z"/><path class="cls-9" d="M169,132c2.08,8.27,9.16,13.6,15.11,19.17l5.71,5.35c1.77,1.66,5.46,3.86,6.43,6,2.37,5.28-10,8.06-13.85,9.12a81,81,0,0,1-15.54,2.68c-2.53.18-5.64.65-8.14,0q-2.65.11-2.9-3.18-2.64-2.12-1-4.43a29,29,0,0,1,1.8-4.1c4.22-9.52,7.71-20.25,13.89-28.7,1-1.3-1.22-2.55-2.16-1.26-4.2,5.74-6.73,12.52-9.59,19l-4.69,10.6c-.94,2.13-2.57,4.74-2.67,7.12-.48,11.43,18.33,7.45,24.63,6.31,4.49-.82,27.64-5,23.54-13.26-1.1-2.22-4.8-4.65-6.58-6.31l-7.85-7.36c-5.39-5.05-11.87-9.9-13.75-17.4A1.25,1.25,0,0,0,169,132Z"/><path class="cls-9" d="M168.07,131.08c-6.21,0-11.43.63-15.43,5.73-5.52,7-10.46,14.82-15.44,22.25-3.49,5.21-.23,8.1,4.14,11.57,3.49,2.78,10.64,8.51,15.33,5.74a1.25,1.25,0,0,0-1.26-2.16c-3.52,2.08-11.33-4.43-13.79-6.58-2.73-2.39-3.39-4.79-1.71-8.09,1.24-2.44,3.31-4.77,4.86-7,2.88-4.16,5.71-8.35,8.64-12.47,3.93-5.53,8.18-6.51,14.67-6.48a1.25,1.25,0,0,0,0-2.5Z"/><path class="cls-6" d="M142.55,153a11.52,11.52,0,0,0,7.78,3.65c2.23.24,3.19-2.85,1.77-4.27a8.28,8.28,0,0,0-5.51-2.55c-2.61-.35-3.18,3.47-1.26,4.66q6.9,4.26,13.91,8.32,3.31,1.91,6.64,3.78c2.15,1.2,5.77,2.4,7.45,4.18l-.64-2.43c-1.26,3.26-9.94,2-12.55,2.12a96.68,96.68,0,0,0-13.2,1.37c-3,.51-1.85,4.59.66,4.91,5.7.74,11.5-.26,17.19-.82l-.66-4.91c-4.16,1.72-9.62,1.29-14.07,1.48q-3.86.17-7.73.24l-3.86,0q-3.12-.68-1.21.72.83,1.53,1.63-.22a25.92,25.92,0,0,0,1.84-1.85,11.09,11.09,0,0,0,1.71-2.94c1.69-4.17,2-9.26,2.72-13.68l-4.82-1.33a37.36,37.36,0,0,1-5,13.54c-1.33,2.24-2.35,4.61,0,6.65,4.2,3.73,15.72,2.16,19.2-1.91a2.53,2.53,0,0,0-1.77-4.27,6.92,6.92,0,0,0-4.69,1.24,2.53,2.53,0,0,0,1.26,4.66c5,.59,29.28,3.2,22-8.71a2.5,2.5,0,0,0-2.16-1.24c-3.74.14-7.62,1.77-11.27,2.61a109.8,109.8,0,0,1-14.71,2.43l1.26,4.66c6.36-3,13.6-3.06,20.31-5,3.13-.89,1.8-5.42-1.33-4.82-7,1.33-14.12,3.24-21.25,3.25l.66,4.91A55.34,55.34,0,0,1,159,167.28c3.14-.31,3.28-5,0-5a62.17,62.17,0,0,0-16.42,2.32l2.43,4.18c4.33-3.7,9.91-3.75,15.32-3.8,2.71,0,3.54-4.51.66-4.91-2.57-.36-6.87-1.85-9.37-1.31-1,.22-2.16,1.91-1.34,1.25a3.52,3.52,0,0,0,1.12-1.38,2.61,2.61,0,0,0-.39-3l-.29-.3-3,3.93a33.54,33.54,0,0,0,6.86,3.34c2.73,1,4.27-3.13,1.93-4.57a45,45,0,0,0-12.64-5.31,2.54,2.54,0,0,0-3.08,3.08l1.32,8.07c.52,3.17,5.34,1.82,4.82-1.33l-1.32-8.07-3.08,3.08a40.43,40.43,0,0,1,11.45,4.8l1.93-4.57a26.68,26.68,0,0,1-5.67-2.84c-2.44-1.56-5,1.92-3,3.93l.29.3-.39-3c.27-.6-1.55,1.14-1.81,1.84a3.82,3.82,0,0,0,.63,3.84c2.57,3.06,10.14,2.61,13.76,3.11l.66-4.91c-6.91.06-13.42.61-18.86,5.26-2,1.67.14,4.82,2.43,4.18A57,57,0,0,1,159,167.28v-5a59.58,59.58,0,0,0-17.45,4.35c-2.43,1-2.39,4.91.66,4.91,7.59,0,15.15-2,22.57-3.43l-1.33-4.82c-7.19,2-14.67,2.2-21.5,5.47-2.19,1-1.18,4.88,1.26,4.66a113.25,113.25,0,0,0,12.44-1.83c4.31-.88,9.17-3.05,13.54-3.21L167,167.14c1,1.63-7.86,1.78-8.62,1.78a78.47,78.47,0,0,1-9.11-.59l1.26,4.66,2.16-.55L151,168.17c-1.89,2.21-5.48,2.2-8.14,2.14-4.07-.09-3.68.33-1.91-2.91a38.67,38.67,0,0,0,4.24-12.65c.49-3.14-4.31-4.51-4.82-1.33s-1,6.24-1.63,9.34c-.7,3.52-2,5.2-4.26,7.86-1.56,1.85-2.84,4.55-.48,6.36,2.86,2.2,9.86.69,13.2.58,5.69-.19,13,.44,18.3-1.77,2.33-1,2.42-5.22-.66-4.91-5.69.56-11.48,1.56-17.19.82l.66,4.91c6.78-1.13,13.55-.53,20.29-1.41,3.52-.46,7.57-2,8.94-5.58a2.48,2.48,0,0,0-.64-2.43c-3.2-3.41-9.39-5.46-13.45-7.79q-7.86-4.51-15.57-9.28l-1.26,4.66,2,1.08,1.77-4.27a5.43,5.43,0,0,1-4.24-2.19c-2.21-2.35-5.74,1.19-3.54,3.54Z"/><path class="cls-7" d="M141.13,145.71a163.48,163.48,0,0,0-5.89,15.84c-1.53,4.62-3.67,9.44-3.36,14.39.15,2.4,3.9,2.41,3.75,0-.28-4.52,1.83-9.16,3.23-13.39a154.15,154.15,0,0,1,5.52-14.94c1-2.18-2.25-4.09-3.24-1.89Z"/><path class="cls-7" d="M141.18,152.66a25.37,25.37,0,0,1,2.33-4.15,2.52,2.52,0,0,0-.9-3.42,2.55,2.55,0,0,0-3.42.9,25.37,25.37,0,0,0-2.33,4.15,2.58,2.58,0,0,0,.9,3.42,2.52,2.52,0,0,0,3.42-.9Z"/><path class="cls-7" d="M176.38,172.95a8.73,8.73,0,0,1-4.94,4.21l2.43,4.18c1.56-1.34,3.15-2.6,4.83-3.8,2.11-1.51.91-5.69-1.93-4.57l-15.36,6.08a2.5,2.5,0,0,0,1.33,4.82c3.69-.62,7.34-1.38,11-2.28,3.16-.78,1.8-5.41-1.33-4.82a51,51,0,0,0-9.93,2.92c-2.93,1.19-1.89,5.51,1.33,4.82l7.07-1.52-1.33-4.82c-3.75,1-9.53,3.09-13.38,2.18v4.82c2.52-.59,5-1.28,7.45-2.07a2.5,2.5,0,0,0-1.33-4.82,96.35,96.35,0,0,1-14,1.84,2.5,2.5,0,0,0,0,5,37.1,37.1,0,0,0,7.46-.05l-.66-4.91c-4.79,1.34-9.92,1.18-14.86,1.16-3.49,0-5.5.52-6.74-3a5.26,5.26,0,0,1-.32-3.44c.52-3.73,1.19-8.06,2.67-11.51,1.64-3.81,1.24-8.92,4.17-12,2.2-2.35-1.33-5.89-3.54-3.54A13.41,13.41,0,0,0,133,154.2a65.62,65.62,0,0,1-2.79,9.28c-1.11,2.77-.44,5.53-1.24,8.29s-1.77,3.17-1.11,6.09c1.09,4.79,2.94,8,8.22,8.44,6.46.52,14,.44,20.26-1.31,2.61-.73,2.22-5.22-.66-4.91a37.1,37.1,0,0,1-7.46.05v5a105.7,105.7,0,0,0,15.35-2l-1.33-4.82c-2.46.8-4.93,1.49-7.45,2.07a2.52,2.52,0,0,0,0,4.82c5.06,1.2,11.15-.88,16-2.18,3.13-.83,1.8-5.49-1.33-4.82l-7.07,1.52,1.33,4.82a51,51,0,0,1,9.93-2.92l-1.33-4.82c-3.63.9-7.28,1.66-11,2.28l1.33,4.82,15.36-6.08-1.93-4.57c-2,1.44-4,3-5.84,4.58s.11,5,2.43,4.18a14.27,14.27,0,0,0,7.93-6.51c1.61-2.79-2.71-5.31-4.32-2.52Z"/><path class="cls-7" d="M177.27,168.46a40.39,40.39,0,0,1-15.12,7.39c-5.64,1.26-12,.79-17.71,1-2.19.08-6.08.79-8.07-.23-1.75-.9-1.13-1-1.26-2.75a27,27,0,0,1,.66-5.34c.77-5.61,3-10.59,5.78-15.52,1.58-2.81-2.74-5.33-4.32-2.52a50.52,50.52,0,0,0-6.68,19.6c-.34,2.73-1.4,6.1.15,8.56s4.65,3,7.2,3.25c3.94.36,8-.1,12-.25a100.92,100.92,0,0,0,11.63-.64c6.77-1,13.95-4.8,19.29-9,2.52-2-1-5.51-3.54-3.54Z"/><path class="cls-7" d="M143.2,147.54c6.58,4.09,13.33,7.68,19.55,12.22a50.16,50.16,0,0,0,8.31,4.35,13.65,13.65,0,0,1,4.26,3.22c.65.61,1.79.65,2.07,1.66l.92-.71c-2.53-1.41-3.63-3.67-6.66-4.67-.77-.25-1.09,1-.33,1.21,3,1,3.93,3.19,6.36,4.54a.63.63,0,0,0,.92-.71c-.43-1.52-2.22-2.75-3.42-3.7-2.81-2.24-6.65-3-9.71-4.9-1.79-1.08-3.18-2.65-4.9-3.82-1.53-1-3.31-1.59-4.89-2.52-3.95-2.32-7.93-4.82-11.85-7.25-.69-.43-1.31.66-.63,1.08Z"/><path class="cls-7" d="M171.94,163.87a38.18,38.18,0,0,0-5.36-4.14c-.65-.48-1.27.61-.63,1.08a36.45,36.45,0,0,1,5.11,3.94c.55.59,1.43-.3.88-.88Z"/><path class="cls-8" d="M164.43,158.29a34,34,0,0,1,1.63,16.7c-.12.79,1.09,1.13,1.21.33A35.21,35.21,0,0,0,165.64,158c-.27-.75-1.48-.43-1.21.33Z"/><path class="cls-8" d="M155.78,153.79c.94,7.34,2.77,17.49-.84,24.29-.38.71.7,1.34,1.08.63,3.82-7.19,2-17.18,1-24.92-.1-.79-1.35-.8-1.25,0Z"/><path class="cls-8" d="M142.88,146.72a55.45,55.45,0,0,1,3.52,16.34c.42,5.17,1.73,12.07-1.76,16.44-.5.62.38,1.51.88.88,3.24-4.05,2.65-9,2.36-13.91-.41-6.9-1.21-13.62-3.79-20.08-.3-.74-1.5-.42-1.21.33Z"/><path class="cls-8" d="M136.11,163.88a70,70,0,0,1,.08,16.39c-.09.8,1.16.79,1.25,0a70,70,0,0,0-.08-16.39c-.1-.79-1.35-.8-1.25,0Z"/><path class="cls-9" d="M143.14,146.23l27,16.76c2.09,1.29,5,2.5,6.76,4.19q2.25.46,1.81,2.56-1.54.82-3.11,1.58a82.61,82.61,0,0,1-29.55,7.86,32.53,32.53,0,0,1-6.93.2c-7-1.09-6.89-5.38-4.76-10.25A77.77,77.77,0,0,0,139,156.84c1.11-4.42,1.4-9.08,5.27-12.1,1.27-1-.51-2.74-1.77-1.77-4.48,3.48-4.79,9-6.15,14.09-1.54,5.79-6.52,12.1-6,18.23.34,4.26,3.42,6.12,7.36,6.52,6.23.64,13-.35,19.12-1.58a85.33,85.33,0,0,0,18.55-6c2.32-1.06,8-2.64,6.5-6.28-.78-1.92-3.72-3-5.31-4l-10.13-6.28-22-13.62c-1.37-.85-2.63,1.31-1.26,2.16Z"/><path class="cls-9" d="M179.7,169.85c2,11-12.22,13.73-20,14.37-7.1.58-14.57,1.74-21.69,1.34a10.76,10.76,0,0,1-5.59-1.48c-3.51-2.26-3.27-5.91-2.61-9.49.61-3.3,1.29-6.54,1.78-9.87,1.14-7.74,3-15.77,10.8-19.32,1.46-.66.19-2.82-1.26-2.16-9.73,4.42-10.91,14.79-12.43,24.18-1.29,8-4.57,18.12,6.28,20.31,5,1,10.47,0,15.5-.33,5.59-.41,11.31-.51,16.82-1.64,7.94-1.64,16.48-7.4,14.82-16.57-.28-1.58-2.69-.91-2.41.66Z"/><path class="cls-11" d="M111.17,161.51a23.9,23.9,0,0,0,12.3,13.79,2.52,2.52,0,0,0,3.42-3.42c-2.27-4.8-7.67-6-10.5-10.17L113,165.13c1.94,1.4,3.9,2.77,5.81,4.2,3.26,2.44,4.6,4.38,3.94,8.74-.36,2.37,2.23,4.28,4.18,2.43a8.51,8.51,0,0,0,2.85-6.28h-5c.27,2.6-8.35,3.72-10.05,4.1-4,.89-8.17.53-12.23.26-7.63-.49-15.1-2.15-20-8.44a2.51,2.51,0,0,0-3.54,0l-1.23,1.38a2.53,2.53,0,0,0,0,3.54c5.89,5,14.88,3.87,22.12,4.13,8.19.3,18.15,2.28,25.55-2.15a2.52,2.52,0,0,0-1.26-4.66c-14.14-.54-29,.12-42.82-3.28L83,172.18c2-5.15,9.39-6.13,13.51-9a30.43,30.43,0,0,0,4.13-3.38c.89-.88,2.3-3.52,3.6-3.64,1.75-.16,4,3.78,4.66,5.16.79,1.68,1.3,3.48,2,5.19a15.07,15.07,0,0,0,5.3,7l1.26-4.66c-6.79-.66-13.34-2.22-20.06-3.22-4.67-.7-8.94-.52-13.16,1.69l3,3.93c3.68-2.9,7.25-6.68,11.85-8.07,3.08-.93,7.46,1.16,10.06-1.14,3.4-3-.67-9.38-4.82-7.66a2.62,2.62,0,0,0-1.75,3.08c.5,3.67,3.13,7.64,4.83,10.88l1.49-3.67c-6.35,1.27-12.8-.91-19.14.4-2.71.56-6.22,2.33-4.56,5.76,1.82,3.77,6.67,1.94,9.68,1.25,2.25-.51,4.9-.79,6.93-2,1-.56,4-3.27,2.86-4.46l1.77-4.27a43,43,0,0,1-9-.2c-3.18-.4-3.15,4.6,0,5a43,43,0,0,0,9,.2,2.53,2.53,0,0,0,1.77-4.27,4.23,4.23,0,0,0-5.28-.84c-1.13.63-1.46,1.55-2.26,2.46-1.8,2.07-2.57,2.48-5.32,3.12-1,.24-7.76.77-5.95,3.43-.16-.24,7.29-.56,8-.52,4.39.22,8.52.59,12.87-.28a2.53,2.53,0,0,0,1.49-3.67c-1.51-2.87-3.89-6.48-4.32-9.68l-1.75,3.08-.27.68,1.24-2.16c-1,.79-4.1-.12-5.48,0A17.71,17.71,0,0,0,95,159.55c-4.21,2-7.64,5.36-11.26,8.22-2.31,1.83.63,5.18,3,3.93,5-2.61,10.53-1,15.73,0,5,1,9.94,1.68,15,2.17,2.71.26,3.06-3.38,1.26-4.66-4.06-2.89-4.21-9.15-7.06-13-1.73-2.37-6.21-6.77-9.48-5.39-1.8.76-2.77,3-4,4.34a25,25,0,0,1-7.58,5.72c-5.3,2.64-10.15,4.07-12.43,10a2.52,2.52,0,0,0,1.75,3.08c14.28,3.51,29.54,2.9,44.15,3.46l-1.26-4.66c-5.9,3.53-14.61,1.77-21.18,1.53-5.8-.21-15.75,1.28-20.44-2.74v3.54l1.23-1.38H78.91c6.75,8.62,17.88,9.78,28.09,10.12,5.53.19,10.36-1,15.71-2.24,3.85-.87,7.5-2.84,7-7.34a2.5,2.5,0,0,0-5,0L123.36,177l4.18,2.43c.53-3.47.92-7-1.19-10-2.52-3.63-7.35-6-10.86-8.57-2-1.47-4.78,1.41-3.42,3.42,2.78,4.13,8.4,5.71,10.5,10.17L126,171a19,19,0,0,1-10-10.8c-1.1-3-5.94-1.7-4.82,1.33Z"/><path class="cls-7" d="M84.95,179.07c-2.2-1-6.95-2.33-8-4.63-1.88-4,5.92-6.59,8.45-8.44,6.62-4.83,10.75-12.6,19-15,2.32-.67,1.33-4.28-1-3.62-5.42,1.56-9.41,5-13.29,9a59.72,59.72,0,0,1-6.76,6.45c-2.29,1.7-5,2.71-7.25,4.47-8.59,6.74.71,12.08,7,15,2.17,1,4.08-2.21,1.89-3.24Z"/><path class="cls-7" d="M104.41,148.57a48,48,0,0,0,11.25,12.88c4.35,3.65,9.68,7,13,11.66,5.69,8-10.09,10.62-15.42,11A76.53,76.53,0,0,1,94,182.52c-2.36-.44-3.37,3.17-1,3.62,7.65,1.42,15.47,2.38,23.25,1.4,5.1-.64,15.16-2.56,17.51-8,2.46-5.68-4.36-11.54-8-14.69-6.62-5.65-13.69-10.47-18.1-18.19-1.2-2.09-4.44-.21-3.24,1.89Z"/><path class="cls-7" d="M132.23,178.35a2,2,0,0,1-1.72,1.12,8.4,8.4,0,0,0-3.13.79c-2.12,1.16-.23,4.4,1.89,3.24,1-.56,2.38-.3,3.48-.76a5.41,5.41,0,0,0,2.71-2.5c1.12-2.13-2.11-4-3.24-1.89Z"/><path class="cls-7" d="M94.42,182.92c-1.44-.9-3.15-.9-4.76-1.32A13.18,13.18,0,0,1,84.58,179c-1.23-1-3,.74-1.77,1.77a16.09,16.09,0,0,0,4.39,2.62c1.85.73,4.29.61,5.95,1.65,1.37.86,2.62-1.31,1.26-2.16Z"/><path class="cls-7" d="M85.13,158.09l-3.2,2.12a2.5,2.5,0,1,0,2.52,4.32l3.2-2.12a2.5,2.5,0,0,0-2.52-4.32Z"/><path class="cls-7" d="M108.52,150.52c3.22,0,3.22-5,0-5s-3.22,5,0,5Z"/><path class="cls-8" d="M124.53,164.58c-1,6.83-5.08,17.58-11.11,21.6-.67.44,0,1.53.63,1.08,3.34-2.23,5-5.56,6.84-9.05a42.83,42.83,0,0,0,4.84-13.29c.12-.79-1.08-1.13-1.21-.33Z"/><path class="cls-8" d="M116.8,157c-1.38,4.81-2.93,9.55-4.75,14.21-2,5.09-3.91,11-8.95,13.88a.63.63,0,0,0,.63,1.08c4.28-2.43,6.2-6.62,8-11A156.58,156.58,0,0,0,118,157.3a.63.63,0,0,0-1.21-.33Z"/><path class="cls-8" d="M108.68,147.62c-1.83,6.57-5.2,12.76-8.15,18.89-3.1,6.43-7.89,10.13-13.29,14.55-.62.51.27,1.39.88.88,5.56-4.56,10.32-8.24,13.48-14.81,3-6.23,6.41-12.5,8.28-19.19a.63.63,0,0,0-1.21-.33Z"/><path class="cls-8" d="M91.54,154.87a49,49,0,0,1-13,23.68c-.56.57.32,1.46.88.88A50.25,50.25,0,0,0,92.75,155.2c.18-.78-1-1.12-1.21-.33Z"/><path class="cls-9" d="M107.48,144.67c4.83,10.66,16.19,16.41,22.4,26.22,1.23,1.94,5.2,7.32,4.74,9.52-.58,2.76-7.26,4.13-9.56,4.74a52.46,52.46,0,0,1-21.44.8,92.94,92.94,0,0,1-19.05-5.41c-3.13-1.21-8-2.25-10.53-4.47-2.77-2.42,1.72-6,3.7-8.16a91.42,91.42,0,0,1,30.89-22.15c1.47-.65.2-2.8-1.26-2.16-13.79,6.1-26.67,15.56-35.74,27.72-4.51,6,1.77,7.25,7,9.45,7.84,3.33,15.94,6.24,24.38,7.59a55.28,55.28,0,0,0,22.77-.8c3.58-.95,12.43-2.75,11.31-7.82-1.53-6.92-7.14-14-12-19-5.49-5.59-12.08-10-15.41-17.38-.66-1.46-2.82-.19-2.16,1.26Z"/><path class="cls-10" d="M103,176.18a17,17,0,0,0-13.52,16.17l4.91-.66-1-2.68-4.57,1.93c3.37,7,12.59,9.81,19.94,10a139.72,139.72,0,0,0,14.59-.51c3.14-.26,7.39-.47,9.62-3,1.83-2.1,1.23-4,.06-6.22-1.78-3.41-2.74-6.81-5.69-9.43a17.54,17.54,0,0,1-3.93-4.3,19.33,19.33,0,0,0-2.12-3.47c-2.51-2.73-6.11-2.48-9.53-2.12a13.89,13.89,0,0,0-8.8,3.78c-1.58,1.58-2.59,3.46-4.48,4.75-1.56,1.07-3.4,1.63-4.89,2.82-4.17,3.33-6.2,10.82-.27,13.14,3.63,1.42,7.8,1.34,11.59.94a44.39,44.39,0,0,1,6.71-.56c2.59.12,5,1.15,7.59,1.38,4.85.43,12.62-1.61,9.82-7.86-1.5-3.35-4.77-5.1-7.13-7.73-2.12-2.36-2.13-5.88-5.61-6.68-8.89-2-13.23,7.87-19.44,11.61l3.67,1.49v-.59a2.52,2.52,0,0,0-3.08-3.08c-2.29.8-4.66,2-4.85,4.74a3.85,3.85,0,0,0,3.95,4.15c4.3.17,8.87-1.93,13.15-2.46,5.32-.66,10.52-.18,15.23,2.5l1.26-4.66c-7.17-.49-15.9-4.54-22.67-.78l3.42.9c-2.26-3.81,4.31-7.12,7.42-7L113.06,178a66.47,66.47,0,0,0-8.83,6.39c-1.79,1.52-.2,4.12,1.77,4.27,4,.3,8.06.31,12.11.26,2.06,0,3.44-2.79,1.77-4.27l-3.68-3.27-2.43,4.18,1.44.62c2.61,1.89,5.11-2.45,2.52-4.32a4.81,4.81,0,0,0-2.63-1.12c-2.25-.42-4.46,2.38-2.43,4.18l3.68,3.27,1.77-4.27c-4,0-8.07,0-12.11-.26l1.77,4.27a58.64,58.64,0,0,1,7.82-5.61,2.52,2.52,0,0,0-1.26-4.66c-7.2-.24-16.17,7.07-11.74,14.54a2.55,2.55,0,0,0,3.42.9c3.4-1.89,7.24-.38,10.79.3a77.93,77.93,0,0,0,9.36,1.16c2.52.17,3.34-3.48,1.26-4.66a27.08,27.08,0,0,0-14.11-3.46,45,45,0,0,0-7.11.77c-1.48.26-2.93.6-4.4.92l-1.75.4q-2.7-.32-1.31,1.57L95.66,187a4.4,4.4,0,0,0,0,3.25,2.53,2.53,0,0,0,3.67,1.49c4.4-2.65,7-7.92,11.53-10.13a7.88,7.88,0,0,1,3.15-.77q1.42-.72,1.44.74a20.71,20.71,0,0,1,1.34,2.62,26.7,26.7,0,0,0,4.64,4.64c.64.58,2.77,2.1,2.73,2.91-.1,2-4.67,1.36-5.57,1.22-2.69-.42-5.1-1.26-7.85-1.25-3.35,0-6.64.87-10,.82-1.83,0-4.22.2-5.22-1.51-1.19-2,.66-3.56,2.49-4.76s3.95-2,5.62-3.74c3-3,4.94-5.89,9.73-5.83,2.25,0,3.79.43,5.17,2.19.69.88,1,2.11,1.72,3,1.9,2.58,4.66,3.7,6.07,6.73.47,1,.87,2.19,1.25,3.23.8,2.22,1.38,2-1.15,3.12-3.33,1.45-9,.66-12.61.78-7,.24-17.22-.16-20.69-7.39-1.21-2.52-5.6-.73-4.57,1.93l1,2.68a2.51,2.51,0,0,0,4.91-.66A12,12,0,0,1,104.34,181c3.15-.66,1.82-5.48-1.33-4.82Z"/><path class="cls-7" d="M118.68,165.56a126.83,126.83,0,0,1,9.81,12.84c2.81,4.16,6.71,8.83,8.36,13.59.88,2.54-.62,7,2.41,8.55,2.12,1.09,4.53-.3,5.59-2.21,1.5-2.71.52-5.79-1.09-8.16-2.69-4-6-7.42-8.45-11.59-2.14-3.64-3.47-8-6-11.33s-6.38-3.43-9.78-5.74l-.6,4.57c2.88-.64,10.29,4.17,10.12-2.29L124.38,165c5.09,10.75,13.75,18.94,19.18,29.47,1.48,2.86,5.79.33,4.32-2.52-5.43-10.53-14.1-18.74-19.18-29.47-1.08-2.28-4.72-1.12-4.66,1.26l0,.75,1.24-2.16c.87-.54-3.22-1.44-3.32-1.46a11.14,11.14,0,0,0-4.38.33c-2.24.5-2.27,3.44-.6,4.57,2.81,1.91,6.39,1.91,8.52,4.75,1.82,2.43,2.81,5.63,4.25,8.29a69.35,69.35,0,0,0,6,9.29c.82,1.07,1.7,2.1,2.54,3.15,1.08,1.34,3.53,7.31,4.1,4.26,1-5.57-4.4-11.77-7.16-16a151.92,151.92,0,0,0-13-17.54c-2.13-2.42-5.65,1.13-3.54,3.54Z"/><path class="cls-7" d="M113,164.57a7.19,7.19,0,0,1-4.21,3.28c-3,1.11-1.85,5.55,1.33,4.82,1.57-.36,4.47-2.21,5.73-.7,1.44,1.72,4.25.26,4.27-1.77v-1.72l-4.66,1.26c2.37,5,6.24,8.61,10.15,12.42,4.61,4.49,10.18,10.81,6.6,17.59-1.5,2.84,2.81,5.37,4.32,2.52,8-15.18-11.33-23.64-16.75-35.06-1.1-2.32-4.64-1.08-4.66,1.26v1.72l4.27-1.77c-3-3.58-6.85-1.44-10.59-.58l1.33,4.82a14.14,14.14,0,0,0,7.2-5.58c1.83-2.65-2.5-5.16-4.32-2.52Z"/><path class="cls-7" d="M107.51,168.95c-7,5-13.69,10.39-19.37,16.91-4.23,4.86-4,7.88,1.19,11.61,13.45,9.73,30.94,6.25,45.88,2.84,2.35-.54,1.36-4.15-1-3.62-12,2.73-24.9,5.65-36.77,1-2.16-.85-7.23-2.86-8.2-5.07-1.16-2.67,2.89-5.62,4.6-7.39a112.87,112.87,0,0,1,15.54-13c1.94-1.39.07-4.65-1.89-3.24Z"/><path class="cls-8" d="M93,180.92c2,2,2.66,5.41,3.26,8.1a16.15,16.15,0,0,1-.3,9.25c-.27.76.94,1.09,1.21.33a17.63,17.63,0,0,0,.3-9.91c-.66-2.93-1.37-6.48-3.58-8.65-.58-.56-1.46.32-.88.88Z"/><path class="cls-8" d="M100.4,173.55a48.25,48.25,0,0,1,10.24,29.09.63.63,0,0,0,1.25,0,49.68,49.68,0,0,0-10.61-30c-.49-.63-1.37.26-.88.88Z"/><path class="cls-8" d="M110.63,165.84a63.45,63.45,0,0,1,7.85,16.84c2,6.42,4.27,13.23,2.37,19.94a.63.63,0,0,0,1.21.33c1.82-6.45,0-12.73-1.87-19a67.26,67.26,0,0,0-8.48-18.77c-.45-.66-1.53,0-1.08.63Z"/><path class="cls-8" d="M128.57,181.31c1.35,2.91.78,6.4,1.32,9.49.72,4.09,1.21,7.36.37,11.5-.16.79,1,1.12,1.21.33a27.18,27.18,0,0,0-.08-10.75c-.68-3.72-.12-7.74-1.73-11.21-.34-.73-1.42-.09-1.08.63Z"/><path class="cls-9" d="M115.87,160.53c-5.78,4.15-11.56,8.32-17,12.88-5,4.16-11.63,9.26-14.79,15.07C78.47,198.78,103,203.74,109,204.34a91.29,91.29,0,0,0,24-.58c3.89-.69,6.25-2.89,5.9-7-.5-5.83-5.23-11.94-8.29-16.68a138.26,138.26,0,0,0-13.4-17.41c-1.08-1.2-2.84.57-1.77,1.77a133.36,133.36,0,0,1,17.89,25.09,42.55,42.55,0,0,1,2.08,4.12c1,2.38.93,2.12-.42,4.91-1.48,3-1.5,2.67-4.39,3-1.31.12-2.62.2-3.93.29a101.66,101.66,0,0,1-17.7.06,44.93,44.93,0,0,1-16.47-4.66c-2.82-1.5-6.87-3.58-6.29-7.43.31-2.06,4.58-5.44,6-6.91,7.51-7.63,16.22-13.91,24.89-20.14,1.29-.93,0-3.1-1.26-2.16Z"/><path class="cls-9" d="M118.66,162.73c2.27-.66,5-1.57,7.32-.81s3.46,3.27,4.62,5.26c2.36,4,4.83,8,7.46,11.9,2.34,3.45,5.65,6.8,7.56,10.47,2.31,4.44.28,5.65-2.88,7.58-2.13,1.3-4.39,2.41-6.64,3.5-1.45.7-.18,2.86,1.26,2.16,3.73-1.8,11.21-4.29,12.19-9,.48-2.36-1-4.26-2.21-6.06-2.14-3.07-4.48-6-6.6-9.09s-4.14-6.24-6.08-9.45c-1.41-2.33-2.56-5.17-4.36-7.21-3.27-3.7-8-2.84-12.31-1.6a1.25,1.25,0,0,0,.66,2.41Z"/></svg>