<svg id="圖層_1" data-name="圖層 1" xmlns="http://www.w3.org/2000/svg" viewBox="0 0 300 300"><defs><style>.cls-1{fill:#f5b81b;}.cls-2{fill:#06143f;}.cls-3{fill:#f7f8f8;stroke:#4c4948;}.cls-3,.cls-5{stroke-miterlimit:10;}.cls-4{fill:#e6e6e6;}.cls-5{fill:none;stroke:#f5b81b;stroke-width:2px;}.cls-6{fill:#e4b8ad;}.cls-7{fill:#e6d8df;}.cls-8{fill:#231815;}.cls-9{fill:#af6f62;}.cls-10{fill:#bd9a81;}.cls-11{fill:#e0b5ab;}.cls-12{fill:#c9b091;}.cls-13{fill:#63843c;}.cls-14{fill:#9fb7a3;}.cls-15{fill:#4d6935;}.cls-16{fill:#31532a;}.cls-17{fill:#29391c;}.cls-18{fill:#2b532b;}.cls-19{fill:#132a16;}</style></defs><title>鰈魚01</title><ellipse class="cls-1" cx="149.98" cy="146.83" rx="149.13" ry="80.6"/><ellipse class="cls-2" cx="150.21" cy="145.52" rx="147.21" ry="77.72"/><ellipse class="cls-3" cx="150.24" cy="153.28" rx="106.86" ry="58.69"/><ellipse class="cls-4" cx="150.24" cy="157.89" rx="98.9" ry="54.55"/><ellipse class="cls-5" cx="150.3" cy="153.34" rx="106.42" ry="58.99"/><path class="cls-6" d="M240.51,142.25c2.22,2.16,5,.17,2.36,1.66-.83.47-1.65.94-2.51,1.35a53.44,53.44,0,0,1-5.37,2.16,82.38,82.38,0,0,1-10.26,2.66c-6.33,1.34-13.17,2.46-17.8,6.11l-8-10.92q14.85-6.25,30.13-11.42c2.53-.85,5.65.59,7.09,2.64a7,7,0,0,1,.32,7.57c-3.32,6.18-10.14,8.88-16.63,10.34-3.79.85-7.6,1.61-11.4,2.42-1.71.36-3.4.73-5.09,1.18.75-.2-.13.34-.11,0q.46-.44-.3.28,1.24-2.47.8-.75l-9.79-8a13.44,13.44,0,0,0,4-2.34L202.51,159a5.75,5.75,0,0,0-1.42-.12.89.89,0,0,0,.73-.1q.58-.61-.3.25.58-.6-.08.42l-5.6-10.4c2.49.24,4.27-.09,6.14-1.79l6.31,11.56c-4.5,1.51-9.51,2.69-14.16,1.06a13.69,13.69,0,0,1-9.19-9.76,6.83,6.83,0,0,1,4.16-7.92c3.41-1.26,6.41.16,8.42,3a18,18,0,0,1,3,9.63l-12.59-3.79c-.06.08-.11,1.24.13,1.18.06,0-1.22-2.16-1.27-2.24a42.94,42.94,0,0,1-3.05-5.42,50.9,50.9,0,0,1-3.27-12.77l1.67,3.05-.38-.52c-2.28-3.13-2.5-6.64.27-9.63q6.53-7.05,13.41-13.78,3.62-3.53,7.34-7c2.22-2.05,4.62-4.94,7.55-5.91,4.72-1.56,7.84,1.45,10.87,4.6l7.06,7.33,14.5,15a6.87,6.87,0,0,1-3.32,11.29c-5.48,1.4-11.15,1.94-16.59,3.47-4.9,1.38-9.3,4-13.75,6.4-2.13,1.15-4.27,2.28-6.49,3.26-3,1.31-6.37,3-9.69,2.6-7.74-1-7.55-10.17-6.44-16,2-10.57,10.15-18.43,20.28-21.37,2.45-.71,5-1.14,7.47-1.61,2.89-.54,6.15-1.56,9.09-1.38,7.87.48,11.07,10.29,5.7,15.76-4.21,4.29-10.91,3.66-16.18,5.89-5.92,2.51-10.26,7.33-16.25,9.63-2.47.95-5.7-.67-7.09-2.64a6.91,6.91,0,0,1-.32-7.57,135,135,0,0,1,18.38-24.56c2.52-2.68,7.2-2.29,9.63.27a6.94,6.94,0,0,1-.27,9.63A119.41,119.41,0,0,0,200.72,140l-7.41-10.21c2-.76,4.07-3,5.81-4.26a40.67,40.67,0,0,1,7.15-4.09,49.33,49.33,0,0,1,8.15-2.84c1.32-.32,2.65-.52,4-.76.31-.05,1.62-.31,1.6-.32q-.91.17-1,1.53a2.65,2.65,0,0,0-.64,3.34l2.37,2.51q3.94.26,1.38.57l-.94.17-2.81.52c-1.88.35-3.76.68-5.63,1.09-2.9.64-6.18,1.74-8,3.27a14.66,14.66,0,0,0-4.27,5.83,12.59,12.59,0,0,0-.87,6.84L198,140.09l.35.47-3-1.83.63.15-3.62-.1c6.92-1.46,13.06-6.47,19.45-9.33,7.86-3.52,16.11-4.24,24.36-6.35l-3.32,11.29-12.27-12.73c-4-4.12-7.77-8.7-12.09-12.45l3,1.83-.68-.18,5.26-.54c.83-.33.62-.58-.17.13l-1.88,1.7q-1.68,1.53-3.35,3.09-3.33,3.11-6.58,6.3-6.5,6.38-12.69,13.07l.27-9.63a9.84,9.84,0,0,1,2.24,5.16,33.38,33.38,0,0,0,.5,3.55,24.28,24.28,0,0,0,2.7,7.15c1.44,2.52,3.23,4.77,4,7.65a11.87,11.87,0,0,1-1.56,9.76c-4,5.66-12.22,3-12.59-3.79a7.56,7.56,0,0,0-1.31-2.71l12.59-4.9c.48,2.12-.09-.27-.16-.09q-.76-.15.45.21-.75,0,.16,0c2.15.25,4.41-.76,6.4-1.43,6.57-2.2,11.14,7.18,6.31,11.56a20.77,20.77,0,0,1-15.88,5.51c-5.4-.52-8-5.66-5.6-10.4a13.07,13.07,0,0,1,13-6.86c2.74.4,5.08,1.58,6.11,4.36a6.81,6.81,0,0,1-1.61,7.4,23.9,23.9,0,0,1-6.83,4.39c-5.75,2.34-10.92-1.88-9.79-8,1.59-8.53,12.33-9.5,19.11-10.94,3.47-.73,7-1.33,10.4-2.39,2.23-.7,3.74-1.61,4.68-3.36l7.41,10.21q-13.6,4.58-26.84,10.14c-3.13,1.32-6.65,1-8.73-2-1.8-2.56-1.92-6.79.78-8.92,7.52-5.93,16.37-7.79,25.51-9.79,4-.88,8.11-1.85,11.45-3.55,2.26-1.16,4.29-2.54,6.85-3a10,10,0,0,1,9,2.92c6.29,6.13-3.62,15.47-9.89,9.36Z"/><path class="cls-6" d="M248.19,145.12c-5.29,8.5-17.87,5.51-25.67,9.68-4.39,2.35-8.48,4.82-13.25,6.39a51.82,51.82,0,0,1-15.06,2.48c-2.6.06-3.75-4.06-1.23-5.11a14.54,14.54,0,0,1,8.23-1.14c1.44.24,2.29.88,3.4,0s1.47-1.64,2.71-2.09c4.92-1.78,7.42,5.85,2.47,7a2.74,2.74,0,0,1-2-5A68.88,68.88,0,0,1,223.54,150c5.44-1.72,11.3-2.29,16.43-4.9,3.13-1.59,5.75,3.19,2.62,4.78-5,2.55-10.55,3.33-15.92,4.86A63.21,63.21,0,0,0,210.45,162l-2-5,.37-.08-1.66,1.21,1.62,2.7-.66.8a4,4,0,0,1-1,.92,5.07,5.07,0,0,1-3.36,1c-3-.15-5.14-1.49-8.23-.2l-1.23-5.11A46.63,46.63,0,0,0,207.52,156c4.49-1.43,8.26-3.82,12.38-6s8.57-2.69,13-3.5c3.52-.64,8.56-.91,10.66-4.27,1.85-3,6.48-.11,4.63,2.88Z"/><path class="cls-7" d="M248.28,130.39a56,56,0,0,1,4.24,9.39c.83,2.44,1.61,5.15-.11,7.38a1.39,1.39,0,0,1-2.15.22,10.86,10.86,0,0,1-2.63-4.25l2.63.07a13.78,13.78,0,0,1-2.14,4l-1.81-1.91,1.88-1a1.37,1.37,0,0,1,1.59,2.18,15.08,15.08,0,0,1-4.39,3.26c-1.13.56-2.68-.76-1.81-1.91,2.84-3.8-.38-10.52-1.47-14.58-1.33-4.95-2.59-10-5.15-14.48-2.41-4.23-6-7.56-9.63-10.71-1.89-1.63-3.8-3.24-5.7-4.85-1.11-.94-5.78-6-7.24-5.24l.33-2.13c14.84,12.27,29.48,25.29,36.85,43.54a1.37,1.37,0,0,1-2.18,1.59,21.46,21.46,0,0,1-6-10.92l2.68-.29c0,5.38,5.34,9.05,5.51,14.56,0,1.1-1.65,1.86-2.35.9a6.62,6.62,0,0,1-1.44-4.45l2.52.76-.77,1.5c-.23,1.4-2.32,1.93-2.68.29l-1-4.49a1.36,1.36,0,0,1,2.65-.65c1.1,4.54,1.62,9.69-2.84,12.56-1.07.69-2.21-.52-2-1.59a4.39,4.39,0,0,1,4.28-3.46c1.67,0,2.4.51,4.08-.35a55.86,55.86,0,0,0,5.08-3.35,1.37,1.37,0,0,1,1.85.54c.86,1.76.19,4.16-2,4.53-2.4.41-3.65-2.07-3.15-4.05l.9,1.7a3.52,3.52,0,0,1-2.31-4.56,1.37,1.37,0,0,1,2.29-.54,2.76,2.76,0,0,0,1.14,1.06,1.37,1.37,0,0,1,1.91-1.81,3.63,3.63,0,0,1,1.52,2.09c.34,1.07-1.11,2.23-2,1.48a45.13,45.13,0,0,1-5.42-5.12l2.31-1.26.54,3.7c.15,1-1,2.29-2,1.48-4.06-3.17-5.45-6.91-7.22-11.55-1.69-4.44-5.87-7.33-7-12.06-.41-1.76,2-2.24,2.65-.65C244,124.56,253.37,128,254.6,136.6a1.37,1.37,0,0,1-2.31,1.26,18.27,18.27,0,0,1-5.37-7.67c-.57-1.49,1.76-2.25,2.52-1l3.65,6.12-2.5.26a11.72,11.72,0,0,0,.51-3.49,1.37,1.37,0,0,1,2.56-.62c1.26,1.94,2.43,3.91,3.54,5.94l-2.39,1.31a95.22,95.22,0,0,0-6.37-10.5l2.39-1.31a46.19,46.19,0,0,0,5.27,6.57l-2.18,1.59-8.33-11.9,2.39-1.31a37.74,37.74,0,0,0,3.86,5.86l-2.18,1.59a29,29,0,0,0-3.29-5.53,1.36,1.36,0,0,1,2-1.87,40,40,0,0,1,6.16,7.83c.93,1.54-1.4,2.7-2.39,1.31a181.64,181.64,0,0,0-12.84-16l2.18-1.59,4.69,10a1.36,1.36,0,0,1-2.39,1.31l-12.79-19.36,2.39-1.31c1.64,3.39,4.38,5.82,7.19,8.23l-2.18,1.59a36.51,36.51,0,0,0-10-9.56l2-1.48a11.13,11.13,0,0,0,3.47,6.37l-2,1.87-8.85-9.73c-1-1.1.41-3,1.71-2.09l3,2.17-1.71,2.09c-2.22-2.56-5.61-8.12-9.59-7.31l.66-2.26a56.47,56.47,0,0,0,6.46,6.58l-2.31,1.26a6.76,6.76,0,0,0-1.21-3.24c-.75-1.09.86-2.65,1.91-1.81a35.92,35.92,0,0,0,8.51,5.12l-1.39,2.24a22.31,22.31,0,0,0-13.37-5.79c-1.74-.14-1.68-2.86.08-2.72a25.41,25.41,0,0,1,15.28,6.64c1,.89-.14,2.77-1.39,2.24a38.36,38.36,0,0,1-9.15-5.41l1.91-1.81a8.32,8.32,0,0,1,1.47,3.9,1.38,1.38,0,0,1-2.31,1.26,56.47,56.47,0,0,1-6.46-6.58,1.38,1.38,0,0,1,.66-2.26c5.49-1.11,9.1,4.5,12.22,8.09,1,1.11-.39,3-1.71,2.09l-3-2.17L225,99.49l8.85,9.73a1.36,1.36,0,0,1-2,1.87,13.58,13.58,0,0,1-4.14-7.59,1.38,1.38,0,0,1,2-1.48,40,40,0,0,1,10.93,10.57c1,1.36-1.11,2.51-2.18,1.59-3-2.56-5.86-5.19-7.6-8.79a1.36,1.36,0,0,1,2.39-1.31l12.79,19.36-2.39,1.31-4.69-10c-.63-1.34,1.1-2.8,2.18-1.59a187.75,187.75,0,0,1,13.25,16.59l-2.39,1.31a37.23,37.23,0,0,0-5.75-7.27l2-1.87A32.16,32.16,0,0,1,252,128c.61,1.32-1.16,2.87-2.18,1.59a41.68,41.68,0,0,1-4.27-6.42c-.85-1.58,1.41-2.71,2.39-1.31l8.33,11.9c.91,1.29-1.14,2.68-2.18,1.59a50,50,0,0,1-5.68-7.13c-1-1.48,1.4-2.72,2.39-1.31a95.22,95.22,0,0,1,6.37,10.5,1.36,1.36,0,0,1-2.39,1.31c-1.1-2-2.28-4-3.54-5.94l2.56-.62a14.11,14.11,0,0,1-.63,4.21,1.38,1.38,0,0,1-2.5.26L247,130.52l2.52-1a15.67,15.67,0,0,0,4.71,6.45L252,137.25c-1.17-8.2-10.59-12.13-13.47-19.69l2.65-.65c.94,4,4.43,6.56,6.19,10.16.81,1.65,1.22,3.44,1.88,5.15a15.21,15.21,0,0,0,4.93,6.64l-2,1.48-.54-3.7c-.18-1.25,1.33-2.36,2.31-1.26a40.93,40.93,0,0,0,4.88,4.68l-2,1.48-.31-.43,1.91-1.81a2.62,2.62,0,0,1-1,3.73c-1.73,1-3.5-.29-4.55-1.6l2.29-.54.5,1.16a1.4,1.4,0,0,1,.9,1.7l.13,0,1.85.54c-2.09,1.38-4.4,3.49-6.74,4.37-1.73.65-4.84-1.13-5.39,1.19l-2-1.59c3.25-2.09,2.25-6.39,1.5-9.52l2.65-.65,1,4.49-2.68.29A5.45,5.45,0,0,1,248,140a1.37,1.37,0,0,1,2.52.76,3.2,3.2,0,0,0,.7,2.5l-2.35.9c-.16-5.39-5.5-9-5.51-14.56a1.37,1.37,0,0,1,2.68-.29,18.85,18.85,0,0,0,5.34,9.7l-2.18,1.59c-7.29-18-21.78-30.84-36.44-43a1.37,1.37,0,0,1,.33-2.13c1.89-1,3.46-.18,5,1.07,2.68,2.16,5.25,4.46,7.87,6.69,4.59,3.9,9.37,7.76,12.65,12.89s4.72,11.09,6.27,16.86c1.3,4.83,4.43,11.59,1,16.17l-1.81-1.91a13.17,13.17,0,0,0,3.83-2.85l1.59,2.18-1.88,1c-1.12.6-2.69-.78-1.81-1.91a11.64,11.64,0,0,0,1.84-3.33,1.38,1.38,0,0,1,2.63.07,7.84,7.84,0,0,0,2,3l-2.15.22c1.54-2-.17-5.3-1-7.35a53.77,53.77,0,0,0-3.22-6.67,1.36,1.36,0,0,1,2.39-1.31Z"/><path class="cls-7" d="M254.35,144.17l0,.16a1.33,1.33,0,0,1-1,.92l-.2,0a1.41,1.41,0,0,1-1.52-.67,14.49,14.49,0,0,1-.74-6.63,2.37,2.37,0,0,1,.91-1.78,8.11,8.11,0,0,1,2.12-.67,1.37,1.37,0,0,1,2.68-.29c1,2.86,2.08,4.7-.37,7a15.78,15.78,0,0,1-3.72,2.73,7.84,7.84,0,0,0-2.2,1.25c-.09.08-1.49,1.75-1.56,1.4l-.92-1,.36.15-1.33.31.28-.21c1.39-1,3.27.92,1.87,2l-.28.21a1.37,1.37,0,0,1-1.33.31c-2.86-1.24-.43-3.89,1-5.26,1.27-1.2,3.05-1.54,4.45-2.6.82-.61,2.14-1.43,2.2-2.57,0-.82-.82-2.29-1.1-3.07l2.68-.29a2.48,2.48,0,0,1-1.91,2.49c-1.16.36-1.07-.16-1.12,1.18a10.53,10.53,0,0,0,.41,4l-1.52-.67.2,0-1,.92,0-.16a1.36,1.36,0,0,1,2.61.8Z"/><path class="cls-7" d="M234.75,109.2a21.76,21.76,0,0,0,1.06,2.21.68.68,0,0,1-1.19.65,1.45,1.45,0,0,1-.24-1,.69.69,0,0,1,.7-.66c1.66.19,3.88,0,5.39.82,1.69.89,3.21,3.45,4.37,4.93,2.09,2.66,5.47,6.13,5.58,9.67a27.47,27.47,0,0,1-.74,6.41c-.57,2.69-.9,5.36-1.34,8.07-.62,3.89-1.75,8.62-5.09,11.07-.56.41-1.54-.17-1-.85a19.47,19.47,0,0,1,1.9-2.26l.94,1-3.18,2.57c-.68.55-1.62-.44-.94-1l3.18-2.57a.68.68,0,0,1,.94,1,11.43,11.43,0,0,0-1.68,2l-1-.85c3.34-2.45,4.35-7.61,4.85-11.5.47-3.63,1.41-7.2,1.76-10.84a7.5,7.5,0,0,0-1.05-5.28c-1.07-1.69-2.22-3.34-3.44-4.93a40,40,0,0,0-3.64-4.39c-1.59-1.55-3.62-1.44-5.75-1.68l.7-.66.08.33-1.19.65a21.76,21.76,0,0,1-1.06-2.21c-.33-.8.86-1.46,1.19-.65Z"/><path class="cls-8" d="M217.92,92.19c18.9,12.23,36.57,28.81,42.7,51.18a.68.68,0,0,1-1.32.33c-6-22-23.5-38.32-42.09-50.35-.73-.48,0-1.63.72-1.16Z"/><path class="cls-8" d="M217.67,93.11A236.47,236.47,0,0,0,179.55,129c-.57.67-1.5-.33-.94-1a236.47,236.47,0,0,1,38.12-35.88c.69-.52,1.64.46.94,1Z"/><path class="cls-8" d="M179.9,128.33,184.74,147c1.3,5,2.53,11.35,7.21,14.3a.68.68,0,0,1-.72,1.16c-4.25-2.68-5.85-7.87-7.11-12.46-2-7.08-3.7-14.23-5.55-21.34a.68.68,0,0,1,1.32-.33Z"/><path class="cls-8" d="M260,143.55c-12.69-1.75-25.1,4.34-36.69,8.66-6.11,2.28-12.34,4.37-18.26,7.11-4.35,2-9,4.61-13.83,2.77-.81-.31-.42-1.62.4-1.3,5.85,2.22,12.34-2.63,17.63-4.73,5.56-2.21,11.2-4.22,16.8-6.31,10.83-4,22.17-9.19,34-7.56.86.12.83,1.48,0,1.36Z"/><path class="cls-8" d="M260.28,143.71c-1.07,2.3-3.36,3.51-5.63,4.42A102.22,102.22,0,0,1,243,151.49c-4.31,1.15-8.65,2.2-13,3.32a68,68,0,0,0-12.3,4.8c-6.55,3.12-14,5.63-21.32,4.91-1.41-.14-6.08-.35-6.3-2.39-.14-1.28,1.5-1.74,2.38-1.14.72.49,0,1.65-.72,1.16,2.09,1.43,6.24,1.23,8.68,1.07a38,38,0,0,0,8.81-1.71c5.63-1.74,10.62-4.93,16.19-6.8,5.94-2,12.18-3.2,18.23-4.82,4.51-1.21,13.18-2.09,15.41-6.9.37-.79,1.52-.07,1.16.72Z"/><path class="cls-9" d="M120.19,126l.12-.15,1-.22-.25,0,1.08.83-.11-.2c-.68-1.26-2.88-1-2.67.59a3,3,0,0,0,2,2.82c.64.19,1.33.22,2,.39a10.38,10.38,0,0,1,2.31,1c1.56.85,2.68-1.52,1.13-2.37A12.65,12.65,0,0,0,124,127.5a8.32,8.32,0,0,1-1.42-.29c-.42-.22-.35-.09-.43-.66l-2.67.59a1.77,1.77,0,0,0,3.24,0c.8-1.49-1.74-2.59-2.54-1.11Z"/><path class="cls-6" d="M163.39,85.93a61.31,61.31,0,0,1-11.16,4.34c-4,1.17-8.39,1.58-12.16,3.12-10,4.09-7.69,14.12-10,22.37-1.85,6.5,9.25,11.32,13.1,5.66a34.39,34.39,0,0,0,2.27-3.67,6.83,6.83,0,0,0-2.94-8.78c-2.85-1.63-7.64-1.61-9.6,1.34a41.06,41.06,0,0,0-2.27,3.67c-3.66,7,7.51,13.7,12.54,7.44,1.82-2.26,5.41-2.86,7.81-4.5a19.4,19.4,0,0,0,7.29-10c1.21-3.56.18-7.55-3.76-9.27-3.34-1.46-8.57-.23-9.78,3.35-.9,2.65-1.67,4.24-4.31,5.48-3.37,1.58-6.46,3.08-8.78,6l12.54,7.44.27-.62-12.54-7.44-.27.62,13.1,5.66A61.73,61.73,0,0,0,146.34,107a11.57,11.57,0,0,1,.19-1.65l-.41.92-.13,0c1.63-.54,3.33-.83,5-1.21a85.55,85.55,0,0,0,21.2-7.74c3.46-1.82,3.75-6.88,1.56-9.71-2.6-3.35-6.89-3.49-10.36-1.66Z"/><path class="cls-6" d="M166.38,81.49c-5.1-1-10.57-.81-14.93,2-4.85,3.16-6.4,8.75-6.31,14.06.09,5.12,2,10,3.69,14.86a50.16,50.16,0,0,1,1.47,4.9,21.86,21.86,0,0,0,.46,2.36c.56,1.57-.22,0,.5-.6l3-2c-1.07.51-.17-.09.14.12-.4-.27-.6-.08-1.06-.76-.77-1.13-2-2.14-2.81-3.29-4.14-5.84-14.38-2.09-13.32,4.72l.11.73c.72,4.61,5.51,7.23,10.1,5.83,7.35-2.24,12.78-8.58,17.55-14,5.64-6.4,7.54-15.74.78-22.38C161,83.27,153.58,82.54,147,83.3c-8.43,1-16.85,3.32-25.12,5.07-3.88.82-7,3.56-6.47,7.63.43,3.41,4.33,7,8.24,6.24a22.81,22.81,0,0,1,4.61-.52l-3.63-13.46a12.79,12.79,0,0,1-2.74.11l1.77,13.87c12-2,24.32-4.52,36.67-3.84,3.68.2,7.11-1.24,8.15-4.8.9-3.06-.5-7.18-4-8.38-5.8-2-11.72-3.4-17.85-2.4-9.33,1.51-7.82,14.26,1.77,13.87,5.93-.24,11.7-1.7,17.67-1.53,4,.12,6.9-4.24,6.47-7.63-.53-4.15-4.23-6.12-8.24-6.24-6-.18-11.73,1.29-17.67,1.53l1.77,13.87a20.3,20.3,0,0,1,10.06,1.16l4.11-13.18c-13.84-.76-27.13,1.44-40.64,3.71-9.41,1.58-7.76,13.93,1.77,13.87a26.47,26.47,0,0,0,6.47-.93c3.5-.88,5.25-5,4.37-8.1-1-3.56-4.21-5.38-8-5.36a22.81,22.81,0,0,0-4.61.52l1.77,13.87c7-1.48,13.94-3,20.93-4.37,3.48-.7,7.69-1.31,9.87-.68-.9-.26,2.24,1.07.8.37-.66-.32,0,.58.06,0-.1,2-1.2,3.13-2.65,4.68-3,3.25-6.21,7.68-10.73,9.06l10.1,5.83-.11-.73-13.32,4.72c3.85,5.42,9.8,10.41,17.12,9.9,7.68-.54,10.73-7.05,9.59-13.57-1-5.67-3.61-10.94-4.93-16.51-.25-1.07-1.32-5.12-.25-6,.79-.63,3.06,0,4,.21,9.39,1.79,11.58-12,2.2-13.74Z"/><path class="cls-6" d="M118.72,100.64a151.77,151.77,0,0,0,30,.56c4.7-.33,9.42-.71,14.09-1.28,4.13-.51,7.8-1.66,10.48-4.76l-9.41-5.58a33.8,33.8,0,0,0-3.24,6.69c-1.31,3.69,2.42,9.49,7.14,7.11a9.09,9.09,0,0,0,4.4-4L162,95c-2.26,5.17-3.26,10.81-4,16.43-.66,5.23-1.79,11-.73,16.3l4.85-5.72a49.64,49.64,0,0,1-21.41.09,5.34,5.34,0,0,0-6.34,5.67,6.45,6.45,0,0,0,1.5,3.58l3.8-8.22a20.15,20.15,0,0,1-11.18-3.32l.84,7.36c2.4-2.48,3.42-6.45.7-9.22a6.55,6.55,0,0,0-4.39-2,6.25,6.25,0,0,0-2.35.35,2.62,2.62,0,0,0-.83.38q-1.8.87,1.16-.38l5.74,7.42.53-1c3.16-6-7-10.4-10.16-4.44l-.53,1,10.57,3.1c.44-2.62-.64-4.68-.85-7.21a45.48,45.48,0,0,0-1.3-8.47c-.27-1-.4-1.37-.7-2.88-.15-.75-.15-1.6-.36-2.33q0-1.07-.05-.35.74-3.63-5.55,2.54l1.59-9.94-.76.06,2.92.47,1.17.77-5.3,8.17a17.25,17.25,0,0,1,3,1.05l3.08-9.89a3,3,0,0,1-1.73-.32l-5.74,8.74c7,2.52,6.77,8.64,8,14.64,1.34,6.84,4.75,13,12.42,14.82,15,3.59,26.54-7.83,30.6-20,.9-2.7.13-5.63-2.82-7-2.49-1.11-6.44-.16-7.34,2.51-1.61,4.82-3.95,10.38-9,12.88-2.87,1.43-8.78,3.06-11.24.08-1.52-1.84-1.71-4.74-2-6.94a50.78,50.78,0,0,0-1.72-8.25,19.86,19.86,0,0,0-12.33-12.29c-5.72-2-10.88,4.76-5.74,8.74a12.68,12.68,0,0,0,7,2.62c6,.42,9-7.12,3.08-9.89a36.26,36.26,0,0,0-5.82-1.89c-5.12-1.39-7.52,4.73-5.3,8.17,1.54,2.39,4.1,3.28,6.93,3.07,5.5-.4,6.55-7.79,1.59-9.94-3.22-1.4-6.85-.86-8.8,2-1.5,2.23-1.37,5-1,7.59.34,2.17,1.05,4.26,1.56,6.39a24.23,24.23,0,0,1,.63,5c0,1.68,1.15,3.83.89,5.35-1,5.92,7.85,8.27,10.57,3.1l.53-1c3.16-6-7-10.4-10.16-4.44l-.53,1c-2,3.72,1.72,7.6,5.74,7.42a5.63,5.63,0,0,0,1.92-.33q2.09-1.1.75-.34l-5.55-.89.49.35-2-3.48.07.74.44-2.74-.37.46a5.08,5.08,0,0,0,.84,7.36c6,4.1,12.26,5.54,19.48,5.71,4.28.1,6.13-5.33,3.8-8.22l.6,1.42-6.34,5.67a57.59,57.59,0,0,0,24.4,0c2.76-.56,5.47-2.69,4.85-5.72-.88-4.33.11-9.18.68-13.49.61-4.61,1.29-9.52,3.13-13.75C174.89,93.17,165.4,89.23,162,95l-.5.84,3-2.67-.89.45,7.14,7.11A33.8,33.8,0,0,1,174,94c3.22-5.14-5.57-10-9.41-5.58-1.39,1.61-5.53,1.33-7.55,1.53-4.15.41-8.3.77-12.47,1a130,130,0,0,1-24.22-.64c-7.09-.92-8.77,9.38-1.65,10.3Z"/><path class="cls-7" d="M110.66,83.66c.68,1.85,2.85,5.61,2.25,7.5a1.85,1.85,0,0,0,2.38,2.37c4.25-1.72,9.11-2.07,13.66-2.82q7.36-1.21,14.69-2.51c8.86-1.57,20.76-5.72,29.11-.46a1.85,1.85,0,0,0,3-1.51c-.23-5.51.18-11.75-7.42-12.14a38.48,38.48,0,0,0-6.31.69,52.62,52.62,0,0,1-6,0c-4.13,0-8,1.45-12,1.9-3.91.43-7.77-.24-11.68-.11-3.67.12-6.94,1.5-10.39,2.47-2.8.79-7.15.65-8.84,3.37s.6,5.42,1.8,7.81a1.93,1.93,0,0,0,3.41.13c.81-1.33,5.65-1.37,7.18-1.63l7.76-1.3L148,85l-.91-3.36c-9.41,4.26-21.47,5-31.85,5a1.72,1.72,0,0,0-.53,3.31c1.89.6,5.28,1.34,6.61-.55C123,87,119.64,83.63,118.25,82c-.78-.91-2.76-1.07-3.18.27a7.76,7.76,0,0,0,0,5.55c.54,1.51,2.74,1.37,3.41.13.53-1,.07-2.26.74-3.07.52-.63,3.89-.9,4.73-1.06,1.1-.2,2.2-.37,3.3-.53,4.85-.7,9.74-1.16,14.62-1.69L156.49,80a74,74,0,0,1,7.6-.68,11.83,11.83,0,0,1,4.12.35c2,.84,1.84,1.77,1.3,3.37l3.52,1c1.35-10.81-17.53-6-23.61-5.16-6.51.93-13.08,1.51-19.65,2-3.28.26-10.79-.39-12.76,2.7a1.64,1.64,0,0,0,.2,1.75c2.2,3,6.9,2.32,10,1.55,5.42-1.35,10.85-1.62,16.36-2.48,5.34-.83,10.47-2.43,15.75-3.49,1.5-.3,6.5-1.86,7.67-1a20.11,20.11,0,0,0,1.62,2.75l2.11-1.42c-8.29-2.17-17.71.6-25.9,1.83l1.32,3.16a35.71,35.71,0,0,1,9.52-3.49c2-.44,9.89-2.64,11.34-.72l1.77-2.72c-7.67-.85-14.38,2-21.89,2.33L121,82.92l.44,3.47a19.77,19.77,0,0,0,10-4.57,1.75,1.75,0,0,0-.83-3.14l-1.41-.28-.05,3.45,3.9-.18c2.38-.11,1.93-3.58-.44-3.47l-3.9.18c-2.15.1-2,3.06-.05,3.45l1.41.28L129.21,79A16.28,16.28,0,0,1,121,82.92a1.75,1.75,0,1,0,.44,3.47l24.48-1.2c3.09-.15,6.24-.11,9.22-.91,4.5-1.22,8.37-2,13.11-1.52A1.75,1.75,0,0,0,170,80c-2.68-3.55-8.24-1.94-12-1.29a44.23,44.23,0,0,0-14.07,4.66c-1.58.87-.45,3.42,1.32,3.16,7.81-1.17,17-3.93,24.91-1.87a1.81,1.81,0,0,0,2.11-1.42c.25-1.7-.64-2.07-1.38-3.42s-.52-2.46-2.4-3.16-4-.09-5.81.15c-2.72.37-5.39,1-8,1.61a128.15,128.15,0,0,1-17.16,3.2,69.74,69.74,0,0,0-7.93,1.08c-2.24.49-7.7,2.87-9.37.64l.2,1.75s4.58-.29,5.09-.33c2-.18,4.1-.33,6.14-.49,4.47-.36,8.94-.76,13.39-1.29,4-.48,8-1.16,12-1.65,2.85-.35,12.89-2.11,12.37,2.12-.23,1.85,2.87,3,3.52,1,.57-1.68,1.77-3.76.89-5.51-1-2-4.19-2.71-6.31-3-6.77-.91-14.2.83-20.89,1.57-7.23.8-14.54,1.37-21.7,2.56-2.48.41-6.23.69-8.35,2.05a3.29,3.29,0,0,0-1.39,1.76c-.26.81.38,1.84,0,2.53l3.41.13-.1-2.84-3.18.27a16.71,16.71,0,0,0,1.92,2.46c.63.48,3.22,1.59-.94.26l-.53,3.31c10.67,0,23.09-.81,32.78-5.2,1.74-.79,1.3-3.74-.91-3.36L127.83,84.8c-4,.67-10.69.37-12.95,4.09l3.41.13-1.23-2.47q-1.47-1.45.51-2.23c1.33-1.17,2.24-1.11,4-1.52,2.36-.56,4.59-1.47,6.92-2.09,5.37-1.42,11.07.1,16.58-.61,2.59-.33,5.06-1.09,7.63-1.52,2.85-.47,5.62,0,8.47-.2,2.64-.15,5.47-1.33,8.13-.7,3.51.83,2.7,6.23,2.81,8.89l3-1.51c-8.92-5.62-19.51-2.55-29.09-.84q-8.38,1.5-16.79,2.89c-5.07.84-10.54,1.22-15.29,3.14l2.38,2.37c1.09-3.43-1-6.93-2.2-10.2-.78-2.13-4.22-.91-3.44,1.23Z"/><path class="cls-7" d="M113.23,83.94l19.31-3.46c6.15-1.1,12.18-1,18.38-1.65,2.39-.24,1.92-3.52-.44-3.47-2.7.06-5.37.23-8.05.52L143.75,79c5.08-2.81,11.68.16,17.26-.93a1.73,1.73,0,0,0,1.27-2.74c-1.11-1.81-3.32-.91-5-.58-1.4.28-2-.08-2.15,1.39s.55,1.16,1.95,1.35a26.82,26.82,0,0,0,5.25.26,1.72,1.72,0,0,0,.53-3.31l-.89-.33-.53,3.31c2.57-.49,7.94-1.63,10.14.24A1.77,1.77,0,0,0,173.9,75c-3.16-2.69-9.19-1.74-12.91-1-1.62.31-2.41,2.62-.53,3.31l.89.33.53-3.31c-2.33.13-11.12-2.68-11.17,1.67,0,1.3.91,2,2.18,2.4.85.26,7-.08,6.41-1l1.27-2.74c-6.49,1.26-13-1.8-19,1.55-1.62.9-.42,3.34,1.32,3.16,2.68-.29,5.35-.46,8.05-.52l-.44-3.47c-6.19.63-12.23.55-18.38,1.65l-19.31,3.46c-2.31.41-1.9,3.89.44,3.47Z"/><path class="cls-8" d="M109.94,81.33a413.52,413.52,0,0,1,8.79,47c.14,1.11,2,.95,1.84-.17a413.52,413.52,0,0,0-8.79-47c-.27-1.08-2.11-.93-1.84.17Z"/><path class="cls-8" d="M111.05,82.17a236.28,236.28,0,0,1,29.49-5.63q7-.88,14.11-1.33,3.71-.24,7.42-.36c2.22-.07,5.26-.62,7.44-.13,2.79.63,3.67,1.84,4.15,4.32A24,24,0,0,1,174,82a34.94,34.94,0,0,1-.38,7.45,126.79,126.79,0,0,1-2.8,12.4,152.31,152.31,0,0,0-4.42,29.41c-.06,1.11,1.77,1.41,1.83.29A173.68,173.68,0,0,1,173.74,98a58.54,58.54,0,0,0,2.21-13.86c0-2.74.1-8.68-2.72-10.6-1.1-.74-2.69-.56-3.94-.56-2.93,0-5.86.06-8.79.17q-8.44.32-16.83,1.25a239.57,239.57,0,0,0-33.3,6.13c-1.14.29-.45,1.92.69,1.63Z"/><path class="cls-8" d="M119,128.69c7,5,15.34,5.64,23.8,6s16.64.38,24.46-2.52c1.1-.41.42-2-.69-1.63-7.53,2.79-15.48,2.82-23.5,2.43s-16.17-.83-22.92-5.67c-1-.69-2.12.65-1.16,1.33Z"/><path class="cls-6" d="M54.51,143.14c-2.17,2.06-4.8.1-2.3,1.58.79.47,1.58.92,2.4,1.33a51.55,51.55,0,0,0,5.15,2.15,79.46,79.46,0,0,0,9.87,2.69c6.09,1.37,12.68,2.54,17.1,6.11l7.81-10.43q-14.25-6.21-28.92-11.38c-2.43-.85-5.45.5-6.87,2.46a6.72,6.72,0,0,0-.4,7.3c3.13,6,9.67,8.69,15.91,10.18,3.64.87,7.31,1.65,11,2.47,1.64.37,3.27.75,4.89,1.2-.72-.2.12.33.1,0q-.44-.43.29.27-1.17-2.39-.76-.74l9.54-7.56a13,13,0,0,1-3.85-2.31l-4.48,11.28a5.54,5.54,0,0,1,1.37-.1.86.86,0,0,1-.7-.11q-.55-.6.29.24-.55-.59.07.4l5.52-10a6.84,6.84,0,0,1-5.9-1.8L85.37,159.5c4.32,1.51,9.14,2.71,13.64,1.2a13.21,13.21,0,0,0,9-9.3,6.58,6.58,0,0,0-3.92-7.69c-3.27-1.26-6.19.08-8.16,2.81a17.32,17.32,0,0,0-3,9.25l12.19-3.5c.06.08.09,1.2-.14,1.14-.06,0,1.2-2.07,1.26-2.15a41.42,41.42,0,0,0,3-5.19,49.09,49.09,0,0,0,3.31-12.27l-1.65,2.92.37-.49c2.24-3,2.5-6.37-.14-9.29q-6.22-6.88-12.76-13.46-3.45-3.45-7-6.81c-2.11-2-4.39-4.82-7.21-5.79-4.53-1.57-7.58,1.31-10.54,4.31l-6.9,7L52.56,126.51a6.63,6.63,0,0,0,3.06,10.93c5.27,1.42,10.73,2,16,3.55,4.71,1.39,8.92,4,13.19,6.34,2,1.14,4.09,2.25,6.22,3.22,2.85,1.3,6.11,3,9.31,2.62,7.48-.85,7.41-9.71,6.41-15.37-1.81-10.22-9.56-17.9-19.3-20.86-2.35-.71-4.78-1.16-7.19-1.64-2.78-.55-5.91-1.58-8.75-1.44-7.6.37-10.8,9.79-5.69,15.13,4,4.19,10.48,3.66,15.53,5.88,5.68,2.49,9.8,7.2,15.55,9.49,2.37.94,5.51-.58,6.87-2.46a6.66,6.66,0,0,0,.4-7.3A130.25,130.25,0,0,0,86.72,110.7c-2.4-2.62-6.92-2.3-9.29.14a6.69,6.69,0,0,0,.14,9.29A115.17,115.17,0,0,1,92.9,141.42l7.27-9.76c-1.89-.75-3.89-3-5.55-4.18a39.23,39.23,0,0,0-6.85-4A47.58,47.58,0,0,0,80,120.61c-1.27-.33-2.55-.54-3.83-.78-.3-.06-1.56-.32-1.54-.33q.88.17.92,1.49a2.56,2.56,0,0,1,.57,3.23l-2.32,2.39q-3.8.2-1.34.53l.9.18,2.7.54c1.81.36,3.62.7,5.41,1.12,2.79.65,5.94,1.75,7.69,3.25a14.14,14.14,0,0,1,4,5.67,12.14,12.14,0,0,1,.76,6.61l1.65-2.92-.34.45,2.87-1.73-.61.14,3.49-.05c-6.66-1.49-12.51-6.4-18.65-9.24-7.54-3.49-15.49-4.29-23.41-6.42L62,135.66l12-12.13c3.88-3.93,7.6-8.3,11.81-11.86l-2.87,1.73.66-.17-5.07-.59c-.8-.32-.59-.57.16.13l1.79,1.66q1.6,1.5,3.19,3,3.17,3,6.27,6.16,6.19,6.23,12.08,12.77l-.14-9.29A9.49,9.49,0,0,0,99.62,132a32.19,32.19,0,0,1-.53,3.41,23.42,23.42,0,0,1-2.69,6.86c-1.42,2.41-3.18,4.57-3.92,7.33a11.45,11.45,0,0,0,1.39,9.43c3.83,5.5,11.75,3.05,12.19-3.5a7.29,7.29,0,0,1,1.29-2.6L95.27,148.1c-.49,2,.09-.26.15-.09q.74-.14-.44.19.72,0-.15,0c-2.07.22-4.24-.79-6.16-1.45-6.31-2.2-10.84,6.79-6.23,11.07a20,20,0,0,0,15.25,5.51c5.21-.43,7.77-5.36,5.52-10a12.61,12.61,0,0,0-12.46-6.78c-2.65.36-4.92,1.46-5.94,4.13a6.57,6.57,0,0,0,1.46,7.15,23,23,0,0,0,6.53,4.32c5.52,2.32,10.56-1.68,9.54-7.56-1.43-8.24-11.78-9.32-18.3-10.78-3.34-.75-6.74-1.37-10-2.43-2.14-.7-3.59-1.6-4.47-3.3l-7.27,9.76Q75.37,152.5,88.07,158c3,1.31,6.4,1,8.45-1.82,1.77-2.45,1.94-6.53-.64-8.62-7.18-5.81-15.69-7.72-24.49-9.75a46.56,46.56,0,0,1-11-3.57c-2.17-1.14-4.11-2.5-6.57-3A9.68,9.68,0,0,0,45.08,134c-6.14,5.84,3.3,15,9.43,9.15Z"/><path class="cls-6" d="M47.06,145.81c5,8.26,17.16,5.53,24.64,9.65,4.21,2.32,8.12,4.75,12.7,6.32a50,50,0,0,0,14.5,2.58c2.5.09,3.67-3.87,1.25-4.92a14,14,0,0,0-7.93-1.2c-1.39.21-2.22.82-3.28,0s-1.39-1.6-2.58-2c-4.72-1.78-7.22,5.55-2.47,6.68a2.64,2.64,0,0,0,2-4.83,66.44,66.44,0,0,0-15.06-7.21c-5.23-1.73-10.87-2.35-15.79-4.92-3-1.57-5.58,3-2.58,4.58,4.82,2.52,10.14,3.34,15.3,4.88a61,61,0,0,1,15.55,7.25l2-4.83-.36-.09,1.59,1.18-1.59,2.59.62.78a3.89,3.89,0,0,0,.93.9,4.89,4.89,0,0,0,3.23,1c2.92-.11,5-1.37,7.94-.09l1.25-4.92a45,45,0,0,1-12.67-2.26c-4.32-1.44-7.92-3.79-11.87-6s-8.23-2.7-12.5-3.54c-3.38-.67-8.25-1-10.23-4.25-1.75-2.89-6.25-.18-4.5,2.72Z"/><path class="cls-7" d="M47.16,131.61a54,54,0,0,0-4.2,9c-.83,2.34-1.62,4.95,0,7.12A1.34,1.34,0,0,0,45,148a10.47,10.47,0,0,0,2.58-4.07l-2.53,0a13.29,13.29,0,0,0,2,3.86L48.87,146l-1.8-1a1.32,1.32,0,0,0-1.56,2.09,14.55,14.55,0,0,0,4.19,3.2c1.08.56,2.59-.7,1.77-1.82-2.69-3.7.49-10.14,1.59-14,1.34-4.75,2.62-9.61,5.14-13.91,2.37-4,5.87-7.22,9.42-10.21,1.84-1.55,3.7-3.07,5.55-4.61,1.08-.9,5.65-5.7,7-5l-.3-2.06c-14.46,11.66-28.74,24-36.08,41.54a1.32,1.32,0,0,0,2.09,1.56,20.7,20.7,0,0,0,5.93-10.46L49.29,131c-.08,5.19-5.26,8.67-5.49,14,0,1.06,1.57,1.81,2.26.9a6.39,6.39,0,0,0,1.44-4.27l-2.44.7.73,1.46c.2,1.35,2.21,1.89,2.59.31l1-4.32a1.31,1.31,0,0,0-2.54-.66c-1.11,4.37-1.68,9.33,2.58,12.15,1,.68,2.14-.48,1.91-1.51a4.23,4.23,0,0,0-4.08-3.39c-1.61,0-2.32.46-3.93-.39a53.88,53.88,0,0,1-4.86-3.29,1.32,1.32,0,0,0-1.79.5,3,3,0,0,0,1.85,4.39c2.31.43,3.54-2,3.08-3.87l-.89,1.63A3.39,3.39,0,0,0,43,140.92a1.32,1.32,0,0,0-2.2-.55,2.66,2.66,0,0,1-1.12,1,1.32,1.32,0,0,0-1.82-1.77,3.5,3.5,0,0,0-1.49,2c-.34,1,1,2.16,2,1.45a43.53,43.53,0,0,0,5.29-4.88l-2.21-1.25-.57,3.56c-.16,1,.94,2.22,2,1.45,4-3,5.34-6.6,7.1-11,1.69-4.26,5.75-7,6.88-11.55.42-1.69-1.94-2.19-2.54-.66C51.32,126,42.27,129.27,41,137.52a1.33,1.33,0,0,0,2.21,1.25,17.62,17.62,0,0,0,5.28-7.33c.57-1.43-1.67-2.19-2.42-1l-3.6,5.86,2.41.28a11.3,11.3,0,0,1-.45-3.37A1.33,1.33,0,0,0,42,132.6c-1.24,1.85-2.39,3.74-3.48,5.69l2.29,1.29A91.85,91.85,0,0,1,47,129.52l-2.29-1.29a44.55,44.55,0,0,1-5.17,6.27l2.09,1.56,8.18-11.38-2.29-1.29a36.41,36.41,0,0,1-3.79,5.6l2.09,1.56a28,28,0,0,1,3.24-5.29,1.31,1.31,0,0,0-1.89-1.83,38.63,38.63,0,0,0-6,7.48c-.91,1.47,1.32,2.62,2.29,1.29a175.2,175.2,0,0,1,12.58-15.3L54,115.34l-4.65,9.59a1.31,1.31,0,0,0,2.29,1.29l12.57-18.52-2.29-1.29c-1.63,3.25-4.29,5.56-7,7.85l2.09,1.56a35.22,35.22,0,0,1,9.74-9.1l-2-1.45a10.74,10.74,0,0,1-3.43,6.1l1.89,1.83,8.65-9.27c1-1.05-.36-2.92-1.62-2l-2.95,2.06,1.62,2c2.17-2.44,5.51-7.76,9.34-6.94l-.61-2.19a54.47,54.47,0,0,1-6.31,6.27l2.21,1.25a6.52,6.52,0,0,1,1.21-3.11c.74-1-.8-2.57-1.82-1.77a34.65,34.65,0,0,1-8.27,4.83l1.31,2.18a21.52,21.52,0,0,1,13-5.42c1.68-.11,1.65-2.74,0-2.63a24.51,24.51,0,0,0-14.82,6.22c-1,.84.1,2.67,1.31,2.18a37,37,0,0,0,8.89-5.11L72.43,100A8,8,0,0,0,71,103.71,1.33,1.33,0,0,0,73.18,105a54.47,54.47,0,0,0,6.31-6.27,1.33,1.33,0,0,0-.61-2.19C73.6,95.36,70,100.72,67,104.15c-.95,1.06.34,2.93,1.62,2l2.95-2.06-1.62-2-8.65,9.27a1.31,1.31,0,0,0,1.89,1.83,13.1,13.1,0,0,0,4.08-7.27,1.33,1.33,0,0,0-2-1.45,38.62,38.62,0,0,0-10.67,10.06c-.94,1.3,1,2.44,2.09,1.56,2.92-2.44,5.71-4.93,7.44-8.38a1.31,1.31,0,0,0-2.29-1.29L49.32,124.93l2.29,1.29,4.65-9.59c.62-1.29-1-2.71-2.09-1.56a181.09,181.09,0,0,0-13,15.84l2.29,1.29a35.91,35.91,0,0,1,5.63-6.94l-1.89-1.83a31,31,0,0,0-3.65,5.83c-.6,1.26,1.08,2.78,2.09,1.56a40.2,40.2,0,0,0,4.2-6.14c.84-1.52-1.32-2.63-2.29-1.29l-8.18,11.38c-.89,1.24,1.07,2.59,2.09,1.56A48.27,48.27,0,0,0,47,129.52c1-1.41-1.32-2.64-2.29-1.29a91.85,91.85,0,0,0-6.27,10.05,1.31,1.31,0,0,0,2.29,1.29c1.09-1.94,2.25-3.83,3.48-5.69l-2.46-.63a13.61,13.61,0,0,0,.56,4.07,1.33,1.33,0,0,0,2.41.28l3.6-5.86-2.42-1a15.12,15.12,0,0,1-4.62,6.16l2.21,1.25c1.23-7.89,10.36-11.57,13.23-18.82l-2.54-.66c-1,3.86-4.35,6.27-6.1,9.72-.8,1.58-1.22,3.3-1.87,4.94a14.67,14.67,0,0,1-4.83,6.34l2,1.45.57-3.56c.19-1.2-1.26-2.29-2.21-1.25A39.48,39.48,0,0,1,37,140.81l2,1.45.31-.41-1.82-1.77a2.53,2.53,0,0,0,.88,3.61c1.65,1,3.38-.24,4.41-1.49l-2.2-.55L40,142.77a1.35,1.35,0,0,0-.89,1.63l-.13,0-1.79.5c2,1.36,4.2,3.42,6.45,4.3,1.66.65,4.68-1,5.19,1.21l1.91-1.51c-3.11-2.05-2.1-6.19-1.33-9.2l-2.54-.66-1,4.32,2.59.31a5.25,5.25,0,0,0-1.1-2.78,1.33,1.33,0,0,0-2.44.7,3.09,3.09,0,0,1-.7,2.4l2.26.9c.22-5.2,5.41-8.6,5.49-14a1.32,1.32,0,0,0-2.59-.31,18.18,18.18,0,0,1-5.27,9.29l2.09,1.56c7.25-17.3,21.38-29.48,35.67-41a1.32,1.32,0,0,0-.3-2.06c-1.81-1-3.34-.22-4.85,1-2.61,2-5.12,4.24-7.68,6.36-4.47,3.7-9.13,7.37-12.36,12.28S52,128.67,50.39,134.21c-1.31,4.64-4.41,11.13-1.17,15.59L51,148a12.7,12.7,0,0,1-3.65-2.8l-1.56,2.09,1.8,1c1.07.59,2.6-.72,1.77-1.82a11.23,11.23,0,0,1-1.74-3.23,1.33,1.33,0,0,0-2.53,0,7.56,7.56,0,0,1-1.93,2.9l2.07.24c-1.47-1.95.23-5.11,1-7.08a51.87,51.87,0,0,1,3.19-6.4,1.31,1.31,0,0,0-2.29-1.29Z"/><path class="cls-7" d="M41.13,144.82l0,.16a1.28,1.28,0,0,0,.93.9l.19,0a1.36,1.36,0,0,0,1.47-.63,14,14,0,0,0,.8-6.39,2.29,2.29,0,0,0-.86-1.73,7.82,7.82,0,0,0-2-.67,1.32,1.32,0,0,0-2.59-.31c-1,2.75-2.07,4.5.27,6.75a15.22,15.22,0,0,0,3.56,2.68A7.56,7.56,0,0,1,45,146.85c.08.08,1.42,1.71,1.49,1.36l.9-.93-.35.14,1.28.32-.27-.21c-1.32-1-3.17.85-1.83,1.89l.27.21a1.33,1.33,0,0,0,1.28.32c2.78-1.16.46-3.74-.92-5.08-1.21-1.18-2.93-1.52-4.26-2.56-.78-.6-2-1.41-2.1-2.51,0-.79.82-2.2,1.1-2.95L39,136.53A2.39,2.39,0,0,0,40.86,139c1.12.37,1-.14,1.07,1.15a10.16,10.16,0,0,1-.44,3.88l1.47-.63-.19,0,.93.9,0-.16a1.31,1.31,0,0,0-2.52.74Z"/><path class="cls-7" d="M60.46,111.33a21,21,0,0,1-1.05,2.12.66.66,0,0,0,1.14.65,1.39,1.39,0,0,0,.25-1,.66.66,0,0,0-.67-.65c-1.6.16-3.74,0-5.21.72-1.64.84-3.14,3.29-4.28,4.7-2,2.54-5.35,5.84-5.5,9.26a26.49,26.49,0,0,0,.64,6.19c.52,2.6.81,5.18,1.19,7.8.55,3.76,1.58,8.33,4.77,10.74.54.41,1.49-.14,1-.81a18.78,18.78,0,0,0-1.8-2.2l-.91.94,3,2.52c.65.54,1.57-.4.91-.94l-3-2.52a.66.66,0,0,0-.91.94,11,11,0,0,1,1.59,1.94l1-.81c-3.19-2.4-4.1-7.39-4.54-11.15-.41-3.51-1.28-7-1.56-10.48a7.24,7.24,0,0,1,1.08-5.08c1.06-1.62,2.19-3.19,3.38-4.71a38.55,38.55,0,0,1,3.57-4.19c1.55-1.48,3.51-1.34,5.57-1.55l-.67-.65-.08.32,1.14.65A21,21,0,0,0,61.61,112c.33-.77-.81-1.42-1.14-.65Z"/><path class="cls-8" d="M76.91,95.13C58.53,106.69,41.28,122.48,35.1,144a.66.66,0,0,0,1.27.33c6.08-21.16,23.13-36.67,41.21-48,.71-.45,0-1.58-.68-1.12Z"/><path class="cls-8" d="M77.14,96a228.09,228.09,0,0,1,36.32,35.07c.54.65,1.45-.3.91-.94A228.09,228.09,0,0,0,78.05,95.08c-.66-.51-1.58.43-.91.94Z"/><path class="cls-8" d="M113.13,130.46l-4.9,17.94c-1.31,4.79-2.58,10.92-7.13,13.71a.66.66,0,0,0,.68,1.12c4.13-2.53,5.74-7.52,7-11.93,2-6.81,3.74-13.68,5.61-20.51a.66.66,0,0,0-1.27-.33Z"/><path class="cls-8" d="M35.65,144.16c12.26-1.53,24.16,4.5,35.28,8.81,5.86,2.27,11.85,4.37,17.52,7.08,4.17,2,8.61,4.56,13.31,2.84.79-.29.43-1.55-.37-1.26-5.67,2.07-11.87-2.69-16.94-4.78-5.33-2.2-10.75-4.21-16.13-6.29-10.39-4-21.27-9.13-32.69-7.71-.83.1-.82,1.42,0,1.31Z"/><path class="cls-8" d="M35.42,144.31c1,2.24,3.2,3.43,5.38,4.33A98.59,98.59,0,0,0,52,152c4.15,1.16,8.32,2.23,12.47,3.36a65.57,65.57,0,0,1,11.8,4.78c6.28,3.09,13.4,5.6,20.5,5,1.37-.11,5.86-.26,6.1-2.23.15-1.24-1.43-1.7-2.28-1.13-.7.47,0,1.59.68,1.12-2,1.36-6,1.11-8.38.93a36.64,36.64,0,0,1-8.48-1.75c-5.41-1.75-10.18-4.89-15.53-6.76-5.7-2-11.71-3.24-17.52-4.87-4.34-1.22-12.68-2.18-14.78-6.85-.35-.77-1.47-.08-1.12.68Z"/><path class="cls-10" d="M184.08,197.7a3.29,3.29,0,0,0,.54,1.62,1.76,1.76,0,0,0,2.1.61,1.5,1.5,0,0,0,1-1.82,2.7,2.7,0,0,0-2-1.65,6.59,6.59,0,0,0-1.15-.13c-.06,0-.54,0-.22,0-.27,0-.05-.06.06,0a1.82,1.82,0,0,0-2.37,0,1.46,1.46,0,0,0,0,2.17,3.35,3.35,0,0,0,2.12.82c.24,0,.5,0,.74,0-.2,0-.08,0,0,0a.73.73,0,0,1-.43-.49l3.07-1.21c-.17-.25-.09-.17-.08-.08a1.64,1.64,0,0,0-1.68-1.52c-.84,0-1.76.72-1.68,1.55Z"/><path class="cls-11" d="M182.09,197.59c.64.33,1.25.71,1.88,1.05s1.46.52,1.76,1l.83-.66a1.78,1.78,0,0,1-.42-1.84c.11-.37-.33-.71-.71-.58s-1.41.28-1.62.79.22.87.57,1.11c.56.39,1.3-.36.74-.76a.64.64,0,0,1-.25-.22l-.14.37c-.14.14.28-.08.36-.11l.69-.22-.71-.58a2.75,2.75,0,0,0,.76,2.8c.44.45,1.11-.19.83-.66s-1.1-.8-1.72-1.12c-.8-.4-1.54-.88-2.33-1.29a.52.52,0,1,0-.51.9Z"/><path class="cls-9" d="M179.34,185c9.65,0,9.67-15,0-15s-9.67,15,0,15Z"/><path class="cls-11" d="M159.39,188.65c2.3,1.6,5.1,2,7.82,2.74,1.66.43,4.9,1.05,6.12,1.91,2.86,2,6.71,2.49,9.5-.09,2.31-2.14,2.88-6.67,0-8.68a34.5,34.5,0,0,0-9.09-4.11c-2.44-.82-5.52-1-7.57-2.42-2.88-2-7.52-.33-9.19,2.29-2,3.19-.47,6.37,2.41,8.38Z"/><path class="cls-11" d="M158.85,189.19c6.43,0,6.45-10,0-10s-6.45,10,0,10Z"/><path class="cls-11" d="M165.84,191.8c4.65,2.53,9.87,4.41,15.39,3.83,5.13-.54,9.38-3.44,13.9-5.53,9.33-4.31,18.83-7.38,27.11-13.4,2.85-2.08,2.35-6.56,0-8.68-2.82-2.55-6.63-2-9.5.09-6.23,4.54-14,6.9-21.08,10-3.5,1.52-6.84,3.65-10.4,5-3,1.14-6.1-.57-8.65-2-7.42-4-14.17,6.65-6.77,10.67Z"/><path class="cls-11" d="M182.63,199.39c12.87,0,12.89-20,0-20s-12.89,20,0,20Z"/><path class="cls-11" d="M202.3,168.37c-3.14,1.86-6.28,3.72-9.44,5.53a10.09,10.09,0,0,1-3.22,1.53,16.18,16.18,0,0,1-4.12-.41c-7.74-1.07-15-3-22.92-1.71-6.58,1.11-6.22,10.61,0,11.84l1,.2a7.38,7.38,0,0,0,7.58-2.89l.38-.49-4,2.86c-.94.28,1,.11,1.34.13l2.77.2V172.89l-.82,0,3.39.81c-4.21-2.35-7.57-3.5-11.87-.16a5.73,5.73,0,0,0-1.39,6.72c1.18,2.44,3.35,3.4,6.14,3.71a142.65,142.65,0,0,0,25.07.59c7.19-.46,9.55-10.57,1.78-12.07-5.61-1.09-10.54-1.36-15.85.92-7.12,3.06-2,12.81,5.18,11.17L198.69,181a12.44,12.44,0,0,1,5.4-.5,33.73,33.73,0,0,0,7.66,0c3-.34,5.63-1.74,6.47-4.57a5.92,5.92,0,0,0-3.09-6.9,41.91,41.91,0,0,0-5.88-2.07L207.47,179l8,.41a6.58,6.58,0,0,0,6.71-6.2c0-3.51-3.08-5.89-6.72-6.07l-8-.41c-7.74-.4-8.85,10.22-1.78,12.07a18.59,18.59,0,0,1,2.68.87l3.38-11.47a30.31,30.31,0,0,1-7.19,0,22.63,22.63,0,0,0-8.21.69l-16.61,3.83,5.18,11.17c1.48-.63,4.06.13,5.51.42l1.78-12.07a142.65,142.65,0,0,1-25.07-.59l4.75,10.43.45-.35-4.75,1.84q-3.55-1.39-1.54-.16a8.61,8.61,0,0,0,1.44.9,9.67,9.67,0,0,0,4.21.82,6.6,6.6,0,0,0,6.71-6.2c0-3.56-3.09-5.81-6.72-6.07-5-.36-8.83-.66-12.07,3.49l7.58-2.89-1-.2v11.84c3.49-.59,7.14.34,10.53.94a103.91,103.91,0,0,0,11.63,1.58c7.75.48,14.57-5.08,20.74-8.73,7.27-4.3.53-14.87-6.78-10.54Z"/><path class="cls-12" d="M244.25,181.65c-.72.34-1.75-.29-1.21-1,.08-.11.16-.22.22-.33-.3.05-.59.12-.89.16a.83.83,0,0,1-.91-1,2.42,2.42,0,0,1,1.74-1.77c-.49-.13-1-.27-1.46-.45-1.05-.39-.23-1.82.81-1.44a18.1,18.1,0,0,0,2.81.73,7.45,7.45,0,0,0-.24-1.34l-.11-.33a6.35,6.35,0,0,0-3.26-6.65,6.67,6.67,0,0,0-4.36-.7,13,13,0,0,0-6.39-.23c-1,.23-2,1-3,1.2-1.69,0-3.72-.68-5.41-.77-2.67-.15-6,2.07-6.47,4.57a10.19,10.19,0,0,1-4.59,7.14c-3.45,2.35-7.49,3.93-11.28,5.73-3.64,1.73-8.89,4-11,7.45a6.3,6.3,0,0,0-1.44,1c-2.75,2.54-2.33,6.15,0,8.68s4.83,4.58,8.76,4.68a6.17,6.17,0,0,0,3.2-.78,7.76,7.76,0,0,0,2-.3c.87-.07,1.91-.15,1.81-.13a26.49,26.49,0,0,0,3.38-1.29q3.88-1.52,7.67-3.21c3.58-1.58,7.13-3.22,10.76-4.68a8.11,8.11,0,0,0,1.7-.13,23.68,23.68,0,0,0,13.61-7.52,6,6,0,0,0,2.77-3.85,5.86,5.86,0,0,0,.22-1.06,5.48,5.48,0,0,0,0-1.31l.09-.12C243.9,182.28,244.08,182,244.25,181.65Zm-16.06-13.14h-.11C228.3,168.49,228.57,168.49,228.19,168.51Z"/><path class="cls-10" d="M196,205l1.16.25L196,207.93a7.07,7.07,0,0,0,2.53-.26,1.56,1.56,0,0,0,1.17-1.9,1.71,1.71,0,0,0-2.07-1.05l-.44.11-.3.05q.26,0,.07,0c-.33,0-.65,0-1,0a1.69,1.69,0,0,0-1.53,1,1.42,1.42,0,0,0,.35,1.67,2.49,2.49,0,0,0,2.11.5,1.54,1.54,0,0,0,1.17-1.9A1.74,1.74,0,0,0,196,205Z"/><path class="cls-12" d="M192.22,193.8c6.2-4.72,13.44-8.11,20.59-11.43,5.52-2.57,10.92-5.29,14.39-10.16,1.08-1.52-1.28-3-2.64-1.83-7,5.89-15.47,10.95-24.61,13.39-3.09.82-6.32.49-8.44,3.13-1.62,2-1.68,4.72-1.92,7.1-.2,2,3.16,1.92,3.36,0,.32-3.18.39-5.92,4.4-6.63A57.71,57.71,0,0,0,208,184.21a66.85,66.85,0,0,0,19-11.69l-2.64-1.83c-3.65,5.12-10,7.53-15.74,10.24-6.57,3.11-13,6.38-18.72,10.73-1.67,1.27.72,3.41,2.37,2.15Z"/><path class="cls-7" d="M204.81,189.55l-1.25-.09.45,3a32.45,32.45,0,0,0,9.34-3.51,1.52,1.52,0,0,0-.85-2.85,37.41,37.41,0,0,0-8,1.65,1.54,1.54,0,1,0,.89,3,52.31,52.31,0,0,0,8.12-3.28c3.39-1.58,6.59-1.2,10.23-1.5l-.45-3A130.15,130.15,0,0,0,208.37,188c-1.88.77-.42,3.06,1.29,2.79l7.74-1.22-1.29-2.79a27.49,27.49,0,0,1-6,2.07c-1.78.37-3.73.21-5.47.66-2.68.7-3.89,4.19-5.13,6.18l3.13.74.92-1.72-2.87-1.06A19.78,19.78,0,0,1,196,204.37l2.9,1.52,1.82-2.59-2.9-1.52a24.12,24.12,0,0,0-1.7,4.58,1.65,1.65,0,0,0,2.47,1.71c2.11-1.15,5.59-2.14,6.4-4.36.55-1.52.55-3.32,1-4.89a30.22,30.22,0,0,1,2.43-5.65,1.63,1.63,0,0,0-2.64-1.83,24.24,24.24,0,0,0-7.07,11.3c-.3,1,.54,1.84,1.62,1.93a26,26,0,0,0,15.39-3.68c2.8-1.59,5.68-2.1,8.71-3.12,2.73-.92,4.48-2.69,6.8-4.21,3.76-2.45,9.65-3.1,12-7.14,1.24-2.14.27-5.05.67-7.42.46-2.75,1.19-5.35,1-8.15-.11-1.62-2.13-1.94-3.13-.74-5.86,7-15.18,10.39-23.92,13.44-1.62.57-1.58,3.25.45,3l9-1-.85-2.85c-6.29,4.38-14.48,5.05-21.17,8.77-1.73,1-.51,3.07,1.29,2.79a20,20,0,0,1,3.77-.21l-1.19-2.61-3.08,2.75c-1.26,1.13.06,2.88,1.63,2.55l7.93-1.64-1.29-2.79-5,2.77a1.52,1.52,0,0,0,.85,2.85l1.32,0-1.19-2.61a24.47,24.47,0,0,1-4.21,2.81,1.55,1.55,0,0,0,1.29,2.79c3-1,4.42-4.17,2.41-6.63a1.78,1.78,0,0,0-3.07.4l-2.4,5.81c-.48,1.16.93,2.13,2.07,1.87q6.81-1.56,13.39-3.76c1.68-.56,1.56-3.14-.45-3l-5.84.37.45,3a55.6,55.6,0,0,0,12.35-4.81,50.94,50.94,0,0,0,5.32-3.33c2.22-1.58,4.33-3.65,7.32-3.73l-.85-2.85-3.8,2.17,2.3,2.08a29.8,29.8,0,0,0,5.1-10.38l-3.24-.78a26.45,26.45,0,0,0-.13,8l3.3-.44a10.58,10.58,0,0,1,.51-7.75,1.61,1.61,0,0,0-2.3-2.08c-4.53,2.47-6.64,7.06-5.5,11.72.47,1.93,3.66,1.07,3.24-.85l-1.3-5.87c-.28-1.27-2.43-1.49-3.07-.34a24.85,24.85,0,0,0-2.48,6.32l3.24,0-.92-4.44c-.34-1.64-2.7-1.23-3.24,0a57,57,0,0,1-2.8,5.62l3.07.34a9,9,0,0,1-.08-3.14c.23-1.84-2.68-1.88-3.3-.38l-2.15,5.27,3.3.38.17-2c.15-1.71-2.94-2.08-3.3-.38l-.4,1.23,1.45-.77A19.94,19.94,0,0,0,212.37,192c-1.47,1.14.43,3.29,2,2.39a36.5,36.5,0,0,1,10.32-3.89l-1.29-2.79a33.56,33.56,0,0,1-7.87,3.21c-1.75.47-1.49,3.22.45,3l8.33-.88-.85-2.85a31,31,0,0,1-9.21,2.61l.45,3c3.37-1,6.86-2,9.65-4.13s4.29-5.19,5.91-8.18c1-1.77-1.93-3.3-2.9-1.52-1.41,2.59-2.57,5.39-5.07,7.28s-5.52,2.73-8.48,3.6c-1.71.5-1.51,3.25.45,3a36.53,36.53,0,0,0,10.91-3,1.52,1.52,0,0,0-.85-2.85l-8.33.88.45,3a37.22,37.22,0,0,0,8.67-3.52c1.65-.93.55-3.19-1.29-2.79a39.42,39.42,0,0,0-11.13,4.21l2,2.39a16.35,16.35,0,0,1,11-3.35,1.69,1.69,0,0,0,1.45-.77,6.28,6.28,0,0,0,.74-2l-3.3-.38-.17,2c-.16,1.84,2.68,1.89,3.3.38l2.15-5.27-3.3-.38a11.88,11.88,0,0,0,.2,4c.26,1.29,2.43,1.47,3.07.34a64.28,64.28,0,0,0,3.14-6.36l-3.24,0,.92,4.44c.31,1.49,2.89,1.41,3.24,0a21.87,21.87,0,0,1,2.14-5.59l-3.07-.34,1.3,5.87,3.24-.85a7.29,7.29,0,0,1,4-8.24l-2.3-2.08a13.71,13.71,0,0,0-.84,10.12c.48,1.61,3.55,1.32,3.3-.44a23.8,23.8,0,0,1,0-7.2c.3-1.9-2.71-2.76-3.24-.78a27.59,27.59,0,0,1-4.76,9.65c-1,1.29.92,2.86,2.3,2.08l3.8-2.17a1.52,1.52,0,0,0-.85-2.85c-4.74.13-7.79,3.5-11.47,5.82A51.38,51.38,0,0,1,213.07,196a1.53,1.53,0,0,0,.45,3l5.84-.37-.45-3q-6.59,2.21-13.39,3.76l2.07,1.87,2.4-5.81-3.07.4q1.08,1.51-.41,2.1l1.29,2.79a28.51,28.51,0,0,0,4.88-3.3c1.12-.94.2-2.59-1.19-2.61l-1.32,0,.85,2.85,5-2.77c1.68-.92.54-3.17-1.29-2.79l-7.93,1.64,1.63,2.55,3.08-2.75a1.53,1.53,0,0,0-1.19-2.61,25.34,25.34,0,0,0-4.66.33l1.29,2.79c6.7-3.71,14.86-4.37,21.17-8.77,1.15-.8,1-3.07-.85-2.85l-9,1,.45,3c9.68-3.39,19.45-7.1,25.92-14.87l-3.13-.74c.18,2.69-.54,5.21-1,7.85-.35,2.09.53,5.35-.86,7-2.43,2.82-7.54,3.4-10.63,5.52-2.35,1.61-4.19,3.26-7.12,4.06a33.81,33.81,0,0,0-6.13,2c-2.45,1.2-4.5,2.7-7.2,3.49a22.6,22.6,0,0,1-8.28.75l1.62,1.93a21.15,21.15,0,0,1,6.2-9.93l-2.64-1.83a34,34,0,0,0-3.91,12.09l.83-1.33-5.57,3,2.47,1.71a19.66,19.66,0,0,1,1.36-3.85,1.64,1.64,0,0,0-2.9-1.52L196,204.37c-1.2,1.71,1.63,3.06,2.9,1.52A22.38,22.38,0,0,0,204,193.63c.15-1.4-1.89-1.9-2.87-1.06a5,5,0,0,0-1.91,3.9c-.08,1.54,2.32,2,3.13.74a22.7,22.7,0,0,1,2.5-4c1-1,2.38-.81,3.83-1a31.38,31.38,0,0,0,9.1-2.77c1.83-.86.45-3.07-1.29-2.79l-7.74,1.22,1.29,2.79a123.17,123.17,0,0,1,14.14-4.76,1.53,1.53,0,0,0-.45-3c-3.14.26-6.42-.16-9.45.82-3.39,1.1-6.28,3.1-9.78,4.08l.89,3a33.21,33.21,0,0,1,7.09-1.53l-.85-2.85a29.51,29.51,0,0,1-8.54,3.19c-2,.41-1.33,2.88.45,3l1.25.09c2.15.16,2.14-2.91,0-3.07Z"/><path class="cls-8" d="M240.53,170.18c-8.64,7-19.83,10.18-30.2,14.38a75,75,0,0,0-7.65,3.35c-1.88,1-2.25,2-2.89,3.91-1.94,5.75-3.79,11.53-5.69,17.29-.22.68.61,1.15,1.23.85,7.91-3.77,16.18-6.54,24.45-9.53a98,98,0,0,0,21.7-11.2c2.25-1.51,3.26-2.21,3.12-4.82-.23-4.26.64-8.26,1.31-12.46.19-1.22,1.24-4.19-.74-4.72-1.83-.49-5,2.81-6.17,3.73-.82.66.38,1.73,1.19,1.07.52-.42,4.16-3.35,4.36-3.16.6.56-.4,3.55-.54,4.34a61.5,61.5,0,0,0-1.19,7.9c-.06,1.34.34,2.78.2,4.09-.2,1.81-2.36,2.72-3.83,3.69-2.76,1.83-5.56,3.62-8.5,5.19-11.39,6.07-24.49,9-36.2,14.57l1.23.85L201,193.36a7,7,0,0,1,3.58-4.64,32.76,32.76,0,0,1,3.26-1.46c2.73-1.18,5.5-2.26,8.28-3.32,9-3.42,18.18-6.69,25.57-12.69.81-.66-.38-1.73-1.19-1.07Z"/><path class="cls-8" d="M244,166.79c-13.31,1.42-26.62-1.35-39.91.11-6,.66-11.89,2.15-17.86,3.12a98.83,98.83,0,0,1-21.57,1.09.77.77,0,1,0,0,1.53,99.8,99.8,0,0,0,19.49-.77c6.69-.93,13.22-2.7,19.93-3.44,13.3-1.46,26.61,1.32,39.91-.11,1.06-.11,1.07-1.65,0-1.53Z"/><path class="cls-8" d="M163,171.47a25.41,25.41,0,0,0-5.87,7.35.76.76,0,0,0,.5,1.12,119.56,119.56,0,0,0,22,5.93c7.39,1.24,15.12,1.16,22.3,3.26a.78.78,0,1,0,.45-1.48c-7.19-2.1-14.91-2-22.3-3.26a119.55,119.55,0,0,1-22-5.93l.5,1.12a24.32,24.32,0,0,1,5.61-7c.79-.69-.4-1.76-1.19-1.07Z"/><path class="cls-8" d="M156.77,179.3c-.87,1.12-3.64,3.46-3.47,5,.14,1.2,1.65,2,2.53,2.67a47.34,47.34,0,0,0,11.76,7.15c4.75,1.87,9.85,2.94,14.45,5.13a31.43,31.43,0,0,1,11.87,9.69c.6.81,2.05,0,1.45-.79-4.52-6.12-10.89-10-18.42-12.54-4.62-1.53-9.33-2.79-13.5-5.23a55.69,55.69,0,0,1-6-4.17l-1.26-1q-1.36-.45-.53-1.45c.15-1.28,1.78-2.69,2.57-3.7.63-.81-.82-1.56-1.45-.76Z"/><path class="cls-7" d="M209.23,194.49c4.13.45,8.62-1.11,12.61-2a45.4,45.4,0,0,0,6.47-1.68c1.44-.56,2.72-1.91,4.24-2.16,2.77-.45,2.58-4.49-.23-4s-5,2.29-7.85,3.09c-2.11.6-4.3,1-6.45,1.48-2.31.5-5.5,1.6-7.84,1.35-2.8-.3-3.77,3.64-1,3.95Z"/><path class="cls-7" d="M243.87,169.27l-.17.27c-.36.56.62,1,1,.46l.17-.27c.36-.56-.62-1-1-.46Z"/><path class="cls-11" d="M163.48,184.11a1.45,1.45,0,0,1-.75-.26,1,1,0,0,0-1.37,1.12q.26.82.55,1.62l1.37-1.12-.08,0c-.51-.55-1.62-.49-1.78.34a12.8,12.8,0,0,1-.11,1.32l.41-.57c.45-.27.05-.5-.37-.65a1.72,1.72,0,0,0-1-.05,1.19,1.19,0,0,0-.8,1.61c.35.85,1.57,1.39,2.32,1.91a18.3,18.3,0,0,0,3,1.74c.83.37,1.91-.6,1.26-1.32a13,13,0,0,0-5.51-3.66c-1.18-.4-2.07,1.22-.88,1.62a11.11,11.11,0,0,1,4.76,3.06l1.26-1.32a14.74,14.74,0,0,1-2.43-1.35c-.63-.43-1.73-.94-2.12-1.59l.15.69.06-.25-.41.57.19-.1-.75.14c.33,0,.68.57,1.05.67a1.54,1.54,0,0,0,1.11-.1c.87-.45.57-1.26.71-2l-1.78.34a2.66,2.66,0,0,0,.83.64,1,1,0,0,0,1.37-1.12q-.29-.81-.55-1.62l-1.37,1.12a3.81,3.81,0,0,0,1.23.41.91.91,0,1,0,.4-1.77Z"/><path class="cls-6" d="M117.23,176.42c0,4.85,3.5,8.95,8.54,10.15l3.39-12,1.29.6,1.77,2.72v.43l-6.62,6.31h.53l-3.4-.8q-2.46-3.48-1.64-1.4a6.7,6.7,0,0,0,.44,1.22,10.6,10.6,0,0,0,2.63,3.86c2.3,2.12,5,2.84,8.13,3.17l-3.56-11.52q2.34-.32.52-.2-.8,0-1.59,0a12.69,12.69,0,0,0-4.9,1.16c-1.81.86-3.18,2.31-4.65,2.6.36-.07-1.68.07-2.14,0q.69.06-.6-.13-.79-.16-1.56-.39a28.22,28.22,0,0,1-5.4-2.69,83.17,83.17,0,0,0-13.63-6.86,135.77,135.77,0,0,0-14.46-4.18l-1.6,12.23c13.51-.76,26,5.33,39.21,7,2.73.35,5.3-.13,7-2.33a5.81,5.81,0,0,0,.42-6.91c-4.13-5.53-11-7.56-17.84-8.92a168.22,168.22,0,0,0-21.82-2.41c-7-.46-8.57,8.7-3.22,11.62s11.7,3.76,17.87,3.45,12.37-1.95,18.47-1.22l1.6-12.23c-4.1.21-8-1.2-12.1-1.85a31.19,31.19,0,0,0-7-.49c-2.76.19-5.14,1.17-7.8,1.63-4.15.71-8.7-1-12.88-1.11a19.15,19.15,0,0,0-13.44,4.51c-3.86,3.4-1.46,9,3.12,10.34q8.8,2.61,17.48,5.53A59.75,59.75,0,0,1,94.91,190c2.39,1.16,4.2,2.9,6.35,4.38,8.76,6,21.83,4.65,29.21-2.73,5.87-5.88-3.73-14.53-9.62-8.64-2.12,2.12-4.46,2.81-7.6,2.74a8.13,8.13,0,0,1-3.47-1c-1.68-.89-3.69-2.84-5.58-4.07-4.28-2.79-9.53-4.24-14.42-5.87q-8-2.66-16-5l3.12,10.34a4.94,4.94,0,0,1,2.39-.71,16.7,16.7,0,0,1,4.2.26c5,.75,9.8,1.43,14.82.1a17.39,17.39,0,0,1,9.68-.19c4.15.9,8.35,1.88,12.65,1.65,3.32-.17,6.16-2.36,6.51-5.48.31-2.75-1.56-6.34-4.91-6.74-6.62-.79-12.8,0-19.38.64-4.76.43-9.56.61-13.73-1.67l-3.22,11.62a154,154,0,0,1,16.32,1.66,66.85,66.85,0,0,1,8.09,1.89,10.13,10.13,0,0,1,2,.76,5.22,5.22,0,0,1,1.56,1l7.44-9.24c-14.43-1.85-27.94-8.25-42.78-7.41-7.43.42-9.11,10.38-1.6,12.23,5.06,1.25,10.25,2.42,15,4.45s9,5.27,13.73,7.47c5,2.31,10.66,3.49,16.19,2.21a17.86,17.86,0,0,0,4.12-1.56c.67-.35,2.71-2,3-2-.62-.09-1.63.21-.31.29a12.94,12.94,0,0,0,1.58,0,12.12,12.12,0,0,0,5.45-1.57,6.16,6.16,0,0,0,3-7.06c-.89-2.85-3.56-4.15-6.54-4.46a2.49,2.49,0,0,1,1.41.33q1,1.69.46.35a9.27,9.27,0,0,0-1.27-2.89,8.27,8.27,0,0,0-7.31-3.84c-3.59,0-6.73,3-6.62,6.31a8.46,8.46,0,0,0,7,8.09c8.42,1.61,11.8-10,3.39-12a2.3,2.3,0,0,1,1.49,1.68c0-8-13.38-7.8-13.42.2Z"/><path class="cls-6" d="M66.74,169.59l-.27.1,1.31.3,0,0-.33,1.21c.61-.59,2.49-.63,3.32-.78q2.34-.41,4.69-.7c2.71-.33,5.44-.52,8.18-.61a145.3,145.3,0,0,1,15.43.46c5.14.39,10.42.69,15.49,1.55,4.41.74,8.22,2.64,12.46.33l-1.63-.17,6.86,6.24,3,2.77c.38.35,3.55,3.78,3.89,3.76l1.31.89a2,2,0,0,1,1-2.32A1.22,1.22,0,0,0,142,181l-.2-.29a1.37,1.37,0,0,0-1.17-.6c-2.18.12-2.88,2-3.7,3.63a47.76,47.76,0,0,0-3.05,7.65l2.64.29a3.66,3.66,0,0,1,1.38-2.85l-2.26-1.18a11,11,0,0,1-4.45,6.27l2,1a7.08,7.08,0,0,1,.7-3.75l-2.47-.92c-.39,1.34-1,3.56-2.86,3.66l1.31.89.39-1.13-2.3-.84c-.4,3.58-5.06,3.88-8.05,3.85l.71,2.3c2.69-1.18,5.8-2.16,8.3-3.66a3.47,3.47,0,0,0,1.38-1.24c.26-.56.64-.78-.21-.87s-1.13,1.31-1.71,2a1.23,1.23,0,0,0,.62,2.07,3.82,3.82,0,0,0,2.25,0,1.22,1.22,0,0,0,.56-2.09c-2.1-2-4.62-.94-6.8.33a16.35,16.35,0,0,1-12.36,1.78,1.41,1.41,0,0,0-1.51.59,8.24,8.24,0,0,1-2.43,2.89c-1.17.91.4,2.7,1.66,1.93a27.09,27.09,0,0,1,7.17-3.12l-1.07-2.26-3.32,2a1.22,1.22,0,0,0,.35,2.27,3.94,3.94,0,0,0,4.28-1.8c.8-1.27-1-2.39-2.13-1.47a13.47,13.47,0,0,1-6.84,3c-1.7.26-.94,2.64.75,2.39a16,16,0,0,0,8-3.63l-2.13-1.47-1.27.61.35,2.27,3.32-2a1.25,1.25,0,0,0-1.07-2.26,29.57,29.57,0,0,0-7.8,3.38l1.66,1.93a9.8,9.8,0,0,0,2.84-3.4l-1.51.59a19.67,19.67,0,0,0,8.69.2,18.16,18.16,0,0,0,3.92-1.29c1.24-.57,4-2.93,5.35-1.64l.56-2.09-.83-.06.62,2.07c1-1.22,3.87-7-.21-6.52-1.68.21-1.5,1.93-2.56,2.79s-2.75,1.22-4,1.75l-4.35,1.9c-1.27.56-.52,2.29.71,2.3,4.79,0,10.13-1.24,10.7-6.38.12-1.07-1.58-1.61-2.3-.84a3.67,3.67,0,0,0-1,3.56,1.33,1.33,0,0,0,1.31.89c3.27-.18,4.65-2.9,5.42-5.53.39-1.32-1.83-2.23-2.47-.92a9.68,9.68,0,0,0-1,5,1.36,1.36,0,0,0,2,1,13.69,13.69,0,0,0,5.66-7.77c.34-1.23-1.3-2-2.26-1.18a5.91,5.91,0,0,0-2.14,4.62c0,1.42,2.23,1.62,2.64.29a45.55,45.55,0,0,1,1.74-4.8c.28-.66,1.72-4.57,2.45-4.61l-1.17-.6.2.29.46-1.71a4.66,4.66,0,0,0-2.18,5.14,1.33,1.33,0,0,0,1.31.89,2.59,2.59,0,0,0,2.54-1.75c.49-1.59-.83-2.84-1.93-3.86-4.15-3.85-8.38-7.63-12.57-11.44a1.46,1.46,0,0,0-1.63-.17c-3.26,1.78-6.57.08-9.93-.53-2.79-.5-5.63-.72-8.46-1-6.49-.62-13-1.19-19.53-1.23a97.41,97.41,0,0,0-18.2,1.55c-1.39.25-4.25.4-4.38,2.23A1.7,1.7,0,0,0,67.49,172a1.25,1.25,0,1,0-.75-2.39Z"/><path class="cls-10" d="M112.39,195.12c-.5,2.5-3.29,5.46-5.76,6.52-1.57.67-.17,2.79,1.39,2.13a12.37,12.37,0,0,0,4.29-3.47,10,10,0,0,0,2.68-4.55c.32-1.57-2.28-2.2-2.6-.62Z"/><path class="cls-10" d="M64.25,170.3A18.71,18.71,0,0,0,69,178.67c2.58,2.59,7,3.61,10.22,5.31l1.32-2.17c-4.34-2.12-8.78-4.13-13-6.45-3.46-1.9-6.35-4.77-10.2-6-1.56-.51-2.11,1.53-1,2.29,2.29,1.56,6.14,1.3,7.89,3.41.72.87,2.62.7,2.49-.66a5.64,5.64,0,0,0-5.9-5.25l.39,2.43c2.86-.5,4.91,2.64,6.91,4.17s3.9,2.83,5.93,4.14a89.15,89.15,0,0,0,13.5,7.07c4.66,2,9.47,3.62,14,5.8,3.86,1.84,7.8,5.18,12.43,3.94a1.25,1.25,0,1,0-.75-2.39c-2.88.77-5.47-1.18-7.83-2.44a78.7,78.7,0,0,0-7.31-3.37c-4.8-2-9.7-3.73-14.34-6a85.23,85.23,0,0,1-13.06-8A32,32,0,0,1,68,172.26a23,23,0,0,0-2.52-2.61c-1.48-1-3.27-.78-5-.48-1.52.26-1.08,2.45.39,2.43a3,3,0,0,1,3.18,2.81l2.49-.66c-2.31-2.78-6-2.33-8.87-4.28l-1,2.29c3.77,1.22,6.91,4.39,10.38,6.22,4,2.11,8.12,4,12.18,6,1.53.75,2.83-1.38,1.32-2.17-2.81-1.46-6.61-2.36-9-4.33a15.89,15.89,0,0,1-4.73-7.89c-.37-1.56-2.94-.86-2.58.7Z"/><path class="cls-7" d="M53.61,172.1l-.72,3.52,2.45-.33L55,174.4c0-1.63-2.52-1.52-2.68,0-.24,2.27-.5,4.54-.72,6.81-.13,1.3-.34,2.57.69,3.63a7.07,7.07,0,0,0,3.52,1.43c2.18.52,4.37,1,6.56,1.51l0-2.4-1.54.08a1.25,1.25,0,1,0-.68,2.41,29.94,29.94,0,0,1,9.09,4.66l1.28-2.1-6.43-2.19-.68,2.41a37.82,37.82,0,0,1,11.18,3.64l1.32-2.17-2.65-1.29a1.31,1.31,0,0,0-1.81,1.73c1.36,2.69,6.37,3.42,9.06,4.37l13.75,4.82.68-2.41-7-1.65,0,2.4a7.61,7.61,0,0,1,5.15.84,20.77,20.77,0,0,0,2.82,1.83,6,6,0,0,0,2.9.22,8.94,8.94,0,0,1,5.45,1l1.32-2.17a7,7,0,0,0-6.29-.11c-1.15.5-.61,1.95.35,2.27a3.47,3.47,0,0,0,2.91-.26,1.2,1.2,0,0,0,0-2.15,6.81,6.81,0,0,0-1.32-.48l.35,2.27c1.65-1.21,3,1.11,4.89-.26a6,6,0,0,0,1.5-2,13,13,0,0,1,3.45-3.83,1.2,1.2,0,0,0-.3-1.95c-1.57-.92-4.61-2.4-6.45-1.27s-1.66,4.62-1.85,6.37c-.14,1.33,1.86,1.52,2.51.59a27.87,27.87,0,0,1,2.46-3c1.13-1.21-.67-2.84-1.92-1.73-3.29,2.91-10,4.81-13.81,1.59a11.6,11.6,0,0,0-4.34-2.64,35.92,35.92,0,0,1-6.34-2.63c-4-2.18-7.68-4.4-12.08-5.82A124.88,124.88,0,0,1,54,181.24a1.27,1.27,0,1,0-1.32,2.17A61.87,61.87,0,0,0,64.39,189a59.64,59.64,0,0,0,6.11,1.79c2.28.54,4.63.76,6.64,2l1-2.29-.83-.22a1.28,1.28,0,0,0-1.49,1.85,4.46,4.46,0,0,0,2.35,1.71c2.27,1,4.65,1.72,7,2.57A70.81,70.81,0,0,0,96.5,200c2.87.54,5.7.68,7.64-1.66,1.2-1.44,2.83-4.23.6-5.51-1.06-.61-2.11-.27-3.27-.18-2.46.18-4.45-.73-6.7-1.54a54.69,54.69,0,0,0-10.86-2.45c-7.31-1-15-1.5-21.4-5.35-1.72-1-5.6-2.75-6.18-4.65-.14-.47-.26-2.89.12-3.12s2.74.88,3.17,1.06c2,.84,3.91,2,6,2.84s4.13.54,5.93,1.55l1-2.29c-4.21-1.08-8.61-2.16-13-1.58-1.25.16-2.91.34-3.79,1.31-1,1.14,0,1.85-.22,3l.92-.88c.09,0,.4-2.29.78-2.59l-1.3.34a12.11,12.11,0,0,1,2.08.8c.93.41,2.45-.34,2-1.43A5.49,5.49,0,0,0,58,175.21l-1.28,2.1c1.8.55,5.57,1.74,4.36,4.24l1.83-.47-3.82-1.78-1.32,2.17,2.55,1.06c1.1.46,2.68-.62,1.81-1.73l-1.22-1.56L59.12,181a73.38,73.38,0,0,0,23.07,9.36c3.8.86,7.83,1.61,11.13,3.67,1.41.88,2.56,2.39,4.26,2.84a9.21,9.21,0,0,0,4.44-.3L100.5,196a18.91,18.91,0,0,1-3.53-.4q-1.5-.38-3-.8c-2-.56-3.94-1.17-5.89-1.8-3.78-1.21-7.54-2.47-11.3-3.71l-.32,2.45c5.26-.3,10.14,1.24,15,2.86,1.79.59,4.1,1.8,6,1.8s3-1.54,4.22-2.62a1.18,1.18,0,0,0,0-1.76l-.6-.46-.24,2,.16-.11L99.19,193l.17.19.19-1.51c.53-.43-.76-.27-1.38-.41a18.34,18.34,0,0,1-1.77-.54,46.54,46.54,0,0,0-4.93-1.46c-3.25-.7-6.59-1-9.87-1.53-6.49-1.1-11.92-4.77-18.36-5.89-1.13-.2-2.11.87-1.49,1.85a7.26,7.26,0,0,0,4.18,3.12,1.31,1.31,0,0,0,1.63-1.55,29.79,29.79,0,0,0-2.15-6.32l-2.44,1c3,4.48,10,5.23,15,6.6a190.56,190.56,0,0,1,22,7.23l1-2.29c-6.9-1.23-14.57-2-20.26-6.09a63.05,63.05,0,0,0-15.45-8.18l-.68,2.41,9.41,3.18.32-2.45a31.5,31.5,0,0,1-6.79-1.06l.62,2.07c.68-.72,3.39,0,4.25.24a12.37,12.37,0,0,1,4.83,2.68,17.1,17.1,0,0,0,6.94,3,1.27,1.27,0,0,0,1.28-2.1,9.65,9.65,0,0,0-6.53-2.76c-1.73-.09-1.68,2.39,0,2.48A6.76,6.76,0,0,1,83.5,187l1.28-2.1a15,15,0,0,1-6.06-2.67,15.73,15.73,0,0,0-4-2.53c-2.18-.83-6.75-2-8.59-.09a1.22,1.22,0,0,0,.62,2.07,35,35,0,0,0,7.5,1.14c1.62.07,1.65-2,.32-2.45l-9.41-3.18c-1.63-.55-2.26,1.84-.68,2.41a56.41,56.41,0,0,1,9.08,4.17c2.73,1.57,5.09,3.58,7.78,5.18,5.34,3.18,12.75,3.84,18.86,4.93,1.4.25,2.47-1.68,1-2.29a175.56,175.56,0,0,0-18.68-6.37c-3.12-.88-6.25-1.72-9.37-2.58-2.89-.79-6.23-1.46-7.91-4-.76-1.15-3.06-.34-2.44,1A29.79,29.79,0,0,1,65,185.94l1.63-1.55a4.33,4.33,0,0,1-2.56-2l-1.49,1.85c3.87.67,7.25,2.4,10.84,3.81a44.66,44.66,0,0,0,10.35,2.5,60.33,60.33,0,0,1,11.11,2.26c1.82.61,4.87,2,6.62.58a1.17,1.17,0,0,0,.19-1.51l-.17-.19a1.43,1.43,0,0,0-1.84-.42l-.16.11a1.2,1.2,0,0,0-.24,2l.6.46,0-1.76c-.94.84-1.69,1.73-3.06,1.62a13,13,0,0,1-2.75-.87c-2-.65-4-1.34-6-1.93a33.73,33.73,0,0,0-11.6-1.62,1.24,1.24,0,0,0-.32,2.45c6.19,2,12.36,4.21,18.68,5.91,2,.53,5,1.8,7,.75a2.44,2.44,0,0,0,1-3.65,1.43,1.43,0,0,0-1.52-.55,5.5,5.5,0,0,1-3.37.13,17,17,0,0,1-2.31-1.82,19.09,19.09,0,0,0-3.87-2.07A63.1,63.1,0,0,0,82,187.72a69.74,69.74,0,0,1-21.6-8.94c-1.09-.69-2.59.74-1.81,1.73l1.22,1.56,1.81-1.73-2.55-1.06c-1.55-.65-2.88,1.44-1.32,2.17l3.82,1.78a1.42,1.42,0,0,0,1.83-.47c2-4.23-2.26-6.71-6-7.87-1.23-.38-2.34,1.34-1.28,2.1a2.77,2.77,0,0,1,1.21,1.34l2-1.43c-2.58-1.14-4-1.65-5,1.09-.67,1.76-1.28,4.55,1.45,5.07a2.24,2.24,0,0,0,2.25-.74c.57-.81-.26-1.8.21-2.47.32-.45,2.93-.43,3.45-.45a21.54,21.54,0,0,1,3.51.22,59.18,59.18,0,0,1,6.71,1.45,1.25,1.25,0,0,0,1-2.29,11.52,11.52,0,0,0-4-1.15A21,21,0,0,1,63,175.32c-1.8-.87-5.88-3.28-8-2.22s-1.71,5.24-1.2,7a3.43,3.43,0,0,0,1.82,2.07c1.71,1,3.41,2,5.09,3.05,6,3.76,13.24,4.62,20.29,5.54a73.09,73.09,0,0,1,10.59,2c1.75.5,3.39,1.22,5.11,1.78s3.28.43,5.14.61c1.17.11,1.08.46.38,1.33-1.08,1.33-2.49,1.52-4.19,1.3a34.64,34.64,0,0,1-6.34-1.62c-2.17-.72-4.31-1.54-6.45-2.33l-3.48-1.29c-1.07-.4-3.1-.76-3.71-1.7l-1.49,1.85.83.22a1.26,1.26,0,0,0,1-2.29c-3.35-2-7.92-2.24-11.67-3.43A58.69,58.69,0,0,1,54,181.24l-1.32,2.17a131,131,0,0,0,15.91,5.82c5.55,1.8,10,5.35,15.33,7.44,1,.39,2.05.67,3.08,1a9.62,9.62,0,0,1,3.4,2.24,10.37,10.37,0,0,0,5.62,2A15.5,15.5,0,0,0,107.77,198l-1.92-1.73a32.61,32.61,0,0,0-2.87,3.52l2.51.59c0-.39.23-4,.75-4.21.8-.37,2.93,1,3.54,1.32l-.3-1.95a14.9,14.9,0,0,0-2.59,2.47,14.6,14.6,0,0,0-1.07,1.51l-.4.73q-.15,1.28-.68.6c-.36,0-1.31-.74-1.87-.75a4.66,4.66,0,0,0-2.68,1.12,1.23,1.23,0,0,0,.35,2.27l.67.24,0-2.15-.85,0,.35,2.27a3.93,3.93,0,0,1,3.58.15c1.52.76,2.82-1.37,1.32-2.17a11.3,11.3,0,0,0-4.54-1.39c-.9-.07-1.76.14-2.64.11a5.64,5.64,0,0,1-3.06-1.17,10.89,10.89,0,0,0-8.16-1.68,1.23,1.23,0,0,0,0,2.4l7,1.65a1.25,1.25,0,1,0,.68-2.41l-10.8-3.79-4.91-1.72c-1.58-.55-4.7-1-5.47-2.56L71.91,193l2.65,1.29c1.53.74,2.84-1.39,1.32-2.17a40.13,40.13,0,0,0-11.82-3.88,1.25,1.25,0,1,0-.68,2.41l6.43,2.19c1.24.42,2.29-1.33,1.28-2.1A33.76,33.76,0,0,0,60.8,185.5l-.68,2.41a6,6,0,0,0,3-.1,1.23,1.23,0,0,0,0-2.4l-4.21-1c-1-.22-3.63-.41-4.28-1.06-.84-.83-.17-3.11-.06-4.11L55,174.4l-2.68,0a3.45,3.45,0,0,0,.72,2.14c.6.82,2.22.78,2.45-.33l.72-3.52c.32-1.57-2.28-2.2-2.6-.62Z"/><path class="cls-7" d="M74.89,186.54l3,1.67c1.49.82,2.8-1.35,1.32-2.17l-3-1.67c-1.49-.82-2.8,1.35-1.32,2.17Z"/><path class="cls-8" d="M54.39,170.19c-2,1-2.44,3.7-2.91,5.53a29.09,29.09,0,0,0-.81,9.35c.05.8,1.4.78,1.34,0a28.1,28.1,0,0,1,.36-7.2c.35-1.86.79-5.66,2.71-6.6.76-.37.07-1.44-.69-1.06Z"/><path class="cls-8" d="M53.81,171c3.7,3,8.43,4.64,13,6.25a161.75,161.75,0,0,1,16.89,7.53c5.52,2.68,11.33,4.78,17.09,6.95,1.53.58,3.06,1.16,4.58,1.76a23.75,23.75,0,0,1,4.49,1.84c.53.37,1.41,1.1,1.27,1.85-.09.49-1.54,1.78-2,2.31l-3.64,4.13c-.54.62.41,1.49,1,.86l3.64-4.13c.78-.89,2.13-2,2.52-3.16.52-1.55-.76-2.33-2.08-2.95-6.48-3-13.44-5.1-20-7.82-6.38-2.63-12.23-6.2-18.68-8.68-5.76-2.22-12.29-3.7-17-7.62-.64-.53-1.58.36-.94.89Z"/><path class="cls-8" d="M51.29,185.55c4.88,1.27,9.22,3.62,13.69,5.77s9.23,4.27,13.94,6.21c4.34,1.78,8.73,3.46,13.17,5s9,2.77,13.8,2.25c.85-.09.84-1.34,0-1.24-5.21.56-10-1-14.83-2.7s-9.53-3.55-14.2-5.53q-6.57-2.78-13-5.92a65.17,65.17,0,0,0-12.25-5,.63.63,0,1,0-.34,1.2Z"/><path class="cls-8" d="M55.19,170.95c11.93-1.7,24.1-4.27,36.21-4.05a269.59,269.59,0,0,1,35.77,3.27c.85.13,1.19-1.07.34-1.2a272.32,272.32,0,0,0-36.13-3.31c-12.22-.21-24.53,2.39-36.57,4.1-.85.12-.47,1.31.37,1.19Z"/><path class="cls-8" d="M127.21,170.09c4.45,3.4,7,8.46,12.55,10.53.8.3,1.13-.91.34-1.2-5.28-2-7.74-7-12-10.22-.66-.51-1.6.38-.94.89Z"/><path class="cls-8" d="M112.88,196.5c3.89-1.52,7.85-2.87,11.89-4,3.55-1,7.32-1.62,10.74-3a13.54,13.54,0,0,0,6.54-4.93c.41-.64,1.27-2,1.11-2.79-.2-1.07-1.94-1.79-2.77-2.37s-1.62.41-.94.89a9.79,9.79,0,0,1,1.48,1q1.18.33.53,1.24a2.21,2.21,0,0,1-.4,1.05,9.83,9.83,0,0,1-3.24,3.29c-2.43,1.6-5.35,2.29-8.19,3a137.38,137.38,0,0,0-17.15,5.39c-.79.31-.42,1.5.37,1.19Z"/><path class="cls-8" d="M142.14,182.4,136.22,191A17.85,17.85,0,0,1,133,195.2c-1.52,1.21-3.69,1.61-5.57,2.15l-21.49,6.23a.63.63,0,1,0,.37,1.19c8.1-2.35,16.33-4.47,24.34-7.06,2.91-.94,4.29-2.46,5.91-4.82q3.39-4.93,6.76-9.88c.46-.68-.71-1.28-1.17-.61Z"/><path class="cls-13" d="M146.89,136.07c2.56-1.37,5.11-2.91,7.79-4,.69-.29,2.84-1.36,3.57-1-.66-.28.45.9.57,1.15.31.63.49.91.08,1.54l4.89.57a7,7,0,0,0-9.11-5.13c-3.27,1-1.79,6.17,1.5,5.13,1.41-.45,2.17.09,2.49,1.5.55,2.4,3.71,2.35,4.89.57,2.25-3.4-.1-9.73-4.22-10.57-4.92-1-11.13,3.61-15.2,5.77-3,1.62-.27,6.19,2.76,4.57Z"/><path class="cls-14" d="M150.29,130.91l-3.13,1.77c-1.12.64-.09,2.35,1,1.71l3.13-1.77c1.12-.64.09-2.35-1-1.71Z"/><path class="cls-15" d="M116.3,147l-2.63,3.47,4.24,3.17c1.17-1.75,3.4-2.34,5.29-2.94,2.42-.77,2.58-4.56-.08-5.15l-4.37-1,1.65,3.9a31,31,0,0,1,5.08-5.48c2-1.86,4.17-3.56,7.09-3,3.37.63,4.72-4.54,1.34-5.17-7.64-1.42-14.23,5.13-18.16,11a2.69,2.69,0,0,0,1.65,3.9l4.37,1-.08-5.15c-3.4,1.08-6.4,2.4-8.45,5.45-1.67,2.49,2.41,5.6,4.24,3.17l2.63-3.47c2-2.71-1.76-6.46-3.83-3.72Z"/><path class="cls-16" d="M118,145.22a18.27,18.27,0,0,1,16.41-8c1.28.11,1.24-1.89,0-2a20.22,20.22,0,0,0-18.12,9c-.71,1.08,1,2.05,1.74,1Z"/><path class="cls-16" d="M116.1,144.63a84.27,84.27,0,0,1-2.27,10.72l1.93,0c-.64-2.81.61-5.49,1.15-8.2.21-1.07-1.3-1.8-1.84-.74-1.32,2.55-.53,5.27-.15,8a1,1,0,0,0,1.87.48c1.42-2.35,5.45-3.92,7.85-5.05,1.16-.55.12-2.26-1-1.71-2.83,1.34-6.87,3-8.56,5.78l1.87.48c-.31-2.19-1.17-4.91-.1-7l-1.84-.74c-.63,3.15-1.87,6-1.13,9.26a1,1,0,0,0,1.93,0,88.14,88.14,0,0,0,2.33-11.26c.14-1.28-1.86-1.24-2,0Z"/><path class="cls-17" d="M163.88,164.41a5.46,5.46,0,0,0,2,4.07,5.86,5.86,0,0,0,1.91,1c.61.2,0-.09.31.15a4.28,4.28,0,0,0,1.34.8c3.71,1.19,5.18-3.65,6.47-6.15a2.7,2.7,0,0,0-2.37-4,4.49,4.49,0,0,0-1.88.35l-.73.33q-.78.32,0,.23c-3.33-.87-4.67,4.3-1.34,5.17a4.26,4.26,0,0,0,2.49,0,7.52,7.52,0,0,0,1.05-.46l.4-.22q.32-.23.13,0l-2.37-4-1.18,2.3-.47.92-.35.69q-.39.62.48-.16l1.42,0-.36-.12,1.19.67a7.6,7.6,0,0,0-2.31-1.44,2.24,2.24,0,0,1-.59-.22c.12.09.14.23.13.07-.22-3.42-5.57-3.36-5.34.08Z"/><path class="cls-18" d="M174.89,143.94c.44,1,.17-.07-.06-.52a4,4,0,0,0-.78-1.06l-1.82,4.59c2.15,0,4.3-1,6.42-.56.82.18,1.61.55,2.41.78s2.36,1,2-.16l.24-2.06c-.53.91-6.45,4.83-6.51,3.71l-5.23.79,1.4,3.55a2.68,2.68,0,0,0,5.23-.79,13.06,13.06,0,0,1,.73-3.87l-1.2,1.61.87.06c3.07,1.53,5.71-3.12,2.63-4.65-1.95-1-4.38-1.35-6.26,0s-1.93,4.69-2.1,6.9l5.23-.79-1.4-3.55c-1-2.63-5.41-2.43-5.23.79a5.6,5.6,0,0,0,6.42,5.54c3.38-.42,7.48-3.18,9.52-5.88,2.28-3-.52-5.42-3.47-6.08a50.24,50.24,0,0,0-5.41-1.37c-2.18-.23-4.17.65-6.32.67a2.7,2.7,0,0,0-1.82,4.59l.21.21-.81-1.88a5.74,5.74,0,0,0,.59,2.18c1.43,3.12,6,.34,4.57-2.76Z"/><path class="cls-16" d="M110.24,160.86c1.87,2,4.55,3.34,6.93,4.59a24.73,24.73,0,0,0,8.37,2.89,24.39,24.39,0,0,0,8.67-.89l10.86-2.55c2.48-.58,2.53-4.72-.08-5.15-5.17-.85-9.75,1.37-14.84,1.32-5.34-.05-10.47-3.21-15.08-5.6l.6,4.19c1.44-1.39,4.23-1.49,6.05-2.26a22.16,22.16,0,0,0,5.45-3.39l-4.5-2.53a6.92,6.92,0,0,1-1.73,4,2.71,2.71,0,0,0,1.24,4.45c5.3,1.76,10.93,1.38,16.22,3.41,2.31.89,4-2.12,3-4-3-5.34-8.76-7.36-14.37-8.93-3.32-.93-4.65,4.24-1.34,5.17,4.24,1.19,8.82,2.44,11.14,6.52l3-4c-5.29-2-10.92-1.66-16.22-3.41l1.24,4.45a11.76,11.76,0,0,0,3.07-6.34,2.7,2.7,0,0,0-4.5-2.53c-3.47,2.82-8.32,2.58-11.5,5.65a2.69,2.69,0,0,0,.6,4.19c4.74,2.46,9.78,5.32,15.14,6.07s10.7-2.15,16.06-1.27l-.08-5.15-8.27,1.94c-2.67.63-5.46,1.56-8.23,1.44a17.6,17.6,0,0,1-7.28-2.35c-2-1-4.29-2.14-5.84-3.77-2.37-2.5-6.08,1.34-3.72,3.83Z"/><path class="cls-19" d="M124.39,146.53c5.72,6.87,11.06,15.3,21,15.44,2.54,0,3.18-2.92,1.82-4.59a59.15,59.15,0,0,0-9.55-8.87,15.4,15.4,0,0,1-4-4.4,11.25,11.25,0,0,0-3.81-4.17l.07,4.61c4.17-2.79,9-3.75,13.87-4.66,4.62-.87,9.85-2.66,14.46-1,4.83,1.78,6.45,6.45,8.5,10.74a50.66,50.66,0,0,1,2.93,7.66c.48,1.62,1.1,3.11,2.74,3.82a2.71,2.71,0,0,0,3.88-3.07l-.55-2.21c-.71-2.86-5.63-2.24-5.23.79.55,4.19-10.68,1.83-12.66,1.54q-3.57-.54-7.13-1.12c-2.43-.4-4.84-.23-6.25-2.44l-2.25,4.05c7.36-.29,14.81,2.28,22.08,3.25,2.39.32,5.59,1.14,7.21-1.26,1.52-2.25-.11-4.69-2.34-5.53-3-1.11-6.47-1.08-9.58-1.64a47.09,47.09,0,0,1-9.48-3.2c-3-1.21-6.14-1.53-9.18-2.53a13.34,13.34,0,0,1-4.12-2.26c-.82-.65-3-2.09-3.21-3l-.24,2.06q-1.59.8.09.85l.71.08a6.22,6.22,0,0,0,2.18-.29c1.58-.5,2.83-1.66,4.35-2.27a23,23,0,0,1,12.07-1.14,14.37,14.37,0,0,1,11.74,15.33l5.34-.08c-.24-1.86,0-3.81-.63-5.61a8.86,8.86,0,0,0-3.3-4c-3.18-2.54-6.45-5-10.28-6.5s-7.82-1.49-11.85-1.43q-3.53.05-7.06.18c-2.09.07-4.37,0-6.31.89-2.66,1.22-5.11,5.08-2.06,7.33s7.73.39,11.14.62c4.18.28,8.64,2.18,12.6,3.48a71,71,0,0,1,12.44,5.3,2.69,2.69,0,0,0,3.64-1c2.31-5.29-5.21-7.75-8.8-9.66-2.63-1.4-5.3-2.7-8.05-3.84-2.54-1-5.23-2.31-8-2-3.39.35-3.34,5.69.08,5.34s7.72,2.3,10.73,3.8c1.63.81,3.23,1.67,4.83,2.55l2.6,1.45.86.49q1.31,1.29,1.13-.75l3.64-1A90.91,90.91,0,0,0,149,145.41a46.42,46.42,0,0,0-8.61-2.16,25.45,25.45,0,0,0-5,.15c-.75.07-1.51.16-2.26.16h-.9q-1.77-.35-.69-.07l.81,1.88c0-.46,8.63-.46,9.56-.48,3.41-.07,7-.36,10.32.52a24.19,24.19,0,0,1,8.15,4.4,18.43,18.43,0,0,1,3.42,2.77c.91,1.15.58,3.14.76,4.55a2.67,2.67,0,0,0,5.34-.08,19.48,19.48,0,0,0-12.28-19.35,24.49,24.49,0,0,0-13-1.09,24.16,24.16,0,0,0-6.51,1.69c-.85.39-1.61,1-2.46,1.37-1.29.54-1.9.1-3.24.09a3.91,3.91,0,0,0-3.66,2.19c-.94,2.07.36,3.7,1.77,5.1a22.73,22.73,0,0,0,10.79,6.4,59.38,59.38,0,0,1,6,1.49c2.3.82,4.46,2,6.79,2.77a38.16,38.16,0,0,0,6.56,1.38c1.27.18,2.55.34,3.81.54.77.12,2.53.13,3.07.74l-.81-1.88q1.43-1.89-.54-1.63l-1.54-.21q-1.54-.21-3.07-.46-3.33-.53-6.63-1.2c-4.23-.86-8.43-1.78-12.78-1.61a2.7,2.7,0,0,0-2.25,4.05c2.08,3.25,4.28,4,7.95,4.59,4.24.71,8.48,1.39,12.74,2,3.22.44,6.58.87,9.74-.18s6-3.68,5.53-7.2l-5.23.79.55,2.21,3.88-3.07c-.4-.17-.77-2.57-.93-3-.44-1.31-1-2.59-1.54-3.86-1.18-2.64-2.42-5.3-3.76-7.86a16.09,16.09,0,0,0-10.73-8.42c-5.08-1.17-10.35.42-15.34,1.35-5.46,1-10.91,2.17-15.6,5.3a2.71,2.71,0,0,0,.07,4.61c1.54,1,2.1,2.91,3.2,4.33a22.34,22.34,0,0,0,4.19,3.95,52.21,52.21,0,0,1,8.88,8.35l1.82-4.59c-8-.12-12.69-8.48-17.23-13.93-2.2-2.64-5.9,1.21-3.72,3.83Z"/><path class="cls-8" d="M123.41,144.73c3.35-4,7.86-6.24,12.83-7.6a96.66,96.66,0,0,1,17.62-3c6.78-.55,11.4,3.37,14.86,8.84a100.37,100.37,0,0,1,7.92,16.33c.32.79,1.6.43,1.28-.37-2.5-6.24-5.21-12.72-9.11-18.23-3.1-4.37-7.36-7.94-12.94-8-6.41-.06-13.45,1.45-19.63,3.09-5.31,1.41-10.23,3.78-13.8,8.06-.55.66.41,1.59,1,.93Z"/><path class="cls-8" d="M122.08,144.16c1.55,5,6.08,8.24,10.28,11a56.33,56.33,0,0,0,15.95,7.34,48.79,48.79,0,0,0,16.54,1.73,44.56,44.56,0,0,0,8.11-1.32c2-.52,3.78-1.16,4.68-3.14.35-.78-.81-1.44-1.16-.66-1,2.29-4.16,2.64-6.38,3.08a44.06,44.06,0,0,1-7.8.81,48.35,48.35,0,0,1-14.48-2,54.81,54.81,0,0,1-13.31-6c-4.35-2.7-9.57-6-11.15-11.2a.67.67,0,0,0-1.28.37Z"/><path class="cls-8" d="M176.65,159.8l3,1.46c.77.37,1.43-.79.66-1.16l-3-1.46c-.77-.37-1.43.79-.66,1.16Z"/><path class="cls-8" d="M124,148.65a49.47,49.47,0,0,1-9.17,5.28,21.12,21.12,0,0,0-6.3,3.88c-2.08,2.69,4.81,7.06,6.65,7.95,5.21,2.52,11.89,3,17.6,2.78a29.41,29.41,0,0,0,8.9-2c2.37-.86,4.7-1.71,6.38-3.68.55-.65-.4-1.59-1-.93-2.91,3.43-9.54,5-13.85,5.25a40.25,40.25,0,0,1-15.63-1.85,16,16,0,0,1-6.25-3.91,11.07,11.07,0,0,1-1.38-1.76q-.86-1.11.33-1.42a9.39,9.39,0,0,1,1.78-1.42c1.86-1.38,4.19-2,6.24-3a63.87,63.87,0,0,0,6.37-4c.71-.48,0-1.63-.69-1.14Z"/><path class="cls-8" d="M114.31,154.62c-.64-10.58,11.15-21.91,21.78-18.29.81.28,1.14-1,.34-1.29-11.44-3.9-24.15,8.19-23.45,19.6.05.85,1.39.84,1.33,0Z"/><path class="cls-8" d="M142.72,134.82a30.8,30.8,0,0,1,11.94-7.33,13.56,13.56,0,0,1,2.92-.79c2.42-.19,3,.69,4.11,2.44a14.78,14.78,0,0,1,2.23,7c.06.85,1.4.84,1.34,0-.27-3.61-2.32-11.4-7.11-10.88-6.11.67-12.07,4.47-16.38,8.65-.62.6.34,1.53,1,.93Z"/><path class="cls-8" d="M170.23,142.94a30.84,30.84,0,0,1,8.32-.91c2.24.07,5.77.14,7.78,1.33,3.38,2-.75,6.56-2.71,7.9s-5,3.12-7.55,3c-.86,0-.84,1.3,0,1.33,3.11.12,6.68-2,9.06-3.82,2.2-1.7,4.12-4.5,3.6-7.43s-4.75-3.09-7.2-3.42a31.82,31.82,0,0,0-11.7.71c-.83.2-.46,1.48.37,1.28Z"/><path class="cls-8" d="M163.06,165a15.48,15.48,0,0,0,4.09,4.27c1.16.81,3.65,2.44,5.21,2.16,1.24-.23,2.27-2.24,2.81-3.24a14.77,14.77,0,0,0,1.72-6.59c0-.86-1.3-.84-1.34,0-.1,2.48-1.34,9-4.86,8-2.68-.76-5-3.08-6.49-5.33-.47-.71-1.62,0-1.14.69Z"/><path class="cls-8" d="M177.42,158.78c-3.34-1.45-5.68-4.59-8.67-6.63a44.88,44.88,0,0,0-9.82-4.88c-7.33-2.69-15.9-5.4-23.77-5-.43,0-.42.69,0,.67,7.76-.44,16.34,2.27,23.59,4.93a43.55,43.55,0,0,1,10,5.06c2.85,2,5.08,5,8.32,6.38.39.17.72-.41.33-.58Z"/><path class="cls-8" d="M118.19,159a94.51,94.51,0,0,1,12.86-5.15.33.33,0,0,0-.19-.64,95.74,95.74,0,0,0-13,5.22c-.39.19,0,.76.35.57Z"/><path class="cls-8" d="M171.53,166.51a8.42,8.42,0,0,1-1.34-3.47c-.06-.42-.73-.41-.67,0a9.18,9.18,0,0,0,1.44,3.8c.24.36.81,0,.57-.35Z"/><path class="cls-8" d="M173.68,148.6a32,32,0,0,1,7.2-1.42c.43,0,.42-.7,0-.67a32.78,32.78,0,0,0-7.38,1.44.33.33,0,0,0,.19.64Z"/><path class="cls-8" d="M156.33,131.16a7,7,0,0,0-1.2,1.1c-.28.33.2.79.48.46a6.3,6.3,0,0,1,1.06-1c.34-.25,0-.83-.35-.57Z"/><path class="cls-14" d="M138.3,140c6.16-1.6,16-4.9,21.34.08,1.26,1.17,3.12-.74,1.86-1.92-6.23-5.83-16.7-2.61-23.94-.73-1.66.43-.92,3,.75,2.56Z"/><path class="cls-14" d="M164.9,144.57c3.22,0,3.22-5,0-5s-3.22,5,0,5Z"/><path class="cls-14" d="M111.39,159.61c2.57-2.56,6.06-3.67,9.38-4.94.8-.31.43-1.59-.37-1.28-3.53,1.35-7.22,2.56-10,5.29-.61.61.35,1.54,1,.93Z"/><path class="cls-14" d="M119.56,142.6a9.75,9.75,0,0,0-2.58,3,1,1,0,0,0,1.74,1,7.32,7.32,0,0,1,1.87-2.24,1,1,0,0,0,.34-1.38,1,1,0,0,0-1.38-.34Z"/><path class="cls-14" d="M167.3,166.19A2.76,2.76,0,0,0,169,167.5c.61.16,1.17-.69.63-1.13a2.75,2.75,0,0,1-.74-.89.67.67,0,0,0-1.14.69,3.71,3.71,0,0,0,1,1.16l.63-1.13a1.39,1.39,0,0,1-.91-.71c-.42-.75-1.56-.06-1.14.69Z"/><path class="cls-14" d="M174.27,144.33c2-.59,4-1.19,5.95-.14a.67.67,0,0,0,.66-1.16c-2.25-1.24-4.65-.68-7,0a.67.67,0,0,0,.37,1.28Z"/><path class="cls-14" d="M183.13,145.46a1.25,1.25,0,0,0,0-2.5,1.25,1.25,0,0,0,0,2.5Z"/></svg>