<svg id="圖層_1" data-name="圖層 1" xmlns="http://www.w3.org/2000/svg" viewBox="0 0 300 300"><defs><style>.cls-1{fill:#f5b81b;}.cls-2{fill:#06143f;}.cls-3{fill:#f7f8f8;stroke:#4c4948;}.cls-3,.cls-5{stroke-miterlimit:10;}.cls-4{fill:#e6e6e6;}.cls-5{fill:none;stroke:#f5b81b;stroke-width:2px;}.cls-6{fill:#ee9f29;}.cls-7{fill:#e98028;}.cls-8{fill:#6d401e;}.cls-9{fill:#e1822c;}.cls-10{fill:#f3c775;}.cls-11{fill:#da6010;}.cls-12{fill:#7c3f48;}.cls-13{fill:#7b4621;}.cls-14{fill:#231815;}.cls-15{fill:#79381c;}.cls-16{fill:#f6b767;}.cls-17{fill:#c97e11;}</style></defs><title>毛蟹01</title><ellipse class="cls-1" cx="149.98" cy="146.83" rx="149.13" ry="80.6"/><ellipse class="cls-2" cx="150.21" cy="145.52" rx="147.21" ry="77.72"/><ellipse class="cls-3" cx="150.24" cy="153.28" rx="106.86" ry="58.69"/><ellipse class="cls-4" cx="150.24" cy="157.89" rx="98.9" ry="54.55"/><ellipse class="cls-5" cx="150.3" cy="153.34" rx="106.42" ry="58.99"/><path class="cls-6" d="M67.86,183.25a9.87,9.87,0,0,0,3.64,6.55c.49.39,1.38-.17.93-.75A11.09,11.09,0,0,1,71,186.62c-.3-.7-1.46-.37-1.15.34a12.28,12.28,0,0,0,1.6,2.72l.93-.75a8.67,8.67,0,0,1-3.27-5.71c-.1-.76-1.3-.74-1.2,0Z"/><path class="cls-6" d="M61.85,165.29c-1.5,2.74-.61,7.08,1.2,9.51a.6.6,0,0,0,1.09-.49l-1.44-5a.6.6,0,0,0-1.15.34l1.44,5,1.09-.49c-1.54-2.07-2.46-5.94-1.17-8.3a.6.6,0,0,0-1-.58Z"/><path class="cls-6" d="M56.36,147.33c-2.09,2.6-1.85,7.69.6,10a1.2,1.2,0,0,0,1.66-1.73c-1.42-1.36-1.76-5.12-.53-6.65,1-1.2-.77-2.87-1.73-1.66Z"/><path class="cls-6" d="M58.5,132.55c-1.41,1.47-2.71,3.16-2.62,5.31s1.41,4,2.65,5.55c1,1.18,3-.05,2-1.26a10.85,10.85,0,0,1-2.12-3.51c-.54-1.86.56-3.16,1.78-4.43a1.2,1.2,0,0,0-1.73-1.66Z"/><path class="cls-7" d="M234.29,166.19Q231,167,227.82,168l1.45,3.07a7.77,7.77,0,0,1,3.65-1.65l-.64-3.45-11.21,2.31,1.06,3.31c1.49-.5,3-1.06,4.47-1.5,1.88-.56,1.79-.35,3.43.43a5.83,5.83,0,0,0,5.09-.12l-1.87-2.93a12.13,12.13,0,0,1-8.69,4.17l1.53,2.32a3.1,3.1,0,0,1,2.15-1.68,1.77,1.77,0,0,0,.25-3c-4-3.22-8.75-2.39-13.26-.87s-9.76,3.4-11.85,8.12c-1.32,3-.09,6.43,3.66,5.31,5.2-1.54,8.16-7.25,13.47-8.82l-1.06-3.31c-4.58,2.2-9.8,2.24-13.9,5.47-1.45,1.14-.2,3.27,1.45,3.07,3.38-.41,6.08-2.67,9.45-3.28,1.65-.3,11.42-2.11,12.14-.64l1.27-2.47a26.56,26.56,0,0,0-10.1,4.11l2.57,2.34,2.09-.78-.55-3c-2.11,1.66-5.93,1.94-8.46,2.56l-8.82,2.18,1.76,2.72c1.92-2.6,6.86-8.94,10.76-7.49l-.87-2.65a6.1,6.1,0,0,1-3.5,2.61c-1.72.51-2,3.58.19,3.47l2.89-.14c1.78-.09,2.83-2.88.71-3.41l-1.57-.39c-2.17-.54-3.35,2.77-1.15,3.31l1.57.39.71-3.41-2.89.14.19,3.47a10.09,10.09,0,0,0,5.75-4.07,1.77,1.77,0,0,0-.87-2.65c-5.88-2.2-11.74,4.68-14.8,8.81a1.77,1.77,0,0,0,1.76,2.72l11.53-2.85c2.56-.63,5.26-1,7.37-2.65a1.77,1.77,0,0,0-.55-3,4.88,4.88,0,0,0-6.13,2.1A1.76,1.76,0,0,0,222,178.6a22.2,22.2,0,0,1,8.48-3.34,1.77,1.77,0,0,0,1.27-2.47c-1.88-3.83-7.32-2.24-10.67-1.93a36.28,36.28,0,0,0-8,1.28c-2.3.75-4.27,2.3-6.7,2.6l1.45,3.07c3.74-3,8.92-3,13.14-5,1.73-.83.9-3.9-1.06-3.31a19.5,19.5,0,0,0-6.27,3.2c-1.13.84-2.18,1.78-3.27,2.68-.55.45-1.09.91-1.65,1.33s-2.45,2.51-2,1c1-3.2,5.68-4.68,8.45-5.66,3.74-1.33,7.92-2.75,11.36,0l.25-3c-2,.81-3.26,1.67-4,3.7a1.77,1.77,0,0,0,1.53,2.32,15.44,15.44,0,0,0,11.2-5c1.28-1.38.08-3.8-1.87-2.93-2.29,1-3.38-1.55-5.61-1.27-2.43.31-5.06,1.68-7.39,2.46-1.9.64-.86,3.71,1.06,3.31l11.21-2.31c2.21-.46,1.59-3.87-.64-3.45a11.54,11.54,0,0,0-5.27,2.41c-1.31,1-.27,3.57,1.45,3.07q3.22-.94,6.47-1.79c2.17-.57,1.55-4-.64-3.45Z"/><path class="cls-6" d="M228.66,131.8l.22.2q-.31-.41-.15-.19c.1.17.29.65.05,0a2.4,2.4,0,0,0,4.6-1.38,5,5,0,0,0-1.4-2.12,2.4,2.4,0,0,0-3.32,3.47Z"/><path class="cls-7" d="M240.16,151.26a9,9,0,0,0-5.94-6.79l-1.09,3.3a16,16,0,0,1,4,1.15c1.74.76,3.6-1.72,1.9-2.92-3.81-2.67-6.94-3.56-11.07-1.16-2.59,1.51-5.48,2-8.11,3.37s-4.22,4-6.84,5.35l2.16,2.42,2.2-1.57-1.58-3.1c-4.46,2.47-11.78,6-13.73,11.24-2.09,5.57,6.19,3,8.46,2.07l-1.58-3.1c-.78.56-2.71,2.06-3.79,1.72l1.32,1.14c-.11-.23,5.77-6.71,6.55-7.41,1.49-1.33,3.45-1.47,5.23-2.28a29.6,29.6,0,0,0,4.19-2.63,7.36,7.36,0,0,1,5.48-1.38,14.8,14.8,0,0,0,3.58.22c2-.33,2.81-1.93,2.29-3.79l-2,2.3q1.64-.16,1.68,1.58,1.39,1.54-.33,1.65a17,17,0,0,1-3.47,1,59.74,59.74,0,0,0-6.35,2.31c-2.22,1-4.35,2.07-6.47,3.22-1.21.65-6.29,3.36-3.66.29A26.16,26.16,0,0,1,224,152.22a38.76,38.76,0,0,1,6.43-1.81,19.25,19.25,0,0,1,3.32-.38,16.11,16.11,0,0,0-2.57.11,1.78,1.78,0,0,0-1.32,2.75l.53.87,2.42-2.16-3-1.84a1.76,1.76,0,0,0-2.51,1.7l.65.06-2.06,1.39-.49.19-3,.24.8,1.55-2.33-1.54a16.32,16.32,0,0,1-1,3.62l-.58-2.72c-1,1.31-2,2.1-2.7,3.66l-2.72.58-2.18.67,1.7,2.51,1.06-1c1.95-1.14-.06-4-2-2.88a5.49,5.49,0,0,0-2.22,2.39,1.77,1.77,0,0,0,1.7,2.51c2-.12,4.35-.53,5.26-2.61a3.44,3.44,0,0,0-1-4.24,1.77,1.77,0,0,0-2.72.58,2.88,2.88,0,0,0,1.79,4.13c2.68.73,5.36-2.12,6.75-4,.6-.81.57-2.32-.58-2.72a3.39,3.39,0,0,0-4.32,1.23c-.93,1.3-1.34,3.06.22,4.08,3.7,2.4,7.45-2.71,7-6a1.78,1.78,0,0,0-2.33-1.54c-3.12,1-3.16,5.5.3,6,3.76.6,4.84-3.79,3-6.28a1.78,1.78,0,0,0-3,.24c-1.94,3.26,2.27,5.11,4.87,3.81s2.93-5.56-.55-5.92a1.8,1.8,0,0,0-2.06,1.39c-1.24,5.34,6.94,5.79,6.3.37l-2.51,1.7,3,1.84a1.77,1.77,0,0,0,2.42-2.16,10.21,10.21,0,0,0-1-1.71l-1.32,2.75c2.47-.38,6.82-.19,5.69-4.21-1.06-3.77-5.64-2.82-8.45-2.21a37.6,37.6,0,0,0-12.58,5.06c-2.86,1.87-7.06,5.09-8,8.57-.86,3.19,2.11,4.19,4.69,3.79s4.91-2,7.23-3.27a59,59,0,0,1,8.23-3.61c3.13-1.1,9-1.42,10.23-5.26s-2.94-5.88-6-6.52a1.77,1.77,0,0,0-2,2.3l.19.68.32-1.72c-.56.78-5.32-.4-6.44-.25-2.24.28-3.36,1.76-5.11,3-2.2,1.56-4.66,1.83-7,3-1.74.86-2.93,2.67-4.17,4.09-1.58,1.81-6.64,5.61-5.13,8.49s6,.12,7.78-1.14c1.56-1.13.31-3.83-1.58-3.1-1.06.41-4.09,1.9-5,1.31l1,1.46c-.27-1.88,4.37-4.73,5.56-5.57a72.78,72.78,0,0,1,6.93-4.32c1.78-1,.24-3.68-1.58-3.1a7.15,7.15,0,0,0-4.2,3.36c-.78,1.22.84,3.08,2.16,2.42,3.58-1.81,5.74-5.08,9.61-6.48a32.71,32.71,0,0,0,4.94-1.91c1-.53,2.37-1.65,3.5-1.74,1.57-.13,3.36,1.11,4.53,1.93l1.9-2.92a19.5,19.5,0,0,0-4.81-1.43c-1.87-.31-3,2.6-1.09,3.3a6,6,0,0,1,4.15,4.79c.46,2.2,3.77,1,3.31-1.16Z"/><path class="cls-7" d="M217.1,149.08A232.37,232.37,0,0,1,190,161c-2.24.79-6.87,2.58-8.23-.45-1.08-2.39,1.78-5.72,3.19-7.3,3.56-4,8.26-6.94,13-9.32a182.7,182.7,0,0,1,27.5-10.62,14.73,14.73,0,0,1,4.06-1q1.75-.61,2,1.71,1.79,1.35.54,2.79a15.13,15.13,0,0,1-3.86,4.52A28.39,28.39,0,0,1,217,147.52c-1.09.3-.48,1.95.6,1.65a29.7,29.7,0,0,0,11.2-6.08c2.44-2.08,5.64-5.2,5.94-8.61.75-8.56-15.54-.87-18.59.22-10.51,3.75-21.92,7.55-30.31,15.22-3,2.77-10.56,12.81-2,14,4.86.67,10.74-2.73,15.05-4.52,6.37-2.64,12.62-5.55,18.78-8.66,1-.5.41-2.16-.6-1.65Z"/><path class="cls-7" d="M181.8,163c-.77,3.31-5.15,1.29-6.75-.07a14.42,14.42,0,0,1-3.5-4.89l-1.19,1.09c2.84,1.41,7.94,4.91,10.4,1.07.6-.94-.74-2.07-1.35-1.12-1.74,2.72-6.27-.52-8.31-1.54-.64-.32-1.53.4-1.19,1.09,1.43,3,3.49,6,6.67,7.28,2.72,1.13,6.2.64,7-2.61.26-1.1-1.47-1.41-1.73-.31Z"/><path class="cls-7" d="M233.52,137.69c.66-4.5-3.34-7.63-7.66-6.41-2.39.68-4.31,2.43-6.67,3.26-2.86,1-5.88,1.42-8.75,2.41-5.18,1.8-11,4.07-15.19,7.64-3.8,3.21-8.65,5.76-11.21,10.13l6.68,1.2c-.06-.53,3.35-2.35,3.85-2.81,1.09-1,2-2.19,3.13-3.11,2.8-2.22,7-3.53,10.49-4s6.76-.48,10.09-1.11a26.19,26.19,0,0,0,4.36-1.14c1.13-.43,3.33-2.22,4.51-2.18l-2.52-.8.62.5L224,138.85q1.23-1.94-.17-.84a6.58,6.58,0,0,0-1.23,1,25.24,25.24,0,0,0-2.12,2.14,18.82,18.82,0,0,1-6.28,4.2,129.81,129.81,0,0,1-16.2,6.39l3.9,5.54c1.65-1.67,4.39-2.51,6.39-3.67a52.41,52.41,0,0,0,6.88-4.81,3.56,3.56,0,0,0-1.4-6.31c-4.49-1.1-10.3,1.5-14.18,3.55a11.47,11.47,0,0,0-4.82,3.92c-1.13,1.88-.64,2.93-.44,4.94l.8-2.52a5.65,5.65,0,0,1-4.47,2.08c-1,.08-4.57,1.34-4.83,1.25l1.7,4.66c2.47-4.1,8-4.75,12.28-5.61,4.86-1,9.62-1.94,14.52-2.7a13.8,13.8,0,0,0,5.53-2,27.11,27.11,0,0,1,2.57-2,10.69,10.69,0,0,1,1.93-.53c4-1.19,6.74-6.21,9-9.46,2.53-3.65-2.6-8.11-5.4-4.48a64.18,64.18,0,0,1-6.6,7.7c-2.38,2.24-5.34,3.19-8.32,4.38l-19.13,7.65c-4.18,1.67-1.8,8.27,2.4,6.59q10.8-4.32,21.6-8.64c6.79-2.73,11-7.48,15.45-13.21l-5.4-4.48a64.38,64.38,0,0,1-4.8,6.32c-1,1.17-2.21.83-3.89,1.84-2.13,1.28-3.5,3-6.08,3.33-2.41.33-4.78.55-7.16,1.07-8.94,1.95-19.65,2.57-24.84,11.18a3.51,3.51,0,0,0,1.7,4.66c3.15,1.11,5.23-.35,8.35-.62a12,12,0,0,0,7.82-3.19,5.41,5.41,0,0,0,2.25-3,12.31,12.31,0,0,0,0-1.5c.11-1.44-.72-.1.38-.82,2.51-1.64,7.82-4.28,10.87-3.53l-1.4-6.31a50,50,0,0,1-8.17,5.52c-2.37,1.25-4.53,2.27-6.44,4.2-2.59,2.62.83,6.53,3.9,5.54A129.8,129.8,0,0,0,214.17,153c3.73-1.69,7.72-3.32,10.64-6.28a52.32,52.32,0,0,1,4.08-3.67A5.22,5.22,0,0,0,231,139c0-3.7-3.91-5.32-7-4-1.72.77-3.12,1.89-5,2.45a35.74,35.74,0,0,1-7.34,1.06,39.67,39.67,0,0,0-12.56,2.71,29.19,29.19,0,0,0-5.06,2.56c-1.68,1.15-2.84,2.79-4.36,4.1-3,2.56-6.63,3.85-6.08,8.51.43,3.66,4.94,4.16,6.68,1.2,1.57-2.67,5.39-4.22,7.68-6.26a35.6,35.6,0,0,1,10.24-6.08,69.42,69.42,0,0,1,10.37-3.4,27,27,0,0,0,5.12-1.7c.64-.3,1.28-.65,1.89-1l1.22-.78q1.3-.54-.3-2c-.66,4.47,6.24,5.73,6.9,1.26Z"/><path class="cls-7" d="M182.08,161.55l-2.12-1c-.74-.34-1.7.63-1.09,1.3a3.12,3.12,0,0,1,.91,2.19l1.59-.58-.47.77-.14-1.69c-.83.26-2.29-.68-3-1.07l-.53,1.66a2.58,2.58,0,0,0,3-.69c.77-1,.56-2.7,1.51-3.55l-1.37-.87c-.34,1.37-1.53,2-2.75,2.55s-2.18.23-3.5-.23c-.88-.3-1.78.81-.93,1.47a23.46,23.46,0,0,0,6.06,3.4c1.05.4,1.8-1.19.74-1.59a21.89,21.89,0,0,1-5.68-3.16l-.93,1.47a10.11,10.11,0,0,0,2.83.84,6.06,6.06,0,0,0,2.53-.78,5.46,5.46,0,0,0,3.35-3.66.89.89,0,0,0-1.37-.87,3.9,3.9,0,0,0-1.19,1.82c-.13.39-.19.79-.32,1.18-.32,1-.56,1.22-1.63.95s-1.35,1.2-.53,1.66c1.24.69,2.89,1.58,4.33,1.13.89-.28.64-1.48-.14-1.69a1.22,1.22,0,0,0-1.28,2,.88.88,0,0,0,1.59-.58,4.55,4.55,0,0,0-1.23-3.06l-1.09,1.3,2.12,1a.88.88,0,0,0,.74-1.59Z"/><path class="cls-7" d="M181.43,165.91a14.22,14.22,0,0,0,5-3.49c.77-.83-.59-2-1.35-1.12a12.08,12.08,0,0,1-4.2,3c-1,.44-.44,2.09.6,1.65Z"/><path class="cls-7" d="M174.57,160.63l-.5-.51a1.24,1.24,0,0,0-1.67-.28,1.22,1.22,0,0,0-.28,1.67,5.11,5.11,0,0,0,.7.81,1.2,1.2,0,1,0,1.53-1.85,2,2,0,0,1-.28-.35l-2,1.39c.3.33.61.65.92,1a1.21,1.21,0,0,0,1.69-.16,1.23,1.23,0,0,0-.16-1.69Z"/><path class="cls-7" d="M240,152.06l-19.91,8.35-10,4.17c-1.42.59-4.26,2.18-5.8,1.57-4-1.6-.24-5.71,1.08-7.12,4.85-5.14,12-8.72,18.2-12,3.47-1.81,8-4.58,11.94-2.65a7.47,7.47,0,0,1,3.91,8.29.88.88,0,0,0,1.72.33,9,9,0,0,0-11-10.7c-4.7,1.1-9.39,4.17-13.52,6.59s-8.66,5-12.14,8.53c-1.85,1.86-4.83,5.22-3.55,8.13s5,2.47,7.5,1.56c10.87-4,21.46-9,32.12-13.46,1-.43.46-2.09-.58-1.66Z"/><path class="cls-7" d="M203,167.76c-2.18,2.12-5.69,4.89-8.88,4-2.47-.67-4.32-4.36-5.85-6.38l-1.1,1.29c4.7,2.14,10.93,4,14.46-1.05.64-.92-.69-2.06-1.34-1.14-3.05,4.37-8.4,2.42-12.36.61-.77-.35-1.65.57-1.1,1.29,1.86,2.45,4.13,7.23,7.65,7.47s7.43-2.62,9.85-5c.81-.79-.53-1.92-1.34-1.14Z"/><path class="cls-7" d="M201.18,169.22a15.93,15.93,0,0,1,3.25-2.55l-1.36-.89-.59,2.33c-.23.92,1,1.3,1.53.74l1.93-1.9c.73-.72-.36-1.81-1.17-1.29a13.9,13.9,0,0,0-2.37,1.92c-.71.7.38,1.88,1.17,1.29l2.66-2c.75-.57.16-2-.79-1.55a53.34,53.34,0,0,0-6.1,3.12l1.17,1.29a15.59,15.59,0,0,1,1.85-1.76.89.89,0,0,0-.56-1.6l.36.38a.88.88,0,0,0-1.65-.55,47.83,47.83,0,0,1-2.82,4.25l1.53.74a2.62,2.62,0,0,1,.79-2.06c.93-.51.1-1.77-.79-1.55-1.43.35-2.13,1.13-3.8,1a18.31,18.31,0,0,1-4.4-1.27.88.88,0,0,0-1.1,1.29,7.14,7.14,0,0,0,8.41,2.88.88.88,0,0,0-.58-1.66,5.39,5.39,0,0,1-6.39-2.22l-1.1,1.29a24.23,24.23,0,0,0,5.29,1.48c1.89.2,2.43-.71,4.26-1.16l-.79-1.55c-1.52.84-1.26,1.33-1.51,3.17-.11.81,1,1.49,1.53.74a52,52,0,0,0,3.06-4.62l-1.65-.55a1.37,1.37,0,0,0,1.48,1.7l-.56-1.6a27.58,27.58,0,0,0-2.19,2.06c-.72.75.35,1.77,1.17,1.29A49.81,49.81,0,0,1,206,167l-.79-1.55-2.66,2,1.17,1.29a8.27,8.27,0,0,1,2-1.61l-1.17-1.29-1.93,1.9,1.53.74.59-2.33c.2-.79-.75-1.26-1.36-.89a18,18,0,0,0-3.58,2.85c-.79.81.55,1.94,1.34,1.14Z"/><path class="cls-7" d="M200,170.24c-.58-.17-.48-.26-1.08,0a4.3,4.3,0,0,0-.54.23c-.78.42-1.08.93-2,.61s-1.6-.89-2.74-.61-.51,1.92.58,1.66c.75-.18,1.8.85,2.6.92,1.15.1,1.86-.81,2.85-1.2.82-.32,1.7-.63,1.85-1.63a1.48,1.48,0,0,0-1.18-1.66c-1.09-.31-1.41,1.41-.33,1.72Z"/><path class="cls-7" d="M206.73,165.84l-5.84,2.79c-1,.48-.44,2.14.58,1.66l5.84-2.79c1-.48.44-2.14-.58-1.66Z"/><path class="cls-7" d="M66.07,147.07l-2.91-2.38a1.6,1.6,0,1,1,2-2.48l2.91,2.38a1.6,1.6,0,1,1-2,2.48Z"/><path class="cls-7" d="M73.62,158.67c5.22,3,10.52,5.84,15.93,8.49,4.48,2.2,9.12,4.81,14,6.08,2.72.72,6.22.61,7.25-2.57s-1.56-6.9-3.5-9.21c-6.93-8.22-17.31-12.77-27-16.92-4.92-2.12-9.92-4.51-15.05-6.06-2.22-.67-6-1.67-7.39.94-1.73,3.18,1.75,7.5,3.73,9.64a29.89,29.89,0,0,0,12.22,8.05c1.06.36,1.78-1.24.71-1.6A28.48,28.48,0,0,1,64,149c-1.2-1.16-4.36-4.11-4.33-6l2.25-3.51a9.88,9.88,0,0,1,1.45.26,26.22,26.22,0,0,1,3.51,1.11,189.73,189.73,0,0,1,26.32,11.74,45.25,45.25,0,0,1,12.69,9.87c1.26,1.49,3.56,4.19,3.37,6.27-.42,4.75-5.58,2.84-8.43,1.66a232.37,232.37,0,0,1-26.45-13.36c-1-.56-1.68,1-.71,1.6Z"/><path class="cls-7" d="M108.7,173.93c1.91,2.34,4.84,1.83,6.92-.06,2.75-2.51,3.43-6.35,3.5-9.9,0-.79-1.11-1-1.55-.47-1.48,1.85-4.09,6.56-6.92,4.85-1-.58-1.66,1-.71,1.6,3.9,2.36,7-2.84,9-5.34l-1.55-.47a14.32,14.32,0,0,1-1.07,5.71c-.87,1.88-3.88,5.89-6.18,3.07-.71-.87-2.14.14-1.43,1Z"/><path class="cls-7" d="M106.12,172.13c5.35-1.19,3-7.45.63-10.49-4.18-5.3-10.88-7.3-16.49-10.62l-1.42,3.21,2.71,1.07c1.75.69,3.52-1.78,1.82-3-5-3.48-11.36-5.36-16.82-8.12s-10.89-5.19-17-5.6a1.78,1.78,0,0,0-1.7,2.75,58.1,58.1,0,0,0,7,8.95c2.56,2.79,6.13,4.64,8.5,7.51l2.14-2.62a14.19,14.19,0,0,1-7-6.11c-1-1.78-1.57-3.41-3-4.9a1.76,1.76,0,0,0-2.71.65l-.64,1.54,2.71-.65-1-2.33-1.63.62c3.39.2,7.31,2.55,10.34,4s6,3.28,9.14,4.79,6.61,2.14,9.78,3.6a36.35,36.35,0,0,1,9.61,6.48c.87.84,3.22,3.7,2.25,5.18-.55.83-3.16-.91-4-1.28-3.39-1.57-6.78-3.12-10.15-4.72a79.49,79.49,0,0,1-10.53-5.92c-1.6-1.09-10.65-6.73-9-9.22l-2.47.25a95.4,95.4,0,0,0,18,9.45c3.26,1.27,6.71,2.14,9.91,3.57A15.77,15.77,0,0,1,99.47,163c.32.3,3,3.25,2.5,3.8l2.07-.49c-.74-.25-1.8-2.27-2.5-3a25,25,0,0,0-4.19-3.46c-2.32-1.56-5.09-3.7-7.92-4.13-1.89-.29-3.41-.09-5-1.32a34.76,34.76,0,0,0-3.25-2.42c-3-1.79-6.61-2.22-9.8-3.65a1.77,1.77,0,0,0-2.14,2.62,20.59,20.59,0,0,0,11.06,8.36,1.77,1.77,0,0,0,2.14-2.62l-2.53-3.56-2.54,2.37c3.4,2.14,6.78,4.56,10.46,6.19,3.47,1.54,10.19,1.24,11.27,5.58l2.35-2.22a110.86,110.86,0,0,0-15.35-6.72c-2.11-.74-3.56,2.46-1.42,3.21A110.86,110.86,0,0,1,100,168.21c1.48.78,2.68-.9,2.35-2.22-.94-3.8-4.38-5.25-7.89-6-5.67-1.27-10-4.18-14.91-7.23-1.57-1-3.78.63-2.54,2.37l2.53,3.56L81.68,156a17.58,17.58,0,0,1-9.62-7.18l-2.14,2.62c2.85,1.28,6.06,1.7,8.84,3.13,2.53,1.29,4.33,3.85,7.23,4.41,1.58.3,3.06.15,4.61.81a29.66,29.66,0,0,1,5.59,3.43,21.11,21.11,0,0,1,4.23,4.13c.69.89,1.09,1.73,2.19,2.09a1.85,1.85,0,0,0,2.07-.49c1.79-1.85.27-4.71-1-6.49-2-2.91-5.19-4.7-8.43-6-4.1-1.63-8.32-2.81-12.37-4.6a91.57,91.57,0,0,1-13.5-7.43,1.78,1.78,0,0,0-2.47.25c-2.1,3.19-.49,6,2.08,8.36a70.08,70.08,0,0,0,13.58,9.57c5,2.75,10.21,5,15.35,7.36,2.16,1,6.94,4.09,8.65.64,1.45-2.93,0-7.66-2.29-9.66-3.86-3.4-8.3-6.69-13.15-8.52-2.31-.87-4.73-1.38-7-2.38-2.52-1.11-4.86-2.61-7.3-3.87q-3.41-1.76-7-3.23c-2.16-.9-4.77-2.28-7.12-2.42a1.76,1.76,0,0,0-1.63.62c-1.63,2.56-.67,5.34,1.48,7.26a1.77,1.77,0,0,0,2.71-.65l.64-1.54-2.71.65c1.9,2,2.55,5,4.46,7.08A18.35,18.35,0,0,0,74,158.44c1.51.66,3.28-1.24,2.14-2.62-2.34-2.84-5.67-4.57-8.22-7.23a54.87,54.87,0,0,1-7.24-9.23L59,142.1c5.83.38,11,2.75,16.12,5.34,2.33,1.17,4.64,2.39,7,3.46,3,1.36,6.26,2.26,9,4.17l1.82-3L90.27,151a1.76,1.76,0,0,0-1.42,3.21c3.29,1.94,6.87,3.35,10.13,5.34a19.84,19.84,0,0,1,4,3.08c.52.53,4.31,5.65,2.8,6-2.18.49-1.85,4,.35,3.49Z"/><path class="cls-7" d="M110,173.36c1.83.54,2.77,1,4.32-.39a11.43,11.43,0,0,0,3.33-5l-1.67-.49a6.85,6.85,0,0,1-.68,2.21c-.44.83-.5,1-1.33,1-.47,0-1.12-.27-1.62-.29a6.76,6.76,0,0,0-1.75.16c-1.08.23-1,1.92.18,1.75a7,7,0,0,0,4.66-2.21.88.88,0,0,0-1.36-1.11,5.2,5.2,0,0,1-3.48,1.57l.18,1.75a7.88,7.88,0,0,1,3.18.2,2,2,0,0,0,1.61-.31c1.3-.92,1.92-3,2.15-4.49.15-.95-1.34-1.46-1.67-.49a10,10,0,0,1-2,3.54,5.1,5.1,0,0,1-1.4,1.3c-.65.26-1.3-.1-2-.3-1.07-.32-1.79,1.28-.71,1.6Z"/><path class="cls-7" d="M109.87,172.86a4.62,4.62,0,0,0-2.68-1.17c-1.12-.1-1.4,1.64-.27,1.73a3,3,0,0,1,1.84.79c.84.75,1.95-.61,1.11-1.36Z"/><path class="cls-7" d="M110.9,174.22c3.22,0,3.22-5,0-5s-3.22,5,0,5Z"/><path class="cls-7" d="M74.28,189.94a49.82,49.82,0,0,0,22.64,7c1.76.08,4.9,0,5.69-2s-1.65-4.15-2.94-5.44c-5.2-5.22-12.49-6.89-19.59-7.51-2.54-.22-6.33-1.05-8.48.79s-1,4.53-.17,6.56c.44,1,2.11.47,1.66-.56-.83-1.93-2-4.15,1.86-5.31,1.17-.35,3,.1,4.24.2a61.21,61.21,0,0,1,6.17.77c4.86.9,9.63,2.83,13.16,6.4,1,1,3.12,2.75,1.26,4.16-.86.65-3.27.18-4.14.09a58.33,58.33,0,0,1-6.28-1.1A48.05,48.05,0,0,1,75,188.35c-1-.58-1.72,1-.76,1.58Z"/><path class="cls-8" d="M102,194.47c5,.87,5.26-7.37,4.54-10.4-.25-1.06-1.66-.56-1.71.34a7.54,7.54,0,0,1-3.43,6.07.88.88,0,0,0,1,1.46,9.4,9.4,0,0,0,4.2-7.65l-1.71.34a10.16,10.16,0,0,1,.09,4.71c-.28,1.19-1,3.69-2.65,3.4a.88.88,0,0,0-.32,1.72Z"/><path class="cls-7" d="M75,186.09l-.78-.39c-1.7-.85-2.93,1.12-2.22,2.56a3.49,3.49,0,0,0,3.79,2l-.25-3.5a2.72,2.72,0,0,1-2.14-.13c-1.9-.6-2.88,2.52-1.08,3.31a14.38,14.38,0,0,0,10.82.57c2.61-.94,4.15-2,7.11-1.28,3.52.8,6,1.57,7.52,5.16L99.38,192c-3,0-6.6-1.69-9.47-2.51l1,2.87a3.68,3.68,0,0,1,3.21.46l1.51-3.17c-4.39-1.75-9.22-3.19-13.26.11-.91.74-1.18,2.56.22,3a106.4,106.4,0,0,0,12.86,3.57l.2-3.47a15.54,15.54,0,0,1-14.72-5.56L80,190a30.28,30.28,0,0,1,7.7-1.91c1.88-.21,2.27-3.27.2-3.47-2.35-.23-4.7-.4-7.06-.45a15.47,15.47,0,0,0-3.48.15c-.56.12-1.42.91-1.56.1l-2.07,1.85a81.23,81.23,0,0,0,10,.41l-.25-3.5-11.13.41c-2.26.08-2,3.58.25,3.5l11.13-.41c2.27-.08,2-3.55-.25-3.5a73.81,73.81,0,0,1-9.1-.36c-1-.1-2.28.65-2.07,1.85.3,1.77,1,3.86,3.21,3.86,1.41,0,2.78-.8,4.25-.88a50.4,50.4,0,0,1,7.49.42l.2-3.47a33.74,33.74,0,0,0-8.58,2.08,1.77,1.77,0,0,0-.9,2.63,19.09,19.09,0,0,0,17.89,7.12,1.76,1.76,0,0,0,.2-3.47,99.19,99.19,0,0,1-12-3.29l.22,3c3-2.49,6.54-1.17,9.8.14a1.76,1.76,0,0,0,1.51-3.17c-2.7-1.37-5-1.68-7.38.41-1.1,1-.11,2.56,1,2.87,3.27.92,7,2.59,10.37,2.56a1.76,1.76,0,0,0,1.54-2.31c-2.22-5.23-5.84-6.79-11.26-7.71a10.48,10.48,0,0,0-6.41,1,11.32,11.32,0,0,1-9.6.18L72.82,190a5.81,5.81,0,0,0,3,.18c2.17-.4,2-3.78-.25-3.5l-.62-.41-2.22,2.56.78.39c2,1,3.54-2.16,1.51-3.17Z"/><path class="cls-8" d="M103.41,193.6a12.5,12.5,0,0,0,1.92-4.45.88.88,0,0,0-1.72-.32,10.22,10.22,0,0,1-1.52,3.62c-.62.92.69,2.08,1.33,1.15Z"/><path class="cls-8" d="M101.14,191.48l-1,1.11a.88.88,0,0,0,1.33,1.15l1-1.11a.88.88,0,0,0-1.33-1.15Z"/><path class="cls-8" d="M101.37,195.07a6,6,0,0,0,2.71-.58l-.94-1.4c-.78.84-1.94,1-2.78,1.78a.88.88,0,0,0,.73,1.45c3.48-.66,4.68-3.09,5.31-6.35a.88.88,0,0,0-1.72-.32c-.45,2.34-1.07,4.43-3.71,4.93l.73,1.45a7,7,0,0,1,1.51-.75,4.85,4.85,0,0,0,1.27-1c.56-.61-.14-1.78-.94-1.4a5,5,0,0,1-2.27.49c-1.13,0-1,1.73.12,1.75Z"/><path class="cls-7" d="M68.19,179.22c8.09,3.65,17.6,6.55,26.59,5.71,2.45-.23,5.38-1.08,5.67-3.93.36-3.51-3.68-5.56-6.32-6.76-8-3.64-18.15-6.27-27-5.39-1.88.19-5.83.38-5.73,3,.12,3,4.38,5.78,6.64,7,1,.54,1.68-1.08.69-1.61a13.08,13.08,0,0,1-4.59-3.8c-1.51-2.13-.58-2.23,1.61-2.64a30.77,30.77,0,0,1,9.48.07,65.86,65.86,0,0,1,17.1,4.48,21.09,21.09,0,0,1,3.84,1.94,6.36,6.36,0,0,1,2,1.74q.55,4.17-3,4.1a31.63,31.63,0,0,1-8.63-.29,63,63,0,0,1-17.67-5.25.88.88,0,0,0-.69,1.61Z"/><path class="cls-8" d="M100.22,183.45c1.52-1.16,3.07-2.28,4.57-3.47a6.08,6.08,0,0,0,2.31-2.75c.81-2.69-2.23-5.69-3.84-7.38-.75-.79-2.15.14-1.42,1a5.39,5.39,0,0,1,1.15,3.61c-.17,2-2.07,2.81-3.71,3.45a.88.88,0,0,0,.63,1.64c1.94-.75,4.3-1.92,4.77-4.15a7.21,7.21,0,0,0-1.41-5.58l-1.42,1c1.65,1.73,5,5,2.42,7.28-1.58,1.4-3.4,2.59-5.08,3.87-.9.68.13,2.1,1,1.42Z"/><path class="cls-7" d="M98.61,181.3c-.38-1,.19-2-.28-3.08a4.89,4.89,0,0,0-2.15-2.12c-1.74-1-3.52-1.9-5.27-2.9a13.18,13.18,0,0,0-4.06-1.38c-4-.79-8-1.32-12-1.92-3.22-.48-7-1-10.15.06-1.84.62-3.35,2.37-2.06,4.24.81,1.18,2.32,1.47,3.61,1.93l6.53,2.33c4.17,1.49,8.33,3.19,12.59,4.42a16.94,16.94,0,0,0,4.64.77,13.84,13.84,0,0,0,2.43-.19c1-.17,1.41,0,1.27-.91L96.49,181a9.21,9.21,0,0,1-3.55-4.19c-.54-1.24-2.8-1.65-3.25-.06a25.9,25.9,0,0,0-.78,3.64l3.37-.38a9.15,9.15,0,0,1-1.07-4.06,1.77,1.77,0,0,0-3.11-.9,23.62,23.62,0,0,0-2.74,4.68l3.36.49a17.44,17.44,0,0,1-.1-4.74,1.77,1.77,0,0,0-3.11-1.35,32.86,32.86,0,0,0-3,4.34l3.35.94.74-3.3a1.76,1.76,0,0,0-1.93-2,11.25,11.25,0,0,0-2.9,1l2.38,1.44-.22-1.81a1.77,1.77,0,0,0-2.77-1.22,20.4,20.4,0,0,0-2.46,2.43l3.11,1.35a16.12,16.12,0,0,0-.09-2.86,1.77,1.77,0,0,0-2.77-1.22l-1.33,1.1,2.45.39-.57-.92a1.76,1.76,0,0,0-2.05-.6l-1.06.53,2.37,1.89.17-1.67A1.77,1.77,0,0,0,76.48,172l-1.93.82,1.73.26a11.64,11.64,0,0,0-9.21-2.07A1.78,1.78,0,0,0,65.52,173c1.57,8.16,13.47,10.23,20.33,10.32,2.25,0,1.84-3.46-.39-3.49-4.54-.06-15.36-1.58-16.45-7.22l-1.55,1.94a9.12,9.12,0,0,1,3.7-.07c1.19.26,2,1.17,3.12,1.51,1.35.43,2.1-.1,3.46-.68l-2.37-1.89-.17,1.67c-.12,1.2,1.12,2.51,2.37,1.89l1.06-.53-2.05-.6.57.92a1.76,1.76,0,0,0,2.45.39l1.33-1.1-2.77-1.22.11,2a1.77,1.77,0,0,0,3.11,1.35,9.52,9.52,0,0,1,1.78-1.78l-2.77-1.22.22,1.81A1.77,1.77,0,0,0,83,178.38a6.14,6.14,0,0,1,2-.8l-1.93-2-.74,3.3c-.47,2.12,2.43,2.49,3.35.94a26.71,26.71,0,0,1,2.55-3.53l-3.11-1.35a20.79,20.79,0,0,0,.08,5.64,1.77,1.77,0,0,0,3.36.49,19.56,19.56,0,0,1,2.26-3.87l-3.11-.9A11.33,11.33,0,0,0,89,181.25c.75,1.46,3.12,1.5,3.37-.38a14.59,14.59,0,0,1,.54-2.77L89.66,178a12.73,12.73,0,0,0,4.64,5.67c1.17.8,3.09,0,2.84-1.57a2.75,2.75,0,0,0-2.64-2.61c-1.19-.16-2.41.48-3.6.58a15.1,15.1,0,0,1-5.88-1c-3.45-1.11-6.84-2.44-10.25-3.65l-5.22-1.86c-1.08-.38-3.65-.78-4.31-1.77l.19,1.72c.83-1.76,7.37-.41,8.88-.18,2.82.42,5.63.89,8.45,1.34a20,20,0,0,1,8.46,2.94c1.18.75,3.27,1.13,3.85,2.56.24.6,0,1.61.27,2.36.83,2.1,4.1.84,3.27-1.26Z"/><path class="cls-7" d="M101.1,181.26c1.83-2.07,5.21-3.62,3.75-6.95-.45-1-2.09-.4-1.64.63,1,2.33-2.2,3.77-3.49,5.22-.75.85.62,1.94,1.37,1.09Z"/><path class="cls-8" d="M104.32,175.87c0,.73,0,2-.55,2.51s-1.85.43-2.56.41c-1.11,0-1.38,1.7-.25,1.74s2.84.12,3.86-.65,1.16-2.51,1.24-3.75-1.66-1.38-1.74-.25Z"/><path class="cls-7" d="M99.41,181.64a2.35,2.35,0,0,1-1.95.95.9.9,0,0,0-1,.74.88.88,0,0,0,.74,1,4.18,4.18,0,0,0,3.57-1.59.88.88,0,0,0-1.37-1.09Z"/><path class="cls-7" d="M93.81,184.58c3.22,0,3.22-5,0-5s-3.22,5,0,5Z"/><path class="cls-7" d="M56.81,157.56c10.23,5.36,20.34,11.37,30.86,16.15,2.42,1.1,6.29,2.06,7.75-1.06s-1.59-6.71-3.39-8.74c-3.53-4-8.17-7.15-12.55-10.16-3.55-2.44-7.41-5.44-11.58-6.7a9,9,0,0,0-11.62,9.77c.12,1.12,1.87,1,1.75-.08a7.48,7.48,0,0,1,4.55-8c3.38-1.33,6.73.6,9.57,2.31,6,3.6,12.35,7.71,17.34,12.68,1.3,1.3,4,3.8,4.17,5.8.69,6.21-5.82,2.26-7.38,1.45l-9.56-5L57.6,156a.88.88,0,0,0-.79,1.57Z"/><path class="cls-7" d="M92.66,174.8c2.67,2.06,6.53,4.31,10.06,3.83,3.71-.5,5.39-5.55,7-8.33.47-.79-.56-1.55-1.26-1.13-3.76,2.24-8.81,4.8-12.36.79-.75-.84-1.91.47-1.17,1.31,4.08,4.61,10.06,2,14.48-.63l-1.26-1.13c-1.16,2-2.33,5-4,6.56-2.72,2.61-8.31-1-10.38-2.58-.89-.69-2.06.62-1.17,1.31Z"/><path class="cls-7" d="M93.35,172.63c2.68-5-4.52-9.27-7.57-12-1.73-1.53-3.8,1-2.33,2.62l5.62,6.34c1.18,1.33,3.37-.29,2.84-1.84-2.43-7.06-9.11-10.74-15.74-13.19l-.71,3.32A2.11,2.11,0,0,1,77,158c1.78,1.33,4.11-1.17,2.33-2.62-6.46-5.28-19.56-12.53-21.92.28a1.77,1.77,0,0,0,2.24,2,9.47,9.47,0,0,0,3.06-1.57c1.11-.89,1.82-2.31,3.15-2.36,2.71-.09,7.11,3,9.32,4.36a60.65,60.65,0,0,1,7.7,5.89c2,1.74,6,4.39,5.21,7.34l2.88-.94.3,1.05-2.48.14-.7-.26L89.76,170a6.42,6.42,0,0,1-3.47-1.23l.92,1.93.39-.55a1.8,1.8,0,0,0,.16-2.12c-3.1-5.37-8.1-8.19-13.52-10.81-4.55-2.19-8.89-5.37-13.5-1.51L63.27,158a5.87,5.87,0,0,1,.68-1.1l-2.88-2c-.28.51-.62,1-.93,1.47-1.24,1.89,1.89,3.44,3.13,1.58.41-.62.75-1.66,1.2-2.23.65-.84-.54-.92.44-.27l-.52-2.73c-2.71,3.12-3.21,6.89,1.25,8.53,6.64,2.44,12.77,4.13,17.75,9.54l2.33-2.62c-.46-.36-2.29-1.91-2.29-1.9l-1.67,1.83q-1.14-.32-.21.35.82,1,1.54,2l2.64-2.26A44.52,44.52,0,0,0,72,161.57c-2.18-.62-2.9,2.81-.74,3.43a39.5,39.5,0,0,1,12.14,5.79c1.48,1,3.92-.53,2.64-2.26-.91-1.24-2.52-4.1-4.43-3.93a1.8,1.8,0,0,0-1.67,1.83c0,1.76,2.29,3.45,3.46,4.36a1.76,1.76,0,0,0,2.33-2.62,30,30,0,0,0-9.76-7,53.52,53.52,0,0,0-5.14-2c-1.08-.37-2.27-.59-3.31-1-2.12-.93-2-1.41-.5-3.09a1.79,1.79,0,0,0-.52-2.73c-4-2.64-4.62,1.47-6.35,4.06L63.27,158c.32-.48.66-1,.93-1.47a1.76,1.76,0,0,0-2.88-2,10.12,10.12,0,0,0-1.19,1.85c-.79,1.44,1.15,3.41,2.52,2.26,3.64-3,8.34.84,11.9,2.61,4.24,2.1,7.86,4.48,10.28,8.67L85,167.8a5.14,5.14,0,0,0-1.2,2.15,1.78,1.78,0,0,0,.92,1.93,9.72,9.72,0,0,0,5.21,1.6,1.78,1.78,0,0,0,1.64-1.38c.25-1.17.52-2.18-.4-3.1a1.76,1.76,0,0,0-2.48.14,2.86,2.86,0,0,0,0,3.9,1.77,1.77,0,0,0,2.88-.94c.83-3.15-.41-4.88-2.49-7.15a60.72,60.72,0,0,0-10-8.46,44.9,44.9,0,0,0-10.88-5.64c-1.34-.47-2.6-1.12-4-.59-2.26.89-3.16,3.28-5.55,4.09l2.24,2c.36-2,.85-4.29,3.25-4.68,1.66-.27,3.5.68,5,1.33A34.53,34.53,0,0,1,77,158l2.33-2.62a4.84,4.84,0,0,0-4.07-1c-1.51.22-2.55,2.64-.71,3.32,5.65,2.09,11.88,5,14,11.11L91.4,167l-5.62-6.34-2.33,2.62c1.47,1.3,8,5.43,6.77,7.76-1.07,2,2.06,3.57,3.13,1.58Z"/><path class="cls-7" d="M67.08,157.62v.17l.8-1.55-.17.1,1.74-.09c-1.09-.56-.1-.58.27-.45,1.72.58,2.77-1.94,1.54-3-1.51-1.33-1.94-3.91-3.79-4.82-1.39-.68-3.3-1-4.47.14-1.64,1.54,1,3.87,2.62,2.33l.2-.19-1.23.59c-.13,0,1.24.32,1.3.35-.2-.1.32.56.4.73a11.24,11.24,0,0,0,2.63,3.5l1.54-3c-2.77-.94-5.91,1.41-4.89,4.43a4.35,4.35,0,0,0,2.73,2.73,2,2,0,0,0,2.29-2.06c.08-2.26-3.42-2.08-3.5.16Z"/><path class="cls-7" d="M93.76,172.3l2.69,2.49.54-1.53a4.09,4.09,0,0,1-1.3-.29c-1-.33-1.38,1.16-.58,1.64,1.82,1.11,4.66,2.77,6.9,2.55a3.53,3.53,0,0,0,2.2-1.17c.42-.45,2.12-3.25,2.23-3.18l-.46-1a5,5,0,0,1-.76,1.8c-.65.9-.91,1.06-1.9.52a5,5,0,0,0-2.78-.77l.08,1.75a27.5,27.5,0,0,0,3.15-.48L103,173.1c-1.29,1-3.05,1.65-4.2-.1a.88.88,0,0,0-1.47,1c1.6,2.46,4.47,2.23,6.62.62a.88.88,0,0,0-.74-1.57,23.22,23.22,0,0,1-2.7.4.88.88,0,0,0,.08,1.75c1.62-.05,3.23,2.15,4.79,1.24,1.12-.65,2.09-3,2.28-4.18a.92.92,0,0,0-.46-1c-1.22-.8-2.44.72-3,1.64-1,1.57-1.62,2.7-3.88,2.2a15.49,15.49,0,0,1-4.4-2l-.58,1.64a6.21,6.21,0,0,0,1.74.33c.8,0,1.06-1,.54-1.53L94.92,171c-.83-.77-2,.54-1.17,1.31Z"/><path class="cls-7" d="M95.49,172.08a1.65,1.65,0,0,1-.82.41.9.9,0,0,0-.84.92.88.88,0,0,0,.92.84,3.35,3.35,0,0,0,1.69-.69.9.9,0,0,0,.26-1.21.88.88,0,0,0-1.21-.26Z"/><path class="cls-7" d="M90.58,173.49c.7,1.59,2.85,2,4.33,2.66l.58-1.64a38.65,38.65,0,0,1-6.18-2.91.88.88,0,0,0-.79,1.57,41,41,0,0,0,6.6,3.06c.94.3,1.49-1.25.58-1.64l-1.82-.77c-.4-.17-1.44-.41-1.63-.84-.45-1-2.13-.5-1.67.53Z"/><path class="cls-7" d="M67.93,160.12c3-.11,5.74-1.83,8.8-2.09s2.87-5.06-.22-4.8a21.73,21.73,0,0,0-4.72.9,15.57,15.57,0,0,1-4.07,1.2c-3.09.11-2.87,4.91.22,4.8Z"/><path class="cls-7" d="M90,167.43a11.86,11.86,0,0,1-1.4-1.17,2.42,2.42,0,0,0-3.39.2,2.45,2.45,0,0,0,.2,3.39,11.86,11.86,0,0,0,1.4,1.17,2.62,2.62,0,0,0,1.71.61,2.45,2.45,0,0,0,1.68-.8,2.43,2.43,0,0,0-.2-3.39Z"/><path class="cls-7" d="M96.84,176.27c3.22,0,3.22-5,0-5s-3.22,5,0,5Z"/><path class="cls-7" d="M99.09,177.31c3.22,0,3.22-5,0-5s-3.22,5,0,5Z"/><path class="cls-9" d="M171.35,78a18,18,0,0,0,4.25,1.95c1.38.49,3.5.78,4.5,1.91,1.79,2,5.31-.78,3.71-3a15.15,15.15,0,0,0-3.72-3.7c-.42-.29-1.52-.65-1.79-1.07a14.35,14.35,0,0,1-.06-2.25c-.34-3-5.14-3-4.8.1.24,2.16-.18,4.11,1.65,5.72,1.56,1.37,3.35,1.95,4.62,3.71l3.71-3c-2.37-2.69-6.83-2.61-9.73-4.59-2.56-1.75-4.86,2.47-2.33,4.2Z"/><path class="cls-6" d="M222.36,187.23a1.61,1.61,0,0,1-1.13-1,2.4,2.4,0,0,0,4.6-1.38,3.54,3.54,0,0,0-2.3-2.23,2.41,2.41,0,0,0-1.84.28,2.45,2.45,0,0,0-1.07,1.46,2.47,2.47,0,0,0,1.74,2.92Z"/><path class="cls-6" d="M231.59,168.12q-.55.07-.14,0t-.15,0l.32.07q-.48-.21-.12,0a2.4,2.4,0,1,0,2.33-4.2,5.59,5.59,0,0,0-3.62-.43,2.4,2.4,0,0,0-1.41,1.13,2.4,2.4,0,0,0,2.79,3.47Z"/><path class="cls-6" d="M233,147.71a6.57,6.57,0,0,1,3.33-1,2.42,2.42,0,0,0,1.94-2.78,2.45,2.45,0,0,0-2.78-1.94,11.31,11.31,0,0,0-5.6,2.11,2.42,2.42,0,0,0-.27,3.38,2.46,2.46,0,0,0,3.38.27Z"/><path class="cls-6" d="M213.62,110.2c.43-.4,1.45-1.53,2-.87l1.92-2.62a4.4,4.4,0,0,0-2.66-.13c-2,.41-1.41,3.52.54,3.43.19,0,2.35-.15,2.36-.1q-.82-.73-.35.05.16.38.3.78a2.82,2.82,0,0,1,.24,1.66,8.65,8.65,0,0,0-.28,1.62c0,2.26,3.52,2.18,3.51-.08,0-1,.52-1.64.34-2.68a11.6,11.6,0,0,0-1.15-3.23c-1.08-2-3.06-1.61-5-1.53l.54,3.43a1.15,1.15,0,0,1,.8.17c1.37.54,2.84-1.46,1.92-2.62a4.26,4.26,0,0,0-3.42-2c-1.56.06-3,1.27-4.07,2.28-1.65,1.54.89,4,2.53,2.43Z"/><path class="cls-6" d="M233.55,147.71a3.35,3.35,0,0,1,2.13-1.15c.21-.43.32-.73.67-.78,1.64-.24,1.59-2.42.47-3.21-1.39-1-3.29-2.17-4.94-1.15-1.44.9-2.89,2.22-2.07,4a1.67,1.67,0,0,0-1.27,2c1.68-.29,3.2.18,5,.33Z"/><path class="cls-6" d="M230.67,167c1.78,0,6.31.08,5.58-2.84a4,4,0,0,0-1.89-2.53,14.55,14.55,0,0,0-3.14-.86c-2.2-.53-3.06,2.87-.86,3.4.7.17,1.4.33,2.1.5l.31.08q.26.09-.1-.07c.06.2.17.28.21.48l.15-1.35-.07.13.62-.64c.28-.16-.28,0-.31,0l-.89.1c-.59.06-1.19.09-1.78.1a1.75,1.75,0,0,0,.08,3.51Z"/><path class="cls-6" d="M223.33,186a2.52,2.52,0,0,1,1,.54,3.32,3.32,0,0,0,2,.91,1.75,1.75,0,0,0,1.66-1.32c.32-1.82-.8-3.37-1.87-4.74a1.81,1.81,0,0,0-2.41-.58,1.77,1.77,0,0,0-.58,2.41c.33.43.65.87.94,1.32.12.19.25.39.36.6s0,.23.11.2q.11.46,0-.07l1.66-1.32-.2,0,.89.22a12.82,12.82,0,0,1-1.19-.86,6.11,6.11,0,0,0-1.61-.68c-2.18-.6-3,2.8-.86,3.4Z"/><path class="cls-6" d="M68.24,107.2a10.41,10.41,0,0,0,1.95,8.73c1.17,1.47,3.75.63,3.18-1.42-.14-.5-.3-1-.39-1.52s.17-1.15-.36-.89l-1.35.21.32.11c2.15.71,3-2.7.86-3.4a2.31,2.31,0,0,0-3,1.82,9.8,9.8,0,0,0,.53,4.68l3.18-1.42a7.05,7.05,0,0,1-1.53-6c.47-2.21-2.93-3.07-3.4-.86Z"/><path class="cls-10" d="M100.68,166.17l3.06,7.26,2.89-1.77a3.51,3.51,0,0,1-1.56-1.94c-.8-2.07-4-1.18-3.36,1a27.44,27.44,0,0,0,10.7,14.59c6.16,4.2,13.58,4.9,20.81,5.44,1.81.13,2.23-2.48.81-3.29-3.81-2.15-8.18-3-12-5.18-3.23-1.87-5.81-4.41-9.35-5.75-1.41-.54-2.79,1.44-1.92,2.62a30,30,0,0,0,7.9,7.48c1.65,1.08,3.67-1.6,2.06-2.8-1.19-.89-13.11-9.44-13.11-9.44l-2.39.68c4.87,3,10.07,7.25,15.8,8.33l.39-3.45a9.52,9.52,0,0,1-3.84-1.19L116.34,182l12.37,4.27c1.88.65,3-2.34,1.28-3.23a17.64,17.64,0,0,0-7.8-2c-1.95,0-2.36,3.14-.39,3.45,6.79,1.09,12.86,5,19.9,4.58,2.32-.13,2.11-3.28-.08-3.51-5.38-.57-10.86-1.62-14.92-5.46l-1.64,3c10.47,4,23,7.17,32.68-.43L155.55,180A18.85,18.85,0,0,1,143,185.33c-3.61.13-7,.1-10.09,2.24-1.35.94-.88,3.35,1,3.25l9.11-.53-.54-3.43a22.7,22.7,0,0,1-13.94.36l-.86,3.4a52.4,52.4,0,0,1,9.8,2.5l.86-3.4-4.89-1.13a1.76,1.76,0,0,0-1.28,3.23c2.72,1.78,5.94,1.55,9.06,1.59a101.77,101.77,0,0,0,11.66-.09c7.85-.8,15-4.66,22.16-7.81l-1.77-2.89a30.71,30.71,0,0,1-7.49,4.27c-3.22,1.39-5.59,1.09-8.92.48-4.93-.91-9.78-1.52-14.58.29-1.79.67-1.52,3.48.54,3.43,3.62-.08,7.22-.34,10.82-.77l-.54-3.43-1.79.33,1.77,2.89c3.4-3.47,7.91-5,12.44-6.39l-1.77-2.89a14.71,14.71,0,0,1-8.14,4.1c-1.81.28-2.49,3-.39,3.45a35.8,35.8,0,0,0,12.9.76c2.19-.27,2.22-3.63-.08-3.51l-5.5.29,1,3.25,12.1-5.63-1.84-3a39.8,39.8,0,0,1-9.87,3.3l1.77,2.89a30.61,30.61,0,0,1,12.65-6.46l-1-3.36q-6.41,2-12.94,3.5l1.42,3.18a60.77,60.77,0,0,1,13.55-6.73l-2.26-1.64c.51,3.36-1.41,5.82-3.45,8.26a1.78,1.78,0,0,0,1.3,3,3.44,3.44,0,0,0,3.3-2c.93-1.68-1.58-3.71-2.8-2.06l-1.64,1.27,1.42,3.18a28.56,28.56,0,0,0,9.94-10.6,1.78,1.78,0,0,0-.68-2.39,9.17,9.17,0,0,0-6.3-.84,1.77,1.77,0,0,0-1,2.6,2.85,2.85,0,0,0,3,1.5,9.68,9.68,0,0,0,1.49-.52l1-.84a2,2,0,0,1-1.44,2.17c-1.79,1.34,0,4.35,1.84,3,2.27-1.7,4.77-4.37,2.83-7.31a3.34,3.34,0,0,0-2.74-1.64c-.5,0-3.63.76-3,1.82l-1,2.6a4.55,4.55,0,0,1,3.59.54l-.68-2.39a24.92,24.92,0,0,1-8.71,9.32c-1.65,1-.51,3.81,1.42,3.18a5.73,5.73,0,0,0,3.17-2.2l-2.8-2.06-.31.21,1.3,3c2.59-3.11,5.07-6.51,4.42-10.76a1.78,1.78,0,0,0-2.26-1.64A64.5,64.5,0,0,0,164,180.62a1.76,1.76,0,0,0,1.42,3.18q6.53-1.53,12.94-3.5a1.76,1.76,0,0,0-1-3.36,34.34,34.34,0,0,0-14.18,7.39c-1.47,1.25.25,3.2,1.77,2.89a43.28,43.28,0,0,0,10.7-3.68c2-1,.18-3.93-1.84-3l-12.1,5.63c-1.61.75-.69,3.34,1,3.25l5.5-.29-.08-3.51a33.15,33.15,0,0,1-12-.65l-.39,3.45a18.91,18.91,0,0,0,10.59-5.19,1.77,1.77,0,0,0-1.77-2.89c-5.13,1.61-10.13,3.4-14,7.32-1.33,1.36.16,3.19,1.77,2.89l1.79-.33c1.93-.35,1.42-3.67-.54-3.43-3.6.43-7.19.69-10.82.77l.54,3.43c3.79-1.42,7.52-1.16,11.44-.48,2.49.43,5.15,1.36,7.69,1.16,4.5-.36,10-3.89,13.38-6.65,1.32-1.08-.2-3.59-1.77-2.89-6.31,2.8-12.74,6.27-19.61,7.43a55.61,55.61,0,0,1-10,.37c-3.27,0-7.7.66-10.54-1.2L132.57,192l4.89,1.13c2.24.52,2.94-2.65.86-3.4a52.4,52.4,0,0,0-9.8-2.5,1.76,1.76,0,0,0-.86,3.4,26,26,0,0,0,15.8-.4c1.81-.62,1.51-3.55-.54-3.43l-9.11.53,1,3.25c3.83-2.67,8.81-1.23,13.14-2.25,3.92-.92,7.23-3.28,10.17-5.92,1.46-1.31-.61-3.94-2.18-2.71-9,7-20.36,3.7-30,0-1.7-.65-2.83,1.85-1.64,3,4.79,4.52,11.08,5.77,17.42,6.44l-.08-3.51c-6.65.38-12.52-3.44-19-4.48l-.39,3.45a13.39,13.39,0,0,1,6,1.53l1.28-3.23L117.2,178.6c-1.9-.66-3,2.31-1.28,3.23a13.78,13.78,0,0,0,5.62,1.63c2,.17,2.32-3.09.39-3.45-5.37-1-10.37-5.19-15-8a1.76,1.76,0,0,0-2.39.68c-1.2,2.78,1,4.17,3.12,5.72l10.62,8,2.06-2.8a25,25,0,0,1-6.61-6.25l-1.92,2.62c3.56,1.35,6.18,4.27,9.55,6,3.54,1.8,7.45,2.66,10.92,4.62l.81-3.29c-6.27-.46-12.74-1-18.19-4.44a23.74,23.74,0,0,1-9.88-13.08l-3.36,1a7.32,7.32,0,0,0,2.49,3.47c1.21.93,3.65,0,2.89-1.77L104,165.16c-.87-2.06-4.24-1.08-3.36,1Z"/><path class="cls-10" d="M183.62,176.17c2.4-.28,5.12-2.27,5.62-4.8.11-.55-.12-1.09,0-1.63s.82-1,1.14-1.54,1.6-4.19.33-3.51l-1.77,0h0l-.21-1.35c-.24,1-1,1.87-1.24,2.89-.32,1.21,0,2.45-.29,3.61a13.56,13.56,0,0,1-1.66,2.79,14.41,14.41,0,0,0-1.27,3.26l2.55-1.1c-.31-.16-.76-3.57-.81-3.92-.31-2.21-3.82-2.16-3.51.08s.48,5.82,2.61,6.91a1.78,1.78,0,0,0,2.55-1.1,15.24,15.24,0,0,1,2.58-4.69c.91-1.37.5-2.19.5-3.77,0-2.12,3-5,.07-6.57-2.35-1.23-3.18,1.13-3.15,2.93s-1.19,2.34-1.76,3.9-.22,3.82-2.43,4.08-2.17,3.77.08,3.51Z"/><path class="cls-7" d="M194.64,166.85l-.65-.42a1.77,1.77,0,0,0-2.61,1.57c0,1.22-.49,2.26,0,3.44s2,2.41,3,3.26a31.48,31.48,0,0,0,8.39,5.11,70.32,70.32,0,0,0,10.4,3.1c2.76.66,5.93,2,8.67.61,1.54-.77,3.06-2.27,2.47-4.08-.74-2.27-4.38-3.27-6.36-4a42.78,42.78,0,0,0-5.38-1.38c-1.75-.43-3.34-1.27-5.05-1.82-3.75-1.19-7.9-1.23-10.84-4.17a1.76,1.76,0,0,0-2.71,2.18c2.14,3.32,5.49,6.74,9.34,7.94,5.19,1.63,11.27,2,16,4.9,1.93,1.19,3.62-1.88,1.7-3.07-3.57-2.2-8.1-3.08-12.13-4.11-2.07-.53-4.43-.75-6.3-1.86a19,19,0,0,1-5.59-5.65l-2.71,2.18c3,3,6.81,3.61,10.74,4.59,2.53.63,4.84,1.81,7.38,2.4s5.24,1.11,7.53,2.58q1.9.72.5.49l-2.61-.21c-1.25-.2-2.54-.61-3.77-.9-2.38-.57-4.77-1.13-7.11-1.89-4.31-1.4-12.18-4.36-12.08-9.69l-2.61,1.57.65.42c1.9,1.22,3.6-1.85,1.7-3.07Z"/><path class="cls-7" d="M192.39,163.08l.64,2.05,2.18-1.74-.62-.18,1.25,1.2-.21-.61-2.53,2c2.29,1.53,5.1,2.14,7.71,3,3.35,1.08,7.24,1,10.72,1.06A67.55,67.55,0,0,0,224,169c2.3-.42,4.66-1.32,5.68-3.61a4.32,4.32,0,0,0-1-5.17c-2.2-1.83-5.5-1.19-8.08-1-4,.32-8,.75-12,1a33.76,33.76,0,0,1-7.11-.77c-1.72-.26-3.48.08-5.17-.32a1.8,1.8,0,0,0-2.13,1.27c-2,5.43,9.17,4.3,11,6l1.64-3a41.92,41.92,0,0,0-6.6-1c-2-.11-2.31,3-.39,3.45,5,1.08,10.15,2.57,15.32,2.6a34.6,34.6,0,0,0,7.38-.85c1.57-.33,4.45-.56,5.6-1.94,2.12-2.55-1.54-4.11-3.55-4.11a31.57,31.57,0,0,0-6.32,1,30.59,30.59,0,0,1-10.21.44l-.39,3.45,12.19-1.34c2.23-.24,2.17-3.75-.08-3.51L207.54,163c-1.8.2-2.5,3.19-.39,3.45a34.12,34.12,0,0,0,9.21,0c1.2-.17,8.69-1.18,8.7-2l.84-1.53c-3.46,2.07-9.22,2.22-13.1,1.87a105.08,105.08,0,0,1-12.16-2.37l-.39,3.45a35.8,35.8,0,0,1,5.66.88,1.77,1.77,0,0,0,1.64-3,7.54,7.54,0,0,0-4.1-2c-.51-.08-6-.54-6-.65l-2.13,1.27c2.32.55,4.68.26,7,.71a25.81,25.81,0,0,0,6.82.44c2.9-.2,5.8-.46,8.7-.7,1.07-.09,6.88-1.29,7.69-.38,2.63,3-7.18,3.56-8.12,3.62a79.33,79.33,0,0,1-8.05.14,25.28,25.28,0,0,1-9-1.45c-1.89-.78-3.88-1-5.6-2.11a1.77,1.77,0,0,0-2.53,2,2.52,2.52,0,0,0,2.08,2,1.77,1.77,0,0,0,2.18-1.74,9.73,9.73,0,0,0-1.16-3.81c-1.06-2-4-.15-3,1.84Z"/><path class="cls-7" d="M188.54,154.22a33.58,33.58,0,0,1-1.19,5.31l3.4.86a53.65,53.65,0,0,1,2.5-6.87l-3.29-.81a29.1,29.1,0,0,1,.16,4.9,1.76,1.76,0,0,0,1.32,1.66c2.6.59,5-.95,7.52-1.39,2.29-.39,4.49-.21,6.56-1.38l-1.84-3c-1.55,1.18-3.74,2.77-5.5,1.6-1.49-1-2.77-2.94-4.18-4.11L193.3,154c5.46-1.25,11.07-.86,16-3.76l-2.18-2.71c-3,3.09-7.06,4.25-11.1,5.36a1.77,1.77,0,0,0,.07,3.38,22.87,22.87,0,0,0,10.63,0l-2-2.53-1.17.78c-1.72.71-1.58,3.52.54,3.43,5.56-.22,10.86-2.84,16-4.74,2.49-.92,5-1.82,7.47-2.76,1.86-.7,4-1.32,5.32-2.95,2.08-2.62.7-6.2-1.88-7.89-4.06-2.67-8.59-.52-12.28,1.7-1.38.83-.84,3.52,1,3.25,2-.29,3.76,0,5.69-.13q1.48.85,2-.8a7.47,7.47,0,0,1-2.61,1.57,49.7,49.7,0,0,1-7.82,1.85c-3,.64-6.08,1.26-9.11,1.91-2.38.51-4.6.93-6.19,2.92-.84,1-.35,3.18,1.3,3l8-1c1.6-.21,3.55-.21,5-.93s2.94-2.27,4.45-3.25c2-1.29,4.07-2.45,6.1-3.66,1.41-.85.82-3.46-1-3.25A66.7,66.7,0,0,0,207,147.55l1.42,3.18a37.2,37.2,0,0,1,10.62-5.08,1.76,1.76,0,0,0-1-3.36,40.17,40.17,0,0,0-11.45,5.45c-1.54,1.06-.51,4,1.42,3.18a63.47,63.47,0,0,1,17.59-4.71l-1-3.25c-3,1.8-6,3.55-8.85,5.63-3.32,2.44-8.89,2.2-12.94,2.73l1.3,3c1.48-1.84,4.45-1.94,6.61-2.39l7.16-1.5c3.63-.76,7.78-1.17,10.86-3.42,1.52-1.11,2.94-3.14,1.13-4.75-2.33-2.07-7.57-1.61-10.34-1.19l1,3.25a15,15,0,0,1,4.9-2.32c2-.35,7.13,1.12,3.76,4-1.9,1.64-6,2.29-8.27,3.14-5.34,2-11.19,5.05-16.94,5.28l.54,3.43a6.44,6.44,0,0,0,3.23-2.44c1-1.36-.7-2.84-2-2.53a18.67,18.67,0,0,1-8.76-.06l.07,3.38c4.67-1.28,9.18-2.74,12.63-6.29a1.76,1.76,0,0,0-2.18-2.71c-4.59,2.67-10.16,2.23-15.22,3.39a1.76,1.76,0,0,0-.71,2.95c1.82,1.52,4,5.07,6.29,5.63,2.53.62,5.75-1.22,7.66-2.67a1.76,1.76,0,0,0-1.84-3c-1.55.88-3.77.63-5.5.94s-4.23,1.79-5.88,1.42l1.32,1.66a29.1,29.1,0,0,0-.16-4.9c-.18-1.54-2.51-2.57-3.29-.81a60.33,60.33,0,0,0-2.84,7.71c-.63,2.18,2.74,3,3.4.86a33.58,33.58,0,0,0,1.19-5.31c.31-2.22-3.09-3.09-3.4-.86Z"/><path class="cls-7" d="M98.48,175.47l.75.59a1.78,1.78,0,0,0,3-1.3,9.29,9.29,0,0,0-.24-2l-3.18,1.42,1.64,2.48.58-2.41a54.64,54.64,0,0,1-13.77,6.7A45.85,45.85,0,0,1,80.09,183c-1.34.23-7.29,1-7.77-.93-.34-1.36,13-3.6,14.26-3.72a52.79,52.79,0,0,0,13.05-2.55l-2.2-2.11c-.36,1.27-5.89,2.83-7.16,3.15-2.35.59-4.63-.1-7,.41s-4.5,1.22-6.91,1.55a17.87,17.87,0,0,0-5.91,1.65,1.77,1.77,0,0,0,.49,3.2c5.7.94,11.24-.8,16.77-2.05,2.2-.5,1.19-3.86-1-3.36-4.82,1.09-9.93,2.83-14.9,2l.49,3.2c2.75-1.38,5.9-1.13,8.83-1.87a19,19,0,0,1,4.77-1,26.45,26.45,0,0,0,3.4.06c3.35-.43,10.46-2.32,11.51-6.06a1.77,1.77,0,0,0-2.2-2.11c-6.79,2.35-13.88,2.41-20.85,4.06-3.73.88-11.32,1.74-8.63,7.67.86,1.89,3.33,2,5.15,2.33a21.49,21.49,0,0,0,9-.63,62.38,62.38,0,0,0,19.5-8.64,1.78,1.78,0,0,0,.58-2.41l-1.64-2.48a1.76,1.76,0,0,0-3.18,1.42l.1,1.09,3-1.3-.75-.59c-1.76-1.39-4.2,1.13-2.43,2.53Z"/><path class="cls-7" d="M64.39,170.63c4.78,2.15,10.22,2.43,15.39,2.89,4.94.44,9.8-1.88,14.64-1.28,2.84.35,5.6-.82,6.39-3.81.65-2.48-1-6-3.81-6.39-4.94-.6-9.22.81-14.08,1.07a36.93,36.93,0,0,1-6.19-.42c-2.33-.27-5-.27-7.22-1.25-6.15-2.76-11.29,6.42-5.11,9.2Z"/><path class="cls-7" d="M61.35,156.67l1.45.28c5.58,1.06,9.47-6.95,3.84-9.7l-.54-.39-3.52,9.06c5.85.57,11.54,2.24,17.24,3.6s11.91,1.61,17.43,3.59l-1.47-9.59-.58.3,2.64-.78c-4.77.58-9.6-.86-14.27-1.63s-9.72-.25-14.14-1.82c-6.39-2.27-8.9,8-2.58,10.21,5.37,1.91,11.66,1.35,17.26,2.38,5.26,1,12.14,2.87,17.17.31,4.44-2.26,2.38-8.21-1.47-9.59-5.89-2.11-12.56-2.4-18.67-3.89a134.82,134.82,0,0,0-18.8-3.62c-4.88-.48-6.34,6.1-3.52,9.06a8.86,8.86,0,0,0,2.71,2l3.84-9.7-1.45-.28c-6.63-1.26-9.24,8.94-2.58,10.21Z"/><path class="cls-7" d="M60.61,140.17c9.87,9.73,25.54,10.4,38.46,12.76,6.62,1.21,9.25-8.89,2.58-10.21a88.41,88.41,0,0,1-9.14-2c-2.48-.77-4.84-1.85-7.35-2.56-5.47-1.56-11.15-2.22-15.8-5.81l-4.93,8.9c2.94,1.14,6,1.4,8.93,2.38s5.89,2,8.92,2.86c6.83,1.89,13.69,3.68,20.53,5.52,6.55,1.76,9.11-8.45,2.58-10.21-6.84-1.84-13.7-3.63-20.53-5.52-3-.84-5.95-1.88-8.92-2.86s-6-1.24-8.93-2.38c-4.84-1.87-9,5.77-4.93,8.9,5.55,4.29,11.47,6.14,18.19,7.81,3,.74,5.75,1.83,8.63,2.82a76.53,76.53,0,0,0,10.16,2.31l2.58-10.21c-6.38-1.16-12.8-2.21-19.14-3.53-5.4-1.13-10.59-2.66-14.61-6.62-4.83-4.76-12.11,2.84-7.28,7.6Z"/><path class="cls-11" d="M100.39,165.18a5.42,5.42,0,0,0-2-.75c-.55-.09-.77.76-.21.85a4.76,4.76,0,0,1,1.76.67c.48.3.9-.47.43-.77Z"/><path class="cls-11" d="M76,163.89c7.75,2,15.81.76,23.61,2.34.55.11.77-.74.21-.85C92,163.81,83.92,165,76.18,163a.44.44,0,0,0-.21.85Z"/><path class="cls-11" d="M100.55,154.41a2,2,0,0,1-1.45-.49c-.43-.37-1,.26-.61.63a2.94,2.94,0,0,0,2.08.74.44.44,0,0,0,0-.88Z"/><path class="cls-11" d="M70.39,147.82c1.43.52,2.87.58,4.31,1.06.8.27,1.59.7,2.38,1a60.89,60.89,0,0,0,7.66,2.34c5.22,1.28,10.63,2,15.72,3.74.53.19.74-.67.21-.85-5.09-1.77-10.5-2.46-15.72-3.74a58,58,0,0,1-8.69-2.76c-1.9-.8-3.73-1-5.65-1.65-.53-.19-.74.66-.21.85Z"/><path class="cls-7" d="M100.79,153c-9.75-1.32-18.92-4.92-28.55-6.84-4.36-.87-16.61-4-16.31,3.9.29,7.6,10.79,9.63,16.38,11.22a93.58,93.58,0,0,0,27.41,3.77.88.88,0,0,0,0-1.75A88,88,0,0,1,78.19,161c-3.26-.76-6.48-1.67-9.66-2.7-3.64-1.17-8.24-2.26-10.14-6L57.69,150l2.46-3.2c.81-.46,2.2-.21,3.09-.18a47.31,47.31,0,0,1,6.08.76c3.35.57,6.67,1.35,10,2.22,7,1.86,13.86,4.1,21.09,5.08,1.11.15,1.55-1.55.43-1.7Z"/><path class="cls-7" d="M100.93,170.38c-7.61,3.69-16,4.33-24.21,6-4.15.85-10.6,1.78-8.14,7.78C70.77,189.51,79,187,83.12,186a74,74,0,0,0,21.5-9.06.88.88,0,0,0-.92-1.49A73,73,0,0,1,87.32,183a69.45,69.45,0,0,1-8.26,2.07,21.32,21.32,0,0,1-4.72.53c-2.41-.11-5.94-2.32-4.11-5.21,1.17-1.86,6.28-2.21,8.18-2.57,2.77-.53,5.57-1,8.35-1.45a57.13,57.13,0,0,0,15.09-4.5c1-.49.09-2-.92-1.49Z"/><path class="cls-7" d="M99.1,162.4c-9.19,1.72-18.28-.52-27.44-1.3-2.31-.2-6.28-1.15-8.22.58-1.44,1.29-2,4.16-1.64,6,1.14,5.94,9.53,6,14.2,6.3a71.76,71.76,0,0,0,25-3.15.88.88,0,0,0-.5-1.68A70.48,70.48,0,0,1,81,172.31c-4.78.08-18.32.76-17.4-6.63.54-4.39,5.56-3.06,8.76-2.76,3.39.32,6.75.83,10.12,1.24a55.83,55.83,0,0,0,17.13-.07c1.11-.21.6-1.89-.5-1.68Z"/><path class="cls-11" d="M79.61,135.27a3,3,0,0,0,1.79,1.05c1,.26,2.11.47,3.17.7.55.12.77-.73.21-.85l-2.27-.5c-.73-.16-1.66-.23-2.15-.86-.34-.44-1.1,0-.75.46Z"/><path class="cls-11" d="M84.45,137.08c3.07,1.57,6.42,2.26,9.64,3.45,1.64.6,3.15,1.53,4.78,2.13,1.91.71,3.82.56,5.48,2,.43.37,1-.26.61-.63a7,7,0,0,0-2.84-1.57,38.87,38.87,0,0,1-5.69-1.92c-3.77-1.64-7.87-2.34-11.55-4.21-.5-.26-.93.51-.43.77Z"/><path class="cls-7" d="M190.47,149.94c7-1.25,13.51-3.67,20.23-5.8,3.25-1,6.52-2,9.84-2.71,2-.44,4-.81,6-1.08a8.72,8.72,0,0,1,2.82-.13,4,4,0,0,1,2.92,5.5c-1.67,3.62-5.85,4.91-9.28,6.2-3.13,1.18-6.31,2.25-9.53,3.17a88.4,88.4,0,0,1-22,3.41.88.88,0,0,0,0,1.75,93.57,93.57,0,0,0,27.22-5c5.51-1.84,15.91-4.32,15.87-11.92,0-7.95-12.16-4.24-16.46-3.18-9.53,2.33-18.54,6.33-28.22,8.07-1.11.2-.6,1.88.5,1.68Z"/><path class="cls-11" d="M191.72,161.1c1.26.23,2.52-.44,3.68-.85.53-.19.28-1-.25-.84-.95.34-2.2,1-3.22.84-.55-.1-.77.75-.21.85Z"/><path class="cls-11" d="M191.36,152.73c4.9-1.72,10.19-2.07,14.94-4.22,2.13-1,4.32-1.69,6.44-2.61,2.53-1.1,4.77-2.7,7.44-3.51a.44.44,0,0,0-.25-.84,45.82,45.82,0,0,0-6.78,3.17c-1.88.93-3.9,1.39-5.8,2.3-5.21,2.49-10.84,3-16.24,4.88-.53.19-.28,1,.25.84Z"/><path class="cls-11" d="M191.39,151.9l-.31-.22c-.46-.33-.88.44-.43.77l.31.22c.46.33.88-.44.43-.77Z"/><path class="cls-7" d="M156.3,110.12c3.22,0,3.22-5,0-5s-3.22,5,0,5Z"/><path class="cls-7" d="M186,144.13a13.48,13.48,0,0,1,2,3.84,3.55,3.55,0,0,0,3.44,2.5c4.85-.64,9.51-2.83,14.09-4.49,4.22-1.54,8.56-2.91,12.46-5.18,3.67-2.14.85-7-2.84-6.35q-6.57,1.21-13.22,1.81c-3.64.32-7.28.13-10.6,1.83-4.09,2.09-.34,7.79,3.67,6,3.66-1.65,7.71-2.14,11.53-3.3A28.86,28.86,0,0,0,216.8,135a19.75,19.75,0,0,1,4.75-3.32c.25-.11,2.35-.54,2-1.12.17.31-1.68,1.45-1.84,1.55-2.88,1.75-5.91,2.7-8.46,5s.32,6.77,3.54,5.79c5.77-1.77,11.28-7.41,5.92-12.93l1,3.39.07-.34-2.4,2.5.28-.09c4.3-1.35,2.31-8.08-2-6.72l-.28.09a3.5,3.5,0,0,0-2.4,2.5,5.68,5.68,0,0,0-.17,1.27c0,.67.83,1.67.8,2.11-.07.94.52-.39-.44.47a6.54,6.54,0,0,1-2.36,1l3.54,5.79c3.76-3.41,9.63-3.61,11.76-8.89,2-5-2.09-9.13-7.1-8.91-5.91.26-9.3,5.15-13.94,8-5.3,3.21-12,3.41-17.68,6l3.67,6c1.43-.73,3.49-.51,5-.63q3.05-.23,6.1-.59c3.69-.43,7.36-1,11-1.68l-2.84-6.35c-3.37,2-7.14,3.11-10.8,4.44-3.86,1.4-8.15,3.67-12.23,4.2l3.44,2.5a19.56,19.56,0,0,0-2.76-5.5c-2.64-3.63-8.64,0-6,3.67Z"/><path class="cls-11" d="M186.27,141.41c5.58-1.62,11.09-3.43,16.53-5.47,4.07-1.53,9.18-2.82,12.15-6.2.74-.85-.52-2.06-1.27-1.21-3.15,3.59-9.41,5-13.81,6.63-4.65,1.69-9.36,3.2-14.11,4.58a.88.88,0,0,0,.5,1.68Z"/><path class="cls-7" d="M75.83,110.93c-2.62,1.07-4.94,2.57-4.69,5.74.33,4.15,4,8.93,6,12.38l2.71-2.18a24.89,24.89,0,0,1-3.66-3.38L73.77,126c3.77,4.22,7.76,8.57,13.08,10.82,4.69,2,14.06,1,16.67,6.06a1.77,1.77,0,0,0,3.2-.49c.51-3.14,2.69-4.39,4.44-6.77,1-1.34,1.34-3,.2-4.39-1.33-1.6-3.76-1.47-5.28-2.87-2.43-2.23-4.93-4.29-7.54-6.33-2.45-1.91-4.84-4-7.43-5.69a43,43,0,0,0-8.47-3.93c-1.78-.69-4-2.08-5.88-1.31-1.76.7-3.44,3.61-3.79,5.35-.44,2.21.68,3.81,1.86,5.55,2,2.9,4,5.78,6.13,8.54,1.29,1.64,2.51,3.2,4.45,4.07,2.81,1.26,6.15,1.8,9.12,2.6,3.65,1,11.05,3.34,13.41-1,.65-1.21,1.08-3,.31-4.2-.47-.74-1.41-1.09-2.09-1.57a25.66,25.66,0,0,1-4.09-3.86A40.94,40.94,0,0,0,86.7,115.66c-2.14-.89-5.44-2.91-7.78-2.43s-3.54,2.82-4.08,4.82a1.81,1.81,0,0,0,.85,2c4.92,3.44,5.49,10.46,10.59,13.88,5.88,3.95,13.2,2.09,19.72,1.55,1.57-.13,2.54-2.54.81-3.29-4.14-1.78-8.63-2.09-10.07-7.12l-3.18,1.42c1.43,2,4.43,7.44,7.36,4.15a1.77,1.77,0,0,0-.41-2.75c-4-1.95-6.4-5.77-10-8.18-3.24-2.15-7.92-4.46-11.88-4.43a1.77,1.77,0,0,0-1.17,3,14.75,14.75,0,0,1,2.12,2.37,12.47,12.47,0,0,0,1.73,2.42,9.77,9.77,0,0,1,2.58,3.75,14.49,14.49,0,0,0,1.86,3.53c3.66,4.79,9.11,5.14,14.67,4.42a1.76,1.76,0,0,0-.08-3.51,24.28,24.28,0,0,1-5.2-.44c-1.56-.48-2.74-2-4-2.91-1.51-1.07-2.84-1.82-3.73-3.52A17,17,0,0,1,86,119.63L83.1,121.4c2.09,1.86,3.5,4.32,5.46,6.31a29,29,0,0,0,6.36,4.79,1.76,1.76,0,0,0,2.06-2.8,85.2,85.2,0,0,1-7.85-9.15c-1.33-1.8-4.34,0-3,1.84a91.57,91.57,0,0,0,8.42,9.84l2.06-2.8a25.29,25.29,0,0,1-6.43-5.11c-1.62-1.82-2.84-3.85-4.67-5.47a1.77,1.77,0,0,0-2.89,1.77c.86,4.47,2.19,7.24,6,9.81,1.62,1.11,2.93,2.74,4.79,3.48,2.14.84,4.78.68,7,.84l-.08-3.51c-3.21.41-6.71.89-9.59-1-2.55-1.63-3-4-4.29-6.54-.92-1.83-2.4-2.56-3.51-4.17-.48-.7-.67-1.57-1.21-2.25a23,23,0,0,0-1.85-1.6l-1.17,3c4.16,0,9.32,3.08,12.32,5.8,2.55,2.31,4.68,4.83,7.82,6.38l-.41-2.75c.78-.88-1.37-2.91-1.83-3.56A1.76,1.76,0,0,0,93.39,126c1.76,6.14,6.54,7,11.73,9.18l.81-3.29c-6.73.56-15.46,3-20.18-3.43-2.91-4-4.14-8.62-8.35-11.56l.85,2c1-3.61,4.44-1.14,6.76-.18A49.42,49.42,0,0,1,91.63,122c4.2,2.53,6.8,6.27,10.33,9.54a15.22,15.22,0,0,1,2.05,1.67,2.59,2.59,0,0,1,1,1,3.78,3.78,0,0,1-3.2.92c-2.75.06-5.72-1.06-8.35-1.78-2.37-.65-5.65-1-7.68-2.5s-3.54-4.32-4.95-6.29-5-5.62-4.12-8.14c1.14-3.23,4.12-.93,6.27-.08,5.44,2.14,9.64,5.55,14.21,9.12a59.71,59.71,0,0,1,5.92,4.87,9.52,9.52,0,0,0,3.28,2.65c1.5.59,2.51,0,1.07,1.51-.63.67-1.29,1.3-1.85,2a10.87,10.87,0,0,0-2.26,5.08l3.2-.49c-2.6-5-9.19-5.26-14.07-6.23-7-1.41-11.65-6.21-16.25-11.35-1.51-1.69-3.92.86-2.43,2.53a24.89,24.89,0,0,0,3.66,3.38c1.51,1.14,3.79-.35,2.71-2.18s-2.23-3.84-3.25-5.82c-1.21-2.34-3.49-5.71,0-7.11,2.07-.85,1.09-4.22-1-3.36Z"/><path class="cls-12" d="M184.08,127.63l-2.36,1.25c-.5.26,0,1,.46.75l2.36-1.25c.5-.26,0-1-.46-.75Z"/><path class="cls-13" d="M186,87.66c-.29,1.36-2.09,9.24,0,9.62,1.9.35,1.9,3.43-.15,3.48-4.35.1-7.48-2.16-11.25-4s-7.89-2.3-11.29-4.87a1.77,1.77,0,0,1,1.41-3.08c3.77.87,7.15.9,10.57-1a25.34,25.34,0,0,1,7.65-2.64c1.74-.35,2.53,2.27,1.16,3.18-2.12,1.4-1.65,5.68-1.59,7.78,0,1.59-2.24,2.78-3.18,1.16a5.34,5.34,0,0,0-4.47-2.91,1.77,1.77,0,0,1-.71-3.16,12.29,12.29,0,0,1,4-2l-.84,2.66c-1.64-1.86-4.2-1.18-6.22-.67s-3.38-2.75-1.19-3.3c3.86-1,7.45-1.25,10.27,1.95a1.76,1.76,0,0,1-.84,2.66,9.63,9.63,0,0,0-3.2,1.53l-.71-3.16a8.48,8.48,0,0,1,6.74,4.35L179,96.4c-.1-3.76-.46-8.61,3.07-10.95l1.16,3.18A19,19,0,0,0,176.86,91a10.28,10.28,0,0,1-3.44,1.54,21.44,21.44,0,0,1-9.3-.25l1.41-3.08c2.78,2.11,6.25,2.52,9.39,3.86,3.53,1.51,6.6,4.32,10.63,4.23l-.15,3.48c-5.73-1.07-3.7-9.75-2.85-13.68.48-2.2,3.94-1.61,3.46.6Z"/><path class="cls-13" d="M95.83,81.07c1,.92,7.16,6.19,5.72,7.74s.51,3.89,2.18,2.71c3.56-2.51,4.74-6.18,6.67-9.91s5-6.54,6.19-10.63a1.77,1.77,0,0,0-3-1.64c-2.51,2.94-5.22,5-9.11,5.46a25.34,25.34,0,0,0-7.72,2.42c-1.61.75-.69,3.33,1,3.25,2.53-.13,4.7,3.59,5.9,5.32.91,1.3,3.46.9,3.25-1a5.34,5.34,0,0,1,1.87-5,1.77,1.77,0,0,0-1.3-3,12.29,12.29,0,0,0-4.41.82l2.26,1.64c.21-2.47,2.68-3.44,4.61-4.23s1.09-4.22-1-3.36c-3.69,1.5-6.74,3.42-7.11,7.67A1.76,1.76,0,0,0,104.07,81a9.63,9.63,0,0,1,3.48-.67l-1.3-3a8.48,8.48,0,0,0-2.84,7.5l3.25-1c-2.15-3.09-4.75-7.2-9-7l1,3.25a19,19,0,0,1,6.51-1.91,10.28,10.28,0,0,0,3.68-.81,21.44,21.44,0,0,0,7.33-5.73l-3-1.64c-1,3.35-3.53,5.74-5.26,8.69-1.94,3.31-2.74,7.4-6,9.72l2.18,2.71c4-4.27-2.81-10-5.83-12.7-1.69-1.49-4.13,1-2.43,2.53Z"/><path class="cls-13" d="M83.24,72.08l9.55,5.83a1.77,1.77,0,0,0,2.61-1.57,9.94,9.94,0,0,1,2.74-6.22l-3-1.64a2.81,2.81,0,0,1-.83,2.07l3.29.81c.16-1.93,3.53-3.88,4.68-5.57,1.63-2.4,3.17-4.85,4.86-7.2a150.37,150.37,0,0,1,12.76-15.4,1.76,1.76,0,0,0-2.18-2.71A74.93,74.93,0,0,0,90.83,71a1.77,1.77,0,0,0,2.45,2.35,16.2,16.2,0,0,0,8.25-9.83,1.77,1.77,0,0,0-2.62-1.92l-1.77,1.22,2.45,2.35a96.56,96.56,0,0,0,7.56-13c.69-1.43-.94-3.5-2.45-2.35a47.62,47.62,0,0,0-9.44,9.88c-2.64,3.61-6.27,7.8-7,12.32l2.91-.84a12.22,12.22,0,0,0-4.49-2.75l1.1,2.55a42.28,42.28,0,0,1,13.09-13.56c1.88-1.24.06-4.23-1.84-3A46.36,46.36,0,0,0,84.72,69.2a1.78,1.78,0,0,0,1.1,2.55,6.32,6.32,0,0,1,2.92,1.88,1.77,1.77,0,0,0,2.91-.84c.62-3.81,3.78-7.44,6-10.53a44.27,44.27,0,0,1,8.89-9.54l-2.45-2.35a96.56,96.56,0,0,1-7.56,13c-1,1.45,1.05,3.31,2.45,2.35l1.77-1.22-2.62-1.92a12.81,12.81,0,0,1-6.68,7.7l2.45,2.35a71.48,71.48,0,0,1,25.66-29.21l-2.18-2.71A156.16,156.16,0,0,0,103.72,57.4c-2,2.85-3.79,6.88-6.63,8.94-2,1.47-2.76,2.48-3,5.1-.16,1.95,2.4,2,3.29.81a5.91,5.91,0,0,0,1.17-2.92c.22-1.61-1.67-3-3-1.64a13.72,13.72,0,0,0-3.71,8.72l2.61-1.57L84.95,69c-1.93-1.18-3.63,1.89-1.7,3.07Z"/><path class="cls-13" d="M107.94,47.92a8.17,8.17,0,0,1-3,1.76l1.77,2.89,2.56-2.5c1.62-1.58-.92-4-2.53-2.43l-2.56,2.5A1.77,1.77,0,0,0,105.94,53a12.29,12.29,0,0,0,4.53-2.7,1.75,1.75,0,1,0-2.53-2.43Z"/><path class="cls-13" d="M90,71.59l.49-.45-2.95-.71.63-1.5L86.47,72c2,1.31,7.13,5.59,9.69,3.79,1.29-.9,1.18-2.83,1.4-4.2.42-2.63,2.22-4,3.42-6.13,1-1.87,1.1-4.14,2.26-5.95,1.56-2.43,4.07-4.58,6-6.68,3.54-3.8,7.08-7.51,11.6-10.15,1.95-1.14.12-4.13-1.84-3a46.77,46.77,0,0,0-10,8.22c-2.89,3-6.24,6-8.61,9.49a17.85,17.85,0,0,0-2,4.8C97.78,64.4,96,65.72,95,67.75c-.42.83-.66,4.27-1,4.52-.6.4-5.32-3-5.8-3.34-1.88-1.26-3.56,1.82-1.7,3.07,2,1.36,5.57.44,4.43-2.57A1.78,1.78,0,0,0,88,68.71l-.49.45c-1.67,1.53.87,3.95,2.53,2.43Z"/><path class="cls-6" d="M178.18,70.94a3.87,3.87,0,0,1-2.2-1.06c-.6-.5-1.82,0-1.45.88A89.94,89.94,0,0,0,180,82a.89.89,0,0,0,1.6-.24c.41-1.28,1.75-2,2.5-3,1-1.42,1.77-2,3.64-1.91,1.13.07,1.08-1.69,0-1.75-1.84-.11-3.37.11-4.48,1.67s-2.75,2.8-3.32,4.59l1.6-.24a86.68,86.68,0,0,1-5.31-10.84l-1.45.88a6.81,6.81,0,0,0,3,1.49.88.88,0,0,0,.43-1.7Z"/><path class="cls-13" d="M171.81,76.09a26.58,26.58,0,0,1,12.4,7.08l.82-1.48-1.89-.86c-.71-.62-2,.27-1.35,1.09l1.35,1.74c.57.73,1.93.31,1.59-.71a7.49,7.49,0,0,1-.58-3l-1.48.65A5.61,5.61,0,0,1,184.51,84c.19,1.06,1.63.62,1.72-.27a29.77,29.77,0,0,1,2.52-9.48l-1.53-.85-1.5,3.74c-.41,1,1.06,1.9,1.53.85a10.66,10.66,0,0,0,1-4.25.9.9,0,0,0-.9-.86,84.14,84.14,0,0,0-20,.3.88.88,0,0,0,0,1.75c4.79.52,9.73,1.21,13.32,4.73l1-1.4-7.44-4.09a.88.88,0,0,0-.85,1.53A16.35,16.35,0,0,1,179.11,81a.88.88,0,0,0,1.59-.71L179.37,76l-1.27,1a7.61,7.61,0,0,1,3.38,4.43l1.45-.88c-3.09-2.29-6.13-4.32-10.12-4.12a.88.88,0,0,0,0,1.75,8.12,8.12,0,0,1,5.43,2l1-1.4q-4.76-2.58-9.69-4.81c-.61-.27-1.61.25-1.27,1a3.18,3.18,0,0,0,3.59,2.22.88.88,0,0,0,.2-1.73l-25.58-7,0,1.69a29.7,29.7,0,0,1,4.92-1.1c2.39-.09,4.22,1.23,6.29,2.15a62.06,62.06,0,0,0,8.69,3.06l.2-1.73c-5.09-.13-9.68-1.89-14.34-3.81l-.41,1.64a82,82,0,0,1,33,10.06c.85.47,1.8-.73,1-1.4l.15-3.6-1.34-.73a7.1,7.1,0,0,1,.07,2.84l1.28-.55a4,4,0,0,1-2.08-2.88.89.89,0,0,0-1.61-.17l-1.15,2.26,1.37-.21a7.15,7.15,0,0,0-4-2l-.43,1.7,3.22.46c.59.08,1.33-.42,1.06-1.1a2.77,2.77,0,0,0-2-1.87,5.28,5.28,0,0,0-2.06.14c-2,.22-3.14.57-5-.42s-3.34-2.28-5.33-2.79c-2.91-.75-7.47,1.51-9.55-1.52l-.73,1.34,7.93.52-.27-1.72-3.44.82c-1,.23-.7,1.72.27,1.72H170a.89.89,0,0,0,.59-1.51,2.1,2.1,0,0,0-2.94-.4.88.88,0,0,0,.48,1.62,24.08,24.08,0,0,1,6.61,1l-.42-1.46-3.15,1.06,0,1.69a49.85,49.85,0,0,1,7-.67.88.88,0,0,0,.41-1.64l-1.46-.68,0,1.51,2.55.27,1.3-.79a2.81,2.81,0,0,0-2.9.06.88.88,0,0,0,.48,1.62,25.57,25.57,0,0,1,10,.93c1.09.32,1.51-1.38.43-1.7a26.83,26.83,0,0,0-10.48-1l.48,1.62,1.13,0a.89.89,0,0,0,1.3-.79c-.26-3-3-2.84-5.23-1.73a.88.88,0,0,0,0,1.51l1.46.68.41-1.64a53.14,53.14,0,0,0-7.44.74.88.88,0,0,0,0,1.69,5.42,5.42,0,0,0,4.85-1.55.89.89,0,0,0-.42-1.46,25.77,25.77,0,0,0-7.08-1.09l.48,1.62.81.17.59-1.51h-7.7l.27,1.72,3.44-.82c1-.24.66-1.66-.27-1.72l-7.93-.52a.88.88,0,0,0-.73,1.34c2.91,4.25,8.18,1,12.17,2.93,1.8.86,3.31,2.26,5.25,2.83,1.19.35,6-.64,6.38.27l1.06-1.1L178.72,74c-1.1-.16-1.55,1.5-.43,1.7a4.7,4.7,0,0,1,3.18,1.56.89.89,0,0,0,1.37-.21L184,74.8l-1.61-.17a6.41,6.41,0,0,0,2.91,3.91.88.88,0,0,0,1.28-.55,11.15,11.15,0,0,0,0-3.3.89.89,0,0,0-1.34-.73,3.91,3.91,0,0,0-.45,6.36l1-1.4a84,84,0,0,0-33.89-10.28.88.88,0,0,0-.41,1.64c4.93,2,9.83,3.9,15.23,4a.88.88,0,0,0,.2-1.73c-4.47-1.23-8.37-3.43-12.65-5-2.57-1-5.65.37-8.17.94-.88.2-.75,1.47,0,1.69l25.58,7,.2-1.73-1.87-1-1.27,1q4.94,2.23,9.69,4.81c.85.46,1.82-.75,1-1.4a10.19,10.19,0,0,0-6.68-2.48l0,1.75c3.46-.17,6.19,1.65,8.87,3.64.65.48,1.74,0,1.45-.88A9.64,9.64,0,0,0,179,75.5a.89.89,0,0,0-1.27,1L179,80.76l1.59-.71a18.47,18.47,0,0,0-6.26-5.82l-.85,1.53,7.44,4.09a.88.88,0,0,0,1-1.4c-3.94-3.87-9.29-4.65-14.58-5.22l0,1.75a84.14,84.14,0,0,1,20-.3l-.9-.86a6.68,6.68,0,0,1-.77,3.36l1.53.85,1.5-3.74c.41-1-1.06-1.9-1.53-.85a32.66,32.66,0,0,0-2.74,10.37l1.72-.27a7,7,0,0,0-2.32-4.21.89.89,0,0,0-1.48.65,12.46,12.46,0,0,0,.65,3.48l1.59-.71L183.29,81l-1.35,1.09a4.74,4.74,0,0,0,2.67,1.29.88.88,0,0,0,.82-1.48,28.38,28.38,0,0,0-13.19-7.52.88.88,0,0,0-.43,1.7Z"/><path class="cls-13" d="M182.46,79.38a4.53,4.53,0,0,0,1.27-6.32l-1.35,1.09a9.6,9.6,0,0,0,5.35,3.26l.2-1.73a59.45,59.45,0,0,0-7.22.38c-2.62.31-6.72,2.15-7.59-1.9-.42-1.94.25-3.44-2.41-4a14.08,14.08,0,0,0-3.64.24c-2.86.17-5.21-1-7.83-1.93-3.08-1-6.11-1.4-9,.36a.88.88,0,0,0,.92,1.49c4.48-2.75,9.08,1,13.55,1.76,1.18.19,2.7-.32,3.79-.09l2.9,1.7a6.58,6.58,0,0,0-.18,1c.1.38-.08.84,0,1.23a3.78,3.78,0,0,0,3.63,2.58c1.93.14,4-.5,5.86-.74a57.4,57.4,0,0,1,7.22-.38.88.88,0,0,0,.2-1.73,8.16,8.16,0,0,1-4.57-2.83c-.66-.77-1.86.26-1.35,1.09l-.69,3.9c-.89.67,0,2.18.92,1.49Z"/><path class="cls-7" d="M133.76,111.56c.06-.72.23-1-.25-1.05s1.06,2,1.18,2.29l2.71-2.18a7.44,7.44,0,0,0-2-1.39,1.77,1.77,0,0,0-2.35,2.45c.93,2,3.18,2.5,5.11,1.43a16.43,16.43,0,0,0,3.37-3.18,16.62,16.62,0,0,1,2.59-2.67l-.83.05,1.42,1c2.6,1.74,5.45,3.54,8.72,2.86,2.25-.47,3.63-1.93,3.23-4.21l-3.18,1.42a4.18,4.18,0,0,1,1,3.24l1.25-1.72c.24-.07-1.33-1.2-1.39-1.22a3.9,3.9,0,0,0-1.58-.1c-1.37.08-2.39.75-3.87.46-1.24-.24-2-1-3.07-1.59-2-1-5.76.47-6.2,2.87s2.93,3.58,4.82,3.33a4.79,4.79,0,0,0,2-.65c1.93-1.39.1-.25-.24-1,.68,1.56,2.86,1.93,4.3,2a1.77,1.77,0,0,0,1.46-2.67,8.86,8.86,0,0,0-5.28-4.32c-1.68-.57-2.91,1.84-1.64,3a16.18,16.18,0,0,0,9.85,4.18c2.25.19,2.15-3.32-.08-3.51a12.21,12.21,0,0,1-7.35-3.21l-1.64,3a5.45,5.45,0,0,1,3.15,2.75l1.46-2.67c-2-.06-2.18-2.21-4.36-1.51-.65.21-2.56,1.4-2.39,2.14-.16-.7,2.55.77,2.53.76,2,.88,3.64.72,5.71.62,1.53-.07,1.44.5,2.79.86a3,3,0,0,0,2-.06,1.79,1.79,0,0,0,1.25-1.72,8.58,8.58,0,0,0-1.52-5,1.76,1.76,0,0,0-3.18,1.42,28.58,28.58,0,0,1-4.55-1.21,21.54,21.54,0,0,1-1.86-1.19c-1-.67-2.11-1.75-3.41-1.65a3.76,3.76,0,0,0-2.32,1.41c-.36.34-4.89,5.06-5.12,4.56l-2.35,2.45,1.32.85a1.76,1.76,0,0,0,2.71-2.18c-.91-1.78-2.87-4.57-5.24-4.19-2.61.42-2,3-2.19,4.87-.18,2.25,3.33,2.16,3.51-.08Z"/><path class="cls-7" d="M193.57,159.65c6,1.53,12,1.46,18.16,1.09,3-.18,6.07-.43,9.12-.52,1.73,0,3.48-.06,5.21,0,2.4.14,3.27,1.4,3.22,3.71-.17,7-13.1,5.45-17.85,5.06a70.68,70.68,0,0,1-19.3-4.45c-1.05-.4-1.47,1.3-.43,1.7A71.68,71.68,0,0,0,215.85,171c4.67.08,13.73.63,15.14-5.45.42-1.8.08-4.61-1.26-6-1.71-1.74-5.47-1.16-7.62-1.13-9.42.12-18.82,1.88-28.11-.49a.88.88,0,0,0-.43,1.7Z"/><path class="cls-7" d="M193.07,167.29a55.69,55.69,0,0,0,14,5.84c2.61.76,5.24,1.44,7.85,2.21,2.1.62,6.23,1.23,7.79,2.71,2.26,2.14.34,5.28-2.75,5.71a13.71,13.71,0,0,1-4.66-.77,64.27,64.27,0,0,1-9-3.16,72.92,72.92,0,0,1-15.53-9.18c-.89-.68-2.11.58-1.21,1.27a74.91,74.91,0,0,0,19.5,10.9c4,1.51,13.12,5.5,15.77-.18,2.74-5.86-3.72-7.22-7.86-8.5-7.87-2.44-16-4-23.11-8.39-1-.6-1.81.94-.85,1.53Z"/><path class="cls-10" d="M99.75,161.92c-2.18,24.56,30.58,34.15,49.72,32.9,11.33-.74,22.91-4.56,32-11.45,8.21-6.21,13.71-16.65,9.79-26.89-.4-1-2.09-.55-1.68.5,4.15,10.86-2.88,21.08-11.79,26.81a60,60,0,0,1-29.53,9.34c-18,.83-48.83-8.16-46.78-31.25.1-1.12-1.65-1.08-1.75,0Z"/><path class="cls-7" d="M138.36,107.91c1.45-.88,2.5-2.22,3.91-3.15,2.46-1.63,4.26.39,5.6,2.37.63.93,2.13,0,1.49-.92-1.31-1.94-3.06-4.15-5.68-3.88s-4.16,2.82-6.24,4.07a.88.88,0,0,0,.92,1.49Z"/><path class="cls-7" d="M137.86,106.84c-1.14,1-3.22-.86-4.25-1.27a3.68,3.68,0,0,0-2.87-.14c-2.41,1.11-1.78,5-1.23,7.06a.88.88,0,0,0,1.68-.5c-.36-1.32-.95-3.83.41-4.65,1.19-.72,2.2.37,3.29.9,1.47.72,3,.95,4.25-.19.85-.75-.43-2-1.27-1.21Z"/><path class="cls-7" d="M148.64,107.42c1.33,1.07,2.82.79,4.25,0,.77-.42,1.71-1.41,2.62-1.39,2.2.05,1.51,3.76,1.24,5a.88.88,0,0,0,1.7.43c.46-2,.91-6-1.54-7a3.62,3.62,0,0,0-2.76.22c-1,.44-3.11,2.46-4.3,1.5-.87-.71-2.09.56-1.21,1.27Z"/><path class="cls-7" d="M130.65,112.44c-9,2.67-16.62,9.36-18.69,18.75-.24,1.1,1.46,1.53,1.7.43,1.94-8.8,9.06-15,17.49-17.5a.88.88,0,0,0-.5-1.68Z"/><path class="cls-7" d="M157.39,113.32c8.63,2.4,16.26,8.41,18.94,17.18A.88.88,0,0,0,178,130c-2.86-9.36-11-15.81-20.19-18.37a.88.88,0,0,0-.43,1.7Z"/><path class="cls-7" d="M111.77,131.63c-9.47,11.94-18.8,33-2.23,43.46,3.86,2.43,8.3,3.84,12.61,5.25A98.07,98.07,0,0,0,140,184.68c10.15,1.3,20.42-.12,29.12-5.72.95-.61,0-2.11-.92-1.49-8.3,5.34-18.1,6.74-27.78,5.52a90,90,0,0,1-27.27-7.88c-18.38-9-9.9-30-.15-42.25.7-.88-.56-2.1-1.27-1.21Z"/><path class="cls-7" d="M177.74,132.21c5,6,10.14,12.71,11.7,20.51.86,4.3.47,9.43-2.08,13.14-2.25,3.29-5.79,5.28-9.23,7.11-14.7,7.81-31.76,11.3-48.06,6.91a.88.88,0,0,0-.43,1.7c18.16,4.89,37.18.25,53.07-9.18,6.77-4,9.86-11.34,8.6-19.13-1.39-8.55-6.93-15.87-12.36-22.33-.73-.86-1.93.41-1.21,1.27Z"/><path class="cls-7" d="M111.94,131.47a116.52,116.52,0,0,0-22.32-16.23c-4.38-2.44-14.49-9.78-17.79-2.46-2.94,6.52,1.3,15.06,6.36,19.21,7,5.77,17.21,8.27,25.55,11.51,1.05.41,1.47-1.3.43-1.7-6.93-2.69-14.33-4.94-20.87-8.51-6.35-3.47-12.32-11-10.22-18.75,1.54-5.66,8.2-1.64,11.46,0q4.53,2.28,8.85,5a114.87,114.87,0,0,1,17.33,13.24c.83.77,2-.5,1.21-1.27Z"/><path class="cls-7" d="M72.69,91.89c1.89-6.38,4.45-12.51,8.59-17.77.69-.88-.57-2.1-1.27-1.21-.54.69-1,1.39-1.54,2.11l0,0a.9.9,0,0,1-.18.24c-3.77,5.57-6.11,11.87-7.91,18.37-.9,3.26-2.85,7.76-2.27,11.17.48,2.78,3.29,5.35,5.2,7.2.81.79,2-.48,1.21-1.27-3.07-3-5.22-5.52-4.14-10C71.08,97.76,71.82,94.81,72.69,91.89Z"/><path class="cls-7" d="M82.14,73.43c4.55-.58,9.65,4.68,12.63,7.66a24.94,24.94,0,0,1,4.43,5.13c1.42,2.63,1.21,5.34.44,8.16A24.67,24.67,0,0,1,83.73,111.1c-1.07.36-.57,2,.5,1.68a26.37,26.37,0,0,0,17.71-20.86c.78-5.43-2.67-8.93-6.37-12.52C92.3,76.22,87.06,71,82.1,71.67c-1.11.14-1.08,1.9,0,1.75Z"/><path class="cls-7" d="M68.49,102.95c-.87,2.74-1.78,5.68-1.3,8.59.55,3.28,3,5.75,4.05,8.82.38,1.06,2.06.56,1.68-.5-.76-2.14-2.09-3.89-3.08-5.91-1.72-3.51-.77-7,.35-10.57.34-1.08-1.36-1.5-1.7-.43Z"/><path class="cls-13" d="M109,44.84a176,176,0,0,0-28.57,27,6,6,0,0,1-.9,1.59.83.83,0,0,0,1.45.46,174.16,174.16,0,0,1,28.94-27.58C110.76,45.66,109.86,44.16,109,44.84Z"/><path class="cls-13" d="M97,79.06c.65-1.9,5-3,6.61-3.71,1.85-.77,3.73-1.47,5.57-2.27a32.37,32.37,0,0,0,9.05-5.52l-1.48-.82a63.37,63.37,0,0,1-15.63,25.31c-.8.8.47,2,1.27,1.21a65.29,65.29,0,0,0,16.07-26.1c.3-.9-.89-1.36-1.48-.82-4,3.59-9,5.3-13.86,7.32-2.54,1.05-6.82,2.11-7.8,5-.37,1.07,1.34,1.49,1.7.43Z"/><path class="cls-13" d="M94.65,79.94c7-14.62,18.59-27,28.55-39.69.69-.88-.57-2.1-1.27-1.21-10,12.78-21.72,25.3-28.81,40-.49,1,1,1.87,1.53.85Z"/><path class="cls-13" d="M109.34,46.78a52.59,52.59,0,0,1,13.17-6.71c1.07-.36.57-2-.5-1.68a54.36,54.36,0,0,0-13.59,6.89c-.92.64,0,2.14.92,1.49Z"/><path class="cls-7" d="M179,129.28A116.61,116.61,0,0,1,196.59,118,110.54,110.54,0,0,1,207,113.27c3.69-1.45,10.43-4.6,11.17,1.54.94,7.85-5.19,14.43-11.87,17.35-6.86,3-14.47,4.6-21.64,6.68a.88.88,0,0,0,.5,1.68c5.17-1.5,10.36-2.95,15.51-4.51,3.9-1.18,7.86-2.55,11.2-4.94,5.21-3.73,9.64-11.33,7.78-17.92-2.24-7.94-12.49-1.94-17.14.09a116.13,116.13,0,0,0-24.48,14.54c-.88.68,0,2.19.92,1.49Z"/><path class="cls-7" d="M194,73.72c6.12,3.84,11.3,8.9,16.18,14.19q3.62,3.92,7.07,8c3.14,3.68,3.92,7,4.07,11.76a.88.88,0,0,0,1.75,0c-.1-3.28-.25-7.08-2.09-9.91-2.17-3.32-5.25-6.27-7.9-9.21-5.47-6.07-11.27-11.93-18.23-16.3-1-.6-1.81.94-.85,1.53Z"/><path class="cls-7" d="M191.67,72.49c-4.18,2.11-5.45,8.8-6.32,12.92-1,4.72-2.28,10.41,1.12,14.35,6.61,7.64,17.6,10.42,27.15,7.55a.88.88,0,0,0-.5-1.68,24.66,24.66,0,0,1-23.3-5c-1.7-1.5-3.28-3.09-3.66-5.37-.43-2.62.17-5.62.65-8.21.72-4,1.83-11.1,5.78-13.08,1-.51.09-2-.92-1.49Z"/><path class="cls-13" d="M194.27,72a225,225,0,0,0-51-5.11.88.88,0,0,0,0,1.75,222.84,222.84,0,0,1,50.5,5.06c1.1.24,1.53-1.46.43-1.7Z"/><path class="cls-13" d="M184.77,85.71c-2.33-1.68-7,.08-9.51.65-5.08,1.18-10,2.51-15.31,1.92a.88.88,0,0,0-.59,1.51,65.21,65.21,0,0,0,28.18,12c1.11.19,1.54-1.51.43-1.7a63.44,63.44,0,0,1-27.39-11.6L160,90a33,33,0,0,0,10.81-.83c1.87-.41,3.72-.89,5.59-1.31s5.71-2,7.53-.65c.92.66,1.76-.88.85-1.53Z"/><path class="cls-13" d="M187.38,85.06c-13.44-8.5-29.75-12.49-44.67-17.64-1.07-.37-1.49,1.34-.43,1.7,14.77,5.1,30.94,9.06,44.24,17.47,1,.6,1.8-.93.85-1.53Z"/><path class="cls-7" d="M211.28,109.82c1.78-4.84,8-3.84,9.09.92.64,2.91-.53,5.79-1.58,8.47-.41,1.05,1.3,1.47,1.7.43,1.68-4.3,3.46-10.61-1.25-13.78-3.73-2.51-8.21-.41-9.66,3.53-.39,1.06,1.31,1.48,1.7.43Z"/><path class="cls-7" d="M104.72,140.37,73.31,131.5c-4.83-1.37-14.71-4.57-15.27,3.67-.51,7.52,8.22,10.18,13.82,12.23,9.3,3.4,18.89,6,28.86,5.91a.88.88,0,0,0,0-1.75,72.85,72.85,0,0,1-22.32-3.77c-3.56-1.12-7.1-2.39-10.56-3.8-3.64-1.49-8.39-3.93-8-8.61.49-5.59,6.84-3.92,10.44-2.91l11.13,3.14,22.9,6.47c1.09.31,1.51-1.39.43-1.7Z"/><path class="cls-7" d="M186.17,140.95l21.16-9.32L217.91,127c3.7-1.63,11.45-4.79,11.59,2.22s-10.87,10.9-16,13.41a73.29,73.29,0,0,1-22.27,7.2c-1.11.15-1.08,1.9,0,1.75,9.17-1.24,17.72-4.62,25.91-8.84,5.52-2.84,15-6.67,14-14.42-1.09-8.68-10.86-4.28-15.65-2.17l-29.88,13.15c-1,.45-.53,2.14.5,1.68Z"/><path class="cls-7" d="M231.67,173.6a62.86,62.86,0,0,1-17,7c-2.57.61-5.94,1.6-8.56,1.19-2.79-.43-3.25-3.79-1.61-5.76,1.05-1.26,3.2-2.08,4.66-2.83a66,66,0,0,1,16.63-5.91c2.73-.58,6-1.32,8.76-.76,2.48.5,2.26,1.25.89,3.22a14,14,0,0,1-3.8,3.54c-.93.64.2,2,1.13,1.34,2-1.36,6.14-4.79,5.73-7.72-.35-2.45-4.1-2.24-5.94-2.23-9,0-19.14,3.79-26.79,8.38-2.27,1.36-5.38,3.44-5.26,6.48.12,3.23,3.4,4,6.07,4,9-.06,18.21-3.93,25.86-8.38,1-.56.23-2.16-.74-1.59Z"/><path class="cls-8" d="M202,181.17c-1.85-1.13-3.84-2.16-5.6-3.44-2.66-1.93.26-5.47,1.72-7.36l-1.44-1a7.29,7.29,0,0,0-.92,5.61c.61,2.24,3.13,3.21,5.16,3.76,1.08.29,1.67-1.36.58-1.66-1.57-.43-3.7-1-4.1-2.85a5.44,5.44,0,0,1,.73-3.87.88.88,0,0,0-1.44-1c-1.48,1.9-4.25,5.3-3,7.89a6.08,6.08,0,0,0,2.47,2.36c1.61,1,3.27,2,4.9,3,1,.58,2-.86,1-1.44Z"/><path class="cls-7" d="M226.14,188.93A47.49,47.49,0,0,1,212,193.42a54.88,54.88,0,0,1-7.23.76c-.93,0-4,.11-4.42-.74-.62-1.39,1.19-2.78,2-3.56a23.41,23.41,0,0,1,12.45-5.46,58.17,58.17,0,0,1,8.38-.5,23.4,23.4,0,0,1,3.14.07c2.82.37,3,3.07,1.81,5.31-.51,1,.93,2,1.45,1,1-2,2.23-4.51.59-6.5s-5.23-1.64-7.49-1.61c-7.32.08-14.8,1-20.7,5.7-1.21,1-4.26,3.41-4,5.23.36,2.32,3.71,2.77,5.53,2.82a49.9,49.9,0,0,0,23.31-5.44.88.88,0,0,0-.78-1.57Z"/><path class="cls-8" d="M198.75,192.63c-2.1.63-2.81-2.17-3-3.65a12,12,0,0,1,.44-5.11l-1.7-.35c0,3.33,1.37,6.37,4.42,7.93,1,.51,2-.94,1-1.45a6.7,6.7,0,0,1-3.66-6.36c0-.93-1.42-1.35-1.7-.35-.87,3.09-1.13,12.78,4.6,11.06,1.07-.32.73-2-.35-1.72Z"/><path class="cls-7" d="M225.11,181.55a16.71,16.71,0,0,1,4.15,4.86c.56,1,2.05.06,1.49-.92a18,18,0,0,0-4.44-5.21c-.88-.7-2.1.56-1.21,1.27Z"/><path class="cls-7" d="M220.59,187.69a7.39,7.39,0,0,1,2.92,1.87c1.6,1.57,2.62-.32,1-1.9a12,12,0,0,0-4.92-3.1c-.68-.2-1,.52-.74,1.32a2.83,2.83,0,0,0,1.73,1.81Z"/><path class="cls-7" d="M230.89,161.94a6.16,6.16,0,0,1,4.64,3.21c.76,1.29,2.45,0,1.68-1.3a8.28,8.28,0,0,0-6.37-4.42c-1.27-.11-1.21,2.39.05,2.5Z"/><path class="cls-7" d="M238.19,169.21a1.84,1.84,0,0,0-.3-.14,26,26,0,0,0-9.67-1.52c-1.65.09-.49,1.54,1.15,1.45a20.53,20.53,0,0,1,7.53,1.25,2.49,2.49,0,0,0,.55.13A3.41,3.41,0,0,1,238.19,169.21Z"/><path class="cls-7" d="M233.76,141.19c2.28,1.41,4.72,3,5.54,5.82a.85.85,0,1,0,1.62-.54c-1-3.33-3.74-5.25-6.42-6.91-1-.61-1.71,1-.73,1.63Z"/><circle class="cls-14" cx="136.3" cy="107.68" r="3.01" transform="translate(-2.31 2.99) rotate(-1.25)"/><circle class="cls-14" cx="151.82" cy="106.74" r="3.01" transform="translate(-2.29 3.33) rotate(-1.25)"/><path class="cls-7" d="M120.16,130c-1.63,4.74-5.29,8.44-7.36,13s-2.63,10.2-2.61,15.25c0,10.42,6.29,17.92,15.91,21.33,11.3,4,22.41.83,33.31-2.67,5-1.62,10-3.24,15.12-4.7,3.54-1,7.21-2.6,9-6.06,2.7-5.24-.7-11-4.74-14.38-3.74-3.13-9.39-6.91-13.78-3.06-3.14,2.76,1,7.17,4.37,5.42,4.47-2.36,5.15-7.17,4.87-11.77s-7.29-4.36-7,.15c.12,2,.55,4.55-1.53,5.64l4.37,5.42q-2,.39,0,.83.74.36,1.43.79a17.7,17.7,0,0,1,3.22,2.37c1.36,1.29,3.58,3.67,2.37,5.7-1.38,2.31-6.53,2.72-8.87,3.45-10.44,3.25-21.44,8.52-32.6,7.72-9.63-.69-18.39-5.81-18.45-16.32,0-5,.61-10.1,3.21-14.48,2.35-4,5-7.47,6.55-11.87s-5.34-6-6.8-1.72Z"/><path class="cls-7" d="M179.66,136.86q1.78.61.65-.51l-4.69,4.9.8.48a3.55,3.55,0,0,0,5.93-2.61,6.24,6.24,0,0,0,0-1.32c-.2-2.39-3.06-4.65-5.34-2.91-5.26,4,.84,9.33,3.87,12.45,3.17,3.28,7.84-1.74,4.85-5.07-1.36-1.51-2.76-2.94-4.24-4.33-3.36-3.14-7.75,1.7-4.85,5.07a23.08,23.08,0,0,1,5.56,14l5.93-2.61q.58,1.74.75.14a9.41,9.41,0,0,0,.38-1.52,6.68,6.68,0,0,0-.23-3.21c-1.37-4.4-7.52-2.34-6.72,2,.62,3.35,1.22,7.54-.91,10.5s-5.93,3.8-9.07,4.74-3.18,4.84-.7,6.43a6.63,6.63,0,0,0,7.76-.24,3.51,3.51,0,0,0-3.67-6,144.5,144.5,0,0,1-18.16,7.34c-5.68,1.88-11.82,4.4-17.88,3.06l.15,6.76a65.32,65.32,0,0,0,20.2-9c5.83-3.95,10.91-9.23,17.75-11.42a3.55,3.55,0,0,0,1.42-5.89,14.66,14.66,0,0,0-12.3-4.57c-3.66.39-4.95,6.15-.78,6.91a14.86,14.86,0,0,0,7-.25c2.43-.69,4.63-2.4,7.21-2.15,1.9.18,3.46-1.86,3.43-3.58,0-3.29-2.67-7.68-6.41-4.78-3,2.35-1.27,6.11,1.2,7.93,2.19,1.61,5.32-.72,5.21-3.14-.16-3.45-1.94-5.94-4.2-8.41A30.46,30.46,0,0,1,174,137c-3.16-7.09-7.09-13.51-14-17.44a30.78,30.78,0,0,0-20-3.39c-7.11,1.15-16,5.38-20.5,11.2-1.85,2.4-.61,5.84,2.61,5.93,6.33.19,12-2.31,17.68-4.72,2.55-1.07,5.17-2.52,8-2.12a19.72,19.72,0,0,1,6.69,2.28c3.63,2,7.11,5.33,7.53,9.67.56,5.77-3.46,11.12-2.72,17.09.11.92,2.46,8.48,3.74,6.29-.71,1.22-5.58,1.65-6.94,2.35-2.14,1.1-3.1,3-4.88,4.42-2.14,1.77-5.85,2.22-8.56,2.47-11.68,1.1-24.83-6.69-24.45-19.53l-1,2.5c4.62-6.24,10.75-11,13.13-18.67l-2.4,2.5c7-3,16-10.07,23.93-6.1,5.22,2.61,4.71,10.8,4.84,15.69a3.55,3.55,0,0,0,4.51,3.29c1.64-.43,3.54-1,4.4-2.61a3.72,3.72,0,0,0-1.49-5,5.15,5.15,0,0,0-7.32,3.37,3.56,3.56,0,0,0,4.41,4.22c4.72-.9,9.29-2.63,14.06-3.23,1.87-.24,4.1-.69,5.51.66,1.23,1.18,1.94,3.58,2.66,5.07l2-5.2q-.7.26-1.43.45-1.23.23.85.44l1.8,3c.09,2.82-1.82,3.06-3.21,1.31l2-5.2a19.93,19.93,0,0,1-7,1.43,38.31,38.31,0,0,0-7,.87,36.41,36.41,0,0,0-11.82,4.92,40.31,40.31,0,0,0-10.27,9.52c-.6.79-1.15,1.62-1.74,2.42a6.74,6.74,0,0,1-1.17,1.55q-1.28.94-.51.14c-1.55-.53-2.77-2.19-4.38-2.84-4.39-1.76-9.41-.86-13.76-2.68-4.71-2-4.37-7.18-4-11.62.23-3.07,1-4,3.44-5.46A69.6,69.6,0,0,0,134,141.4c4.19-3.36,8.11-7,12.21-10.5L143.75,132c5,.12,7.53,5.8,8.89,9.9a66.62,66.62,0,0,1,2.29,7.95c.76,3.85-.22,6.17-3.08,8.79-9.14,8.38-25.93,11.06-33.09-1.24l-3.85,5.24q2,.46.14-.4l-.11-5,3.25-.57-2.35,6c7.87.83,15.48,5.35,23.5,4.68a19.32,19.32,0,0,0,15.78-10.81c3.66-7.68-1.5-13.28-3.75-20.27-.93-2.89-3-6.27-6.49-5.64-3,.55-5.8,2.36-6.54,5.4l1.57-2.13c-4.15,3.24-9.15,5.17-13.21,8.53a17.67,17.67,0,0,0-4.51,5.41c-1.61,3.12-1.13,5,1,7.63,7.35,9.12,21.56,9.54,27.45-1.48,2.54-4.76,2.48-10.44-2.21-13.83s-11.33-2.09-15.67,1.24c-3.47,2.66-8.72,8.3-5.78,13s10,4.69,14.36,2.53,10.19-8.55,6.36-13.37c-4.53-5.71-11.47,3.38-15.17,5.7s-.17,8.38,3.67,6c2.22-1.39,4-3.28,6-4.9a13.27,13.27,0,0,1,1.74-1.21q-1.43-4.48-2.29-1.81c-.91.81-1.34,2-2.41,2.75a6.57,6.57,0,0,1-3.22,1.23c-.68.05-3.1-.82-2.86.15-.43-1.71,4.52-5.08,5.68-5.61,1.88-.86,5.66-1.32,6.49,1.27s-2.16,5.9-4.06,7.1c-5.2,3.29-10.87-.25-13.77-4.78l.41,2.69c1.56-4.11,5.7-6.14,9.3-8.18a52.52,52.52,0,0,0,5.61-3.51c1.8-1.34,1.94-2.67,4.07-3.11l-3.43-.83c1.63,1.32,1.48,3.75,2.38,5.55,1.07,2.15,2.6,3.92,3.27,6.28,1.23,4.38-1.66,8.53-5.47,10.59-4.35,2.35-8.9,1.19-13.4,0a90.89,90.89,0,0,0-14.56-3.25c-3.35-.35-4.09,4-2.35,6a4.66,4.66,0,0,0,6.67.36c1.47-1.38,1.08-3.59-.11-5a4.91,4.91,0,0,0-3.28-1.34c-2.94-.37-5.51,2.38-3.85,5.24a24.35,24.35,0,0,0,18,11.6c7.94,1.08,16.07-1.64,22.52-6.27,2.92-2.09,6.1-4.72,7.71-8,1.77-3.62,1.28-7.8.37-11.57-1.49-6.16-3.55-13.05-8.09-17.69a13.36,13.36,0,0,0-7.92-4c-4.42-.53-7.38,3.64-10.44,6.33a92.33,92.33,0,0,1-10.36,8.2c-1.52,1-3.6,1.75-4.86,3-1.6,1.62-2.33,4.53-2.68,6.7-1.08,6.79-.74,15,5.53,19.09,3.23,2.09,6.91,2.59,10.65,3,1.91.22,4.33.26,6.08,1.15,1.45.73,2.52,2.06,4,2.75,4.08,1.91,7.65-.58,9.91-3.92a35.53,35.53,0,0,1,9.29-9.7,30.32,30.32,0,0,1,12-4.92,56.18,56.18,0,0,1,6.25-.38,23.21,23.21,0,0,0,6.72-1.73c1.89-.69,3.48-3.3,2-5.2a5.65,5.65,0,0,0-9,.07,3.69,3.69,0,0,0,1,5.44c1.86,1.09,4.12.32,6-.31a3.57,3.57,0,0,0,2-5.2c-2.46-5.09-4.72-9.11-10.88-9.25-6.61-.16-12.94,2.48-19.35,3.7l4.41,4.22q-.95,2-2.8,1.1l-1.66-2.06,0,.15.83-3.43q.76-.7-.81,0l4.51,3.29c-.16-6.43-.28-14-4.93-19-5.3-5.73-15.64-5.6-22.24-2.45-2.32,1.11-4.48,2.52-6.82,3.61-1.61.75-4.09,1.3-5.33,2.6s-1.6,3.74-2.57,5.36a36.84,36.84,0,0,1-4.45,5.6c-2.2,2.43-5.78,5.3-6.22,8.65-.53,4,1,8.52,2.94,12,4,7.27,11.82,12.47,19.9,14a34.5,34.5,0,0,0,12.52-.1c4.61-.84,7.86-2.12,11-5.57,2.44-2.66,6.1-2.4,9.13-4.18,4.31-2.54,3.31-6.38,1-9.94-2.76-4.19-.71-8.56.46-13,.94-3.59,1.29-7.21,0-10.78-2.62-7.5-10.25-12.71-17.83-14.24-4.79-1-8.16.18-12.59,2-5.11,2.16-10.14,4.6-15.82,4.43l2.61,5.93C128.1,127.61,135.38,124,141,123a23.81,23.81,0,0,1,16.4,3.14c5.46,3.4,8.23,9.16,10.75,14.85,1.16,2.62,2.16,5.18,4,7.39,1.48,1.75,4.42,3.71,4.54,6.19l5.21-3.14-1.21,4.23-2.71-.29-1.29-.79,3.43-3.58c-4.47-.43-7.92,3.42-12.36,2.61l-.78,6.91a8.11,8.11,0,0,1,7.3,2.63l1.42-5.89c-6.78,2.17-11.91,6.73-17.55,10.85a60,60,0,0,1-20.4,9.61c-3.34.87-3.2,6,.15,6.76,7.07,1.56,13.85-.6,20.53-2.79a163.71,163.71,0,0,0,20.9-8.43l-3.67-6-.68.09-.7,6.43c5-1.5,10.27-3.43,13.19-8.06,3-4.83,2.48-10.58,1.5-15.92l-6.72,2c.27.87-.74,2.76-.73,3.77a5.46,5.46,0,0,0,1.71,3.88c2.08,2.24,6.07.34,5.93-2.61a30.88,30.88,0,0,0-7.73-18.9L176.59,143c1.48,1.38,2.89,2.82,4.24,4.33l4.85-5.07c-.7-.72-1.43-1.4-2.12-2.12-.42-.44-.79-1-1.24-1.38-2-1.79,2.26-.9-1.68,2.1L175.3,138a6.24,6.24,0,0,1,0,1.32l5.93-2.61a11,11,0,0,0-2.24-1.55c-3-1.5-6.8,1.88-4.69,4.9,1.9,2.72,3.83,4.52,7.34,3.56,4.35-1.19,2.35-7.92-2-6.72Z"/><path class="cls-7" d="M102.73,159c-1.52,5.81,2.77,11.25,6.86,14.88a20.34,20.34,0,0,0,7.22,4.32c3.55,1.17,7.39,1.14,10.7,3l3.41-6.13c-7.89-3.75-18.43-8.9-20.61-18.21a3.53,3.53,0,0,0-5.2-2c-.91.64-1.79,1.3-2.66,2l5.24,3.85a12,12,0,0,1,2.3-4.52c2.82-3.45-1.9-8.16-5.07-4.85q-1.64,1.73,3.21,2.9.46-.5,1-1a13.17,13.17,0,0,0,2-1.85c2.42-2.41-.22-7-3.54-5.79l-.72.08,3.14,5.21,4.65-7.35-6.13-3.41.14-.22,4.07,5.07a52.94,52.94,0,0,1,5.6-6.77c2.31-2.39-.18-7.12-3.54-5.79l-1,.27,1.91,6.5,4-2.86c2.19-1.56,2.26-5.94-1-6.39a2.73,2.73,0,0,1,1.61,2.44q0,.23.07-.15a4.59,4.59,0,0,0,.43-.93c.52-1,1.1-1.91,1.71-2.82.89-1.33,1.87-2.6,2.8-3.9,1.9-2.66-1.39-5.77-4.07-5.07a6.88,6.88,0,0,0-4.13,3.07c-2.46,3.39,2.84,6.66,5.6,4.13,5-4.58,10.27-8,17.19-8.54,3.5-.27,7.33-.88,10.83-.4s6.55,3.2,9.84,4.59c2.46,1,6.36-.93,5.07-4.07-1.16-2.81-3.29-4.57-6.46-4.38a3.53,3.53,0,0,0-.78,6.91A10.61,10.61,0,0,1,164,125c1.8,2.59,7,1.81,6.5-1.91l-.19-1.49-5.21,3.14c2.39,1.43,3.22,4.23,4.27,6.65a20.63,20.63,0,0,0,4.38,6.93c2.09,2,6.18.47,5.93-2.61a6,6,0,0,0-4.38-5.61c-2.62-.95-4.88,2-4.22,4.41a17.55,17.55,0,0,0,4.61,7.82c2.8,2.81,7.57-1,5.42-4.37l.08.16c2.31-3.89-3.83-7.28-6.13-3.41a6.22,6.22,0,0,0,.08,6.92l5.42-4.37a10.24,10.24,0,0,1-2.74-4.76l-4.22,4.41-.91-1,5.93-2.61c-2.19-2.15-3-5.23-4.26-7.94a14.81,14.81,0,0,0-5.83-6.71c-2.13-1.27-5.55.48-5.21,3.14l.19,1.49,6.5-1.91a18.54,18.54,0,0,0-9.88-7.32l-.78,6.91-.42-.62,5.07-4.07c-3.82-1.62-7.13-4.51-11.31-5.24-4.54-.8-9.48-.19-14,.25-8.38.81-14.92,5.05-21,10.62l5.6,4.13v.25l-4.07-5.07-.75,1c-.44.6-.88,1.2-1.31,1.8a30,30,0,0,0-2.84,4.7c-1.34,2.94-1.45,7.47,2.7,8.06l-1-6.39-4,2.86c-2.69,1.91-1.77,6.67,1.91,6.5a7.82,7.82,0,0,0,2.85-.56l-3.54-5.79a63.89,63.89,0,0,0-6.66,8.21c-1.83,2.65,1.34,5.82,4.07,5.07a6.35,6.35,0,0,0,4-3.09c2.39-3.85-3.73-7.21-6.13-3.41l-4.65,7.35c-1.55,2.46.7,5,3.14,5.21a5.45,5.45,0,0,0,2.58-.37L106,146.57c-2.46,2.45-6.63,5.6-4.51,9.59,1.86,3.49,6.22,2.4,8.51,0l-5.07-4.85a20.57,20.57,0,0,0-4,7.65c-.77,2.71,2.79,5.82,5.24,3.85.87-.7,1.75-1.36,2.66-2l-5.2-2c2.62,11.22,14.31,17.76,23.92,22.33,4.05,1.93,7.37-3.89,3.41-6.13-4.62-2.61-10.53-2-14.87-4.94-2.55-1.74-7.42-6-6.53-9.42,1.14-4.38-5.66-6.09-6.8-1.72Z"/><path class="cls-7" d="M122,159c3.42,1.2,6.56,3.06,9.92,4.41A39,39,0,0,0,142.55,166c7.53.77,15.06-.39,22.4-2.07,4.4-1,2.38-7.73-2-6.72-6.73,1.55-13.77,2.66-20.68,1.75-6.76-.89-12.27-4.54-18.58-6.75-4.27-1.49-5.95,5.33-1.72,6.8Z"/><path class="cls-15" d="M128.62,127c3.15,2.92,6.73,6.34,6.1,11.06-.15,1.11,1.55,1.55,1.7.43.73-5.43-2.88-9.32-6.58-12.75-.83-.77-2,.5-1.21,1.27Z"/><path class="cls-15" d="M157.15,125.11c-2.79,3.93-5.42,8.31-3.73,13.25.36,1.06,2,.57,1.68-.5-1.52-4.47,1.1-8.39,3.59-11.89.65-.92-.89-1.76-1.53-.85Z"/><path class="cls-7" d="M195.46,118.28c-1.32,4.57-2.69,9.12-4.34,13.59l3.4.86a55.26,55.26,0,0,0,2.64-13.85c.1-1.57-2-2.2-3-1.17-3.24,3.34-4.42,7.61-5.05,12.1-.16,1.11-.08,3.84-1.56,4.18-1.17.27-1.87-1.44-2.21-2.15a10.8,10.8,0,0,0-3.25-4l-2.06,2.8.58.38,2.06-2.8a8.79,8.79,0,0,1-.95-.65l-1.7,3.07a46.49,46.49,0,0,1,5.72,3.72,1.82,1.82,0,0,0,2.13.23c4-2.11,3.45-7.76,4.2-11.74a1.78,1.78,0,0,0-2.62-1.92,66.87,66.87,0,0,0-8.88,6.16c-1.33,1.08,0,2.85,1.3,3a24.22,24.22,0,0,1,4.83,1,1.77,1.77,0,0,0,1.92-2.62c-.19-.25-.41-1.07-.57-.78l-1.5.9-.16.09c1.84,1.31,3.53-1.78,1.7-3.07a2.42,2.42,0,0,0-1.62-.53,1.76,1.76,0,0,0-1.5.9,4.23,4.23,0,0,0,.64,4.32l1.92-2.62a29,29,0,0,0-5.76-1.07l1.3,3a61.45,61.45,0,0,1,8.18-5.6L188.64,122c-.5,2.64-.14,8.3-2.63,9.61l2.13.23a52.8,52.8,0,0,0-6.44-4.25c-1.93-1.25-3.5,1.78-1.7,3.07a8.79,8.79,0,0,0,.95.65c1.67,1,3.64-1.56,2.06-2.8-.42-.33-.86-.62-1.31-.91-1.67-1.11-3.51,1.47-2.06,2.8a8.48,8.48,0,0,1,2.32,2.42,14.24,14.24,0,0,0,1.69,3.08,4.41,4.41,0,0,0,5.72,1.06c2.4-1.51,2.76-3.72,3.13-6.32.55-3.87,1.38-7.64,4.19-10.54l-3-1.17a51.53,51.53,0,0,1-2.53,12.91c-.71,2.17,2.64,2.94,3.4.86,1.65-4.47,3-9,4.34-13.59.63-2.17-2.78-3-3.4-.86Z"/><path class="cls-7" d="M178,130.73c2.41,3.48,4.73,9.53,10,8.51a12.27,12.27,0,0,0,3.85-1.87q3.41-2,6.94-3.84c4.24-2.16,8.59-4.09,12.9-6.1l-2.62-1.92c-.48,3-4,3.17-6.45,3.27l1,3.25a40.09,40.09,0,0,0,13.07-9.52l-2.8-2.06a10.34,10.34,0,0,1-3.17,4.43l2.62,1.92a84.55,84.55,0,0,1,4.87-13.2l-3.29-.81A11.31,11.31,0,0,1,214,119l3.23,1.28c.67-3.54.88-8-2.8-10-1.86-1-3.7.26-5.47,1.11a51.88,51.88,0,0,0-7.66,4.7,1.76,1.76,0,0,0,1.84,3,3.61,3.61,0,0,0,2.37-2.8c.08-1.45-1.59-2-2.67-1.46a8.74,8.74,0,0,0-1.88,1.55,1.77,1.77,0,0,0,1.77,2.89,80.74,80.74,0,0,0,8.6-3.38l-2.6-1a8,8,0,0,1-1.15,6.26l3.07,1.7,4.35-8.73-3.23-1.28a28.2,28.2,0,0,1-6,12.1l3,1.17a35.67,35.67,0,0,1,1.49-8.79c.57-1.94-2.26-3-3.23-1.28a105,105,0,0,1-6,9.33l3.23,1.28a31.87,31.87,0,0,1,2.84-6.95l-3.29-.81a74.93,74.93,0,0,1-1.67,9.81l3.38-.07a21.06,21.06,0,0,1-.6-6.43c.1-2-3.12-2.34-3.45-.39a18.14,18.14,0,0,1-1.73,5.76l3.21.35c-.85-3.72.76-7.52.84-11.27,0-1.22-1.63-2.3-2.67-1.46-4.78,3.85-3.89,9.89-5.7,15.19-.63,1.86,2.5,3.13,3.23,1.28a12.52,12.52,0,0,0,1.08-3.29c.2-1.93-2.43-2.05-3.29-.81a9.61,9.61,0,0,0-1,2.82c-.62,2.23,2.63,2.92,3.4.86a23.83,23.83,0,0,0,1-13.19c-.42-2.21-3.78-1.2-3.36,1a20.51,20.51,0,0,1-1.06,11.33l3.4.86a6.56,6.56,0,0,1,.69-2l-3.29-.81a2,2,0,0,0-.64,1.51l3.23,1.28c1.35-4,.6-10.22,4.13-13.06l-2.67-1.46c-.09,4.2-1.65,8-.69,12.2a1.77,1.77,0,0,0,3.21.35,20.71,20.71,0,0,0,2.06-6.6l-3.45-.39a24.2,24.2,0,0,0,.74,7.36,1.77,1.77,0,0,0,3.38-.07,82.08,82.08,0,0,0,1.77-10.75c.18-1.8-2.51-2.23-3.29-.81a35.82,35.82,0,0,0-3.18,7.79c-.57,2.06,2.15,2.79,3.23,1.28a105,105,0,0,0,6-9.33l-3.23-1.28a39.8,39.8,0,0,0-1.59,9.73,1.77,1.77,0,0,0,3,1.17,32,32,0,0,0,6.88-13.67c.43-1.88-2.32-3.11-3.23-1.28l-4.35,8.73a1.76,1.76,0,0,0,3.07,1.7,11.51,11.51,0,0,0,1.44-9,1.78,1.78,0,0,0-2.6-1,72.82,72.82,0,0,1-7.77,3l1.77,2.89a2.76,2.76,0,0,1,1.18-1L202,116.36c.07-1.25.39-.8-.69-.27l1.84,3a51.7,51.7,0,0,1,7.15-4.44c1.93-1,3.45-1.56,3.89,1.21a10.7,10.7,0,0,1-.34,3.57c-.35,1.84,2.37,3.19,3.23,1.28a14.78,14.78,0,0,0,1.38-8c-.16-1.58-2.49-2.53-3.29-.81a90.1,90.1,0,0,0-5.2,14.05c-.38,1.36,1.39,2.91,2.62,1.92a13.66,13.66,0,0,0,4.41-5.72c.7-1.71-1.34-3.66-2.8-2.06a37.72,37.72,0,0,1-12.37,9c-1.63.74-.67,3.31,1,3.25,4.09-.16,9-1.17,9.77-5.92a1.78,1.78,0,0,0-2.62-1.92c-6.3,2.94-12.69,5.72-18.69,9.25-2.86,1.68-4.74,3.21-7.08.12-1.17-1.55-2-3.33-3.12-4.92-1.28-1.85-4.28,0-3,1.84Z"/><path class="cls-7" d="M189.49,120.91c-.56,2.48,1.3,3.57,3.52,3.8,4,.41,8.36-.32,12.33-.54s12.56.56,13.59-4.73c.43-2.21-3-3.08-3.4-.86-.49,2.52-7.89,2-9.85,2.06l-8.71.45c-.68,0-1.35.12-2,.14q-.68,0-1.35,0-1.16-.49-.69.53c.5-2.2-2.9-3.06-3.4-.86Z"/><path class="cls-7" d="M201.09,130.56c-2.66.24-4.14-1.82-5.58-3.75-.81-1.09-1.35-1.79-1.06-3.2a15,15,0,0,0,.48-3.38c0-2.26-3.54-2.18-3.51.08,0,1.72-.81,3.31-.61,5.06s1.48,3,2.48,4.3c2,2.58,4.41,4.71,7.88,4.4,2.24-.2,2.18-3.71-.08-3.51Z"/><path class="cls-7" d="M200.32,120.61c3.22,0,3.22-5,0-5s-3.22,5,0,5Z"/><path class="cls-7" d="M188.54,77.25c-1.55,6.39-2.88,13-.43,19.31l2.11-2.2a3.23,3.23,0,0,1-2.16-3.47c.12-2-3-2.27-3.45-.39-1.35,5.46,2.18,9.66,6.52,12.48,5.63,3.67,10.92,4.1,17.47,3.19l-1.79-1.72,0,.53,2-.85-2-.59c-1.92-.57-3,2.3-1.28,3.23a7.19,7.19,0,0,0,5.42.68c2-.48,6.93-3.74,8.05-.78l3.18-1.42c-1-2.3-1.67-4.76-2.78-7a20.11,20.11,0,0,0-4.62-5.62c-1.64-1.59-2.14-3.89-3.8-5.34a8.59,8.59,0,0,0-2-1.15c-2.14-1-2.66-2.1-3.38-4.26l-3.18,1.42a19.56,19.56,0,0,0,4.43,5.66l2.43-2.53a95.94,95.94,0,0,1-7.45-6.72c-2-2-3.73-4.62-6-6.34-2.89-2.21-7.49-1.44-7.44,2.79a1.77,1.77,0,0,0,1.79,1.72,3.48,3.48,0,0,1,2.52.34,16.74,16.74,0,0,0-.88,1.46,11.7,11.7,0,0,0-1,3,12,12,0,0,0,.66,6.76c.79,2.08,4,1.18,3.36-1-1-3.31-1.89-6.43-1.62-9.94l-3.51.08q.3,10.44,1.49,20.8l3-1.3-2.61-2.14a1.75,1.75,0,0,0-2.43,2.53c3.75,4,7.63,7.37,13.31,7.76,4.27.3,10.68.14,14.08-2.9,4.44-4-.22-6.88-3.3-9.74L196.83,78.42a1.77,1.77,0,0,0-2.91.84,61.35,61.35,0,0,0-1.64,18l2.61-1.57a13.53,13.53,0,0,1-5.71-5.36l-2.35,2.45c4,1.84,4.89,7,8.45,9.45,4.33,3,11.48,1.39,16.22.22,1.78-.44,3.72-.88,4.08-2.95a3.52,3.52,0,0,0-2.4-3.81c-1.72-.72-2.89-.38-4.57-1.63a26.41,26.41,0,0,1-3.36-3.41c-2.61-2.82-5.07-5.76-7.43-8.79a1.77,1.77,0,0,0-3.25,1l-.09,12.31c0,2.21-.5,5.07,2,6,2.78,1,7.24.59,10.17.39,2.19-.15,4-.71,5.15-2.65a1.79,1.79,0,0,0-.32-2.12c-1.37-1.47-3-1.62-4.85-2.18a12.09,12.09,0,0,1-7.07-5.6c-1.19-2-3.93-.16-3,1.84,1.22,2.59-1.1,6.44-.36,9.39a1.77,1.77,0,0,0,2.6,1,4.79,4.79,0,0,0,2.25-5.34l-2.89,1.77a10.54,10.54,0,0,0,9,2c2.21-.46,1.19-3.82-1-3.36a6.63,6.63,0,0,1-5.56-1.2,1.77,1.77,0,0,0-2.89,1.77L197,98.21l2.6,1c-.9-3.57,1.69-6.6,0-10.22l-3,1.84a16,16,0,0,0,5.1,5.36c2.07,1.33,5.79,1.41,7.39,3.12l-.32-2.12c-.88,1.44-4.65.87-6,.85-1,0-2.58.28-3.48-.1L198,97.78V95.73l.09-13-3.25,1a123.2,123.2,0,0,0,9.82,11.42,12.72,12.72,0,0,0,4.07,3.07c.44.18,2.46.31,2.76.65a15.9,15.9,0,0,1-2.9.64,29.48,29.48,0,0,1-8.68.71c-2.58-.34-3.74-1.72-5.12-3.76-1.79-2.62-3.23-5.35-6.24-6.73a1.77,1.77,0,0,0-2.35,2.45,17.08,17.08,0,0,0,7,6.59,1.77,1.77,0,0,0,2.61-1.57,58,58,0,0,1,1.53-17.05l-2.91.84,10.22,9.45,5.11,4.72L212.8,98c.95.88,2.25,1.29,1.5,2.45-1.72,2.65-8.66,2.45-11.39,2.28-4.94-.31-8.16-3.39-11.39-6.81l-2.43,2.53,2.61,2.14c1.05.86,3.15.34,3-1.3q-1.19-10.37-1.49-20.8c-.07-2.3-3.34-2.13-3.51.08-.29,3.78.64,7.29,1.76,10.87l3.36-1a8.71,8.71,0,0,1,.33-7.5c.6-1.19,1.28-2,1-3.39-.57-2.91-3.56-3.41-6.06-3.16l1.79,1.72c0-1.63,4.78,3.32,4.88,3.43q1.48,1.62,3,3.17c2.23,2.21,4.57,4.29,7,6.28,1.73,1.41,4.13-1,2.43-2.53a17.14,17.14,0,0,1-3.87-5c-.93-1.76-3.8-.46-3.18,1.42.68,2,1.47,4.11,3.29,5.42,1.08.77,2.81,1.09,3.64,2.16.63.81.89,2,1.53,2.84,1.59,2.13,3.94,3.49,5.29,5.84s2.09,5.38,3.27,8c.81,1.8,3.88.43,3.18-1.42a5.43,5.43,0,0,0-4.77-3.68c-3.41-.34-7.12,3.46-10.36,1.71l-1.28,3.23,2,.59a1.76,1.76,0,0,0,2-.85,3.46,3.46,0,0,0,.42-2.31c-.12-.85-.77-1.86-1.79-1.72-4.41.61-8.65,1-12.77-1-3.84-1.92-9-5.28-7.74-10.27L184.56,91a6.56,6.56,0,0,0,4.8,6.8,1.76,1.76,0,0,0,2.11-2.2c-2.24-5.76-.94-11.65.47-17.45.53-2.2-2.87-3.05-3.4-.86Z"/><path class="cls-7" d="M184.56,87.46l.05,2.48a1.75,1.75,0,1,0,3.51-.08l-.05-2.48a1.75,1.75,0,0,0-3.51.08Z"/><path class="cls-7" d="M202.92,78.65l-.84-.57a1.77,1.77,0,0,0-2.53,2c.46,1.16.05,4.53-.7,5.46-.45.56-1.21.82-1.69,1.39a3.27,3.27,0,0,0-.7,2c-.22,2.24,3.29,2.15,3.51-.08,0,.39,1.35-.62,1.67-1a5,5,0,0,0,1-2.76c.29-1.93,1-4.22.23-6.11l-2.53,2,.84.57c1.87,1.27,3.56-1.8,1.7-3.07Z"/><path class="cls-7" d="M81.48,72.48a78.45,78.45,0,0,0-6.09,10.74C73.73,87,73.16,91.17,71.5,95c-1.19,2.73-3.11,5.44-2.66,8.53s1.71,5.81,4.28,7.47a1.77,1.77,0,0,0,2.53-2c-.49-1.6-1.32-3.62-1.28-5.31,0-1.87,1.54-3.65,2.52-5.13A18,18,0,0,0,80.21,91c.26-1.87-2.2-3.13-3.23-1.28L75,93.18l3.07,1.7q1.45-2.89,3-5.71l-3.07-1.7-.57,1,3,1.17a4.86,4.86,0,0,1,.76-3.15,1.76,1.76,0,0,0-2.8-2.06,11.17,11.17,0,0,0-3.35,5c-.7,1.9,2.29,3,3.23,1.28A68.41,68.41,0,0,0,82,83.21c1.15-2.78,3.21-5,4.67-7.67l-3,.07a12.06,12.06,0,0,0,3.48,3.52c1.32.9,2.92-.67,2.53-2l-.39-1.38-3.18,1.42c.87,1.69,2.21,2.53,3.66,3.65,1.9,1.46,2.8,3.51,4.55,5.1,1.57,1.43,3.49-.45,2.71-2.18l-1-2.19-2.71,2.18c3,2.52,5.55,6.81,4.19,10.87-.45,1.35-1.76,2.94-2.49,4.21a21.86,21.86,0,0,1-4.19,5.13A41,41,0,0,1,86,107.68c-1.06.72-1.63,1.22-3,1.16s-1.14-.4-2.12-.68-2.71.11-3.33-.2c-1.22-.61-1.65-4.64-2-5.91l-3.36,1a16.4,16.4,0,0,0,4.5,6.55c1.06.94,3.12.29,3-1.3a20.43,20.43,0,0,0-2.76-8.66l0,1.77c-.43.77,1.93,5.94,2.44,6.78a3.88,3.88,0,0,0,3,2.12c3.1.27,6.67-3.52,8.73-5.49C94.08,102,97.38,98,98.56,94c.74-2.52-.57-6.61-2.16-8.65-2.19-2.84-6.24-7.07-9.83-8-3.38-.91-4.95,1.9-6.06,4.68A61,61,0,0,0,77,96.18a8.25,8.25,0,0,0,.08,4.16c.94,2.47,2.79,4.49,3.71,7.06a1.77,1.77,0,0,0,2.6,1,26.62,26.62,0,0,0,5.65-5c1.16-1.38,2.59-2.44,3.77-3.79,2.43-2.8,3.87-7.51,2.85-11.09a13.76,13.76,0,0,0-7.06-8.53c-3.23-1.41-7.11-.49-8.51,2.94-.44,1.08.1,2.8,1.57,2.61,2.73-.36,5.32-1.45,7.25,1.34l2.35-2.45a8.65,8.65,0,0,0-10.54,1.87,1.78,1.78,0,0,0,1.3,3c2.32.09,4.44-.71,6.45.7,1.09.77,1.92,1.85,3.07,2.59s2.5-.36,2.61-1.57a4.62,4.62,0,0,0-1.64-4.11c-1.2-1.12-3.58.07-2.89,1.77,2,4.87-.53,8.41-4.71,10.67a14.09,14.09,0,0,0-1.9,1.1c-.37.28-1.21,1.41-1.52,1.52l-.27.36A1.6,1.6,0,0,0,81,99.93a34.53,34.53,0,0,1-1.28-3.7l-3.18,1.42a28.28,28.28,0,0,0,5.18,5.42,1.76,1.76,0,0,0,2.71-2.18,28.09,28.09,0,0,0-4.31-6l-2.06,2.8a34.79,34.79,0,0,0,7.36,3.7c1.63.6,3-1.9,1.64-3a38.85,38.85,0,0,1-5.3-5.15L79.69,96a37.48,37.48,0,0,0,8.14,3.69c1.81.58,2.7-1.77,1.64-3-2.4-2.72-5.5-4.16-8.81-5.49l-.81,3.29a59.23,59.23,0,0,1,12.28,2.79c1.91.59,3-2.3,1.28-3.23-4.46-2.41-9.53-3-14.09-5.13L79,92.21a19.36,19.36,0,0,1,12.35.4l-.07-3.38a6.13,6.13,0,0,1-5.18-.75c-1.94-1.16-3.64,1.91-1.7,3.07a9.68,9.68,0,0,0,7.89,1c1.8-.49,1.45-2.84-.07-3.38A22.48,22.48,0,0,0,78,88.85a1.77,1.77,0,0,0-.35,3.21c4.56,2.12,9.66,2.73,14.09,5.13L93,94a63.28,63.28,0,0,0-13.22-2.89c-1.69-.14-2.41,2.65-.81,3.29,3,1.22,5.89,2.46,8.09,5l1.64-3A33.56,33.56,0,0,1,81.4,93c-1.82-1.11-3.28,1.38-2.06,2.8a38.85,38.85,0,0,0,5.3,5.15l1.64-3a31,31,0,0,1-6.52-3.37C78,93.44,76.41,96,77.69,97.4a24.69,24.69,0,0,1,3.75,5.34l2.71-2.18a24.82,24.82,0,0,1-4.61-4.73,1.76,1.76,0,0,0-3.18,1.42c.53,2.41,2,7.1,4.69,8.06,2.29.83,3.92-2.07,5.69-3.06,5.43-3,8.77-8.38,6.24-14.67l-2.89,1.77L90.64,91l2.61-1.57c-1.76-1.12-2.86-3-4.89-3.73s-4.25.09-6.41,0l1.3,3a5.13,5.13,0,0,1,6.3-1.22C91,88.17,93,86.51,91.9,85c-2.78-4-6-3.58-10.32-3l1.57,2.61c1.77-4.32,6.45,0,7.86,2.14,1.82,2.82,1.66,5.44.32,8.47-.91,2-2.58,3.15-4,4.73a31.67,31.67,0,0,1-5.75,5.48l2.6,1c-1.1-3-4.15-6.17-3.76-9.35a64,64,0,0,1,2.82-12.26c.73-2.18,1.22-4.52,3.73-3.39,1.8.81,3.48,2.79,4.87,4.18a8.83,8.83,0,0,1,2.73,4.54c.7,3,.3,4-1.15,6.33-2,3.27-5.25,7.42-8.79,9.17-2.84,1.41-3.05-1.74-3.91-3.91A6.91,6.91,0,0,0,79.15,99a3.35,3.35,0,0,0-4.83,0,2.3,2.3,0,0,0-.49,2.29c.71,2.6,2.07,4.24,2.34,7.1l3-1.3a12.61,12.61,0,0,1-3.56-5,1.76,1.76,0,0,0-3.36,1c.63,2.37.91,5.52,2.61,7.43s3.3.54,5.24,1.29,2.73,1.64,4.93.66a33,33,0,0,0,7.18-5,26.34,26.34,0,0,0,5.69-6.46c1.08-1.79,3-3.95,3.38-6,.86-5.43-1.43-10.32-5.45-13.74a1.76,1.76,0,0,0-2.71,2.18l1,2.19,2.71-2.18c-1.38-1.26-2.08-3-3.46-4.3s-3.25-1.93-4.19-3.75-3.71-.45-3.18,1.42l.39,1.38,2.53-2a6.07,6.07,0,0,1-2.2-2.29,1.77,1.77,0,0,0-3,.07c-1.35,2.43-3.31,4.5-4.44,7C78,83.63,76.78,86.32,75.29,89l3.23,1.28A7.81,7.81,0,0,1,81,86.84l-2.8-2.06A10,10,0,0,0,77,89.7a1.77,1.77,0,0,0,3,1.17,4.84,4.84,0,0,0,1.1-1.71c.84-2-1.95-3.73-3.07-1.7s-2,3.79-3,5.71,2,3.68,3.07,1.7L80,91.45,76.8,90.17c-.57,4.07-3.55,6.69-5.2,10.28-1.42,3.09-.25,6.41.7,9.51l2.53-2c-5.7-3.68.61-12.64,1.81-17.38,1.52-6,4.58-11.15,7.91-16.36,1.22-1.91-1.86-3.6-3.07-1.7Z"/><path class="cls-7" d="M205.09,104.94a6.33,6.33,0,0,1-.65-.18c-.21-.07.37.19,0,0l-.32-.18a1.75,1.75,0,0,0-1.7,3.07,5.9,5.9,0,0,0,1.8.69,1.75,1.75,0,0,0,.86-3.4Z"/><path class="cls-7" d="M220.49,109.16c-.29-.09,0,0,.06,0l-.1-.08.15.14a1.33,1.33,0,0,0,1.86,0,1.34,1.34,0,0,0,0-1.86,3,3,0,0,0-1.28-.75,1.32,1.32,0,0,0-1.6,1,1.35,1.35,0,0,0,1,1.6Z"/><path class="cls-7" d="M222.4,139.09c6.43,0,6.45-10,0-10s-6.45,10,0,10Z"/><path class="cls-7" d="M179.06,130.48c-4.65-2.88-9.79-5-10.5-11.17-.26-2.22-3.77-2.17-3.51.08a14.29,14.29,0,0,0,3.87,8.57c2.37,2.43,5.58,3.84,8.43,5.6,1.93,1.19,3.62-1.88,1.7-3.07Z"/><path class="cls-7" d="M216.12,116.16c-1.57,3.69-2.53,7.7-6.24,9.67a20.57,20.57,0,0,0-3,2.12c-2,1.54-3.91,1.72-6.38,2-2.21.29-2.16,3.8.08,3.51,2-.27,4.42-.23,6.32-1.1s3-2.62,4.86-3.58c4.46-2.37,5.58-6.5,7.47-11,.88-2.06-2.18-3.78-3.07-1.7Z"/><path class="cls-7" d="M203.2,147.66c1.48-.45,2.54-1.7,4-2.23,2.11-.76,1.13-4.13-1-3.36a12.42,12.42,0,0,0-2.31,1.09,8.77,8.77,0,0,1-1.69,1.14,1.76,1.76,0,0,0,1,3.36Z"/><path class="cls-7" d="M226.43,187.56l-2.07.75c-1.47.53-1.12,2.77.2,3.23a4.3,4.3,0,0,0,4.64-.91c1.06-.93.54-3.12-1-3.07a17.53,17.53,0,0,0-8.6,2.42,1.77,1.77,0,0,0,.66,3.32,13.53,13.53,0,0,0,7-1c1.81-.75.77-3.91-1.13-3.29-5.75,1.86-12,2.44-17.89,3.5a10.68,10.68,0,0,1-2.92.28q-2.92.41-1-.81c1-1.07,2.88-1.74,4.21-2.35,3-1.39,6-2.7,9.39-2.48a17.4,17.4,0,0,0,3.21.17c.71-.08,3.83-.35,3.25-.83-1.7-1.42-5.71-.54-7.62-.25-2.74.43-5.84.11-8.47,1a13,13,0,0,0-5.37,4.17c-1,1.18.41,3,1.8,2.7q8.41-2,16.94-3.28c2.23-.34,1.53-3.77-.7-3.44q-8.54,1.28-16.94,3.28l1.8,2.7c2.38-2.73,4.43-3,8-3.24,2.51-.19,5.15-1.1,7.67-.79s6.61,2.19,7.67-1.64c.76-2.74-2.52-4.4-4.77-4.62-1.89-.18-3.71.69-5.65.61a18,18,0,0,0-6.05.52C210,185,195.09,190.56,201,195c3.06,2.3,7.35,1.06,10.66.27,5-1.21,10.15-1.21,15.14-2.83l-1.13-3.29a9.78,9.78,0,0,1-5.21.66l.66,3.32a13.9,13.9,0,0,1,6.8-2.06l-1-3.07-1.17.24.2,3.23,2.07-.75c2.12-.77.54-3.9-1.56-3.14Z"/><path class="cls-7" d="M218.52,176.69l3.53.51a1.77,1.77,0,0,0,1.88-1.62,1.79,1.79,0,0,0-1.62-1.88l-3.53-.51a1.77,1.77,0,0,0-1.88,1.62,1.79,1.79,0,0,0,1.62,1.88Z"/><circle class="cls-16" cx="120.96" cy="131.47" r="3.27" transform="translate(-2.83 2.66) rotate(-1.25)"/><path class="cls-17" d="M175.93,161.52l0,.07.62-.64a1.49,1.49,0,0,1,.58-.16h-.53a2.15,2.15,0,0,0-1.47.7,2.1,2.1,0,0,0-.57,1.48,1.94,1.94,0,0,0,1.44,1.76l-.07-3.38a1.43,1.43,0,0,1,1.17,2.58,1.75,1.75,0,0,0-1.84-3,2.08,2.08,0,0,0,1.67,3.77,1.77,1.77,0,0,0,1.25-1.72,1.84,1.84,0,0,0-1.32-1.66l-.06,0,.78.43,0,0,.47.76-.12,1.14-.47.48-.67.19h.09a1.65,1.65,0,0,0,.41,0,2.27,2.27,0,0,0,1.8-1.07,1.76,1.76,0,0,0,.15-1.35,1.79,1.79,0,0,0-.83-1,1.77,1.77,0,0,0-1.35-.15,2.06,2.06,0,0,0-1,.83Z"/><path class="cls-17" d="M161,171l.16.07q.23.14-.14-.1l.07.07q.18.2-.1-.12l.08.13q.1.17-.07-.18s.16.74.06.06l.84-1.53,0,0,.88-.26h0l.89.22,0,0,.64.62q-.48-.67,0,1.46l-.62.64,0,0a1.75,1.75,0,0,0-1.84-3,2,2,0,0,0-.63,2.65,1.88,1.88,0,0,0,2.59.68,1.7,1.7,0,0,0,.84-1.53,4.19,4.19,0,0,0-.59-1.78,3.07,3.07,0,0,0-1.28-1.15,1.91,1.91,0,0,0-1.35-.15A1.75,1.75,0,0,0,161,171Z"/><path class="cls-17" d="M172.15,152.42a2,2,0,0,0-.84-2.72,4.55,4.55,0,0,0-2.12-.49,1.77,1.77,0,0,0-1.72,1.79,1.79,1.79,0,0,0,1.79,1.72h.19l-.16,0a2.79,2.79,0,0,0,.33.07c.15,0,.4.19-.08,0l.07,0q-1-.59-.52-2.05a1.75,1.75,0,1,0,3.07,1.7Z"/><path class="cls-8" d="M198.65,191.43c-1-1-2.19-2-1.91-3.54.2-1.11-1.55-1.22-1.75-.12-.36,2,1,3.55,2.34,4.81.82.77,2.15-.38,1.32-1.15Z"/><path class="cls-8" d="M200.49,178.21c-.88-.42-1.77-.81-2.64-1.25a2.06,2.06,0,0,1-1.37-2.58l-1.74.09a4.14,4.14,0,0,0,1.28,3.13c1.17,1,2.46,1.59,3.42,2.88.68.91,2-.23,1.34-1.13a9.19,9.19,0,0,0-2.37-2.23,6.09,6.09,0,0,1-1.46-1,3.17,3.17,0,0,1-.5-1.93c-.07-1.08-1.57-.8-1.74.09-.66,3.47,2.62,4.4,5.18,5.61,1,.48,1.59-1.18.58-1.66Z"/><path class="cls-7" d="M204.14,181.46a5.19,5.19,0,0,1-2.85-.84c-.94-.61-1.94.83-1,1.44a6.9,6.9,0,0,0,3.71,1.15c1.12,0,1.26-1.74.13-1.75Z"/><path class="cls-8" d="M203.28,194.33a7.48,7.48,0,0,0-2.33-.92,14.48,14.48,0,0,1-2.82-.52c-1-.43-1.62,1.22-.58,1.66,1.56.65,3.24.35,4.74,1.23,1,.57,2-.88,1-1.45Z"/><path class="cls-11" d="M194.31,160.53c1.16.44,2.6,0,3.78-.25.55-.09.3-.93-.25-.84-1,.17-2.31.62-3.31.24-.53-.2-.74.65-.21.85Z"/><path class="cls-7" d="M180.14,172.78a3.68,3.68,0,0,0,4.08-1.88,2.4,2.4,0,1,0-4.2-2.33q-.17.33.16-.16.48-.35.17-.14.56-.22.2-.11a1.32,1.32,0,0,1,.76,0,2.4,2.4,0,0,0-1.18,4.66Z"/><path class="cls-7" d="M200.38,127h-.17a2.4,2.4,0,1,0,.1,4.8h.17a2.4,2.4,0,0,0-.1-4.8Z"/><path class="cls-7" d="M227.25,124.38h-.11a2.4,2.4,0,1,0,.1,4.8h.11a2.4,2.4,0,0,0-.1-4.8Z"/><path class="cls-7" d="M191.81,72.94l-.12-.16a1.23,1.23,0,0,0-1.65-.39,1.21,1.21,0,0,0-.39,1.65l.12.16a1.23,1.23,0,0,0,1.65.39,1.21,1.21,0,0,0,.39-1.65Z"/><path class="cls-13" d="M190.42,76.86l.35-1.11c.42-1.32-1.55-2-2.21-.88a24.32,24.32,0,0,0-2.08,5.58c-.42,1.49,1.9,2.07,2.33.59a21.63,21.63,0,0,1,1.85-5l-2.21-.88-.35,1.11c-.46,1.48,1.87,2.06,2.33.59Z"/><path class="cls-13" d="M184.12,76.36q.51.28.19.07a2.42,2.42,0,0,0-1.85-.2,2.4,2.4,0,0,0-.48,4.4,2.52,2.52,0,0,0,1,.39,2.4,2.4,0,1,0,1.18-4.66Z"/><path class="cls-13" d="M180.66,80.43c.27.27-.24-.43,0-.09l.62-3-.12.1a2.35,2.35,0,0,0-.82,2.45,3,3,0,0,0,.69,1.24,1.76,1.76,0,0,0,2.68-.06,2.41,2.41,0,0,0-.07-3.05l.33.64-.82,2.45.12-.1a2.37,2.37,0,0,0,.62-3,3.79,3.79,0,0,0-.57-.77,1.76,1.76,0,0,0-2.68.06,2.41,2.41,0,0,0,.07,3.05Z"/><path class="cls-13" d="M175.1,75.46a5.54,5.54,0,0,0,1.4-.31A2.61,2.61,0,0,0,177.91,74a2.45,2.45,0,0,0,.2-1.85,2.43,2.43,0,0,0-3-1.61c-.17.07-.84.21-.13.11a2.62,2.62,0,0,0-1.68.74,2.44,2.44,0,0,0-.67,1.71c.08,1.17,1.12,2.53,2.45,2.35Z"/><path class="cls-7" d="M112,133.05q-.07.39.07-.14a2.42,2.42,0,0,0,.93,3.26,2.46,2.46,0,0,0,3.26-.93,2.71,2.71,0,0,0,.39-1,2.6,2.6,0,0,0-.28-1.84,2.4,2.4,0,0,0-4.37.67Z"/><path class="cls-7" d="M118.53,128.52l.17-.22a2.61,2.61,0,0,0,.67-1.71,2.4,2.4,0,0,0-4.13-1.61l-.17.22a2.61,2.61,0,0,0-.67,1.71,2.4,2.4,0,0,0,4.13,1.61Z"/><path class="cls-7" d="M110.46,158.85c3.22,0,3.22-5,0-5s-3.22,5,0,5Z"/><path class="cls-7" d="M110.27,155c3.22,0,3.22-5,0-5s-3.22,5,0,5Z"/><path class="cls-7" d="M229.76,126.48c.39-.09,2.06,2.6,2.35,3,.63.87,2.39,2.55,1.94,3.68-.28.71.76,1.3,1,.58.79-2-1.07-3.64-2.14-5.13-.71-1-2-3.64-3.54-3.29-.75.18-.41,1.33.34,1.15Z"/><path class="cls-7" d="M232.93,166.92a17.37,17.37,0,0,1-1.77,2.37c-.9.73-1.93,1.25-2.82,2a2.42,2.42,0,0,0,.07,3.39,2.46,2.46,0,0,0,3.39-.07c.65-.55,1.8-1.13,2.57-1.78a15.22,15.22,0,0,0,2-2.59,2.47,2.47,0,0,0-.07-3.39,2.42,2.42,0,0,0-3.39.07Z"/><path class="cls-7" d="M229.61,175.13a2.87,2.87,0,0,0,3.58-.69,24.37,24.37,0,0,0,1.43-2,2.41,2.41,0,0,0,.2-1.85,2.45,2.45,0,0,0-1.13-1.41,2.42,2.42,0,0,0-1.85-.2,2.8,2.8,0,0,0-1.41,1.13l-.61.86c-.1.14-.2.29-.31.43a1.5,1.5,0,0,1,1.32-.73l1.22.3-.1-.06a2.42,2.42,0,0,0-3.26.93,2.45,2.45,0,0,0,.93,3.26Z"/><path class="cls-8" d="M198.7,194.63c3.22,0,3.22-5,0-5s-3.22,5,0,5Z"/><path class="cls-6" d="M56.58,140.24l.93,2a.6.6,0,0,0,.83.2.62.62,0,0,0,.2-.83l-.93-2a.6.6,0,0,0-.83-.2.62.62,0,0,0-.2.83Z"/><path class="cls-6" d="M55.42,153.34A25.78,25.78,0,0,0,56.54,157l.87-.7c-1.11-.68-1.34-2-1.56-3.19-.14-.76-1.29-.41-1.15.34.28,1.54.72,3,2.13,3.9a.61.61,0,0,0,.87-.7A25.78,25.78,0,0,1,56.57,153c-.17-.75-1.32-.41-1.15.34Z"/><path class="cls-6" d="M61.48,170.1c1.2,1.63,1.06,3.83,1.91,5.64l1-.63a21.21,21.21,0,0,1-1.55-2.33c-.47-1-.19-2.13-.29-3.16-.08-.76-1.28-.74-1.2,0a12.51,12.51,0,0,0,.27,3.35,14.83,14.83,0,0,0,1.74,2.74.6.6,0,0,0,1-.63c-.86-1.83-.67-4-1.91-5.64-.45-.62-1.48,0-1,.63Z"/><path class="cls-6" d="M61.71,173a3.69,3.69,0,0,0,1.18,1.8c.59.49,1.43-.37.83-.87a2.57,2.57,0,0,1-.86-1.27.6.6,0,0,0-1.15.34Z"/><path class="cls-6" d="M57.68,138.78a10.79,10.79,0,0,0-.08,3.17c.1.76,1.3.74,1.2,0a9.7,9.7,0,0,1,0-2.85c.13-.76-1-1.06-1.16-.29Z"/><path class="cls-7" d="M58.62,132.24a9,9,0,0,0-3.09,5.4c-.42,2.05,1.21,3.94,2.59,5.27a.6.6,0,0,0,.83-.87c-1.26-1.22-2.54-2.71-2.12-4.61a7.37,7.37,0,0,1,2.42-4.17c.61-.46,0-1.49-.63-1Z"/><path class="cls-7" d="M57,146.9c-2.06,1.09-2.91,4.45-3,6.61-.19,2.93,3.12,4.48,5.42,5.44.71.29,1.3-.75.58-1-2.4-1-5.22-2.35-4.55-5.54.33-1.58.71-3.63,2.22-4.43.68-.36.05-1.38-.63-1Z"/><path class="cls-7" d="M61.95,165.09c-.84,2.74-2.06,5.5-.84,8.32a8.44,8.44,0,0,0,5.22,4.43c.73.26,1-.91.29-1.16-2.34-.83-4.34-2.48-4.76-5.06-.34-2.08.66-4.27,1.26-6.23.23-.74-.94-1-1.16-.29Z"/><path class="cls-7" d="M67.51,181.94c-.74,2,.54,4.52,1.66,6.17a4,4,0,0,0,4.26,2c.76-.14.41-1.29-.34-1.15-2.74.52-5.25-4.43-4.41-6.69.27-.72-.9-1-1.16-.29Z"/><path class="cls-7" d="M232.71,166.28l-.07,0,1.23,2v-.12l-.67,1.71q-1.51.49-.65.41-.33,0,.11,0l.72.24a8.29,8.29,0,0,0,2.09.44,2.41,2.41,0,0,0,2.35-2.45,2.47,2.47,0,0,0-2.45-2.35c.42,0-.25-.1-.33-.13l-.71-.25a5.78,5.78,0,0,0-1.87-.34,4.1,4.1,0,0,0-2.15.58,2.89,2.89,0,0,0-1.24,2.32,2.31,2.31,0,0,0,1.23,2l.07,0a2.4,2.4,0,0,0,2.33-4.2Z"/><path class="cls-6" d="M231.18,129.94a1.56,1.56,0,0,0,.14,1.38,1,1,0,0,0,1.11.38c.75-.17.41-1.32-.34-1.15q.21.15.2,0a1.55,1.55,0,0,1,.06-.27.6.6,0,0,0-1.16-.29Z"/><path class="cls-6" d="M233.25,131.07l-.06-.26c-.17-.75-1.32-.41-1.15.34l.06.26c.17.75,1.32.41,1.15-.34Z"/><path class="cls-6" d="M231.17,130.5a1.71,1.71,0,0,1-.37.94.6.6,0,0,0,.87.83,1.34,1.34,0,0,1,.91-.32.6.6,0,0,0,0-1.2,2.63,2.63,0,0,0-1.76.69l.87.83a2.81,2.81,0,0,0,.67-1.47.62.62,0,0,0-.44-.73.6.6,0,0,0-.73.44Z"/><path class="cls-13" d="M81.66,76.54c4.28-.9,8.3.71,11.56,3.47s7.21,6.85,6.4,11.52c-.39,2.27,3.1,3.17,3.49.88C105,81.23,90.88,70.92,80.63,73.09c-2.26.48-1.23,3.93,1,3.45Z"/><path class="cls-13" d="M82.44,74.67c1.54,0,3.43,0,4.72,1a1.86,1.86,0,0,0,2.55-.06,1.81,1.81,0,0,0-.06-2.55c-2.18-1.63-4.64-1.92-7.29-2-2.32-.06-2.23,3.54.08,3.6Z"/><path class="cls-13" d="M194.57,72.32c-5.63-1.25-8.06,5.41-9.72,9.7-2.69,7-2,12.07,1.38,18.61,1.07,2.06,4.13.17,3.07-1.88-2.19-4.23-3.29-7.86-2.07-12.59.43-1.65,3.33-11,6.46-10.34,2.26.5,3.15-3,.88-3.49Z"/><path class="cls-13" d="M189.2,76.13a4.2,4.2,0,0,1,2.32-.93,1.84,1.84,0,0,0,1.76-1.84,1.82,1.82,0,0,0-1.84-1.76,7.63,7.63,0,0,0-4.13,1.46,1.85,1.85,0,0,0-.59,2.48,1.81,1.81,0,0,0,2.48.59Z"/><path class="cls-13" d="M181.62,78.42c.09,0,.55.18.25,0l.15.11q-.21-.21,0,0A1.8,1.8,0,0,0,179,80.49,3.34,3.34,0,0,0,181.7,82a1.81,1.81,0,0,0,1.76-1.84,1.85,1.85,0,0,0-1.84-1.76Z"/><path class="cls-13" d="M195.07,75.86a2.76,2.76,0,0,1,1.85-.85.61.61,0,0,0,.5-.91,8.11,8.11,0,0,0-1.53-1.57c-.61-.47-1.44.4-.83.87a7,7,0,0,1,1.34,1.33l.5-.91A4,4,0,0,0,194.21,75c-.54.55.33,1.38.87.83Z"/><path class="cls-13" d="M194.54,74.79c-4.68.78-8.28,5.76-11,9.23-.48.6.39,1.44.87.83,2.63-3.3,6.11-8.17,10.52-8.91.76-.13.41-1.28-.34-1.15Z"/></svg>