<svg id="圖層_1" data-name="圖層 1" xmlns="http://www.w3.org/2000/svg" viewBox="0 0 300 300"><defs><style>.cls-1{fill:#f5b81b;}.cls-2{fill:#06143f;}.cls-3{fill:#f7f8f8;stroke:#4c4948;}.cls-3,.cls-5{stroke-miterlimit:10;}.cls-4{fill:#e6e6e6;}.cls-5{fill:none;stroke:#f5b81b;stroke-width:2px;}.cls-6{fill:#7cb640;}.cls-7{fill:#231815;}.cls-8{fill:#ebb036;}.cls-9{fill:#d3831c;}.cls-10{fill:#aa5d22;}.cls-11{fill:#cd7715;}.cls-12{fill:#984d1c;}.cls-13{fill:#712d1b;}.cls-14{fill:#ad5722;}.cls-15{fill:#040000;}.cls-16{fill:#ab5822;}.cls-17,.cls-19{fill:#fff;}.cls-17,.cls-18{opacity:0.75;}.cls-20{fill:#f4dd90;}</style></defs><title>海膽01</title><ellipse class="cls-1" cx="149.98" cy="146.83" rx="149.13" ry="80.6"/><ellipse class="cls-2" cx="150.21" cy="145.52" rx="147.21" ry="77.72"/><ellipse class="cls-3" cx="150.24" cy="153.28" rx="106.86" ry="58.69"/><ellipse class="cls-4" cx="150.24" cy="157.89" rx="98.9" ry="54.55"/><ellipse class="cls-5" cx="150.3" cy="153.34" rx="106.42" ry="58.99"/><path class="cls-6" d="M206,136.94c3.22,0,3.22-5,0-5s-3.22,5,0,5Z"/><path class="cls-6" d="M196,128.81a4.62,4.62,0,0,0-4.16-1.31,8.48,8.48,0,0,1-4.63-.47,2.52,2.52,0,0,0-3.08,1.75,2.56,2.56,0,0,0,1.75,3.08,10.81,10.81,0,0,0,4,.82,16,16,0,0,0,2-.18,3.65,3.65,0,0,1,.61-.07q.85,0,0-.09c2.15,2.41,5.67-1.14,3.54-3.54Z"/><path class="cls-6" d="M158.66,121.19c-4.2,0-7.73,1.44-11.44,3.3-2.17,1.09-1.19,4.84,1.26,4.66,8-.6,15.13.85,22.89,2,3.28.49,7.9.49,8-3.91l-3.16,2.41a34.79,34.79,0,0,0,9.46,1.05c3.22,0,3.22-5,0-5a30,30,0,0,1-8.13-.87,2.53,2.53,0,0,0-3.16,2.41c0-1.63.47-.35-.9-.85a19.15,19.15,0,0,0-2.59-.39c-1.48-.3-2.93-.7-4.41-1a67.69,67.69,0,0,0-18-.85l1.26,4.66c3-1.48,5.56-2.6,8.92-2.61s3.22-5,0-5Z"/><path class="cls-6" d="M197.18,133.21a24,24,0,0,1,3.37,2.2,2.56,2.56,0,0,0,3.54,0,2.53,2.53,0,0,0,0-3.54,28.63,28.63,0,0,0-4.39-3,2.5,2.5,0,0,0-2.52,4.32Z"/><path class="cls-6" d="M185.71,126.17a109,109,0,0,1-21.81-3.77c-3.09-.92-4.41,3.9-1.33,4.82a115.69,115.69,0,0,0,23.14,3.95c3.2.28,3.19-4.72,0-5Z"/><path class="cls-6" d="M121.11,126.1a102.12,102.12,0,0,0-13.72,3.08,2.51,2.51,0,0,0,.66,4.91c4.26.25,21.45-3,14.48-10.1l-1.1,4.18a51.26,51.26,0,0,1,18.73-.84c3,.36,5.91.9,8.84,1.46s3.44.07,6.31-.18c3.15-.28,3.27-5,0-5l-7.52,0v5a40.87,40.87,0,0,1,19,4.07l.6-4.57c-8.18,3.15-16.7,2.27-25.26,1.87v5a129.54,129.54,0,0,0,14.78-.38c3.16-.26,3.27-5,0-5a41.25,41.25,0,0,1-6.06-.35v4.82a8.76,8.76,0,0,1,2.8-.73c3-.52,1.86-4.59-.66-4.91l-1.89-.24,1.26,4.66,2-.73c3.08-.92,1.79-5.65-1.33-4.82-6.89,1.83-13.76,4-18.37,9.8a2.54,2.54,0,0,0,1.77,4.27,44.61,44.61,0,0,0,14.43-1.3c3.13-.8,1.8-5.49-1.33-4.82l-9.41,2,1.33,4.82c8.69-2,16.14,2.15,22.36,7.92,5,4.6,10.63,3.58,16.25,6.55l1.26-4.66a140.83,140.83,0,0,1-19.15-.72c-2.78-.29-3.43,4.41-.66,4.91a110,110,0,0,0,26.71,1.63l-.66-4.91-9.36,1.77c-2.44.46-2.32,4.27,0,4.82,7.74,1.82,15.56,2.08,23.06-.89,2.42-1,2.38-5.07-.66-4.91l-6.53.34,1.26,4.66,11.37-6.11c2.42-1.3,1-4.36-1.26-4.66a8.28,8.28,0,0,1-4-1.46L200.05,151l20.54-2.33c3.11-.35,3.3-5,0-5-5.61,0-12.38,1.22-13.53,7.71a2.54,2.54,0,0,0,3.08,3.08c4.74-.82,11.44-5.84,6.52-10.86-2.28-2.33-6.11-2.24-9.1-2-5.27.41-10.23,2.09-15.49.64l-.66,4.91,18.45-2.05a2.51,2.51,0,0,0,.66-4.91c-5.27-1.88-10.62-1.62-16.12-1.94a69,69,0,0,1-19-4.13l-.66,4.91c9-.19,18.34,2.81,27.31,1.36,1.77-.29,3.49-.89,5.22-1.35a65.83,65.83,0,0,1,6.78-1.45l2.16-3.76c-8-1-16.1-1.28-23.47-4.75l-1.93,4.57a17.92,17.92,0,0,0,5.22.8c2.6,0,3.24-3.33,1.26-4.66l-1.39-.93c-2.68-1.79-5.19,2.53-2.52,4.32l1.39.93,1.26-4.66a8.8,8.8,0,0,1-3.89-.62c-2.65-.81-4.53,3.34-1.93,4.57,8.23,3.88,17.11,4.3,26,5.43,1.84.24,3.18-2.31,2.16-3.76-3-4.23-9.89-1.54-13.87-.45-9.7,2.66-19.87-.8-29.76-.59a2.51,2.51,0,0,0-.66,4.91,76.65,76.65,0,0,0,16.75,4c6.17.71,12.4,0,18.35,2.07l.66-4.91-18.45,2.05c-2.65.29-3.58,4.11-.66,4.91a26.11,26.11,0,0,0,11.06.39c2-.29,5.48-1.62,7.37-.94q2.86-.76,1.88,2.66a15.07,15.07,0,0,1-2.24.48l3.08,3.08c.71-4,5.42-4,8.71-4v-5L200.05,146c-2.32.26-3.59,3.31-1.26,4.66a16.71,16.71,0,0,0,6.55,2.14l-1.26-4.66-11.37,6.11c-2.15,1.15-1.21,4.79,1.26,4.66l6.53-.34-.66-4.91c-6.7,2.65-13.46,2.52-20.4.89v4.82l9.36-1.77c2.75-.52,2.15-5.09-.66-4.91a104.51,104.51,0,0,1-25.38-1.45l-.66,4.91a140.83,140.83,0,0,0,19.15.72c2.37-.07,3.54-3.46,1.26-4.66-3.1-1.64-6.33-1.91-9.68-2.73-4.44-1.09-7.3-4.84-10.94-7.43-6.55-4.64-14-6.59-21.85-4.81-3.14.71-1.81,5.49,1.33,4.82l9.41-2-1.33-4.82a40,40,0,0,1-13.1,1.12l1.77,4.27c4.1-5.13,10-6.89,16.16-8.51l-1.33-4.82a19.21,19.21,0,0,0-3.15,1.23c-2.51,1.2-.89,4.38,1.26,4.66l1.89.24-.66-4.91a8.76,8.76,0,0,0-2.8.73c-2.06.72-2.67,4.45,0,4.82a50.85,50.85,0,0,0,7.39.53v-5a129.54,129.54,0,0,1-14.78.38c-3.23-.1-3.2,4.85,0,5,9,.42,18,1.26,26.59-2.05,1.8-.69,2.72-3.54.6-4.57a46.38,46.38,0,0,0-21.48-4.76c-3.21.06-3.23,5,0,5l7.52,0v-5a25.41,25.41,0,0,1-7.54-.12c-2.82-.51-5.65-.95-8.5-1.25a54.21,54.21,0,0,0-19.18,1.12,2.52,2.52,0,0,0-1.1,4.18q.67-1.58-.36-.7a8.73,8.73,0,0,1-1.6.67,24.93,24.93,0,0,1-3.53.94,20.82,20.82,0,0,1-5.46.66l.66,4.91a102.12,102.12,0,0,1,13.72-3.08c3.17-.49,1.82-5.31-1.33-4.82Z"/><path class="cls-6" d="M199.53,130.42c2.59,2.09,6.16,4.58,9.66,4a.63.63,0,0,0,.44-.77,3.67,3.67,0,0,0-2.39-2.11c-1.95-.71-4.08-1.09-6.08-1.61a.63.63,0,0,0-.33,1.21l3.89,1c1.18.31,3.16.53,3.7,1.84l.44-.77c-2.89.5-6.29-1.92-8.44-3.65-.62-.5-1.51.38-.88.88Z"/><path class="cls-6" d="M113,123.66a3.16,3.16,0,0,0-3.37-.1.63.63,0,0,0,.63,1.08,1.91,1.91,0,0,1,2.11.1c.66.46,1.29-.63.63-1.08Z"/><path class="cls-6" d="M138.5,145.89c5.5,4.89,12,7.85,18.92,10.13,7.24,2.38,14.76,5.31,22.16,7,6.94,1.63,14.47.37,21.08-2a59.08,59.08,0,0,0,9.71-4.65c1.94-1.14,3.83-2.37,5.71-3.6l2.82-1.86q2.59-1.88-.07,1l2.16,1.24a14.53,14.53,0,0,1-1.36-10.45l-3.08,1.75a6.25,6.25,0,0,0,7.61-2.93c.78-1.25.1-3.42-1.49-3.67a569.45,569.45,0,0,0-61.22-6.33c-10.21-.52-20.25-2.08-30.41-3-8.45-.78-19.71-1.64-27,3.61a2.51,2.51,0,0,0,1.93,4.57c9.58-1.61,19.16-3,28.75-.72,7.78,1.89,15.08,5,23.08,5.9l-.66-4.91a115.53,115.53,0,0,1-21.62,1.22v5c4-.21,7.93-.36,11.89-.44,1.69,0,3.86-.45,5.49-.06q1.89-.14-.11.33a8.82,8.82,0,0,1-3.41,1c-2.6.44-2.15,4.13,0,4.82a171.68,171.68,0,0,0,50.39,8.29c3.24,0,3.19-4.82,0-5-7.92-.45-16.07,1.89-23.67-1.19l-1.33,4.82a24.53,24.53,0,0,0,9.76.93c2.21-.22,3.73-3.47,1.26-4.66-7.59-3.67-16.46-3.48-23.73-7.8l.9,3.42c.26-.45,8.58,1.2,9.12,1.28,3.17.47,6.32,1,9.47,1.59,6,1.09,12,2.31,17.93,3.49,3.41.67,9.12,3,12.55,1.39,3.67-1.74,5.31-7.44,6.33-11,.67-2.31-2.51-4.36-4.18-2.43-6.5,7.49-17.28,3-25.19.73l-26.54-7.62-1.33,4.82c15.56,2.17,31.1,4.45,46.67,6.51,3.82.5,8.84.47,10.45-3.89a4.93,4.93,0,0,0-5.23-6.66l.66,4.91,1.29-.46a2.53,2.53,0,0,0,1.49-3.67c-2.2-3.66-8.45-3.06-12.23-3.55-6.6-.86-13.2-1.65-19.83-2.19-6.25-.51-12.5-.66-18.76-.91-4.92-.2-16.34.82-19-4.38l-1.49,3.67c10.84-1.51,21.63.35,32.3,2.28,3.12.56,4.5-4.05,1.33-4.82-2.86-.7-5.67-1.5-8.47-2.42L169,129.13a226.11,226.11,0,0,1,37.22,9.06c2.67.9,4.45-3.27,1.93-4.57a30.59,30.59,0,0,0-11.06-2.84v5l3,.25c2.35.2,3-2.78,1.77-4.27s-2.83-1.76-4.9-1.61c-4,.3-8,1.16-12,1.66-7.76,1-15.57,1.86-23.38,2.25-8,.41-14.1-1.49-21.35-4.75-6.17-2.77-12.19-4.33-19-3.69l.66,4.91a41.09,41.09,0,0,1,14.32-1.31c3.48.18,5.81-.43,8.46-2.71a2.5,2.5,0,0,0,0-3.54c-1.85-1.44-3.48-1.83-5.56-.51a2.53,2.53,0,0,0,0,4.32c2.69,1.58,4.56,1.06,7.47,1.24a46.19,46.19,0,0,0,9.71.06L155,123.26c-3.93,1.66-7.87-2.2-12.18,0-2.44,1.24-1,4.4,1.26,4.66a35.45,35.45,0,0,0,8.84-.06l-.66-4.91a52.76,52.76,0,0,1-27.46,1.25l-.66,4.91c3.8-.17,7.95.07,11.68-.55,1.69-.28,3-.7,3.72-2.36s-.07-4-2.16-3.76c-4.1.38-8.35.47-12.41,1.17a7.65,7.65,0,0,0-3.37,1.06c-1.53,1.08-2.56,4.1-5,3.66v4.82a7.7,7.7,0,0,0,5.69-6.28l-2.41,1.84,2.63-.19c2.6-.19,3.64-4.48.66-4.91s-6.33-.61-8.08,2.28c-.62,1-.42,2.66-1.18,3.55-1.85,2.16-7.63,1.66-10,1.2v4.82l6.18-1.52c3.12-.77,1.8-5.59-1.33-4.82l-6.18,1.52c-2.31.57-2.46,4.35,0,4.82a21.29,21.29,0,0,0,11.91-.81,10,10,0,0,0,3.63-2c1.14-1.2,1.39-4.53,3.78-4.18l.66-4.91-2.63.19a2.55,2.55,0,0,0-2.41,1.84l-2.19,2.79c-2.15.7-2.59,4.36,0,4.82a8.48,8.48,0,0,0,6.92-1.5c2.4-1.6,4.32-3,7.38-3.49,2.55-.44,5.25-.48,7.83-.72l-2.16-3.76c-.28.61-10.13.39-11.09.44-2.7.12-3.54,4.28-.66,4.91a58.15,58.15,0,0,0,30.11-1.25c2.55-.79,2.25-5.29-.66-4.91a35.45,35.45,0,0,1-8.84.06l1.26,4.66c3.05-1.55,7.38,2,11,.52a2.5,2.5,0,0,0-1.33-4.82,29.07,29.07,0,0,1-7.87-.26c-1.24-.14-4.94-.23-5.46-.54v4.32l-.5-.27V123c-2.84,2.45-8.62.83-12.08,1.11a42,42,0,0,0-8.5,1.63c-2.6.76-2.24,5.18.66,4.91,13.09-1.23,23.11,8.35,36,8.54,6.68.1,13.44-.77,20.08-1.48q5.22-.56,10.44-1.23c1.72-.22,9.59-2.22,10.49-1.15l1.77-4.27-3-.25c-3.23-.27-3.15,4.65,0,5a23.24,23.24,0,0,1,8.54,2.16l1.93-4.57a226.11,226.11,0,0,0-37.22-9.06c-3.13-.49-4.45,3.79-1.33,4.82,2.8.92,5.61,1.73,8.47,2.42l1.33-4.82c-11.63-2.11-23.15-3.93-35-2.28-1.71.24-2.13,2.41-1.49,3.67,1.91,3.77,5.66,5.12,9.63,5.75,6.35,1,12.84,1.08,19.25,1.3,6.93.24,13.84.7,20.74,1.44,3.15.33,6.3.71,9.44,1.11,1.71.22,10.06.3,10.74,1.44l1.49-3.67-1.29.46c-2.44.88-2.32,5.3.66,4.91a7.51,7.51,0,0,1-5.84.45l-1.94-.27-5.83-.81-12.64-1.76-24.31-3.39c-3.09-.43-4.52,3.9-1.33,4.82,11.22,3.22,22.4,6.65,33.68,9.66,7.95,2.12,17,2.75,22.92-4l-4.18-2.43c-.57,2-1.58,6.49-3.72,7.49-1.7.8-6.13-.82-8.07-1.2-6-1.17-11.94-2.4-17.93-3.51-5.26-1-10.53-1.83-15.84-2.51-3.31-.42-7.36-1.62-9.34,1.77a2.54,2.54,0,0,0,.9,3.42c7.36,4.37,16.13,4.12,23.73,7.8l1.26-4.66a21.12,21.12,0,0,1-8.43-.75c-3.17-.93-4.23,3.65-1.33,4.82,8.06,3.27,16.6.89,25,1.37v-5A166.94,166.94,0,0,1,150.69,144v4.82c3.77-.64,12-4.91,7.6-9.59-2-2.1-5.6-1.59-8.16-1.56-4.88.05-9.76.23-14.64.48a2.5,2.5,0,0,0,0,5,122.59,122.59,0,0,0,22.95-1.4c3-.46,1.87-4.61-.66-4.91-9-1.07-17.31-5.27-26.29-6.62s-18,.13-26.87,1.62l1.93,4.57c7.5-5.38,19.68-3.52,28.34-2.52,9.5,1.09,18.9,2.25,28.46,2.71a523.94,523.94,0,0,1,58,6.06L219.85,139l-2,.64a2.52,2.52,0,0,0-3.08,1.75,19.93,19.93,0,0,0,1.86,14.3,2.48,2.48,0,0,0,2.16,1.24c3.19,0,6.35-1.11,7.65-4.29a5.8,5.8,0,0,0-1.88-6.89c-2.68-1.89-5.69-.63-8.23.88-4.6,2.74-8.84,6-13.74,8.23a41.29,41.29,0,0,1-16.57,4c-5.55,0-10.65-2.45-15.85-4.09-9.83-3.1-20.27-5.32-28.18-12.36-2.4-2.13-5.95,1.39-3.54,3.54Z"/><path class="cls-6" d="M97.22,132.8l3.67.43c.58.07.77-.71.44-1.07l-1.88-2.09L99,131.14l3.53.39c.7.08.86-1.1.17-1.23a7.24,7.24,0,0,0-3.24.37l-4.1,1a.63.63,0,0,0,.33,1.21l3.08-.77c1.09-.27,2.47-.84,3.6-.62l.17-1.23L99,129.89c-.58-.06-.77.7-.44,1.07l1.88,2.09.44-1.07-3.67-.43c-.8-.09-.79,1.16,0,1.25Z"/><path class="cls-6" d="M109.49,125.79a31.71,31.71,0,0,0,7.52-.28c.68-.13.54-1.32-.17-1.23l-6.11.79.17,1.23a18.4,18.4,0,0,1,4.77-.81c.56,0,.93-.9.32-1.16a5.86,5.86,0,0,0-2.37-.53V125l6.2-.63c.79-.08.8-1.33,0-1.25l-6.2.63a.63.63,0,0,0,0,1.25l1.74.36.32-1.16a19.63,19.63,0,0,0-5.1.86c-.64.2-.56,1.32.17,1.23l6.11-.79-.17-1.23a30.39,30.39,0,0,1-7.18.24c-.8,0-.8,1.21,0,1.25Z"/><path class="cls-6" d="M138.9,122.2c2.68-.26,5,.82,7.66,1a28.26,28.26,0,0,0,4.56-.47c5.27-.44,11.28,1.55,16.48,2.54.79.15,1.12-1.06.33-1.21-4.81-.91-9.81-2.35-14.7-2.69-2.66-.18-5.22.64-7.91.35-2.31-.25-4-1-6.41-.79-.79.08-.8,1.33,0,1.25Z"/><path class="cls-6" d="M212.67,171.72c3.22,0,3.22-5,0-5s-3.22,5,0,5Z"/><path class="cls-6" d="M149.3,123.71c-6.29,3.06-12.6,7.21-15.82,13.65-1.23,2.45-1.16,5-2,7.48-.31.93.38.5-.1,0a13.44,13.44,0,0,1-1.6-4.43c-.18-1.45.17-2.81-.14-4.33-.5-2.47-4.21-2.29-4.82,0l-1.62,6.08c-.53,2,1.81,4.08,3.67,2.82A72.52,72.52,0,0,1,139.8,138l-2.43-4.18a12.16,12.16,0,0,1-5.72,3.25l2.43,4.18a28.26,28.26,0,0,1,6.35-4.29c2.48-1.27.75-5.57-1.93-4.57L131.72,135l2.82,1.15c-.63-.87-.41.73-.25.72s.53-.39.83-.39a19.17,19.17,0,0,0,3.09-.84,70.86,70.86,0,0,1,9-1.15c4.52-.36,9.06-.4,13.59-.75,3.19-.25,3.21-5.25,0-5-4,.31-37.63.32-30.63,9.94a2.57,2.57,0,0,0,2.82,1.15l6.78-2.53-1.93-4.57a33,33,0,0,0-7.36,5.07c-1.85,1.69.08,4.88,2.43,4.18a17.15,17.15,0,0,0,7.92-4.53c1.57-1.65,0-5.19-2.43-4.18a78.78,78.78,0,0,0-14.12,7.43l3.67,2.82,1.62-6.08h-4.82c.84,4.17-1.5,7.9,3.11,10.72,2.22,1.35,6.25,2.28,7.9-.39s.89-6,2.53-8.89c2.95-5.13,8.3-8.28,13.47-10.8,2.89-1.41.36-5.72-2.52-4.32Z"/><path class="cls-6" d="M147.79,123.17c-11.6,4.1-22.55,9.57-33.47,15.19l3.76,2.16a4.29,4.29,0,0,1,3-3.91c2.39-1.38.81-5.53-1.93-4.57l-6.47,2.28c-3,1.06-1.84,5.57,1.33,4.82A202.43,202.43,0,0,0,135.1,133l-1.33-4.82-6.2,2.23,1.93,4.57A134.3,134.3,0,0,1,149.12,128c3.1-.84,1.78-5.67-1.33-4.82A142.61,142.61,0,0,0,127,130.62c-2.57,1.15-.74,5.53,1.93,4.57l6.2-2.23c3-1.08,1.72-5.9-1.33-4.82a202.43,202.43,0,0,1-21.14,6.17l1.33,4.82,6.47-2.28-1.93-4.57c-3.28,1.89-5.33,4.36-5.43,8.23a2.53,2.53,0,0,0,3.76,2.16c10.53-5.42,21.09-10.73,32.28-14.68,3-1.06,1.72-5.9-1.33-4.82Z"/><path class="cls-6" d="M207.31,135.24c0,.47,0,.94,0,1.41a2.5,2.5,0,0,0,4.91.66,14.67,14.67,0,0,0,.35-2.12,2.51,2.51,0,0,0-2.5-2.5,2.57,2.57,0,0,0-2.5,2.5c-.06.53.1-.51,0,.16,0,.21-.09.42-.14.63l4.91.66c0-.47,0-.94,0-1.41a2.5,2.5,0,0,0-5,0Z"/><path class="cls-6" d="M217.32,137.31a7.18,7.18,0,0,1-2.08,3.24l3.54,3.54a33.23,33.23,0,0,0,3-4.11,2.5,2.5,0,0,0-3.93-3,34.86,34.86,0,0,0-3,4.11,2.5,2.5,0,1,0,4.32,2.52,7.8,7.8,0,0,0,1-6.85c-.92-3.07-5.75-1.77-4.82,1.33a3,3,0,0,1-.5,3l4.32,2.52a26.09,26.09,0,0,1,2.19-3.1l-3.93-3a24.76,24.76,0,0,1-2.19,3.1,2.58,2.58,0,0,0,0,3.54,2.54,2.54,0,0,0,3.54,0,12.19,12.19,0,0,0,3.36-5.44c.87-3.1-3.95-4.43-4.82-1.33Z"/><path class="cls-6" d="M87.11,158.83l20.15,1.23c4.58.28,15.08-.05,18.76,2.54l-.46-2-.54.57,2.49-1a25.28,25.28,0,0,1-8.6-1.24l.08,3.6c3.56-.67,8.74,2.28,11.8,3.36s6,1.89,9.09,2.66a194.83,194.83,0,0,0,22.84,4.35c6.73.82,13.09.11,19.49-.43a157.31,157.31,0,0,0,22.87-3.31l-3.26-3.61c-2.3.94-26.16,9.88-27.94,8.08l.46,2c.88-1.78,9.92-1.27,12.42-1.39a81.52,81.52,0,0,0,8.49-.79,67.16,67.16,0,0,0,15.3-4.21c8.06-3.3,18.72-8.69,17.79-15.67-.22-1.61-4.3-2.74-5.7-1.41a17,17,0,0,1-8,4.24c-2.38.6-2.62,3.48.88,3.8l2.23.21-.88-3.8a42.13,42.13,0,0,0-16,6.75c-1.54,1.12.23,3.53,3,3.37,7.89-.46,13.75-2.89,16.8-7.26.65-.94-.17-2.13-1.75-2.7-6.9-2.5-9.44-1.2-14.84,1-3,1.22,0,3.93,3.26,3.61,3.88-.38,7.67-.87,11.41-1.49,1.21-.2,2.16-1.05,1.87-1.9l-.37-1.08c-.87-2.52-7.17-2.55-6.3,0l.37,1.08,1.87-1.9c-3.75.62-7.53,1.11-11.41,1.49l3.26,3.61c3.13-1.29,4.33-2.54,8.49-1l-1.75-2.7c-2.15,3.09-6.15,5-11.81,5.32l3,3.37a35.14,35.14,0,0,1,13.49-5.74c2.51-.55,2.52-3.49-.88-3.8l-2.23-.21.88,3.8c4.48-1.14,7.93-2.75,10.53-5.24l-5.7-1.41c.52,3.87-5.4,7.12-9.38,9.36a56.83,56.83,0,0,1-14.53,5.67,82.22,82.22,0,0,1-16.5,1.82c-3.91.14-9.13.18-11.9,1.91-5.28,3.29,3.69,5.61,8.45,5,9.93-1.18,19.57-5.11,27.6-8.38,2.7-1.1,0-4.39-3.26-3.61a151.77,151.77,0,0,1-21.74,3.21c-4.09.36-8.34.86-12.58.83a80.46,80.46,0,0,1-13.44-1.72c-7.7-1.38-15.44-2.92-22.58-5.54-5.29-1.94-9.92-4.49-15.74-3.4-2.31.43-2.65,2.84.08,3.6,4.9,1.37,12,3.3,14.94.25a1.4,1.4,0,0,0-.46-2c-4.32-3-11.07-3.61-16.81-4-9.33-.67-18.66-1.15-28-1.72-4.09-.25-3.15,3.69.91,3.94Z"/><path class="cls-6" d="M211.32,156c-4.23,4.25-10.55,7.12-18.41,8.6l3.82,3.3a67,67,0,0,0,9.41-6.26c1.45-1.16-.17-3.49-3-3.37-8.49.37-10.57,4.44-15.81,7.6-4.47,2.69-11.09,1.43-17.11.58q-8.78-1.25-17.48-3c-20.14-3.95-41.12-11.86-61.74-10.6-4,.24-3.2,3.68.91,3.94a184.12,184.12,0,0,1,42.39,7.71c11.23,3.49,21.44,8.29,33.75,9.09,2.77.18,3.61-2.26,1.45-3.36q-9.79-5-18.77-10.49l-.63,3.29c7.45-.82,14.51,3.45,21.83,4.52,6.4.94,12.48-.11,18.17-1.19,3.16-.6,1.89-4-1.73-3.87a242.68,242.68,0,0,1-35-1.35c-4.05-.45-4.9,3.31-.8,3.8a156.8,156.8,0,0,0,29.83.86c7.52-.55,16.38-1.15,21-4.87,1.57-1.26-.22-3.31-3-3.37a207.48,207.48,0,0,0-22.83.81c-3.51.31-1.72,3.85,1.73,3.87l3.81.5.74-3.67a70.42,70.42,0,0,1-16.93-2.18c-3.84-1-6.33,2.13-2.39,3.4l4.94,1.59-.08-3.6-3.77.17.88,3.8a53.31,53.31,0,0,1,10-.84l-1.73-3.87c-10.38.87-21.92-.37-32.63-.89-10.45-.5-21.31-.5-31.29-3.87l-1.59,3.6c15.4,1.57,31.24,5.42,46.45,8.23l-.88-3.8c-3.23.48-10.18-3.61-12.55-4.81l-.63,3.29c6.7-.93,13.48.69,20.17,2.31,3.45.84,4.32-2,2.3-3.29l-4.69-3.09-.63,3.29,1-.32,3.31-2.42c-5-1.21-8.73-3.83-13.17-5.67a97,97,0,0,0-12.45-3.79,61.81,61.81,0,0,1-13-4.47c-3.68-1.91-6.71-4-10.95-5.41l-.74,3.67c7.28.62,10.3,6.64,17.2,7.73,1.3.2,2.93-.11,3.35-.9l.16-.3c.41-.78.17-1.75-1-2.39l-.36-.19c-2.88-1.51-6.78.42-4.39,2.38l17.22,14.11,4.39-2.38a49.7,49.7,0,0,1-4.58-2.49l-2.13-1.47a11,11,0,0,0,5.68,2.37l1.59-3.6c-9-.91-18.25-1.86-27.11-1.4-9,.47-17.51,3.65-27.05,1.33l1.58,3.6c11.51-3.66,28.67,1.21,41,4,3.6.81,4.82-2.47,1.59-3.6a102.08,102.08,0,0,0-11.28-3.19l.88,3.8a17.26,17.26,0,0,1,7,.31l.8-3.8a135.76,135.76,0,0,0-22.54-1.94c-3.54,0-7,.18-10.47.49-3.87.35-8,1.29-12.07-.07l.79,3.4c12.49-4.27,27.31-5.31,42.52-3l-.06-3.87c-12.87.64-27.38,2.12-40.58-.9l1.58,3.6a138.69,138.69,0,0,1,29.32-4.83l-3-3.37a7.78,7.78,0,0,1-4.24.71c-3.46.11-3.6,3.22.06,3.87l4.94.88-.06-3.87c-9.29-.14-18.6-.63-28-1.52l.88,3.8q11.73-1.51,23.2-3.45c3.26-.55,1.85-3.94-1.73-3.87-4.95.1-9.78.18-14.74-1.17l1.35,3.1c2-1.72,4.23-2.47,7.9-2.42l-1.73-3.87-5.44.82c-2.22.33-2.53,2.28-.63,3.29l4.52,2.39,1.45-3.36c-6-.09-11.16.4-13.71,3.75-1.64,2.16,4.26,4.15,5.9,2s5.47-1.86,8.72-1.81c2.71,0,3.68-2.18,1.45-3.36L108.42,137l-.63,3.29,5.44-.82c3.4-.51,1.77-3.83-1.73-3.87-5.19-.07-9.29,1.1-12.09,3.56-1,.87-.76,2.52,1.35,3.1,6.1,1.67,11.83,1.84,18,1.72l-1.73-3.87q-11.48,1.94-23.2,3.45c-2.84.37-2.27,3.5.88,3.8,9.94.95,19.81,1.52,29.67,1.66,3.6.05,3.47-3.24-.06-3.87l-4.94-.88.06,3.87c3.55-.12,5.94-.48,8.42-1.85,1.85-1-.43-3.53-3-3.37a152.12,152.12,0,0,0-32.38,5.36c-2.6.74-.74,3.07,1.58,3.6,13.84,3.17,28.8,1.71,42.28,1,3.31-.16,3.73-3.3-.06-3.87-17-2.54-33.37-1.34-47.28,3.41-2,.68-1.34,2.69.79,3.4,6.59,2.22,12.67.74,19.1.34a122.12,122.12,0,0,1,27.57,1.58c4.08.68,4.84-3,.8-3.8a32.22,32.22,0,0,0-10.34-.32c-3.25.39-1.88,3.18.88,3.8a86.82,86.82,0,0,1,9.69,2.79l1.59-3.6c-14.64-3.28-32.3-7.89-45.79-3.6-2.54.81-.78,3,1.58,3.6,8.18,2,15.19.49,22.71-.55,10.14-1.41,20.78-.45,31.46.63,3.36.34,5.24-2.44,1.59-3.6s-12.47-3.26-14.27-.09c-1.6,2.81,6,6.32,9.11,7.85,2.9,1.43,6.83-.38,4.39-2.38l-17.22-14.11-4.39,2.38.36.19-1-2.39-.16.3,3.35-.9c-3.43-.54-7.15-4.27-9.92-5.59a24,24,0,0,0-9-2.29c-3.29-.28-3.46,2.76-.74,3.67,4.78,1.6,8.17,4.34,12.6,6.27a89.22,89.22,0,0,0,13.13,4.08,74.22,74.22,0,0,1,14.45,5.18,51,51,0,0,0,10.94,4.21c2.47.6,4.15-1.1,3.31-2.42-1.76-2.77-5.52-3.31-9.38-2.45-2.27.5-2.41,2.11-.63,3.29l4.69,3.09,2.3-3.29c-8-1.94-15.62-3.42-23.52-2.32-2.19.31-2.57,2.32-.63,3.29,5.17,2.59,12.46,6.79,18.91,5.83,3-.45,2.1-3.25-.88-3.8-15.21-2.81-31.05-6.65-46.45-8.23-3.41-.35-5.17,2.39-1.59,3.6,10.33,3.49,21.25,3.77,32.09,4.3,12.19.59,25,1.86,36.78.87,3.51-.29,1.72-3.86-1.73-3.87a62.34,62.34,0,0,0-11.63,1c-2.82.51-2.28,3.31.88,3.8a16.85,16.85,0,0,0,7.12-.16c2.28-.55,2.65-2.72-.08-3.6l-4.94-1.59-2.39,3.4A84.09,84.09,0,0,0,184.73,163c3,0,3.83-2.8.74-3.67a24.85,24.85,0,0,0-7.11-1l1.73,3.87a193.18,193.18,0,0,1,21.19-.67l-3-3.37c-4.23,3.39-14.56,3.71-21.37,4a148.44,148.44,0,0,1-23.58-1l-.8,3.8a254.87,254.87,0,0,0,36.75,1.49l-1.73-3.87c-8.64,1.64-14.72,1.59-23.74-1.18-5.54-1.7-10.57-2.78-16.26-2.15-2.44.27-2.27,2.28-.63,3.29q9,5.53,18.77,10.49l1.45-3.36c-13.38-.87-26.13-7.64-38.78-10.91A200.82,200.82,0,0,0,91,152.88l.91,3.94c10.78-.66,21.3,1.41,31.91,4,10.9,2.63,21.65,5.35,32.76,7.37,8.48,1.54,20,4.21,28.4,3.14,8.76-1.12,10.36-8.7,19.06-9.08l-3-3.37a67,67,0,0,1-9.41,6.26c-2.26,1.25,1.11,3.81,3.82,3.3,9.47-1.78,16.69-5.32,21.75-10.41,2-2-3.92-4-5.9-2Z"/><path class="cls-6" d="M219.06,134.09l-1.61-.21.24.5a1.6,1.6,0,0,1,.58.09l2.82,1,2.66.79Z"/><path class="cls-6" d="M227.09,141.13c-1.53-.62-3.05-1.25-4.53-1.93l-2.94-1.12c1.35,2.71,2.37,5.52,1.13,7.72-1.84,3.27-8.2,6.28-12.26,8.34a64.74,64.74,0,0,1-31,7,24.81,24.81,0,0,0-4.91-.3,3.11,3.11,0,0,0-2.07.75,59.73,59.73,0,0,1-11.95-3.29c-7.83-3.09-13.14-7.83-19.28-12-3.13-2.15-7.41-5.28-12.11-4.17a4.23,4.23,0,0,0-3,1.89c-3.13-1.24-6.35,1.32-3.26,3l5.79,3.2c2.4,1.33,6.39,0,4.82-1.91-.42-.51-1.26-1.54.15-1.73.52-.07,3.86,2.51,4.19,2.74,2.05,1.44,4,2.94,6,4.39a65.06,65.06,0,0,0,12.22,7.12,73.06,73.06,0,0,0,28.4,5.65,2.59,2.59,0,0,0,2.72-1.63A71.79,71.79,0,0,0,215,156.19c4.62-2.54,10.76-5.62,12.25-9.65A8.34,8.34,0,0,0,227.09,141.13Z"/><path class="cls-6" d="M188.14,177.06c4-1.07,7.67-1,11-2.9a60,60,0,0,1,12.31-5.63l-4.9-1.19c-.39-.84-7.46,2.43-7.8,2.62-2.51,1.41,1.77,4.2,4.53,3.11a116.13,116.13,0,0,1,11.25-3.78l-5.14-2.24-.39,1c-.7,1.86,4,3.32,5.71,1.93,3-2.46,18.07-12.15,7.73-15.66a4.79,4.79,0,0,0-3.18,0,17.48,17.48,0,0,0-3.46,2.26c-2.41,1.81,2.68,4.61,5.1,2.8a25.84,25.84,0,0,1,2.33-1.65H220c.19.06-9.09,8.38-10.44,9.46l5.71,1.93.39-1c.68-1.81-3.06-2.82-5.14-2.24a116.13,116.13,0,0,0-11.25,3.78l4.53,3.11c3.88-2.18,10.63-2,8.53-6.45-.65-1.38-3.38-1.65-4.9-1.19a50,50,0,0,0-9.76,4,46.26,46.26,0,0,1-4.37,2.54c-2.3,1-5.22.87-7.77,1.55-3.49.93-1,4.75,2.55,3.81Z"/><path class="cls-6" d="M166.78,172.46c-3.63,1.06-6.48.53-10.39.08-2.29-.26-4.2.44-6.44.23l1.58,3.6A23.21,23.21,0,0,1,162,174l-1.73-3.87c-4,.58-8.21-1.74-11.89-2.74a27.64,27.64,0,0,0-8.53-1c-6.54.23-12.84,1.88-18.9,3-3.74.68-1.24,4.43,2.55,3.81a49.29,49.29,0,0,0,6.09-1.65c4.26-1.23,7.6-.77,12.27.48l.74-3.67c-3.58-.19-7-.22-10.54-.07l3.6,2c-3.51-9.12-23.18-7.39-32.43-5.45l2.55,3.81a8.66,8.66,0,0,0,4.72-2.37c2.08-2.12,3.77-2.22,7.89-2.61,2.31-.22,2.45-2.36.63-3.29-5.37-2.75-9.15-3.65-14.78-2.2-1.95.5-.47.79-3.79.91a36.82,36.82,0,0,0-4.86.31c-3.38.57-5.66,2.71-9.08,3l3,3.37a15.24,15.24,0,0,0,6.19-6.56c1.07-2.3-4.82-4.32-5.9-2a13.3,13.3,0,0,1-5.39,5.77c-1.69,1.06.34,3.56,3,3.37,5.45-.38,8.26-3.12,13.94-3.26,4.91-.12,9-2.36,13.85.13l.63-3.29c-2.62.25-6.17.23-8.21,1.23s-1.87,3.16-4.4,3.75c-3.57.84-1.16,4.59,2.55,3.81,4.43-.93,21.58-3.57,23.58,1.63a3.71,3.71,0,0,0,3.6,2c3.5-.14,7-.12,10.54.07,3.07.17,3.75-2.87.74-3.67-4-1.08-8.12-2.11-12.3-1.87s-7.09,2-11,2.62l2.55,3.81c6.69-1.21,15.82-4.13,23.25-2.11,5.92,1.61,9.84,3.77,16.07,2.87,3.35-.48,1.8-3.92-1.73-3.87a30.61,30.61,0,0,0-13.5,2.89c-1.72.86-1.44,3.31,1.58,3.6,3.87.38,7.54.4,11.45.79s7.05-.58,10.15-1.48c3.46-1-.52-4.42-4-3.41Z"/><path class="cls-6" d="M86,156a30.64,30.64,0,0,0-7.09,1c-1.48.4-2.39,1.3-1.64,2.42a4.49,4.49,0,0,0,4.19,1.39,23.24,23.24,0,0,1,5.44-.84c1.68-.05,2.95-.86,2.69-2s-1.91-2-3.6-2Z"/><path class="cls-6" d="M75.59,155.75a15.55,15.55,0,0,1,7,1.07c3.24,1.28,6.06-1.57,3.1-3.09-1.9-1,5.5-1.5,6.14-1.45l-3-3.37-5.36,4.16c-2,1.59,1.66,4.28,4.53,3.11,3.9-1.6,14.25-5.76,11.28-9.76-.78-1.05-2.58-1.46-3.9-2.22a26.72,26.72,0,0,0-2.43-1.72c-2.65-1.23-5,0-6.5-.38l.79,3.4a14.45,14.45,0,0,1,9.19-1.25l.8-3.8c2.33.31,5.45-1,7.56-1.65l-4.53-3.11a20.61,20.61,0,0,1-6.12,3.66c-3.19,1.28.76,4.7,4,3.41a24.56,24.56,0,0,0,7.25-4.27c2-1.76-1.48-4-4.53-3.11-3.39,1-9.55,1.78-10.07,4.52-.4,2.12,2.39,3.89,5.68,4.34,4.06.54,4.89-3.2.8-3.8-5.37-.79-10-.32-13.95,1.63-1.56.78-1.7,2.7.79,3.4a11.63,11.63,0,0,0,2.77.59c.7,0,2.71-.58,3.14-.48s1.5,1.4,1.95,1.68a18.35,18.35,0,0,0,3.25,1.35l-2-1.71c.69,1.91-7.43,5.12-9.18,5.84l4.53,3.11,5.36-4.16c1.73-1.34-.34-3.15-3-3.37-7.52-.61-18.2,3.48-9,8.17l3.1-3.09a22.61,22.61,0,0,0-10.26-1.61c-3.93.25-3.06,4.2.91,3.94Z"/><path class="cls-7" d="M57,173.4c8.36-5.48,16.94-11,29.66-12.7,1.92-.26.64-2.16-1.28-1.9-13.21,1.77-22.24,7.51-30.93,13.2-1.3.85,1.25,2.25,2.55,1.4Z"/><path class="cls-7" d="M56,172.6c9.58-4.74,19-9.58,26.67-15.54,1.18-.92-1.36-2.32-2.55-1.4-7.51,5.84-16.71,10.59-26.1,15.23-1.47.73.5,2.44,2,1.71Z"/><path class="cls-7" d="M209.49,170.43l-1.48,4c-.37,1,1.92,1.56,2.85,1,7.59-4.82,13.48-10.58,16.26-17.37,2.23-5.45,5.69-13.2-1.52-18.58-1.39-1-3.89-.06-2.49,1,6.7,5,2.47,14.29-.18,19.22-3,5.56-8.22,10.28-14.62,14.35l2.85,1,1.48-4c.44-1.19-2.72-1.71-3.16-.53Z"/><path class="cls-7" d="M185.13,175.47l-11.32,3.74c-1.61.53,0,2,1.63,1.8,12.2-1.16,25.7-4.79,34.69-9.53,1.42-.75-.54-2.47-2-1.71-8.93,4.71-21.88,8.19-34,9.34l1.63,1.8,11.32-3.74c1.69-.56-.3-2.26-2-1.71Z"/><path class="cls-7" d="M150.38,171.75a100.38,100.38,0,0,0-12.66,2.8c-1.4.41-.23,1.83,1.22,1.84,15.52.11,31.26,2,46.76,2,2,0,1.57-2-.46-2-15.5,0-31.24-1.88-46.76-2l1.22,1.84a95.14,95.14,0,0,1,12-2.61c1.9-.3.63-2.2-1.28-1.9Z"/><path class="cls-7" d="M124.27,167.86c-3,1.86-9.39,2.51-13.47,3.37-1.69.36-.88,1.81.87,1.94,6.58.49,13.11.72,19.58.56,6.3-.15,12.5-1.14,18.93-.65,2,.15,1.57-1.82-.46-2-6.43-.49-12.63.5-18.93.65-6.47.16-13-.07-19.58-.56l.87,1.94c4.89-1,11.08-1.64,14.74-3.88,1.35-.83-1.21-2.22-2.55-1.4Z"/><path class="cls-7" d="M103.77,162.31a10.89,10.89,0,0,1-5.34,5.34c-1.14.56-.41,1.78,1.22,1.84a200.79,200.79,0,0,0,26-1.05c2-.18.67-2.09-1.28-1.9a194.53,194.53,0,0,1-25.15,1l1.22,1.84a12.74,12.74,0,0,0,6.31-6c.55-1.15-2.39-2.16-2.95-1Z"/><path class="cls-7" d="M86.72,159.85c-1.82,1.95-4.72,3.29-7.29,4.81-1,.57.23,1.66,1.5,1.69a79.11,79.11,0,0,0,24.36-3.23c1.72-.52-.27-2.22-2-1.71a74.29,74.29,0,0,1-22.83,3l1.5,1.69c2.78-1.65,5.72-3.11,7.69-5.21,1-1-2-2-2.95-1Z"/><path class="cls-7" d="M80.24,154.82a90,90,0,0,0-12-.31l1.5,1.69c6.18-3.77,13.71-6.23,22.46-7.5,1.91-.28.63-2.18-1.28-1.9-9.25,1.35-17.21,4-23.74,8-.93.57.21,1.68,1.5,1.69,3.61,0,7.48-.26,11.13.24,2,.28,2.44-1.62.4-1.9Z"/><path class="cls-7" d="M92.07,146a42.31,42.31,0,0,0-13.73-2.4l1.5,1.69c6.35-3.7,13.74-6.58,21.39-9.24,1.66-.58-.32-2.29-2-1.71a126.78,126.78,0,0,0-22,9.55c-1,.56.22,1.69,1.5,1.69a36.58,36.58,0,0,1,12.08,2.13c1.91.64,3.1-1.06,1.2-1.7Z"/><path class="cls-7" d="M100.68,135.4a25.63,25.63,0,0,0-8.95-2.12c-1.44-.08-1.8-1-.44-1.47a209.85,209.85,0,0,1,23.3-5.63c1.84-.36,2.27,1.17.44,1.53a202.75,202.75,0,0,0-22.53,5.47l-.44-1.47A29.81,29.81,0,0,1,102.42,134c1.41.6-.32,2-1.74,1.36Z"/><path class="cls-7" d="M116.45,127.8c-4.28-1.46-10.86-1.4-15.4-1.79-1.89-.16-2.18-1.64-.59-2a168.84,168.84,0,0,1,18.38-2.65c6.16-.53,12.83-.25,18.65-1.41,1.85-.37,2.84,1.58,1,1.94-5.81,1.16-12.49.88-18.65,1.41A168.84,168.84,0,0,0,101.47,126l-.59-2c5.45.46,11.84.37,17,2.13,1.9.65.47,2.26-1.42,1.62Z"/><path class="cls-7" d="M139.2,123.21c-3.32-.89-6.46-1.91-9.59-3.08-1.08-.4-.51-1.23.53-1.09,11.09,1.44,22,1.74,33.1,3.26,1.45.2,1.5,1.45,0,1.25-11.1-1.52-22-1.81-33.1-3.26l.53-1.09c3,1.11,5.94,2,9.05,2.88,1.41.38.86,1.51-.55,1.13Z"/><path class="cls-7" d="M164.66,123.92l-7.37-2.17c-1.84-.54.87-.85,3-.52,17.69,2.65,34,5.82,47,9.54,10.44,3,25.7,7.24,21.85,10.18-.74.57-5.78,0-5-.55,3.58-2.73-14.85-7.82-25.23-10.53A405,405,0,0,0,158.31,122l3-.52,7.37,2.17c2.21.65-1.87.93-4.06.29Z"/><path class="cls-6" d="M135.91,146.25c3.38-1.58,7.53-.78,11.1-.35a67,67,0,0,0,12.18.72c4-.24,13.18-.33,13.23-5.86a2.51,2.51,0,0,0-2.5-2.5,134.57,134.57,0,0,0-14.58,2.19l1.33,4.82,11.63-3.54c2-.6,2.58-3.54.6-4.57L162.75,134c-1.38-.72-4.55-1.64-5.33-3.07l-.39,3c.9-1,15.69,11.1,17,12.16a143.52,143.52,0,0,1,13.16,12.6c1.41,1.53,3.5.51,4.18-1.1a18.91,18.91,0,0,0,1.5-7.33c0-2-2.85-3.47-4.27-1.77a10.9,10.9,0,0,0-2,3.07c-1.35,2.9,3,5.44,4.32,2.52l1.25-2.06-4.27-1.77a14.18,14.18,0,0,1-1.32,6l4.18-1.1a151.19,151.19,0,0,0-19.76-17.87c-3.42-2.6-12.89-12-17.42-6.89a2.59,2.59,0,0,0-.39,3c2.15,3.94,9.45,6.07,13.26,8.05l.6-4.57-11.63,3.54c-3.1.94-1.81,5.48,1.33,4.82a122.16,122.16,0,0,1,13.25-2l-2.5-2.5c0-1-3,.18-3.48.28a39.22,39.22,0,0,1-6.63.65,65.67,65.67,0,0,1-9.53-.7c-4.91-.61-9.78-1.22-14.4.93-2.91,1.36-.38,5.67,2.52,4.32Z"/><path class="cls-6" d="M125.06,143.51a30.13,30.13,0,0,1,5.08-5.24c2-1.58,4.21-1.7,6.68-1.82l-.66-4.91c-2.3.33-3-.57-4.82-1.62a18.28,18.28,0,0,0-5.28-2c-3.13-.7-4.47,4.12-1.33,4.82,2.55.57,4.11,1.84,6.31,3,1.94,1,4.35.89,6.44.59,2.79-.4,2.13-5-.66-4.91s-5.9.29-8.4,1.9a29,29,0,0,0-6.9,6.62c-2,2.51,1.56,6.07,3.54,3.54Z"/><path class="cls-8" d="M116.78,104c3.22,0,3.22-5,0-5s-3.22,5,0,5Z"/><path class="cls-8" d="M98.38,129.44c-5.92.71-6,7.5-.49,9a30.89,30.89,0,0,1,4.5,2.05,11.32,11.32,0,0,0,4.48.48c3,0,7.11,1,9.46-1.22a2.52,2.52,0,0,0-.51-3.93,5.27,5.27,0,0,0-3.72-.41c-3.91.56-5.63.05-7.89-3.31-1.07-1.6-2-3.61-.29-5.07,1.15-1,2.58-.73,3.72-2.09,1.48-1.78.14-5-2.43-4.18l-2.5.78,1.93,4.57c2.38-1.5,4.87-2.72,7.32-4.08,1.17-.65,1-.66,1.88-.39.43.13,1.25,1.18,1.77,1.43,2.46,1.2,5.14-1.83,3-3.93l-.35-.85L117,120.5l.77-.54-3.67-1.49c1.43,6.16-2.28,11.13-1.72,17.18.2,2.15,3.58,3.8,4.66,1.26a50,50,0,0,0,2.88-8.77,2.53,2.53,0,0,0-3.67-2.82,8.65,8.65,0,0,0-4,5.38q-.31,1-.59,2.07-.13,1.47-1.27,0c-2.13-.48-4.06-2.08-3.89-4.34l-3.76,2.16a32.11,32.11,0,0,1,4.59,4c2.23,2.34,5.71-1.17,3.54-3.54l-1.78-1.93c-1.36-1.48-3.58-.57-4.18,1.1L102.2,138l4.91.66c0-.31,1-4.47.86-4.61a2.54,2.54,0,0,0,4.32,0c1.92-2.73,5.43-11.84,1.56-14.16-4.16-2.49-7.95,4.36-7.69,7.73l3.76-2.16-1.77-.87c-2.41-1.19-5.26,1.92-3,3.93a5.46,5.46,0,0,0,4.2,1.63c3.21-.08,3.22-5.08,0-5l-.66-.17-3,3.93,1.77.87c1.56.77,3.92-.13,3.76-2.16q1.64-1.78.4-3.25l-1.24-2.16c-.13,3.4-.33,6.45-2.34,9.31h4.32c-4.93-7.4-10.8,1.12-10.18,7.14a2.51,2.51,0,0,0,4.91.66l2.73-7.67-4.18,1.1,1.78,1.93,3.54-3.54a39.08,39.08,0,0,0-5.61-4.83c-1.67-1.2-3.63.45-3.76,2.16a7.75,7.75,0,0,0,1.78,5.82,20.76,20.76,0,0,0,6.55,4.19c6.58,2.57,5.45-6.85,9-8.82l-3.67-2.82a43.22,43.22,0,0,1-2.38,7.58l4.66,1.26c-.33-3.56,1.23-6.5,1.94-9.89a19.29,19.29,0,0,0-.4-8.62,2.52,2.52,0,0,0-3.67-1.49c-2.81,2-2.55,4.74-.19,7.09l3-3.93c-2.34-1.15-2.42-3.24-5.63-2.39-3.62,1-7.26,3.47-10.4,5.43-2.33,1.46-.87,5.45,1.93,4.57l2.5-.78-2.43-4.18c-.87,1-2.8,1.14-3.94,1.87a7.13,7.13,0,0,0-2.58,2.79c-1.27,2.58-.42,4.67,1,6.89,1.87,3,3.11,5,6.41,6.68a11.32,11.32,0,0,0,4.34,1.41,22.38,22.38,0,0,0,4-.9l-.51-3.93c-.47.44-7.54-.07-8.54-.48s-1.54-1.11-2.43-1.48a5.62,5.62,0,0,0-1.68-.52,1.42,1.42,0,0,0-1.77.67c3.16-.38,3.19-5.38,0-5Z"/><path class="cls-8" d="M119,126.89a17,17,0,0,0-.77,5.3,25.91,25.91,0,0,1-1.61,7c-1,3.13-1.52,6-.51,9.19l3.08-3.08.7.44-4.66-1.26c1.28,12.46,10.68,17,22.41,16.19,2.92-.21,5.72-1.26,8.6-1.68,2.37-.35,3.3-1.2,5.2-2.44,2.36-1.54,5.11-2.13,7.34-3.87,2.75-2.15,4.95-5.16,7.25-7.76l-3.93-3-1.24,2.92,4.57.6c.16.87,2.2-2.15,2.3-2.33a16.28,16.28,0,0,0,1.46-4.12l-3.08,1.75-1.32-1.15,4.91.66c-.18-2.41,2-5.07,2.81-7.26.94-2.4,1.55-4.75,3-6.9L171,124.1c-1.24,5.22-3,13.81-8.33,16.47-2.43,1.21-5.29.84-7.61,2.41-2.16,1.46-3.58,3.87-5.64,5.5-5.66,4.48-14.47,6.35-21.15,2.94-7.56-3.86-3.94-14.33-2.58-20.85L122,132c7,4.79,15.51,1.63,23.33,2.32,8.64.76,16-1.27,24.13-4.25L166.4,127a43.57,43.57,0,0,1-5.31,9.54c-2.45,3.5-5.44,4.71-9.43,5.77a18.09,18.09,0,0,0-7.07,3.1c-2.74,2.22-4.25,4.32-7.81,5.7-3,1.15-1.71,6,1.33,4.82a107.18,107.18,0,0,0,13.09-5.87l-2.52-4.32c-3.82,2.08-9.07,4.24-13.51,4.42-4.16.17-6.55-2-8.08-5.64s-.52-6.32,1.16-9.42l-4.57-1.93c-1.64,6.86.34,12.63,5.12,17.67,4.46,4.71,12.6,1,17.45-1.67,2.25-1.26,1.13-4.55-1.26-4.66-3-.13-6.74,1.07-9.37-.66-3.15-2.07-3.52-6.21-3.88-9.67l-4.91.66c1,3.36,2.63,7.39,5.54,9.59s8.46,2.24,11.94,1.91c7.52-.71,16.85-6.13,20.66-12.69a2.52,2.52,0,0,0-3.42-3.42c-5.14,2.86-27.75,15.5-29.63,3.68l-2.41,3.16c8.17,1,14.38,4.07,22.47.61,2-.85,1.38-4.14-.6-4.57-5.37-1.16-10.39.86-15.77.49l1.26,4.66.85-.07L136,134a20.42,20.42,0,0,1-5.89,3.7c-2.95,1.26-.4,5.57,2.52,4.32a24.7,24.7,0,0,0,6.9-4.48c1.78-1.6.2-4-1.77-4.27a4.6,4.6,0,0,0-3.38.76c-2.31,1.26-1.08,4.5,1.26,4.66,4.85.34,9.64-1.7,14.44-.67l-.6-4.57c-6.49,2.78-13.32-.49-19.95-1.29-1.78-.22-2.63,1.76-2.41,3.16,2.73,17.25,29.07,3.71,37-.69l-3.42-3.42c-2.6,4.48-8.16,7.41-12.88,9.24-3.12,1.21-7.59,1.75-10.8.58s-4.38-4.41-5.33-7.44c-.79-2.56-5.22-2.26-4.91.66.49,4.66,1.14,9.59,4.78,12.94,4,3.63,8.62,2.17,13.47,2.39l-1.26-4.66c-2.74,1.53-8.5,4.52-11.39,2.45-3.91-2.79-4.87-8.5-3.83-12.8.64-2.68-3.18-4.5-4.57-1.93-4.17,7.7-2.66,15.45,4.05,21.29,2.74,2.38,6.06,1.61,9.33,1a49,49,0,0,0,13.89-4.76c2.83-1.54.32-5.83-2.52-4.32a97.3,97.3,0,0,1-11.9,5.37l1.33,4.82a22.73,22.73,0,0,0,8.58-5.64c3.25-3.24,7.85-3.06,11.84-4.88,6.29-2.87,10.39-10.92,12.69-17.08a2.51,2.51,0,0,0-3.08-3.08c-6.89,2.54-13.68,4.86-21.14,4.25a61.27,61.27,0,0,0-10.75-.07c-4.19.37-8,.79-11.71-1.75a2.51,2.51,0,0,0-3.67,1.49c-1.51,7.23-4.43,16.78.51,23.49,4.52,6.13,16.13,6.22,22.62,4.19a26.61,26.61,0,0,0,9.94-5.68c1.79-1.63,3.07-3.85,5.45-4.7,1.69-.6,3.5-.6,5.17-1.37,7.1-3.25,9.62-12.82,11.25-19.72a2.51,2.51,0,0,0-4.57-1.93c-1.83,2.64-2.45,5.58-3.75,8.48s-3,4.88-2.79,8.21a2.51,2.51,0,0,0,4.91.66c.82-2.32.25-4.18-2.18-5a2.52,2.52,0,0,0-3.08,1.75c-.79,3.36-4.4,5.62-3.76,9.11.37,2,3.74,2.56,4.57.6l1.24-2.92c1-2.37-1.86-5.36-3.93-3-3,3.4-5.66,7.21-10,9a28.22,28.22,0,0,0-3.65,1.86c-2.24,1.31-4.31,1.56-6.77,2.16-9.2,2.24-20.65,2.07-21.88-9.89-.23-2.2-3.47-3.73-4.66-1.26-1.4,2.92-1.21,5.91,2.29,6.9a2.52,2.52,0,0,0,3.08-3.08c-1.14-3.58.76-6.55,1.65-9.94.77-2.91.21-6.06,1.24-8.87,1.11-3-3.72-4.33-4.82-1.33Z"/><path class="cls-8" d="M168.63,145c4.34,3.16,7.41,8.19,12.85,9.7,4.82,1.34,8.14-1.28,12.16-3.41,1.08-.57,2.71-1.79,3.87-1.2.5.25.34,1,.75,1.26,1.65,1,2.24,1.66,4.48,1.6,4.45-.12,8-2.55,10.62-6l-4.57-.6.23,1.51c-.26,2.59,3.46,3.23,4.66,1.26a19.41,19.41,0,0,0,3.29-12,11.26,11.26,0,0,0-1.56-5.4c-1.35-2.24-3.84-3.61-4.45-6.27a2.52,2.52,0,0,0-3.67-1.49c-4,2.56-.5,6.45.71,9.65a28.56,28.56,0,0,1,1.35,4.77,3.36,3.36,0,0,1-.07,3.56q-.18,1.54-1.75,1a15.31,15.31,0,0,1-8.25.67c-2.24-.5-4.47-1.11-6.78-.8-2.87.38-4.91,2.31-7.58,3.25-3,1.06-4.22,0-6.43-2a20.92,20.92,0,0,1-3.14-3.2c-2.34-3.79,1.87-8.81,4.31-11.38L175.46,127c-1.68,4.89-5.06,13.76-.7,18.22,3.37,3.45,9.34,4.13,13.63,2.45,3.95-1.55,6.19-3,10.69-2,2.33.52,4.6.66,6.62-.81,4.64-3.38,3.18-10.59,2.3-15.31l-4.82,1.33a48.21,48.21,0,0,1,2.74,11.75l4.66-1.26a65.2,65.2,0,0,1-5.15-10.08c-1-2.55-4.75-2.3-4.91.66-.2,3.53.61,6.48-3.62,6.43-2.65,0-5.37-.35-8,.2s-5.46,3.1-8,1.46.29-7.86.91-10.28H177c1.25,4.68,1.43,14.34,8.1,13.63,4.15-.44,8.34-1.63,12.43-2.44,2.82-.56,4.92-.77,5.91-3.65a2.42,2.42,0,0,0-.64-2.43c-2.29-1.81-5-1.22-7.83-1-1.78.16-3.66.63-5.44.67-4.53.12-5-1.72-6-5.39l-4.18,2.43c5.82,6.83,19.23,11.39,25.16,2.22a2.52,2.52,0,0,0-1.49-3.67l-.36-.1a2.56,2.56,0,0,0-2.82,1.15l-.21.31c-1.8,2.68,2.53,5.19,4.32,2.52l.21-.31-2.82,1.15.36.1-1.49-3.67c-4.1,6.34-13.87.8-17.31-3.23-1.66-2-4.83.14-4.18,2.43,1,3.61,2.53,7.51,6.38,8.85a11.11,11.11,0,0,0,5.09.14c1.92-.23,3.83-.54,5.77-.68.88-.06,4.39.42,3.33-.41l-.64-2.43c-.07.19-11.16,2-11.73,2-2.64-.1-2.81-1.09-3.45-3.47l-1.63-6.07a2.52,2.52,0,0,0-4.82,0c-1,3.75-4.09,10-1.5,13.56,2,2.74,6.24,4.52,9.5,3.59,3-.87,5.16-2.34,8.55-2.3,2.57,0,5.55.54,8.06-.2,4.52-1.32,3.66-7.41,3.86-11.13l-4.91.66a72.67,72.67,0,0,0,5.65,11.27c1.21,1.95,4.92,1.34,4.66-1.26A53.65,53.65,0,0,0,208,129.55a2.5,2.5,0,0,0-4.82,1.33c.39,2.09,1.23,4.77.65,6.9-.89,3.28-3.86,2.72-6.47,2.31a11.3,11.3,0,0,0-6.55.94c-3.16,1.34-6.36,3.83-10,2-5.43-2.72-2-10.46-.58-14.69.82-2.38-2.51-4.2-4.18-2.43-4.14,4.39-9.69,12.49-4.81,17.94,4.61,5.15,11.15,11.29,18,6.17,1.78-1.32,1.81-1.75,4.24-2a11.51,11.51,0,0,1,4.38.37,18.19,18.19,0,0,0,4.95.73,28.92,28.92,0,0,0,4.64-1c1.64-.34,3.49-.24,4.94-1.25,2.48-1.72,2.38-4.9,2.06-7.56-.13-1-2.46-12.53-4.72-11.06l-3.67-1.49c.76,3.3,3.31,4.8,4.87,7.6,2.24,4,.57,8.56-1.64,12.19l4.66,1.26a4.31,4.31,0,0,0-.41-2.84,2.54,2.54,0,0,0-4.57-.6c-.88,1.14-4.92,4.49-6.66,3.77-.49-.2-1.12-1.88-1.77-2.32-2.12-1.46-4.91-1-7.14-.12-4.51,1.72-7.72,6.13-12.91,3-3.54-2.1-6.08-5.73-9.42-8.17-2.6-1.9-5.1,2.44-2.52,4.32Z"/><path class="cls-8" d="M131,102.79c-3.26,3.09-6.84,6-9.86,9.36a6.9,6.9,0,0,0-1.91,6.34c1,5.38,4.7,11,10.35,12.06,3.21.58,6.27-.38,9.42-.84,4-.58,8-.51,12-.91,8.72-.88,16.09-4.1,24.12-7.45l-1.93-4.57A55.88,55.88,0,0,1,164,121l1.93,4.57a71.79,71.79,0,0,0,11.56-6.32l-3.76-2.16-.22.5c-.82,1.52.17,4,2.16,3.76,4.94-.48,9.62-5.57,13.31-8.63a2.51,2.51,0,0,0-.51-3.93c-4-2.06-7.46-4.78-11.89-6a48.27,48.27,0,0,0-14.88-1.87c-4.28.23-8.17-1.38-12.51-1.37a81,81,0,0,0-16,1.77l1.93,4.57,3,0V101a14.65,14.65,0,0,0-5.63,3.35c-1.74,1.76-3.78,8.11-6.46,7.93l2.41,3.16.4-1c.91-2.35-2.56-4.2-4.18-2.43-3.58,3.93-4,10.06.53,13.49,2.32,1.75,4.8,2,7.58,1.6a29.44,29.44,0,0,1,5.19-.58c2.32.07,4.58.41,6.91.32,8.23-.32,15.67-3.3,23.14-6.54,5.29-2.3,14.58-3.12,16.4-9.71a2.51,2.51,0,0,0-.64-2.43c-2.48-2.45-6.22-.92-9.06.22a27.82,27.82,0,0,0-5.23,2.79,16.55,16.55,0,0,1-8.82,3.42c-4.87.55-9,3-14,3.09-2.87.08-5.74-.25-8.61-.24-1.58,0-7.25,1.35-8-.64l-1.75,3.08c2.27-.61,4.39.15,6.65.23a45.05,45.05,0,0,0,6.54-.74c5-.56,9.86.76,14.89-.15,7.86-1.42,16.65-4.21,22.47-9.89a2.53,2.53,0,0,0-1.77-4.27c-7.16-.34-14.34,3.55-21.32,5a39.16,39.16,0,0,1-11.43.65c-1.36-.11-11.17,1.11-11.49.79l.64,2.43c.31-1.28,5.12-3.84,6.36-4.74,3.21-2.34,6.18-2.1,10-1.89,5.84.32,11.67.81,17.48,1.44l-2.41-3.16c-.67,1.94-11,1.55-13.07,1.61-4.5.14-9,.06-13.49-.16l1.26,4.66c3.63-2.68,8.89-.08,13.11-.23,3.21-.11,3.22-5.11,0-5-5.5.2-10.7-2.73-15.63.92a2.52,2.52,0,0,0,1.26,4.66,162.33,162.33,0,0,0,21.19-.27c4.29-.35,8.6-.24,10.19-4.85.58-1.68-.92-3-2.41-3.16-4.9-.53-9.8-1-14.71-1.28-3.69-.23-8-1.07-11.57.16s-8.47,5-11,7.7c-1.22,1.28-1.93,2.81-.9,4.45,1.41,2.25,4.5,1.53,6.65,1.29,4.76-.54,9.11.18,13.83,0,4.21-.16,8.54-1.31,12.61-2.33,4.92-1.24,9.74-3.93,14.88-3.68l-1.77-4.27c-5.78,5.64-17,9.09-25,8.94-3.94-.07-7.48-.63-11.4,0s-8-.71-12,.35a2.52,2.52,0,0,0-1.75,3.08c1.54,4,4.6,4.85,8.71,4.53,5.57-.43,11.25.55,16.78-.29,2.69-.41,5-1.59,7.54-2.31s5.44-.31,8.05-1.12c2.43-.75,4.29-2.52,6.37-3.88.82-.53,6.9-4.08,7.6-3.38l-.64-2.43c-1,3.58-9.63,4.8-12.64,6.08-4.63,2-9.17,4.08-14.08,5.31s-9.79,1.2-14.91.86a18.58,18.58,0,0,0-5.2.33c-3.82.72-8.49-2-4.57-6.3l-4.18-2.43-.4,1c-.63,1.62.95,3.07,2.41,3.16,7.61.5,7.25-9.22,13.42-11.46a2.52,2.52,0,0,0,0-4.82,8.64,8.64,0,0,0-6.83.53c-2.72,1.22-.69,5.1,1.93,4.57a64.75,64.75,0,0,1,15.54-1.6c3.57.15,6.69,1.6,10.26,1.51a53.31,53.31,0,0,1,13.16,1.15c4.73,1.06,8.21,3.75,12.43,5.9l-.51-3.93c-2.09,1.73-6.86,6.88-9.78,7.17l2.16,3.76a7.44,7.44,0,0,0,.9-3c.22-1.87-2.3-3.14-3.76-2.16a71.79,71.79,0,0,1-11.56,6.32c-2.58,1.12-.74,5.5,1.93,4.57a63.11,63.11,0,0,0,10.43-4.71c2.39-1.35.75-5.68-1.93-4.57-5.2,2.17-10.43,4.78-15.91,6.19s-11,1.33-16.53,1.72-11.92,3.41-15.47-2.61c-2.29-3.87-1.17-6.22,1.83-9.07l6.79-6.43c2.34-2.22-1.2-5.75-3.54-3.54Z"/><path class="cls-8" d="M110.25,110.9a6.68,6.68,0,0,0,2.24-1.41c.18-.18.65-.52.74-.77-.09.24-1.86-.89-2-.39a13.92,13.92,0,0,0,0,1.79,10.41,10.41,0,0,1-.2,1.49c-.42,2.2,2.45,4.54,4.18,2.43a30.3,30.3,0,0,1,4-4c2.47-2.07-1.08-5.59-3.54-3.54a30.3,30.3,0,0,0-4,4l4.18,2.43c.44-2.28.89-5.22-.35-7.34a3.49,3.49,0,0,0-3.88-1.65,4.56,4.56,0,0,0-1.83,1.11c-.22.2-.41.42-.61.63s-.88.63-.29.39a2.58,2.58,0,0,0-1.75,3.08,2.52,2.52,0,0,0,3.08,1.75Z"/><path class="cls-8" d="M105.84,118.18c0-2.41,5.25-5,6.49-7.23a2.53,2.53,0,0,0-2.82-3.67,8.35,8.35,0,0,0-6.75,9.19,2.53,2.53,0,0,0,3.76,2.16c3.87-2.19,8.6-1.58,12.37-4.07,2.87-1.9,4.41-5.74,7.75-6.85l-1.93-4.57c-3.21,1.52-6.14-.58-9.33.39-2.38.73-4.09,2.78-5.83,4.43l3.93,3,.49-.9a2.53,2.53,0,0,0-1.49-3.67,20.88,20.88,0,0,0-2.63-.39c-3.2-.29-3.18,4.71,0,5l1.3.21-1.49-3.67-.49.9a2.51,2.51,0,0,0,3.93,3c.8-.76,2.22-2.51,3.22-2.93,1.4-.58,3.26.14,4.74.23a12,12,0,0,0,6.2-1.34c2.55-1.21.75-5.46-1.93-4.57-3.63,1.21-5.11,3.86-7.8,6.3-3.7,3.37-9.23,2.7-13.51,5.12l3.76,2.16a3.92,3.92,0,0,1,3.08-4.37L108,108.43c-2.14,3.78-7.07,4.75-7.17,9.75-.06,3.22,4.94,3.22,5,0Z"/><path class="cls-8" d="M112.22,94.64c3.22,0,3.22-5,0-5s-3.22,5,0,5Z"/><path class="cls-9" d="M119.58,103.23c5.16,2,8.14-2.1,12.87-3.22L130,95.84l-2.25,2.06c-1.77,1.62.07,5.08,2.43,4.18a41.19,41.19,0,0,1,18.54-2.7c5.93.52,11.48,1.68,17.35.13,3.11-.82,1.79-5.65-1.33-4.82-6.48,1.72-12.92-.41-19.45-.48a44.65,44.65,0,0,0-16.43,3.06l2.43,4.18,2.25-2.06c1.92-1.76-.11-4.73-2.43-4.18-3.07.73-7.07,4.43-10.21,3.22s-4.3,3.67-1.33,4.82Z"/><path class="cls-8" d="M115.62,82.5a13,13,0,0,0-2.28,16.84l3.42-3.42c-1.18-.58.89-3.66,1.34-4.22.74-.93,2-1.54,2.8-2.42a11.38,11.38,0,0,0,2.47-4.18A2.51,2.51,0,0,0,121.63,82a11.17,11.17,0,0,0-4.09-.13l2.41,3.16c.92-2.46,7.62-4.07,9.86-5.52a52.25,52.25,0,0,1,12.26-6.09c8.81-3,18.36-5.35,26.79,0V69.08c-3,2.19-6.57-1-10.13-.28-5.4,1.09-10.75,2.95-16.06,4.4-8.13,2.23-17.08,3.82-23,10.31-2.6,2.83-8.63,11.84-4.35,15.4,6.44,5.36,8.68-9.36,11.92-10.93h-2.52c2.37,1.07-2.92,5.12-3.27,5.32l3,3.93a46.54,46.54,0,0,0,5.68-8q.62-1.1,1.14-2.24,1.57-1.49,0-1.9-1.83-1.37-.51,2.17A4.53,4.53,0,0,1,127.29,92l3.16,2.41c.37-3.31,4.48-3.93,7-3.7a26,26,0,0,1,5.21,1.25l.66-4.91a19.28,19.28,0,0,0-11.54,3.66c-2.21,1.58-1,5.35,1.93,4.57,3.87-1,7.76-2,11.8-1.67,3.28.3,6.47,1.34,9.73,1.81,6.85,1,13.18-1.72,20-1.61l-1.77-4.27c-3.09,3.7-15.16-1.83-18.8-3.11-6.23-2.19-12.3-4.79-18.37-7.4-2.49-1.07-5.11,1.72-3,3.93a17.86,17.86,0,0,0,22,3.24,2.53,2.53,0,0,0,0-4.32c-3.43-2.46-7.46-1.34-11.1-3l-1.26,4.66c3.52,0,7,.11,10.53.36v-5l-15.12.38,1.26,4.66A76.84,76.84,0,0,1,156,79c4.27-.85,9.53-1,13.45-3,5.26-2.67,4.23-11-2.33-9.36-2.48.64-2.27,4.08,0,4.82a123.66,123.66,0,0,1,13.6,5.32l1.93-4.57a40.58,40.58,0,0,1-6.34-3.12,2.53,2.53,0,0,0-3.67,2.82l.07.35c-2,2.47,1.1,5.76,3.54,3.54.76-.69,1.39-2.6,2.18-2.93H175.9c3,1.31,5.69,3.79,8.34,5.74,1.85,1.36,4.17-.88,3.67-2.82a6.05,6.05,0,0,0-3.21-4.21l-1.26,4.66c5,.3,9.22,4.68,12.81,7.82a117.79,117.79,0,0,1,9,8.87l-.39-3a9.33,9.33,0,0,0-1.11,5.49C204,98,208,99,208.68,96.08q-1.58-1.43-.81.32.35,1.39.62,2.79a52.91,52.91,0,0,1,.78,5.95,62.85,62.85,0,0,1-.16,10.47h5v-8.11l-2.5,2.5,1.86-.06-2.5-2.5c-.13,5.65-4.17,9.17-8.4,12.25-1.61,1.18-4.71,2.52-5.85,4.13q-3.52,1.49,1.12,2.39a13.36,13.36,0,0,0,1.58.29c5.84.9,11.88-3.81,15-8.43a2.51,2.51,0,0,0-1.49-3.67c-6.4-1-14.18,3.24-20.19,5.21l1.93,4.57a4.55,4.55,0,0,0,2.57-2.91c.4-1.27-.62-4.67.18-5.51h-3.54l1.65,2.27a2.56,2.56,0,0,0,3.08,1.75A16.35,16.35,0,0,0,208.8,95c-1.41-2.32-5.6-.82-4.57,1.93a38.2,38.2,0,0,1,2.21,18.3l4.27-1.77c-2.49-3-7.09-10-11.28-10.66-4.55-.76-5.38,5.82-5.83,8.8l4.57-.6c-2.24-3.87-2.95-8.54-5.44-12.21-2.24-3.31-5.9-5.6-9.51-7.13-8.55-3.64-18.27-3.4-26.46-8l-1.26,4.66a48.3,48.3,0,0,1,15.93,1.37c4.18,1,9.19,1.86,12.95,4,3.58,2,4.91,6.19,6.59,9.67a137.25,137.25,0,0,0,6.85,12.45c1.27,2.06,4.71,1.28,4.66-1.26l-.07-3.84-1.84,2.41c12.74-5.3,5-22.43-4-27.6-13.17-7.59-30.77-8-45.21-4.71-2.71.61-2.17,5.13.66,4.91,7.69-.59,15,.91,22.51,2.6l1.33-4.82-4.87-1-.66,4.91A46.47,46.47,0,0,1,188,90.28c2.71,1,5.79,2.3,8,4.32,2.81,2.63,3.05,6.47,3.22,10.09l4.27-1.77c-2.28-2.44-2.57-6.23-4.52-9a16.19,16.19,0,0,0-6.8-5.36c-2.22-1-4.68,1.07-3.42,3.42A141.87,141.87,0,0,1,195,105.25c.46,1.14,1.7,2.3,3.08,1.75,5.56-2.23,12.3-7.24,10-14.14a12.06,12.06,0,0,0-4.88-5.91c-2-1.35-3.14-1.94-4.68-4a13.79,13.79,0,0,0-3-3.09c-12.83-9.63-29.16-11.61-43.4-3.62-2.06,1.15-1.27,4.89,1.26,4.66,8-.74,16.3-2.26,24.21-.53a35.39,35.39,0,0,1,9.7,3.28c3.82,2.15,5.43,5.86,7,9.78,1.16,3,6,1.67,4.82-1.33-3.14-8-7.06-12.53-15.38-15.24-10.06-3.27-20-1.92-30.31-1l1.26,4.66c9.48-5.32,21.33-6,31.13-1a33.7,33.7,0,0,1,5.8,3.63c2.45,2,2.47,3.57,4.34,5.38,1.35,1.31,3.31,1.63,4.82,2.73,5.7,4.19.57,9.11-3.93,10.91l3.08,1.75a154.52,154.52,0,0,0-6.76-14.44l-3.42,3.42c6.49,2.88,6.05,9,10.31,13.56a2.52,2.52,0,0,0,4.27-1.77c-.35-7.66-2.43-13.19-9.49-16.88a50.5,50.5,0,0,0-24.38-5.44c-2.72,0-3.52,4.33-.66,4.91l4.87,1c3.13.63,4.49-4.1,1.33-4.82-7.88-1.79-15.72-3.4-23.84-2.78l.66,4.91a65.61,65.61,0,0,1,30.94.33c4.75,1.23,10.07,2.79,13.72,6.26,3.35,3.19,8.25,13.42,1.87,16.08a2.6,2.6,0,0,0-1.84,2.41l.07,3.84,4.66-1.26a149.32,149.32,0,0,1-7.9-14.7c-1.73-3.67-3.65-7.19-7.33-9.22-4.19-2.31-9.54-3.36-14.14-4.46a52.71,52.71,0,0,0-17.26-1.55c-2.32.21-3.59,3.36-1.26,4.66,7,3.94,14.91,4.64,22.55,6.75,4.34,1.2,9.1,3,11.73,6.9,2.38,3.49,3.18,8.16,5.34,11.89,1,1.71,4.23,1.61,4.57-.6.16-1,.48-5,1.61-5.55H197.5c3.81,2,7,6.35,9.67,9.62,1.54,1.88,4,.12,4.27-1.77A41.29,41.29,0,0,0,209,95.58l-4.57,1.93c4.36,7.17.89,15.51-7.24,17.45l3.08,1.75a9.6,9.6,0,0,0-2.93-4.48,2.55,2.55,0,0,0-3.54,0,5.1,5.1,0,0,0-1.65,2.92c-.14.66.33,4.5-.09,4.71-2.51,1.27-.77,5.45,1.93,4.57l9.2-3c2.49-.82,5.68-2.62,8.33-2.19l-1.49-3.67a12.33,12.33,0,0,1-11.51,5.74c-1.88-.2-3.63-.31-5.29.78-2.76,1.83-3,6.38.35,7.74,4,1.66,10.44-5,13.32-7.17,5.06-3.88,8.88-8.59,9-15.2a2.52,2.52,0,0,0-2.5-2.5l-1.86.06a2.54,2.54,0,0,0-2.5,2.5v8.11c0,3.27,4.71,3.16,5,0a63.46,63.46,0,0,0-.11-13.32c-.37-3.1-.54-7.45-2.37-10.11-2.8-4.06-6.89-1.27-7.76,2.56l4.91.66.43-3a2.6,2.6,0,0,0-.39-3c-6.31-6.86-15.39-17.55-25.36-18.15-2.52-.15-3.34,3.47-1.26,4.66l.92,1.22,3.67-2.82c-2.4-1.76-6.42-6.16-9.61-6.08-2.8.07-2.81,2.56-4.45,4.05l3.54,3.54a5.16,5.16,0,0,0,1.22-5.22l-3.67,2.82a48.32,48.32,0,0,0,7.53,3.63c2.62,1,4.5-3.38,1.93-4.57a134.93,134.93,0,0,0-14.8-5.82v4.82c-10.59,2.73-21.35,3.51-31.46,8-2.32,1-1.09,4.72,1.26,4.66l15.12-.38c3.24-.08,3.19-4.78,0-5-3.51-.25-7-.37-10.53-.36-2.34,0-3.59,3.57-1.26,4.66,3.5,1.64,8,.82,11.1,3V81.83a12.8,12.8,0,0,1-15.93-2.46l-3,3.93a244,244,0,0,0,24.85,9.65c5.22,1.6,14.06,5.26,18.38.08a2.53,2.53,0,0,0-1.77-4.27,50.29,50.29,0,0,0-9.69,1.11A32.67,32.67,0,0,1,152,89.69a39.47,39.47,0,0,0-19.67.72L134.27,95a14.88,14.88,0,0,1,9-3,2.51,2.51,0,0,0,.66-4.91c-7.34-2.26-17.42-2.47-18.49,7.27-.18,1.63,1.74,2.82,3.16,2.41,5.66-1.64,10.07-10.37,5.78-15.54a3.66,3.66,0,0,0-5.54-.18c-1.35,1.25-1.86,3.29-2.68,4.89a40.21,40.21,0,0,1-5.29,7.75c-1.8,2.1.45,5.37,3,3.93,3.75-2.1,9.3-9.88,4.13-13.56-2.14-1.53-4.33-.25-5.71,1.56s-2.15,4-3.15,6c-.51,1-1.57,2-.64,2.81s1.29-2.16,1.7-3c4.55-9.77,16.32-11.31,25.61-13.86,4.52-1.24,11.87-4.8,16.39-3.23,3.35,1.16,6.14,1.31,9.11-.88a2.54,2.54,0,0,0,0-4.32c-9.85-6.2-21.16-3.69-31.5-.17-5.3,1.8-9.12,4.44-13.91,7.16-4.37,2.48-8.89,2.48-10.84,7.66a2.51,2.51,0,0,0,2.41,3.16l2.77,0-1.75-3.08c-1.52,4.14-6.91,5.29-7.64,10a6,6,0,0,0,3.32,6.46c2.1,1,4.86-1.16,3.42-3.42A8,8,0,0,1,119.15,86c2.4-2.15-1.14-5.68-3.54-3.54Z"/><path class="cls-8" d="M150.12,87.48a30.93,30.93,0,0,0-9.2-4.87c-2.55-.86-6.25-2.47-8.74-.66-1.91,1.39-2.27,4.37,0,5.67,2.66,1.55,7.15.75,10,.49,3.18-.29,3.21-5.29,0-5-1.39.13-2.79.27-4.19.29q-1,0-2.09,0-2.23-.6-1,.09l.73,1.77c0,1.51.73,1.23,2,1.61,1,.29,2,.6,2.93,1a22.64,22.64,0,0,1,6,3.24c2.51,1.95,6.08-1.57,3.54-3.54Z"/><path class="cls-10" d="M194.58,96.52a26.22,26.22,0,0,0,14,7.84c2.58.49,7,0,5.6-3.75-.27-.75-1.48-.43-1.21.33,1.82,5-10.09.2-10.6-.06a26,26,0,0,1-6.9-5.26c-.56-.58-1.44.3-.88.88Z"/><path class="cls-10" d="M204.06,103.52c2.23,1.66,4.56,3.47,5.52,6.18.26.75,1.44.45,1.21-.33a17,17,0,0,0-3.1-5.84c-.51-.63-1.39.26-.88.88a15.43,15.43,0,0,1,2.78,5.29l1.21-.33c-1.08-3.06-3.58-5.05-6.1-6.93-.64-.48-1.27.6-.63,1.08Z"/><path class="cls-10" d="M205.2,102.8a10.44,10.44,0,0,1-3.77-2.34c-.58-.56-1.47.33-.88.88a11.92,11.92,0,0,0,4.32,2.66c.76.27,1.09-.94.33-1.21Z"/><path class="cls-10" d="M206.65,104.57l1.13,1.28c.53.6,1.42-.28.88-.88l-1.13-1.28c-.53-.6-1.42.28-.88.88Z"/><path class="cls-11" d="M138.49,131.17a79.26,79.26,0,0,0-6.7,12.28c-.32.73.76,1.37,1.08.63a79.26,79.26,0,0,1,6.7-12.28c.45-.67-.63-1.3-1.08-.63Z"/><path class="cls-12" d="M175.69,127.55c2.38-.73,4.87-1.9,6.46,0,.54.65.77,1.79,1.34,2.52,1.65,2.1,4.24,3,6.74,3.65s5.34,1.18,7.87.32c3.07-1,3.74-3.89,6.33-5.59,1.34-.88.09-3-1.26-2.16-2.6,1.7-4,5.22-7.45,5.68a15.31,15.31,0,0,1-5.66-.86c-3.32-1-4-2.51-5.72-5.11-2.38-3.67-5.11-2.15-9.32-.86-1.53.47-.88,2.88.66,2.41Z"/><path class="cls-12" d="M176.39,123.3l-.05.75c-.09,1.37,1.67,1.52,2.33.63l2.05-.76a1.22,1.22,0,0,0,1.08-.62c1.19-2.24,6.23-1.73,6.52-4.44.26-2.42-2.52-2-3.84-1.42a1.25,1.25,0,0,0,.66,2.41c1.65-.39,4.63-.79,3.84,2.21-.09.32-.57.53-.69.85-.46,1.28-1.06,2-1,3.44.18,2.72,2.18,4.65,4.12,6.33l1.51-2c-1.36-.84-4.49-2.8-2.28-4.77l-2.09-1.22a22.44,22.44,0,0,0-1,3.86l1.21-.92-1.19-.46c-1.25-.83-2.38.94-1.51,2a6.42,6.42,0,0,0,1.37,1.38l1.77-1.77c-1.56-1.33-2.58-3.17-4.17-4.46a10.87,10.87,0,0,0-5.53-2v2.41c2-.37,4-.53,5.92-.86.25,0,1.36.15.87-.3a11.86,11.86,0,0,1,.49,2.6l2.28-1c-.86-1.26-1.66-2.55-2.41-3.87a1.27,1.27,0,0,0-2.28.3,3.73,3.73,0,0,0,1.89,4.7,1.26,1.26,0,0,0,1.88-1.08c0-1.5,0-2.89,1.2-4h-1.77l.46,1.22,2.33-.63-.74-1.06c-.92-1.31-3.08-.06-2.16,1.26l.74,1.06a1.26,1.26,0,0,0,2.33-.63,3.79,3.79,0,0,0-1.19-3,1.27,1.27,0,0,0-1.77,0c-1.69,1.53-1.92,3.58-1.94,5.76l1.88-1.08-.74-1.88-2.28.3c.75,1.33,1.55,2.61,2.41,3.87a1.26,1.26,0,0,0,2.28-1c-.3-1.59-.23-3.75-2.12-4.2-2.26-.54-6,.59-8.23,1a1.26,1.26,0,0,0,0,2.41c2.14.33,3.91.74,5.45,2.38a40.45,40.45,0,0,0,3.15,3.47c1.22,1,3-.71,1.77-1.77a6.42,6.42,0,0,1-1.37-1.38l-1.51,2a4.7,4.7,0,0,0,2.45.8,1.25,1.25,0,0,0,1.21-.92,22.44,22.44,0,0,1,1-3.86c.43-1.26-1.22-2-2.09-1.22-3.46,3.08-.12,6.89,2.79,8.69,1.18.73,2.6-1,1.51-2a11.65,11.65,0,0,1-2.87-3c-1.09-2.06-.09-3,.88-4.64.62-1.07,1.22-2.1.78-3.38-1-3-5.16-3-7.54-2.4l.66,2.41c1.6-.67-.62-1-1.22-.88a7.26,7.26,0,0,0-1.83.69,5.45,5.45,0,0,0-2.46,2.38l1.08-.62a4.4,4.4,0,0,0-4.21,2l2.33.63.05-.75c.11-1.61-2.39-1.6-2.5,0Z"/><path class="cls-11" d="M194.86,134.28c1.26,5.33,2.14,10.6.37,15.93-.25.77,1,1.09,1.21.33,1.84-5.52.94-11.06-.37-16.59-.19-.78-1.39-.45-1.21.33Z"/><path class="cls-11" d="M176.22,127.48c3.17-.76,5.55.8,7.49,3a10.68,10.68,0,0,0,3.13,2.57c2.39,1.24,5.19,1.48,7.82,1.72.8.07.8-1.18,0-1.25-2.39-.22-5-.42-7.19-1.55s-3.12-3.05-4.81-4.6c-2.27-2.08-4-1.73-6.77-1.08-.78.19-.45,1.39.33,1.21Z"/><path class="cls-11" d="M194.34,134.44c2.17,1.14,4.17.29,5.93-1.23a47.67,47.67,0,0,0,6.62-7c.49-.64-.59-1.26-1.08-.63-1.89,2.46-7.28,9.68-10.84,7.81-.71-.37-1.34.7-.63,1.08Z"/><path class="cls-13" d="M187.12,117.68a15,15,0,0,0,3.22,1.86c.91.38,2.12,1,2.93.08a4.06,4.06,0,0,0,.56-3.14c-.2-1.08-1-2-1-3.16s-1.44-1.76-2.13-.88c-.43.54-1,1.42-1.77,1.5a1.29,1.29,0,0,0-1.21.92c-.39,1.66,1.76,2.6,2.86,3.41a1.25,1.25,0,0,0,1.84-.75,2.73,2.73,0,0,0-.62-2.36c-1-1.26-2.75.52-1.77,1.77l0-.07,1.84-.75c-.47-.35-1.6-.88-1.87-1.39l.13,1,0-.16-1.21.92a5,5,0,0,0,3.54-2.23l-2.13-.88a5.59,5.59,0,0,0,.62,2.45,4.81,4.81,0,0,1,.46,1.21,2.22,2.22,0,0,1,0,.82q-.18.67,0,.18l1.22-.32a9.94,9.94,0,0,1-4.17-2.14c-1.28-1-2.53,1.2-1.26,2.16Z"/><path class="cls-14" d="M157.56,102.26c6.51-.92,13.12,1.93,19.27,3.74,3.14.92,6.74,1.55,9.46,3.46a12.74,12.74,0,0,0,3.12,2.1c1,.39,1.94-1,1.41-1.84-2.31-3.88-6-5.52-10.12-6.94a82.62,82.62,0,0,0-16.58-4.18l.63,2.33c9.28-5.16,18,2.87,24.79,8.21,1.23,1,2.93-.58,1.77-1.77-1.43-1.47-2-3.57-3.3-5.14a15.11,15.11,0,0,0-5.17-3.93,16.27,16.27,0,0,0-12.92-.11c-1.06.41-1.3,2.1,0,2.41a41.76,41.76,0,0,1,12.68,5.3c1.37.86,2.62-1.3,1.26-2.16a43.81,43.81,0,0,0-13.27-5.55v2.41c4.59-1.78,9.54-1.65,13.57,1.48,2.58,2,3.24,4.86,5.39,7.07l1.77-1.77c-7.82-6.12-17.36-14.41-27.82-8.6-1.19.66-.5,2.19.63,2.33a69,69,0,0,1,12.63,3c4.42,1.42,9.37,2.6,11.92,6.87l1.41-1.84c-1.78-.67-2.93-2.43-4.73-3.2-3.32-1.43-7.11-2.14-10.58-3.16-6-1.76-11.58-3.82-17.87-2.94-1.59.22-.91,2.63.66,2.41Z"/><path class="cls-13" d="M169.37,99.2c3.38-2,7.84-1,11.46-.07,2.81.75,4.83,2.68,7.12,4.43,1.28,1,2.52-1.19,1.26-2.16-3.63-2.79-5.95-4.38-10.47-5.22-3.73-.7-7.23-1.14-10.63.86a1.25,1.25,0,0,0,1.26,2.16Z"/><path class="cls-15" d="M115.16,83.75a96,96,0,0,1,32-15.49c13.48-3.77,26-1.21,38.34,4.81,10.25,5,20,11.9,25.49,22.19,3,5.64,4.76,12.49,3.23,18.82-1.76,7.26-8.64,10.32-15.07,12.52-1.51.52-.86,2.93.66,2.41,5.25-1.8,10.75-4,14.15-8.58s3.82-10.71,2.81-16.24c-2.35-12.86-12-22.84-22.84-29.39-11.48-7-25.16-12.41-38.79-10.72-14.45,1.79-29.67,8.76-41.22,17.51-1.27,1,0,3.13,1.26,2.16Z"/><path class="cls-15" d="M171,97.29c8.8-3.75,16.31,3.39,19.34,11.1,1.34,3.41,2.48,7.5,1.43,11.13-.7,2.43-2.18,4.13-2,6.78.57,7.67,9.34,8.09,11.8,1.33.55-1.51-1.86-2.17-2.41-.66q-6,4.82-6.54.16a2.92,2.92,0,0,1,.19-3.27c.33-1.28,1-2.41,1.36-3.66a15.07,15.07,0,0,0,.27-6.13,29.31,29.31,0,0,0-4.68-12.1c-4.58-6.73-12.33-10.1-20-6.82-1.48.63-.2,2.78,1.26,2.16Z"/><path class="cls-15" d="M128.47,103.55c-2.47,2.1-5,4.19-7.42,6.3-1.41,1.21-3.28,2.43-4.06,4.19-1.34,3,.66,6.14,2.18,8.75,1.74,3,3.94,6.85,7.34,8.24,4.24,1.73,10,.52,14.42.27,9.81-.56,19.57-.84,28.66-4.89,8.33-3.71,17.26-7.67,22.89-15.15,1-1.29-1.2-2.53-2.16-1.26-4.52,6-11.55,9.38-18.2,12.5a61.28,61.28,0,0,1-22.67,5.72q-5.67.45-11.36.73c-4.3.21-9.91,1.34-13.13-2.12-2.79-3-6.51-8.72-4.75-12.94.61-1.46,3.62-3.12,4.84-4.15l5.19-4.41c1.23-1-.55-2.8-1.77-1.77Z"/><path class="cls-15" d="M118.95,121.75a96.14,96.14,0,0,1-4.49,18.36c-1.66,4.66-2.28,7.39.55,11.76,5,7.65,13.71,11.12,22.63,10.16a48.65,48.65,0,0,0,25.83-11.3c7.89-7,10.84-17.18,13.43-27a1.25,1.25,0,0,0-2.41-.66c-2.2,8.36-4.51,17.25-10.55,23.76-5.59,6-13.67,9.8-21.54,11.81-9.16,2.35-19.07.75-24.83-7.4-3.4-4.82-1-9.14.52-14a96.08,96.08,0,0,0,3.29-14.77c.23-1.57-2.18-2.25-2.41-.66Z"/><path class="cls-15" d="M209.73,125.57c5,4.17,7.8,11,5.64,17.44-2.24,6.67-9.6,9.74-16,7.6-1.66-.56-2.52-1.24-4.23-.85-2.83.64-5.11,3.1-8,3.82-7.81,1.95-13.51-5-17.7-10.48-1-1.26-3.14,0-2.16,1.26,4.06,5.3,9.09,11.61,16.32,12,4.14.25,6.75-2.15,10.41-3.19,3.87-1.1,7.45,1.15,11.38.61,15.33-2.07,16.53-21.4,6.12-30-1.23-1-3,.74-1.77,1.77Z"/><path class="cls-15" d="M112.24,102.31A45.52,45.52,0,0,0,102,111.79c-2.16,2.58-3.46,5.4-1.92,8.61.7,1.45,2.85.18,2.16-1.26-1.62-3.39,2.5-6.76,4.58-9a34.92,34.92,0,0,1,6.67-5.7c1.36-.86.1-3-1.26-2.16Z"/><path class="cls-15" d="M116.12,114.33c-6.26,1.35-14.17,4-18.66,8.88-1.4,1.52-1,3-1.71,4.54-1,2.09-3.58,2.26-4.36,4.44-1.37,3.84,4.8,7.36,7.49,8.67a24.49,24.49,0,0,0,16.83,1.57A1.25,1.25,0,0,0,115,140a21.94,21.94,0,0,1-14.9-1.32c-2.12-1-7.18-3.4-4.88-6.79.4-.59,1.61-.83,2.11-1.47a6.64,6.64,0,0,0,.78-1.57,8.07,8.07,0,0,1,1.07-3.9,28.72,28.72,0,0,1,3.68-2.73,41.5,41.5,0,0,1,13.88-5.51c1.57-.34.91-2.75-.66-2.41Z"/><path class="cls-15" d="M116.92,103.22c9.62,5,17.39-3.56,27-3.16s18.29,4.36,26.74-2.29c1.26-1-.52-2.75-1.77-1.77-8.17,6.43-17.25,1.27-26.37,1.54-8.38.25-16.06,7.83-24.38,3.52-1.43-.74-2.69,1.42-1.26,2.16Z"/><path class="cls-15" d="M113.48,82.14c-6,5.34-7.57,16.82.77,20.77,1.45.69,2.72-1.47,1.26-2.16-6.91-3.28-5.1-12.55-.26-16.84,1.21-1.07-.57-2.83-1.77-1.77Z"/><path class="cls-15" d="M170.92,94.57c-10.88.62-21.49-2.89-32.39-1.48-8.58,1.11-18.28,3.62-25.21,9-1.27,1,.51,2.74,1.77,1.77,7.47-5.81,19.69-8.54,29-8.7,9-.15,17.82,2.41,26.86,1.89,1.6-.09,1.61-2.59,0-2.5Z"/><path class="cls-16" d="M194.29,133.44h1.93a.5.5,0,0,0,0-1h-1.93a.5.5,0,0,0,0,1Z"/><path class="cls-16" d="M194.43,133.53a5.67,5.67,0,0,0,2.63-.1.5.5,0,0,0-.27-1,4.53,4.53,0,0,1-2.1.1c-.63-.12-.9.84-.27,1Z"/><path class="cls-8" d="M154.86,131.58c-5.63,2.68-11.24,5.21-17.43,6.3-3.16.56-1.82,5.38,1.33,4.82,6.59-1.16,12.62-3.94,18.62-6.8,2.9-1.38.37-5.69-2.52-4.32Z"/><path class="cls-17" d="M161.14,74.3c5.08-.08,9.7.1,14.35,2.31,3.93,1.87,7.65,4.27,11.41,6.46,2.79,1.62,5.31-2.7,2.52-4.32-4.43-2.58-8.84-5.52-13.62-7.45s-9.61-2.09-14.67-2c-3.21.05-3.22,5.05,0,5Z"/><g class="cls-18"><path class="cls-19" d="M194.56,85.4c3.22,0,3.22-5,0-5s-3.22,5,0,5Z"/></g><path class="cls-17" d="M155.89,108.29c7.28-.79,13.61,1.11,20.05,4.36,2.87,1.45,5.4-2.87,2.52-4.32-7.17-3.62-14.45-5.92-22.58-5-3.17.34-3.2,5.35,0,5Z"/><path class="cls-17" d="M138.39,147.69c4.64,1.71,9.7-1.61,13.67-3.78a31.26,31.26,0,0,0,11.74-10.49c1.31-2-1.94-3.92-3.24-1.89A26.09,26.09,0,0,1,151.4,140c-3.1,1.81-8.36,5.44-12,4.1-2.27-.84-3.25,2.79-1,3.62Z"/><path class="cls-20" d="M119.51,84a.63.63,0,0,0,0-1.25.63.63,0,0,0,0,1.25Z"/><path class="cls-20" d="M116.29,89.31a.63.63,0,0,0,0-1.25.63.63,0,0,0,0,1.25Z"/><path class="cls-20" d="M114.69,94a.63.63,0,0,0,0-1.25.63.63,0,0,0,0,1.25Z"/><path class="cls-20" d="M122.13,95.21a.63.63,0,0,0,0-1.25.63.63,0,0,0,0,1.25Z"/><path class="cls-20" d="M125.56,90.92a.63.63,0,0,0,0-1.25.63.63,0,0,0,0,1.25Z"/><path class="cls-20" d="M123.69,85.94a.63.63,0,0,0,0-1.25.63.63,0,0,0,0,1.25Z"/><path class="cls-20" d="M117.74,95.1a.63.63,0,0,0,0-1.25.63.63,0,0,0,0,1.25Z"/><path class="cls-20" d="M121.12,89.47a.63.63,0,0,0,0-1.25.63.63,0,0,0,0,1.25Z"/><path class="cls-20" d="M123.69,82.89a.63.63,0,0,0,0-1.25.63.63,0,0,0,0,1.25Z"/><path class="cls-20" d="M126,123.28a.63.63,0,0,0,0-1.25.63.63,0,0,0,0,1.25Z"/><path class="cls-20" d="M138.42,125a.63.63,0,0,0,0-1.25.63.63,0,0,0,0,1.25Z"/><path class="cls-20" d="M142.65,126.6a.63.63,0,0,0,0-1.25.63.63,0,0,0,0,1.25Z"/><path class="cls-20" d="M127.92,126.71a.63.63,0,0,0,0-1.25.63.63,0,0,0,0,1.25Z"/><path class="cls-20" d="M133.06,125a.63.63,0,0,0,0-1.25.63.63,0,0,0,0,1.25Z"/><path class="cls-20" d="M136,127.72a.63.63,0,0,0,0-1.25.63.63,0,0,0,0,1.25Z"/></svg>