<svg id="圖層_1" data-name="圖層 1" xmlns="http://www.w3.org/2000/svg" viewBox="0 0 300 300"><defs><style>.cls-1{fill:#f5b81b;}.cls-2{fill:#06143f;}.cls-3{fill:#f7f8f8;stroke:#4c4948;}.cls-3,.cls-5{stroke-miterlimit:10;}.cls-4{fill:#e6e6e6;}.cls-5{fill:none;stroke:#f5b81b;stroke-width:2px;}.cls-14,.cls-15,.cls-16,.cls-17,.cls-18,.cls-20,.cls-6{fill:#fdf1ca;}.cls-6{opacity:0.67;}.cls-7{fill:#f2a86c;}.cls-8{fill:#812a1f;}.cls-9{fill:#93571c;}.cls-10{fill:#835400;}.cls-11{fill:#64492b;}.cls-12{fill:#d3a136;}.cls-13{fill:#47342f;}.cls-14{opacity:0.75;}.cls-15{opacity:0.89;}.cls-16{opacity:0.93;}.cls-17{opacity:0.86;}.cls-18{opacity:0.78;}.cls-19{opacity:0.9;}.cls-21{fill:#1c0e00;}</style></defs><title>鮭魚_工作區域 1</title><ellipse class="cls-1" cx="149.98" cy="146.83" rx="149.13" ry="80.6"/><ellipse class="cls-2" cx="150.21" cy="145.52" rx="147.21" ry="77.72"/><ellipse class="cls-3" cx="150.24" cy="153.28" rx="106.86" ry="58.69"/><ellipse class="cls-4" cx="150.24" cy="157.89" rx="98.9" ry="54.55"/><ellipse class="cls-5" cx="150.3" cy="153.34" rx="106.42" ry="58.99"/><path class="cls-6" d="M86.68,170.35a11.39,11.39,0,0,1,1.52.4s.72.29.24.08c.27.12.54.26.81.4a2.5,2.5,0,0,0,3-3.93L89.7,164.2a2.51,2.51,0,0,0-3.54,0,2.57,2.57,0,0,0,0,3.54l2.57,3.11,3-3.93A13.65,13.65,0,0,0,88,165.53a2.5,2.5,0,1,0-1.33,4.82Z"/><path class="cls-7" d="M90.41,161.92c4.5,2.8,3.69,9.22,7.93,11.89,4.53,2.86,11.16,4.07,16.26,5.52l1.33-4.82a36.57,36.57,0,0,1-9.95-4.31c-2.4-1.52-8.49-5.41-8.11-8.89l-4.27,1.77a66.93,66.93,0,0,0,23,17.13c2.87,1.3,5.4-2.74,2.52-4.32A90.35,90.35,0,0,1,99.07,161l-2.43,4.18c6.18,2.29,10,8.13,15.16,11.91A32.47,32.47,0,0,0,128.2,183c2.14.2,3.33-2.89,1.77-4.27-4.37-3.86-10.21-5.09-15-8.29-5.22-3.45-9.82-7.67-15.43-10.52l-1.93,4.57c10.91,2.25,20.82,8.53,32.26,5.78,2.81-.67,2.1-4.82-.66-4.91q-10.49-.35-20.93-1.4c-2.5-.25-3.36,3.55-1.26,4.66,8.83,4.68,16.64,11,26.13,14.41l1.33-4.82c-7.17-1.05-12.15-5.9-17-10.88L115,171.48c8.59,2.41,14.37,10.1,23.15,12.25,2.64.65,4.57-3.29,1.93-4.57a54.51,54.51,0,0,1-16.31-12l-3,3.93c7.87,3.76,13.78,10.52,22.2,13.24,2.82.92,4.16-3,1.93-4.57l-18.4-12.54-1.93,4.57c7.36,1.87,13.8,5.41,20,9.64,2.68,1.82,5.13-2.48,2.52-4.32a38.89,38.89,0,0,0-9.35-4.82c-2.9-1.05-4,3-1.93,4.57,3.3,2.52,7.13,6.8,11.47,7.29,4.65.53,9.33-1,14.12-.34l-.66-4.91a12.76,12.76,0,0,1-6.87.33l-.66,4.91L173,183l-1.26-4.66c-3.89,1.83-8,1.56-12.21,1.28v5a91.46,91.46,0,0,0,16.72-2.45c1.93-.47,2.62-3.7.6-4.57-5.67-2.43-12-1.69-18-1.69-6.29,0-16,1.81-21.24-2.17l-1.93,4.57a89.62,89.62,0,0,0,15.72,4.47l1.33-4.82c-8.18-1.51-15-5.81-21.41-10.95l-2.43,4.18,24.4,8.89.66-4.91c-6.51.07-15.51-2.24-19.9-7.32l-1.1,4.18c2.39-.72,6,1.32,8.23,2.09q3.59,1.24,7.2,2.42,7.22,2.36,14.52,4.47c2.64.77,4.58-3.43,1.93-4.57-9.28-4-19.8-3.69-28.88-8.13L134.64,173c3.53-.19,7.77-1,11.24-.09,3.22.87,6.27,2.51,9.5,3.45,5.77,1.68,13.5,4.17,19.54,3.41,2.24-.28,3.68-3.36,1.26-4.66-3.7-2-7.54-1.63-11.61-2.15a42.67,42.67,0,0,1-15.07-5l-1.26,4.66c8.25-.76,17.13,2.91,24.9,5.4,3.07,1,4.39-3.85,1.33-4.82-8.19-2.61-17.5-6.38-26.23-5.57-2.3.21-3.62,3.38-1.26,4.66a48.66,48.66,0,0,0,12.42,4.82c4.42,1,10.31.19,14.26,2.31l1.26-4.66c-6.54.82-15.46-2.17-21.62-4.31-2.71-.94-5.3-2.44-8.18-2.81-3.39-.43-7.08.17-10.47.34-2.29.12-3.64,3.5-1.26,4.66,9.16,4.48,19.58,4.15,28.88,8.13l1.93-4.57q-9.12-2.66-18.13-5.66c-4.39-1.47-9.81-4.73-14.49-3.31a2.53,2.53,0,0,0-1.1,4.18c5.29,6.11,15.62,8.87,23.44,8.78,2.93,0,3.25-4,.66-4.91l-24.4-8.89c-2.28-.83-4.37,2.63-2.43,4.18,7.05,5.65,14.59,10.56,23.61,12.23,3.14.58,4.5-4.22,1.33-4.82A89.62,89.62,0,0,1,137,173.52c-2.87-1.11-4,3-1.93,4.57,4.62,3.49,10.59,2.87,16.08,2.86h10.58c4,0,8.84-.63,12.64,1l.6-4.57a84.11,84.11,0,0,1-15.39,2.27,2.5,2.5,0,0,0,0,5c5.19.34,10,.29,14.74-2,2.24-1.06,1.14-4.79-1.26-4.66l-19.81,1.09c-2.68.15-3.56,4.29-.66,4.91a18,18,0,0,0,9.52-.33c2.89-.87,2-4.56-.66-4.91-3.8-.51-7.19-.11-10.94.13-5.14.33-8.26-3.46-12.12-6.41l-1.93,4.57a34.12,34.12,0,0,1,8.16,4.32l2.52-4.32c-6.59-4.47-13.49-8.18-21.24-10.15-2.83-.72-4.23,3-1.93,4.57L142.31,184l1.93-4.57c-7.92-2.57-13.57-9.19-21-12.74a2.51,2.51,0,0,0-3,3.93,58.17,58.17,0,0,0,17.32,12.81l1.93-4.57c-8.68-2.12-14.52-9.82-23.15-12.25a2.52,2.52,0,0,0-2.43,4.18c5.43,5.54,11.26,11,19.23,12.17a2.5,2.5,0,0,0,1.33-4.82c-9-3.21-16.52-9.44-24.94-13.9l-1.26,4.66q10.45,1,20.93,1.4l-.66-4.91c-10.26,2.46-19.81-3.77-29.61-5.78-2.62-.54-4.6,3.22-1.93,4.57,5.13,2.6,9.41,6.32,14.09,9.6s11.09,4.64,15.37,8.42L128.2,178c-7.16-.68-12.79-3.91-17.9-8.81-3.78-3.63-7.34-7-12.33-8.84-2.41-.89-4.12,2.51-2.43,4.18a95.21,95.21,0,0,0,21.11,15.72l2.52-4.32a63.64,63.64,0,0,1-22-16.35c-1.58-1.81-4.05-.18-4.27,1.77-.51,4.65,3.89,8.2,7.19,10.8a40.92,40.92,0,0,0,14.54,7.22c3.11.86,4.43-3.95,1.33-4.82-2.78-.79-5.55-1.62-8.29-2.54-3.23-1.09-6.42-1.47-7.82-4.74-1.67-3.91-3.16-7.31-6.89-9.62-2.74-1.7-5.25,2.62-2.52,4.32Z"/><path class="cls-7" d="M156.77,174.83c3.72.44,8.13.39,11.61,1.69,1.89.71,5.91,2.57,7.1,4.23l.9-3.42-.23.17,3,.39-.17-.16L177.24,182a23.31,23.31,0,0,0,6.71-1.33l-3.16-2.41v.95a2.52,2.52,0,0,0,2.5,2.5,4.83,4.83,0,0,0,4-1.68,2.53,2.53,0,0,0-1.77-4.27c-2.55,0-5.6.12-8-.74-2-.71-3.52-2.4-5.32-3.53a25,25,0,0,0-11.84-3.54c-3.23-.2-3.18,4.75,0,5,4.13.33,10-.38,13.86,1.21,3.19,1.3,5.61,3,9.15,3.65V173c-3.7.64-7.88-3.17-11.44-4a2.53,2.53,0,0,0-2.82,3.67c1.77,3.57,6.31,4.6,9.76,6,3.66,1.48,6.79,2.14,9.91-.61l-4.18-1.1,0-.21,4.57,1.93c.66-3.06-1.88-5-4.4-6.28-4.31-2.17-9-2.27-13.11-5.08l-1.93,4.57a53.25,53.25,0,0,0,11.37,1.2l-.66-4.91a16.35,16.35,0,0,1-5.46,0v4.82a25.57,25.57,0,0,0,5.45-1.82c2.39-1.07,1-4.6-1.26-4.66q.64,3.38,3.11,2.6l-2.41-3.16c-.57,1.63-1.31,2.34-.77,4.16l4.57-1.93-.3-.7L179,169.92a13.89,13.89,0,0,0,5.64,5.92c2.53,1.49,4.85-1.84,3-3.93a24.82,24.82,0,0,0-4.89-4.26c-1.66-1.13-3.67.39-3.76,2.16-.3,5.81,5.16,8.84,10.11,6.19l-3.67-1.49.22,2.48c-.11,2.35,2.72,3,4.27,1.77a58.35,58.35,0,0,0,9.9-10.58c.86-1.17.09-2.68-.9-3.42a32.15,32.15,0,0,0-13.68-6.35,2.61,2.61,0,0,0-2.82,1.15c-1.24,1.84-2.85,4-2.53,6.37.36,2.72,3.57,6.28,5.56,8,4.55,4,9-1.35,11.2-5.43a2.55,2.55,0,0,0-.9-3.42c-3.29-2-8.61-5.17-12.6-4.8a2.59,2.59,0,0,0-2.41,1.84c-1.36,5.16,4.16,8.84,8.1,10.58,2.07.91,4.94-1.11,3.42-3.42-1.77-2.7-4.87-8.11-8.77-6.5-1.73.71-2.79,3.57-.6,4.57l7.56,3.43c1.7.77,4.61-.58,3.67-2.82a7.1,7.1,0,0,1-.73-2.26l-3.08,3.08c2.06.79,7.84,2.07,6.8-1.51.48,1.67,2.94,2.61,4.18,1.1a84.22,84.22,0,0,1,7.66-8.16,2.51,2.51,0,0,0,.39-3c-3.62-4.84-9.18-6.17-13.92-9.57a2.49,2.49,0,0,0-2.52,0c-4.33,2.28-5.87,6.6-9,10.11a2.53,2.53,0,0,0,1.1,4.18c2.66.77,5.29,1.6,7.89,2.57,1.79.66,4.14,2.19,6.16,1.94,3.16-.38,6.13-4.59,7.84-6.89,1-1.35-.1-3.25-1.49-3.67a31.81,31.81,0,0,1-10.77-5.53l-1.1,4.18c.88-.24,7.26,3.09,8.12,3.84L201,155.9c-.72,3-2.39,3.33-4.91,2.7a47.07,47.07,0,0,1-7.25-2.52l.51,3.93c.69-.61,1.19-1.28,1.81-1.94s.69-1.24,1.34-1.25c.31,0,6.08,2.77,6.13,3.09l.64-2.43-.51.58,2.43-.64c-3.35-.73-7.56-5.21-11-4.18a3.55,3.55,0,0,0-2,5c1.2,2.39,5.55,3.36,7.83,3.76,4.88.85,7.7-2.72,12.27-2.66l-2.5-2.5-.07,1.1h5c-.77-6.89-9.67-7.07-13.46-11.59l-1.1,4.18c1.31-.18,4.14,2.18,5.26,2.82l6.27,3.6a2.52,2.52,0,0,0,3.76-2.16,5.15,5.15,0,0,0-2.79-4.61c-1.17-.7-8.4-3.4-8.33-4l-1.84,2.41c1-.28,4.19,2.53,5.09,3a40,40,0,0,0,4.9,2.16c1.36.52,2.61-.6,3.08-1.75,1.74-4.28-7.51-8.21-10.13-9.55-2.86-1.46-5.39,2.85-2.52,4.32.48.24,7.59,4.51,7.84,3.9l3.08-1.75c-3.71-1.41-8.43-6.33-12.65-5.18a2.6,2.6,0,0,0-1.84,2.41c-.26,2.09,1.38,3.18,2.93,4.23,1.18.8,8.14,3.68,8.18,4.39l3.76-2.16c-4.4-2.52-10.1-7.64-15.38-6.92-2,.28-2.15,2.93-1.1,4.18a15.06,15.06,0,0,0,5.39,3.89c1.39.67,6.43,2.52,6.61,4.16a2.5,2.5,0,0,0,5,0l.07-1.1a2.53,2.53,0,0,0-2.5-2.5,12.69,12.69,0,0,0-5.48,1.26c-1.4.59-3,1.55-4.53,1.62.32,0-5.42-.86-5.41-1.24l-1.24,2.16.77-.47h-2.52c3.11,1.51,6.56,3.81,10,4.55a2.52,2.52,0,0,0,2.43-.64c3.71-4.23-1.86-6.45-5.13-7.86-1.87-.81-4.29-2.4-6.42-2.1-2.69.38-3.1,3.2-4.94,4.86-1.1,1-.95,3.3.51,3.93,6.74,2.92,17,7.25,19.51-3.17a2.5,2.5,0,0,0-.64-2.43c-2.14-1.87-5.26-2.82-7.84-4-1.81-.84-3.15-1.67-5.14-1.12-1.65.45-2.63,3-1.1,4.18a38.54,38.54,0,0,0,13,6.81L202.6,157c-.63.85-3.27,4.29-4.48,4.49,1.48-.25-1.73-1-2.16-1.18-3.15-1.24-6.36-2.28-9.61-3.22l1.1,4.18c2.7-3,4.28-7.38,8-9.33h-2.52c3.81,2.74,9.24,3.92,12.13,7.78l.39-3a84.22,84.22,0,0,0-7.66,8.16l4.18,1.1c-1.45-5-7-.7-10.29-2-1.89-.73-3.47,1.39-3.08,3.08a7.1,7.1,0,0,0,.73,2.26l3.67-2.82-7.56-3.43-.6,4.57c.22-.09,2.94,3.91,3.13,4.2l3.42-3.42c-1.44-.64-6.38-2.71-5.8-4.93l-2.41,1.84c3.22-.3,7.44,2.55,10.08,4.12l-.9-3.42c-1.52,2.76-3.22,5.54-5.61,1.82-1.56-2.43-1.52-3.47,0-5.75l-2.82,1.15a28.84,28.84,0,0,1,12.48,5.85l-.9-3.42a53.08,53.08,0,0,1-9.12,9.57l4.27,1.77a9.79,9.79,0,0,0-.4-3.81,2.53,2.53,0,0,0-3.67-1.49L184,169.81,180.24,172a19,19,0,0,1,3.88,3.48l3-3.93a9.19,9.19,0,0,1-3.85-4.13c-1.5-2.92-5.55-.35-4.32,2.52l.3.7c1.13,2.62,5.35.75,4.57-1.93.06.22.83-1.67.77-1.5a2.51,2.51,0,0,0-2.41-3.16c-2.56.29-6,0-6.7,3.25-.54,2.38,1.39,4.1,3.58,4.15l-1.26-4.66a14.44,14.44,0,0,1-4.25,1.31c-2.31.48-2.46,4.46,0,4.82a27.93,27.93,0,0,0,8.12,0c2.83-.38,2.08-4.92-.66-4.91a46.89,46.89,0,0,1-10-1,2.51,2.51,0,0,0-1.93,4.57c1.41,1,15.07,6.35,15.21,5.71-.57,2.68,3.13,4.5,4.57,1.93a4.11,4.11,0,0,0,.49-3.64,2.53,2.53,0,0,0-4.18-1.1c-2,1.73-11-2.78-11.81-4.37l-2.82,3.67c5.28,1.25,8.37,5,14.1,4,2.39-.41,2.38-4.39,0-4.82-4.14-.74-7.28-3.54-11.32-4.3s-8.78-.4-13-.74v5a19.38,19.38,0,0,1,8.62,2.46c1.8,1,3.2,2.7,5,3.67,3.26,1.74,8,1.61,11.53,1.68l-1.77-4.27-.42.22,2.5,2.5v-.95a2.52,2.52,0,0,0-3.16-2.41,17.68,17.68,0,0,1-5.38,1.15c-2.06.12-3.43,2.71-1.77,4.27l.17.16a2.54,2.54,0,0,0,3,.39l.23-.17c1-.73,1.75-2.24.9-3.42-5.14-7.15-15.22-7.48-23-8.39-3.19-.37-3.16,4.63,0,5Z"/><path class="cls-7" d="M203,145.72c4.56-2,8.77-2.93,11.84-7.06,1.47-2-1.44-4.86-3.42-3.42a26.19,26.19,0,0,1-7.62,3.92l1.33,4.82c2.85-1,6.15-1.74,8.79-3.21.57-.32,4-3.12,4-3q-1.68-2.92-.75.1a4.12,4.12,0,0,1,.13,2.71c-.53,3.08-3.67,7.16-5.83,9.42-1.88,2-4.9,2.86-5.37,5.82-.36,2.27,2.31,4.43,4.18,2.43a22.52,22.52,0,0,0,4.12-5.49c1-2.11,1.46-4.43,2.54-6.52,1.46-2.82,4.57-5.94,2.87-9.24a2.56,2.56,0,0,0-3.42-.9c-5.46,2.52-7.44,7.19-8.25,12.88-.44,3.12,3.76,4.46,4.82,1.33a43.89,43.89,0,0,1,4.49-9.38L212.87,139a69.66,69.66,0,0,1-3.09,6.6l4.57,1.93c1-3.17,2.74-6,3.74-9.19.71-2.26-2.6-4.44-4.18-2.43a73.26,73.26,0,0,0-7.39,11.32l4.66,1.26a16.33,16.33,0,0,1,.84-6.29L208.94,144l-.84-.64v-2.52c-1,2.19-2.4,3.74-4.94,2.58l-.6,4.57a61.9,61.9,0,0,0,7.32-2.47l-3.08-3.08.51-.65c-2.69,1.74-.19,6.07,2.52,4.32a3.73,3.73,0,0,0,1.79-2.34c.52-1.68-1.29-3.81-3.08-3.08a61.9,61.9,0,0,1-7.32,2.47c-1.93.52-2.61,3.64-.6,4.57,3.47,1.59,7,1.87,9.61-1.16,1.65-1.88,4.37-6.64,0-7.39a2.58,2.58,0,0,0-3.08,1.75,20.12,20.12,0,0,0-1,7.62c.13,2.33,3.44,3.59,4.66,1.26a66.51,66.51,0,0,1,6.6-10.31L213.27,137c-1,3.17-2.75,6-3.74,9.19-.84,2.68,3.24,4.44,4.57,1.93a82.21,82.21,0,0,0,3.6-7.8c1.09-2.71-3.12-4.23-4.57-1.93a49.68,49.68,0,0,0-5,10.58l4.82,1.33c.62-4.39,1.59-7.88,6-9.9l-3.42-.9c-.13-.25-3.28,5-3.68,5.92-1.49,3.5-2.35,6.38-5.06,9.27l4.18,2.43c.2-1.26,3.94-3.13,4.86-4.31,1.55-2,2.85-4.22,4.23-6.33,2.42-3.7,3.33-7.14,1.68-11.49-1.05-2.78-3.63-2.7-6.13-1.76a9.87,9.87,0,0,0-3.22,2.28c-2.24,2-5.73,2.62-8.5,3.61-3,1.07-1.77,5.81,1.33,4.82a30.44,30.44,0,0,0,8.81-4.43l-3.42-3.42c-2.27,3.05-6.72,3.83-10.05,5.27-2.95,1.27-.4,5.58,2.52,4.32Z"/><path class="cls-7" d="M218.2,135a32.26,32.26,0,0,0-4.36,1.58,2.51,2.51,0,0,0-.9,3.42,2.58,2.58,0,0,0,3.42.9l.46-.19.94-.34c.58-.2,1.18-.38,1.77-.54A2.5,2.5,0,0,0,218.2,135Z"/><path class="cls-7" d="M84.11,157.84c.66,3.71,1.56,8.05,3.72,11.22,2,3,5.9,2.36,7.9,4.91,1.85,2.35,5.1-.64,3.93-3a16.19,16.19,0,0,0-4.48-5.59c-3-2.47-4.36-3.77-4.84-7.87l-4.66,1.26a66.18,66.18,0,0,0,7.46,10c2.2,2.43,5.51-1.08,3.54-3.54A26.58,26.58,0,0,1,92.5,158L89.43,161c6.72,2.2,13.69,3.11,20.57,4.62,6.37,1.39,12.39,4,18.92,4.63,2.87.27,3.29-4.15.66-4.91l-11.95-3.47c-3.17-.92-4.22,3.64-1.33,4.82-1-.42-3.55,1.58-5.29,1.9a31.73,31.73,0,0,1-5.48.37c-2.25,0-4.89-.41-6.59,1.5-2.89,3.25.47,7.17,4.21,6.18l-1.33-4.82-1.33-.08-.66,4.91a11.77,11.77,0,0,1,5.28,1.33l1.26-4.66h-3.82l.66,4.91c2.94-.4,6.58,1.07,9.45,1.76l.66-4.91c-2.11-.21-4.19-.51-6.27-.9-3.12-.59-4.5,4.07-1.33,4.82,10.27,2.44,20.44,5.39,31.06,5.53s21.66,1.87,32.35.25L167.83,180c-10,1.93-19,.95-29,.37-2.87-.17-4.59,0-7-2-1-.82-1.82-1.87-2.75-2.74-3.48-3.24-2.92-6.84-4.51-10.93l-2.41,3.16c2.08-.2,6.18-.85,7.87.59l-.64-2.43-.11.5a2.53,2.53,0,0,0,2.41,3.16c4.39-.21,8.63.89,13,1.43a94.78,94.78,0,0,0,12.82.67c2.7,0,3.54-4.46.66-4.91l-12.24-1.92c-3.12-.49-4.46,3.81-1.33,4.82A36.39,36.39,0,0,0,158,171.62c5-.3,9.72-1.84,14.74-1.54l-1.26-4.66a17.89,17.89,0,0,1-6.94,2c-3.17.31-3.21,5.31,0,5a25.56,25.56,0,0,0,9.46-2.71c2.36-1.19,1-4.52-1.26-4.66-4.06-.24-7.73.64-11.71,1.21a33,33,0,0,1-15.1-1.37l-1.33,4.82,12.24,1.92.66-4.91a88.84,88.84,0,0,1-14-.83c-4-.58-7.77-1.46-11.81-1.27l2.41,3.16.11-.5a2.5,2.5,0,0,0-.64-2.43c-2.94-2.5-7.77-2.41-11.41-2.06-1.45.14-3.05,1.51-2.41,3.16,1.63,4.21,1,8.37,4.33,11.84,2.48,2.57,5.73,6.62,9.39,7.43,2.56.57,5.49.12,8.12.44s5.42.64,8.15.74a85.23,85.23,0,0,0,19.36-1.62c3.2-.62,1.79-5.3-1.33-4.82-10.17,1.54-20.79-.28-31-.43s-19.9-3-29.73-5.35L105.74,179c2.53.47,5,.83,7.6,1.08,2.82.28,3.37-4.26.66-4.91-4-1-7.94-2.33-12.11-1.76-2.84.39-2.08,4.91.66,4.91h3.82c2.33,0,3.6-3.58,1.26-4.66a21.53,21.53,0,0,0-7.81-2c-3-.21-3.12,4-.66,4.91a4.62,4.62,0,0,0,4,.08c3.06-.95,1.8-5.65-1.33-4.82q1.17,2.65,3.71,2.14,1.64,0,3.27-.12a31.52,31.52,0,0,0,3.53-.43,12.39,12.39,0,0,0,6.17-2.78c3.08-2.84,3.23-7.08-.88-8.76l-1.33,4.82,11.95,3.47.66-4.91c-6.58-.62-12.84-3.48-19.31-4.81s-12.69-2.24-18.85-4.26c-1.7-.56-3.77,1.3-3.08,3.08a34.78,34.78,0,0,0,5.46,9.4l3.54-3.54A59.32,59.32,0,0,1,90,156.22c-1.19-1.94-5-1.34-4.66,1.26.34,2.9.7,5.88,2.52,8.28,2.3,3,5.7,4.08,7.49,7.71l3.93-3c-1.54-2-3.3-1.79-5.32-3-3.53-2-4.35-7.25-5-11-.56-3.16-5.38-1.82-4.82,1.33Z"/><path class="cls-7" d="M174,171.32l2.16-.67c1-.3,1.29,0,.85-.9l-.25-1.93-.1.51,1.15-1.49-.6.32,1.93-.25c-.86-.18-1.57-1.11-2.45-1.39a5.32,5.32,0,0,0-2.69-.12,4.8,4.8,0,0,0-3.68,3.36c-.6,2.32,1.33,4.25-.29,6.31-1.23,1.57-3.19,2.83-3.85,4.79a4,4,0,0,0,1.51,4.65c1.62,1.06,3.94.46,5.71.29,2.75-.26,5.08-1.25,7.74-1.72,1.83-.32,3.37-.61,4.27-2.44,1.42-2.88-2.89-5.41-4.32-2.52a15.36,15.36,0,0,0-2.51.41c-1,.3-1.89.82-2.92,1-1.19.24-3.14-.09-4.23.42q-1.89-.27-.3,1.23l.48-.47c1.34-.44,3.29-3.64,3.84-4.93.24-.56.72-5.52-.12-5.32.19,0,1.44,1,1.74,1.1a3.5,3.5,0,0,0,2.34,0,3.13,3.13,0,0,0,2.19-3.45c-.63-4.7-6.24-2.5-8.95-1.66-3.06.95-1.76,5.78,1.33,4.82Z"/><path class="cls-8" d="M177.5,164.61c-4.64,8-11.81,13.84-19.93,18.13-.71.38-.08,1.46.63,1.08,8.31-4.39,15.64-10.37,20.38-18.58a.63.63,0,0,0-1.08-.63Z"/><path class="cls-8" d="M88.87,156.4a42.57,42.57,0,0,0,9.84,17.38c.54.6,1.42-.28.88-.88a41,41,0,0,1-9.51-16.83.63.63,0,0,0-1.21.33Z"/><path class="cls-8" d="M109.67,160.55c-4.43.47-3.4,5.87-.84,8,5.56,4.65,14.66,6.92,21.72,7.43a45.17,45.17,0,0,0,23.54-4.94c1.39-.7,4.67-1.88,4.87-3.89.12-1.23-.55-2.06-1.74-2-.8,0-.8,1.3,0,1.25a2.86,2.86,0,0,1-2.24,2.76q-1.5.83-3,1.55a46.28,46.28,0,0,1-6.14,2.32,41.83,41.83,0,0,1-25.53-.37,49.85,49.85,0,0,1-6-2.44q-1.52-.73-3-1.55-4.45-1.72-1.59-6.89c.79-.08.8-1.33,0-1.25Z"/><path class="cls-8" d="M121.36,164.3c-6.56,2,1.65,5.61,4.29,6.34,4.4,1.21,16.1,2.61,18-3.11.26-.76-.95-1.09-1.21-.33-1.14,3.37-8.72,3.28-11.44,3.08a27.43,27.43,0,0,1-5-.84l-1.44-.44q-3.64-.11-2.84-3.48c.77-.23.44-1.44-.33-1.21Z"/><path class="cls-9" d="M213.07,135.21c3.22,0,3.22-5,0-5s-3.22,5,0,5Z"/><path class="cls-10" d="M180.63,142.77l-.72.62,4.27,1.77c0,.48-.09.22.21-.06a9.18,9.18,0,0,0,.76-1c.57-.71,1.13-1.44,1.71-2.13a4.65,4.65,0,0,1,3.61-1.64,2.58,2.58,0,0,0,2.5-2.5,2.51,2.51,0,0,0-2.5-2.5c-2.69.28-5.08.78-7,2.87-1.68,1.88-4.15,4.33-4.33,6.92-.17,2.34,2.76,3.06,4.27,1.77l.72-.62c2.45-2.09-1.1-5.62-3.54-3.54Z"/><path class="cls-9" d="M151.47,166.36c8.43-.69,16.82.66,25.25.33,3.21-.13,3.22-5.13,0-5-8.43.33-16.83-1-25.25-.33-3.18.26-3.21,5.26,0,5Z"/><path class="cls-9" d="M89.55,155c1.39.49,2.76,1,4.11,1.63a2.58,2.58,0,0,0,3.42-.9,2.52,2.52,0,0,0-.9-3.42c-1.73-.79-3.5-1.51-5.3-2.14A2.5,2.5,0,1,0,89.55,155Z"/><path class="cls-9" d="M80.79,152.24c3.22,0,3.22-5,0-5s-3.22,5,0,5Z"/><path class="cls-10" d="M198.73,131.61a5.42,5.42,0,0,1-2.41-1.47,16.13,16.13,0,0,0-3.33-2.3,2.57,2.57,0,0,0-3.42.9,2.52,2.52,0,0,0,.9,3.42,21.18,21.18,0,0,1,3.72,2.63,8.81,8.81,0,0,0,4.54,1.82,2.52,2.52,0,0,0,2.5-2.5,2.56,2.56,0,0,0-2.5-2.5Z"/><path class="cls-11" d="M116.25,136.38l-.83.88c-2.22,2.33,1.21,5.77,3.54,3.54a11.88,11.88,0,0,1,5.74-3.19l-1.33-4.82a96,96,0,0,1-9.59,3.2c-3.11.86-1.8,5.52,1.33,4.82,4.38-1,8.77-1.75,13.23-2.29l-1.26-4.66a45.34,45.34,0,0,1-8.18,2.92l1.33,4.82a146.21,146.21,0,0,1,20.18-4.24l-1.33-4.82q-9.32,2.39-18.81,3.92c-3.19.51-1.81,5.28,1.33,4.82A162.12,162.12,0,0,1,142,139.67l-.66-4.91q-11.61,1.56-23.28,2.5l.66,4.91,24.16-6.42c2.64-.7,2.21-5.18-.66-4.91l-20.57,2,.66,4.91a223.12,223.12,0,0,1,23.13-2.39l-.66-4.91q-10.74,2-21.6,3.14l.66,4.91a126.59,126.59,0,0,1,16.82-2.38l-.66-4.91-19.4,4.29c-2.72.6-2.17,5.11.66,4.91l45.83-3.27-.66-4.91c-5.55,2-11.59,2.35-17.38,3.16l-18.4,2.56,1.33,4.82c5.12-1,10.25-1.78,15.44-2.29l-.66-4.91a90.85,90.85,0,0,1-15.46,2.66l1.26,4.66c5.69-2.85,12.84-3.69,19-4.91,6.6-1.31,13.24-2.42,19.88-3.54,2.75-.46,2.14-5.21-.66-4.91q-8.07.87-16.16,1.62-3.81.35-7.61.66c-1.71.14-5.63,1.21-7.17.47l-.6,4.57a145,145,0,0,1,20.36-4.44c2.76-.4,2.14-5.19-.66-4.91L145,128.85l.66,4.91c4.48-1.31,9-2.4,13.57-3.29,3.16-.61,1.82-5.41-1.33-4.82l-11,2.06c-2.74.51-2.15,5.17.66,4.91q8.14-.75,16.3-.81L161.73,128c-1,1.59-4.89,1.95-6.5,2.4L147,132.76c-2.64.74-2.22,5.1.66,4.91q15.46-1,30.95-1.45l-.66-4.91c-12.63,2.57-25.42,4-38.23,5.27l.66,4.91a255.67,255.67,0,0,1,32.76-2.74l-1.26-4.66c-3.2,2.06-7.82,2.26-11.51,2.89-3.88.66-7.77,1.24-11.67,1.78-8.23,1.13-16.49,2-24.74,2.91l.66,4.91c5.47-.89,10.95-1.51,16.47-1.89l-.66-4.91q-11.05,2.21-22.25,3.35l.66,4.91c8.76-3.38,19.32-3.79,28.56-5.25q14.86-2.35,29.75-4.55c2.76-.41,2.14-5.16-.66-4.91a366,366,0,0,1-36.88,1.4l.66,4.91a37.18,37.18,0,0,1,12.52-1.6l-.66-4.91c-14.93,4.23-30.3,7.07-45.44,10.4-2.41.53-2.35,4.25,0,4.82,5.57,1.34,11.49.66,17.17.53l20.66-.46v-5a112.61,112.61,0,0,1-14.84,1.05l.66,4.91q13.61-2.94,27.41-4.8l-.66-4.91q-15.72,2.15-31.56,3.1l.66,4.91q18.58-3.41,37.35-5.44l-.66-4.91-31.42,5.31c-2.81.47-2.11,5,.66,4.91,12-.22,24.17-1,36.16-.28l-2.41-3.16c-.2.58-7.26,1.72-8.4,2-3.32.79-6.67,1.48-10,2.2a147.77,147.77,0,0,0-18.84,5.07,2.51,2.51,0,0,0,.66,4.91,102.94,102.94,0,0,0,19.48-.33,2.5,2.5,0,0,0,0-5l-9.59-.58.66,4.91q11.11-3.07,22.39-5.39c2.83-.58,2.08-4.85-.66-4.91q-6.54-.16-13.08-.43c-4.49-.19-10.47.48-14.61-1.31l-.6,4.57A80.83,80.83,0,0,1,148.93,146c3.12-.42,3.22-5.37,0-5l-26.42,3c-3.16.36-3.2,5.37,0,5,4.12-.47,8.22-.77,12.36-.89l-.66-4.91q-9.7,2.6-19.57,4.36c-3.2.57-1.79,5.28,1.33,4.82a246.58,246.58,0,0,1,25.16-2.35l-.66-4.91A150.15,150.15,0,0,1,124,147.86c-3.13.34-3.27,5.16,0,5l18.2-.87-.66-4.91-14.47,3c-2.73.57-2.16,5.1.66,4.91l9.62-.66-.66-4.91q-6.41,1.51-12.88,2.64c-2.78.49-2.13,5,.66,4.91h.29l-2.41-1.84.12.33,1.15-2.82c-1.42.92-5,1.13-6.48,1.3-3.14.36-3.22,5.32,0,5q10.65-1,21.35-1.37l-.66-4.91-6.27,1.14c-2.74.5-2.15,5.2.66,4.91a10.51,10.51,0,0,1,3.71,0l-.66-4.91-2.83,1.06c-2.52.94-2.32,4.92.66,4.91a36.81,36.81,0,0,1,6,.42V155.3c-3.06.79-9.24,3.13-12.26,2.2l1.49,3.67.14-.26-2.82,1.15.21.09v-4.82l-2.87.51,1.33,4.82a92,92,0,0,1,13.13-2.89l-1.33-4.82a56.94,56.94,0,0,1-8.54,1.3l.66,4.91a59,59,0,0,1,10.75-1.46l-.66-4.91-7.57,1.94c-2.65.68-2.2,5.24.66,4.91,3.62-.42,7.23-.7,10.88-.85l-.66-4.91a55.34,55.34,0,0,1-8.19,2.09c-3.2.56-1.79,5.26,1.33,4.82,4.12-.58,8.25-1,12.4-1.34l-.66-4.91a90,90,0,0,1-9.44,1.36l.66,4.91a60.4,60.4,0,0,1,6-1.31l-1.33-4.82-5.3,1.51c-2.62.74-2.23,5.15.66,4.91a105.58,105.58,0,0,1,12.71-.28l-.66-4.91L145.7,159c-2.76.74-2.13,4.83.66,4.91l3.18.09-.66-4.91c-4.47,1.39-9.1,2.4-13.58.41L134,164.18a138.83,138.83,0,0,1,25-.19v-5q-8.75.88-17.53,1.12v5c11.23-.41,22.46-.2,33.69,0v-5q-13.54,0-27.08-.47v5q15.78-.24,31.48-1.74c2.58-.25,3.65-4.35.66-4.91l-10.6-2c-3-.56-6.55-.73-9.12-2.54l.9,3.42c1.17-2.08,4.2-3,6-4.55,1.57-1.36.37-4.48-1.77-4.27l-15.84,1.58.66,4.91a9.13,9.13,0,0,1,2.28-.78c3.1-.83,1.79-5.66-1.33-4.82a9.13,9.13,0,0,0-2.28.78c-2.33,1-2.42,5.22.66,4.91l15.84-1.58-1.77-4.27c-2.37,2.06-5.15,2.69-6.76,5.56a2.57,2.57,0,0,0,.9,3.42c2.53,1.79,5.38,2.13,8.39,2.69l12.52,2.33.66-4.91q-15.71,1.5-31.48,1.74c-3.22,0-3.21,4.88,0,5q13.53.49,27.08.47c3.22,0,3.22-4.93,0-5-11.23-.24-22.46-.45-33.69,0-3.21.12-3.23,5.09,0,5q8.79-.24,17.53-1.12a2.5,2.5,0,0,0,0-5,138.83,138.83,0,0,0-25,.19c-2.16.21-3.78,3.54-1.26,4.66,5.8,2.57,11.49,1.94,17.44.09a2.51,2.51,0,0,0-.66-4.91l-3.18-.09.66,4.91,4.2-1.12c2.78-.74,2.12-4.8-.66-4.91a105.58,105.58,0,0,0-12.71.28l.66,4.91,5.3-1.51c3.16-.9,1.79-5.34-1.33-4.82a60.4,60.4,0,0,0-6,1.31c-2.63.72-2.22,5.17.66,4.91a102.58,102.58,0,0,0,10.77-1.54c2.74-.54,2.15-5.13-.66-4.91-4.6.36-9.16.88-13.73,1.52l1.33,4.82a55.34,55.34,0,0,0,8.19-2.09c2.55-.86,2.29-5-.66-4.91-3.64.15-7.26.43-10.88.85l.66,4.91,7.57-1.94c2.69-.69,2.19-5-.66-4.91A66.15,66.15,0,0,0,127,156.34c-2.7.62-2.18,5.12.66,4.91a65.76,65.76,0,0,0,9.87-1.48c3.21-.74,1.77-5.27-1.33-4.82a92,92,0,0,0-13.13,2.89c-3.13.93-1.8,5.37,1.33,4.82l2.87-.51c2.74-.48,2-4,0-4.82l-.21-.09a2.5,2.5,0,0,0-2.82,1.15l-.14.26a2.54,2.54,0,0,0,1.49,3.67c4.2,1.3,10.84-1.15,14.91-2.2,2.25-.58,2.52-4.43,0-4.82a45.79,45.79,0,0,0-7.38-.6l.66,4.91,2.83-1.06a2.51,2.51,0,0,0-.66-4.91,10.51,10.51,0,0,0-3.71,0l.66,4.91,6.27-1.14c2.79-.5,2.12-5-.66-4.91q-10.7.33-21.35,1.37v5c2.83-.33,6.55-.39,9-2a2.54,2.54,0,0,0,1.15-2.82l-.12-.33A2.58,2.58,0,0,0,124.8,152h-.29l.66,4.91q6.48-1.13,12.88-2.64c2.7-.64,2.18-5.11-.66-4.91l-9.62.66.66,4.91,14.47-3c2.75-.57,2.15-5-.66-4.91l-18.2.87v5A162.38,162.38,0,0,0,141.78,150c2.74-.61,2.16-5-.66-4.91a259.56,259.56,0,0,0-26.49,2.53l1.33,4.82q9.89-1.77,19.57-4.36c2.69-.72,2.19-5-.66-4.91-4.14.12-8.25.42-12.36.89v5l26.42-3v-5a87.27,87.27,0,0,0-17,4c-1.8.62-2.74,3.64-.6,4.57,4.2,1.82,8.88,1.6,13.4,1.82q8.4.41,16.81.6l-.66-4.91q-11.29,2.33-22.39,5.39c-2.8.77-2.1,4.74.66,4.91l9.59.58v-5a102.94,102.94,0,0,1-19.48.33l.66,4.91c7.92-2.83,16.12-4.45,24.31-6.24,3.93-.86,7.9-1.72,11.74-2.93,2.36-.74,3.85-1.15,4.7-3.58a2.53,2.53,0,0,0-2.41-3.16c-12-.75-24.16.06-36.16.28l.66,4.91,31.42-5.31c2.75-.46,2.14-5.21-.66-4.91q-19.44,2.09-38.68,5.62c-2.76.51-2.14,5.08.66,4.91q16.51-1,32.89-3.27c2.76-.38,2.13-5.28-.66-4.91q-14.47,1.92-28.74,5c-2.8.61-2.1,4.88.66,4.91a112.61,112.61,0,0,0,14.84-1.05c3.1-.37,3.3-5.07,0-5l-18.69.42c-5.75.13-12.18,1-17.81-.31v4.82c15.15-3.33,30.52-6.17,45.44-10.4a2.51,2.51,0,0,0-.66-4.91,41.56,41.56,0,0,0-13.85,1.78,2.51,2.51,0,0,0,.66,4.91,366,366,0,0,0,36.88-1.4l-.66-4.91Q160.91,135.62,146,138c-9.24,1.46-19.81,1.87-28.56,5.25-2.4.93-2.38,5.22.66,4.91q11.88-1.2,23.58-3.53c2.74-.55,2.15-5.11-.66-4.91q-9,.62-17.8,2.07c-2.75.45-2.14,5.22.66,4.91,8.7-.94,17.4-1.89,26.07-3.09,4.55-.63,9.09-1.31,13.61-2.11,3.7-.65,7.56-1,10.76-3.06,2-1.29,1.31-4.71-1.26-4.66A266,266,0,0,0,139,136.66c-2.76.41-2.14,5.2.66,4.91,13.25-1.36,26.5-2.78,39.56-5.45,2.77-.56,2.13-5-.66-4.91q-15.49.45-30.95,1.45l.66,4.91c4.25-1.19,8.67-2.17,12.85-3.6,2.09-.72,3.67-1.48,4.9-3.41a2.52,2.52,0,0,0-2.16-3.76q-8.18.06-16.3.81l.66,4.91,11-2.06-1.33-4.82c-4.58.89-9.09,2-13.57,3.29-2.6.76-2.24,5.2.66,4.91l13.87-1.38-.66-4.91A145,145,0,0,0,137.88,132c-1.92.57-2.62,3.6-.6,4.57,4.06,1.94,10.11.19,14.46-.2q9.52-.84,19-1.87l-.66-4.91c-7.27,1.22-14.54,2.44-21.77,3.91-6.11,1.25-12.72,2.22-18.34,5-2.16,1.09-1.2,4.86,1.26,4.66A98.72,98.72,0,0,0,148,140.35c2.65-.69,2.2-5.19-.66-4.91q-8.45.83-16.77,2.46c-3.22.64-1.77,5.25,1.33,4.82l18.4-2.56c5.8-.81,11.84-1.2,17.38-3.16,2.49-.88,2.32-5.12-.66-4.91l-45.83,3.27.66,4.91,19.4-4.29c2.72-.6,2.17-5.12-.66-4.91a136.62,136.62,0,0,0-18.15,2.55c-2.71.57-2.16,5.21.66,4.91q11.53-1.2,22.93-3.32c2.76-.51,2.14-5.06-.66-4.91a236,236,0,0,0-24.46,2.57c-2.76.43-2.14,5.18.66,4.91l20.57-2-.66-4.91-24.16,6.42c-2.65.7-2.21,5.15.66,4.91q12.34-1,24.61-2.67c2.82-.38,2.1-5-.66-4.91a172.63,172.63,0,0,0-21.71,1.79l1.33,4.82q9.5-1.53,18.81-3.92c3.21-.82,1.76-5.24-1.33-4.82a146.21,146.21,0,0,0-20.18,4.24c-3.09.88-1.79,5.62,1.33,4.82a52,52,0,0,0,9.38-3.42c2.17-1,1.19-5-1.26-4.66-4.9.6-9.74,1.4-14.56,2.47l1.33,4.82a96,96,0,0,0,9.59-3.2c2.93-1.15,1.86-5.65-1.33-4.82a17,17,0,0,0-7.94,4.47L119,140.8l.83-.88c2.22-2.33-1.31-5.87-3.54-3.54Z"/><path class="cls-11" d="M99.48,137.34q7.47-5.31,15.36-9.95c2.4-1.41.83-5.41-1.93-4.57l-2.91.89c-2.66.81-2.21,4.91.66,4.91a124.58,124.58,0,0,0,20.9-1.75c2.78-.47,2.13-5-.66-4.91l-14,.65c-3.2.15-3.24,5,0,5l23.9-.23-.66-4.91-10.79,3.83a2.51,2.51,0,0,0,.66,4.91l20.52,1v-5c-9.25.71-18.57.48-26.9,5.13-2.53,1.41-.79,5.2,1.93,4.57l19.27-4.49c2.86-.67,2-4.75-.66-4.91l-18-1.07,1.77,4.27.8-.5c2.71-1.23.69-5.11-1.93-4.57l-5.46,1.12,1.33,4.82,4.69-1.08c2.68-.62,2.17-5.27-.66-4.91l-5.06.65,1.26,4.66a3.76,3.76,0,0,1,3.31-1.13l-.66-4.91a17.73,17.73,0,0,0-7.86,4.11,2.52,2.52,0,0,0,.51,3.93l2,1.19.6-4.57a36.13,36.13,0,0,1-15.23,2.31l.66,4.91,8.18-2.64c2.57-.83,2.27-5.07-.66-4.91l-2.81.16,1.26,4.66,3-1.5c2.28-1.13,1.11-4.67-1.26-4.66H112l.66,4.91a65.79,65.79,0,0,1,6.38-2l-1.33-4.82c-5,2.09-3.22,10,2.26,8.14a4.32,4.32,0,0,0,2.41-5.9c-1.58-3.09-5-2.15-7.51-1.12a2.5,2.5,0,0,0,1.33,4.82l4.14-.77L119,126.24c-3.31.63-6.63,1.18-10,1.62l.66,4.91,3.49-1.12-1.93-4.57-.38.17,3.42,3.42c.37-.75,1.82-.94,2.51-1.16,3.05-1,1.81-5.62-1.33-4.82l-4.83,1.23c-2.61.66-2.12,4,0,4.82l1.84.74-.6-4.57a20,20,0,0,1-9.1,3.3l.66,4.91c8.82-2.44,17.05-7.26,26.46-6.44v-5l-3,.11a2.5,2.5,0,0,0,0,5,13.41,13.41,0,0,1,4.17.55l.66-4.91-7.52.66a2.54,2.54,0,0,0-2.16,3.76c1.67,3.58-3.27,9.77-3.21,13.86a9.22,9.22,0,0,0,5,8.5l.6-4.57a8.44,8.44,0,0,1-4.25.38l1.26,4.66c-1.17.81-3.13,1.33-4.44,2.16a2.53,2.53,0,0,0,0,4.32c13.11,7.82,27.53,2.71,41.57,1.19v-5l-8.48,1.05c-3.1.38-3.31,5,0,5,5.39,0,10.61.1,15.82,1.68l.66-4.91a185.14,185.14,0,0,1-18.58,1.09l.66,4.91,10.89-1.9c2.39-.42,2.38-4.39,0-4.82l-10.89-2v4.82a66.12,66.12,0,0,1,16.59-1v-5l-19.23-.67v5l19.24-2.13c3.12-.35,3.3-5,0-5l-12.53-.17.66,4.91a67.85,67.85,0,0,1,10.8-2v-5a36.87,36.87,0,0,1-6.08.22l.66,4.91a26.54,26.54,0,0,1,6.14-1.62c2.86-.4,2.06-4.87-.66-4.91q-8.22-.13-16.4-.86v5l4.9-.65a2.5,2.5,0,0,0,0-5l-26.58-2.25v5l19.36-2.25c3.11-.36,3.3-5,0-5l-4.88-.06c-3.24,0-3.19,4.8,0,5q9.77.6,19.54.5l-.66-4.91-4.51.83c-3,.56-1.89,4.6.66,4.91q8.18,1,16.38,1.72v-5c-5.85.17-11.68.64-17.53.86v5a141.47,141.47,0,0,0,21.43-3.52c2.84-.76,2.06-4.7-.66-4.91l-16-1.26.66,4.91,5.69-1.43c2.7-.68,2.18-5-.66-4.91l-13.14.61.66,4.91,10.52-1.58c2.91-.44,2-4.77-.66-4.91l-1.31-.07.66,4.91,11-2-1.33-4.82-10.84,2c-2.78.5-2.13,5,.66,4.91A130.66,130.66,0,0,0,175,141.24c2.84-.41,2.08-4.91-.66-4.91a103.56,103.56,0,0,1-14.69-1l1.1,4.18a17.67,17.67,0,0,1,4.19-2.59c1.87-.87,1.48-4.22-.6-4.57l-20.53-3.41.6,4.57c4.45-2.52,9.85-1.52,14.67-2.94,2.82-.83,2.07-4.66-.66-4.91-5.29-.49-10.52-1.24-15.74-2.25v4.82a45.73,45.73,0,0,1,11.53-.6v-5l-7.95-.34c-2.77-.12-3.47,4.4-.66,4.91l7.3,1.34.66-4.91q-8.9.68-17.81.89c-3.21.07-3.23,5,0,5l14.09,0c3.23,0,3.21-4.86,0-5l-8.54-.36v5l6.82-.31c1.23-.06,2.67-1.11,2.5-2.5l.06-.18c2.28-1,1.12-4.76-1.26-4.66l-4.27.18c-3.2.13-3.23,5.1,0,5a66.29,66.29,0,0,1,8.35.25v-5l-14.49.35v5a95.53,95.53,0,0,1,26.46,2.24v-4.82a17.19,17.19,0,0,1-11-1.86l-1.26,4.66c8.85-1.11,17.48,1.18,26.3,1.55l-.66-4.91A119.11,119.11,0,0,1,163.43,127c-3.11.37-3.31,4.92,0,5l11.51.27v-5l-11.8.56v5L172,132l-.66-4.91a9,9,0,0,1-4.37.17l1.1,4.18,1-1h-3.54a4,4,0,0,0,2.92,1.74c2.48.2,1.73-1.82.6-.78a2.52,2.52,0,0,0,1.1,4.18l6,1.4v-4.82c-4.33,1.79-9,.73-12.38,4.57a2.53,2.53,0,0,0,1.1,4.18l4.9,1.27-1.49-3.67a18.74,18.74,0,0,1-2.87,3.92c-1,1.06-1,3.24.51,3.93a30.54,30.54,0,0,0,7,2.27l-1.1-4.18-2.25,1.79a2.51,2.51,0,0,0,.51,3.93l-.56-1.25a7.47,7.47,0,0,1-1.44,1.19,24.34,24.34,0,0,1-4,2c-2.2.73-2.55,4.26,0,4.82l2.14.47v-4.82L163.11,154c-2.49,1-2.35,4.78.66,4.91l4.77.2-1.26-4.66a81.17,81.17,0,0,1-13.51,5.41,2.53,2.53,0,0,0-.6,4.57c4,2.62,10.13-.4,9.49-5.53-.88-7.08-10.86-10.32-15.06-15.13v3.54c1.48-1.73,3.77-.09,5.09.62l.6-4.57-2.18.9c-2,.81-2.76,4.39,0,4.82l5,.77.66-4.91a21.34,21.34,0,0,1-6.92-.15v4.82a25.64,25.64,0,0,1,16.42.33l-1.49-3.67A31.83,31.83,0,0,0,162,151a2.5,2.5,0,0,0,4.32,2.52q3.28-.56,3.38,2a3.11,3.11,0,0,1-.21,3.09l4.57-.6a8.93,8.93,0,0,1-1.48-6.65h-5l.58,4.74,4.27-1.77-.73-.81a2.52,2.52,0,0,0-4.18,1.1c-.51,2.06-.27,3.61,1.62,4.9,2,1.4,7.31-.34,6.5,3.05-.62,2.62,3.37,4.63,4.57,1.93l5.09-11.48c1.28-2.89-2.9-5.45-4.32-2.52a18.63,18.63,0,0,0-1.22,2.59,16.08,16.08,0,0,1-.88,1.57q2,.23.75-1.33c-.33-3-4.51-4.92-5.69-7.52-1.34-2.95-5.57-.38-4.32,2.52l2.33,5.43,3.42-3.42a31.85,31.85,0,0,1-6-3.76c-1.69-1.36-5.22-.16-4.18,2.43a22.14,22.14,0,0,0,2.35,4.51,2.51,2.51,0,0,0,4.57-1.93,39,39,0,0,0-2-6.47L166.42,148a15.77,15.77,0,0,1,4.44,4.43l2.82-3.67a66.33,66.33,0,0,1-8.28-3.75c-1.75-.94-4.51.66-3.67,2.82,1.17,3,3.78,6.8,7.57,5.29.54-.21,3.06-2.17,2.47-2.55.74.48.27,4.37.22,5.13h5q.58-13.33,0-26.64a2.51,2.51,0,0,0-4.91-.66l-4.41,15c-.78,2.65,3.33,4.53,4.57,1.93a17,17,0,0,0-3.15-19.63l-2.43,4.18c6.63.93,2.84,7.9,1.8,11.59-.55,2,1.84,4.13,3.67,2.82a22.39,22.39,0,0,0,4.66-4.33l-3.93-3-2.08,4.81c-1.25,2.89,2.56,5.32,4.32,2.52a21.57,21.57,0,0,1,3.56-4.3l-4.18-1.1a33.69,33.69,0,0,1,.14,8c-.21,2.35,2.78,3,4.27,1.77a10.53,10.53,0,0,0,3-4l-4.66-1.26a38.66,38.66,0,0,1-1.62,7.51l4.91.66,0-.28a2.52,2.52,0,0,0-4.66-1.26c-1.21,1.58-1.42,3.32-1.66,5.26h5a70.91,70.91,0,0,1,.76-8.44h-4.82a18.92,18.92,0,0,1,1.23,6.46,2.52,2.52,0,0,0,4.66,1.26l2.87-4.84-4.57-1.93L178,151.95c-.84,2.67,3.27,4.47,4.57,1.93l3.28-6.41c1.46-2.86-2.85-5.39-4.32-2.52l-3.28,6.41,4.57,1.93,1.32-4.18c.86-2.73-3.14-4.34-4.57-1.93L176.73,152l4.66,1.26a22.66,22.66,0,0,0-1.41-7.79c-.75-2-4.41-2.68-4.82,0a82.3,82.3,0,0,0-.94,9.77c-.11,3.3,4.62,3.1,5,0a4,4,0,0,1,1-2.73l-4.66-1.26,0,.28a2.51,2.51,0,0,0,4.91.66,45.64,45.64,0,0,0,1.8-8.84c.26-2.42-3.66-3.48-4.66-1.26a5.35,5.35,0,0,1-2.25,3l4.27,1.77a39.41,39.41,0,0,0-.32-9.32c-.28-2-3-2.26-4.18-1.1a26.53,26.53,0,0,0-4.34,5.31l4.32,2.52,2.08-4.81c1-2.34-2-5.46-3.93-3a17.26,17.26,0,0,1-3.64,3.55l3.67,2.82c1.14-4,3.26-7.44,1.73-11.69a8.75,8.75,0,0,0-7-6.05c-2.33-.33-4.33,2.23-2.43,4.18a11.76,11.76,0,0,1,2.37,13.57l4.57,1.93,4.41-15-4.91-.66q.58,13.33,0,26.64c-.14,3.23,4.79,3.19,5,0s.38-7.71-2.4-9.76a4.17,4.17,0,0,0-4.3-.46c-2,.87-2.44,4.37-3.73,1l-3.67,2.82a75.86,75.86,0,0,0,9.47,4.25c2,.74,4-1.93,2.82-3.67a23.26,23.26,0,0,0-6.23-6.23c-1.69-1.16-4.51.81-3.67,2.82a39,39,0,0,1,2,6.47l4.57-1.93a12.21,12.21,0,0,1-1.85-3.31l-4.18,2.43a37.7,37.7,0,0,0,7,4.55c2.37,1.18,4.4-1.15,3.42-3.42l-2.33-5.43-4.32,2.52c1.34,3,4.12,4.58,5.63,7.43.89,1.68,1.32,3.67,3.5,4,3.69.63,5.32-4.26,6.54-6.78L181,150.57,175.88,162l4.57,1.93c.56-2.36.74-5.12-.89-7.14a5.15,5.15,0,0,0-2.56-1.71c-1.2-.38-4.88.51-5.6-.39l.64,2.43.28-1.15-4.18,1.1.73.81c1.36,1.5,4.54.41,4.27-1.77l-.58-4.74a2.5,2.5,0,0,0-5,0,13,13,0,0,0,2.16,9.18,2.54,2.54,0,0,0,4.57-.6c2.81-7.91-6.35-17.55-12.31-9l4.32,2.52a31.83,31.83,0,0,1,2.78-4.8c1-1.41-.09-3.18-1.49-3.67a30.14,30.14,0,0,0-19.08-.33c-2.2.67-2.56,4.35,0,4.82a26.73,26.73,0,0,0,8.25.33c2.51-.3,3.72-4.44.66-4.91l-5-.77V149l2.18-.9c1.83-.76,2.68-3.45.6-4.57-3.87-2.08-7.84-3.7-11.15.16a2.58,2.58,0,0,0,0,3.54,34,34,0,0,0,5.35,4.9c.91.68,1.85,1.33,2.79,2q1.09.75,2.17,1.54,2.24,1.22,1.32,4.38l-.6,4.57a88.5,88.5,0,0,0,14.71-5.91c2.33-1.18,1.07-4.56-1.26-4.66l-4.77-.2.66,4.91,3.15-1.33c2-.86,2.69-4.23,0-4.82l-2.14-.47V157c3.22-1.06,14.32-7.63,7.16-11.1l.51,3.93,2.25-1.79c1.44-1.14.64-3.85-1.1-4.18a24.44,24.44,0,0,1-5.79-1.76L169,146a23.77,23.77,0,0,0,3.66-4.93,2.53,2.53,0,0,0-1.49-3.67l-4.9-1.27,1.1,4.18c2.44-2.78,6.92-1.94,10.17-3.28,2.07-.86,2.66-4.2,0-4.82l-6-1.4,1.1,4.18c1.49-1.36,3-3.14,2.18-5.29-1.16-3-4.23-1.1-5.7-2.74a2.53,2.53,0,0,0-3.54,0l-1,1c-1.24,1.21-.8,3.87,1.1,4.18a17.87,17.87,0,0,0,7-.17c2.71-.6,2.17-5.16-.66-4.91l-8.83.78c-3.16.28-3.25,5.15,0,5l11.8-.56c3.2-.15,3.23-4.93,0-5L163.43,127v5a129.25,129.25,0,0,0,16.74-3.09c2.8-.72,2.1-4.79-.66-4.91-8.82-.37-17.44-2.66-26.3-1.55-2.22.28-3.7,3.38-1.26,4.66a22.89,22.89,0,0,0,14.89,2.36c2.47-.39,2.3-4.3,0-4.82A100.62,100.62,0,0,0,139,122.22c-3.19.17-3.24,5.08,0,5l14.49-.35c3.27-.08,3.16-4.71,0-5a66.29,66.29,0,0,0-8.35-.25v5l4.27-.18-1.26-4.66a4,4,0,0,0-2.54,4.5l2.5-2.5-6.82.31a2.5,2.5,0,0,0,0,5l8.54.36v-5l-14.09,0v5q8.92-.21,17.81-.89c2.61-.2,3.62-4.37.66-4.91l-7.3-1.34-.66,4.91,7.95.34c3.23.14,3.19-4.78,0-5a51.05,51.05,0,0,0-12.86.78c-2.4.44-2.37,4.36,0,4.82q8.48,1.64,17.07,2.43l-.66-4.91c-5.38,1.58-10.82.59-15.86,3.44-1.74,1-1.59,4.21.6,4.57l20.53,3.41-.6-4.57a23.11,23.11,0,0,0-5.2,3.38c-1.35,1.13-.71,3.92,1.1,4.18a113,113,0,0,0,16,1.2l-.66-4.91a117.92,117.92,0,0,1-12.36,1.09l.66,4.91,10.84-2c3.16-.57,1.82-5.39-1.33-4.82l-11,2c-2.9.52-2,4.77.66,4.91l1.31.07-.66-4.91-10.52,1.58c-2.79.42-2.13,5,.66,4.91l13.14-.61-.66-4.91-5.69,1.43c-2.87.72-2,4.7.66,4.91l16,1.26-.66-4.91a132.59,132.59,0,0,1-20.11,3.34c-3.12.34-3.28,5.12,0,5,5.85-.22,11.68-.69,17.53-.86,3.26-.09,3.17-4.72,0-5q-8.2-.74-16.38-1.72l.66,4.91,4.51-.83c2.8-.52,2.11-4.94-.66-4.91q-9.79.11-19.54-.5v5l4.88.06v-5l-19.36,2.25a2.5,2.5,0,0,0,0,5l26.58,2.25v-5L148,146a2.5,2.5,0,0,0,0,5q8.19.73,16.4.86l-.66-4.91a26.54,26.54,0,0,0-6.14,1.62,2.51,2.51,0,0,0,.66,4.91,36.87,36.87,0,0,0,6.08-.22c3.14-.37,3.22-5.33,0-5a76.23,76.23,0,0,0-12.13,2.2c-2.74.74-2.15,4.87.66,4.91l12.53.17v-5l-19.24,2.13c-3.13.35-3.29,4.89,0,5l19.23.67c3.23.11,3.19-4.8,0-5a71.63,71.63,0,0,0-17.92,1.16c-2.38.45-2.4,4.39,0,4.82l10.89,2v-4.82l-10.89,1.9c-2.81.49-2.1,4.93.66,4.91a185.14,185.14,0,0,0,18.58-1.09c2.69-.29,3.53-4,.66-4.91-5.62-1.7-11.31-1.88-17.15-1.86v5l8.48-1.05c3.14-.39,3.22-5.35,0-5-12.89,1.4-27,6.68-39-.51v4.32c2.95-1.88,6.72-3.69,5.84-7.84-.66-3.14-3.72-4.85-6.45-2.95a2.52,2.52,0,0,0,1.26,4.66,16.23,16.23,0,0,0,5.58-.55,2.53,2.53,0,0,0,.6-4.57c-5.09-2.64-1.24-8.58.15-12.22a9.75,9.75,0,0,0-.13-8.34l-2.16,3.76,7.52-.66c2.64-.23,3.59-4.22.66-4.91a27.88,27.88,0,0,0-5.5-.73v5l3-.11c3.25-.13,3.18-4.72,0-5-9.91-.86-18.51,4.05-27.79,6.62-2.62.72-2.22,5.2.66,4.91a25.39,25.39,0,0,0,11.63-4,2.54,2.54,0,0,0-.6-4.57l-1.84-.74v4.82l4.83-1.23-1.33-4.82c-2.22.71-4.41,1.22-5.5,3.45a2.52,2.52,0,0,0,3.42,3.42l.38-.17c2.58-1.17.75-5.43-1.93-4.57l-3.49,1.12c-2.53.81-2.27,5.29.66,4.91,3.79-.49,7.55-1.08,11.3-1.8,3.16-.6,1.82-5.4-1.33-4.82l-4.14.77,1.33,4.82c.94-.38,1.91-.72,2.85-1.11,2.88-1.2,1.89-5.65-1.33-4.82a65.79,65.79,0,0,0-6.38,2c-2.53.93-2.31,4.92.66,4.91H114l-1.26-4.66-3,1.5c-2.21,1.09-1.17,4.79,1.26,4.66l2.81-.16-.66-4.91-8.18,2.64a2.51,2.51,0,0,0,.66,4.91,39.53,39.53,0,0,0,16.56-2.49,2.54,2.54,0,0,0,.6-4.57l-2-1.19.51,3.93a12.49,12.49,0,0,1,5.65-2.82c2.8-.67,2.11-4.84-.66-4.91a8.57,8.57,0,0,0-5.83,1.81c-1.69,1.28-1.52,5,1.26,4.66l5.06-.65-.66-4.91-4.69,1.08c-3.15.73-1.81,5.47,1.33,4.82l5.46-1.12-1.93-4.57a5.47,5.47,0,0,0-1.81,1.28,2.53,2.53,0,0,0,1.77,4.27l18,1.07-.66-4.91L124.25,132l1.93,4.57c7.5-4.19,16.07-3.81,24.38-4.45a2.5,2.5,0,0,0,0-5l-20.52-1,.66,4.91,10.79-3.83c2.55-.91,2.29-4.94-.66-4.91l-23.9.23v5l14-.65-.66-4.91a116.56,116.56,0,0,1-19.57,1.57l.66,4.91,2.91-.89-1.93-4.57Q104.41,127.72,97,133c-2.6,1.85-.11,6.19,2.52,4.32Z"/><path class="cls-11" d="M93.51,134.72l-1.84,2.44a2.5,2.5,0,0,0,3.42,3.42q1.7-1.3,3.44-2.56a2.56,2.56,0,0,0,.9-3.42,2.53,2.53,0,0,0-3.42-.9q-1.73,1.26-3.44,2.56L96,139.68l1.84-2.44a2.51,2.51,0,0,0-.9-3.42,2.58,2.58,0,0,0-3.42.9Z"/><path class="cls-11" d="M110.56,133.82a23.65,23.65,0,0,1-9.43,3.88l1.33,4.82A177.81,177.81,0,0,1,131,138.31l-.66-4.91c-11,4-22.55,4.75-34,6.25l.66,4.91a268,268,0,0,1,28.42-6.23l-1.33-4.82-19.65,7.7c-2.4.94-2.39,5.14.66,4.91,8.53-.65,17-1.81,25.53-.8L130,140.4a174.43,174.43,0,0,1-33.18,4l.66,4.91a165.77,165.77,0,0,1,22.91-4.21c3.15-.35,3.22-5.32,0-5l-15.53,1.56c-3.16.32-3.22,5.28,0,5a136.74,136.74,0,0,1,19.46-.32l-.66-4.91a119.84,119.84,0,0,1-20.94,2.1v5a262.35,262.35,0,0,1,40.31.36v-5c-15.56,1.55-31.11.34-46.64-1-3.24-.28-3.13,4.63,0,5l20.88,2.5-.66-4.91c-6.21,1-12.47.84-18.73.66-3.25-.1-3.17,4.74,0,5l40.06,3.25v-5L101.56,148c-3.25-.13-3.17,4.74,0,5l24.7,2v-5l-32.71-.87v5q9.65.26,19.26,1.16v-5L95,150.16c-3.32,0-3.09,4.6,0,5a167.27,167.27,0,0,1,20.35,4l.66-4.91-12.49-.47c-2.81-.11-3.41,4.24-.66,4.91l14.57,3.55c3.13.76,4.42-3.91,1.33-4.82l-9.25-2.72-.66,4.91q11.66.53,23.23,2c2.86.37,3.29-4.16.66-4.91-4.24-1.21-8.52-2.17-12.83-3.09l-.66,4.91a43.09,43.09,0,0,1,9.19,1.31l1.33-4.82q-10.58-1.83-21.25-3c-2.83-.32-3.34,4.23-.66,4.91q11.23,2.87,22.65,4.78c3.11.52,4.51-4,1.33-4.82l-29.74-7.32-.66,4.91q12.79.53,25.53,1.78c3.23.32,3.13-4.61,0-5l-11-1.39c-2.78-.35-3.43,4.39-.66,4.91l15.59,2.94c3.12.59,4.5-4.08,1.33-4.82A182.87,182.87,0,0,0,92.61,148v5a42.74,42.74,0,0,1,7.69.34v-4.82l-2.07.29c-2.72.07-3.52,4.3-.66,4.91a62,62,0,0,1,10.73,3.31v-4.82c-6.94,2.41-13.3-1.76-17.94-6.67a2.52,2.52,0,0,0-2.43-.64c-2.57.62-8.91-.61-7.2,4.66,1.23,3.79,8.52,4.21,11.71,4,2.73-.22,3.5-4.09.66-4.91L86,146.59v4.82a67.12,67.12,0,0,0,14.38-4.1,2.53,2.53,0,0,0,0-4.82,5.65,5.65,0,0,0-3-.49l.66,4.91a9,9,0,0,1,4.26-.44l-.66-4.91-11.19,4c-2.08.74-2.66,4.4,0,4.82l4.82.77v-4.82l-2.07.64c-2.57.79-2.26,5.17.66,4.91l4.88-.43v-5a5,5,0,0,0-2.24.43c1.89-1.74-.1-4.78-2.43-4.18l-8.46,2.19,2.82,3.67,1.14-1.87c1.56-1.8.1-4.92-2.43-4.18A17.08,17.08,0,0,0,83.29,144c-2.47,1.27-.72,5.66,1.93,4.57a49.89,49.89,0,0,0,8.38-4.34c2.31-1.51.9-5.37-1.93-4.57l-6.56,1.86c-3.1.88-1.8,5.55,1.33,4.82,4-.92,5.75-4,9.48-5.45l-2.82-3.67A25.91,25.91,0,0,1,90.32,141a2.51,2.51,0,0,0,3,3.93l7.43-3.46c2.54-1.18.73-5.58-1.93-4.57A39.51,39.51,0,0,1,90.74,139l1.93,4.57a55.84,55.84,0,0,1,13.75-5.5l-1.93-4.57A44.39,44.39,0,0,1,97.09,136l1.33,4.82a84.53,84.53,0,0,1,16.66-3l-.66-4.91a36.89,36.89,0,0,1-7.34,1.33c-3.18.24-3.23,5.19,0,5l5.19-.31L111.6,134,98,137.64c-2.86.76-2,4.68.66,4.91l12.9,1.08-.66-4.91-4.41,1.79c-2.36,1-2.41,5.19.66,4.91l3.87-.35v-5a149.88,149.88,0,0,1-20.89.78v5c2.53-.28,5-.45,7.59-.49L97,140.45l-4,.69c-2.74.48-2.14,5.27.66,4.91l45-5.83c3.13-.41,3.21-5.37,0-5l-7.08.82c-3.11.36-3.3,5,0,5a83.43,83.43,0,0,1,10.35.63v-5a247.52,247.52,0,0,1-26.5.89v5l15.41-.92c2.33-.14,3.59-3.44,1.26-4.66a30.73,30.73,0,0,0-4.88-2.06l.6,4.57a27.72,27.72,0,0,1,7.31-3c2.82-.73,2.08-4.75-.66-4.91l-24.78-1.44v5l19.38-2.45c3.11-.39,3.25-5.29,0-5l-10.84,1c-3.15.28-3.27,5.07,0,5l8.87-.2-.66-4.91L106.09,132c-2.37.41-2.4,4.44,0,4.82l21.1,3.36.66-4.91a95.36,95.36,0,0,1-18.64-1.52l-.66,4.91,16.76-1.73a2.5,2.5,0,0,0,0-5L114,130.7l.66,4.91,3.86-.86c3.19-.71,1.78-5.31-1.33-4.82L97.85,133c-3.17.5-1.82,5.32,1.33,4.82l19.31-3.06-1.33-4.82-3.86.86c-3,.66-1.95,4.62.66,4.91l11.34,1.24v-5l-16.76,1.73c-2.56.26-3.67,4.36-.66,4.91a102.18,102.18,0,0,0,20,1.7c2.7,0,3.54-4.45.66-4.91L107.42,132v4.82l20.42-3.5c2.8-.48,2.11-5-.66-4.91l-8.87.2v5l10.84-1v-5l-19.38,2.45c-3.13.4-3.3,4.81,0,5l24.78,1.44-.66-4.91a32.43,32.43,0,0,0-8.5,3.54,2.53,2.53,0,0,0,.6,4.57,14.56,14.56,0,0,1,3.69,1.55l1.26-4.66-15.41.92c-3.19.19-3.24,4.94,0,5a247.52,247.52,0,0,0,26.5-.89,2.5,2.5,0,0,0,0-5,83.43,83.43,0,0,0-10.35-.63v5l7.08-.82v-5l-45,5.83.66,4.91,4-.69c2.8-.49,2.11-5-.66-4.91-2.55,0-5.06.21-7.59.49-3.13.35-3.29,4.89,0,5a149.88,149.88,0,0,0,20.89-.78c3.15-.34,3.23-5.29,0-5l-3.87.35.66,4.91,4.41-1.79a2.51,2.51,0,0,0-.66-4.91l-12.9-1.08.66,4.91,13.62-3.61c2.67-.71,2.2-5.08-.66-4.91l-5.19.31v5a43.47,43.47,0,0,0,8.67-1.51c2.62-.74,2.23-5.13-.66-4.91a91.28,91.28,0,0,0-18,3.17c-3.1.88-1.8,5.6,1.33,4.82a52,52,0,0,0,8.59-3c2.65-1.17.73-5.25-1.93-4.57a60.87,60.87,0,0,0-14.94,6c-2.64,1.49-.72,5,1.93,4.57a39.51,39.51,0,0,0,8.11-2.15l-1.93-4.57-7.43,3.46,3,3.93a50.42,50.42,0,0,0,3.56-4.76c1.13-1.71-.78-4.49-2.82-3.67-3.36,1.34-6.11,4.67-9.48,5.45l1.33,4.82L93,144.5l-1.93-4.57a43,43,0,0,1-7.18,3.83l1.93,4.57,2.64-1L86,143.11A9.16,9.16,0,0,0,84.1,146a2.53,2.53,0,0,0,2.82,3.67l8.46-2.19L93,143.29c-4.75,4.35,1.28,8.55,5.78,8.11,3.16-.31,3.22-5.28,0-5l-4.88.43.66,4.91,2.07-.64c2.16-.67,2.59-4.41,0-4.82l-4.82-.77v4.82l11.19-4a2.51,2.51,0,0,0-.66-4.91,17.6,17.6,0,0,0-5.59.62c-2.69.72-2.19,5,.66,4.91l1.67.31v-4.82a67.12,67.12,0,0,1-14.38,4.1c-2.55.43-2.21,4.18,0,4.82l7.11,2.06.66-4.91a12.13,12.13,0,0,1-3.55-.2c-1.48-.3-2.44-1.49-3,.43s1.84,1.34,3.34,1l-2.43-.64c5.85,6.18,14.21,10.94,22.81,8,2.47-.86,2.26-3.89,0-4.82a62,62,0,0,0-10.73-3.31l-.66,4.91a12.94,12.94,0,0,0,3.4-.47c2.24-.56,2.52-4.46,0-4.82a50.15,50.15,0,0,0-9-.52c-3.21.12-3.23,5,0,5a176.52,176.52,0,0,1,38.2,4.63l1.33-4.82-15.59-2.94-.66,4.91,11,1.39v-5q-12.74-1.25-25.53-1.78c-2.81-.12-3.4,4.24-.66,4.91l29.74,7.32,1.33-4.82q-11.43-1.91-22.65-4.78l-.66,4.91q10,1.15,19.92,2.86c3.11.54,4.5-4,1.33-4.82a49.26,49.26,0,0,0-10.52-1.49c-2.78-.1-3.45,4.32-.66,4.91,4.31.92,8.59,1.88,12.83,3.09l.66-4.91q-11.58-1.49-23.23-2c-2.87-.13-3.32,4.13-.66,4.91l9.25,2.72,1.33-4.82-14.57-3.55-.66,4.91,12.49.47c2.83.11,3.38-4.2.66-4.91A177.9,177.9,0,0,0,95,150.16v5l17.83.11c3.27,0,3.15-4.7,0-5q-9.61-.9-19.26-1.16c-3.22-.09-3.22,4.91,0,5l32.71.87c3.25.09,3.17-4.74,0-5l-24.7-2v5l36.35,1.46c3.25.13,3.17-4.74,0-5l-40.06-3.25v5a108.27,108.27,0,0,0,20.06-.84c3-.47,1.87-4.61-.66-4.91l-20.88-2.5v5c15.53,1.32,31.08,2.53,46.64,1a2.5,2.5,0,0,0,0-5,262.35,262.35,0,0,0-40.31-.36c-3.18.22-3.25,5,0,5A127.61,127.61,0,0,0,125,146.27c2.89-.55,2-4.76-.66-4.91a136.74,136.74,0,0,0-19.46.32v5l15.53-1.56v-5a175.29,175.29,0,0,0-24.24,4.39c-2.71.69-2.18,5,.66,4.91a181.56,181.56,0,0,0,34.51-4.2c3-.66,1.92-4.6-.66-4.91-8.55-1-17,.14-25.53.8l.66,4.91,19.65-7.7a2.5,2.5,0,0,0-1.33-4.82,268,268,0,0,0-28.42,6.23c-2.61.72-2.21,5.29.66,4.91,11.91-1.55,24-2.26,35.37-6.43,2.47-.9,2.34-5.11-.66-4.91a186.31,186.31,0,0,0-29.91,4.4c-3.17.73-1.8,5.4,1.33,4.82a26.91,26.91,0,0,0,10.62-4.39c2.64-1.81.14-6.14-2.52-4.32Z"/><path class="cls-11" d="M132.08,126.08a25,25,0,0,1,13.51,2l-.51-3.93c-3.14,2.91-11.45,2.23-15.53,2.43-2.2.11-5.18.67-7.29-.12-1.88-.71-3.8-2.6-5.45-3.74l-1.93,4.57c12.4,3.92,25.3,5.12,38.13,6.82,6.66.88,14.56,1.48,20.26,5.39,6.26,4.3,1.83,11.58,3.09,17.77a2.51,2.51,0,0,0,4.18,1.1l.95-1.1a2.52,2.52,0,0,0-2.43-4.18c-1.89.32-6.7,2-8.57,1.35l1.75,1.75c-.69-1.78,2.65-9.06,3.23-11,.78-2.57-2.39-3.93-4.18-2.43-2.35,2-3.31,4.4-4.17,7.28l4.91.66A42.15,42.15,0,0,0,168.82,139L166,142.67a57.25,57.25,0,0,0,15.6,1.12l-2.5-2.5-1,8.4a2.5,2.5,0,0,0,2.5,2.5l1.27-.11-2.5-2.5-.42,2.12c-.74,1.59.11,3.87,2.16,3.76a7.41,7.41,0,0,0,3.7-1l-3.67-2.82-.69,2c-.79,2.31,2.57,4.34,4.18,2.43,4.67-5.53,9.45-11.24,15.45-15.39,3.09-2.13,6.2-3.25,9.65-4.58,1.92-.74,3-1.34,3.68-3.35.6-1.69-.93-3-2.41-3.16l-18.77-2.14-9.38-1.07c-1.94-.22-4.29-.91-6.23-.25-2.85,1-3.41,4-3.09,6.57.72,5.82,3.25,11.88,4.85,17.53a2.53,2.53,0,0,0,4.18,1.1,33.17,33.17,0,0,1,8.14-5l-3-3.93-5.44,5.91c-1.83,2,.59,5.62,3,3.93,3-2.1,4.75-5.51,7.41-8.07a53.42,53.42,0,0,1,11.79-8.47l-2.52-4.32-3.61,2.3a2.5,2.5,0,0,0,2.52,4.32,24.84,24.84,0,0,1,11.16-3.05v-5c-10.94,1.09-21.09-4.38-31.89-5.16l.66,4.91c4.23-1.45,7.52.75,11.58,1.55,3.31.66,6.49.81,9.67,2.05v-4.82a39.42,39.42,0,0,0-17.47,12,2.51,2.51,0,0,0,3,3.93,75.44,75.44,0,0,0,10.92-6.72l-3-3.93L189.79,139c-.81.76-2.53,3.15-3.63,3-.73-.1-3.15-4.22-3.66-5a41.23,41.23,0,0,1-3.41-7.17l-3.67,2.82c3.55,2.62,4.08,7.78,7.58,10.64,1.75,1.43,5.07.16,4.18-2.43-1.71-5-2.84-11.88-8.69-13.45-2.71-.73-4.43,3.15-1.93,4.57,3.39,1.92,2.3,7.35,7,8.27,4.13.81,9.75-4.16,13.11-6.09l-2.52-4.32q-4.78,3.5-9.5,7.08c-2.5,1.9-.16,6.19,2.52,4.32l3-2.09-3.67-2.82-1.64,2.14,4.18,1.1a33,33,0,0,0-5.77-10.25l-2.43,4.18,9.94,1.4.66-4.91a9.09,9.09,0,0,0-6.06,2.89l3.93.51-.18-1.22c.48-2.22-2.48-4.52-4.18-2.43-7.07,8.69-18.48,12.95-28.73,16.6-10.68,3.8-22.31,8.4-33.7,9-3.2.17-3.22,5.18,0,5,12.5-.68,25.12-5.57,36.79-9.84,10.49-3.84,21.94-8.35,29.18-17.25l-4.18-2.43a6.61,6.61,0,0,0,.69,5.08,2.52,2.52,0,0,0,3.93.51l2.52-1.43c2.48-.32,3.74-4.48.66-4.91l-9.94-1.4a2.52,2.52,0,0,0-2.43,4.18,25.93,25.93,0,0,1,4.48,8,2.54,2.54,0,0,0,4.18,1.1,8.52,8.52,0,0,0,2.93-4.35c.68-2-1.9-4.06-3.67-2.82l-3,2.09,2.52,4.32q4.72-3.58,9.5-7.08c2.54-1.86.33-6-2.52-4.32l-6.12,3.51c-2.17,1.24-3.18,2.57-4.76.08-1.47-2.32-1.61-4.3-4.21-5.77l-1.93,4.57c3.22.86,4.28,7.3,5.19,10l4.18-2.43c-3.82-3.12-4.48-8.39-8.59-11.42-1.72-1.27-4.41.85-3.67,2.82a46.61,46.61,0,0,0,4.84,9.81c1.3,1.95,3.13,5.1,5.36,6,5.1,2.07,11.45-6.82,14.48-9.63,2-1.89-.71-5.64-3-3.93A75.44,75.44,0,0,1,185,140.08l3,3.93a34.6,34.6,0,0,1,15.26-10.71,2.52,2.52,0,0,0,0-4.82c-4.16-1.63-8.63-1.54-12.86-2.87s-6.81-2.19-11-.74a2.51,2.51,0,0,0,.66,4.91c10.85.79,20.84,6.26,31.89,5.16,3.14-.31,3.27-5.13,0-5a30.76,30.76,0,0,0-13.68,3.73l2.52,4.32,3.61-2.3a2.5,2.5,0,0,0-2.52-4.32,60.34,60.34,0,0,0-10.3,7,52.54,52.54,0,0,0-4.86,4.69c-1.18,1.29-2.61,3.88-4,4.87l3,3.93,5.44-5.91c2-2.19-.5-5-3-3.93a37.48,37.48,0,0,0-9.15,5.8l4.18,1.1-3.54-12.49c-.34-1.18-1.82-4.56-.92-5.35.75-.65,5,.41,6,.53l26.28,3-2.41-3.16c-.06.17-5.66,1.84-6.48,2.24a41.38,41.38,0,0,0-7.52,4.91c-5.08,4.06-9.33,9-13.5,14l4.18,2.43.69-2c.75-2.19-1.86-3.76-3.67-2.82l-1.17.32,2.16,3.76a10.41,10.41,0,0,0,1.11-4.64,2.52,2.52,0,0,0-2.5-2.5l-1.27.11,2.5,2.5,1-8.4a2.51,2.51,0,0,0-2.5-2.5,51.88,51.88,0,0,1-14.27-.94,2.54,2.54,0,0,0-2.82,3.67,33.22,33.22,0,0,1,2.53,9.24c.33,2.65,4,3.57,4.91.66.62-2.08,1.15-3.63,2.88-5.08l-4.18-2.43c-1.08,3.55-2.74,7.27-3.34,10.93-.21,1.26-.35,2.48.56,3.55,2.49,3,9.54.05,12.53-.45L178,153.77l-.95,1.1,4.18,1.1c-1.25-6.17,2.82-11.88-1.67-17.48-4-5-11-6.85-17-7.95-15.46-2.83-31.2-3.27-46.29-8-2.84-.9-4.15,3-1.93,4.57s4.7,3.86,7.49,4.51c3,.69,6.61.13,9.62-.07,5.33-.34,13,.08,17.23-3.79a2.52,2.52,0,0,0-.51-3.93,29.87,29.87,0,0,0-16-2.71c-3.17.34-3.2,5.35,0,5Z"/><path class="cls-12" d="M179.94,167.06c2.91-1.77,3.62-4.87,5.4-7.66a53.7,53.7,0,0,1,8.54-10c6.94-6.6,13.57-12.3,23.22-14.12,3.16-.59,1.82-5.41-1.33-4.82-9.2,1.73-15.1,6.25-22,12.28a81,81,0,0,0-8.73,8.68,52.66,52.66,0,0,0-3.6,4.79c-1.11,1.67-2.36,5.49-4,6.51-2.74,1.67-.23,6,2.52,4.32Z"/><path class="cls-12" d="M80.63,151.9c14.44,7.73,31.35,9.86,47.25,12.86A172.11,172.11,0,0,0,180.3,167c3.16-.37,3.19-5.38,0-5a167.7,167.7,0,0,1-51.09-2.08c-15.4-2.9-32.07-4.87-46.05-12.36-2.84-1.52-5.36,2.8-2.52,4.32Z"/><path class="cls-12" d="M112.89,162.53c5.29,3.18,12.38,3.12,18.35,3.95,3.15.44,4.51-4.38,1.33-4.82-5.36-.74-12.43-.61-17.16-3.45-2.77-1.66-5.28,2.66-2.52,4.32Z"/><path class="cls-12" d="M199.9,144.55c4.45-2.86,8.91-6.4,14.12-7.69,3.12-.77,1.8-5.59-1.33-4.82-5.67,1.4-10.47,5.08-15.31,8.19-2.7,1.73-.19,6.06,2.52,4.32Z"/><path class="cls-12" d="M136.5,161.43c-1.63.17-3.25-1.28-5-1.2a3,3,0,0,0-2.75,4c.7,1.89,2.61,2.11,4.36,2.34a36.77,36.77,0,0,0,6.3.29c3.21-.13,3.22-5.13,0-5a36.08,36.08,0,0,1-3.78,0c-.63,0-1.26-.09-1.88-.18l-.58-.09q-1.29-.38,0,.44l.25,1.93.13-.34-1.15,1.49.33-.19-1.26.34c1.72-.07,3.17,1.39,5,1.2a2.57,2.57,0,0,0,2.5-2.5,2.52,2.52,0,0,0-2.5-2.5Z"/><path class="cls-13" d="M87.06,141.73c.32,4.88,0,9.34,3.18,13.39.49.63,1.37-.26.88-.88-2.91-3.73-2.52-8.06-2.81-12.51-.05-.8-1.3-.8-1.25,0Z"/><path class="cls-13" d="M94.9,136.13a94.68,94.68,0,0,0,4,21.37c.24.77,1.45.44,1.21-.33a93.25,93.25,0,0,1-4-21c-.06-.8-1.31-.8-1.25,0Z"/><path class="cls-13" d="M102.94,129.64a58.08,58.08,0,0,0,9,32c.43.68,1.51.05,1.08-.63a56.82,56.82,0,0,1-8.82-31.38.63.63,0,0,0-1.25,0Z"/><path class="cls-13" d="M110.43,125.5a70.78,70.78,0,0,0,13,38.22c.46.65,1.55,0,1.08-.63a69.57,69.57,0,0,1-12.82-37.59c0-.8-1.28-.81-1.25,0Z"/><path class="cls-13" d="M122,123.65c.11,14.39,6.5,29,11.94,42.13.3.73,1.51.41,1.21-.33-5.38-12.94-11.79-27.6-11.9-41.8a.63.63,0,0,0-1.25,0Z"/><path class="cls-13" d="M135.49,123.75c-.8,15.73,7.09,29.34,13.56,43.11.34.73,1.42.09,1.08-.63-6.38-13.59-14.18-27-13.39-42.48,0-.8-1.21-.8-1.25,0Z"/><path class="cls-13" d="M147.2,122.94c2.25,15.43,8.83,29.51,15.53,43.43.35.72,1.43.09,1.08-.63-6.65-13.83-13.17-27.81-15.4-43.13-.12-.79-1.32-.46-1.21.33Z"/><path class="cls-13" d="M160.51,124.57c4.34,14.19,10.68,27.59,17.09,40.94.35.72,1.43.09,1.08-.63-6.36-13.25-12.65-26.55-17-40.64-.23-.77-1.44-.44-1.21.33Z"/><path class="cls-13" d="M173.07,124.86a199.47,199.47,0,0,0,12.82,31.52c.37.72,1.44.08,1.08-.63a197.59,197.59,0,0,1-12.69-31.22c-.24-.77-1.44-.44-1.21.33Z"/><path class="cls-13" d="M183.58,126.68A66.16,66.16,0,0,0,193,149c.44.67,1.52,0,1.08-.63a65.2,65.2,0,0,1-9.26-22.05c-.17-.79-1.38-.45-1.21.33Z"/><path class="cls-13" d="M192.84,128c1.66,5.26,2.7,11.67,6.14,16.11.49.63,1.37-.26.88-.88-3.22-4.15-4.26-10.61-5.82-15.56-.24-.76-1.45-.44-1.21.33Z"/><path class="cls-13" d="M202.34,129a34.46,34.46,0,0,0,3.53,10.5c.38.71,1.46.08,1.08-.63a33.38,33.38,0,0,1-3.41-10.2c-.13-.79-1.34-.46-1.21.33Z"/><path class="cls-13" d="M209.51,130.88a15.79,15.79,0,0,0,2.17,5.2c.43.67,1.52,0,1.08-.63a14.77,14.77,0,0,1-2-4.9c-.17-.79-1.38-.45-1.21.33Z"/><path class="cls-13" d="M104.63,129.57a88.26,88.26,0,0,1,18.52-5.6c.79-.15.46-1.35-.33-1.21A89.62,89.62,0,0,0,104,128.49c-.74.32-.1,1.39.63,1.08Z"/><path class="cls-13" d="M89.47,140.53c4.09-3,8.8-4.24,13.45-6,4.38-1.67,8.57-3.79,13-5.31,9.71-3.32,19.95-4.55,30.14-5.34.8-.06.8-1.31,0-1.25-10.29.8-20.65,2-30.47,5.39-4.7,1.61-9.14,3.88-13.8,5.6s-9,3-13,5.86c-.65.47,0,1.55.63,1.08Z"/><path class="cls-13" d="M80.93,149.45c14-5.57,27.82-10.53,42.6-13.46,15-3,29.62-7.22,44.33-11.49a.63.63,0,0,0-.33-1.21c-14.71,4.27-29.3,8.5-44.33,11.49-14.77,2.94-28.64,7.9-42.6,13.46-.74.29-.42,1.5.33,1.21Z"/><path class="cls-13" d="M94.52,156.59c17-3.11,33.83-7.51,50.52-12,13.21-3.58,28.19-7,38-17.29.55-.58-.33-1.47-.88-.88-10.4,11-27,14.25-41.1,18-15.5,4.09-31,8.17-46.83,11-.79.14-.46,1.35.33,1.21Z"/><path class="cls-13" d="M123.87,164c14.48-5.27,29.75-7.67,44.43-12.27,14.44-4.53,26.28-12.23,38.1-21.52.63-.5-.26-1.38-.88-.88-12.69,10-25.25,17.67-40.86,22.2-13.66,4-27.72,6.4-41.11,11.28-.75.27-.43,1.48.33,1.21Z"/><path class="cls-13" d="M148.59,167.28a198.34,198.34,0,0,0,38.93-12.68c.73-.32.1-1.4-.63-1.08a196.8,196.8,0,0,1-38.63,12.55c-.79.17-.45,1.37.33,1.21Z"/><path class="cls-14" d="M114,182.21c15.61,2.27,30.94,5,46.77,4.58,3.21-.08,3.22-5.08,0-5-15.38.4-30.27-2.2-45.44-4.4-3.15-.46-4.51,4.36-1.33,4.82Z"/><path class="cls-15" d="M158.67,187.42c5.45-2.55,11.59-1.19,17.38-2.23a43.38,43.38,0,0,0,15.9-6.62c2.69-1.75.19-6.08-2.52-4.32-5.76,3.74-12.12,6.32-19.06,6.56-5.18.18-9.44.05-14.22,2.29-2.91,1.36-.38,5.67,2.52,4.32Z"/><path class="cls-16" d="M87.55,155a5.92,5.92,0,0,0-3.24.94l3.76,2.16-1.11,1-1.77-.73.23.2-.64-1.1.09.31v-1.33q.44-.51,0,0a6.4,6.4,0,0,0-.57.62,10.09,10.09,0,0,0-.87,1.19,9.12,9.12,0,0,0-1.13,2.94,2.52,2.52,0,0,0,1.45,2.95,2.49,2.49,0,0,0,3.12-1c1-1.95,3.13-2.75,5.09-3.45a2.56,2.56,0,0,0,1.75-3.08,2.52,2.52,0,0,0-3.08-1.75c-3.17,1.12-6.45,2.6-8.08,5.74l4.57,1.93a5.2,5.2,0,0,1,1.52-2.77,3.51,3.51,0,0,0,.74-4.17c-1.92-3.29-6.4-.59-6.28,2.54a2.52,2.52,0,0,0,3.76,2.16c.37-.24.35-.25.72-.25,3.22,0,3.22-5,0-5Z"/><path class="cls-17" d="M88.43,171.15c8.18,4.1,16.31,8.84,25.24,11.09,3.12.79,4.45-4,1.33-4.82-8.5-2.14-16.25-6.69-24-10.59-2.87-1.44-5.4,2.87-2.52,4.32Z"/><path class="cls-18" d="M112.56,165l6.26.27c2.41.11,2.41-3.64,0-3.75l-6.26-.27c-2.41-.11-2.41,3.64,0,3.75Z"/><g class="cls-19"><path class="cls-16" d="M80.78,155q6.95,2.67,14,5.09l.66-4.91c-5.22-.48-9.74-3-14.2-5.57-2.43-1.39-5.12,1.93-3,3.93A3.46,3.46,0,0,1,79.66,157l4.91-.66a9.3,9.3,0,0,0-1.19-2.55c-1.06-1.62-4.2-1.67-4.57.6-.74,4.51,1.88,11.63,4.84,15.1,1.8,2.1,4.12,3.08,6.67,4,2.81,1,5.33,2.73,8.38,2.65,3.21-.08,3.22-5.08,0-5-1.78,0-3.5-1.18-5.11-1.8-2.08-.8-4.43-1.17-6-2.88s-4.37-8.08-3.94-10.72l-4.57.6.69,1.35c.87,2.62,4.89,2.24,4.91-.66A8.91,8.91,0,0,0,81.73,150l-3,3.93c5.32,3,10.54,5.69,16.72,6.26,2.95.27,3.19-4,.66-4.91q-7-2.42-14-5.09c-3-1.16-4.31,3.68-1.33,4.82Z"/><path class="cls-20" d="M95.51,160.56c5.24,1.18,10.34,2.91,15.46,4.5,3.08,1,4.4-3.87,1.33-4.82-5.12-1.59-10.23-3.31-15.46-4.5-3.13-.71-4.47,4.11-1.33,4.82Z"/><path class="cls-20" d="M81.47,155.64a65.05,65.05,0,0,0,5.2,14.89L91,168a48,48,0,0,1-6-10.51c-1.2-2.94-6-1.65-4.82,1.33a52.75,52.75,0,0,0,6.5,11.7A2.5,2.5,0,0,0,91,168a59.64,59.64,0,0,1-4.69-13.69c-.68-3.14-5.5-1.81-4.82,1.33Z"/></g><path class="cls-8" d="M186.19,156.66a30.4,30.4,0,0,1-.63,15,.63.63,0,0,0,1.21.33,31.78,31.78,0,0,0,.63-15.71c-.16-.79-1.37-.45-1.21.33Z"/><path class="cls-8" d="M193.16,149.78a37.43,37.43,0,0,1-.4,14.34c-.17.78,1,1.12,1.21.33a39.2,39.2,0,0,0,.4-15c-.13-.79-1.34-.46-1.21.33Z"/><path class="cls-8" d="M199.08,144.38a37.43,37.43,0,0,1-.4,14.34c-.17.78,1,1.12,1.21.33a39.2,39.2,0,0,0,.4-15c-.13-.79-1.34-.46-1.21.33Z"/><path class="cls-8" d="M205.71,139.4a33,33,0,0,1-1.76,14.78c-.27.76.94,1.09,1.21.33A33.69,33.69,0,0,0,207,139.4c-.08-.79-1.33-.8-1.25,0Z"/><path class="cls-8" d="M211.38,136.74a31,31,0,0,1-.66,14,.63.63,0,0,0,1.21.33,32.56,32.56,0,0,0,.66-14.63c-.14-.79-1.35-.46-1.21.33Z"/><path class="cls-21" d="M79.74,151.48c30.75,14.44,67.29,20.17,101,15,1.59-.25.91-2.65-.66-2.41-33,5.1-68.93-.57-99-14.71-1.45-.68-2.72,1.47-1.26,2.16Z"/><path class="cls-21" d="M110.78,122.83C99,129.91,88,138.08,78.83,148.29c-1.08,1.19.69,3,1.77,1.77C89.68,140,100.48,132,112,125a1.25,1.25,0,0,0-1.26-2.16Z"/><path class="cls-21" d="M111.6,125.16A304.27,304.27,0,0,1,219,133.89a1.25,1.25,0,0,0,.66-2.41,306.29,306.29,0,0,0-108-8.81c-1.59.16-1.6,2.66,0,2.5Z"/><path class="cls-21" d="M181.41,165.56a67.34,67.34,0,0,1,38.38-31c1.53-.48.88-2.89-.66-2.41a70,70,0,0,0-39.87,32.13,1.25,1.25,0,0,0,2.16,1.26Z"/><path class="cls-21" d="M78.16,149.4c-.4,8.26.2,16.78,7.68,21.79,8.74,5.86,20.7,8.82,30.82,11.18a155.47,155.47,0,0,0,65.49,1.1c1.58-.31.91-2.72-.66-2.41a152.2,152.2,0,0,1-59,0,149.25,149.25,0,0,1-27-8c-5.69-2.3-11.59-4.71-13.81-11-1.44-4-1.24-8.49-1-12.71.08-1.61-2.42-1.6-2.5,0Z"/><path class="cls-21" d="M181,183.74c5-1,8.82-3.9,12.41-7.37,5.13-5,10-10.26,14.91-15.39,7.1-7.35,16.36-15.76,13-27.06a1.25,1.25,0,0,0-2.41.66c3.34,11.34-8.11,20.19-15.06,27.39-6.53,6.76-13.83,17.4-23.55,19.35-1.58.32-.91,2.73.66,2.41Z"/></svg>