<svg id="圖層_1" data-name="圖層 1" xmlns="http://www.w3.org/2000/svg" viewBox="0 0 300 300"><defs><style>.cls-1{fill:#f5b81b;}.cls-2{fill:#06143f;}.cls-3{fill:#f7f8f8;stroke:#4c4948;}.cls-3,.cls-5{stroke-miterlimit:10;}.cls-4{fill:#e6e6e6;}.cls-5{fill:none;stroke:#f5b81b;stroke-width:2px;}.cls-6{fill:#d1b369;}.cls-7{fill:#ecf1bd;}.cls-8{fill:#ee9f29;}.cls-9{fill:#e98028;}.cls-10{fill:#040000;}.cls-11{fill:#6d401e;}.cls-12{fill:#eb8e29;}.cls-13{fill:#ea8629;}.cls-14{fill:#d8cca1;}</style></defs><title>毛蟹03</title><ellipse class="cls-1" cx="149.98" cy="146.83" rx="149.13" ry="80.6"/><ellipse class="cls-2" cx="150.21" cy="145.52" rx="147.21" ry="77.72"/><ellipse class="cls-3" cx="150.24" cy="153.28" rx="106.86" ry="58.69"/><ellipse class="cls-4" cx="150.24" cy="157.89" rx="98.9" ry="54.55"/><ellipse class="cls-5" cx="150.3" cy="153.34" rx="106.42" ry="58.99"/><ellipse class="cls-6" cx="152.47" cy="151.9" rx="112.27" ry="59.66"/><path class="cls-7" d="M132.37,107.34c-5.45,2.6-11.3,4.8-15.45,9.36l3.82,3.82a25.78,25.78,0,0,1,11.95-8c7-2.13,10.56,1,13.23,7.25l4.66-2.72c-1.69-3.29-4.41-9.2-8.86-8.77-2.5.25-5.29,2.2-7.54,3.22l-11.52,5.23c-2.07.94-1.41,3.57,0,4.66a34.66,34.66,0,0,0,7.06,4.22c1.7.77,4.21-.09,4.06-2.33a17.61,17.61,0,0,1,.8-6.78l-4.51,1.19,1,3.16,5.3-.72q3.62-1.86,6.45.29c2.83,1.56,5.11-1.92,3.27-4.24-4-5.05-10.75-5-16.64-4-4.48.79-8.86,4.09-6.84,9.1l2.6-3.41-2.6-.65.42,3.27c1.14-1.67.52-4.31,1.23-5.35,1.39-2,8.38-3.9,10.75-5s3.82-2.37,6.49-.68c1.45.92,2.37,2.93,3.31,4.35a61.39,61.39,0,0,0,5.94,8.1c2.38,2.54,6.19-1.28,3.82-3.82-4.21-4.5-9-17.85-17-15a99.74,99.74,0,0,0-15.7,7.1,6.7,6.7,0,0,0-3.29,3.2c-.49,1.32.54,3.27-.17,4.31a2.7,2.7,0,0,0,.42,3.27,8.05,8.05,0,0,0,6.42,2.23c1.55-.13,3.31-1.65,2.6-3.41-1.05-2.6,6.65-2.84,7.79-2.81,2.77.08,4.9.73,6.67,3l3.27-4.24c-3.23-1.78-7.17-3.63-10.81-1.77-3.06,1.56-4,4.37-3.57,7.57s5.13,2.15,5.3-.72a8.62,8.62,0,0,0-2.6-7,2.72,2.72,0,0,0-4.51,1.19,21.28,21.28,0,0,0-1,8.22l4.06-2.33a34.66,34.66,0,0,1-7.06-4.22v4.66l12.48-5.66,2.88-1.31q1.22-1.8,1.94.15c1.44.93,2.48,3.74,3.24,5.2,1.62,3.16,6,.38,4.66-2.72-2.87-6.74-7.17-11.67-14.87-10.67a30.33,30.33,0,0,0-18.78,10.29c-2.28,2.59,1.47,6.4,3.82,3.82,3.78-4.16,9.39-6.14,14.36-8.52,3.13-1.5.4-6.15-2.72-4.66Z"/><path class="cls-7" d="M152.27,115.29a117.75,117.75,0,0,1,7.08,13c1.49,3.18,6,.4,4.66-2.72-1.58-3.71-4.13-7.9-4.84-11.87l-.69,2.62c1.09-1.13,8-.78,9.54-.91,3.4-.28,6.8-.53,10.21-.7,4.06-.2,5.85.92,6.06,5.33a21.84,21.84,0,0,1-2.7,11.18l3-1.24c-3.83-.82-7.22-3.59-10.49-5.64-3.58-2.24-7.32-4.22-9.34-8.11l-2.33,4.06c6.76-.52,14.39-2.12,21.14-1.53l-2.33-1.34-.11-1.62,3.69,1v-.37l-4.93-.64a37.07,37.07,0,0,1,.66,9.47l4.61-1.91a6.5,6.5,0,0,1-1.72-4.61l-5.3.72,1.72,9.4,4-3a31.62,31.62,0,0,1-8.14-7.82,2.7,2.7,0,0,0-4.66,2.72l3.14,6.5c1.31,2.72,6.06.78,4.93-2.08q-1.58-2.75.88-5.2c2.06-2.12-.66-6-3.27-4.24-6.09,4.19-15.86-1.42-22-3.61-2.09-.74-3.68,1.47-3.32,3.32.84,4.24.55,11.6,5.14,13.55,6.34,2.7,13.8,3.92,20.44,5.78,2.44.69,4.78-2.74,2.62-4.51a66.71,66.71,0,0,0-15.72-9.69,2.71,2.71,0,0,0-3.27,4.24,9.38,9.38,0,0,0,5.95,3.47c2.06.36,4.54-1.85,3-4-3.47-4.88-9.14-7.38-12.57-12.21l-2.33,4.06a98.56,98.56,0,0,1,17.81,1c3.4.52,4.86-4.68,1.43-5.2a106.48,106.48,0,0,0-19.24-1.23c-1.89.05-3.57,2.31-2.33,4.06,3.47,4.88,9.14,7.38,12.57,12.21l3-4a4,4,0,0,1-3.57-2.08l-3.27,4.24A62,62,0,0,1,175.84,134l2.62-4.51-15.09-4.23-3-.85q-2.55.19-2.12-2.44c-1-2.2-1.11-5.64-1.59-8l-3.32,3.32c8,2.85,18.14,8.57,26.15,3.06l-3.27-4.24a9.36,9.36,0,0,0-2.26,10.45l4.93-2.08-3.14-6.5-4.66,2.72a39.43,39.43,0,0,0,10.08,9.76c2.13,1.43,4.35-.92,4-3L183.4,118c-.55-3-5.46-2.31-5.3.72a13.63,13.63,0,0,0,3.3,8.43c1.58,2,4.5.21,4.61-1.91a42.62,42.62,0,0,0-.85-10.91,2.72,2.72,0,0,0-4.93-.64,5.68,5.68,0,0,0,0,5.82,2.73,2.73,0,0,0,3.69,1c2.72-1.63,4.23-5.4.43-7-2.29-1-7.17.3-9.54.48l-12.31.95a2.73,2.73,0,0,0-2.33,4.06c2.17,4.18,5.78,6.59,9.67,9,4.18,2.63,8.46,6.13,13.38,7.18a2.76,2.76,0,0,0,3-1.24c3-5.7,4.53-12.57,2.81-18.94s-7.33-5.91-12.88-5.58q-6.13.36-12.24.94c-2.48.24-6.69-.17-8.79,1.61-1.31,1.11-1.38,2.42-1,4,.91,4.11,3.6,8.46,5.23,12.31l4.66-2.72a117.75,117.75,0,0,0-7.08-13c-1.85-2.93-6.52-.23-4.66,2.72Z"/><path class="cls-7" d="M181.67,193.06a17.26,17.26,0,0,0,1.5,3.86c1.65,3.14,6,.38,4.66-2.72l-1.61-3.72-3,4a61.24,61.24,0,0,1,7.12,1.45c1,.28,5.78,1.13,6.24,2.2v-2.72c-.43.7-4.71-1.35-5.36-1.55a42.19,42.19,0,0,0-6.24-1.26c-2.33-.36-5,2.59-2.62,4.51a32.06,32.06,0,0,1,2.92,2.72l3.27-4.24c-1-.72-4.45-2.28-4.28-3.88l-5.3.72a16.12,16.12,0,0,1,.17,3.86,2.62,2.62,0,0,0,1.34,2.33c4.06,1.81,8.38,2,12.55,3.33,3,1,6.12,2,7.37-1.87,1.06-3.32-4.15-4.74-5.2-1.43l-.22.69,1.24-1.61-.7.34,2.08-.27c-2.2-.33-4.32-1.44-6.55-1.87a35.46,35.46,0,0,1-7.84-1.95l1.34,2.33a22.77,22.77,0,0,0-.36-5.3c-.56-3.24-5-2.05-5.3.72-.47,4.29,4,6.46,7,8.54,2.58,1.81,5.31-2.08,3.27-4.24a32.06,32.06,0,0,0-2.92-2.72l-2.62,4.51a42,42,0,0,1,6.24,1.26c1.79.56,3.45,1.51,5.33,1.73,2.4.28,5.72-.59,6.39-3.3.74-3-2.39-4.24-4.56-5.07a58.44,58.44,0,0,0-12.3-3.14,2.74,2.74,0,0,0-3,4l1.61,3.72,4.66-2.72a7.41,7.41,0,0,1-1-2.57c-.86-3.36-6.06-1.94-5.2,1.43Z"/><path class="cls-6" d="M176.32,199.38c4.1,2.6,9.69,1,14.22.54,6.26-.67,12.49-1.51,18.71-2.45L206.62,193c-2.12,2.13-8.61,1.94-11.44,2.11a62.16,62.16,0,0,1-11.76-.55c-3-.39-3.69,4.73-.72,5.3a90.52,90.52,0,0,0,19.37,1.11l-1.91-4.61c-4.21,4.24-10,3.68-15.49,3.16v5.4a98,98,0,0,1,13.25-.41c3.47.13,3.47-5.27,0-5.4a98,98,0,0,0-13.25.41,2.7,2.7,0,0,0,0,5.4c7.07.66,14,.59,19.3-4.74a2.73,2.73,0,0,0-1.91-4.61c-6,.15-12,.22-17.94-.91l-.72,5.3a62.89,62.89,0,0,0,16,.16c3.56-.44,8.32-.61,11-3.29,2.06-2.07-.11-4.89-2.62-4.51-5.08.77-10.17,1.46-15.28,2-3.65.41-10.29,2.46-13.5.42-2.94-1.86-5.65,2.8-2.72,4.66Z"/><path class="cls-6" d="M91.08,185.87c26.05,6.32,52.71,12.54,79.66,9.05l-.72-5.3c-9.83,2.47-21.27,1.46-31.32.77a212.38,212.38,0,0,1-32.34-4.84c-3.38-.77-4.78,4.22-1.43,5.2,16.9,5,34.45,6.16,51.95,7.21,3.47.21,3.45-5.16,0-5.4L116,189.8v5.4l79.31-7.37-1.36-5c-5.49,2.42-12.45,2.29-18.35,3l-17.54,2a2.7,2.7,0,0,0,0,5.4c6.95.65,14-.78,20.91-1.61l22.34-2.69c2.7-.33,4-4.79.72-5.3a38,38,0,0,0-12.43.09l3,4A5.4,5.4,0,0,1,198,185.3l-.72-5.3c-17.73,3.21-35.08,7.2-53.2,5.59-8.92-.79-17.78-2.22-26.73-2.67s-17,.72-25.63-2.44l-.72,5.3a474.13,474.13,0,0,0,56.44,3.06q13.62-.09,27.21-1c8.6-.56,18.72-.2,26.84-3.35a2.71,2.71,0,0,0-.72-5.3c-15.23-1.49-29.56,4.2-44.48,6-15.68,1.91-31.55.27-47.19-1.3-3.45-.35-3.43,5.05,0,5.4,15.66,1.57,31.48,3.14,47.19,1.3,14.91-1.75,29.3-7.5,44.48-6l-.72-5.3c-8.21,3.19-18.75,2.76-27.49,3.29q-13.59.82-27.22.85A476.18,476.18,0,0,1,91,180.38c-3.22-.36-3.37,4.32-.72,5.3,8.47,3.12,16.17,2.25,25,2.54,9.65.32,19.19,1.92,28.79,2.76,18.6,1.63,36.43-2.49,54.63-5.78,3.09-.56,2.21-5.2-.72-5.3-4.33-.15-7.43,1.6-10,5-1.6,2.09,1,4.3,3,4a29.2,29.2,0,0,1,9.57-.09l.72-5.3L179,186.14c-6.88.83-14,2.26-20.91,1.61v5.4l21.66-2.47c5.75-.66,11.6-.87,16.94-3.22,2.42-1.07,1.23-5.27-1.36-5L116,189.8a2.7,2.7,0,0,0,0,5.4L156.88,198v-5.4c-17-1-34.07-2.17-50.52-7l-1.43,5.2a222,222,0,0,0,33.78,5c10.6.73,22.36,1.65,32.75-1,2.86-.72,2.36-5.7-.72-5.3-26.51,3.43-52.59-2.64-78.22-8.86-3.37-.82-4.81,4.38-1.43,5.2Z"/><path class="cls-8" d="M104.3,113.88a1.81,1.81,0,0,1,1.34,1.09,2.7,2.7,0,1,0-5.05,1.89,4,4,0,0,0,2.75,2.33,2.71,2.71,0,0,0,2-.46,2.75,2.75,0,0,0,1.09-1.72,2.78,2.78,0,0,0-2.17-3.14Z"/><path class="cls-8" d="M103.31,115.32a2.83,2.83,0,0,1-1.16-.53,3.73,3.73,0,0,0-2.36-.86A2,2,0,0,0,98,115.54c-.22,2.06,1.16,3.72,2.46,5.18a2,2,0,0,0,2.75.47,2,2,0,0,0,.47-2.75c-.41-.45-.8-.92-1.16-1.41-.15-.21-.31-.42-.45-.64s-.06-.26-.14-.21q-.16-.51,0,.08l-1.76,1.61h.22l-1-.18a14.41,14.41,0,0,1,1.39.88,6.87,6.87,0,0,0,1.86.64c2.49.51,3.19-3.37.71-3.88Z"/><path class="cls-9" d="M136.92,134.65l.76.42a2,2,0,0,0,2.8-2c-.07-1.37.38-2.57-.26-3.86s-2.47-2.55-3.65-3.42a35.38,35.38,0,0,0-9.8-5.1,79,79,0,0,0-11.9-2.69c-3.14-.54-6.8-1.76-9.77,0-1.67,1-3.26,2.78-2.47,4.76,1,2.49,5.16,3.34,7.44,4a48.08,48.08,0,0,0,6.14,1.15c2,.35,3.84,1.18,5.8,1.65,4.3,1,9,.79,12.47,3.86a2,2,0,0,0,2.87-2.65c-2.65-3.56-6.67-7.14-11.07-8.2-5.94-1.43-12.79-1.39-18.28-4.3-2.25-1.19-3.92,2.38-1.68,3.57,4.17,2.2,9.32,2.85,13.91,3.69,2.37.44,5,.51,7.21,1.62a21.33,21.33,0,0,1,6.7,5.91l2.87-2.65c-3.57-3.11-7.9-3.53-12.39-4.34-2.89-.52-5.56-1.67-8.46-2.14s-6-.85-8.64-2.32q-2.19-.66-.6-.51l2.94,0c1.42.13,2.9.49,4.3.73,2.71.46,5.44.91,8.11,1.58,4.94,1.25,14,4,14.28,10l2.8-2-.76-.42c-2.23-1.23-3.89,2.35-1.68,3.57Z"/><path class="cls-9" d="M138.65,134a62.59,62.59,0,0,0-16.15-5.49c-3-.66-6-1.22-9-1.88-2.41-.54-7.08-.91-8.94-2.45-2.69-2.23-.77-5.89,2.65-6.61,1.52-.32,3.74.21,5.28.51A72.23,72.23,0,0,1,122.8,121a82,82,0,0,1,18.11,9.13c1,.7,2.32-.81,1.26-1.51a84.19,84.19,0,0,0-22.69-10.76c-4.65-1.39-15.13-5.18-17.68,1.39-2.63,6.78,4.72,7.81,9.45,8.94,9,2.14,18.25,3.26,26.55,7.66,1.12.6,2-1.19.84-1.78Z"/><path class="cls-9" d="M94.72,112.27a53.38,53.38,0,0,1-7.45-14.89,61.68,61.68,0,0,1-2.11-7.89c-.19-1-.83-4.46,0-5,1.44-.93,3.29.84,4.3,1.64,4.07,3.22,6.7,8,8.23,12.87a65.37,65.37,0,0,1,2,9.22,26.3,26.3,0,0,1,.47,3.5c.08,3.2-2.89,3.83-5.58,2.94-1.19-.4-2,1.38-.84,1.78,2.35.78,5.39,1.69,7.32-.48s.9-6.1.48-8.6c-1.36-8.11-3.65-16.27-9.95-22-1.3-1.18-4.53-4.13-6.5-3.5-2.51.81-2.42,4.6-2.17,6.63a56.08,56.08,0,0,0,10.11,24.93,1,1,0,0,0,1.61-1.14Z"/><path class="cls-9" d="M85.82,82.5c-1.07-2.22,1.91-3.5,3.52-4a13.46,13.46,0,0,1,5.75-.4l.09-2c-3.69.57-6.83,2.64-8,6.29-.39,1.19,1.39,2,1.78.84a7.53,7.53,0,0,1,6.42-5.17c1-.16,1.26-1.81.09-2-3.58-.42-14.39,1-11.47,7,.54,1.13,2.4.46,1.85-.69Z"/><path class="cls-9" d="M101.66,120.46a18.78,18.78,0,0,1-5-5.14c-.7-1.06-2.31.08-1.61,1.14a20.24,20.24,0,0,0,5.37,5.51c1,.72,2.31-.79,1.26-1.51Z"/><path class="cls-9" d="M106.26,113.24a8.31,8.31,0,0,1-3.42-1.87c-1.91-1.64-2.92.55-1,2.2a13.49,13.49,0,0,0,5.75,3.11c.78.17,1.07-.66.73-1.53a3.18,3.18,0,0,0-2.07-1.9Z"/><path class="cls-9" d="M96.29,112.35l-1.19-2.17c-.85-1.54-3.27-.76-3.55.79a4.83,4.83,0,0,0,1.82,5c1.21,1,3.56.05,3.23-1.69a19.7,19.7,0,0,0-4.19-9.12,2,2,0,0,0-3.57,1.32,15.21,15.21,0,0,0,2.35,7.6c1.14,1.88,4.47.17,3.45-1.83-3.07-6.06-4.79-12.86-7-19.25a12,12,0,0,1-.82-3.19q-1-3.17.73-1.2c1.37,1,2.43,2.89,3.35,4.26,2.07,3.11,4,6.19,4.39,10a19.56,19.56,0,0,0,.37,3.6c.22.77,1.06,4.19,1.49,3.46,1.28-2.14-.39-6.43-1.05-8.5-1-3-1.14-6.46-2.61-9.23-1.25-2.35-3.36-3.84-5.56-5.23-1.49-.94-3.29,1-2.69,2.47q3.68,9,6.6,18.24c.76,2.42,4.46,1,3.69-1.38Q92.6,97,88.92,88l-2.69,2.47c3.44,2.17,4.08,4.4,5,8.27.65,2.76,2.12,5.52,2.22,8.37s-1.28,7.72,3.16,8.23c3.18.36,4.45-3.56,4.3-6.1-.13-2.14-1.41-4-1.66-6.17a20.2,20.2,0,0,0-1.63-6.63c-1.33-2.83-10.12-18.41-14-11.08-2,3.8.11,8.34,1.56,11.88,2.22,5.39,3.11,11.06,5.78,16.32l3.45-1.83a11,11,0,0,1-1.64-5.67l-3.57,1.32a15.62,15.62,0,0,1,3.47,7.19l3.23-1.69-.47-1.26-3.55.79,1.19,2.17c1.22,2.22,4.43-.08,3.21-2.28Z"/><path class="cls-9" d="M87.15,82.19c.88-1.29,1.85-2.78,3.6-2.74,1.27,0,1.08-1.94-.17-2-2.27-.05-3.77,1.72-4.93,3.44-.71,1,.8,2.31,1.51,1.26Z"/><path class="cls-9" d="M84.73,87.83a8.41,8.41,0,0,0,.62-2.74,16.28,16.28,0,0,1,.08-3.23c.3-1.24-1.64-1.58-1.94-.35-.45,1.84.17,3.66-.54,5.48-.46,1.18,1.32,2,1.78.84Z"/><path class="cls-10" d="M138.3,136.73a2.66,2.66,0,0,0,2.23-1.65,6,6,0,0,0,.44-1.89c.16-1.29.71-1.67,1.68-2.5,2.57-2.2-2.09-4.28-3.54-5.25-1-.67-2.22.77-1.21,1.45s1.88,1.23,2.8,1.87c1.22.85.05.69-.67,1.46-.87.93-.64,4.49-1.89,4.63a.94.94,0,0,0,.17,1.88Z"/><path class="cls-10" d="M138.18,135a80.84,80.84,0,0,0-15.27-5c-3.39-.74-20.94-3.07-19.43-8.36.33-1.17-1.53-1.5-1.86-.34-1.56,5.45,5.09,6.67,9,7.74,9,2.51,18.13,3.83,26.8,7.63,1.11.49,1.92-1.22.8-1.71Z"/><path class="cls-10" d="M138.74,125.35c-9.8-5.06-19.85-9.61-31-10.12-1.2-.05-1.55,1.8-.34,1.86,11,.5,20.91,5,30.56,10,1.08.56,1.88-1.15.8-1.71Z"/><path class="cls-11" d="M94.29,76.56c-2.69-.87-5.43,2.18-7.32,3.73l1.27,1.38c1-1,2-1.86,3.11-2.74.78-.64.16-2.12-.88-1.65l-6.2,2.79c-.91.41-.7,2,.41,1.83a11.89,11.89,0,0,1,2.46-.41l-.85-.39a4.69,4.69,0,0,0-.13,1.06l1.87.09A1.72,1.72,0,1,0,84.6,82l1.7-.38a1.69,1.69,0,0,0-2.19-.94c-1,.52-1,2-1,3a1,1,0,0,0,1.87.09l.7-.94-1.32-.22.17.39c.15,1,1.76,1.21,1.87.09.07-.72,2-1.42,2.54-1.72,1.06-.6,0-2.13-1.09-1.54-1.25.71-3.15,1.29-3.31,2.92l1.87.09a2.59,2.59,0,0,0-.51-1.31,1,1,0,0,0-1.32-.22,3.23,3.23,0,0,0-1.46,2.14l1.87.09q.44-.86-.21-1-.46-.27,0,.22c.41.73,1.56.37,1.7-.38l-.31.08c0,1.05,1.78,1.15,1.87.09.25-3.07-.6-3-3.5-2.48l.41,1.83L91.13,79l-.88-1.65c-1.19,1-2.34,2-3.47,3.07-.78.73.44,2.05,1.27,1.38s4.11-4,5.43-3.56c1.14.37,2-1.34.8-1.71Z"/><path class="cls-10" d="M107.31,115.19a7.77,7.77,0,0,0-4.19,2.83,6,6,0,0,0-1.91,4.49.94.94,0,0,0,1.88-.17,4.23,4.23,0,0,1,1.48-3.12c.78-.85,1.71-1.94,2.91-2.16s1-2.1-.17-1.88Z"/><path class="cls-10" d="M101.36,121.13c-2.54.51-4-2-5-3.9-.56-1.06-2.33-.42-1.77.66,1.38,2.62,3.46,5.81,6.92,5.12,1.18-.24,1-2.12-.17-1.88Z"/><path class="cls-10" d="M109.1,115.51c.38-1.3-.57-2.23-1.66-2.75-1.65-.79-3.34-1.5-5-2.25a.94.94,0,0,0-.8,1.71c.68.31,5.85,2.18,5.62,3-.34,1.17,1.52,1.49,1.86.34Z"/><path class="cls-10" d="M101.9,111.95a.88.88,0,0,0,0-1.75.88.88,0,0,0,0,1.75Z"/><path class="cls-10" d="M92.08,115.69c1.52,2.27,4.37,2.3,6.61,1.15a8.61,8.61,0,0,0,3.1-2.32c.81-1.18.79-3.14,1-4.51a.94.94,0,0,0-1.86-.34c-.33,1.94-.33,3.67-2.09,4.86-1.56,1-3.94,2-5.25.07-.68-1-2.22.08-1.54,1.09Z"/><path class="cls-10" d="M102.65,109.55c0-9.79-4.44-22.51-13.43-27.43-1.07-.58-1.87,1.13-.8,1.71,8.2,4.49,12.4,17,12.35,25.89,0,1.21,1.88,1,1.88-.17Z"/><path class="cls-10" d="M93,114.19c-5.48-8.51-9.69-21.21-8.79-31.32.11-1.2-1.75-1.55-1.86-.34-1,10.84,3.27,23.67,9.11,32.75.66,1,2.2-.07,1.54-1.09Z"/><path class="cls-10" d="M84.1,81.39C83,80.36,88.48,78.2,89,78s4.77-1.35,5.17-.54c-.47-1-5.94,3.56-6.37,4-.82.9.63,2.11,1.45,1.21a13.2,13.2,0,0,1,5.58-3.47c.67-.26,1.38-.48,1.65-1.24.71-2-2.29-2.46-3.62-2.52-2.71-.11-14.31,3.05-9.94,7.34.87.85,2.07-.6,1.21-1.45Z"/><path class="cls-12" d="M228.66,128.55c1.15,1.05,7.9,7.13,6.24,8.83s.48,4.38,2.39,3.1c4.06-2.73,5.47-6.83,7.74-11s5.76-7.22,7.21-11.79A2,2,0,0,0,249,115.8c-2.89,3.24-6,5.46-10.37,5.91a28.48,28.48,0,0,0-8.73,2.53c-1.83.8-.86,3.73,1,3.67,2.85-.09,5.2,4.15,6.5,6.12,1,1.48,3.86,1.1,3.67-1a6,6,0,0,1,2.22-5.57c1.33-1.16.23-3.35-1.39-3.36a13.81,13.81,0,0,0-5,.81l2.5,1.9c.3-2.77,3.1-3.8,5.28-4.64,2.35-.9,1.33-4.71-1-3.8-4.18,1.6-7.66,3.68-8.17,8.44a2,2,0,0,0,2.5,1.9,10.83,10.83,0,0,1,3.93-.67l-1.39-3.36a9.53,9.53,0,0,0-3.38,8.36l3.67-1c-2.35-3.52-5.16-8.21-9.91-8.07l1,3.67a21.33,21.33,0,0,1,7.37-2,11.56,11.56,0,0,0,4.15-.82,24.09,24.09,0,0,0,8.38-6.26l-3.29-1.92c-1.19,3.74-4.1,6.37-6.12,9.63-2.26,3.67-3.26,8.24-7,10.77l2.39,3.1c4.57-4.7-2.91-11.35-6.24-14.41-1.87-1.71-4.66,1.07-2.79,2.79Z"/><path class="cls-13" d="M214.74,118.14l10.59,6.79a2,2,0,0,0,3-1.7,11.17,11.17,0,0,1,3.23-6.92l-3.29-1.92a3.16,3.16,0,0,1-1,2.31l3.67,1c.22-2.16,4.06-4.27,5.39-6.15,1.89-2.65,3.68-5.37,5.64-8a169,169,0,0,1,14.71-17c1.54-1.57-.45-4.29-2.39-3.1a84.21,84.21,0,0,0-31,33.61,2,2,0,0,0,2.7,2.7,18.21,18.21,0,0,0,9.5-10.84,2,2,0,0,0-2.9-2.23l-2,1.33,2.7,2.7a108.52,108.52,0,0,0,8.82-14.47c.81-1.59-1-4-2.7-2.7a53.52,53.52,0,0,0-10.84,10.87c-3.06,4-7.24,8.61-8.18,13.67l3.29-.87a13.73,13.73,0,0,0-5-3.2l1.18,2.9a47.52,47.52,0,0,1,15-14.92c2.15-1.34.17-4.75-2-3.4a52.11,52.11,0,0,0-16.46,16.33,2,2,0,0,0,1.18,2.9,7.1,7.1,0,0,1,3.23,2.18,2,2,0,0,0,3.29-.87c.8-4.27,4.42-8.27,7-11.68A49.75,49.75,0,0,1,241.39,97l-2.7-2.7a108.52,108.52,0,0,1-8.82,14.47c-1.16,1.61,1.1,3.74,2.7,2.7l2-1.33-2.9-2.23a14.39,14.39,0,0,1-7.69,8.49l2.7,2.7a80.34,80.34,0,0,1,29.55-32.19l-2.39-3.1a175.5,175.5,0,0,0-15.75,18.36c-2.34,3.15-4.42,7.64-7.67,9.88-2.31,1.6-3.17,2.72-3.47,5.65-.22,2.18,2.65,2.34,3.67,1a6.64,6.64,0,0,0,1.39-3.25c.29-1.8-1.81-3.47-3.29-1.92a15.42,15.42,0,0,0-4.38,9.71l3-1.7-10.59-6.79c-2.14-1.37-4.12,2-2,3.4Z"/><path class="cls-13" d="M243.08,91.6a9.19,9.19,0,0,1-3.42,1.9l1.92,3.29,2.93-2.74c1.86-1.74-.94-4.52-2.79-2.79L238.79,94a2,2,0,0,0,1.92,3.29,13.82,13.82,0,0,0,5.16-2.92,2,2,0,1,0-2.79-2.79Z"/><path class="cls-13" d="M222.34,117.75l.57-.5-3.29-.87.75-1.67-2,3.4c2.17,1.52,7.88,6.45,10.8,4.5,1.47-1,1.4-3.15,1.68-4.68.54-2.94,2.59-4.4,4-6.8,1.22-2.08,1.34-4.62,2.69-6.63,1.81-2.69,4.69-5,6.94-7.36,4.07-4.18,8.14-8.26,13.28-11.12,2.22-1.24.23-4.64-2-3.4a52.57,52.57,0,0,0-11.39,9c-3.32,3.31-7.16,6.64-9.91,10.45a20.06,20.06,0,0,0-2.32,5.34c-.89,2.47-2.9,3.91-4.1,6.16-.49.92-.84,4.78-1.27,5.05-.68.43-5.9-3.53-6.43-3.9-2.09-1.46-4,2-2,3.4,2.24,1.58,6.24.63,5-2.78a2,2,0,0,0-3.29-.87l-.57.5c-1.91,1.68.89,4.45,2.79,2.79Z"/><path class="cls-9" d="M211.09,119c-5.57,6.76-8.85,14.76-11.35,23.08-1.09,3.64-3.4,8.65-2.82,12.49.47,3.13,3.57,6.09,5.67,8.22.89.9,2.29-.49,1.39-1.39-3.38-3.43-5.73-6.33-4.41-11.38.86-3.31,1.78-6.61,2.82-9.86,2.28-7.12,5.3-13.95,10.08-19.76.8-1-.59-2.37-1.39-1.39Z"/><path class="cls-9" d="M213.47,119.63c5.13-.54,10.73,5.5,14,8.91,1.66,1.73,3.76,3.74,4.85,5.87,1.53,3,1.22,6,.29,9.18A27.73,27.73,0,0,1,214.33,162c-1.21.38-.69,2.28.52,1.9a29.63,29.63,0,0,0,20.4-23c1-6.08-2.78-10.1-6.85-14.23-3.6-3.66-9.36-9.61-14.94-9-1.25.13-1.26,2.1,0,2Z"/><path class="cls-9" d="M212.1,120.14a195.74,195.74,0,0,1,33.19-30.28c1-.73,0-2.44-1-1.7a198,198,0,0,0-33.59,30.59c-.83,1,.56,2.35,1.39,1.39Z"/><path class="cls-9" d="M230,126.32c.78-2.12,5.69-3.3,7.51-4,2.1-.82,4.23-1.56,6.31-2.41a36.38,36.38,0,0,0,10.31-6l-1.65-1A71.22,71.22,0,0,1,234.31,141c-.92.88.47,2.27,1.39,1.39a73.38,73.38,0,0,0,18.69-28.93c.35-1-1-1.55-1.65-1-4.58,3.93-10.21,5.74-15.75,7.88-2.88,1.12-7.72,2.21-8.89,5.39-.44,1.19,1.47,1.71,1.9.52Z"/><path class="cls-9" d="M227.37,127.25c8.26-16.26,21.55-29.9,33-43.9.8-1-.59-2.37-1.39-1.39-11.6,14.11-25,27.89-33.35,44.3-.57,1.13,1.13,2.13,1.7,1Z"/><path class="cls-9" d="M244.68,90.35a59.11,59.11,0,0,1,15-7.21c1.21-.38.69-2.28-.52-1.9a61.09,61.09,0,0,0-15.44,7.41c-1.05.7-.07,2.4,1,1.7Z"/><path class="cls-9" d="M212.75,118.54a88.17,88.17,0,0,0-7.1,11.92c-2,4.26-2.7,8.88-4.66,13.12-1.4,3-3.63,6-3.19,9.52s1.77,6.57,4.63,8.5c1.45,1,3.34-.64,2.9-2.23-.51-1.81-1.39-4.1-1.31-6,.1-2.11,1.82-4.07,3-5.7,1.81-2.61,3.38-5.15,3.9-8.33.34-2.09-2.39-3.57-3.6-1.52L205,141.64l3.4,2q1.7-3.21,3.52-6.34l-3.4-2-.66,1.09,3.36,1.39a5.47,5.47,0,0,1,.94-3.52,2,2,0,0,0-3.1-2.39,12.56,12.56,0,0,0-3.88,5.52c-.83,2.12,2.5,3.39,3.6,1.52a76.88,76.88,0,0,0,4.33-8.31c1.35-3.1,3.73-5.59,5.44-8.5h-3.4a13.55,13.55,0,0,0,3.83,4c1.46,1,3.3-.68,2.9-2.23l-.41-1.56-3.6,1.52c.94,1.92,2.42,2.9,4,4.19,2.1,1.69,3.06,4,5,5.85,1.73,1.64,3.93-.42,3.1-2.39L228.91,129l-3.1,2.39c3.27,2.91,6.07,7.78,4.45,12.31-.54,1.5-2.05,3.26-2.9,4.67a24.56,24.56,0,0,1-4.83,5.66,46.07,46.07,0,0,1-5.59,4.14c-1.21.79-1.86,1.33-3.37,1.24s-1.27-.48-2.37-.82-3.05.06-3.74-.31c-1.35-.72-1.74-5.26-2.09-6.69l-3.8,1a18.43,18.43,0,0,0,4.9,7.47c1.16,1.08,3.49.4,3.36-1.39a23,23,0,0,0-2.89-9.79v2c-.5.86,2,6.73,2.57,7.68a4.37,4.37,0,0,0,3.31,2.45c3.47.38,7.58-3.8,9.95-6,3.41-3.11,7.22-7.57,8.64-12,.9-2.82-.48-7.44-2.21-9.78-2.39-3.25-6.84-8.1-10.85-9.27-3.77-1.1-5.61,2-6.92,5.11a68.59,68.59,0,0,0-4.31,15.92,9.27,9.27,0,0,0,0,4.67c1,2.8,3,5.12,4,8a2,2,0,0,0,2.9,1.18,29.92,29.92,0,0,0,6.47-5.52c1.34-1.53,3-2.67,4.32-4.16,2.8-3.09,4.54-8.34,3.48-12.4s-4-8-7.72-9.76-8-.73-9.63,3.09c-.52,1.2,0,3.15,1.7,3,3.08-.34,6-1.5,8.12,1.68l2.7-2.7A9.72,9.72,0,0,0,211.56,134a2,2,0,0,0,1.39,3.36c2.6.16,5-.69,7.23.94,1.21.89,2.11,2.13,3.39,3s2.81-.34,3-1.7a5.19,5.19,0,0,0-1.74-4.65c-1.32-1.29-4,0-3.29,1.92,2.08,5.52-.8,9.44-5.56,11.87a15.84,15.84,0,0,0-2.17,1.19c-.42.31-1.39,1.55-1.74,1.68l-.31.4a1.79,1.79,0,0,0-.18-2.6,38.8,38.8,0,0,1-1.35-4.19l-3.6,1.52a31.79,31.79,0,0,0,5.68,6.22,2,2,0,0,0,3.1-2.39,31.57,31.57,0,0,0-4.7-6.88l-2.39,3.1a39.1,39.1,0,0,0,8.18,4.34c1.82.72,3.39-2.06,1.92-3.29a43.66,43.66,0,0,1-5.83-5.92l-2.39,3.1a42.12,42.12,0,0,0,9.06,4.35c2,.7,3.08-1.92,1.92-3.29-2.63-3.12-6.08-4.81-9.77-6.38l-1,3.67a66.57,66.57,0,0,1,13.74,3.43c2.14.7,3.44-2.51,1.52-3.6-4.95-2.81-10.63-3.61-15.71-6.1l-.47,3.6a21.76,21.76,0,0,1,13.87.76v-3.8a6.89,6.89,0,0,1-5.8-1c-2.15-1.35-4.14,2.06-2,3.4a10.88,10.88,0,0,0,8.84,1.36c2-.51,1.7-3.15,0-3.8a25.26,25.26,0,0,0-16-.76c-1.55.42-2,2.84-.47,3.6,5.07,2.49,10.79,3.31,15.71,6.1l1.52-3.6a71.12,71.12,0,0,0-14.78-3.57c-1.89-.2-2.77,2.92-1,3.67,3.37,1.44,6.56,2.9,9,5.77l1.92-3.29a37.71,37.71,0,0,1-8.11-4c-2-1.29-3.72,1.47-2.39,3.1a43.66,43.66,0,0,0,5.83,5.92l1.92-3.29a34.81,34.81,0,0,1-7.24-3.94c-1.92-1.34-3.8,1.5-2.39,3.1a27.75,27.75,0,0,1,4.08,6.09l3.1-2.39a27.9,27.9,0,0,1-5.07-5.42,2,2,0,0,0-3.6,1.52c.53,2.72,2.11,8,5.07,9.18,2.55,1,4.46-2.23,6.47-3.29,6.17-3.27,10.06-9.2,7.37-16.33L222,137.72l.59,1.87,3-1.7c-1.95-1.31-3.14-3.46-5.41-4.31s-4.78,0-7.2-.16l1.39,3.36a5.76,5.76,0,0,1,7.11-1.22c1.64.86,3.85-1,2.7-2.7-3-4.59-6.66-4.17-11.52-3.64l1.7,3c2.09-4.81,7.25.1,8.78,2.59,2,3.21,1.73,6.15.15,9.52-1.07,2.27-3,3.48-4.64,5.22-2.16,2.26-3.89,4.28-6.59,6l2.9,1.18c-1.16-3.44-4.51-7-4-10.6a71.92,71.92,0,0,1,3.47-13.71c.87-2.43,1.48-5,4.27-3.72,2,1,3.85,3.22,5.37,4.81a9.92,9.92,0,0,1,3,5.17c.72,3.36.24,4.47-1.44,7.09-2.33,3.63-6.08,8.21-10.1,10.08-3.23,1.51-3.39-2-4.3-4.49a7.77,7.77,0,0,0-1.67-3.11,3.76,3.76,0,0,0-5.43-.09,2.58,2.58,0,0,0-.61,2.57c.73,2.93,2.22,4.82,2.45,8l3.36-1.39a14.17,14.17,0,0,1-3.88-5.73,2,2,0,0,0-3.8,1c.65,2.68.88,6.22,2.75,8.41s3.69.69,5.86,1.58,3,1.91,5.52.86c2.91-1.22,5.74-3.51,8.19-5.48a29.6,29.6,0,0,0,6.56-7.12c1.26-2,3.51-4.36,3.94-6.71,1.1-6.08-1.36-11.63-5.79-15.58a2,2,0,0,0-3.1,2.39l1.06,2.49,3.1-2.39c-1.52-1.45-2.26-3.46-3.78-4.92s-3.61-2.25-4.62-4.32-4.15-.59-3.6,1.52l.41,1.56,2.9-2.23a6.82,6.82,0,0,1-2.41-2.63,2,2,0,0,0-3.4,0c-1.58,2.69-3.83,5-5.16,7.79-1.46,3.08-2.86,6.07-4.6,9l3.6,1.52a8.78,8.78,0,0,1,2.87-3.78l-3.1-2.39a11.2,11.2,0,0,0-1.47,5.51,2,2,0,0,0,3.36,1.39,5.44,5.44,0,0,0,1.28-1.89c1-2.26-2.09-4.24-3.4-2q-1.82,3.14-3.52,6.34c-1.18,2.24,2.11,4.18,3.4,2l2.25-3.81-3.6-1.52c-.74,4.56-4.16,7.43-6.09,11.42-1.67,3.44-.43,7.2.55,10.7l2.9-2.23c-6.31-4.27,1-14.19,2.46-19.49,1.86-6.74,5.42-12.42,9.28-18.18,1.42-2.11-2-4.09-3.4-2Z"/><path class="cls-9" d="M204.52,162.16a11.53,11.53,0,0,0,8.8,1.42c3.38-.77,2-6-1.43-5.2a6,6,0,0,1-4.64-.88c-2.95-1.86-5.66,2.81-2.72,4.66Z"/><path class="cls-11" d="M214.86,119.57a171.2,171.2,0,0,0,15.23-14.22l-2.86-2.86a9.85,9.85,0,0,1-3.53,2.87c-2.27,1.33-.28,4.62,2,3.49,3.45-1.67,5.75-4.63,8.54-7.16A64.36,64.36,0,0,1,246.59,93a2,2,0,0,0-1.56-3.7,14.58,14.58,0,0,0-5,2.54c-1.4,1.07-1.22,3.95,1,3.77a10.1,10.1,0,0,0,5.89-2.14,2.06,2.06,0,0,0,.41-3.18l-1.16-1.1-.89,3.38a38.08,38.08,0,0,0,6.22-3.15c2.25-1.43.3-4.52-2-3.49l-1.81.79,2,3.49L260,85l-2.77-2.77.26-.31a2,2,0,0,0-2.28.93,67.76,67.76,0,0,1-4.61,5.95c-1.69,1.95,1,4.75,2.86,2.86l2.45-2.53L253,86.28c-2.86,3.64-5.64,8.15-9.49,10.82l3,2.28a14.34,14.34,0,0,1,2-5.45c1-1.62-1.11-4-2.77-2.77a70.51,70.51,0,0,0-8.27,7.4,2,2,0,0,0,2.86,2.86c3.19-3,6.49-5.94,9.93-8.71l-3.38-2c-.87,3.86-4.39,5.23-7.28,7.41-2.64,2-4.49,4.8-7.28,6.6l2.77,2.77a15.51,15.51,0,0,1,4-5.87c4.21-3.63,1.2-.11.37.84-2.35,2.7-4.5,6.49-7.66,8.21l3,2.28.86-5.07c.27-1.59-1.36-3.34-3-2.28L229.11,108l3,1.21c-.6-2.36,1.95-4.55,2.92-6.44,1.18-2.31-2.22-4.33-3.49-2a36,36,0,0,1-15.14,14.76c-1.71.89-1,4,1,3.77q3.24-.74,5.71,2.25l3.18-2.45c-2.15-1.77-3.41-1.32-.8-2.76l2.83-2.22q2.75-1.89.22-.56c-.87,1.92,1.54,4.33,3.18,2.45a28.85,28.85,0,0,1,3.35-3.28l-3.38-.89c.14.55-2.25,3.61-2.88,4.28q-.71,3.1-4.78,2.49-1.28-.35,1-1.13l3.7,1.56a5.77,5.77,0,0,1,1.62-3.35l-3.7-.48a14.61,14.61,0,0,1-.76,6.94,2.06,2.06,0,0,0,.93,2.28,9.7,9.7,0,0,1,2.92,3c1.54,2.06,5.06,0,3.49-2a17.71,17.71,0,0,0-4.38-4.47l.93,2.28a19,19,0,0,0,.76-9.09c-.27-2-2.8-1.66-3.7-.48a10.43,10.43,0,0,0-2,4.32c-.51,2.12,2.71,3.74,3.7,1.56,3.82-8.42-13.68-5.85-9.14.5,2.2,3.08,8.8,5,11.51,1.71a8.6,8.6,0,0,0,1-2,18.82,18.82,0,0,1,2.58-4,5.16,5.16,0,0,0,1.16-4.95,2,2,0,0,0-3.38-.89,28.85,28.85,0,0,0-3.35,3.28l3.18,2.45c1.05-2.33,1.62-4.08.6-6.49a2,2,0,0,0-1.75-1,4.33,4.33,0,0,0-2.6.93,32.34,32.34,0,0,0-7.44,5.93c-2.54,3.14,0,4.9,2.58,7,1.61,1.33,4.68-.47,3.18-2.45-2.35-3.1-5.24-4.65-9.21-4.26l1,3.77A39.89,39.89,0,0,0,235,102.75l-3.49-2c-1.75,3.41-4.35,5.51-3.32,9.56a2,2,0,0,0,3,1.21l3.57-2.34-3-2.28-.86,5.07a2.05,2.05,0,0,0,3,2.28c3.92-2.13,5.82-6.35,9.07-9.26,1.94-1.74,4.3-3.44,3.39-6.45-2.63-8.8-13.29,3.66-14.72,7-.72,1.68.88,4,2.77,2.77,4-2.59,7.15-6.33,11.07-9.15,2.65-1.9,4.62-4,5.35-7.27a2,2,0,0,0-3.38-2c-3.44,2.77-6.74,5.66-9.93,8.71l2.86,2.86a64,64,0,0,1,7.45-6.77L245,91.89a16.74,16.74,0,0,0-2.38,6.42c-.25,1.55,1.37,3.4,3,2.28,4.25-2.95,7.14-7.42,10.31-11.45,1.56-2-1-4.79-2.86-2.86l-2.45,2.53,2.86,2.86a76.87,76.87,0,0,0,5.24-6.77l-2.28.93c1.88.77,3.25,0,4.31-1.55,1.19-1.8-1.09-3.62-2.77-2.77l-10.35,5.26c-2.36,1.2-.29,4.52,2,3.49l1.81-.79-2-3.49a31.67,31.67,0,0,1-5.26,2.75,2,2,0,0,0-.89,3.38l1.16,1.1.41-3.18A5.62,5.62,0,0,1,241,91.62l1,3.77a8.58,8.58,0,0,1,4.08-2.14l-1.56-3.7a70.35,70.35,0,0,0-10.49,7c-3.44,2.81-6.33,6.84-10.35,8.79l2,3.49a17.75,17.75,0,0,0,4.35-3.5c1.76-1.91-1.06-4.76-2.86-2.86A171.2,171.2,0,0,1,212,116.71c-2,1.66.87,4.51,2.86,2.86Z"/><path class="cls-11" d="M231.51,126.82c1.66.31,2.71-.16,4.24-.86,2.38-1.09,4.56-2.13,7-3,3.83-1.38,7-4.06,10.65-5.85,2.34-1.15.29-4.64-2-3.49-1.66.82-2.95,2.22-4.59,3-1.32.64-2.69.84-4,1.57a29.45,29.45,0,0,1-3.52,1.43c-1.42.59-5.12,3.57-6.64,3.28-2.55-.48-3.64,3.42-1.08,3.9Z"/><path class="cls-11" d="M249.48,116.6a114.42,114.42,0,0,1-14.57,21.72l3.38.89A29,29,0,0,0,230,123.34l-2,3.38c3.08.79,6.43,2.22,9.62,1.41,3.54-.9,7-3.64,10.13-5.43l-3-1.75c-.3,2.71-2.51,5-4,7.13-1.37,1.87-2.7,4.22-4.52,5.7l2-.52c-.85-.33-2.66-5.79-3.07-6.71l-2.28,3c3.22,1.18,5.19-1.73,8.47-1.29l-1.75-3c-1.65,3.4-4.78,4-4.07,8.29.33,2,3.48,1.86,3.9,0l.73-3.24c.57-2.54-3.33-3.62-3.9-1.08l-.73,3.24h3.9c-.26-1.57,3-3.74,3.66-5.17a2.06,2.06,0,0,0-1.75-3,8.77,8.77,0,0,0-4,.23c-1,.32-2.35,1.6-3.43,1.21-1.83-.67-2.94,1.53-2.28,3,1.37,3,2.17,7.28,5.49,8.57a2,2,0,0,0,2-.52c2.46-2,4.29-5.33,6.16-7.89s3.25-4.64,3.59-7.8c.17-1.59-1.83-2.44-3-1.75a66,66,0,0,1-6.77,3.86c-3.55,1.49-6.34.66-9.86-.24a2,2,0,0,0-2,3.38,25.47,25.47,0,0,1,7.21,14.09,2,2,0,0,0,3.38.89A119,119,0,0,0,253,118.64c1.2-2.31-2.29-4.36-3.49-2Z"/><path class="cls-10" d="M210.95,120.13a188.14,188.14,0,0,1,21.93-22.3,90.9,90.9,0,0,1,12.89-9.64,65.74,65.74,0,0,1,6.45-3.35c1.81-.82,6.2-3.36,8.4-2.33,1.09.51,2.05-1.12,1-1.63-3.34-1.56-7.18.92-10.31,2.33a68.55,68.55,0,0,0-14.12,8.63,183.11,183.11,0,0,0-27.53,27c-.77.93.56,2.27,1.34,1.34Z"/><path class="cls-10" d="M260.65,81.47c-4.84,8.42-12.69,16-18.79,23.56C237,111,231.55,116.87,229,124.3c-.39,1.15,1.43,1.65,1.82.5,3-8.9,10.49-16.17,16.29-23.33,5-6.16,11.16-12.16,15.12-19a.94.94,0,0,0-1.63-1Z"/><path class="cls-10" d="M230.07,125.38c7.71-5.15,17.07-7,24.6-12.46,1-.71,0-2.35-1-1.63-7.53,5.46-16.89,7.31-24.6,12.46-1,.67-.06,2.31,1,1.63Z"/><path class="cls-10" d="M253.74,111.86A72.81,72.81,0,0,1,235,142.41c-.87.85.47,2.19,1.34,1.34a74.89,74.89,0,0,0,19.18-31.38c.36-1.16-1.46-1.66-1.82-.5Z"/><path class="cls-10" d="M209.36,119.37a86.15,86.15,0,0,0-11.64,26.58c-1.74,7.13-1.87,13.67,5.58,17.2s13.77,2.58,20.4-2.08a34.44,34.44,0,0,0,12.84-17.59c.38-1.16-1.44-1.65-1.82-.5-4.05,12.27-19,27.28-32.42,17.39-6.71-4.94-2.9-14.54-.66-21.08a85.42,85.42,0,0,1,9.36-19c.66-1-1-2-1.63-1Z"/><path class="cls-10" d="M210.73,120.52c7.25-2.16,12.07,1.58,16.46,6.91a31.19,31.19,0,0,1,6.95,15.76c.16,1.19,2,1.2,1.89,0a33.68,33.68,0,0,0-8.5-18.25c-5.18-5.78-9.63-8.52-17.3-6.24a.94.94,0,0,0,.5,1.82Z"/><path class="cls-8" d="M161.66,128.63a3.76,3.76,0,0,1,1.83,2.21,3.19,3.19,0,0,0,.63,1.25c.42.4,1,.34,1.45.64a1.36,1.36,0,0,0,1.85-1.85,9.86,9.86,0,0,1-.72-1.27c-.75-1.57-3.07-.2-2.33,1.36a9.86,9.86,0,0,0,.72,1.27l1.85-1.85a4.62,4.62,0,0,0-1.5-.56l.6.35-.08-.1.35.6c-.79-2.09-1.77-3.76-3.91-4.65a1.36,1.36,0,0,0-1.66.94,1.38,1.38,0,0,0,.94,1.66Z"/><path class="cls-9" d="M157.91,138.11c-4.17,15,3.73,30.77,8.47,44.74,2.43,7.17,13.79,4.23,11.43-3a99.37,99.37,0,0,1-3.06-10.05c-.6-2.86-.83-5.77-1.5-8.61-1.46-6.22-3.91-12.17-2.92-18.69l-11.44,0c.49,3.51,1.89,6.63,2.54,10.07s1.23,6.9,2.06,10.32c1.87,7.74,3.86,15.46,5.79,23.18,1.85,7.4,13.28,4.34,11.43-3-1.93-7.73-3.92-15.44-5.79-23.18-.83-3.43-1.4-6.87-2.06-10.32s-2.05-6.56-2.54-10.07c-.8-5.77-10.57-5.66-11.44,0-1.19,7.8.23,14.62,2.26,22.13.9,3.32,1.34,6.64,1.95,10a86,86,0,0,0,3.28,11.24l11.43-3c-2.34-6.9-4.82-13.78-7-20.73-1.84-5.92-3.17-11.86-1.48-18,2-7.35-9.4-10.34-11.44-3Z"/><path class="cls-9" d="M181.8,181.55l-8.44-35.7c-1.3-5.49-3.54-16.95-11.94-13-7.67,3.6-5.51,13.64-4.47,20.26,1.74,11,4.47,21.81,10,31.57a1,1,0,0,0,1.7-1,81.87,81.87,0,0,1-8.49-24c-.84-4.11-1.53-8.28-2-12.44-.53-4.39-.72-10.39,4.1-12.54,5.76-2.58,7.59,4.58,8.56,8.67s2,8.43,3,12.65l6.15,26c.29,1.24,2.2.73,1.91-.51Z"/><path class="cls-10" d="M179.68,183c1.22,5.6-6.83,9.19-9.2,3.47-.46-1.11-2.29-.63-1.83.49a6.68,6.68,0,0,0,8.6,3.84,7,7,0,0,0,4.25-8.28c-.26-1.19-2.08-.7-1.83.49Z"/><path class="cls-10" d="M181.78,183.07c1.54-2.29.1-5.22-.47-7.65l-3.94-16.72c-2.11-9-3.16-18.76-9.07-26.16-.76-.95-2.07.41-1.32,1.35,5.4,6.75,6.39,16.06,8.32,24.25l2.71,11.5c.59,2.52,3.72,10.14,2.12,12.51-.68,1,1,1.93,1.65.93Z"/><path class="cls-10" d="M169.83,185.36c-6.24-4.7-8.38-14.89-10.13-22.12-1.63-6.74-5.49-20.28-.18-26.19.81-.9-.54-2.23-1.35-1.32-5.43,6-2.55,17-1.14,24.15,1.67,8.47,4.12,21.3,11.48,26.84,1,.72,2.29-.62,1.32-1.35Z"/><path class="cls-10" d="M167.27,132.12a9.91,9.91,0,0,0-8.82,4.23c-.71,1,.94,1.9,1.65.93a8,8,0,0,1,7.17-3.27c1.22.08,1.21-1.81,0-1.89Z"/><path class="cls-9" d="M138.94,143.69c-3.72,5.51-7.28,11.13-10.62,16.88-2.77,4.76-6,9.68-7.79,14.94-1,3-1.12,6.87,2.35,8.34s7.82-1,10.54-3c9.68-6.88,15.5-18,20.83-28.31,2.72-5.27,5.74-10.59,7.85-16.15.91-2.4,2.29-6.48-.52-8.33-3.43-2.25-8.51,1.19-11,3.17a32.16,32.16,0,0,0-9.86,12.8c-.48,1.14,1.26,2.11,1.74,1a30.66,30.66,0,0,1,8-11.11c1.38-1.22,4.9-4.44,7-4.22l3.76,2.86a10.83,10.83,0,0,1-.39,1.59,28.49,28.49,0,0,1-1.49,3.79,205,205,0,0,1-15,28.12c-3.24,4.93-7.09,9.68-11.93,13.13-1.75,1.25-4.93,3.54-7.25,3.12-5.28-1-2.78-6.5-1.26-9.55a250.62,250.62,0,0,1,16.8-28.11c.7-1-1.05-2-1.74-1Z"/><path class="cls-9" d="M119.31,181.14c-2.79,1.93-2.47,5.27-.53,7.76,2.57,3.3,6.82,4.4,10.79,4.78.88.08,1.23-1.16.66-1.7-1.94-1.82-7-5.15-4.83-8.17.74-1-1-2-1.74-.93-3,4.16,2.57,8.06,5.21,10.53l.66-1.7a16.09,16.09,0,0,1-6.3-1.69c-2-1.13-6.26-4.86-2.9-7.19,1-.72,0-2.42-1-1.69Z"/><path class="cls-9" d="M121.54,178.42c.87,6.1,8.08,4,11.7,1.62,6.3-4.23,9.12-11.56,13.32-17.56l-3.47-1.87-1.44,2.95c-.93,1.9,1.69,4.09,3.16,2.29,4.33-5.3,7-12.27,10.55-18.14s6.76-11.75,7.74-18.56a2,2,0,0,0-2.93-2.15,65.3,65.3,0,0,0-10.63,7c-3.34,2.63-5.73,6.46-9.15,8.88l2.75,2.62a16,16,0,0,1,7.45-7.31c2.09-1,4-1.46,5.75-3a2,2,0,0,0-.49-3.1l-1.67-.85.49,3.1,2.69-.9-.56-1.88c-.51,3.78-3.49,8-5.35,11.24s-4.2,6.5-6.16,9.83-3,7.22-4.88,10.65a40.86,40.86,0,0,1-8.09,10.21c-1,.91-4.43,3.29-6,2.08-.89-.68,1.29-3.47,1.78-4.35,2.05-3.66,4.08-7.33,6.17-11A89.34,89.34,0,0,1,141.83,149c1.36-1.7,8.46-11.36,11.11-9.31l-.06-2.79a107.22,107.22,0,0,0-12.15,19.33c-1.71,3.55-3,7.34-4.86,10.79a17.72,17.72,0,0,1-3.46,4.71c-.37.34-3.9,3.11-4.47,2.47l.38,2.36c.34-.81,2.7-1.82,3.59-2.54a28.06,28.06,0,0,0,4.24-4.4c2-2.47,4.58-5.38,5.31-8.52.48-2.09.39-3.81,1.92-5.53a39.07,39.07,0,0,0,3-3.43c2.26-3.24,3.06-7.22,4.94-10.66a2,2,0,0,0-2.75-2.62,23.14,23.14,0,0,0-10.33,11.67c-.69,1.7.95,3.71,2.75,2.62l4.21-2.53-2.44-3.05c-2.69,3.63-5.69,7.2-7.84,11.19-2,3.76-2.27,11.31-7.23,12.14l2.28,2.83a124.6,124.6,0,0,0,8.86-16.62c1-2.3-2.45-4.2-3.47-1.87a124.6,124.6,0,0,1-8.86,16.62c-1,1.59.78,3.08,2.28,2.83,4.34-.73,6.26-4.45,7.44-8.31,1.91-6.24,5.55-10.9,9.4-16.08,1.24-1.67-.38-4.29-2.44-3.05l-4.21,2.53,2.75,2.62a19.76,19.76,0,0,1,8.88-10.16l-2.75-2.62c-1.68,3.09-2.43,6.64-4.27,9.63-1.67,2.72-4.69,4.52-5.56,7.73-.48,1.75-.43,3.42-1.3,5.1a33.33,33.33,0,0,1-4.33,6,23.73,23.73,0,0,1-5,4.38c-1.06.7-2,1.07-2.53,2.27a2.08,2.08,0,0,0,.38,2.36c1.92,2.16,5.26.7,7.35-.54,3.43-2,5.71-5.41,7.43-8.93,2.18-4.45,3.87-9.08,6.23-13.46a102.91,102.91,0,0,1,9.49-14.49,2,2,0,0,0-.06-2.79c-3.4-2.63-6.67-1.06-9.54,1.6a78.76,78.76,0,0,0-11.9,14.39c-3.51,5.32-6.46,11-9.58,16.56-1.31,2.34-5.19,7.42-1.47,9.63,3.16,1.88,8.58.63,11-1.74,4.15-4,8.22-8.72,10.68-14,1.17-2.51,2-5.18,3.27-7.64,1.46-2.73,3.34-5.22,5-7.85q2.26-3.67,4.22-7.52c1.19-2.34,3-5.14,3.32-7.77a2,2,0,0,0-.56-1.88c-2.73-2-5.93-1.21-8.27,1a2,2,0,0,0,.49,3.1l1.67.85-.49-3.1c-2.36,2-5.82,2.43-8.32,4.38a20.62,20.62,0,0,0-5.5,6.74c-.87,1.63,1.11,3.78,2.75,2.62,3.38-2.38,5.61-6,8.81-8.58a61.66,61.66,0,0,1,11-7.32l-2.93-2.15c-.93,6.5-4,12.07-7.38,17.6-1.52,2.51-3.08,5-4.48,7.56-1.78,3.27-3.07,6.82-5.45,9.73l3.16,2.29,1.44-2.95c1.14-2.33-2-3.91-3.47-1.87-2.46,3.52-4.35,7.41-6.86,10.89a22.3,22.3,0,0,1-3.8,4.2c-.64.53-6.7,4.34-6.95,2.62-.36-2.48-4.3-2.42-3.94.09Z"/><path class="cls-9" d="M119.83,182.66c-.76,2-1.32,3,.06,4.87a12.84,12.84,0,0,0,5.37,4.16l.69-1.83a7.7,7.7,0,0,1-2.42-1c-.89-.56-1.07-.64-1.06-1.58,0-.53.4-1.23.47-1.79a7.59,7.59,0,0,0,0-2c-.16-1.23-2.07-1.24-2,0,.16,2,.55,3.95,2.07,5.42.91.88,2.27-.54,1.36-1.43a5.84,5.84,0,0,1-1.46-4l-2,0a8.86,8.86,0,0,1-.5,3.54,2.25,2.25,0,0,0,.2,1.83c.92,1.54,3.21,2.41,4.85,2.8,1,.24,1.75-1.38.69-1.83a11.29,11.29,0,0,1-3.79-2.5,5.73,5.73,0,0,1-1.34-1.68c-.23-.75.23-1.45.51-2.18.45-1.17-1.28-2.12-1.74-.93Z"/><path class="cls-9" d="M155.89,139.34l2.92-3.06c1.75-1.83-1.1-4.56-2.85-2.72L153,136.62c-1.75,1.83,1.1,4.56,2.85,2.72Z"/><path class="cls-9" d="M121.6,186.3c3.22,0,3.22-5,0-5s-3.22,5,0,5Z"/><path class="cls-11" d="M121.4,181c-3.61-.18-3.8,3.95-2.57,6.38,1.82,3.61,5.69,5.44,9.57,5.72.9.07,1.11-1.08.63-1.63-1.13-1.3-2.5-1.77-4-2.65a6.82,6.82,0,0,1-3.39-5.8c0-1-1.67-1.29-1.86-.2-.75,4.16.94,6.57,5.05,7.4a1,1,0,0,0,1-1.4c-.67-1.47.35-3.56.37-5.12a1,1,0,0,0-1.63-.63,5,5,0,0,0-1.41,2.09c-.12.27-.27,1.5-.15.4a8.38,8.38,0,0,1,.75-2.89l-1.74-.19a16.19,16.19,0,0,1,.52,3.2.94.94,0,0,0,1.89,0q1.76-1.6.32-1.87a6.1,6.1,0,0,0-.27.85c-.35,1.17,1.49,1.6,1.84.44s1.66-3.55-.72-3.49c-1.8,0-3.08,2.58-3.05,4.11l1.89,0a18.47,18.47,0,0,0-.59-3.68,1,1,0,0,0-1.74-.19c-.76,1.55-1.73,5.18.23,6.37,2.3,1.4,2.68-3,3.62-3.77l-1.63-.63c0,2.24-1.09,3.88-.1,6l1-1.4c-1.21-.24-2.66-.46-3.41-1.63a5.23,5.23,0,0,1-.24-3.49l-1.86-.2a8.93,8.93,0,0,0,2,5.47c1.64,1.95,4.27,2.42,5.91,4.3l.63-1.63a10.27,10.27,0,0,1-5.7-2.1,8,8,0,0,1-1.84-2c-.5-.81-2.08-4.31.63-4.18,1.22.06,1.17-1.83,0-1.89Z"/><path class="cls-10" d="M153.13,127.62c-9.66,7.91-17.18,17.78-23.6,28.43-3.2,5.31-6.15,10.78-9,16.3-1.53,3-3.1,5.67-1.59,8.91.52,1.1,2.13.12,1.62-1-1.84-3.92,3.65-11,5.5-14.35,2.47-4.54,5-9,7.85-13.38a100.09,100.09,0,0,1,20.57-23.64c.94-.77-.44-2.07-1.37-1.3Z"/><path class="cls-10" d="M163.11,132.69c-.49,5.52-4.36,11-7,15.7q-3.39,6-7.06,11.94c-5.9,9.48-12.24,19.26-23.19,23.32-1.13.42-.62,2.24.52,1.82,10.81-4,17.34-13.16,23.28-22.56q5-8,9.55-16.22c2.43-4.44,5.35-8.89,5.81-14,.11-1.21-1.78-1.16-1.89,0Z"/><path class="cls-10" d="M119.18,180.23c-4.14,2.47-2.53,7.31.16,10.22a9.1,9.1,0,0,0,5.81,3.31c1.67.22,4.76,1.16,6-.4a1,1,0,0,0,.13-1.14,12.81,12.81,0,0,0-2.23-2.3,7.64,7.64,0,0,1-2.28-6c0-1.22-1.87-1.17-1.89,0a10,10,0,0,0,.78,4.91c.95,1.8,2.93,2.66,4,4.34l.13-1.14c-.94,1.21-6.55-.8-7.31-1.32-2.46-1.72-6.25-6.52-2.29-8.88a.94.94,0,0,0-1-1.62Z"/><path class="cls-10" d="M154.78,128.84c1.08-.9,3-1,4.4-.76,2,.3,2.87,1.84,3.65,3.58.54,1.21,2.44.77,1.89-.45-1.05-2.36-2.33-4.49-5-5a7.92,7.92,0,0,0-6.43,1.22c-.94.78.59,2.23,1.52,1.45Z"/><path class="cls-10" d="M160,127.31c4.11-1,6.81,2.64,7.43,6.25.2,1.2,2,.69,1.82-.5-.8-4.69-4.68-8.81-9.75-7.57-1.18.29-.68,2.11.5,1.82Z"/><path class="cls-6" d="M121.32,134.57c7.82-1,15.54-2.07,22.53-5.93,2.82-1.56.3-5.88-2.52-4.32-6.18,3.41-13.09,4.4-20,5.24-3.15.38-3.19,5.39,0,5Z"/><path class="cls-6" d="M129.53,137.48a23.49,23.49,0,0,1,9.22-3.28l-4.32-7.52c-.47,1-2.95,1.07-3.87,1.45a14.48,14.48,0,0,0-3.7,2.3c-3.36,2.69-.59,8.81,3.54,8.54a13.69,13.69,0,0,0,7.38-2.39l-6.84-1.79a7.45,7.45,0,0,0,4,3.41,5,5,0,0,0,4.86-1.29,5.68,5.68,0,0,0,1.14-6.88c-1.66-2.84-4.74-2.95-7.62-2.73a147.66,147.66,0,0,0-24.77,4.25c-6.24,1.56-3.6,11.21,2.66,9.64,4.15-1,8.33-1.95,12.55-2.65,2-.33,3.94-.62,5.93-.86q1.82-.21,3.64-.39,3.25,0,.77-.43l-2.48-4.32V133l1.46-3.54-.36.34,4.86-1.29-.37-.13,3,2.3-.66-1c-1.41-2.1-4.51-3.42-6.84-1.79a3.28,3.28,0,0,1-2.33,1l3.54,8.54c1.21-1,3.92-1,5.36-1.78a8.62,8.62,0,0,0,3.78-4c1.41-3-.18-8-4.32-7.52a35.6,35.6,0,0,0-14.27,4.65c-5.54,3.26-.52,11.91,5,8.63Z"/><path class="cls-6" d="M118.1,171.86a21.18,21.18,0,0,1,19,.26c2.28,1.12,4.21,2.28,6.82,2.31,3.16,0,5.43-1.46,8.28-2.56,5.59-2.16,11.56,2.11,17.07,3.09,2.69.47,6.38-.66,8.79.07s2.53,3.67,2.9,6l4.82-6.33-39.2-4.35c-6.07-.67-12.23-1.13-18.22-2.36-5.13-1.05-9.51-3.11-14.5-.55-3.65,1.87-2.8,6.58,0,8.63,8.3,6.08,18.4,8.26,28.5,9,5.34.38,10.69.31,16,.43,4.94.11,13.43-.71,17.62,2.15l-2.3-3,.4,1,3.49-6.15-7,1.53,2.66,9.64,4.53-1.33c5-1.46,4.52-8,0-9.64l-.87-.31a5,5,0,0,0-4.86,1.29l-.66.64a4.9,4.9,0,0,0-1.29,4.86c1.24,3.17,4,5.36,7.57,4.15,6-2.07,3.59-11.46-2.66-9.64A121.31,121.31,0,0,1,144,185.59a118,118,0,0,1-15-.57c-4.05-.42-9.46-1-10.48-5.68L111.12,185a54.73,54.73,0,0,0,30.71,5.66c6.32-.71,6.4-10.72,0-10a45.24,45.24,0,0,1-25.67-4.3,5.07,5.07,0,0,0-7.34,5.65c2.69,12.4,17.37,13.15,27.62,13.54a130.64,130.64,0,0,0,41.26-5.23l-2.66-9.64-.59.2,3.85.5-.6-.28,2.3,3-.23-.58-1.29,4.86.66-.64L174.3,189l.87.31v-9.64L170.63,181c-6.2,1.82-3.61,11,2.66,9.64l7-1.53c2.41-.53,4.49-3.74,3.49-6.15-2.18-5.28-6.74-5.83-12-6.54a155.83,155.83,0,0,0-18.84-1c-11.91-.17-24.05-.68-34-8v8.63c1.35-.69,5.32,1.25,6.79,1.56,2.52.52,5.06.88,7.61,1.21,5.72.74,11.46,1.31,17.18,1.94l35.28,3.92c3.56.4,5.27-3.49,4.82-6.33-1-6.35-4-12.52-11.09-13.26-4.27-.45-7.78.38-12-1-3.58-1.14-7-2.56-10.79-2.89-4-.35-6.69,1.16-10.36,2.35s-6.72-1.63-10.44-2.72A31.54,31.54,0,0,0,113,163.23c-5.78,2.83-.72,11.45,5,8.63Z"/><path class="cls-6" d="M197.07,151.92c5.64-3,7.44,3.2,11.62,5.31,2.75,1.39,5.82.78,8.7,1.59,2.65.74,4.73,2.62,7.45,3.23l2.19.3q2.54.64,3.2-3.26c-.52-.42-4.76-.19-5.34-.22-2.9-.16-5.83-.16-8.61-1.11-5.67-1.93-10.26-7.77-16.22-8.65-5.36-.79-8.82,4.47-7.74,9.37,1.23,5.59,6,7.88,10.8,10.06a37.62,37.62,0,0,0,17.23,3.66c5.37,0,11.91,1,15-4.4,3.21-5.59-5.43-10.63-8.63-5,.68-1.18-4.26-.57-5.41-.56-2.6,0-5.45.32-8-.22-1.65-.35-10.51-5.64-11.61-4.28l-3.54,1.46c1.89-.21,4.81,2.63,6.31,3.59a47.5,47.5,0,0,0,6.45,3.58c4.18,1.83,8.48,2.24,13,2.49,4.3.23,9.44,1.11,12.78-2.3a7.54,7.54,0,0,0,.1-10.24c-3-3.57-7.17-3-11.1-4.57-2.21-.9-4-2.17-6.4-2.68-2-.42-4.72-.05-6.4-1.14-1.49-1-2.48-3-4-4a15.62,15.62,0,0,0-4.72-2.19A16.19,16.19,0,0,0,192,143.29c-5.66,3.06-.62,11.7,5,8.63Z"/><path class="cls-6" d="M139.37,124.69c-2.57-2.14-5.51-2.85-8.64-1.28-2,1-2.92,2.36-5.23,2.77-1.57.28-2.94,0-4.44.83-1.22.68-1.63,1.7-2.93,2-1.61.4-3.49-.55-5.27,0a12.23,12.23,0,0,0-4.09,2.28c-.64.5-2,2.18-2.85,2.21-6.42.17-6.45,10.17,0,10a11.48,11.48,0,0,0,7.32-3c.55-.45,2.55-1.92,2.23-1.85,1.45-.34,3.43.62,5.09.28a10.23,10.23,0,0,0,4.29-2,6.25,6.25,0,0,0,1.67-1.62q-2,1.05-.28.79c1.32.47,3.68-.58,4.85-1.07a7.73,7.73,0,0,0,2.42-1.3q2.57-1.25-1.2-2c4.91,4.09,12-2.94,7.07-7.07Z"/><path class="cls-14" d="M114.94,139c1.55-2.51,5.56.52,8,.11a6.5,6.5,0,0,0,3.35-1.76c.91-.79,1.7-3,3.15-2.74a5.21,5.21,0,0,0,6.15-3.49c.51-1.32,5.24-1.69,6.13-1l-2.3-3,.25.89.5-3.85q1.75-.87.18-.27l-2.21.74c-1.17.42-2.34.88-3.48,1.39a24.82,24.82,0,0,0-6.48,4.32c-1.74,1.57-3.23,3.68-5.21,5-2.41,1.57-4.79.94-7.5,1-4.82.16-9.23,2.31-10.87,7.14-1.76,5.2.53,10.16,3.3,14.49,2.48,3.87,9.74,2.72,9.32-2.52-.22-2.79,1.15-5.32,4.24-5.45L118,141.43a25.26,25.26,0,0,0-6.33,16.1h10a5.69,5.69,0,0,1,1.8-5.37l-8.36-4.86c-2.37,6.23-4.4,19.18,4,21.92,4.74,1.55,10.46.23,15.37.71,4.68.45,8,3.38,13,2.9,4.21-.41,8.48-2.71,12.66-1.44,2.22.67,4.11,1.93,6.43,2.36a25.59,25.59,0,0,0,6.81,0c9.09-.7,16.85,5.11,25-1.59,5-4.09-2.13-11.12-7.07-7.07-2.54,2.09-7.65-.38-10.31-.91a33.08,33.08,0,0,0-9.2-.26c-3.95.28-6.07-1.36-9.74-2.39a19.29,19.29,0,0,0-9.28,0c-3,.62-5.94,2-9,1-3.75-1.21-6-2.43-10.17-2.6-1.87-.08-3.74-.06-5.61-.09-.83,0-4.94.36-5.61-.09,1.94,1.3.74-2,.8-3.15a21.63,21.63,0,0,1,1.59-6.62c1.85-4.88-5-8.13-8.36-4.86a15.07,15.07,0,0,0-4.73,12.44c.59,6.32,9.78,6.54,10,0a14.19,14.19,0,0,1,3.4-9c2.62-3.08,1.11-8.73-3.54-8.54-8.16.35-14.92,7.05-14.24,15.45l9.32-2.52c-.7-1.09-3-3.89-2.58-5.3.71-2.21,3.29-1.16,5-1.19a16.51,16.51,0,0,0,9-2.5c3.21-2.06,5.34-5.33,8.4-7.53s6.85-2.3,9.83-4.3c6.41-4.31,2.1-11.79-4.44-12.27-6.73-.49-13.36,2.16-15.87,8.64l6.15-3.49a12.63,12.63,0,0,0-7.66.73c-2.55,1.21-3.61,3.3-5.7,5l3.54-1.46c-1.33-.09-2.72-1.05-4.12-1.24a11.4,11.4,0,0,0-4.5.26,12.2,12.2,0,0,0-7.39,5.74c-3.39,5.49,5.26,10.52,8.63,5Z"/><path class="cls-14" d="M194.76,150.91c2.36-.26,5.71-.9,8,.1,2.54,1.14,3.3,4.45,5.59,6.08s5.15,2,8.06,1.87c1.79-.09,9-1.06,8.75,2.44l2.48-4.32c-9.94,7.2-23,4-34,7.25a5.06,5.06,0,0,0-1.19,9.14c5.76,3.51,11.8,1.48,17.49-1.13s11.85-5.47,12.35-12.35c.24-3.29-3.38-5.63-6.33-4.82l-18,4.95,3.85,9.14c4.18-2.44,7.61-5.87,7.07-11.07-.58-5.55-5.14-8.75-9.88-10.8-3.64-1.58-7.12.3-7.52,4.32-.19,1.9.54,4.43.08,6.22-.39,1.5-.55,1.3-1.83,2.41a6.08,6.08,0,0,0-1.75,7.49c2.54,5.06,9.67,4.66,13.19,1,4.58-4.77,2.62-13.32.31-18.71s-8.93-9-9.81-14.88c-1-6.34-10.59-3.65-9.64,2.66.64,4.29,3.28,7.53,6.11,10.66a25.35,25.35,0,0,1,3.69,4.49,16.25,16.25,0,0,1,1.46,4.25l.35,1.7q-.41,3.11,3,3.79l.5,3.85c-.63,2.54,1.71-.7,2.31-1.51a10.57,10.57,0,0,0,1.64-3.36c.93-3.3.08-6.71.41-10.06L193.9,156c.81.35,4.15,1.52,4.49,2.4.53,1.4-.33,1.41-1.68,2.2-4.88,2.85-1.65,10.65,3.85,9.14l18-4.95L212.26,160c0,.36-6,3-6.62,3.36-2.36,1.1-5.67,3-8.18,1.48L196.27,174c4.41-1.29,9.16-.83,13.71-1.37a68.27,68.27,0,0,0,13.77-3c3.29-1.1,8.78-2.43,10.68-5.68,1.73-3,.5-6.76-1.37-9.3a14.48,14.48,0,0,0-8.31-5.31,23.28,23.28,0,0,0-6-.51c-2.63.06-3.62.54-5.45-1.31-2.6-2.63-4-5-7.88-6.13a27.15,27.15,0,0,0-10.61-.46c-6.33.69-6.4,10.7,0,10Z"/><path class="cls-14" d="M212.75,161.42c-5.18,6.87-18.39,6.25-25.94,7.06-10.14,1.09-21.47,3.62-31.61,1.51-4.3-.9-8.12-3.83-12.51-4.13-5-.34-9.85,2.49-14.88,2.68-2.77.1-3.89-.45-5.24-2.79s-2.51-4.66-3.76-7c-1.88-3.49-7.7-10.79-5.39-14.91a5,5,0,0,0,0-5C106.94,128.42,91.85,135,91.17,146c-.81,13.19,12.13,25,22.5,31,5.16,3,9.56-3.64,6.06-7.85a41.9,41.9,0,0,1-9.58-23.58c-.51-6.39-9.6-6.47-10,0-.9,14.42,3.59,33.76,21.42,34.48,4.4.18,8.57-.82,13-.15,4.17.63,8.24,1.73,12.44,2.12,6.92.64,14.25-1,19-6.44,4.22-4.83-2.83-11.93-7.07-7.07-3.76,4.31-9.53,4-14.73,3.08-6-1-11.61-2.4-17.71-1.84s-10.46-.36-13.74-5.87-3-12.23-2.57-18.31h-10a53.6,53.6,0,0,0,12.5,30.66l6.06-7.85a42.63,42.63,0,0,1-14.49-13.27c-1.52-2.31-4-6.31-3-9.27.29-.86,2.58-3.56,3.54-2v-5c-3,5.29-1.9,10.62.57,15.91,2.85,6.1,6.09,12.78,9.91,18.33,3.38,4.9,8.66,5.88,14.28,5.39a74.52,74.52,0,0,0,9-1.69c2.59-.55,3.74-.7,6.23.21,1.51.55,2.89,1.29,4.42,1.8,13.06,4.32,28.3.73,41.58-.7,11.31-1.22,23.2-1.78,30.6-11.58,3.88-5.14-4.8-10.13-8.63-5Z"/><path class="cls-14" d="M111,135.94c-7.22-8.13-22.13-5.64-25.89,4.74-2.37,6.55.29,13.47,4.37,18.7a72.82,72.82,0,0,0,7.9,8c1.16,1.09,2.34,2.18,3.39,3.38a15.69,15.69,0,0,1,2.09,2.77q.25,2.37,2.69-1.2c-4.74.16-7.09,6.89-2.52,9.32a65.79,65.79,0,0,0,32.55,7.91,73.64,73.64,0,0,0,16.68-2.6c7-1.81,12.54-2.38,19.65-1.15a71.5,71.5,0,0,0,59.9-16.58c4.85-4.24-2.24-11.29-7.07-7.07a60.58,60.58,0,0,1-25.77,13.29c-10.2,2.45-19.48,1.26-29.67-.19-10.62-1.51-19.94,3.21-30.34,4.11A55.44,55.44,0,0,1,108.05,173l-2.52,9.32c5.14-.18,7.81-4.37,7.37-9.27-.5-5.48-5.26-9.78-9.05-13.3s-12.08-10-9.31-15.93c1.69-3.66,7-3.49,9.38-.83,4.28,4.82,11.33-2.27,7.07-7.07Z"/><path class="cls-14" d="M65.65,125.94c-7.25,4.62-10.83,12.71-10.91,21.19-.11,10.88,5.69,20.74,11.07,29.79,1.65,2.76,6,.25,4.32-2.52-7.3-12.26-18.3-33.72-2-44.14,2.71-1.72.2-6.05-2.52-4.32Z"/><path class="cls-14" d="M68.12,127.16c-6.8,4.48-9.79,12.45-8.94,20.43a36.56,36.56,0,0,0,4.2,12.86,79,79,0,0,0,4.34,7.17,15.54,15.54,0,0,0,1.64,2.46c.38,0-1.48-3.82-1.44-3.74-1.25-3-5.56-.41-4.32,2.52,1.31,3.09,4.17,9,8.55,6.76,3.87-2,2.59-6.26.83-9.15-6-9.82-15.65-26.24-2.34-35,2.68-1.76.17-6.09-2.52-4.32Z"/><path class="cls-14" d="M250.21,166.19c-1.8,6.89-7.62,11.17-13.17,15.08l3,3.93a47.05,47.05,0,0,0,14.12-22c.93-3.09-3.89-4.41-4.82-1.33a42.25,42.25,0,0,1-12.83,19.79c-2.11,1.85.7,5.57,3,3.93,6.64-4.68,13.32-9.84,15.46-18.06.81-3.12-4-4.45-4.82-1.33Z"/></svg>