<svg id="圖層_1" data-name="圖層 1" xmlns="http://www.w3.org/2000/svg" viewBox="0 0 300 300"><defs><style>.cls-1{fill:#f5b81b;}.cls-2{fill:#06143f;}.cls-3{fill:#f7f8f8;stroke:#4c4948;}.cls-3,.cls-5{stroke-miterlimit:10;}.cls-4{fill:#e6e6e6;}.cls-5{fill:none;stroke:#f5b81b;stroke-width:2px;}.cls-6{fill:#cfc97e;}.cls-7{fill:#947d49;}.cls-8{fill:#e5e5ce;}.cls-9{fill:#f5f7ea;}.cls-10{fill:#fbdbcd;}.cls-11{fill:#9b5838;}.cls-12{fill:#e6c199;}.cls-13{fill:#d58c69;}.cls-14{fill:#672e19;}.cls-15{fill:#3a1309;}.cls-16{fill:#231815;}.cls-17{fill:#fff;}</style></defs><title>鮪魚03</title><ellipse class="cls-1" cx="149.98" cy="146.83" rx="149.13" ry="80.6"/><ellipse class="cls-2" cx="150.21" cy="145.52" rx="147.21" ry="77.72"/><ellipse class="cls-3" cx="150.24" cy="153.28" rx="106.86" ry="58.69"/><ellipse class="cls-4" cx="150.24" cy="157.89" rx="98.9" ry="54.55"/><ellipse class="cls-5" cx="150.3" cy="153.34" rx="106.42" ry="58.99"/><path class="cls-6" d="M78.41,151.29c.46,4,2.43,7.75,7,6.52a2.49,2.49,0,0,0,1.7-3,31.81,31.81,0,0,1-.66-6.9l-4.55,1.23c.08.11,1.74,3.49,1.24,3.71h2.46l-.66-.41a2.46,2.46,0,0,0-3.67,2.11A9.13,9.13,0,0,0,85.54,162L88,157.76a18.63,18.63,0,0,1-4.83-3.42l-3,3.83c4.31,2.73,10.95,3,13.36,8l2.76-3.59a3.77,3.77,0,0,1-2.81-1.66c-1.84-2-5.43.66-3.83,3,3.72,5.37,9.44,4.16,15,6l1.3-4.71-5.11-1-.65,4.79a52.87,52.87,0,0,0,13.12,0c2.46-.28,3.62-.46,6.1.5a20.45,20.45,0,0,0,4,1.5l.65-4.79a23.79,23.79,0,0,1-6.24-.3l-.65,4.79c4.29-.19,8.42-.31,12.06,2.3l.58-4.46-5.07,2c-2.46,1-2.27,4.73.65,4.79,4.88.11,8.73-4,13.45-3.59l-1.23-4.55-4.54,2.08,2.46,4.21c3.5-2,6.42,2.85,10.18,1.37,1-.39,1.43-1.14,2.13-1.9,1.77-1.92,4.22-2.3,7-1.64l-1.7-1.7q2.08-2-.24-2.3l-1.3,4.71,6.55,2.42c3,1.09,4.22-3.63,1.3-4.71L153,167.25c-3-1.1-4.18,3.58-1.3,4.71s7.46.6,6.24-3.7a2.44,2.44,0,0,0-1.7-1.7,22,22,0,0,0-7.64-.23c-2.33.32-2.55,1.61-4.24,2.57-1.31.74.2,1.5-2.42,0a8.34,8.34,0,0,0-2.55-1.24c-2.28-.49-4.26.46-6.21,1.57-2.78,1.58-.34,5.5,2.46,4.21l4.54-2.08c2.42-1.11.91-4.35-1.23-4.55-5-.46-8.61,3.7-13.45,3.59l.65,4.79,5.07-2a2.48,2.48,0,0,0,.58-4.46c-4.31-3.1-9.4-3.2-14.52-3-2.6.12-3.49,4.28-.65,4.79a30,30,0,0,0,7.54.47c2.57-.17,3.53-4.28.65-4.79-3.69-.65-5.74-2.64-9.73-2.43-5.11.27-9.67.91-14.81.24-2.71-.36-3.34,4.27-.65,4.79l5.11,1a2.44,2.44,0,0,0,1.3-4.71c-3.67-1.18-9.69-.25-12.09-3.72l-3.83,3a9.29,9.29,0,0,0,5,2.91,2.47,2.47,0,0,0,2.76-3.59c-3-6.24-9.82-6.37-15.11-9.71-2.35-1.49-4.93,1.9-3,3.83A22.49,22.49,0,0,0,85.54,162,2.44,2.44,0,0,0,88,157.76l-1.8-3.21-3.67,2.11c6.31,3.93,5.78-7,3.63-10-1.35-1.9-4.52-1.34-4.55,1.23a37.87,37.87,0,0,0,.83,8.2l1.7-3-.86-1.82c-.36-3.08-5.24-3.12-4.88,0Z"/><path class="cls-6" d="M157,171.26c4.11-.35,8.2-.56,12.32-.61l-1.73-4.17a4.12,4.12,0,0,1-3.83.87l1.73,4.17q4.24-.59,1.6-3.12a4.67,4.67,0,0,0-.83,1.34,2.47,2.47,0,0,0,1.46,3.59l8.61,2.26-.58-4.46-.56.4a2.44,2.44,0,0,0-1.21,2.11,3.77,3.77,0,0,0,1.06,2.7c.72.71,1.94.63,2.58,1.25L180,173.5a24.9,24.9,0,0,1-5.11-2c-2.77-1.48-5.2,2.65-2.46,4.21a64.75,64.75,0,0,0,6.07,3.07c2.85,1.26,5.33-2.95,2.46-4.21a64.75,64.75,0,0,1-6.07-3.07l-2.46,4.21a30.63,30.63,0,0,0,6.28,2.53,2.46,2.46,0,0,0,2.37-4.08c-1.06-1-2.15-1-3.32-1.82l1.21,2.11-.09-.79-1.21,2.11.56-.4c1.64-1.16,1.58-3.89-.58-4.46L169,168.63l1.46,3.59c1.1-2.08,3.2-4.81.25-6.65-2.7-1.68-6.68.87-8.69,2.51-1.85,1.52-.1,3.93,1.73,4.17a8.91,8.91,0,0,0,7.28-2.3c1.68-1.38.26-4.19-1.73-4.17-4.12.05-8.22.25-12.32.61-3.11.27-3.13,5.15,0,4.88Z"/><path class="cls-6" d="M185.89,168.79l-4.9,2.26c-2.67,1.23-.66,4.93,1.88,4.46,2.93-.54,5.82-1.18,8.7-1.93L188.82,170,187,171.45c-2.12.8-2.51,4.07,0,4.71l2.05.52V172l-2.79.86c-2.76.85-2,4.51.65,4.79l1.41.15V172.9a43.09,43.09,0,0,0-5.17.53c-2.43.39-2.22,4.17,0,4.71a17.2,17.2,0,0,0,8.74-.23,9.6,9.6,0,0,0,3.07-1.13c1.08-.91,1.16-2.65,2.7-3,3.08-.78,1.75-5.26-1.3-4.71l-2.11-.37.58,4.46c1-.47,3.41-1.73,4.73-1.55l-1.7-1.7c-.56-1.53-2.32-.35-3.34,0-3,1-1.76,5.21,1.3,4.71,2.57-.43,6.29-.84,8.46-2.51,1.42-1.09,1.08-2.32,1.66-3.72l-1.7,1.7c1.76-.63,3.91,4.8,4.27,5.83l4.08-2.37a78.7,78.7,0,0,0-6.87-5.22c-2.35-1.59-4.82,1.88-3,3.83a50.7,50.7,0,0,1,4.92,6c1.79,2.56,6,.12,4.21-2.46a58.82,58.82,0,0,0-5.68-7l-3,3.83a67.3,67.3,0,0,1,5.88,4.46c1.7,1.44,4.95.12,4.08-2.37-1.21-3.48-4.34-10-8.93-9.64-2.3.17-2.47,1.45-3.43,3a2.46,2.46,0,0,0,0,1.3l-.48-.8c-1.63.9-4,1.1-5.83,1.4l1.3,4.71c2.73-.89,8.25-1.87,6.75-6a2.43,2.43,0,0,0-1.7-1.7c-3.06-.42-5.76.71-8.49,2-2.11,1-1.15,3.74.58,4.46a7.55,7.55,0,0,0,4.7.37l-1.3-4.71a7.18,7.18,0,0,0-3.59,2.13,8,8,0,0,1-8.32,2.26v4.71a22.15,22.15,0,0,1,3.87-.36c3.2-.12,3.08-4.56,0-4.88l-1.41-.15.65,4.79,2.79-.86c2.24-.69,2.41-4.09,0-4.71l-2.05-.52v4.71a9,9,0,0,0,4.76-3.69c1.27-1.82-.82-4.08-2.76-3.59-2.88.74-5.78,1.38-8.7,1.93l1.88,4.46,4.9-2.26c2.85-1.32.37-5.53-2.46-4.21Z"/><path class="cls-6" d="M221.38,144.51a6.89,6.89,0,0,1,4.8.68c2,1.25,2.58,4.39-.11,5.21l3.09,2.35c.14-1.32,0-5.11.8-6,2.2-2.26,2.21,3.77.61,4.55l3.59,1.46c-1-3.11-1.72-7.24-4.34-9.45a11.09,11.09,0,0,0-4.45-2c-1.32-.35-2.65-.64-4-.87-2.16-.37-1.78-.74-2.62,1.28l-1.7,1.7c2.48-.4,5.56,3.31,7.19,4.83,2.11,2,5.08,3.35,3.52,6.71a2.47,2.47,0,0,0,2.11,3.67,19.84,19.84,0,0,0,6.87-1.34l-1.88-4.46a19.85,19.85,0,0,1-3.9,2.24l2.76,3.59a8.29,8.29,0,0,1,5.13-4.42l-3-3a7.69,7.69,0,0,1-6.19,4.71c-3.09.56-1.78,5.27,1.3,4.71a12.51,12.51,0,0,0,9.59-8.11c.7-1.73-1.36-3.53-3-3a13.23,13.23,0,0,0-8.05,6.66c-.88,1.67.64,4.47,2.76,3.59a25.7,25.7,0,0,0,5.07-2.73c2.08-1.47.89-5.53-1.88-4.46a14.88,14.88,0,0,1-5.57,1.16L232,157.5c2.38-5.11,1.42-7.69-2.69-11.16-3.38-2.86-7.83-8.63-13-7.63-3.23.63-3,4.39-.49,5.74s6.24.77,9.07,1.85c3.29,1.26,3.54,4.65,4.59,7.79a2.48,2.48,0,0,0,3.59,1.46c4.66-2.26,5.45-12.08,0-14a8.8,8.8,0,0,0-6.77,1.3c-2.28,2-1.67,7.17-2,9.89a2.46,2.46,0,0,0,3.09,2.35c4.58-1.39,8.09-4.93,5.48-9.92-2.44-4.66-7.88-6.29-12.76-5.38-3.08.57-1.78,5.28,1.3,4.71Z"/><path class="cls-6" d="M212.07,168.85l2.37,1.26,2.76-3.59c-1.39-.21-2.73-.46-4.1-.78-2.57-.6-4.49,3.22-1.88,4.46a17.83,17.83,0,0,1,7,5.68c1.06,1.46,4.13,1.73,4.46-.58a19.73,19.73,0,0,0-.2-7.18l-2.35,3.09a4,4,0,0,1,3.26,1.13l.58-4.46-1.84.36,1.3,4.71a9.91,9.91,0,0,0,4.39-3l-3,.38.35.19-1.12-2.76-.06.32,3.59-1.46a17.83,17.83,0,0,1-4.43-2.64l-2.37,4.08c2.67.91,6.95,3.59,9.7,1.91s3.11-5.76,3.79-8.51c.76-3-3.95-4.35-4.71-1.3-.24,1-.48,1.94-.72,2.91,0,.06-.64,3,0,2.59-.66.47-5.83-2-6.72-2.3-2.24-.77-4.25,2.53-2.37,4.08a22.17,22.17,0,0,0,5.41,3.4c1.31.57,3.27.25,3.59-1.46l.06-.32a2.52,2.52,0,0,0-1.12-2.76l-.35-.19a2.5,2.5,0,0,0-3,.38,9.09,9.09,0,0,1-2.23,1.76c-3,.95-1.77,5.31,1.3,4.71l1.84-.36c2.26-.45,2.12-3.34.58-4.46a9.1,9.1,0,0,0-5.72-1.8,2.47,2.47,0,0,0-2.35,3.09A10.36,10.36,0,0,1,218,174l4.46-.58a22.74,22.74,0,0,0-8.79-7.43l-1.88,4.46c1.37.32,2.71.58,4.1.78,1.81.27,4.18-1.66,2.76-3.59a8.3,8.3,0,0,0-6.58-3.67c-3.13-.24-3.12,4.64,0,4.88Z"/><path class="cls-6" d="M74.89,145.07Q69.71,147,64.7,149.31c-2.26,1-1.06,4.57,1.23,4.55A23.34,23.34,0,0,0,78.79,150a2.47,2.47,0,0,0,0-4.21c-.79-.49-2.95-.43-3.4-.85-.23-.21-1.14-4.24-1.47-5.08a35.25,35.25,0,0,0-2-4.64c-.79-1.41-2.35-2.24-3-3.62l-3.34,3.34a5.34,5.34,0,0,1,2.92,2.85c1.32,2.85,5.52.37,4.21-2.46A8.74,8.74,0,0,0,68,130.7,2.46,2.46,0,0,0,64.66,134c.75,1.5,2.17,2.24,3,3.62a31.55,31.55,0,0,1,2.82,7.25c.41,1.3.66,2.77,1.7,3.75,1.25,1.18,2.82.52,4.1,1.31v-4.21A18.53,18.53,0,0,1,65.93,149l1.23,4.55c3-1.37,6-2.62,9-3.75s1.66-5.8-1.3-4.71Z"/><path class="cls-6" d="M74.21,151.64q.54-.25-.08,0a3.68,3.68,0,0,0-.65.21,4.64,4.64,0,0,0-1.57,1,23.78,23.78,0,0,0-2.36,2.92,2.45,2.45,0,0,0,3,3.83,45.18,45.18,0,0,0,4.16-2.26,13.75,13.75,0,0,0,3.56-2.49,2.51,2.51,0,0,0,0-3.45,2.46,2.46,0,0,0-3.45,0,11.7,11.7,0,0,1-3,2c-1.21.72-2.44,1.39-3.71,2l3,3.83a15.7,15.7,0,0,1,2.16-2.77c.64-.41,1.77-.55,2.51-1.29,2.23-2.22-1.22-5.67-3.45-3.45Z"/><path class="cls-7" d="M103.64,150.72a20.3,20.3,0,0,0-4.46,1.46l1.23,2.11,3.22-1.81-1.23-2.11-2.89,1.74L101,154a11.13,11.13,0,0,1,5.07-2.61l-1.38-1.79a11.85,11.85,0,0,1-3.5,4.25c-1.08.84.36,2.74,1.48,1.92a31.22,31.22,0,0,1,5.66-3.32l-1.23-2.11a33.48,33.48,0,0,1-7.51,3.85l.94,2.23c1.8-.84,3.61-1.62,5.47-2.33l-.94-2.23a11.7,11.7,0,0,1-5.41,2.28l.94,2.23a77.79,77.79,0,0,1,7.79-4.62c1.2-.62.35-2.76-.94-2.23l-2.27.93.94,2.23A31.74,31.74,0,0,1,110,151l-.94-2.23-1.55,1.15a1.22,1.22,0,0,0,1.23,2.11l4.3-1.91L111.81,148c-2.63,1.22-5.2,2.52-7.74,3.92-1,.55-.62,2.44.62,2.27l6.69-.9-.32-2.4-7.67,3.16a1.22,1.22,0,0,0,.65,2.35l15.88-3.24-.65-2.35a83.78,83.78,0,0,1-8.61,2.49c-1.53.36-.88,2.68.65,2.35L119,154l-.65-2.35a67.52,67.52,0,0,1-13.84,2l.86,2.08a22.5,22.5,0,0,1,5.19-3.24c1.06-.49.58-2.43-.62-2.27l-1.64.21c-1.51.19-1.61,2.51,0,2.44l6.61-.28-.32-2.4a18.91,18.91,0,0,1-4.3.93c-1.53.2-1.57,2.62,0,2.44l13-1.52-.32-2.4q-6.51,2.32-13.17,4.11a1.22,1.22,0,0,0,.65,2.35l18-4.45-.65-2.35a48.89,48.89,0,0,1-5.64,1.5l.65,2.35A114.23,114.23,0,0,1,134.62,150c1.56-.32.88-2.6-.65-2.35a41.38,41.38,0,0,0-5.66,1.33,1.22,1.22,0,0,0,.65,2.35l5.74-1a1.23,1.23,0,0,0-.32-2.4l-2.06.15.62,2.27c1.55-.73,1.24-.48,2.3-1.82.78-1-.24-2.79-1.48-1.92l-3,2.13c-.87.62-.71,2.42.62,2.27l5.42-.6-.32-2.4-3.08.8c-1.29.34-1.08,2.53.32,2.4l4.09-.4-.62-2.27a11.64,11.64,0,0,1-4.29,1.9l.65,2.35a47.8,47.8,0,0,0,6.7-2.93,1.23,1.23,0,0,0-.29-2.23l-4.49-1.4.54,2,2.08-1.55c1.25-.66.38-2.56-.94-2.23l-1.17.29c-1.31.32-1.07,2.5.32,2.4l1.81-.14L137,145.22a26.66,26.66,0,0,0-1.57,3.62c-.52,1.49,1.84,2.12,2.35.65a14.68,14.68,0,0,1,1.33-3,1.23,1.23,0,0,0-1.05-1.84l-1.81.14.32,2.4,1.17-.29-.94-2.23a6.17,6.17,0,0,0-2.57,1.93,1.23,1.23,0,0,0,.54,2l4.49,1.4-.29-2.23a44,44,0,0,1-6.12,2.68c-1.47.51-.88,2.8.65,2.35a19.2,19.2,0,0,0,4.87-2.14c1-.59.65-2.4-.62-2.27l-4.09.4.32,2.4,3.08-.8c1.29-.33,1.07-2.55-.32-2.4l-5.42.6.62,2.27,3-2.13-1.48-1.92-1.81,1.44a1.23,1.23,0,0,0,.62,2.27l2.06-.15-.32-2.4-5.74,1,.65,2.35a41.38,41.38,0,0,1,5.66-1.33l-.65-2.35a114.23,114.23,0,0,0-11.81,3.08,1.22,1.22,0,0,0,.65,2.35,48.89,48.89,0,0,0,5.64-1.5,1.22,1.22,0,0,0-.65-2.35l-18,4.45.65,2.35q6.67-1.79,13.17-4.11c1.2-.43,1.13-2.57-.32-2.4l-13,1.52v2.44a30.7,30.7,0,0,0,5-1,1.23,1.23,0,0,0-.32-2.4l-6.61.28v2.44l1.64-.21-.62-2.27a26,26,0,0,0-5.68,3.63,1.23,1.23,0,0,0,.86,2.08A70.74,70.74,0,0,0,119,154c1.53-.38.88-2.68-.65-2.35l-7.68,1.66.65,2.35a83.78,83.78,0,0,0,8.61-2.49,1.22,1.22,0,0,0-.65-2.35l-15.88,3.24.65,2.35,7.67-3.16c1.13-.47,1.17-2.6-.32-2.4l-6.69.9.62,2.27c2.54-1.4,5.11-2.7,7.74-3.92,1.43-.66.19-2.74-1.23-2.11l-4.3,1.91,1.23,2.11,1.55-1.15c1-.75.47-2.78-.94-2.23s-3,1.25-4.48,2c-1.22.61-.35,2.76.94,2.23l2.27-.93-.94-2.23a77.79,77.79,0,0,0-7.79,4.62,1.23,1.23,0,0,0,.94,2.23,12.5,12.5,0,0,0,6-2.53c1-.75.47-2.77-.94-2.23-2.05.79-4.06,1.64-6,2.58-1.24.58-.36,2.7.94,2.23a35.84,35.84,0,0,0,8.1-4.1,1.22,1.22,0,0,0-1.23-2.11,31.22,31.22,0,0,0-5.66,3.32l1.48,1.92a12.79,12.79,0,0,0,3.88-4.75,1.24,1.24,0,0,0-1.38-1.79,17.14,17.14,0,0,0-6.15,3.24c-1.09.87.31,2.62,1.48,1.92l2.89-1.74a1.22,1.22,0,0,0-1.23-2.11l-3.22,1.81c-1.4.78-.17,2.73,1.23,2.11a12.59,12.59,0,0,1,3.88-1.21c1.54-.31.89-2.66-.65-2.35Z"/><path class="cls-7" d="M115.09,154c-4.46,1.32-8.79,3-13.11,4.71-2.84,1.15-1.83,5.5,1.3,4.71a153.13,153.13,0,0,1,22.33-4.16l-.65-4.79c-5,1.47-10.14,2.33-15.21,3.45-3.11.68-6.48,1.18-8.91,3.39-1.62,1.48-.3,4.12,1.73,4.17,5.3.13,10.72-1.8,16-2.4l-.65-4.79c-2.81.38-5.49,1.37-8.32,1.59l1.73,4.17c3-3.63,8.85-2.92,12.6-5.61,1.39-1,1.76-3.3,0-4.21a10.16,10.16,0,0,0-5.11-1.09l1.73,4.17c.69-.55,2.57-.43,3.42-.58,2.31-.4,4.59-.92,6.91-1.27l-1.3-4.71c-2.12.85-4.36.76-6.6.93l.65,4.79c3.43-.67,6.9-.88,10.28-1.83,2.55-.72,2.17-5.09-.65-4.79a27.37,27.37,0,0,0-6.3,1.33c-3,1.06-1.76,5.13,1.3,4.71a22.7,22.7,0,0,1,5.94-.45l-1.23-4.55-1.72.92c-2.37.87-2.28,5.15.65,4.79,1.32-.16,2.52-.33,3.83-.57,3.09-.55,1.78-5.24-1.3-4.71l-1,.17,1.3,4.71c1.26-.33,2.49-.72,3.75-1.05L136.09,151a14,14,0,0,1-2.9,1.34l1.3,4.71c2-.82,3.89-1.73,5.81-2.68l-2.46-4.21a30.43,30.43,0,0,0-4.45,2.42c-1.83,1.41-1.39,4.48,1.23,4.55,3,.08,7-1.24,9.73.32l-.49-3.83c-1.45,1.68-6.09.7-7.62-.4v4.21c3.58-2.27,8.73,3.1,12.54.21,1.13-.86,1.83-2.71.49-3.83-2.65-2.23-6.13-2.54-8.78-4.62l-2.37,4.08c4.08,1.26,8.14,2.54,12.12,4.07l1.3-4.71c-4.21-1.37-10.72-3-14.93-.88a2.47,2.47,0,0,0-.88,3.34c2.37,4.25,8.77,4.44,13,4.78,9.54.76,19.07,1.37,28.57,2.57l-.65-4.79c-2.89,1.18-6.25,1.1-9.34,1.54l-11.57,1.68c-6.26.9-12.77.89-18.84,2.8-2.09.66-2.55,4.33,0,4.71,6.54,1,12.93.43,19.48-.15s12.83-.69,19.19-1.72c2.74-.44,2.05-4.84-.65-4.79-14.36.24-28.78,2.06-43.11,2l.65,4.79c6.52-1.6,13.3-.29,19.83-2,2.69-.71,2.09-4.73-.65-4.79-13.89-.31-28.06.38-41.94,1v4.88a123.21,123.21,0,0,0,16.7-2.22c2.76-.58,2-4.73-.65-4.79-6.67-.15-13.27.89-19.92,1l.65,4.79a132.73,132.73,0,0,1,22.81-6.15l-1.3-4.71a51.49,51.49,0,0,0-7.09,2.12,2.44,2.44,0,0,0,1.3,4.71,144.64,144.64,0,0,1,15.09-2.17l-.65-4.79c-3.35,1.36-7.91.84-10.74,3.2-1.63,1.36-.3,4.25,1.73,4.17,5-.21,10-.83,15-1.38l-2.11-3.67c.78-1.1-1.29,0-2,.12-1,.23-2,.41-3,.61a25.12,25.12,0,0,0-5.18,1.42c-2.3,1-1,4.57,1.23,4.55,6.57-.07,12.93-1.76,19.47-2.22l-1.23-4.55c-3.33,1.73-7.09,2.17-10.66,3.18-3,.87-1.76,5.33,1.3,4.71,4.18-.85,8.27-2,12.53-2.42l-.65-4.79c-9.55,1.89-19.26,2.22-29,2.16q-6.7,0-13.41-.22c-2.42-.07-4.83-.16-7.25-.34-1.45-.11-5.49.08-6.57-1.23l.38,3a2.65,2.65,0,0,1,2.07-1.26,2.46,2.46,0,0,0,0-4.71c-2.54-1-5.27-.11-7.91-.09l.65,4.79a97.76,97.76,0,0,1,16.17-2.6l-.65-4.79A28,28,0,0,0,99,155.16c-2.31,1.16-1,4.42,1.23,4.55,3.52.2,6.81-1,10.19-1.83,3.06-.74,1.76-5.4-1.3-4.71a10,10,0,0,1-3.61.52l1.23,4.55,2-1c2.13-.78,2.5-4.08,0-4.71a8,8,0,0,0-3-.31,2.45,2.45,0,0,0-.65,4.79c6,1.86,12.49,1.84,18.73,2.6,6.77.82,13.55.21,20.26,1,6.16.68,10.79,4.23,16.09,6.88,3.17,1.59,6.51,2.39,8.68-1,1.71-2.64-2.51-5.09-4.21-2.46-.21.33-8.82-4.76-9.86-5.17-4.76-1.87-8.93-3.26-14.08-3.29a138.62,138.62,0,0,1-15.93-.72c-6.1-.72-12.48-.72-18.37-2.54l-.65,4.79,1.74.13v-4.71a14.3,14.3,0,0,0-3.17,1.5c-2.22,1.37-1.07,4.27,1.23,4.55a14.07,14.07,0,0,0,4.91-.7l-1.3-4.71c-2.94.71-5.83,1.83-8.89,1.66l1.23,4.55c2.06-1,4.41-1.27,6.65-1.68,2.69-.49,2.09-5-.65-4.79A103.09,103.09,0,0,0,90,155.67c-2.68.67-2.1,4.81.65,4.79,2.11,0,4.6-.88,6.61-.09v-4.71a8.53,8.53,0,0,0-5,3.5,2.5,2.5,0,0,0,.38,3c2.24,2.74,6.81,2.41,10,2.66,5.68.44,11.39.45,17.08.52,11.34.15,22.69-.1,33.85-2.3,2.67-.53,2.1-5-.65-4.79-4.7.42-9.22,1.66-13.83,2.6l1.3,4.71c4-1.14,8.08-1.74,11.82-3.68,2.1-1.09,1.18-4.72-1.23-4.55-6.53.46-12.91,2.15-19.47,2.22l1.23,4.55c3.54-1.54,9.55-.42,12-3.9a2.45,2.45,0,0,0-2.11-3.67c-5,.55-10,1.17-15,1.38l1.73,4.17c.57-.48,2.53-.43,3.21-.55a25.54,25.54,0,0,0,5.37-1.4c2.3-.93,2.35-5.07-.65-4.79a157.12,157.12,0,0,0-16.39,2.35l1.3,4.71a51.45,51.45,0,0,1,7.09-2.12c3.1-.62,1.76-5.24-1.3-4.71a132.71,132.71,0,0,0-22.81,6.15c-2.44.91-2.27,4.86.65,4.79,6.66-.16,13.25-1.2,19.92-1l-.65-4.79a115.74,115.74,0,0,1-15.41,2c-3.11.21-3.16,5,0,4.88,13.88-.59,28.06-1.28,41.94-1l-.65-4.79c-6.5,1.72-13.29.42-19.83,2-2.69.66-2.09,4.79.65,4.79,14.33,0,28.75-1.79,43.11-2l-.65-4.79c-5.92,1-11.93,1-17.89,1.54s-12.12,1.22-18.19.33v4.71c6.05-1.9,12.59-1.89,18.84-2.8L167.76,164c3.5-.5,6.93-.31,10.23-1.67a2.45,2.45,0,0,0-.65-4.79c-8-1-16-1.68-24-2.25-3.05-.22-11.71.36-13.41-2.68l-.88,3.34c2.76-1.38,8.49.5,11.16,1.37,3,1,4.17-3.6,1.3-4.71-4-1.54-8-2.81-12.12-4.07-2.2-.68-4.34,2.54-2.37,4.08,2.67,2.09,6.23,2.48,8.78,4.62l.49-3.83c-1.23.94-5-.79-6.56-1-2.11-.32-4.14-.35-6,.82a2.48,2.48,0,0,0,0,4.21c3.27,2.38,10.67,3,13.53-.36a2.48,2.48,0,0,0-.49-3.83c-3.88-2.19-8-.87-12.2-1l1.23,4.55a30.43,30.43,0,0,1,4.45-2.42c2.79-1.5.33-5.59-2.46-4.21-1.54.76-3.06,1.53-4.65,2.19-2.83,1.17-1.69,5.82,1.3,4.71a15.7,15.7,0,0,0,5.05-2.6c1.94-1.64-.15-4.66-2.37-4.08-1.26.33-2.49.72-3.75,1.05-3.08.82-1.75,5.24,1.3,4.71l1-.17-1.3-4.71-2.53.39.65,4.79a11,11,0,0,0,2.89-1.42c2.13-1.43,1.14-4.26-1.23-4.55s-4.81.28-7.24.62l1.3,4.71a21.25,21.25,0,0,1,5-1.15l-.65-4.79c-3.37.95-6.85,1.16-10.28,1.83-2.68.52-2.1,5,.65,4.79s5.37-.1,7.9-1.11a2.44,2.44,0,0,0-1.3-4.71c-3.7.55-9.42.66-12.48,3.1-1.74,1.38-.21,4.14,1.73,4.17a4.53,4.53,0,0,1,2.65.43v-4.21c-4.23,3-10.06,2-13.58,6.37-1.2,1.47-.59,4.35,1.73,4.17,3.29-.26,6.37-1.32,9.62-1.77,2.7-.37,2.09-5.1-.65-4.79-5.22.59-10.81,2.52-16,2.4l1.73,4.17c1.95-1.78,5.77-1.91,8.24-2.46,4.57-1,9.22-1.79,13.72-3.12,2.53-.75,2.19-5.08-.65-4.79A161.87,161.87,0,0,0,102,158.66l1.3,4.71c4.31-1.75,8.64-3.39,13.11-4.71,3-.89,1.73-5.6-1.3-4.71Z"/><path class="cls-7" d="M209.73,163a5.33,5.33,0,0,1,2.26-2.61c1.87-1.28,1.35-4.65-1.23-4.55a14.57,14.57,0,0,0-5.94,1.46c-2.59,1.19-.71,5.09,1.88,4.46l1.09-.26L205.91,157a16.44,16.44,0,0,1-4.27,1.75l1.88,4.46a26.56,26.56,0,0,1,5-1.54l-1.3-4.71c-5.94,2.4-11.85,5.07-18.09,6.63-5.26,1.31-9.86,4.68-15.07,5.69l1.3,4.71c13.49-3.05,26.23-8.68,39.82-11.36l-1.3-4.71q-8.21,2.46-16.57,4.3l1.3,4.71a53.26,53.26,0,0,1,10.73-2.61l-.65-4.79q-4.56,1-9.05,2.28c-3,.85-1.76,5.45,1.3,4.71a53.42,53.42,0,0,1,6.24-1.18l-.65-4.79a32,32,0,0,1-5.33,1.67l2.37,4.08c3.18-2.71,9.32-2.4,8-8.12l-3,3a55.59,55.59,0,0,1,6.25,2.05v-4.71l-2.54.55c-2.25.49-2.41,4.35,0,4.71l2.47.37.65-4.79-2,.26c-2.05.27-3.75,3.43-1.23,4.55l1.19.53.58-4.46-7.63,1.08c-2.76.39-2,4.82.65,4.79l5.17-.06-.65-4.79-5.67,1.35c-3.08.73-1.76,5.31,1.3,4.71a81.92,81.92,0,0,1,13.09-1.52c3.13-.11,3.15-5,0-4.88a90.39,90.39,0,0,0-14.38,1.69l1.3,4.71,5.67-1.35c2.69-.64,2.1-4.82-.65-4.79l-5.17.06.65,4.79,7.63-1.08c2-.29,2.43-3.64.58-4.46l-1.19-.53-1.23,4.55,2-.26c2.42-.32,3.66-4.35.65-4.79l-2.47-.37v4.71l2.54-.55c2.59-.56,2-3.9,0-4.71a55.59,55.59,0,0,0-6.25-2.05,2.47,2.47,0,0,0-3,3c-.24-1-6.37,3.05-6.74,3.37-2,1.69.18,4.56,2.37,4.08a32,32,0,0,0,5.33-1.67c2.27-.93,2.35-5.16-.65-4.79a65.05,65.05,0,0,0-7.54,1.35l1.3,4.71q4.5-1.27,9.05-2.28c2.63-.58,2.11-5.15-.65-4.79a59.41,59.41,0,0,0-12,2.78,2.44,2.44,0,0,0,1.3,4.71q8.37-1.83,16.57-4.3c3-.91,1.76-5.31-1.3-4.71-13.58,2.68-26.33,8.31-39.82,11.36-3.08.7-1.76,5.3,1.3,4.71,5.3-1,9.78-4.37,15.07-5.69,6.24-1.56,12.14-4.23,18.09-6.63,2.86-1.15,1.84-5.39-1.3-4.71a33.48,33.48,0,0,0-6.15,2c-2.6,1.11-.72,5.14,1.88,4.46a21.1,21.1,0,0,0,5.44-2.25c2.42-1.41.79-5.11-1.88-4.46l-1.09.26,1.88,4.46,3.48-.79-1.23-4.55a11.78,11.78,0,0,0-4,4.37c-1.49,2.77,2.72,5.23,4.21,2.46Z"/><path class="cls-7" d="M212.11,147.26a44.19,44.19,0,0,0,7.93-3.77l-3-3.83L215.63,141c-2,1.8.2,4.42,2.37,4.08a37.2,37.2,0,0,1,4.27-.39l-.65-4.79a16.46,16.46,0,0,0-3.44,1.46,2.47,2.47,0,0,0-.49,3.83,18.82,18.82,0,0,0,3.37,2.84c2.63,1.77,5-2.42,2.46-4.21a27.11,27.11,0,0,0-2.75-1.72l-1.88,4.46,1.1.66,1.23-4.55a13.25,13.25,0,0,1-4-.26l-1.3,4.71,9.94,2c2.63.52,4.37-3,1.88-4.46l-4.5-2.65c-2-1.17-4.81,1.28-3.34,3.34a13.22,13.22,0,0,0,4.14,3.89c2.23,1.33,4.34-1.24,3.34-3.34-1.16-2.44-2.26-4.91-3.27-7.42l-4.46,1.88a35.31,35.31,0,0,1,4.11,9.94c.75,3,5.46,1.76,4.71-1.3a39.77,39.77,0,0,0-4.6-11.11c-1.37-2.27-5.53-.77-4.46,1.88q1.76,4.35,3.76,8.59l3.34-3.34a7.39,7.39,0,0,1-2.39-2.14l-3.34,3.34,4.5,2.65,1.88-4.46-9.94-2c-3.06-.61-4.38,4-1.3,4.71a17.8,17.8,0,0,0,5.27.43,2.46,2.46,0,0,0,1.23-4.55,8.91,8.91,0,0,0-2.27-1.15c-2.6-1-4.27,3.15-1.88,4.46a27.11,27.11,0,0,1,2.75,1.72l2.46-4.21a12.88,12.88,0,0,1-2.38-2.08l-.49,3.83a6.53,6.53,0,0,1,2.27-1c2.56-.77,2.18-4.91-.65-4.79a48.64,48.64,0,0,0-5.57.56l2.37,4.08,1.46-1.32c2.07-1.86-.6-5.26-3-3.83a37.62,37.62,0,0,1-6.77,3.28c-2.93,1.06-1.67,5.78,1.3,4.71Z"/><path class="cls-7" d="M84.72,155.65l.31.19q-.38-.3-.07,0c.16.19.34.37.5.56-.38-.45,0,0,.07.11l.45.61a6.13,6.13,0,0,0,3.14,2.4,2.47,2.47,0,0,0,3-1.7,2.49,2.49,0,0,0-1.7-3q-.39-.13.09.05l-.3-.19c.48.29.08,0,0-.09l-.24-.28.09.12-.39-.54a8.06,8.06,0,0,0-2.45-2.43,2.44,2.44,0,0,0-2.46,4.21Z"/><path class="cls-6" d="M83.95,156.73c3.92,4.65,10.89,6.06,16,9.06l1.23-4.55a14,14,0,0,1-6.73-1.9c-2.76-1.49-5.23,2.71-2.46,4.21,10,5.44,21.25,6.19,32.43,5.21,2.52-.22,3.57-4.3.65-4.79a69.54,69.54,0,0,1-14-4c-4.56-1.79-8.41-1.72-13.12-2.47A2.45,2.45,0,0,0,96.07,162c4.52,3.17,11.68,3.31,17,4,2.85.39,5.72.72,8.59.88,1.71.1,3.42.09,5.14.12h1.59q2.93.92,1.56-2.61c-2.58-1-4.28,3.17-1.88,4.46A15.83,15.83,0,0,0,138,171c2.11-.28,4.07-1.14,6.16-1.49,2.82-.48,5,.31,7.54,1.38,2.89,1.21,4.16-3.51,1.3-4.71s-5.5-2-8.59-1.64c-5,.64-8.82,2.89-13.85.18l-1.88,4.46c6.08,2.42,9.53-5.36,2.9-6.74-4.84-1-10.25-.27-15.19-.83-5.24-.59-13.44-.71-17.82-3.79l-1.88,4.46c4.65.74,8.65.72,13.12,2.47a69.6,69.6,0,0,0,14,4l.65-4.79c-10.29.91-20.71.49-30-4.54L92,163.57a20.7,20.7,0,0,0,9.19,2.56c2.47.13,3.25-3.37,1.23-4.55-4.58-2.68-11.58-4.22-15-8.3-2-2.4-5.47,1.06-3.45,3.45Z"/><path class="cls-8" d="M66.71,129.5c-1.51-2.44-3.55-4.42-5.24-6.72a28.8,28.8,0,0,1-3.81-8.52c-1-3-5.67-1.71-4.71,1.3a37.46,37.46,0,0,0,3.61,8.67c1.74,2.76,4.22,5,5.94,7.73s5.87.22,4.21-2.46Z"/><path class="cls-8" d="M64.63,151.55C59,153.92,54,153.11,49.49,157.79a2.46,2.46,0,0,0,2.37,4.08,65.32,65.32,0,0,0,9-2.24,29.12,29.12,0,0,1,3.94-1.46c.88-.14,3.31-.73,1.26,1.07l2.37-.63.79.3c-.09-2.64-4.2-3.45-4.79-.65-1.44,6.79,4.12,10.93,8.89,14.81,2,1.59,5.58-.51,3.83-3a35.51,35.51,0,0,1-5-9.78c-1-3-5.69-1.7-4.71,1.3a39.89,39.89,0,0,0,5.51,10.95l3.83-3c-2.64-2.15-8.48-6.06-7.63-10.06l-4.79-.65c.26,7.58,8.71,3.67,7.79-2.38-.41-2.7-3-4.14-5.56-3.94s-4.74,1.58-7,2.34a65.25,65.25,0,0,1-9,2.24l2.37,4.08c3.48-3.62,8.51-3.11,13-5,2.86-1.19,1.6-5.92-1.3-4.71Z"/><path class="cls-8" d="M97.69,170a36.05,36.05,0,0,1,1.83,7.68l4.55-1.23a54.62,54.62,0,0,1-3-6c-1.08-2.56-5.24-.73-4.46,1.88a26.67,26.67,0,0,1,1.18,6.53l4.55-1.23a20.8,20.8,0,0,1-1.79-4.37,2.45,2.45,0,0,0-4.79.65c-.22,3.26.07,6.13,2.48,8.49,1.22,1.2,3.73.78,4.08-1.08a57.58,57.58,0,0,1,3-10.57l-4.46.58c1.23,2.38,0,6-.29,8.52a41.79,41.79,0,0,0-.14,7.38l4.17-1.73a11.1,11.1,0,0,1-2.88-3c-1.8-2.51-6-.19-4.21,2.46a31.33,31.33,0,0,0,6.75,7.44c1.87,1.48,4.64.15,4.08-2.37-.78-3.52-3.37-6.64-3.51-10.25L100.3,181a49,49,0,0,0,9.92,10.57l2.37-4.08c-2.29-.43-4.54-.95-6.79-1.55-1.62-.44-3.75,1.21-3,3,2.27,5.44,10.07,7.67,15.32,9.05a65,65,0,0,0,10.09,2c2.87.28,4.77-.78,7.32-2,1.55-.75,1.64-3.49,0-4.21-3.45-1.52-6.57-1.16-10.27-1.34a30.85,30.85,0,0,1-13.92-4.19c-2.74-1.55-5.2,2.66-2.46,4.21a36.2,36.2,0,0,0,11,4.22c4.14.8,9.38-.38,13.21,1.31v-4.21c-4.31,2.09-8.33.89-12.87-.24-3.15-.79-11.27-2.44-12.69-5.84l-3,3c2.25.61,4.5,1.12,6.79,1.55,2.11.4,4.49-2.42,2.37-4.08a44.8,44.8,0,0,1-9.16-9.58c-1.3-1.85-4.65-1.37-4.55,1.23.16,4.28,2.77,7.48,3.68,11.55l4.08-2.37a27.51,27.51,0,0,1-6-6.45l-4.21,2.46a19.75,19.75,0,0,0,3.64,4c1.49,1.23,4.31.57,4.17-1.73-.37-6,2.63-12.83-.23-18.36-1.06-2-3.75-1.21-4.46.58a57.58,57.58,0,0,0-3,10.57l4.08-1.08c-1.44-1.42-1.16-3.31-1-5l-4.79.65A41,41,0,0,0,98.13,180c1.07,2.15,4.69,1.15,4.55-1.23a33.62,33.62,0,0,0-1.35-7.83l-4.46,1.88a54.62,54.62,0,0,0,3,6c1.13,2,4.85,1.27,4.55-1.23a42.07,42.07,0,0,0-2-9c-1-2.95-5.74-1.68-4.71,1.3Z"/><path class="cls-8" d="M58.39,193.91c-2.21,4.68,4.67,5.55,7.6,6.42l1.3-4.71a18.54,18.54,0,0,0-4.22-.34c-1.69,0-3.26,2.11-2.11,3.67,2.59,3.5,7.85,2.21,11.67,1.89,4.48-.38,9.89-.69,13.13-4.17a2.46,2.46,0,0,0-2.37-4.08,51.19,51.19,0,0,1-15.91,1.29v4.88c8.35,0,16.25-2.17,24.19-4.56l-1.3-4.71c-3.45,1-6.82,2.25-10.15,3.62-2.34,1-2.35,4.93.65,4.79l9.25-.41-.65-4.79-5.4,1.23,1.3,4.71a52.4,52.4,0,0,0,18-11.31c2.32-2.17-1.1-5.48-3.45-3.45a23.92,23.92,0,0,1-6.5,4.07c-2.26,1-2.37,5.1.65,4.79l7.14-.72L100,187.47a19.72,19.72,0,0,1-11.74,3.83l1.23,4.55c6-3.48,12.9-6.66,18.25-11.12,2.43-2,3.83-4.65,5.89-7a58.51,58.51,0,0,1,8.18-7.27l-4.08-2.37c-.53,2.8-2.2,4.68-4.13,6.64l3.45,3.45c.75-.83,2.85-4.08,4-4.16l-2.11-1.21c.49.69-9.14,5.66-10,6.2a62.5,62.5,0,0,0-8.64,6.48c-2.36,2.08,1.1,5.52,3.45,3.45a36.76,36.76,0,0,1,10.43-6.52l-2.76-3.59a8,8,0,0,1-4.66,4.08l2.37,4.08,7.35-6-4.08-1.08,0,1.43c-.89,3,3.81,4.31,4.71,1.3a5.18,5.18,0,0,0,0-4,2.48,2.48,0,0,0-4.08-1.08l-7.35,6c-1.89,1.54.14,4.84,2.37,4.08a12.68,12.68,0,0,0,7.58-6.32c.89-1.68-.65-4.45-2.76-3.59a44,44,0,0,0-12.59,7.78l3.45,3.45a58,58,0,0,1,11.74-8c2.9-1.51,7-3.35,8.23-6.7.69-1.9.12-4.32-2-5-3.45-1.18-6.28,3.48-8.1,5.5-2.09,2.32,1.23,5.7,3.45,3.45,2.57-2.61,4.69-5.12,5.39-8.79a2.46,2.46,0,0,0-4.08-2.37,65.24,65.24,0,0,0-7.62,6.64c-2.13,2.29-3.64,5.18-6,7.2-5.11,4.37-11.9,7.44-17.7,10.8a2.46,2.46,0,0,0,1.23,4.55,24.46,24.46,0,0,0,14.2-4.5c1.77-1.24,1.41-4.81-1.23-4.55l-7.14.72.65,4.79a31.74,31.74,0,0,0,8.66-5.32l-3.45-3.45a46.41,46.41,0,0,1-15.84,10.05,2.44,2.44,0,0,0,1.3,4.71l5.4-1.23c2.67-.61,2.11-4.92-.65-4.79l-9.25.41.65,4.79c3.33-1.37,6.7-2.57,10.15-3.62,3-.91,1.72-5.62-1.3-4.71-7.51,2.26-15,4.38-22.89,4.39-3.17,0-3.1,4.66,0,4.88a55.63,55.63,0,0,0,17.21-1.46l-2.37-4.08c-2.22,2.38-6.7,2.48-9.68,2.74-1.09.1-7.19.88-7.46.53l-2.11,3.67,2.92.17c3,.5,4.38-3.8,1.3-4.71-.36-.11-4.64-1-4.87-1.3v2.46l.19-.41c1.33-2.83-2.87-5.31-4.21-2.46Z"/><path class="cls-8" d="M137.57,172.72a12.2,12.2,0,0,0-2.08,4.27,2.44,2.44,0,1,0,4.71,1.3c.09-.32.19-.62.29-.93s.12-.3,0-.09l.21-.44a10.55,10.55,0,0,1,1.05-1.64,2.45,2.45,0,0,0-.88-3.34,2.52,2.52,0,0,0-3.34.88Z"/><path class="cls-8" d="M156.6,175.71l6.58,5.29a2.48,2.48,0,0,0,4.08-1.08,38.81,38.81,0,0,0,1.58-6.54l-4.46.58a37,37,0,0,0,5.63,7.77,2.47,2.47,0,0,0,4.17-1.73l.07-2.49-4.79.65c.62,3-1.22,5.3-3,7.48h3.45a7.87,7.87,0,0,1-1.8-5.17l-4.79.65a4.87,4.87,0,0,1-.18,4l4.71,1.3a12.64,12.64,0,0,1,1.44-4.45l-2.11,1.21c-.68-.07-3.4,3.11-4.25,3.88a12.59,12.59,0,0,1-3.5,2.21,14.37,14.37,0,0,0-4.2,2.4c-1.73,1.55.09,5,2.37,4.08,4.22-1.75,8.27-3.56,11.39-7,2.1-2.32-1.34-5.79-3.45-3.45-2.54,2.81-5.79,4.32-9.24,5.75l2.37,4.08c1.78-1.59,4.55-2.05,6.49-3.56a17.94,17.94,0,0,0,4.89-5.36c1.6-3.07,1.06-7.49-2.87-7.9a2.44,2.44,0,0,0-2.11,1.21,16,16,0,0,0-1.94,5.62,2.44,2.44,0,0,0,4.71,1.3,10.87,10.87,0,0,0,.18-6.59c-.69-2.64-4.85-2.13-4.79.65a13.48,13.48,0,0,0,3.23,8.62,2.44,2.44,0,0,0,3.45,0c3-3.74,5.24-7.3,4.23-12.23-.57-2.77-4.72-2-4.79.65L169.3,180l4.17-1.73a32,32,0,0,1-4.87-6.78c-.93-1.71-4.14-1.54-4.46.58a38.81,38.81,0,0,1-1.58,6.54l4.08-1.08-6.58-5.29c-2.43-1.95-5.9,1.48-3.45,3.45Z"/><path class="cls-8" d="M173.14,182.85a17.84,17.84,0,0,0,10.48,3.33c2.7,0,3.38-4.19.65-4.79l-6.5-1.44c-2.65-.59-4.33,3-1.88,4.46,9.46,5.63,22.47-1.93,29.25-8.67,2.23-2.22-1.22-5.67-3.45-3.45-5.06,5-16,12.27-23.34,7.91l-1.88,4.46,6.5,1.44.65-4.79a13.43,13.43,0,0,1-8-2.67c-2.57-1.82-5,2.41-2.46,4.21Z"/><path class="cls-8" d="M206.89,179.86c.43,1.29,1.83,3.9,1.61,5.3s-1.91,2.51-2.88,3.15c-1.39.92-1.78,3.4,0,4.21,3,1.4,8.49-1,10.28-3.74a5.49,5.49,0,0,0,.39-5.52,13.56,13.56,0,0,0-1.76-2.61c-.32-.42-.65-.82-1-1.25-.72-1-.24-.85-1.22-.34l-1.88.25q.68.61.35-.28c-.56,3.07,4.14,4.39,4.71,1.3a4.81,4.81,0,0,0-2.67-5.37A3.34,3.34,0,0,0,208,177.4c-.48,2.42,1.28,4.35,2.64,6.11,1.13,1.46,2.09,2.34,0,3.45a15.55,15.55,0,0,1-3.91,1.34l1.88.25-.51-.23v4.21a12.2,12.2,0,0,0,4.86-5.39c1.13-2.86-.43-5.84-1.34-8.57-1-3-5.7-1.69-4.71,1.3Z"/><path class="cls-8" d="M217,178.4c3.2,4,6.05,8.24,5.2,13.62-.47,3-1.26,5.45-.25,8.46.82,2.45,5.08,2.24,4.79-.65-.58-5.77-.06-11.28.09-17a14.79,14.79,0,0,0-3.31-10.46c-1.53-1.84-4.94.13-4.08,2.37a94.77,94.77,0,0,1,4.48,15.63c.6,3.08,5.31,1.78,4.71-1.3a94.77,94.77,0,0,0-4.48-15.63L220,175.78c2.85,3.43,1.76,8.13,1.51,12.18a73,73,0,0,0,.28,11.87l4.79-.65c-1.4-4.18,1.32-8.9.1-13.43-1.1-4.11-3.69-7.53-6.3-10.8-2-2.45-5.39,1-3.45,3.45Z"/><path class="cls-8" d="M228.89,170.44a27,27,0,0,0,11.8,1c4.23-.63,8-2.6,12-3.93l-2.37-4.08c-1.83,2.18-7.63,2.48-10.23,2.83-3.1.42-1.78,5.12,1.3,4.71,3.83-.51,9.7-.89,12.39-4.09,1.44-1.72.13-4.91-2.37-4.08-7.42,2.46-13.25,5.33-21.24,3-3-.9-4.31,3.81-1.3,4.71Z"/><path class="cls-8" d="M228.13,180.21a29,29,0,0,0,6.1-1.93,24.35,24.35,0,0,0,2.91-1.55,11.58,11.58,0,0,0,1.37-.92q1.82-.88-1.09-1.26l1.46-3.59c-.64.11-6.18.35-6.35.88l-4.46.58-.41-1.89c-2.39-.8-4,2.4-2.37,4.08,7.52,7.79,11.07-8.73,12.8-12.51l-4.46-.58c.51,1.39,1.08,2.74,1.72,4.08.92,1.93,4,1.35,4.46-.58.42-1.63.89-3.2,1.44-4.79l-4.46.58a14.34,14.34,0,0,1,2.58,5.67l4.71-1.3-.52-2.87-4.79.65.83,2a2.44,2.44,0,0,0,4.71-1.3,95.22,95.22,0,0,1-1.3-13.14l-4.17,1.73,1.55,1.25a2.48,2.48,0,0,0,3.83-.49l.95-1.71-3.34.88.82,1,4.46-.58c-.15-.33-1.38,6.74-1.45,7.06l4.08-1.08-4-4.61c-1.65-1.9-4.68.13-4.08,2.37l1.56,5.81c.7,2.59,5,2.16,4.79-.65-.11-1.69-1.69-8.69,2-8.61l-.65-4.79a22.12,22.12,0,0,0-2.63.66l-1.46,3.59,3.25,2.06a8.71,8.71,0,0,1,.12,3.51A14.86,14.86,0,0,1,247,163.4c-1.35,2.82,2.86,5.3,4.21,2.46,2-4.26,3.53-9.82,1.36-14.36a6.94,6.94,0,0,0-8.66-3.87,2.47,2.47,0,0,0-1.46,3.59c1.75,3,5.19,2.23,8.14,1.58,2.75-.6,2-4.74-.65-4.79-7.8-.16-7.21,8-6.85,13.49l4.79-.65L246.34,155l-4.08,2.37,4,4.61a2.46,2.46,0,0,0,4.08-1.08c.79-3.53,1.75-10.54-2.93-12-4-1.24-5.94,3-4.54,6.11.82,1.84,4.15,1.43,4.46-.58.45-2.91-.33-5.15-3.06-6.52a2.49,2.49,0,0,0-3.34.88l-.95,1.71,3.83-.49-1.55-1.25c-1.53-1.24-4.24-.57-4.17,1.73A105,105,0,0,0,239.59,165l4.71-1.3-.83-2c-.94-2.28-5.12-2.36-4.79.65a29.56,29.56,0,0,0,.69,4.17c.72,3.06,5.38,1.76,4.71-1.3a17.51,17.51,0,0,0-3.07-6.84,2.48,2.48,0,0,0-4.46.58c-.55,1.59-1,3.16-1.44,4.79l4.46-.58a20.65,20.65,0,0,1-1.23-2.91c-.65-1.75-3.51-2.67-4.46-.58-.81,1.77-1.59,3.54-2.23,5.38-.08.22-2.09,7-2.9,6.14l-2.37,4.08c3.78,1.26,8-.93,5.93-5.28-1-2-3.87-1.28-4.46.58-2.37,7.44,8.4,5.81,12.35,5.13,1.69-.29,2.05-2.3,1.46-3.59a3,3,0,0,0-3.73-1.57c-1.43.33-2.68,1.73-3.93,2.44a23.89,23.89,0,0,1-7.14,2.55c-3.07.64-1.77,5.35,1.3,4.71Z"/><path class="cls-9" d="M64,200c10.08-.49,20.08-1.75,29.52-5.42,4.08-1.58,8.38-3,12-5.41,4.53-3,8.86-6.44,13.27-9.66,1.26-.92,0-3-1.23-2.11-3.84,2.8-7.65,5.65-11.52,8.41-4.08,2.92-8.55,4.6-13.21,6.41-9.27,3.59-19,4.85-28.88,5.33-1.56.08-1.57,2.52,0,2.44Z"/><path class="cls-9" d="M223.15,180.53c1.77,3.23,2.17,7.84,2.2,11.45a1.22,1.22,0,0,0,2.44,0c0-4.11-.53-9-2.53-12.68-.75-1.38-2.86-.15-2.11,1.23Z"/><path class="cls-10" d="M134.93,86.72A11.26,11.26,0,0,0,139,91.35c2.26,1.58,5-2,3-3.83a13.23,13.23,0,0,0-4.86-2.83c-2-.69-3.85,1.83-2.76,3.59,1.33,2.12,3.69,4.8,4.38,7.24l.63-2.37q-1.61.93-3.3,1.71c-2.28,1.12-1,4.48,1.23,4.55s4.69-.54,7.08-.59c3.45-.07,5.67,1.71,8.57,3.24a67.76,67.76,0,0,0,12.92,4.72l-1.7-3-.26,1a2.46,2.46,0,0,0,1.7,3c2.57.49,5-.38,6-3,1.44-3.68-1.54-6.52-2.69-9.76l-4.08,2.37c1.68,1.48,5.74,2.77,6.09,5.13l4.46-1.88c-1.35-2.36-2.76-6.74-5.3-8.17s-7.31.3-10.17.18c-5.26-.21-7.32-2.58-9.44-7.15-.12-.26-1.5-3.1-1.43-2.12,0-.17.9-2.83,1-3.27l-1.7,1.7c1.06-.28,6.13,6.59,6.57,7.19,1.85,2.49,6.09.06,4.21-2.46-2.51-3.38-7.13-10.76-12.09-9.44a2.4,2.4,0,0,0-1.7,1.7c-.37,2.18-1.73,3.73-.91,5.92,1,2.8,3,6.89,5.23,9A14.22,14.22,0,0,0,158,97.38c2.56.27,5-.38,7.52-.28s2.09,0,3.35,2c.79,1.29,1.51,2.65,2.26,4,1.47,2.58,4.84.69,4.46-1.88-.64-4.36-4.49-4.76-7.34-7.28-1.68-1.48-5-.09-4.08,2.37.26.75,2.74,6.74,2.72,6.74l1.7,3,.26-1a2.48,2.48,0,0,0-1.7-3,78.68,78.68,0,0,1-15.77-6.59c-4.79-2.56-9-.8-14.1-.95l1.23,4.55a18,18,0,0,0,4.28-2.47,2.42,2.42,0,0,0,.63-2.37c-.84-3-3.25-5.82-4.87-8.41l-2.76,3.59L138.5,91l3-3.83a5.46,5.46,0,0,1-2.31-2.87c-1.36-2.83-5.57-.36-4.21,2.46Z"/><path class="cls-10" d="M98.7,121.23a8.07,8.07,0,0,1-4,2.3l3.09,2.35.36-1.37-4.55-1.23a14.94,14.94,0,0,1-1.23,5.49c-.9,2.24,1.9,3.47,3.59,2.76l9.44-4-3-3.83A24.69,24.69,0,0,1,98.85,127c-2.47,1.82-.25,5.93,2.46,4.21a18.32,18.32,0,0,1,6-2.46l-1.88-4.46a32.8,32.8,0,0,1-11.16,5.29c-3.05.8-1.76,5.37,1.3,4.71a121.16,121.16,0,0,1,15-2.3l-1.23-4.55a43.3,43.3,0,0,1-9.38,3.86c-3,.85-1.74,5.56,1.3,4.71a59.65,59.65,0,0,1,10.47-2l-.65-4.79-21.33,2.88,1.3,4.71,38.8-13.94-1.3-4.71A147.91,147.91,0,0,1,110,124l1.88,4.46a149.46,149.46,0,0,1,31.81-12.81l-1.3-4.71-31.66,9.24,1.3,4.71a152,152,0,0,1,15.5-5.36l-1.3-4.71a49.2,49.2,0,0,1-14,2.67l1.23,4.55a162.23,162.23,0,0,1,18-8.25c2.87-1.11,1.8-5.57-1.3-4.71q-14.85,4.14-29.85,7.67l1.88,4.46a40.06,40.06,0,0,1,10.67-3.14L110.38,114a46.53,46.53,0,0,1-7.5,7.28c-2.28,1.76.62,5,3,3.83A48.07,48.07,0,0,1,114,121.8l-1.88-4.46A54.11,54.11,0,0,1,101,122.18c-3,.94-1.77,5.29,1.3,4.71l25.5-4.89c3.12-.6,1.75-5.17-1.3-4.71l-11.9,1.82,2.37,4.08a60.77,60.77,0,0,1,13.88-9.71c2.13-1.09,1.16-4.68-1.23-4.55a223,223,0,0,0-24.49,2.69l1.88,4.46a35.31,35.31,0,0,1,14.44-4.1l-1.23-4.55a73.77,73.77,0,0,1-11.63,4.48c-3,.88-1.75,5.53,1.3,4.71a321.11,321.11,0,0,1,40.75-8.21l-.65-4.79q-9,3.35-18.1,6.1c-3,.9-1.74,5.55,1.3,4.71a135.43,135.43,0,0,1,23.7-4.38l-1.23-4.55a234.11,234.11,0,0,1-34.18,12l1.3,4.71a209.42,209.42,0,0,1,28.11-9.47l-1.3-4.71L131,115.18c-2.87,1.11-1.74,5.71,1.3,4.71q16.26-5.35,32.94-9.16l-1.3-4.71c-16.55,6.27-33.51,11.34-50.47,16.37-3,.89-1.76,5.44,1.3,4.71,12.35-3,24.71-5.89,37.29-7.66L150.15,115a301.36,301.36,0,0,1-29.69,11.16,2.44,2.44,0,0,0,1.3,4.71,367.67,367.67,0,0,1,42.06-7.16l-.65-4.79a336.65,336.65,0,0,1-43,7.58l.65,4.79a181.37,181.37,0,0,1,41.29-5.15l-.65-4.79c-12.69,3.14-25.67,4.38-38.67,5.52-3.09.27-3.16,5.1,0,4.88l15.17-1-.65-4.79-19.5,5.18c-2.61.69-2.15,4.94.65,4.79a86.67,86.67,0,0,1,18.62,1v-4.71q-15.07,4-30.46,6.53l1.3,4.71A76.36,76.36,0,0,1,126.45,140l-.65-4.79a91.9,91.9,0,0,1-14.72,4.47l1.3,4.71a66.46,66.46,0,0,1,17.47-2.2l-.65-4.79a80.73,80.73,0,0,1-14.72,1.65l2.35,3.09.52-.64c1.68-1.63.23-3.9-1.73-4.17l-.56-.34-1.46,3.59a151.26,151.26,0,0,1,20-5.51c2.66-.54,2.11-5-.65-4.79l-26.81,2.39c-3.08.28-3.17,5.06,0,4.88,8-.46,16.09-.77,24.14-.87,7.82-.1,16.06-.65,23.72,1.19l-.58-4.46a26.9,26.9,0,0,1-9.94,3l.65,4.79,23.51-4c3.1-.53,1.77-5.21-1.3-4.71a201,201,0,0,1-40,2.45l.65,4.79a120.76,120.76,0,0,1,21.79-6c2.69-.48,2.09-5-.65-4.79l-22.88,1.77v4.88q12.12-1.34,24.28-2.13l-.65-4.79-30.77,6.88c-3.1.69-1.75,5.23,1.3,4.71q16.12-2.78,32.43-4.06l-.65-4.79q-16.77,3.84-33.8,6.29c-2.7.39-2.09,5,.65,4.79l33.25-3-.65-4.79a104.37,104.37,0,0,1-16.57,3.66c-3,.4-3.25,4.92,0,4.88l14.5-.17-1.23-4.55a42.55,42.55,0,0,1-10,2.81c-2.69.43-2.09,5,.65,4.79l8.71-.73-1.23-4.55a40.24,40.24,0,0,1-6.6,2.88c-3,1-1.74,5.61,1.3,4.71a107.37,107.37,0,0,1,14.38-3.25l-1.3-4.71a65.92,65.92,0,0,1-7.62,2.66c-3.07.87-1.75,5.26,1.3,4.71l16.41-3-1.3-4.71a57.48,57.48,0,0,1-10.89,1.54l1.23,4.55a67.2,67.2,0,0,1,11.25-5.86c2.86-1.15,1.84-5.39-1.3-4.71l-9.56,2.09,1.3,4.71,6.86-2.85c2-.82,2.64-4.17,0-4.71q-.77-2.44,1.19-3.47c2.06-1.72-.24-4.46-2.37-4.08a27.85,27.85,0,0,1-10.56-.14l1.08,4.08a128.53,128.53,0,0,1,13.27-10.53,2.47,2.47,0,0,0,.88-3.34l-1.83-2.59-.88,3.34a96.47,96.47,0,0,1,8.62-5.58c2.48-1.42.76-5-1.88-4.46l-10,2.08,1.3,4.71,6.24-2.28-1.3-4.71-15.09,5.56c-2.39.88-2.29,5,.65,4.79a59.32,59.32,0,0,1,12.3.29L161.27,114A50.35,50.35,0,0,1,151,119a2.44,2.44,0,0,0,1.3,4.71l20.28-4.05-1.88-4.46c-5,3.08-11.6,3.8-17.21,5.15l-17.37,4.18c-3.11.75-1.74,5.2,1.3,4.71l30.89-5-1.88-4.46-16.75,7.85c-2.16,1-1.14,4.75,1.23,4.55l23.09-2-1.23-4.55-6.2,2.65c-2.78,1.19-.58,4.81,1.88,4.46l7.33-1-1.3-4.71a136.27,136.27,0,0,1-14.14,4.08c-3.07.71-1.76,5.37,1.3,4.71l24.18-5.23c3.09-.67,1.76-5.26-1.3-4.71l-5.51,1,1.3,4.71,16.92-4.79-1.3-4.71a177.42,177.42,0,0,1-17.61,4.53l1.3,4.71a99.25,99.25,0,0,1,16.75-4.2l-1.3-4.71-12.82,5.38c-2.83,1.19-1.86,5.37,1.3,4.71l11.16-2.36-1.3-4.71-9.48,2.74,1.3,4.71a80.62,80.62,0,0,1,10.34-3.24l-1.3-4.71a61.8,61.8,0,0,1-8.53,2.38l2.76,3.59,1.68-2.37a2.45,2.45,0,0,0-2.11-3.67l-9.35.78,1.23,4.55a24.58,24.58,0,0,1,6.91-2.35l-1.3-4.71a61.77,61.77,0,0,1-15.83,3l.65,4.79a88,88,0,0,1,15-4.49l-2.76-3.59-.86,1.47a2.46,2.46,0,0,0,2.11,3.67l12.25-.36-1.23-4.55a205.38,205.38,0,0,1-27.14,9.74c-3,.86-1.76,5.33,1.3,4.71l14.94-3L182.05,130l-6.31,3.32c-2.5,1.32-.75,5.11,1.88,4.46q13.18-3.23,26.56-5.47l-1.3-4.71-18.56,5.25,1.3,4.71a31.84,31.84,0,0,1,8.62-1.28l-.65-4.79-15.52,4.83a2.44,2.44,0,0,0,1.3,4.71,166.9,166.9,0,0,1,23.43-3.85l-.65-4.79L185.4,137c-3,.83-1.76,5.39,1.3,4.71A89.48,89.48,0,0,1,196.86,140l-.65-4.79-17.48,4.24c-3.06.74-1.76,5.38,1.3,4.71a29.17,29.17,0,0,1,7.33-.66l-.65-4.79a104.9,104.9,0,0,1-13.39,4.17c-3.12.75-1.73,5.18,1.3,4.71l29-4.58-1.3-4.71a52.44,52.44,0,0,1-14.47,3.35l.65,4.79,9.58-1.81-1.3-4.71-8.38,2.43,1.3,4.71a22.55,22.55,0,0,1,7-1.06l-.65-4.79-15,4.79a2.45,2.45,0,0,0,.65,4.79l8.3.18v-4.88L178,147.31l.65,4.79a17,17,0,0,1,6.92-.62l-1.23-4.55c-5.72,4.41-13.78,2.58-20.36,1.51a160.84,160.84,0,0,1-21-4.94l-.65,4.79a26.75,26.75,0,0,1,8.9,2.12l.58-4.46a5.61,5.61,0,0,1-5.15-.76c-2.55-1.43-4.64,1.76-3,3.83,3.68,4.55,9.08,6.38,14.69,7.35,7.75,1.34,15.62,2.13,23.42,3.16,3,.4,2.92-3.84.65-4.79-3.73-1.56-7.33-1.2-11.28-.9-5.47.42-9.77-.8-14.74-3l-1.88,4.46a19.13,19.13,0,0,0,15.65-.8c2.46-1.17.87-4.27-1.23-4.55A121.28,121.28,0,0,1,147.36,145v4.71a97.18,97.18,0,0,1,18.95-1.18v-4.88l-10.95.07.65,4.79a37,37,0,0,1,11.82-1.72l-.65-4.79-2.7.36c-2.57.35-2.06,4,0,4.71q7.84,2.52,15.81,4.55c3,.78,4.32-3.85,1.3-4.71q-7.11-2-14.33-3.58c-2.64-.57-4.34,3-1.88,4.46a38.69,38.69,0,0,0,8.9,3.87A2.47,2.47,0,0,0,177,148a14.44,14.44,0,0,0-7.38-6.9,2.5,2.5,0,0,0-3.59,1.46l-.63.11,1.73,4.17a19.32,19.32,0,0,1,5.5-3.26l-1.88-4.46a91.94,91.94,0,0,1-21.39,6.5l1.88,4.46a90.14,90.14,0,0,1,38.19-13.87l-2.11-3.67a13.2,13.2,0,0,1-5.24,5.78c-2.27,1.37-.76,5.56,1.88,4.46l9.66-4-2.37-4.08a12.94,12.94,0,0,1-3.4,2.64l2.46,4.21a19.24,19.24,0,0,1,5.58-2.27l-2.37-4.08a13.86,13.86,0,0,1-4.92,2.74l1.88,4.46q10.49-4.6,21.36-8.16l-2.37-4.08-3.41,1.28,1.23,4.55a9.54,9.54,0,0,1,3.49-1.48l-1.3-4.71a296.94,296.94,0,0,1-40.79,11.24l1.88,4.46a189.59,189.59,0,0,1,22.18-8.3l-1.88-4.46-4.9,2.16c-2.53,1.12-.73,5.29,1.88,4.46q20-6.33,40.28-11.44l-3-1.7.23.88.63-2.37c-2.12,2.58-8.69,2.11-11.66,2.05s-6-.56-9-.62l1.73,4.17a3.55,3.55,0,0,0,1-3.84l-2.35,3.09a27.15,27.15,0,0,1,11.47.86l-.58-4.46a21.56,21.56,0,0,1-7.67,3.54c-2.76.67-2,4.66.65,4.79l5,.25-.65-4.79-4.81,1.65a2.44,2.44,0,0,0,1.3,4.71l6.35-1L214.38,131a6.63,6.63,0,0,1-2.92,2c-2.66,1.26-.66,4.92,1.88,4.46l6.14-1.11L217.6,132l-1.54.9c-2.54,1.49-.72,4.87,1.88,4.46a32.66,32.66,0,0,0,8.16-2.44c1.9-.83,1.38-4.08-.58-4.46l-1.45-.28-.65,4.79a2.87,2.87,0,0,1,3,.52q-2.37.47-4.77.71a66.56,66.56,0,0,1-7.3.29l1.23,4.55a66.92,66.92,0,0,1,11-3.69l-1.3-4.71c-3.59,1.12-7.1,2.38-10.58,3.8-2.84,1.15-1.84,5.47,1.3,4.71l2.74-.67c2.61-.64,2.14-5.06-.65-4.79a3.55,3.55,0,0,1-3.55-.85,13.93,13.93,0,0,1,1.43-.3c1-.46,2.35-.35,3.43-.77a6.43,6.43,0,0,0,3.61-3.14c2.21-4.51-1-9.36-4.51-12a68,68,0,0,0-6.49-3.82c-2.71-1.65-4.42-4.88-7.21-6.22-4.88-2.36-8.63,2.24-10.51,6.1-1.13,2.32,1.94,5.23,3.83,3a37.52,37.52,0,0,0,4.43-6.06,18.14,18.14,0,0,0,1.2-2.64l.42-1.45q.85-1.76-.64-.8l1.23,4.55a5.57,5.57,0,0,1,3.52-1.27q3.82,1.88,1.7-.93a5.8,5.8,0,0,0-3.1.88c-2.55,1.26-.73,5.09,1.88,4.46,5.63-1.35,13.06,8.18,16.82,11.6l1.08-4.08c-6.64,1.22-11.79-6-17.23-8.65l-.58,4.46a10.61,10.61,0,0,0,7.84-10.16L213,109.56c2.76,1.89,3.53,5.22,4.29,8.29l3-3c-9.34-1.8-17.95-6.51-27.45-7.5a39.34,39.34,0,0,0-13.44,1.08c-2.42.59-4.59,1.87-3.75-1.35a11.57,11.57,0,0,1,5.13-6.81l-3.59-2.76-1.61,8.64c-.37,2,1.65,4,3.59,2.76l9-5.67L185.72,99a2.7,2.7,0,0,1,2.74-2.28l-1.3-4.71a39.32,39.32,0,0,0-11.75,4.75,2.47,2.47,0,0,0-.88,3.34,21.66,21.66,0,0,1,3,7.53,2.45,2.45,0,0,0,3,1.7c6.47-2.49,4.73-11,11.76-13.1,2.12-.62,2.52-4.34,0-4.71l-1.81-.26,1.46,3.59c1-1.66,5.31.52,6.3,1.28,1.61,1.25,2.64,2.18,3.07,4.31l3-3a28.25,28.25,0,0,0-15.56-1.34l1.88,4.46,6.41-4-2.46-4.21c-3.16,2.11-5.14,5.25-8.37,7.36-1.9,1.25-1.32,4.68,1.23,4.55l9-.47V98.89l-6.78.39v4.88a15.27,15.27,0,0,1,5.79.37l.65-4.79-7.45-.42.65,4.79a43.57,43.57,0,0,1,16.07-2.38,2.46,2.46,0,0,0,2.11-3.67c-1.85-3.42-5.73-1.76-8.68-.9-5.62,1.63-11.23,3.56-16.95,4.82-7.55,1.66-12.55-.61-18.84-4.49l-15.24-9.4.88,3.34a12.15,12.15,0,0,1,4.77-5.12l-3-.38c3.26,3.37,7.15,6.73,11.48,8.65,3.15,1.4-1.33-.62-2.56-1.05-3.16-1.12-6-2.4-7.72-5.42l-3.83,3a24.71,24.71,0,0,0,6.5,4.07c2.66,1.07,9.19,1.21,10.1,4.66l2.35-3.09c-6.88-.78-11.44-7.62-16.61-11.54a19.36,19.36,0,0,0-7.41-3.73c-4.06-.9-8.27,1.1-12.16-.43l.58,4.46c.94-.69,12.67-8.13,13-7.52V75.48c-.87,1.82-5.5,3.15-7.29,4a2.46,2.46,0,0,0-.49,3.83c3.4,3.47,10,10.39,5.09,15.25-4.24,4.22-11.28.18-14.65-3.26-2.15-2.2-3.47-6.64-6.89-7.16-3.88-.59-8.25,4.58-10.91,6.68-1.71,1.35-.24,4.2,1.73,4.17a25,25,0,0,0,7.15-1c.53-.17,3.76-1.24,1-.46a11.75,11.75,0,0,0-2.55.87,4.48,4.48,0,0,0-2.14,2.54,16.79,16.79,0,0,0-.25,2c-.63,2.81-5.79,7.93-6.37,1a2.48,2.48,0,0,0-3.67-2.11c-3.06,1.45-12.68,9.75-15.49,6.64l-1.08,4.08a156.56,156.56,0,0,0,20.82-8.24c2.83-1.36.36-5.57-2.46-4.21A147.59,147.59,0,0,1,86,107.85a2.47,2.47,0,0,0-1.08,4.08c6.39,7.05,15.46-3.05,21.41-5.87l-3.67-2.11c.37,4.33,3.34,8.35,8.08,8.37a8.29,8.29,0,0,0,6.18-3c1.59-1.89,1-3.94,1.92-5.85,1.35-2.87,6.83-2.91,5.48-8a4.46,4.46,0,0,0-3.42-3.44,4.15,4.15,0,0,0-1.88.25c-3,.58-5.14,1.78-8.32,1.82l1.73,4.17a50.77,50.77,0,0,1,4.37-3.45c2.73-1.7,2.65-.94,4.26,1.25a24.72,24.72,0,0,0,4.91,5c4.11,3.13,9.65,5.15,14.79,3.57a10.22,10.22,0,0,0,7.12-10.14c0-6-4.13-10.58-8.1-14.64l-.49,3.83c2.51-1.2,14.21-5.86,7.51-10-2.12-1.31-4.67-.15-6.67.76a64.51,64.51,0,0,0-11.43,6.78,2.48,2.48,0,0,0,.58,4.46c4.12,1.61,8-.36,12.16.43,3.67.7,6.63,3.48,9.29,5.92,4.79,4.39,9.28,8.76,16,9.52,1.62.18,2.72-1.7,2.35-3.09A8.13,8.13,0,0,0,164,92.76c-4.51-1.88-8.76-1.82-12.78-5.14-2-1.68-5.32.42-3.83,3,2.79,4.76,14.11,12.24,19.5,7.71a4.36,4.36,0,0,0,.5-6.45c-1.41-1.44-4.6-2.25-6.37-3.38a39.4,39.4,0,0,1-7.16-6,2.48,2.48,0,0,0-3-.38A16.78,16.78,0,0,0,144.42,89a2.5,2.5,0,0,0,.88,3.34L159,100.76c4.29,2.65,8.62,5.72,13.69,6.57,4.77.8,9.47-.32,14-1.61,1.38-.39,16.6-5,16.51-5.21l2.11-3.67A47.21,47.21,0,0,0,188,99.4a2.45,2.45,0,0,0,.65,4.79l7.45.42c2.75.16,3.31-4.14.65-4.79a20.28,20.28,0,0,0-7.09-.54c-3.07.31-3.18,5.07,0,4.88l6.78-.39c3.12-.18,3.15-5,0-4.88l-9,.47,1.23,4.55c3.18-2.08,5.3-5.32,8.37-7.36,2.59-1.73.22-5.9-2.46-4.21l-6.41,4a2.45,2.45,0,0,0,1.88,4.46,23.46,23.46,0,0,1,13,1.34c1.88.72,3.33-1.36,3-3-1.41-7-13.38-14.66-18.29-6.75-.75,1.21-.11,3.36,1.46,3.59l1.81.26V91.56a13.32,13.32,0,0,0-7.12,4.63c-1.54,2-2.35,7.59-4.64,8.47l3,1.7a25.07,25.07,0,0,0-3.48-8.69l-.88,3.34a35.28,35.28,0,0,1,10.58-4.25c3.09-.7,1.76-5.28-1.3-4.71-3.65.69-8,3.55-6.93,7.92.87,3.47,5,5.37,8,3.28,2.52-1.78.24-5.91-2.46-4.21l-9,5.67,3.59,2.76,1.61-8.64a2.47,2.47,0,0,0-3.59-2.76c-5.58,3.19-14,19.67-1.82,18.12,3.83-.49,7.31-1.94,11.25-2.12a35.27,35.27,0,0,1,10.82,1.35c6.89,1.86,13.4,4.79,20.42,6.14a2.47,2.47,0,0,0,3-3c-1.12-4.51-2.58-8.49-6.53-11.21-1.61-1.11-3.6.39-3.67,2.11a5.54,5.54,0,0,1-4.25,5.45c-1.88.58-2.55,3.49-.58,4.46,7.21,3.56,12.12,10.77,21,9.14a2.46,2.46,0,0,0,1.08-4.08c-5.64-5.13-12.9-14.94-21.57-12.86l1.88,4.46c1.7-.84,3.77-.08,5.23-1.74a3.71,3.71,0,0,0,.27-4.63c-2.7-4-9.19-2.91-12.54-.74a2.46,2.46,0,0,0,1.23,4.55c5.9.5,10.19-7.37,4.13-10.58a5.48,5.48,0,0,0-6.53.94c-1.12,1.22-1.24,2.75-1.67,4.25-.89,3.12-2.75,5.53-4.8,8l3.83,3a2.59,2.59,0,0,1,3.06-2.21q2.24-1.88,3.21.38c.71.5,1.3,1.29,2,1.84a39.7,39.7,0,0,0,5.82,3.52c2.68,1.48,6.86,3.83,5.31,7.2-1.15,2.49-3.21,1.63-5.49,2.61s-3.88,3.22-3.22,5.86c1,4,5.45,4.62,8.9,4.29l-.65-4.79-2.74.67,1.3,4.71c3.48-1.42,7-2.68,10.58-3.8a2.44,2.44,0,0,0-1.3-4.71,74.22,74.22,0,0,0-12.13,4.18c-2.32,1-1,4.53,1.23,4.55,4.24,0,15.58.93,17.52-4.3,2-5.44-4.41-7.39-8.45-7-2.51.25-3.57,4.23-.65,4.79l1.45.28-.58-4.46a27.78,27.78,0,0,1-7,2l1.88,4.46,1.54-.9c2.5-1.47.75-4.94-1.88-4.46L212,132.83l1.88,4.46a13.12,13.12,0,0,0,3.9-2.79c1.85-1.86-.1-4.44-2.37-4.08l-6.35,1,1.3,4.71,4.81-1.65a2.45,2.45,0,0,0-.65-4.79l-5-.25.65,4.79a24.8,24.8,0,0,0,8.84-4,2.48,2.48,0,0,0-.58-4.46,30.36,30.36,0,0,0-12.77-1,2.49,2.49,0,0,0-2.35,3.09l.18.83.63-2.37-.57.63a2.47,2.47,0,0,0,1.73,4.17c4.47.09,27.05,3.34,24.54-6.12a2.48,2.48,0,0,0-3-1.7q-20.31,5.11-40.28,11.44l1.88,4.46,4.9-2.16c2.54-1.12.73-5.26-1.88-4.46a199.66,199.66,0,0,0-23.35,8.79c-2.66,1.19-.67,5,1.88,4.46a296.94,296.94,0,0,0,40.79-11.24c2.92-1,1.76-5.58-1.3-4.71a20,20,0,0,0-4.66,2,2.46,2.46,0,0,0,1.23,4.55,9.16,9.16,0,0,0,6.87-2.71c1.77-1.62-.07-4.84-2.37-4.08q-11.48,3.78-22.53,8.65c-2.52,1.11-.73,5.34,1.88,4.46a21,21,0,0,0,7.08-4c2-1.65-.17-4.61-2.37-4.08a23.23,23.23,0,0,0-6.74,2.76c-2.7,1.62-.3,5.73,2.46,4.21a16.9,16.9,0,0,0,4.38-3.4c1.51-1.61,0-5.08-2.37-4.08l-9.66,4,1.88,4.46a17.69,17.69,0,0,0,7-7.54c.72-1.46-.11-3.91-2.11-3.67a95.53,95.53,0,0,0-40.65,14.54,2.45,2.45,0,0,0,1.88,4.46,96.87,96.87,0,0,0,22.56-7c2.5-1.11.7-5.48-1.88-4.46a27.43,27.43,0,0,0-7.66,4.52c-1.8,1.49-.15,4,1.73,4.17,2.72.26,4.46-1.24,5.34-3.69l-3.59,1.46a10.53,10.53,0,0,1,5.63,5.15l2.76-3.59a33.67,33.67,0,0,1-7.73-3.37L166,148q7.23,1.56,14.33,3.58l1.3-4.71q-8-2-15.81-4.55V147l2.7-.36c2.79-.38,2-4.75-.65-4.79a41.2,41.2,0,0,0-13.12,1.89c-2.58.8-2.18,4.81.65,4.79l10.95-.07c3.15,0,3.14-4.78,0-4.88A103.85,103.85,0,0,0,146.07,145c-2.54.42-2.09,4,0,4.71A128.09,128.09,0,0,0,169,154.79l-1.23-4.55a14.44,14.44,0,0,1-11.89.31c-2.56-1-4.4,3.32-1.88,4.46,4,1.8,8,3.6,12.47,3.88,5,.31,9.88-1.46,14.71.56l.65-4.79c-6.91-.92-13.86-1.71-20.75-2.77-5.26-.81-10.42-2-13.91-6.31l-3,3.83a11.58,11.58,0,0,0,8.91,1.25c1.9-.44,2.55-3.62.58-4.46a34.48,34.48,0,0,0-11.37-2.78c-2.82-.2-3.2,4-.65,4.79a162.55,162.55,0,0,0,25.18,5.57c6.77.93,14.15,1.83,19.92-2.63a2.47,2.47,0,0,0-1.23-4.55,20.44,20.44,0,0,0-8.22.79c-2.52.75-2.19,5.08.65,4.79L190,151c3.07-.31,3.2-4.81,0-4.88l-8.3-.18.65,4.79,15-4.79c2.58-.82,2.18-4.78-.65-4.79a26.88,26.88,0,0,0-8.3,1.23c-3,.93-1.74,5.59,1.3,4.71l8.38-2.43c3.05-.88,1.76-5.28-1.3-4.71l-9.58,1.81c-2.68.5-2.1,5,.65,4.79A57.14,57.14,0,0,0,203.63,143a2.44,2.44,0,0,0-1.3-4.71l-29,4.58,1.3,4.71A104.9,104.9,0,0,0,188,143.42c2.49-1,2.25-4.7-.65-4.79a34.4,34.4,0,0,0-8.62.83l1.3,4.71,17.48-4.24c2.61-.63,2.13-5.08-.65-4.79A100.83,100.83,0,0,0,185.4,137l1.3,4.71,16.74-4.55c2.57-.7,2.16-5.05-.65-4.79a176.16,176.16,0,0,0-24.73,4l1.3,4.71,15.52-4.83c2.57-.8,2.18-4.83-.65-4.79a36.61,36.61,0,0,0-9.91,1.46c-3,.87-1.74,5.57,1.3,4.71l18.56-5.25c3.08-.87,1.74-5.21-1.3-4.71q-13.39,2.24-26.56,5.47l1.88,4.46,6.31-3.32c2.56-1.35.72-5-1.88-4.46l-14.94,3,1.3,4.71a214.4,214.4,0,0,0,28.31-10.23c2.26-1,1.06-4.62-1.23-4.55l-12.25.36,2.11,3.67.86-1.47a2.47,2.47,0,0,0-2.76-3.59,88,88,0,0,0-15,4.49c-2.35.94-2.34,5,.65,4.79a66.88,66.88,0,0,0,17.13-3.18,2.44,2.44,0,0,0-1.3-4.71,28.82,28.82,0,0,0-8.07,2.84c-2.08,1.08-1.19,4.75,1.23,4.55l9.35-.78-2.11-3.67-1.68,2.37c-1.33,1.88.86,4,2.76,3.59a61.8,61.8,0,0,0,8.53-2.38c2.93-1,1.79-5.45-1.3-4.71a80.62,80.62,0,0,0-10.34,3.24c-2.86,1.11-1.79,5.6,1.3,4.71l9.48-2.74c3-.88,1.76-5.35-1.3-4.71l-11.16,2.36,1.3,4.71,12.82-5.38a2.44,2.44,0,0,0-1.3-4.71,99.25,99.25,0,0,0-16.75,4.2,2.44,2.44,0,0,0,1.3,4.71,177.42,177.42,0,0,0,17.61-4.53c3-.93,1.74-5.57-1.3-4.71l-16.92,4.79c-3.06.87-1.75,5.26,1.3,4.71l5.51-1-1.3-4.71-24.18,5.23,1.3,4.71a136.27,136.27,0,0,0,14.14-4.08c3-1.06,1.76-5.14-1.3-4.71l-7.33,1,1.88,4.46,6.2-2.65c2.21-.95,1.1-4.75-1.23-4.55l-23.09,2,1.23,4.55L168.83,124c2.7-1.26.63-4.87-1.88-4.46l-30.89,5,1.3,4.71,19.2-4.62c5.57-1.34,11.62-2.14,16.55-5.2a2.45,2.45,0,0,0-1.88-4.46L151,119l1.3,4.71a56.18,56.18,0,0,0,11.49-5.49c2.21-1.39,1.08-4.26-1.23-4.55a59.32,59.32,0,0,0-12.3-.29l.65,4.79,15.09-5.56c2.92-1.08,1.67-5.79-1.3-4.71l-6.24,2.28a2.44,2.44,0,0,0,1.3,4.71l10-2.08-1.88-4.46a96.47,96.47,0,0,0-8.62,5.58,2.48,2.48,0,0,0-.88,3.34l1.83,2.59.88-3.34a138,138,0,0,0-14.26,11.29,2.46,2.46,0,0,0,1.08,4.08A34.66,34.66,0,0,0,161,132L158.66,128c-3.9,3.24-5.55,10.31,1,11.63v-4.71l-6.86,2.85c-2.83,1.18-1.86,5.4,1.3,4.71l9.56-2.09-1.3-4.71A74,74,0,0,0,149.91,142c-1.93,1.24-1.3,4.66,1.23,4.55a64.45,64.45,0,0,0,12.19-1.72c3.09-.74,1.75-5.26-1.3-4.71l-16.41,3,1.3,4.71a65.92,65.92,0,0,0,7.62-2.66,2.44,2.44,0,0,0-1.3-4.71,107.37,107.37,0,0,0-14.38,3.25l1.3,4.71a47.37,47.37,0,0,0,7.77-3.38c2-1.11,1.22-4.75-1.23-4.55l-8.71.73.65,4.79a47.48,47.48,0,0,0,11.19-3.31c2.31-1,1-4.57-1.23-4.55l-14.5.17v4.88A112.11,112.11,0,0,0,152,139.35c2.52-.77,2.2-5.05-.65-4.79l-33.25,3,.65,4.79q17-2.45,33.8-6.29c2.64-.6,2.12-5-.65-4.79q-17,1.34-33.73,4.23l1.3,4.71,30.77-6.88c2.65-.59,2.12-5-.65-4.79q-12.16.79-24.28,2.13c-3.06.34-3.17,5.13,0,4.88l22.88-1.77L147.5,129a120.76,120.76,0,0,0-21.79,6,2.45,2.45,0,0,0,.65,4.79,207.46,207.46,0,0,0,41.28-2.62l-1.3-4.71-23.51,4c-2.68.46-2.09,5.08.65,4.79a33.69,33.69,0,0,0,12.4-3.69,2.47,2.47,0,0,0-.58-4.46c-7.55-1.81-15.45-1.46-23.16-1.38-8.67.08-17.34.39-26,.89v4.88L133,135.18l-.65-4.79a151.26,151.26,0,0,0-20,5.51c-1.32.46-2.48,2.24-1.46,3.59a6.07,6.07,0,0,0,4.77,2.76l-1.73-4.17a6.64,6.64,0,0,0-1.78,2.79c-.59,1.48.9,3.12,2.35,3.09a88,88,0,0,0,16-1.82c2.74-.57,2.05-4.78-.65-4.79a71.45,71.45,0,0,0-18.76,2.37c-3.05.8-1.76,5.36,1.3,4.71A91.9,91.9,0,0,0,127.1,140c2.35-.94,2.33-5-.65-4.79a81.8,81.8,0,0,0-19.86,3.5c-3.06.94-1.75,5.2,1.3,4.71q15.39-2.5,30.46-6.53c2.19-.58,2.46-4.3,0-4.71A92.69,92.69,0,0,0,118.44,131l.65,4.79,19.5-5.18c2.6-.69,2.16-5-.65-4.79l-15.17,1v4.88c13.42-1.18,26.85-2.45,40-5.69,2.68-.66,2.1-4.82-.65-4.79a187.3,187.3,0,0,0-42.58,5.33c-2.61.64-2.13,5.1.65,4.79a346.74,346.74,0,0,0,44.32-7.76c2.61-.63,2.13-5.1-.65-4.79a379,379,0,0,0-43.35,7.34l1.3,4.71a313.31,313.31,0,0,0,30.85-11.65c2.77-1.21.58-4.81-1.88-4.46-12.59,1.77-24.95,4.69-37.29,7.66l1.3,4.71c17-5,33.92-10.1,50.47-16.37,2.9-1.1,1.82-5.42-1.3-4.71q-16.69,3.8-32.94,9.16l1.3,4.71,18.63-7.16c2.87-1.11,1.81-5.51-1.3-4.71a209.42,209.42,0,0,0-28.11,9.47c-2.81,1.17-1.84,5.55,1.3,4.71a242.17,242.17,0,0,0,35.35-12.49c2.19-1,1.12-4.77-1.23-4.55a142.81,142.81,0,0,0-25,4.56l1.3,4.71q9.16-2.75,18.1-6.1c2.35-.88,2.29-5.19-.65-4.79a331,331,0,0,0-42,8.39l1.3,4.71a81.52,81.52,0,0,0,12.8-5c2.15-1,1.14-4.71-1.23-4.55a41.47,41.47,0,0,0-16.91,4.77c-2.62,1.38-.68,4.88,1.88,4.46a211.11,211.11,0,0,1,23.2-2.52l-1.23-4.55a65.39,65.39,0,0,0-14.86,10.48c-2,1.83.17,4.42,2.37,4.08l11.9-1.82-1.3-4.71L101,122.18l1.3,4.71a60.06,60.06,0,0,0,12.28-5.34c2.37-1.36.8-5.28-1.88-4.46a54.88,54.88,0,0,0-9.35,3.84l3,3.83a46.53,46.53,0,0,0,7.5-7.28,2.46,2.46,0,0,0-2.37-4.08A44.62,44.62,0,0,0,99.62,117c-2.6,1.19-.71,5.07,1.88,4.46q15-3.53,29.85-7.67l-1.3-4.71a172.7,172.7,0,0,0-19.13,8.75,2.46,2.46,0,0,0,1.23,4.55,53.9,53.9,0,0,0,15.34-2.84c2.94-1,1.75-5.58-1.3-4.71a152,152,0,0,0-15.5,5.36c-2.82,1.15-1.8,5.61,1.3,4.71l31.66-9.24c3-.88,1.74-5.54-1.3-4.71a155.16,155.16,0,0,0-33,13.3c-2.48,1.35-.76,5.1,1.88,4.46a147.91,147.91,0,0,0,18.58-5.85c2.88-1.12,1.69-5.78-1.3-4.71l-38.8,13.94c-3,1.09-1.77,5.12,1.3,4.71L112.36,134c2.7-.36,2.09-5.06-.65-4.79a67.11,67.11,0,0,0-11.77,2.16l1.3,4.71a48.83,48.83,0,0,0,10.55-4.35c2-1.12,1.23-4.77-1.23-4.55a131.73,131.73,0,0,0-16.31,2.48l1.3,4.71a36.68,36.68,0,0,0,12.33-5.78,2.45,2.45,0,0,0-1.88-4.46,22.18,22.18,0,0,0-7.14,3l2.46,4.21a31.62,31.62,0,0,0,4.62-4.08c2-2.16-.49-4.87-3-3.83l-9.44,4,3.59,2.76a19.84,19.84,0,0,0,1.4-6.78A2.46,2.46,0,0,0,94,122a6.8,6.8,0,0,0-1,3.83A2.46,2.46,0,0,0,96,128.23a16,16,0,0,0,6.11-3.55c2.33-2.12-1.13-5.56-3.45-3.45Z"/><path class="cls-11" d="M95.25,126.21c-2.08-2.26-2.11-4.52-5.82-4a2.45,2.45,0,0,0-1.79,2.35,6.34,6.34,0,0,0,1,3.69c.66,1.06,3.8,3.11,3.29,4.52l4.46-.58A5.18,5.18,0,0,1,95,129.14a2.44,2.44,0,0,0-4.88,0c-.3,3.41-1,6.91.83,10,1.38,2.3,5.38.82,4.46-1.88-1.07-3.15-.73-6.19-3.21-8.72-1.39-1.42-4.36-.43-4.17,1.73.25,2.8,3.42,7.4,2,9.9-1.14,2,1.29,4.86,3.34,3.34,1.45-1.08,3.21-2.91,4.9-3.6l-1.88-.25-.59-.64.25-1.88c-.79,1.58-1,2.07-2.51,0a2.48,2.48,0,0,0-4.21,0c-1.7,2.39-1.77,5.86.95,7.6,2.9,1.85,7.54-.49,10.44-1.26,2.15-.57,7-1.11,5.86-4.59-1.27-4-7.48-.92-9-5.19L94,136.5a24.14,24.14,0,0,0,6,2.69c3,.91,4.3-3.8,1.3-4.71a19.31,19.31,0,0,1-4.81-2.2c-1.72-1.08-4.31.73-3.59,2.76a8.63,8.63,0,0,0,3.45,4.62,11.57,11.57,0,0,0,2.62,1.21,12.92,12.92,0,0,0,2.46.5q1.45.51.38-1.4l1.21-2.11c-1.53.78-3.78,1-5.42,1.45l-2.49.66c-.66.18-2.59,1.18-1.52-.33H89.33c3,4,9.28,6.23,11.07-.33a3.21,3.21,0,0,0-2.12-4.12c-2.59-.6-5.5,2.7-7.36,4.09l3.34,3.34c2.7-4.63-.89-7.79-1.3-12.37L88.79,132c1.59,1.63,1.26,4.54,2,6.57l4.46-1.88c-1.23-2-.36-5.32-.16-7.53H90.16a10.67,10.67,0,0,0,2,5.56,2.48,2.48,0,0,0,4.46-.58,5.37,5.37,0,0,0-.25-4.39c-.88-1.73-3.83-3.12-3.87-5.12L90.73,127l.79-.12-1.88-.25c.85.49,1.41,2.25,2.16,3.07,2.13,2.32,5.58-1.14,3.45-3.45Z"/><path class="cls-11" d="M111.76,147.3c4.87,1.89,9.71,1.23,14.74,2.1l.65-4.79a45.55,45.55,0,0,1-9.16-.27c-2.41-.41-4.43-2-6.73-2.39-4.09-.73-4.42,4.71-1.21,6.22,2.83,1.32,5.31-2.88,2.46-4.21v.15l-.63,2.37.37-.44-1.73.71c-.9-.07.14.22.52.42a16.45,16.45,0,0,0,2,.89,22.19,22.19,0,0,0,4.67,1.15,52.86,52.86,0,0,0,9.39.28c2.62-.09,3.48-4.31.65-4.79-5-.86-9.95-.24-14.74-2.1-2.93-1.14-4.2,3.58-1.3,4.71Z"/><path class="cls-11" d="M103.83,144.86a13.6,13.6,0,0,1,11.69.45c2.78,1.46,5.25-2.76,2.46-4.21a18.3,18.3,0,0,0-15.45-.94c-2.88,1.15-1.62,5.88,1.3,4.71Z"/><path class="cls-11" d="M209.43,139.67c-.27.14-1.4.57-.7.6l2.11,1.21c-1-1.39-1-3-2.92-3.69a6.07,6.07,0,0,0-2.15-.09c-1.53,0-2-1-.79-2.37l-4.17-1.73c-.19,2.82,1.53,4.57,4,5.58a22.38,22.38,0,0,0,5.32,1.57c1.66.24,3.75-.47,5.3,0,3,1,4.27-3.73,1.3-4.71-1.92-.63-3.66,0-5.62-.13-1.1-.1-5.5-.87-5.4-2.35.14-2.12-2.76-3.21-4.17-1.73-3.1,3.28-2.87,9.08,2,10.57a5,5,0,0,0,3,.11c-.57.24-.85-1-.54.25a3.34,3.34,0,0,0,.85,1.39c1.74,1.84,3.31.61,5.08-.3,2.79-1.44.33-5.65-2.46-4.21Z"/><path class="cls-11" d="M199.11,117.52c.58,2.48-1.76,5.07-1.62,1.15.11-3.07,1.47-2.48,3.36-1.45a2.48,2.48,0,0,0,3.34-.88l.84-1.52-4.21-2.46c-1.52,3.13-2.89,6.3-4.15,9.53l3.59-1.46a3.56,3.56,0,0,1-1.51-4.32l-4.79-.65c.1,1.39-8.86-1.65-9.75-1.91-3.3-1-6.63-1.77-10-2.51l-1.3,4.71c7.36,1.28,15.75-.43,22.1,4.24,2.53,1.86,5-2.37,2.46-4.21-6.92-5.09-15.31-3.35-23.26-4.73-3-.53-4.4,4-1.3,4.71,3.35.74,6.68,1.56,10,2.51,3,.88,6.16,2.39,9.32,2.75,3.55.41,6.89-1.73,6.62-5.55-.19-2.62-4.1-3.46-4.79-.65a8.79,8.79,0,0,0,3.76,9.83c1.41,1,3.07-.13,3.59-1.46,1.11-2.84,2.33-5.62,3.66-8.37s-2.68-5.24-4.21-2.46l-.84,1.52,3.34-.88c-3.63-2-6.07-3.34-8.9.47a8.87,8.87,0,0,0-.77,9.38c1.37,2.67,4.18,5,7.24,3.44,3.79-1.91,3.76-6.56,2.94-10.07-.72-3.06-5.43-1.76-4.71,1.3Z"/><path class="cls-11" d="M218.66,127.08a14.82,14.82,0,0,0,7.43,4c3.07.63,4.38-4.07,1.3-4.71a10.18,10.18,0,0,1-5.27-2.78c-2.23-2.21-5.69,1.24-3.45,3.45Z"/><path class="cls-11" d="M175.78,111.18a19.68,19.68,0,0,0,7.24,2.54c1,.15,6.71.05,7.09.52v-3.45c-1.44,1.18-7-1.2-8.64-1.67-1.45-.42-2.89-.87-4.32-1.33-1-.33-4-2.12-3.5.55.53,3.09,5.23,1.78,4.71-1.3-1.23-7.22-13.69-2-8.87,2.85,1.23,1.24,3.34,1.62,4.93,2.14,2.63.86,5.26,1.69,7.94,2.39,3.78,1,7.91,2.52,11.21-.18,1.09-.89.76-2.52,0-3.45-1.27-1.56-3.46-1.31-5.28-1.44-3.54-.24-6.92-.53-10-2.39-2.71-1.6-5.17,2.61-2.46,4.21Z"/><path class="cls-11" d="M119,134.13c5.77-1.33,11.57-2.45,17.44-3.26,4.22-.58,14.29-3.32,17.84-.11,2.33,2.1,5.79-1.34,3.45-3.45-4.61-4.16-11.52-2.48-17.14-1.84a202.62,202.62,0,0,0-22.89,4c-3.06.71-1.76,5.41,1.3,4.71Z"/><path class="cls-11" d="M161.85,130.86a69.17,69.17,0,0,1,13.49,9.84c3.39,3.2,6.29,6.79,10.09,9.53l2.46-4.21a75.1,75.1,0,0,1-13.28-9.81c-2.3-2.13-5.76,1.31-3.45,3.45a80.91,80.91,0,0,0,14.27,10.58c2.77,1.61,5-2.41,2.46-4.21-4.27-3.08-7.46-7.45-11.45-10.89a75.89,75.89,0,0,0-12.13-8.49c-2.74-1.55-5.2,2.66-2.46,4.21Z"/><path class="cls-11" d="M150.21,125l15.68-.93c3.12-.19,3.14-5.07,0-4.88l-15.68.93c-3.12.19-3.14,5.07,0,4.88Z"/><path class="cls-11" d="M112,133.46c-1,2.41-2.3,5.17.62,6.82A25.85,25.85,0,0,0,116,141.4a14.38,14.38,0,0,1,3.22,1.87,2.46,2.46,0,0,0,3.34-.88,2.5,2.5,0,0,0-.88-3.34,16.79,16.79,0,0,0-3.35-1.94,18.61,18.61,0,0,0-2-.74q-.46-.14-.94-.25-.85-.34.12.51v1.3a16.35,16.35,0,0,1,1.19-3.17,2.46,2.46,0,0,0-1.7-3,2.5,2.5,0,0,0-3,1.7Z"/><path class="cls-12" d="M151.21,103.6l4.53,1.39,2.09.64,1,.32q.84.4.25-.09l3.67-2.11q-2.34-1.45-4.54-3.09c-2.52-1.88-5,2.36-2.46,4.21q2.21,1.64,4.54,3.09c1.72,1.06,3.47-.37,3.67-2.11.29-2.51-1.72-3.9-3.84-4.61-2.53-.85-5.11-1.57-7.66-2.36-3-.93-4.3,3.78-1.3,4.71Z"/><path class="cls-12" d="M106.65,101.44c2.47,2.49,6.46,1.58,9.56,1l-1.3-4.71c-.38.11-7.07,2.08-7,2.19L105.53,103c3.45.21,6.35,2.23,9.9,1.88,3.28-.32,7.09-3.32,10.2-1.22,2.61,1.76,5.06-2.46,2.46-4.21-3-2-6.22-1.53-9.48-.48-2.43.78-4.39,1.3-6.93.56a26.86,26.86,0,0,0-6.15-1.42,2.45,2.45,0,0,0-2.35,3.09c2.18,5.81,8.79,2.47,13,1.22,3-.9,1.76-5.32-1.3-4.71-1,.2-4,1.14-4.81.3-2.22-2.23-5.67,1.22-3.45,3.45Z"/><path class="cls-12" d="M108.44,104.83a50.64,50.64,0,0,1-3.75,6.76c-.7.94-5.55,4.57-6.64,2.15l-.38,3c1.62-1.9,5.53-2,7.73-3.45a14.33,14.33,0,0,0,5.06-6.14c1-2.29-1.94-5.31-3.83-3a32.05,32.05,0,0,1-5.69,5.66c-1.66,1.24-4.88,3.89-7,3.45-3.06-.65-4.37,4-1.3,4.71,6.46,1.38,13.73-5.78,17.41-10.37l-3.83-3a9.86,9.86,0,0,1-6.24,5.79c-2.21.7-4.2,1-5.79,2.81a2.58,2.58,0,0,0-.38,3c1.83,4,6.9,3.36,10.33,1.94,4.51-1.87,6.36-6.84,8.49-10.85,1.47-2.77-2.74-5.24-4.21-2.46Z"/><path class="cls-12" d="M85.86,128.37l.18.09a2.46,2.46,0,0,0,2.46,0l.19-.12a2.58,2.58,0,0,0,1.12-2.76,4.85,4.85,0,0,0-2.54-3.25c-2.16-1.35-4.44,1.27-3.34,3.34.23.44.9,3.14,1.16,3.29q2.28.08.91-.67a3.91,3.91,0,0,0-1-.48c-1.74-.45-3.13.67-3.86,2.16-2.23,4.54,3.44,5.13,5.06,8.26,1.36,2.64,4.87.66,4.46-1.88a29.68,29.68,0,0,0-1.47-5.71c-.65-1.72-1.85-3.42-2.1-5.23-.43-3.1-5.14-1.78-4.71,1.3.26,1.86,1.44,3.48,2.1,5.23A29.62,29.62,0,0,1,86,137.64l4.46-1.88a10.3,10.3,0,0,0-2.25-3,10.54,10.54,0,0,0-1.32-1l-.6-.35q-1-.81-.58.51l-1.73.71q-1-.43,0,.22l.42.3a3.66,3.66,0,0,0,4.91-1.39c1.67-2.54.14-6.17-1.12-8.55l-3.34,3.34.29.33,1.12-2.76-.19.12H88.5l-.18-.09c-2.78-1.45-5.26,2.76-2.46,4.21Z"/><path class="cls-12" d="M71.81,133.81c.78,2.47,1.51,5,2.35,7.41.63,1.86,1.4,4.79,3.72,5.11,4.49.61,5.87-5.84,3.89-8.75-1.51-2.22-5.21-.9-4.46,1.88a11,11,0,0,0,1.6,3.5c1.78,2.56,6,.12,4.21-2.46A7.1,7.1,0,0,1,82,138.16L77.55,140c.21.31.69,1.35,0,1.53l1.88.25q.73.83,0-.48-.28-.7-.52-1.42c-.25-.72-.47-1.46-.7-2.19l-1.65-5.22c-.94-3-5.66-1.71-4.71,1.3Z"/><path class="cls-12" d="M92.15,148.88l-.93,2,4.46.58c-.61-3.21,4.84-3.39,6.6-3.37L101,143.54c-2.83,2.15-6.88,2.33-9.27,5.12-1.73,2-2.39,5.56.27,7.22s5.07-.48,6.55-2.49c4.11-5.57,10.74-7.26,17.3-6.58,3.12.33,3.1-4.56,0-4.88-6.89-.72-11.92.81-17.56,4.86-1.3.93-6.41,5-1.74,4.23a19.2,19.2,0,0,0,6.92-3.26c1.83-1.38,1.39-4.52-1.23-4.55-2.9,0-7.83.46-10.18,2.37-2.16,1.75-1.59,4.76-1.13,7.18s3.36,2.12,4.46.58a8.8,8.8,0,0,0,1.6-4.46c.39-3.11-4.49-3.08-4.88,0Z"/><path class="cls-12" d="M128.12,140.2a4.66,4.66,0,0,0-6.44,0,3,3,0,0,0-.13,4.45,6.32,6.32,0,0,0,4,1.46,2.46,2.46,0,0,0,2.44-2.44,2.5,2.5,0,0,0-2.44-2.44c-.25,0-.22,0,0,0-.17,0-.35-.11-.52-.14s.23.17,0,0l-.19-.1q-.41-.26.36.42l.33,1.23v-.17l-.33,1.23s.12-.31.16-.3q-.32.39-.12.2t-.06,0q-.22.16-.05.06t-.08,0c-.43.16.16,0,.16,0s-.55.22-.18,0h.16l-.34,0c.42.08-.31-.2-.07-.05s-.44-.42-.06,0a2.44,2.44,0,1,0,3.45-3.45Z"/><path class="cls-12" d="M193.8,143a8.23,8.23,0,0,0-3.39,4c-1.69,3.51-2.91,5.06-6.41,6.83l3.59,2.76a3.21,3.21,0,0,1,3.24-1.93l-3-1.7.11,3c-.1,1.75,1.64,2.56,3.09,2.35a9.32,9.32,0,0,1,7.11,1.93l.58-4.46c-2.22.65-5,1.66-7.12,1.17-1.36-.31-1.79-.89-3.34-.57-4.77,1-7.27,5.26-11.36,7.21l3.34,3.34,2.6-4.29-4.21-2.46a14.21,14.21,0,0,1-6.77,6.64c-2.5,1.23-.75,5.23,1.88,4.46a62.86,62.86,0,0,0,16.34-7.44c2.64-1.69.19-5.92-2.46-4.21a58.35,58.35,0,0,1-15.18,7l1.88,4.46a18.44,18.44,0,0,0,8.52-8.39c1.42-2.79-2.58-5.17-4.21-2.46l-2.6,4.29c-1.35,2.23,1.25,4.34,3.34,3.34,3.45-1.64,6.14-6.43,10.13-6.32,1,0,2,.65,3.18.6A32.53,32.53,0,0,0,200,160.4a2.47,2.47,0,0,0,.58-4.46,14.24,14.24,0,0,0-10.87-2.42l3.09,2.35a14.15,14.15,0,0,0-.28-4.27c-.23-1.38-1.81-1.92-3-1.7-3.22.58-6,1.86-6.65,5.34a2.48,2.48,0,0,0,3.59,2.76,18.09,18.09,0,0,0,5.87-4.08c1.4-1.66,2.11-5.66,3.93-6.74,2.7-1.6.25-5.82-2.46-4.21Z"/><path class="cls-12" d="M208.83,151.76c3,1.37,7.35,2.56,9.83,4.76a28.57,28.57,0,0,1,2.31,3.09c1,1.15,2.46,1.87,3.08,3.28l4.21-2.46c-.46-.8.81-2.89.89-3.8a5,5,0,0,0-.38-2.46,6.89,6.89,0,0,0-3.49-3.29c-4-2-8.47-4.42-13-4.93-3.12-.35-3.09,4.53,0,4.88,2.1.24,4,1.31,5.9,2.17,1.54.7,3.61,1.28,5,2.29,1.59,1.18.44,2.08.15,3.82a5.23,5.23,0,0,0,.67,3.79c1.61,2.79,5.44.34,4.21-2.46-.65-1.48-1.76-2.18-2.88-3.27s-2-2.87-3.27-4.09c-2.77-2.66-7.38-3.95-10.81-5.52-2.84-1.3-5.32,2.9-2.46,4.21Z"/><path class="cls-12" d="M192.23,108.72c.33-.8.86-1,1.46-1.46q1.3,0,.66-2l-.95.67c-1.23.88-2.21,1.7-2,3.36.32,2.94,4.66,5.36,7,6.65,2.76,1.51,5.22-2.7,2.46-4.21a21.26,21.26,0,0,1-3.15-2c-.21-.17-1.33-1.29-1.4-1.25l-.43,1.73.71-.5c1.84-1.33,2.84-3.32,1.37-5.42a5.07,5.07,0,0,0-5.55-1.71,7.71,7.71,0,0,0-4.87,4.87,2.46,2.46,0,0,0,1.7,3,2.5,2.5,0,0,0,3-1.7Z"/><path class="cls-13" d="M96,123a4.78,4.78,0,0,0-4.2,1.6l1.92,1.48a1.65,1.65,0,0,1,1.93-.92l1.19-2-.37-.17-1.5,1.5a19.44,19.44,0,0,1,4.55,2.44c1.28.91,2.5-1.2,1.23-2.11a51.9,51.9,0,0,0-5.25-3.22,1.22,1.22,0,0,0-1.23,2.11l5.94,4c1.16.78,2.45-1,1.48-1.92a43.44,43.44,0,0,0-3.83-3.35c-1.21-.94-2.82.53-1.73,1.73,1.27,1.38,3.08,3.54,5,4.12s3.14-1.18,4.34-2.19-.53-2.73-1.73-1.73a9.4,9.4,0,0,1-1.22,1c-1,.58-1.36.1-2.2-.6a25,25,0,0,1-2.42-2.35l-1.73,1.73a43.44,43.44,0,0,1,3.83,3.35l1.48-1.92-5.94-4-1.23,2.11a51.9,51.9,0,0,1,5.25,3.22l1.23-2.11a21.88,21.88,0,0,0-5.13-2.69,1.23,1.23,0,0,0-1.5,1.5,2.55,2.55,0,0,0,2.08,1.88,1.23,1.23,0,0,0,1.19-2c-2.05-2.12-4.33-.45-5.77,1.41-.85,1.1,1,2.48,1.92,1.48a2.67,2.67,0,0,1,2.48-.88c1.56.17,1.55-2.27,0-2.44Z"/><path class="cls-13" d="M114.85,133l0,.2.6-1.05.11,0,.29,2.23a4.6,4.6,0,0,1,2.94-.55l-.86-2.08c-.71.82-2.12.83-3.07,1.27a11.47,11.47,0,0,0-2.5,1.65c-1.85,1.53-3.37,3.48-5.84,4l.65,2.35q3-1.19,6.08-2.19c1.49-.48.85-2.84-.65-2.35q-3.07,1-6.08,2.19a1.22,1.22,0,0,0,.65,2.35c2.47-.48,4.18-2.15,6-3.77a9.94,9.94,0,0,1,3.47-2.27c1.19-.39,2.15-.48,3-1.47a1.24,1.24,0,0,0-.86-2.08,6.79,6.79,0,0,0-4.17.89,1.23,1.23,0,0,0,.29,2.23c1.71.31,3.19-1.18,2-2.78-.93-1.24-3,0-2.11,1.23Z"/><path class="cls-13" d="M116.27,104.35l-.4.22h2.46q.6,2.76,2.42,1.86a20.52,20.52,0,0,1,2.44-.56c1.41-.24,2.84-.23,4.26-.36,2.34-.21,4.42-1.33,6.67-1.51s4.66,1.15,7.07,1.44c3.08.38,7.25-.3,9.31,2.72l3.34-3.34c-2.71-1.92-7.08-6.71-10.81-6.2-1.22.17-1.74.86-2.75,1.52-2.67,1.75-5.55,2-8.63,2.62l1.3,4.71a24.24,24.24,0,0,1,12,.37c3,.83,4.33-3.88,1.3-4.71a29.89,29.89,0,0,0-14.55-.37c-3.09.66-1.76,5.28,1.3,4.71,3.38-.64,6.63-1,9.66-2.63,2-1.11.59-1.62,3.05.13l5.72,4.07c2,1.41,4.69-1.37,3.34-3.34-2.84-4.15-7-4.59-11.66-5-2.87-.24-5.41-1.8-8.2-2s-5.4,1.57-8.21,1.91c-3.37.4-11.07.16-12.43,4.3a3.06,3.06,0,0,0,4.5,3.6c2.75-1.53.29-5.75-2.46-4.21Z"/><path class="cls-13" d="M151.67,123.35a22.67,22.67,0,0,1,16.95,2.42c2.57,1.46,4.59-1.76,3-3.83-.6-.76-2.52-2.4-3.66-2l-.28,1.85,1.6-.34a27.46,27.46,0,0,0,4.81-1l-1.3-4.71a39.82,39.82,0,0,1-8.95,1.26l.65,4.79a43,43,0,0,1,11.76-1.31l-1.73-4.17c-2.35,2-4.27,5.41-1.42,7.9a4.55,4.55,0,0,0,4.09.94c1.31-.29,4.73-3.66,5.59-3.1l.58-4.46-1.51.36v4.88a13.58,13.58,0,0,1,10.31,4l2.37-4.08c-4.79-1.49-11.58-2.4-15.17-6-2-2-7.07-4.44-7.94-6.95l-2.35,3.09,4.57-.54c3.08-.36,3.12-5.25,0-4.88l-4.57.54c-1.45.17-2.93,1.44-2.35,3.09,1.53,4.4,6.07,6,9.19,9.1,4.47,4.43,11.46,5.4,17.32,7.23a2.46,2.46,0,0,0,2.37-4.08A18.5,18.5,0,0,0,181.83,118c-3.13.07-3.15,4.92,0,4.88a5.64,5.64,0,0,0,2.81-.54c1.9-.8,2.48-3.23.58-4.46a4.9,4.9,0,0,0-4.7-.63,6.22,6.22,0,0,0-2.65,1.7c-.55.65-2.1,2.72.08.86,1.68-1.44.26-4.12-1.73-4.17a47.79,47.79,0,0,0-13.06,1.48c-2.65.67-2.12,4.87.65,4.79a45.54,45.54,0,0,0,10.24-1.44c3.06-.79,1.76-5.36-1.3-4.71-2.8.6-8.85.6-9.66,4.25-.89,4,3.47,3.44,5,5.41l3-3.83a27.7,27.7,0,0,0-20.71-2.91c-3.05.73-1.76,5.44,1.3,4.71Z"/><path class="cls-13" d="M204.42,116.93a7.28,7.28,0,0,1,.76,2.28c.13.89-.28,1.3.62,1.14l1.88.25q.83.67-.89.17.67.48,1.3,1c.89.69,1.77,1.37,2.7,2a45.59,45.59,0,0,0,6.33,3.61c2.82,1.34,5.3-2.86,2.46-4.21a46,46,0,0,1-5.58-3.1c-1.64-1.08-3.07-2.53-4.75-3.53-2.92-1.72-6.78-.19-6.68,3.49.08,2.84,2.85,6.62,5.92,4.48s1.45-7.47.15-10.06c-1.42-2.8-5.63-.34-4.21,2.46Z"/><path class="cls-13" d="M203.94,151.75a8.06,8.06,0,0,1,4.78-.15l1.3-4.71c-3.49-.84-7.35-2.8-9.6,1a2.48,2.48,0,0,0,.88,3.34c1.93,1.17,3.42,1.77,5,3.44a7,7,0,0,0,3.95,2.14c1.5.32,2.6.28,4,1.21.84.56,1.54,1.37,2.36,2a27,27,0,0,0,5.93,3.2c2.9,1.19,4.17-3.53,1.3-4.71a22.59,22.59,0,0,1-6.51-4.27,8,8,0,0,0-4.09-2.39c-2.39-.36-3-.35-4.71-2.11-1.48-1.5-3.05-1.63-4.79-2.69l.88,3.34c-.2.33,3.75,1.18,4.09,1.26,3.05.73,4.35-3.94,1.3-4.71a13,13,0,0,0-7.37.15c-3,.91-1.72,5.63,1.3,4.71Z"/><path class="cls-13" d="M204.21,154.21a51.34,51.34,0,0,1-5.49-2.43,47.53,47.53,0,0,1-4.74-2.52l-.71,1.73c.79-1,3.36-.73,4.53-1.17,1.64-.62,2.58-1.92,4.42-2.13l-.65-4.79c-3.64,1.42-7.89,4.31-6.13,8.84,1.12,2.88,5.8,1.68,4.71-1.3l-1.32-3.63a17.73,17.73,0,0,1-1.28-3.32l-1.21,2.11c-.3.18,2.7.86,3.08.82a4.05,4.05,0,0,0,2.74-1.42c2.06-2.36-1.38-5.82-3.45-3.45,0,0-2.08-.65-2.35-.67a3.65,3.65,0,0,0-2.48.51,2.39,2.39,0,0,0-1.21,2.11c.31,2.77,1.82,5.63,2.78,8.25l4.71-1.3c-.64-1.63,1.51-2.36,2.72-2.83,2.33-.91,2.32-5.13-.65-4.79a11.17,11.17,0,0,0-3.6.79c-1.45.69-2.35,1.7-4,2-2.26.39-5.24.84-5.5,3.67s2.69,4.2,4.67,5.36a59.09,59.09,0,0,0,9.14,4.3c2.94,1.11,4.21-3.61,1.3-4.71Z"/><path class="cls-13" d="M159.16,128.57l-.24.32L163,130l.15-1.3-3.59,1.46.49-.64-2.76,3.59c7.65,1.09,10.37,7,14.71,12.45a18.39,18.39,0,0,0,3.9,3.67c.86.59,5.42,2.78,5.32,2.32l.63-2.37-.46.49,2.37-.63c-6.29-1.33-13.88-6.26-16.27-12.34L163.41,139c4.88,6,9.8,11.9,15.73,16.9,2.39,2,5.86-1.42,3.45-3.45-5.93-5-10.85-10.9-15.73-16.9-1.51-1.85-5,.14-4.08,2.37,2.35,6,6.82,9.88,12.49,12.73,2.26,1.14,10.83,6.09,10.7-.15,0-1.9-1.37-2.62-2.88-3.32-4.08-1.9-6.54-3.4-9.08-7.29-3.68-5.65-8.43-10.57-15.43-11.57-1.89-.27-4.07,1.61-2.76,3.59,4.35,6.53,12.61-1.22,6.19-6-1.31-1-3.18.09-3.59,1.46a6.71,6.71,0,0,0-.15,3.89c.36,2,2.8,2.1,4.08,1.08a3.58,3.58,0,0,0,1.5-2.48c.67-3.06-4-4.37-4.71-1.3Z"/><path class="cls-13" d="M80.69,127.54l-1.38,1.41c3.12-.15,3.16-4.94,0-4.88l-1.14-.1v4.71a17.47,17.47,0,0,1,4-1.13l-1.3-4.71c-3.46,1.19-6,6.31-5.22,9.93.47,2.3,2.47,4.06,4,5.7.89,1,8,9.22,7.65,9.35l2.37.63c-2.71-2.12-4.12-4.61-7.54-5.77a2.46,2.46,0,0,0-3,3A15.61,15.61,0,0,0,81.56,150c1.24,1.59,3.52.43,4.08-1.08,3.39-9.16-5.72-12.28-6.49-20.56-.29-3.1-5.17-3.13-4.88,0a17.59,17.59,0,0,0,2.52,8.12c2.38,3.77,6.05,6,4.15,11.15L85,146.57l-1.21-2.21-3,3c2.85,1,4.33,5.38,7.44,5.19,2.58-.16,3.31-3.07,3.18-5.16-.24-3.88-3.11-6.71-5.59-9.4a47.82,47.82,0,0,1-4.42-4.78c-1.81-2.63-.62-1.2-.35-2.91.08-.49.71-2.63,1.09-2.76a2.44,2.44,0,0,0-1.3-4.71,17.47,17.47,0,0,0-4,1.13c-2,.83-2.58,4.1,0,4.71a8.62,8.62,0,0,0,2.43.28v-4.88a3.38,3.38,0,0,0-3.5,3.48c-.24,3.13,4.65,3.12,4.88,0Z"/><path class="cls-14" d="M91.76,116.91a5.58,5.58,0,0,0-2.18,1.8,5.32,5.32,0,0,0-.61,1.12,2.82,2.82,0,0,0-.27.74c0,.61-.38-.1.25.44l-.25,1.92a9.84,9.84,0,0,1,4.15-1.54v-2.44a3.44,3.44,0,0,0-1.62.58c-.24.17-.45.39-.7.55s-.42.12-.26.27a1.23,1.23,0,0,0-1.73,0,2.19,2.19,0,0,0-.62,1.55,1.22,1.22,0,0,0,2.44,0l-.1.18H88.53a2.28,2.28,0,0,0,2.27.56,3.4,3.4,0,0,0,1-.46c.28-.19.71-.74,1.07-.78a1.26,1.26,0,0,0,1.22-1.22,1.23,1.23,0,0,0-1.22-1.22,12.58,12.58,0,0,0-5.38,1.87,1.23,1.23,0,0,0-.25,1.92,2.21,2.21,0,0,0,3.37-.53c.39-.59.5-1.31.87-1.91A3.37,3.37,0,0,1,93,119c1.42-.66.19-2.76-1.23-2.11Z"/><path class="cls-15" d="M109.94,133A15.07,15.07,0,0,1,100.2,136c-1.57-.07-1.57,2.37,0,2.44a17.26,17.26,0,0,0,11-3.25c1.26-.91,0-3-1.23-2.11Z"/><path class="cls-15" d="M185.56,108.61l-5.15.41.62,2.27c1.72-1,4.9-3.19,6.49-1.91.87.71.4,1.2,1.64,1.64l.32-2.4a27.72,27.72,0,0,1-3.66.12c-1.16,0-1.74,1.76-.62,2.27,1.51.69,3,.51,4.49,1s2.44,1.81,3.86,2.37c.38.15.92-.08,1.27.1,1,.47.81.9,1.48,1.42a4,4,0,0,0,2.41,1c1.55.2,1.54-2.24,0-2.44-.9-.11-1-1.24-1.63-1.75-.9-.78-2-.52-3-.93a29.18,29.18,0,0,1-2.56-1.66c-1.58-.81-3.44-.49-5.06-1.23l-.62,2.27a27.72,27.72,0,0,0,3.66-.12,1.23,1.23,0,0,0,.32-2.4,4.3,4.3,0,0,0-.35-1.59,2.76,2.76,0,0,0-1.71-.88c-2.5-.35-5.93,1.77-7.94,3-1,.59-.64,2.37.62,2.27l5.15-.41c1.56-.12,1.57-2.56,0-2.44Z"/><path class="cls-15" d="M170.12,118.93a67,67,0,0,1,5.49,4.73l1.19-2c-7.59-2.49-15.3-4.41-23.07-1.55-1.21.44-1.14,2.48.32,2.4l2-.12-.32-2.4-3.26-.12-.32,2.4c3.65.21,7,.53,10.17,2.58l.62-2.27a14.93,14.93,0,0,1-5.62-1.23l-.65,2.35a101.18,101.18,0,0,1,10.43,2.24l.65-2.35a21.21,21.21,0,0,0-4.93-.67v2.44a45.43,45.43,0,0,0,6.63-1,1.23,1.23,0,0,0,0-2.35l-6.85-1.66a1.22,1.22,0,0,0-.65,2.35c3.84,1.31,9.65-1.37,12.51,2.14l1.19-2c-2.78-1.13-5.29-1-8.27-.89-3.92.19-7.33-.65-11.11-1.6a1.24,1.24,0,0,0-1.38,1.79l.46.9c.72,1.4,2.82.16,2.11-1.23l-.46-.9-1.38,1.79a44.66,44.66,0,0,0,8.75,1.75c3.7.17,7.06-.72,10.64.74,1.26.51,1.86-1.22,1.19-2-3.56-4.36-9-1.2-13.59-2.76l-.65,2.35,6.85,1.66V122a41.25,41.25,0,0,1-6,.9,1.22,1.22,0,0,0,0,2.44,12.35,12.35,0,0,1,4.29.59,1.22,1.22,0,0,0,.65-2.35,101.18,101.18,0,0,0-10.43-2.24,1.22,1.22,0,0,0-.65,2.35,18,18,0,0,0,6.26,1.31,1.23,1.23,0,0,0,.62-2.27c-3.49-2.27-7.33-2.68-11.4-2.91a1.23,1.23,0,0,0-.32,2.4,9.23,9.23,0,0,0,4.55.12,1.23,1.23,0,0,0-.32-2.4l-2,.12.32,2.4c7.37-2.71,14.6-.8,21.77,1.55a1.23,1.23,0,0,0,1.19-2,73,73,0,0,0-6-5.11c-1.24-1-2.46,1.16-1.23,2.11Z"/><path class="cls-15" d="M134.33,124.73c-6.09-.2-10.67,4.56-17,4.45l.62,2.27c5.29-2.37,9.82-3.28,15.48-4.14,4.6-.7,8.25-2.52,13.05-2.13,1.25.1,1.6-1.69.62-2.27l-1.68-1.33a1.23,1.23,0,0,0-2.08.86c.08,1.58-14.8,3.87-16.49,4.23s-.88,2.65.65,2.35c7-1.36,14.25-3.41,21.43-2.71,1.56.15,1.55-2.29,0-2.44-7.41-.72-14.85,1.4-22.08,2.8l.65,2.35c5-1.08,10.44-1.74,15.35-3.28,1.78-.56,3-1.22,2.93-3.3l-2.08.86a7,7,0,0,0,2.17,1.71l.62-2.27c-5.62-.46-9.92,1.78-15.39,2.35a46.31,46.31,0,0,0-14.37,4.25c-1.16.52-.5,2.25.62,2.27a20.11,20.11,0,0,0,8.1-1.4c3-1.22,5.4-3.17,8.87-3.05,1.57.05,1.57-2.39,0-2.44Z"/><path class="cls-15" d="M149.46,122.72a27.41,27.41,0,0,0,11.73,4v-2.44c-4.59-.21-7.8-1.44-12-2.92-1.89-.67-3.26-1.08-5,.25-.87.66-.72,2.34.62,2.27,4.33-.2,7.83,1.71,11.87,2.83a27.29,27.29,0,0,0,9.9.89c1.56-.15,3.11-.72,4.64-.84,1.8-.15,3.43.74,5,.79s2.14-.11,2.92-1.51a1.22,1.22,0,0,0-2.11-1.23,27.52,27.52,0,0,0-4.87-.78c-3.07.34-5.88,1.38-9.08,1.24-6.37-.26-11.86-4.12-18.26-3.83l.62,2.27c1.36-1,7.08,1.89,9,2.31a39.65,39.65,0,0,0,6.78.7c1.6.07,1.52-2.27,0-2.44a24.75,24.75,0,0,1-10.5-3.71c-1.34-.83-2.56,1.28-1.23,2.11Z"/><path class="cls-15" d="M199.78,127.95a5,5,0,0,1-1.12-.9l.36.86v-.32l-.6,1.05c-.4.21-.23,2.27-.17,2.7a3.09,3.09,0,0,0,1,1.93,1.22,1.22,0,0,0,1.73-1.73,51,51,0,0,1-4.68-5.88l-1.38,1.79c.87.12,1.74.26,2.61.45.49.11,2.37.34,2.69.76.61.8-1.45,4.65-1.85,5.49l1.92-.25a6,6,0,0,1-1.37-2.1c-.56-1.45-2.92-.82-2.35.65a9,9,0,0,0,2,3.17,1.23,1.23,0,0,0,1.92-.25,38.25,38.25,0,0,0,1.75-4.31c.35-1.06.83-2.27.36-3.37a3.28,3.28,0,0,0-2.43-1.66,29.66,29.66,0,0,0-4.6-1c-.94-.13-2.05.81-1.38,1.79a55.33,55.33,0,0,0,5.07,6.37l1.73-1.73c-.61-.58-.18-1.72-.21-2.44a3.28,3.28,0,0,0-.59-1.83,2.25,2.25,0,0,0-3-.73,1.22,1.22,0,0,0-.6,1.05c0,1.24,1,1.84,2,2.46,1.31.87,2.54-1.24,1.23-2.11Z"/><path class="cls-15" d="M155.28,107.59a8.9,8.9,0,0,0,5.23,1.43c2.77-.08,4.94,0,7.36,1.56l.29-2.23c-1.64.55-3.87-.32-5.62-.29s-4.69.71-5.63-1.25l-1.38,1.79,6,2.34c1.55.6,2.85,1.2,4.52.94s.89-2.59-.65-2.35-3.25-.95-4.52-1.44l-4.73-1.84c-1.09-.42-1.79.94-1.38,1.79,1,2,3.13,2.52,5.22,2.54a31,31,0,0,1,5.06.12,7.1,7.1,0,0,0,3.72,0,1.24,1.24,0,0,0,.29-2.23,12.36,12.36,0,0,0-5.27-1.94c-2.69-.3-4.83.46-7.32-1a1.22,1.22,0,0,0-1.23,2.11Z"/><path class="cls-15" d="M138.1,90l-.8-.19L136.35,92c3.8,1.37,7.05-2.16,9.77-4.3l-1.92-1.48c-.7,1.52-2.27,2.13-3.69,2.86a10.73,10.73,0,0,1-2.33,1.16c-1.54.34-2.22-.63-2.72-1.94l-2,1.19c2,2.23,4.94,2.43,7.77,2.38a1.22,1.22,0,0,0,0-2.44c-2.16,0-4.49.06-6-1.66-.79-.87-2.48,0-2,1.19.93,2.43,2.72,4.63,5.58,3.73a25,25,0,0,0,4.71-2.36,6.5,6.5,0,0,0,2.91-2.87A1.23,1.23,0,0,0,144.4,86c-1.94,1.52-4.69,4.64-7.4,3.67-1.36-.49-2,1.5-.94,2.23a2.82,2.82,0,0,0,2,.52c1.55-.16,1.56-2.61,0-2.44Z"/><path class="cls-15" d="M111.19,105.73,108.76,109l2.11,1.23c1-2,2.39-3.83,1.8-6.09a1.23,1.23,0,0,0-2.4.32c-.18,2.63-1.91,3.38-3.94,4.53-1.59.9-2.78,2.33-4.19,3.46-3,2.41-6.81,3.11-9,6.5-.85,1.33,1.26,2.55,2.11,1.23,1.58-2.47,4.35-3.17,6.71-4.64,1.8-1.12,3.15-2.77,4.89-3.95,1.52-1,3.86-1.23,5.13-2.67s.61-2.87.72-4.47l-2.4.32c.27,1-1.08,3.23-1.55,4.2a1.22,1.22,0,0,0,2.11,1.23L113.3,107c.93-1.27-1.19-2.49-2.11-1.23Z"/><path class="cls-15" d="M78.87,133.8c2,3.73,5.54,6.08,9.06,8.28,1.2.75,2.41-.93,1.48-1.92l-9.53-10.08c-1.08-1.14-2.81.58-1.73,1.73l9.53,10.08L89.16,140c-3.16-2-6.35-4-8.18-7.41-.75-1.38-2.86-.15-2.11,1.23Z"/><path class="cls-15" d="M133.5,145.29c-4.92-5.23-12.11,1.87-17.61-1.47l-.62,2.27c3.1.14,6.19.26,9.29.42,2.7.14,5.62,1.13,8.3.84,1.11-.12,2.47-.54,2.74-1.79.31-1.42-.87-1.85-1.67-2.78-1-1.19-2.74.54-1.73,1.73,1.54,1.79-1.3.25-2.41.05a37.84,37.84,0,0,0-4-.43c-3.5-.23-7-.32-10.52-.47a1.23,1.23,0,0,0-.62,2.27,9.59,9.59,0,0,0,6.69,1.19c3.18-.45,7.74-3,10.42-.11,1.08,1.15,2.8-.58,1.73-1.73Z"/><path class="cls-15" d="M142,123.61c2.68-1.14,5.88.24,8-2.36,1-1.21-.73-2.95-1.73-1.73s-2.25,1.17-3.6,1.23a10.68,10.68,0,0,0-3.89.75c-1.44.61-.2,2.71,1.23,2.11Z"/><path class="cls-16" d="M90.32,127c7.92-11.42,23.64-17.59,37-19.2,15.16-1.82,30,3.2,44.09,8v-2.35q-19.63,4-38.91,9.5c-5.82,1.66-11.67,3.32-17.31,5.51-5.14,2-18.2,10.37-20.35.83-.35-1.53-2.7-.88-2.35.65,1.07,4.74,5.73,6.78,10.28,6.08a26.56,26.56,0,0,0,6.93-2.51,115.85,115.85,0,0,1,12.86-5,478.92,478.92,0,0,1,49.51-12.66c1.26-.26,1.06-2,0-2.35-15.36-5.24-31.35-10.45-47.76-7.69-13.32,2.24-28.2,8.59-36.11,20-.9,1.29,1.22,2.52,2.11,1.23Z"/><path class="cls-16" d="M114.61,129a62.91,62.91,0,0,1-22.67,15.19c-1.17.46-1.16,2.52.32,2.4l28.63-2.37c5.36-.44,10.94-1.81,15.41,2,2.32,2,4.41,4.14,6.9,5.92a48.57,48.57,0,0,0,39.62,7.33c1.52-.38.88-2.73-.65-2.35a45.9,45.9,0,0,1-24.59-.61c-7.83-2.4-13.48-6.79-19.56-12-5.1-4.37-10.86-3.21-17.13-2.69l-28.63,2.37.32,2.4a65.76,65.76,0,0,0,23.75-15.82c1.09-1.13-.64-2.86-1.73-1.73Z"/><path class="cls-16" d="M145.11,123.63c1.7.73,3.4,1.46,5.08,2.23,1.45.66,4.84,1.55,5.84,2.79s.72-.28-.65.74a18.41,18.41,0,0,0-1.57,1,1.22,1.22,0,0,0-.19,1.48c2.94,4.21,7.68,4.76,12.5,4.86l-.62-2.27c-5,3.32-.67,7.91,2.42,10.68,5.9,5.3,11.73,11.54,18.86,15.16,1.4.71,2.63-1.39,1.23-2.11-4.51-2.3-8.15-5.71-11.91-9.05-1.44-1.27-13.15-10.06-9.37-12.58a1.23,1.23,0,0,0-.62-2.27,22.44,22.44,0,0,1-6.22-.7,5.43,5.43,0,0,1-2.74-1.41q-1.53-.78.2-.77c1-.9,2.18-.29,2.35-2,.11-1.22-.75-1.75-1.62-2.41-3.2-2.46-8.05-3.86-11.74-5.43-1.43-.61-2.67,1.49-1.23,2.11Z"/><path class="cls-16" d="M183.61,109.27a30.08,30.08,0,0,1,8.38-4.42c1.19-.39,6.41-2.17,5.44,2-.19.79-1.22,1.51-1.55,2.29a3.12,3.12,0,0,0-.07,2.87c.67,1.28,5.17,2.47,3.72,4.42-.94,1.26,1.18,2.48,2.11,1.23,1.73-2.34.69-4.37-1.39-5.84s-2.21-1.39-.93-3.41a4.26,4.26,0,0,0,.87-3.52c-1.94-7.67-14.61,0-17.79,2.29-1.26.91,0,3,1.23,2.11Z"/><path class="cls-16" d="M179.59,125.47c3.53-4.89,14,3.83,15.38,7.33.49,1.27.44,2,1.41,3.14,1.46,1.65,4.77,2,4.49,4.83-.15,1.56,2.29,1.55,2.44,0,.34-3.54-2.81-4.39-4.74-6.72-1.34-1.61-1-3.32-2.2-4.92-.9-1.22-2.55-1.75-3.77-2.54-4.42-2.85-10.67-8.53-15.13-2.35-.92,1.28,1.2,2.49,2.11,1.23Z"/><path class="cls-16" d="M205.12,147.6c4.58-.32,9.52-.64,13.92.94a14.15,14.15,0,0,1,6,4.36c.25.29,4.67,4.33,2,4.35a1.24,1.24,0,0,0-1.18,1.54c.49,2.17,3.68,4-.33,4.59-2.71.37-7-3.19-9.16-4.69a63.17,63.17,0,0,0-7-4.54c-1.25-.64-8.86-2.77-8.32-4,.64-1.42-1.46-2.66-2.11-1.23-1.6,3.54,1.35,4.86,4.38,5.58,6.14,1.48,10.53,5.86,15.88,8.9,2.78,1.58,7.86,4.18,10.82,1.47,3.18-2.91-1.26-4.27-1.83-6.77l-1.18,1.54c1.9,0,4.15-.28,4.68-2.48.36-1.5-.14-1.95-1.14-2.9-1.35-1.28-2.92-2.18-4.26-3.63-5.57-6-13.53-6-21.2-5.51-1.56.11-1.57,2.55,0,2.44Z"/><path class="cls-16" d="M199.6,141c-1.45-2.76-4.61-2.11-6.54-.23-3.77,3.67-7,8.22-10.37,12.24-1,1.19.71,2.93,1.73,1.73l5.84-6.93c.72-.85,5.9-8.12,7.23-5.57.73,1.39,2.84.16,2.11-1.23Z"/><path class="cls-16" d="M201.61,142.46l3.15,2.5a1.26,1.26,0,0,0,1.73,0,1.23,1.23,0,0,0,0-1.73l-3.15-2.5a1.26,1.26,0,0,0-1.73,0,1.23,1.23,0,0,0,0,1.73Z"/><path class="cls-16" d="M179.1,157.69A101.51,101.51,0,0,1,167.94,169c-.89.78-.08,2,.86,2.08,8.1,1,14.73-1.27,21.43-5.63,5.25-3.42,12.62-2.38,16.82-7.45,1-1.2-.72-2.94-1.73-1.73-3.66,4.41-10.28,3.57-15,6.24-3.31,1.87-5.88,4-9.61,5.2a27.15,27.15,0,0,1-11.89.92l.86,2.08a101.51,101.51,0,0,0,11.15-11.36c1-1.2-.71-2.93-1.73-1.73Z"/><path class="cls-16" d="M112.46,102.08c-3.71,1.2-5.79-4.9-10.17-3.3-2.28.83-4,2.94-6.29,4a69.77,69.77,0,0,1-8.56,2.85c-1.91.6-5.55,1.26-5.25,4,.36,3.37,7.41,7.43,9.94,9,1.33.84,2.56-1.27,1.23-2.11-2-1.27-5-2.76-6.3-4.78q-1.84-.78-.8-2.25.06-1.65,1.83-1.56c2.65-1.46,6.22-1.69,9-3,1.35-.63,2.55-1.73,3.89-2.3,5-2.16,4.63-.7,7.47,1.05a4.89,4.89,0,0,0,4.65.72c1.49-.48.85-2.84-.65-2.35Z"/><path class="cls-16" d="M74,125.9a12.73,12.73,0,0,0-1.91,7,18.16,18.16,0,0,0,.52,3,47.4,47.4,0,0,1,.33,5.36c.24,4.25,2.95,6.29,6.66,8.11,1.4.69,2.64-1.41,1.23-2.11s-3.41-1.58-4.44-2.94c-1.68-2.24-.45-3.81-.58-5.92a16.32,16.32,0,0,0-.85-3.15,9.91,9.91,0,0,1,1.15-8.06A1.22,1.22,0,0,0,74,125.9Z"/><path class="cls-16" d="M87.82,121c-1.07-2.1-4-1.78-5.38-.2a5.82,5.82,0,0,0-1.12,3.62c-.08,1.44.24,4-1.69,4.32-1.55.25-.89,2.6.65,2.35,1.9-.3,3-2.05,3.32-3.84.2-1.11.06-2.24.19-3.35a2.48,2.48,0,0,1,.62-1.64c.36-.31,1-.55,1.3,0,.72,1.4,2.82.17,2.11-1.23Z"/><path class="cls-16" d="M88,136.36c-1,2.32-.46,4.38.39,6.67.64,1.76,1.65,3.44,1.58,5.36-.06,1.75-1.49,2.86-1.61,4.53-.34,4.48,5.29,5,8.3,3.56,2.36-1.1,4.18-3.09,6.2-4.67,1.64-1.28,3.43-2.53,5.59-2.54s4.83,1.25,7.12,1.59c5.91.88,13.36,1.64,17.66-3.36,1-1.19-.7-2.92-1.73-1.73-4.62,5.37-14.12,3-20,1.65-4-1-6.66-.21-10,2.32-1.95,1.49-3.7,3.55-6,4.5-2,.84-4.54.64-4.07-2.26.11-.71.8-1.48,1-2.26.87-4.46-3.87-8.37-2.08-12.72.6-1.45-1.76-2.08-2.35-.65Z"/><path class="cls-16" d="M150,72.84c-3.82-1.58-7.11-2.3-10.75,0-4.37,2.81-7.82,6-12.68,8.12a1.24,1.24,0,0,0-.44,1.67c1.52,3,5.4,3.49,6.68,6.67.93,2.29.55,4.29,3.48,5,1.53.35,2.18-2,.65-2.35s-2.11-4.76-3.27-6c-1.68-1.77-4.27-2.22-5.43-4.52l-.44,1.67A42.78,42.78,0,0,0,137,77.8c.87-.67,1.67-1.45,2.55-2.09,3.48-2.54,6.11-2,9.77-.51,1.45.6,2.08-1.76.65-2.35Z"/><path class="cls-16" d="M150.25,82.87c5,1.62,6.85,7.7,12,9.24,3.8,1.14,7.18-.29,10.07,3.67.85,1.17,1,3.3,1.48,4.71l2.22,7.19c.46,1.5,2.82.86,2.35-.65-1.64-5.3-2.31-15.43-9-16.79-2.11-.43-4.39.13-6.47-.5s-3.61-2.38-5-3.94c-2.12-2.31-3.94-4.32-7-5.29-1.5-.48-2.14,1.87-.65,2.35Z"/><path class="cls-16" d="M149.9,81.73c-4.49,2.26-4.69,6.8-8.71,9.24-2.2,1.34-9.15,2.43-9.25,5.63-.08,2.58,3.48,3.47,5.48,3.75,3.44.48,6.64-.6,10.09.73,3.15,1.22,6.34,4,9.2,5.76,1.34.84,2.56-1.28,1.23-2.11-3.38-2.11-7-5.25-10.78-6.62-2.61-1-10.52,1.16-11.46-1.07q-1.61-1,.84-1.28l2.94-1.34c1.76-.8,4-1.45,5.59-2.6,2.86-2.11,2.58-6.23,6.07-8,1.4-.71.17-2.81-1.23-2.11Z"/><path class="cls-16" d="M168.4,112a6,6,0,0,1,5.87-3.18c1.57.11,1.56-2.33,0-2.44a8.44,8.44,0,0,0-8,4.38c-.75,1.38,1.35,2.61,2.11,1.23Z"/><path class="cls-16" d="M121.85,88.32c-1.56-2.3-4.35-2.35-6.43-.62-1.66,1.38-2.47,3.53-4,5a12.42,12.42,0,0,1-8.66,3.51,1.22,1.22,0,0,0,0,2.44A15.15,15.15,0,0,0,111.3,96a14.13,14.13,0,0,0,2.9-2.74c.87-1.09,3.75-6.38,5.55-3.73.88,1.29,3,.07,2.11-1.23Z"/><path class="cls-16" d="M121.56,91.28a99.11,99.11,0,0,1,9,8.59c1.07,1.15,2.79-.57,1.73-1.73a99.11,99.11,0,0,0-9-8.59c-1.2-1-2.93.71-1.73,1.73Z"/><path class="cls-16" d="M114.27,105.53c1.21-4,7.23-1.8,10-2.18,1.93-.27,5.84-3.84,7.3-2.73,1.25,1,2.47-1.17,1.23-2.11a3.53,3.53,0,0,0-3.52-.53c-1.11.37-1.74,1.23-2.71,1.79-2.1,1.23-3.91,1.15-6.23,1-3.48-.2-7.25.29-8.39,4.1a1.22,1.22,0,0,0,2.35.65Z"/><path class="cls-16" d="M111.5,107a1.25,1.25,0,0,0,0-2.5,1.25,1.25,0,0,0,0,2.5Z"/><path class="cls-16" d="M212.34,107.2c5.13-1.74,7,4.13,8.79,7.38,1.55,2.79,3.7,4.46,5.79,6.83,2.56,2.9,2.34,4.07,1.56,7.67a9.16,9.16,0,0,0-.43,3,6.68,6.68,0,0,0,2.55,4.59c1.17,1,2.91-.68,1.73-1.73-3.47-3.06.48-8-1.25-11.87-1.63-3.63-5.47-5.66-7.49-9.05-2.66-4.48-5.33-11.36-11.9-9.13-1.48.5-.84,2.86.65,2.35Z"/><path class="cls-16" d="M206.34,126.1c4.72-1.72,10.26,2,14.32,4.22q2.24,1.2,4.42,2.52,1.45.87,2.88,1.79,3.12,3.1.14,2.8c-2.51,1.18-6.83-.11-9.69.44a12.19,12.19,0,0,0-6.64,3.48,1.22,1.22,0,0,0,1.73,1.73c3-3,6.89-3.1,10.87-3.1,2,0,4.7.34,6.58-.7a2.93,2.93,0,0,0,1.11-4.63c-1.06-1.48-3.55-2.58-5-3.48-2.65-1.62-5.37-3.13-8.16-4.51-4.09-2-8.6-4.59-13.19-2.91-1.46.53-.83,2.89.65,2.35Z"/><path class="cls-16" d="M204.16,123.76a14.12,14.12,0,0,0-4.34,8c-.26,1.54,2.09,2.2,2.35.65a12,12,0,0,1,3.71-6.94c1.15-1.07-.58-2.8-1.73-1.73Z"/><path class="cls-16" d="M205.87,110.23a20,20,0,0,0-3.22,6.6,19.68,19.68,0,0,0-.57,3.31q-.08.94-.08,1.88.23,2.08-2.17,3c-1.13-1.1-2.85.63-1.73,1.73,2,2,5,.82,5.92-1.7.67-1.81.35-3.88.63-5.76a17.68,17.68,0,0,1,3.33-7.84c.92-1.27-1.19-2.49-2.11-1.23Z"/><path class="cls-16" d="M206.62,113.54a20.68,20.68,0,0,0,12.37,12c1.48.53,2.12-1.82.65-2.35A18,18,0,0,1,209,112.89c-.57-1.44-2.93-.81-2.35.65Z"/><path class="cls-16" d="M176.64,97.06c6.39-3.06,13.57-6.5,20.85-4.86,7,1.57,9.25,7.66,13.42,12.59.88,1,2.74-.36,1.92-1.48-3.88-5.32-12.14-7.12-14.78.35-.52,1.48,1.83,2.12,2.35.65,2.33-6.6,8.32-2.52,10.32.23l1.92-1.48c-5-5.93-7.49-12.23-16-13.49C189.11,88.47,182,91.79,175.41,95c-1.42.68-.18,2.78,1.23,2.11Z"/><path class="cls-16" d="M147.92,75.58a66.41,66.41,0,0,1,11.16,11.6c.93,1.24,3.05,0,2.11-1.23a68.84,68.84,0,0,0-11.55-12.09c-1.21-1-2.94.73-1.73,1.73Z"/><path class="cls-15" d="M112.41,106.92l-.21.63a1.22,1.22,0,1,0,2.35.65l.21-.63a1.22,1.22,0,0,0-2.35-.65Z"/><path class="cls-15" d="M100.34,118.07c1.74-.79,3,2.39,3.15,3.54.17,1.54,2.59,1.57,2.44,0-.27-2.88-2.48-4.51-5.2-5.05-2.48-.5-5,.41-5.23,3.2A1.22,1.22,0,0,0,96.73,121c1.84-.18,7,0,6.81,2.8l1.54-1.18c-1-.21-1.75-1.51-2.56-2.14a8,8,0,0,0-2.53-1.35,6.35,6.35,0,0,0-5.24.58,1.23,1.23,0,0,0,.62,2.27,10.28,10.28,0,0,1,6.63,3.81c1,1.21,2.72-.52,1.73-1.73a12.72,12.72,0,0,0-8.35-4.53L96,121.8a4.41,4.41,0,0,1,4.9.45c1.27.93,1.89,2.37,3.55,2.7a1.24,1.24,0,0,0,1.54-1.18c.37-4.5-6-5.57-9.25-5.24L98,119.75c.12-1.6,2.72-.75,3.45-.47a2.84,2.84,0,0,1,2.09,2.32h2.44c-.36-3.24-3.12-7.35-6.83-5.65-1.43.65-.19,2.76,1.23,2.11Z"/><path class="cls-11" d="M205.83,141.3a6.6,6.6,0,0,0-3,1.67,2.46,2.46,0,0,0,0,3.45,2.49,2.49,0,0,0,3.45,0l.17-.16q.21-.18-.19.14a3.76,3.76,0,0,0,.4-.25l.14-.07q.36-.17-.15.06l.45-.13a2.46,2.46,0,0,0,1.7-3,2.49,2.49,0,0,0-3-1.7Z"/><path class="cls-17" d="M111.83,120.21a37.17,37.17,0,0,1,25.94-6.62c2.34.26,2.32-3.4,0-3.66A40.28,40.28,0,0,0,110,117c-1.92,1.34-.09,4.52,1.85,3.16Z"/><path class="cls-17" d="M146.23,114.57a1.88,1.88,0,0,0,0-3.75,1.88,1.88,0,0,0,0,3.75Z"/><path class="cls-17" d="M139.44,141.92c4.08,1.87,6.87,5.35,10.51,7.85s7.41,2.95,11.56,3.17c2.35.13,2.35-3.53,0-3.66-5-.27-8.51-1.46-12.28-4.74-2.51-2.19-4.88-4.37-7.94-5.78-2.13-1-4,2.18-1.85,3.16Z"/><path class="cls-17" d="M169.66,155.78a1.88,1.88,0,0,0,0-3.75,1.88,1.88,0,0,0,0,3.75Z"/><path class="cls-17" d="M150.93,89.17a18.79,18.79,0,0,0,8,7.1,13.64,13.64,0,0,0,4.72,1.05,4.14,4.14,0,0,1,2.67.64,15.65,15.65,0,0,1,2.21,2.26c1.71,1.62,4.3-1,2.59-2.59-1.05-1-1.46-2.34-2.72-3.15a7.57,7.57,0,0,0-3.86-.82c-4.63-.29-7.88-2.51-10.46-6.35-1.31-1.94-4.48-.11-3.16,1.85Z"/><path class="cls-17" d="M182.43,101.58c3.1-1.32,9.29-2.9,12.42-1.07a1.83,1.83,0,0,0,1.85-3.16c-4.47-2.61-11.66-.82-16.12,1.07-2.16.92-.3,4.07,1.85,3.16Z"/><path class="cls-17" d="M135.81,84a25.06,25.06,0,0,0,4.86-1.54c.83-.36,3.54-2.3,4.25-1.67,1.76,1.56,4.36-1,2.59-2.59a4.58,4.58,0,0,0-5.27-.63,35.84,35.84,0,0,1-7.4,2.9c-2.3.49-1.33,4,1,3.53Z"/><path class="cls-17" d="M212.63,130.11a19.46,19.46,0,0,1,7.81,4.6c1.7,1.63,4.29-1,2.59-2.59a23.54,23.54,0,0,0-9.42-5.54c-2.26-.7-3.22,2.84-1,3.53Z"/><path class="cls-17" d="M177.3,133.85c1.68,1,2.65,2.67,3.86,4.12a8.71,8.71,0,0,0,4.57,3.07c2.29.56,3.27-3,1-3.53-1.77-.43-2.83-1.94-3.89-3.32a12.73,12.73,0,0,0-3.67-3.5c-2-1.18-3.89,2-1.85,3.16Z"/><path class="cls-17" d="M192.67,140.51a1.88,1.88,0,0,0,0-3.75,1.88,1.88,0,0,0,0,3.75Z"/><path class="cls-17" d="M211.46,113.53c1.27,1.67,1.77,3.72,3.2,5.31a11.57,11.57,0,0,0,5,3.18c2.23.76,3.19-2.77,1-3.53a7.68,7.68,0,0,1-3.65-2.59c-1-1.3-1.36-2.93-2.34-4.23-1.4-1.85-4.58,0-3.16,1.85Z"/><path class="cls-17" d="M203.85,104.89a1.57,1.57,0,0,1,0,.44q-.13.15.07-.14a0,0,0,0,1,0,0q-.17,0,.17-.06a3.58,3.58,0,0,1,1.68.6,1.87,1.87,0,0,0,2.5-.66,1.85,1.85,0,0,0-.66-2.5c-1.7-.86-3.75-1.63-5.54-.54a3.47,3.47,0,0,0-1.35,4.67c1.19,2,4.36.19,3.16-1.85Z"/><path class="cls-16" d="M103.35,192.82c8.75,6,19.38,6.33,29.64,6.39a1.22,1.22,0,0,0,0-2.44c-9.85-.05-20-.28-28.41-6.06-1.3-.89-2.52,1.22-1.23,2.11Z"/><path class="cls-16" d="M107.05,148.82c-8.25,10.27-15.56,22.86-9.91,36.09.62,1.44,2.72.2,2.11-1.23-5.15-12,2.1-23.9,9.53-33.14,1-1.21-.74-3-1.73-1.73Z"/><path class="cls-16" d="M110.45,188.06c7.7,4.76,16.68,5.76,25.5,6.67,1.56.16,1.55-2.28,0-2.44-8.42-.87-16.92-1.8-24.27-6.34-1.34-.83-2.57,1.28-1.23,2.11Z"/><path class="cls-16" d="M116.83,149.94c-4.09,1.38-5.51,5.94-6.8,9.66-2.19,6.35-5.81,12.55-5,19.46.17,1.54,2.62,1.56,2.44,0-.67-5.89,2-10.54,4-15.88,1.21-3.36,2.19-9.57,6.07-10.88,1.48-.5.84-2.86-.65-2.35Z"/><path class="cls-16" d="M136.81,193l-2.47,2.55c-1.1,1.13.63,2.85,1.73,1.73l2.47-2.55c1.1-1.13-.63-2.85-1.73-1.73Z"/><path class="cls-16" d="M73.86,132.54c-9.28-4.62-13.64-13.94-17.64-23-.63-1.43-2.74-.19-2.11,1.23,4.17,9.45,8.84,19,18.51,23.86,1.4.7,2.64-1.41,1.23-2.11Z"/><path class="cls-16" d="M53.77,109.61c-5.4,3.88.36,11.57,2.6,15.82,3.74,7.08,8.27,13.52,14.94,18.1,1.3.89,2.52-1.22,1.23-2.11a41,41,0,0,1-11.85-13.26c-1.54-2.59-9.09-14-5.69-16.44,1.26-.91,0-3-1.23-2.11Z"/><path class="cls-16" d="M82.49,148.65c-5,1.59-21.67,5.12-20.17,13.08C63.89,170,74,175.25,81.58,175.82c1.57.12,1.56-2.32,0-2.44a19.71,19.71,0,0,1-9.38-3c-2.13-1.37-6.16-4.55-6.69-7.27-1.08-5.46,4.08-7.14,8-8.7,3.15-1.24,6.36-2.33,9.58-3.35,1.49-.47.85-2.83-.65-2.35Z"/><path class="cls-16" d="M131.93,155.89c-3.07,14-12.72,25.09-24.84,32.38-12.75,7.67-29,13.46-44,11.21-1.54-.23-2.2,2.12-.65,2.35,15.72,2.36,32.52-3.4,45.9-11.45,12.64-7.61,22.76-19.19,26-33.84.33-1.53-2-2.18-2.35-.65Z"/><path class="cls-16" d="M64.22,195.71c13.9-2.72,28.28-5.6,40.23-13.66,10.37-7,16.93-17.29,19.88-29.36.37-1.53-2-2.18-2.35-.65-3.08,12.61-10.23,22.94-21.46,29.61s-24.26,9.22-36.94,11.7c-1.54.3-.89,2.65.65,2.35Z"/><path class="cls-16" d="M61.87,199.14a4,4,0,0,1-2.45-6.53c1-1.21-.73-2.94-1.73-1.73a6.47,6.47,0,0,0,3.53,10.61c1.53.33,2.19-2,.65-2.35Z"/><path class="cls-16" d="M59.07,193.41,62,194.64a1.23,1.23,0,0,0,1.5-.85,1.25,1.25,0,0,0-.85-1.5l-2.94-1.24a1.23,1.23,0,0,0-1.5.85,1.25,1.25,0,0,0,.85,1.5Z"/><path class="cls-16" d="M86.65,151.1c-6,1.77-14.26,6.37-16.38,12.78-1.78,5.38,7.91,8,9.93,11.7.75,1.38,2.86.15,2.11-1.23-1.87-3.47-8.41-5.45-9.09-8.86-1.11-5.57,9.84-10.79,14.08-12a1.22,1.22,0,0,0-.65-2.35Z"/><path class="cls-16" d="M85.84,156.9A18.47,18.47,0,0,0,94.25,170c1.32.86,2.55-1.26,1.23-2.11a16.18,16.18,0,0,1-7.29-11.63c-.21-1.55-2.56-.89-2.35.65Z"/><path class="cls-16" d="M92.36,157.89a8.68,8.68,0,0,0,3.72,6.4c1.29.91,2.51-1.21,1.23-2.11a6,6,0,0,1-2.52-4.3c-.15-1.55-2.6-1.56-2.44,0Z"/><path class="cls-16" d="M111.95,163.92a9.42,9.42,0,0,0,4.79,1c1.56-.08,1.57-2.52,0-2.44a6.91,6.91,0,0,1-3.55-.71c-1.4-.71-2.64,1.4-1.23,2.11Z"/><path class="cls-16" d="M110.13,169.92l2.09.42a1.25,1.25,0,0,0,1.5-.85,1.23,1.23,0,0,0-.85-1.5l-2.09-.42a1.25,1.25,0,0,0-1.5.85,1.23,1.23,0,0,0,.85,1.5Z"/><path class="cls-16" d="M96.42,156.41l1.68,2.51a1.25,1.25,0,0,0,1.67.44,1.23,1.23,0,0,0,.44-1.67l-1.68-2.51a1.25,1.25,0,0,0-1.67-.44,1.23,1.23,0,0,0-.44,1.67Z"/><path class="cls-16" d="M129.73,151.08c3,2.63,4,5.66,8.3,6.82s8.57,0,12.54-1.68c1.43-.59.8-3-.65-2.35-3.54,1.47-7.4,2.75-11.24,1.68s-4.63-4-7.22-6.19c-1.18-1-2.92.7-1.73,1.73Z"/><path class="cls-16" d="M132.12,166.09a37.08,37.08,0,0,0,16.78-7.63c1.23-1-.5-2.69-1.73-1.73a34.63,34.63,0,0,1-15.7,7c-1.54.27-.89,2.62.65,2.35Z"/><path class="cls-16" d="M148.5,160.26c6.35,5.5,14.58,6.7,22,2.52a1.22,1.22,0,0,0-1.23-2.11c-6.4,3.61-13.53,2.61-19-2.14-1.18-1-2.92.7-1.73,1.73Z"/><path class="cls-16" d="M151.68,157.68c-2.46,4-7.85,5.88-11.9,7.79-4.63,2.18-9.36,4.11-14.16,5.87-1.46.54-.83,2.9.65,2.35,5.57-2,11-4.31,16.39-6.9,4.11-2,8.64-3.86,11.14-7.88.83-1.34-1.28-2.56-2.11-1.23Z"/><path class="cls-16" d="M157.68,166c3.4,4.44,7.3,9.58,5.59,15.54-1.59,5.58-6.36,8.85-11.73,10.28a1.22,1.22,0,0,0,.65,2.35c5.67-1.51,10.86-4.94,13-10.63,2.68-7.14-1.14-13.22-5.4-18.78-.94-1.23-3.06,0-2.11,1.23Z"/><path class="cls-16" d="M168.92,171c2.71,4.73,5.35,11.25,1.83,16.22-2.69,3.81-7.4,6-11.75,7.23a1.22,1.22,0,0,0,.65,2.35c5.39-1.51,11.75-4.69,14.3-10s-.16-12.23-2.91-17a1.22,1.22,0,0,0-2.11,1.23Z"/><path class="cls-16" d="M151.79,194.73a16.65,16.65,0,0,0,8.45,2.25,1.22,1.22,0,0,0,0-2.44,14.1,14.1,0,0,1-7.22-1.92,1.22,1.22,0,0,0-1.23,2.11Z"/><path class="cls-16" d="M138.08,157c3,6.53,5.22,16.46-.18,22.41-1.05,1.16.67,2.89,1.73,1.73,6.22-6.85,4.08-17.75.56-25.36-.66-1.42-2.76-.19-2.11,1.23Z"/><path class="cls-16" d="M134.61,158.62a31.54,31.54,0,0,1-1.13,21.23c-.62,1.43,1.48,2.67,2.11,1.23A34.17,34.17,0,0,0,137,158a1.22,1.22,0,0,0-2.35.65Z"/><path class="cls-16" d="M132.63,182.44a11.94,11.94,0,0,0,7-2c1.3-.86.08-3-1.23-2.11a9.64,9.64,0,0,1-5.79,1.65c-1.57-.05-1.57,2.39,0,2.44Z"/><path class="cls-16" d="M200.63,161.44a26.58,26.58,0,0,1,11.75,12.86c2.52,5.67,5.2,15-2.83,17.08a1.22,1.22,0,0,0,.65,2.35c7.92-2,8-8.22,6.2-15.32a29.87,29.87,0,0,0-14.54-19.08c-1.38-.75-2.62,1.36-1.23,2.11Z"/><path class="cls-16" d="M225.93,166.24c7.68,1,19.16,3.19,25.57-2.46,1.18-1-.55-2.76-1.73-1.73-5.59,4.93-17.12,2.61-23.84,1.75-1.55-.2-1.54,2.24,0,2.44Z"/><path class="cls-16" d="M142.25,170.81c7.86.74,14.44,5.36,18.59,12,.83,1.33,2.95.1,2.11-1.23-4.65-7.39-11.93-12.35-20.7-13.17-1.56-.15-1.55,2.3,0,2.44Z"/><path class="cls-16" d="M142.67,165a34.6,34.6,0,0,1,19.69,9.21c1.14,1.08,2.87-.65,1.73-1.73a37.44,37.44,0,0,0-21.42-9.93c-1.55-.19-1.54,2.25,0,2.44Z"/><path class="cls-16" d="M204.4,158.93a96.46,96.46,0,0,0,27.38,12.94c8,2.4,16.22,2.37,22.94-3.09,1.22-1-.52-2.71-1.73-1.73-7.72,6.27-17.33,3.84-25.8.65a96.32,96.32,0,0,1-21.57-10.88c-1.29-.9-2.51,1.21-1.23,2.11Z"/><path class="cls-16" d="M251.34,163a3.29,3.29,0,0,1,.14,4.92c-1.15,1.07.58,2.8,1.73,1.73a5.73,5.73,0,0,0-.14-8.37c-1.19-1-2.92.7-1.73,1.73Z"/><path class="cls-16" d="M195.06,163.24c5.12,1.45,7.57,7.6,9.78,11.94,1.6,3.14,3.36,6.73,1.88,10.18-.92,2.15-3,4.33-4.39,6.24-.91,1.29,1.21,2.51,2.11,1.23,1.85-2.63,5.54-6.11,6.06-9.38.42-2.6-1.66-5.65-2.72-7.83-2.71-5.53-5.58-12.89-12.07-14.74a1.22,1.22,0,0,0-.65,2.35Z"/><path class="cls-16" d="M203.18,193.6a6.29,6.29,0,0,0,6.71.18,1.22,1.22,0,0,0-1.23-2.11,3.85,3.85,0,0,1-4.25-.18c-1.3-.88-2.53,1.23-1.23,2.11Z"/><path class="cls-16" d="M173.49,178.48c8.67,6.36,22,.32,30.08-4.41a1.22,1.22,0,0,0-1.23-2.11c-7.22,4.26-19.77,10.17-27.61,4.41-1.27-.93-2.49,1.19-1.23,2.11Z"/><path class="cls-16" d="M173,184.15c9.67,10.74,26.33-.17,34.58-7.42,1.18-1-.55-2.76-1.73-1.73-7.22,6.34-22.57,16.92-31.13,7.42-1.05-1.17-2.77.56-1.73,1.73Z"/><path class="cls-16" d="M187.17,168.54a10.83,10.83,0,0,1,6.35,7.62c.36,1.53,2.71.88,2.35-.65a13.34,13.34,0,0,0-8.05-9.33c-1.45-.6-2.08,1.76-.65,2.35Z"/><path class="cls-16" d="M209.94,166.91c8.61-1.54,14.79,5.62,16.59,13.3,1.73,7.38.14,15-1.38,22.23-.32,1.53,2,2.19,2.35.65,1.92-9.18,3.84-19.11-.13-28-3.19-7.18-10.14-11.92-18.08-10.5-1.54.28-.89,2.63.65,2.35Z"/><path class="cls-16" d="M213.77,173.8c5.51,6.72,7.13,15.77,6.63,24.24-.09,1.57,2.35,1.56,2.44,0,.53-9.17-1.41-18.74-7.35-26-1-1.21-2.72.52-1.73,1.73Z"/><path class="cls-16" d="M220.5,199.3c0,1.78.22,4,2.07,4.86,1.48.67,3.58.16,4-1.61.33-1.53-2-2.18-2.35-.65,0,.12,0,.12-.07.11s-.41,0-.59-.09c-.71-.48-.58-1.92-.57-2.62a1.22,1.22,0,0,0-2.44,0Z"/><path class="cls-16" d="M226.84,140.28c3.39,1.14,7.44,3.57,8.31,7.32,1.13,4.88-4.71,8-8.63,9a1.22,1.22,0,0,0,.65,2.35c4.73-1.27,11.08-5,10.68-10.74-.36-5.17-6-8.82-10.37-10.3-1.49-.5-2.13,1.85-.65,2.35Z"/><path class="cls-16" d="M72,143.23c-.46,3.69-10.47,7.77-13.33,9.3-4.32,2.32-8.74,4.42-13.24,6.37-1.44.62-.2,2.73,1.23,2.11a175.12,175.12,0,0,0,18.5-9.31c3.46-2,8.73-4,9.28-8.47.19-1.56-2.25-1.54-2.44,0Z"/><path class="cls-16" d="M46.07,161.68c9.09,1.3,16.66-3,24-7.82,1.31-.85.09-3-1.23-2.11-6.71,4.34-13.81,8.77-22.17,7.57-1.54-.22-2.2,2.13-.65,2.35Z"/><path class="cls-16" d="M179.48,172.41a10.86,10.86,0,0,1,1.12,6c-.14,1.56,2.31,1.56,2.44,0a13.24,13.24,0,0,0-1.45-7.22c-.71-1.4-2.82-.17-2.11,1.23Z"/><path class="cls-16" d="M231.16,161.93c2-1,4.1-2,6.21-2.9.72-.3,3.55-1.84,4.13-1.65,1.49.5,2.13-1.86.65-2.35s-3.5.86-4.67,1.34c-2.57,1-5.07,2.21-7.55,3.46-1.4.7-.17,2.81,1.23,2.11Z"/><path class="cls-16" d="M238.26,149.76c3.69-2.38,13.27-2.52,14.29,3,.28,1.54,2.64.89,2.35-.65-1.33-7.26-12.85-7.73-17.87-4.48-1.32.85-.09,3,1.23,2.11Z"/><path class="cls-16" d="M252.69,153.2a20.11,20.11,0,0,1-.52,8.18,1.22,1.22,0,0,0,2.35.65,23.15,23.15,0,0,0,.52-9.48c-.23-1.55-2.58-.89-2.35.65Z"/><path class="cls-16" d="M241.1,156.89a10.31,10.31,0,0,1,2.05,6.85c-.09,1.57,2.36,1.56,2.44,0a12.44,12.44,0,0,0-2.38-8.08c-.92-1.25-3,0-2.11,1.23Z"/><path class="cls-16" d="M124.32,176.29a11,11,0,0,0,11.12-2.21c1.18-1-.55-2.77-1.73-1.73a8.54,8.54,0,0,1-8.75,1.58c-1.48-.54-2.12,1.82-.65,2.35Z"/><path class="cls-16" d="M141.75,176.29a17.46,17.46,0,0,0,5.71-1.89c1.39-.74.16-2.84-1.23-2.11a15.57,15.57,0,0,1-5.13,1.65c-1.55.22-.89,2.58.65,2.35Z"/><path class="cls-16" d="M79.92,160a25.77,25.77,0,0,0,10.18,6.47c1.49.52,2.13-1.84.65-2.35a23.07,23.07,0,0,1-9.1-5.84c-1.09-1.13-2.82.6-1.73,1.73Z"/><path class="cls-16" d="M230,182.5c3.83-1.61,7.74-3.11,11.52-4.84,2.4-1.1,4.6-2.49,5.2-5.23.34-1.53-2-2.18-2.35-.65-.66,3-4.43,3.92-6.88,4.95l-8.14,3.42c-1.43.6-.8,3,.65,2.35Z"/><path class="cls-9" d="M54.24,114.75c.72,3.33,2.65,6.08,4.44,8.92,1.28,2,2.47,5.12,4.84,6.06.73.29,1-.89.32-1.18-2.12-.84-3.75-4.92-4.92-6.8a23,23,0,0,1-3.5-7.34c-.17-.77-1.34-.44-1.18.32Z"/><path class="cls-9" d="M168.47,176.75c1.4,3,1.77,6.51-.21,9.38-1.73,2.51-4.67,3.24-7.47,3.93a1.22,1.22,0,0,0,.65,2.35c3.9-1,7.68-2.27,9.57-6.13,1.73-3.53,1.16-7.33-.43-10.77-.66-1.42-2.76-.19-2.11,1.23Z"/><path class="cls-9" d="M239.57,170.08c1.94.76,4.39.25,6.36-.2a13,13,0,0,0,5.56-2.33c.6-.51-.27-1.37-.86-.86-2.26,1.94-8,3.31-10.74,2.22-.73-.29-1,.89-.32,1.18Z"/><path class="cls-9" d="M241.42,151.63c2.44-.86,6.54-.69,7.88,2,.7,1.41,2.81.17,2.11-1.23-1.81-3.63-7.2-4.32-10.63-3.12-1.47.52-.84,2.88.65,2.35Z"/></svg>