<svg id="圖層_1" data-name="圖層 1" xmlns="http://www.w3.org/2000/svg" viewBox="0 0 300 300"><defs><style>.cls-1{fill:#f5b81b;}.cls-2{fill:#06143f;}.cls-3{fill:#f7f8f8;stroke:#4c4948;}.cls-3,.cls-5{stroke-miterlimit:10;}.cls-4{fill:#e6e6e6;}.cls-5{fill:none;stroke:#f5b81b;stroke-width:2px;}.cls-6{fill:#d1b369;}.cls-7{fill:#dccfa3;}.cls-8{fill:#ecf1bd;}.cls-9{fill:#51442d;}.cls-10{fill:#f6b286;}.cls-10,.cls-15,.cls-19{opacity:0.15;}.cls-11{fill:#f2a86c;}.cls-12{fill:#f2a876;}.cls-13{fill:#f2986e;}.cls-14{fill:#231815;}.cls-16{fill:#fae5de;}.cls-17{fill:#f2a752;}.cls-18{fill:#d46100;}.cls-19{fill:#a99872;}</style></defs><title>鮭魚</title><ellipse class="cls-1" cx="149.98" cy="146.83" rx="149.13" ry="80.6"/><ellipse class="cls-2" cx="150.21" cy="145.52" rx="147.21" ry="77.72"/><ellipse class="cls-3" cx="150.24" cy="153.28" rx="106.86" ry="58.69"/><ellipse class="cls-4" cx="150.24" cy="157.89" rx="98.9" ry="54.55"/><ellipse class="cls-5" cx="150.3" cy="153.34" rx="106.42" ry="58.99"/><ellipse class="cls-6" cx="150.47" cy="151.98" rx="107.53" ry="59.48"/><path class="cls-7" d="M84.92,142.5c-3,1.95-6.49,5.57-6.25,9.58.16,2.74,2.37,4.18,4.75,2.88l-3.89-2.32-.3.62,4.06.54-.49-1.12c-.82-1.88-3.57-1.62-4.46,0L77.62,154a2.63,2.63,0,0,0,4.06,3.26A104.58,104.58,0,0,0,95,143.61L90.67,141c-.87,2.28-2.57,3.42-4.53,4.5-1.35.75-3.95.89-3.2,2.16-.92-1.56-3.64-1.94-4.46,0-1.08,2.55-3.1,4.56-4,7.21-1,3.21.5,7.38-1.4,10.2l4.06-.54c-6.77-7.29,3.43-17.32,7.16-23.21L79.51,140a16.8,16.8,0,0,1-2.16,8.14l4.72,2.07c1.18-3.24,2.5-6.37,4-9.47l-4.72-2.07a69.6,69.6,0,0,1-6.69,13.16c-1.61,2.5,2.22,5.66,4.06,3.26,4.14-5.41,9.75-11.27,12.62-17.51,2.38-5.17-2.12-6.65-6-8.13-2.41-.91-4.42,2.76-2.51,4.5a7,7,0,0,1,1.85,8.29l5,1.43a5,5,0,0,1,2.34-3.88l-3.54-1L90,142.24c.92,2,3.42,1.45,4.46,0l2.94-4.1H92.91l-.1.67,4.72.64c-1.31-3.36.32-7-3.21-9-3-1.68-8.62-.06-10.95-2.14l-1.14,4.5a9.22,9.22,0,0,1,12.1,4.45,2.56,2.56,0,0,0,4.46,0c2.42-4,.67-8.65-3.3-10.65-5.64-2.85-14.09-1.43-19.89.23-6.11,1.74-6.51,5.28-8.11,11.25L66,143.61c-.13.51-.65,4.06-.79,4.22a11.21,11.21,0,0,0-2,.27A7.62,7.62,0,0,0,61,150.63a10.17,10.17,0,0,0-1.49,6.4c.33,3.18,2.57,4.43,3.54,7.18.86,2.45-1,5.39-.41,8.12a12.32,12.32,0,0,0,4,6.33c4.5,4,11.3,5.93,16.79,7.76a119.15,119.15,0,0,0,22.27,5c3.29.43,3.26-5,0-5.38a107.71,107.71,0,0,1-30.78-8.64c-2.73-1.25-5.37-2.42-6.57-5.44-1.08-2.73.32-4.17.21-6.89-.18-4.72-6.78-8.13-2.17-12.72l-2.51.69c6.34,1.46,6.92-7.14,8.12-11.66a56.61,56.61,0,0,1,1.47-5.51c1.23-3.22,2.11-3.56,5.41-4.3,1.09-.24,18.67-2.27,15.46,3h4.46c-3.53-6.64-11.07-9.67-17.93-6.92-1.65.66-2.75,3.05-1.14,4.5,2.08,1.86,4,2.06,6.7,2.22,1,.06,4.38-.23,5.15.72.42.51.64,4.92,1,5.81.84,2.16,3.4,2.67,4.72.64a5.24,5.24,0,0,0,.1-6.1c-1.07-1.88-3.34-1.57-4.46,0L90,139.52h4.46l-1.56-3.45a2.54,2.54,0,0,0-3.54-1,11.2,11.2,0,0,0-4.71,7.09,2.59,2.59,0,0,0,5,1.43,12.13,12.13,0,0,0-3.18-13.53l-2.51,4.5c2.66,1,2.73.23,1.42,2.62a41.76,41.76,0,0,1-2.91,4.1q-3.61,5-7.38,9.93l4.06,3.26a76.37,76.37,0,0,0,7.21-14.44c1.07-2.83-3.43-4.79-4.72-2.07-1.68,3.52-3.17,7.09-4.5,10.76-1.05,2.89,3.3,4.67,4.72,2.07A22.59,22.59,0,0,0,84.67,140a2.59,2.59,0,0,0-4.81-1.36c-5.4,8.51-15.53,19.86-6.35,29.73a2.56,2.56,0,0,0,4.06-.54c1.68-2.48,1.57-4.72,1.56-7.69,0-4.31,2.26-6.06,3.81-9.72H78.47c4.1,7,15.36-3.16,17.18-7.95.94-2.48-2.7-4.61-4.32-2.62A104.58,104.58,0,0,1,78,153.45l4.06,3.26.72-1.31H78.34l.49,1.12c.75,1.73,2.91,1.52,4.06.54a4.94,4.94,0,0,0,1.82-4.42,2.62,2.62,0,0,0-3.89-2.32l-.4.22H83l-.44-.26,1.28,2.32c-.11-2.38,2-4.34,3.67-5.46,2.81-1.84.22-6.5-2.61-4.65Z"/><path class="cls-7" d="M244.63,146.53c-1.57,10.15-7.86,17.87-14.76,24.82s-14.71,13.37-24.5,15.28l1.37,5.19c11.36-2.72,21.06-9.39,30-16.92,8.63-7.26,15.89-16.33,14.28-28.54-.45-3.41-5.43-2-5,1.43,1.54,11.65-8.52,19.94-16.46,26.16-7.34,5.75-15.2,10.53-24.23,12.69-3.27.78-1.86,5.82,1.37,5.19,10.61-2.08,19.18-9,26.78-16.67S247.91,159,249.61,148c.53-3.39-4.45-4.84-5-1.43Z"/><path class="cls-7" d="M201.61,169.61l6.56-2.35-2.92-4a2.68,2.68,0,0,1-1.65,2l2.92,4L218,153.2c.93-1.3,0-3.7-1.54-4s-3.76.37-5.16,0c-1.92-.56-2.37-2.83-3.46-4.27-1.7-2.24-3.58-3.13-6.27-2.49a2.63,2.63,0,0,0-1.8,1.88c-1.17,4.44,4.39,6.58,7.22,8.44a2.58,2.58,0,0,0,3.8-1.61,40,40,0,0,1,5-11.06l-4.72-.64a33.38,33.38,0,0,1,.87,8.91c-.09,3,4.65,3.76,5.08.72.78-5.63,3.4-10.18,4.78-15.56.72-2.79.52-6.65-2.66-7.64-2.77-.87-5.66,1.47-7.21,3.68-2.71,3.88-2.44,8.65-1.87,13.18l4.41-1.9a48.78,48.78,0,0,1-6.78-11.4l-2.92,4c5.32,1.14,9.19,9.12,11.64,13.65,1.2,2.23,3.91,1.35,4.72-.64a28,28,0,0,0,1.35-16.94l-4.32,2.62a38.21,38.21,0,0,1,5.15,6.47,2.59,2.59,0,0,0,4.81-1.36c.08-7.23-5.3-12-11.47-14.25-8.7-3.11-18.61-3.8-27.62-5.75-17.45-3.78-39.07-9.88-56.34-2.52-3,1.29-1.76,6.44,1.37,5.19,5.17-2.07,9.89-2.9,15.34-1.47a94.73,94.73,0,0,0,11.31,2.72v-5.38l-17.2-1.22c-3.32-.23-3.3,5.13,0,5.38,15.35,1.18,32.06,2.4,46.71,7.61,2.93,1,4.26-3.27,2-4.92A36.51,36.51,0,0,0,180.71,117c-2.46-.71-4.38,2.62-2.51,4.5,3.65,3.69,10.67,3.32,15.39,4,6.88,1,13.91,2.56,18.4,8.57l2.51-4.5c-8.86-2.27-16.37-8.27-25.74-8.38-2.6,0-3.46,3.65-1.3,5,8.75,5.53,18.46,7.78,22,19.06l4.72-2.07c-3.44-6.69-9.25-11-15.18-15.09-2.63-1.83-4.84,2-3.13,4.22a72.67,72.67,0,0,1,9.62,16.73c1,2.39,5.13,1.24,4.81-1.36l-2.17-17.77-4.41,1.9a26.92,26.92,0,0,1,7.08,12.76c.51,2.08,3.8,2.82,4.72.64a40.74,40.74,0,0,0,3.4-17.87l-5.08.72.12,1.42,3.89-2.32a22.79,22.79,0,0,1-4.17-3.5c-2.1-2.22-5.43.6-4.06,3.26l7,13.61c1.58,3.08,5.89.37,4.46-2.72a48.21,48.21,0,0,1-2.86-8l-1.8,3.31c2.41-.77,4.93,5,5.69,6.74,1.12,2.47,4.85,1.19,4.81-1.36l-.18-11.89L222,128a33.16,33.16,0,0,1,6.18,14.84c.46,3,5.28,2.3,5.08-.72-.45-6.64-1.58-16.26-8.24-19.3-9.11-4.16-20.63-3.85-30.32-5.86-9.36-1.95-17.7-6-27.34-6.45-9.81-.45-19.75-.65-29.11,2.87-3.1,1.17-1.76,6.37,1.37,5.19,8.06-3,16.42-3.09,24.89-2.79,4.24.15,8.47.28,12.59,1.46,3.61,1,7.05,2.6,10.68,3.59,7.69,2.11,15.61,3,23.44,4.29,3.47.59,7.71.79,10.92,2.3,5,2.34,5.61,9.77,5.94,14.69l5.08-.72a36.24,36.24,0,0,0-6.7-16.13c-1.44-2-4.86-1.56-4.81,1.36l.18,11.89,4.81-1.36c-2-4.45-6-11-11.53-9.22a2.75,2.75,0,0,0-1.8,3.31,56,56,0,0,0,3.38,9.32l4.46-2.72-7-13.61-4.06,3.26a28.46,28.46,0,0,0,5.22,4.35c1.82,1.19,3.68-.42,3.89-2.32a5.41,5.41,0,0,0-.3-2.85c-.87-2.77-5.19-2.45-5.08.72a34.52,34.52,0,0,1-2.7,15.15l4.72.64A32.35,32.35,0,0,0,207.41,128c-1.44-1.48-4.71-.52-4.41,1.9l2.17,17.77,4.81-1.36a77.46,77.46,0,0,0-10.43-17.82l-3.13,4.22c5.2,3.62,10.3,7.28,13.33,13.16,1.37,2.66,5.65.85,4.72-2.07a27.94,27.94,0,0,0-8.78-13.38c-4.69-3.88-10.56-5.69-15.64-8.9l-1.3,5c8.74.1,16.06,6.06,24.37,8.19,2.7.69,4-2.47,2.51-4.5-3.3-4.42-8-7-13.14-8.46a61.33,61.33,0,0,0-8.57-1.65c-3-.42-9.7-.07-12.08-2.47l-2.51,4.5a32.58,32.58,0,0,1,10.29,5.05l2-4.92c-15-5.35-32.32-6.59-48.09-7.8v5.38l17.2,1.22c3.39.24,3.2-4.95,0-5.38-4.9-.66-9.47-2.85-14.38-3.42-4.76-.55-9.22.6-13.64,2.37l1.37,5.19c14.72-6.28,33-1.86,47.95,1.3,7.52,1.59,15,3.33,22.59,4.66C211,126.94,223.06,128,223,137.19l4.81-1.36a44.47,44.47,0,0,0-6-7.56c-1.9-1.93-4.87,0-4.32,2.62A23,23,0,0,1,216.16,145l4.72-.64c-3.1-5.73-8-14.67-14.73-16.12-2.34-.5-3.85,1.8-2.92,4a54,54,0,0,0,7.59,12.49c1.35,1.69,4.7.39,4.41-1.9-.34-2.69-.93-5.81.05-8.44,2-5.37.89-.49.17,1.31a50.65,50.65,0,0,0-3.42,12l5.08.72A38.83,38.83,0,0,0,216.05,138a2.58,2.58,0,0,0-4.72-.64,44.7,44.7,0,0,0-5.56,12.35l3.8-1.61s-4.6-3.33-4.85-2.36l-1.8,1.88c.59-.14,3.61,5.12,4.39,5.68,2.51,1.83,4.91.65,7.76,1.11l-1.54-4L202.06,166.6c-1.36,1.92.89,4.61,2.92,4a7.09,7.09,0,0,0,4.74-4.52c.81-1.94-.56-4.8-2.92-4l-6.56,2.35c-3.13,1.12-1.78,6.32,1.37,5.19Z"/><path class="cls-8" d="M131.22,107.56c-5.22,2.6-10.83,4.79-14.8,9.33l3.65,3.8a24.65,24.65,0,0,1,11.44-7.93c6.72-2.12,10.12,1,12.67,7.22l4.46-2.72c-1.62-3.28-4.22-9.18-8.48-8.74-2.39.24-5.06,2.2-7.22,3.22l-11,5.21c-2,.93-1.35,3.56,0,4.65a33,33,0,0,0,6.76,4.21c1.63.76,4-.09,3.89-2.32a18.24,18.24,0,0,1,.77-6.76L129,117.92l1,3.16,5.08-.72q3.46-1.86,6.18.29c2.71,1.55,4.9-1.92,3.13-4.22-3.86-5-10.29-5-15.94-4-4.29.79-8.49,4.08-6.55,9.07l2.49-3.4-2.49-.65.4,3.26c1.09-1.67.5-4.29,1.18-5.33,1.33-2,8-3.89,10.3-5s3.66-2.36,6.22-.68c1.39.91,2.27,2.92,3.17,4.34a61.16,61.16,0,0,0,5.69,8.08c2.28,2.53,5.92-1.28,3.65-3.8-4-4.49-8.66-17.79-16.32-14.92a93.74,93.74,0,0,0-15,7.08,6.55,6.55,0,0,0-3.15,3.19c-.47,1.32.52,3.26-.16,4.3a2.78,2.78,0,0,0,.4,3.26,7.53,7.53,0,0,0,6.15,2.22c1.48-.13,3.17-1.65,2.49-3.4-1-2.59,6.37-2.83,7.46-2.8,2.66.08,4.69.73,6.39,2.95l3.13-4.22c-3.1-1.77-6.87-3.62-10.35-1.76-2.93,1.56-3.86,4.35-3.42,7.55s4.91,2.14,5.08-.72a8.79,8.79,0,0,0-2.49-7,2.57,2.57,0,0,0-4.32,1.19,22,22,0,0,0-1,8.19l3.89-2.32a33,33,0,0,1-6.76-4.21v4.65l12-5.65,2.76-1.3q1.17-1.8,1.86.15c1.38.93,2.38,3.73,3.1,5.19,1.55,3.15,5.73.38,4.46-2.72-2.74-6.72-6.87-11.63-14.24-10.64a28.76,28.76,0,0,0-18,10.26c-2.19,2.58,1.4,6.38,3.65,3.8,3.62-4.14,9-6.13,13.75-8.49,3-1.49.38-6.13-2.61-4.65Z"/><path class="cls-8" d="M150.27,115.48a119,119,0,0,1,6.78,12.93c1.42,3.17,5.74.4,4.46-2.72-1.51-3.7-4-7.88-4.64-11.84l-.66,2.62c1-1.12,7.71-.78,9.14-.91,3.26-.28,6.52-.53,9.78-.69,3.89-.2,5.6.92,5.8,5.32a22.5,22.5,0,0,1-2.58,11.14l2.92-1.24c-3.67-.82-6.92-3.58-10-5.62-3.43-2.24-7-4.21-8.95-8.09l-2.23,4c6.48-.52,13.78-2.11,20.24-1.52l-2.23-1.33L178,116l3.54,1v-.37l-4.72-.64a38.45,38.45,0,0,1,.63,9.44l4.41-1.9a6.63,6.63,0,0,1-1.65-4.6l-5.08.72,1.65,9.37,3.8-3a30.86,30.86,0,0,1-7.8-7.8,2.61,2.61,0,0,0-4.46,2.72l3,6.49c1.25,2.71,5.8.78,4.72-2.07a4,4,0,0,1,.84-5.19c2-2.12-.64-6-3.13-4.22-5.84,4.18-15.19-1.42-21.06-3.59-2-.74-3.53,1.46-3.18,3.31.8,4.23.53,11.56,4.93,13.51,6.07,2.69,13.21,3.9,19.58,5.76,2.34.68,4.58-2.73,2.51-4.5a63.52,63.52,0,0,0-15.05-9.66,2.67,2.67,0,0,0-3.13,4.22,8.91,8.91,0,0,0,5.7,3.46c2,.36,4.35-1.85,2.92-4-3.32-4.87-8.76-7.36-12-12.18l-2.23,4a90.73,90.73,0,0,1,17.05,1c3.25.52,4.66-4.67,1.37-5.19a98,98,0,0,0-18.43-1.23c-1.81.05-3.42,2.3-2.23,4,3.32,4.87,8.76,7.36,12,12.18l2.92-4A3.85,3.85,0,0,1,162,121.1l-3.13,4.22a59,59,0,0,1,14,8.82l2.51-4.5-14.45-4.22-2.89-.84q-2.44.19-2-2.44c-1-2.19-1.07-5.62-1.52-8l-3.18,3.31c7.66,2.84,17.37,8.54,25,3.05l-3.13-4.22A9.6,9.6,0,0,0,171,126.68l4.72-2.07-3-6.49-4.46,2.72a38.51,38.51,0,0,0,9.65,9.73c2,1.43,4.17-.92,3.8-3l-1.65-9.37c-.52-3-5.23-2.3-5.08.72a13.91,13.91,0,0,0,3.16,8.4c1.52,1.95,4.31.21,4.41-1.9a44.2,44.2,0,0,0-.82-10.87,2.57,2.57,0,0,0-4.72-.64,5.87,5.87,0,0,0,0,5.8,2.55,2.55,0,0,0,3.54,1c2.61-1.63,4-5.38.41-7-2.2-1-6.86.3-9.14.48l-11.79.95a2.73,2.73,0,0,0-2.23,4c2.08,4.17,5.53,6.57,9.27,9,4,2.63,8.1,6.11,12.81,7.16a2.6,2.6,0,0,0,2.92-1.24c2.84-5.69,4.34-12.53,2.69-18.88s-7-5.89-12.33-5.56q-5.87.36-11.73.94c-2.37.24-6.41-.17-8.42,1.61-1.25,1.11-1.32,2.42-1,4,.87,4.1,3.44,8.44,5,12.28l4.46-2.72a119,119,0,0,0-6.78-12.93c-1.77-2.92-6.24-.23-4.46,2.72Z"/><path class="cls-8" d="M178.43,193a17.64,17.64,0,0,0,1.44,3.85c1.58,3.13,5.75.38,4.46-2.72l-1.54-3.71-2.92,4a56.63,56.63,0,0,1,6.82,1.45c1,.28,5.53,1.12,6,2.19v-2.72c-.41.7-4.51-1.35-5.13-1.55a39,39,0,0,0-6-1.26c-2.23-.36-4.75,2.58-2.51,4.5a31.24,31.24,0,0,1,2.8,2.72l3.13-4.22c-1-.72-4.27-2.28-4.1-3.87l-5.08.72a16.73,16.73,0,0,1,.16,3.85,2.63,2.63,0,0,0,1.28,2.32c3.88,1.81,8,2,12,3.32,2.88,1,5.87,2,7.06-1.87,1-3.31-4-4.72-5-1.43l-.21.69,1.19-1.61-.67.34,2-.27c-2.11-.33-4.14-1.43-6.27-1.87a32.87,32.87,0,0,1-7.51-1.94l1.28,2.32a23.61,23.61,0,0,0-.35-5.28c-.54-3.23-4.78-2-5.08.72-.45,4.28,3.81,6.44,6.66,8.51,2.47,1.8,5.08-2.08,3.13-4.22a31.24,31.24,0,0,0-2.8-2.72l-2.51,4.5a38.84,38.84,0,0,1,6,1.26c1.71.56,3.3,1.51,5.11,1.72,2.3.27,5.48-.58,6.12-3.29.71-3-2.29-4.23-4.37-5.05a54.19,54.19,0,0,0-11.78-3.14c-2.34-.36-3.85,1.7-2.92,4l1.54,3.71,4.46-2.72a7.58,7.58,0,0,1-.92-2.56c-.82-3.35-5.8-1.93-5,1.43Z"/><path class="cls-6" d="M173.31,199.33c3.93,2.59,9.28,1,13.62.53,6-.67,12-1.5,17.92-2.44l-2.51-4.5c-2,2.13-8.24,1.94-11,2.1a57.21,57.21,0,0,1-11.26-.55c-2.87-.39-3.54,4.72-.69,5.28a83.34,83.34,0,0,0,18.55,1.1l-1.83-4.59c-4,4.22-9.58,3.67-14.83,3.15v5.38a90.17,90.17,0,0,1,12.69-.4c3.33.13,3.32-5.25,0-5.38a90.17,90.17,0,0,0-12.69.4,2.7,2.7,0,0,0,0,5.38c6.77.66,13.41.58,18.49-4.73,1.55-1.62.44-4.65-1.83-4.59-5.78.15-11.48.22-17.18-.91l-.69,5.28a57.88,57.88,0,0,0,15.35.16c3.41-.44,8-.61,10.52-3.28,2-2.07-.11-4.88-2.51-4.5-4.87.77-9.74,1.46-14.63,2-3.49.41-9.85,2.45-12.93.42-2.82-1.86-5.41,2.8-2.61,4.65Z"/><path class="cls-9" d="M116.36,130.56a27.72,27.72,0,0,0,7.9,8.8c2.55,1.87,4.9-2,3.13-4.22-2.9-3.57-7.75-3.15-11-6.22a2.62,2.62,0,0,0-4.32,2.62c1.55,6.38,9.05,7.45,14.14,9.44a206.44,206.44,0,0,1,24.3,11.15c3.36,1.85,11.31,7.41,15,3.43,4.35-4.67-4.52-10.6-7-12.73-1.84-1.55-5.18-.18-4.32,2.62a21.43,21.43,0,0,0,2.55,5.58l4.06-3.26c-5.74-4.81-12.65-7.43-19.35-10.45s-14.64-5.54-19-11.95l-2.92,4c6.41,1.62,11.59,6.23,17.11,9.77a145.88,145.88,0,0,0,16.78,9.26c2.44,1.14,5.58-2.1,3.13-4.22a26.34,26.34,0,0,1-2.42-2.23l-2.51,4.5,1.36.52c2.85,1.09,4.35-3.33,2-4.92-5.27-3.54-10.77-4.92-15.26-9.86-2.3-2.53-5.89,1.25-3.65,3.8a19.61,19.61,0,0,0,11.28,6.57c2.7.53,4.77-3.44,2-4.92-4.47-2.38-7.17-7.36-11.69-9.3-2.64-1.13-5.24-1.36-7.73-3-1.8-1.17-3.24-2.74-5.37-3.31-6.82-1.82-18.22,4.92-13.68,13.07l4.06-3.26c-1.37-1.28-5.6-4.77-4.31-7.11L108.34,126a6.33,6.33,0,0,1,2.81.78l-1.54-4-1.8,2.49,4.46,2.72c1.73-3.34,6.81-4.44,10-3.09,2.73,1.18,4.51-3.46,2-4.92a18.48,18.48,0,0,0-7.94-2.63c-3.93-.3-6.62,1.54-10.41,2-3.26.4-3.3,5.78,0,5.38,5.88-.72,9.95-3.45,15.75-.1l2-4.92c-5.31-2.29-13,.22-15.8,5.56a2.61,2.61,0,0,0,4.46,2.72l1.8-2.49c1.1-1.52-.16-3.41-1.54-4-3.33-1.31-6.66-1.63-7.09,2.85-.45,4.7,2.68,8.23,5.79,11.14a2.63,2.63,0,0,0,4.06-3.26c-1.46-2.61,4-4.91,5.52-5a9.66,9.66,0,0,1,5.31,1.69,29.69,29.69,0,0,0,7.16,3.54c5.21,1.58,8.43,7,13.4,9.62l2-4.92a15.1,15.1,0,0,1-9-5.18l-3.65,3.8c4.84,5.32,10.62,6.87,16.31,10.7l2-4.92L153,141.2c-2.46-.94-4.32,2.72-2.51,4.5a26.34,26.34,0,0,0,2.42,2.23l3.13-4.22a147.66,147.66,0,0,1-18.32-10.25c-5.43-3.56-10.47-7.71-16.81-9.31-2-.51-4.29,1.93-2.92,4,9.05,13.38,27.44,13.67,39.14,23.48,2.1,1.76,5.83-.51,4.06-3.26a11.43,11.43,0,0,1-2-4.3l-4.32,2.62c.79.66,6.9,4.72,6.38,6.31l1.8-1.88c-3.56,1.33-9.47-3.38-12.53-5-3.8-2-7.68-3.84-11.59-5.57q-4.77-2.11-9.61-4c-3-1.21-11.37-2.76-12.24-6.36l-4.32,2.62a16.89,16.89,0,0,0,4.46,3.14c2.22,1,4.92,1.05,6.57,3.08l3.13-4.22a21.33,21.33,0,0,1-6-6.87c-1.7-3-6.17-.27-4.46,2.72Z"/><path class="cls-9" d="M101.47,114.2a16.36,16.36,0,0,1,.61,5.15c-.1,3,4.45,3.7,5.08.72.22-1,.12-2.09.33-3.09q-1.1.3,0,.27l1.16.23c1.7.33,4,.4,5.28,1.7l1.14-4.5c-1.05.16-2.61-.54-3.68-.7a30.86,30.86,0,0,0-3.92-.33A2.69,2.69,0,0,0,105,117a11,11,0,0,0,2.51,4.05l1.83-4.59-.9-.3a2.58,2.58,0,0,0-3.18,1.88,4,4,0,0,0,.46,3.07c1.77,2.92,6.25.22,4.46-2.72l-.28-.46.26,2.07.08-.54-3.18,1.88a8.57,8.57,0,0,0,2.27.49c2.29.27,3.32-3.09,1.83-4.59a4.74,4.74,0,0,1-1.19-1.68l-2.49,3.4c3,.07,6,1.28,9,.84,2-.29,2.42-3.22,1.14-4.5-2.45-2.44-6.71-3.33-10-3.52a4.66,4.66,0,0,0-4,1.51c-1.33,1.59-1,3.38-1.39,5.27l5.08.72a21.4,21.4,0,0,0-.8-6.58c-.93-3.32-5.92-1.9-5,1.43Z"/><path class="cls-10" d="M116.1,126.24c.74,2.6,1.21,5.64,3,7.73.48.57,1.42-.18,1-.81a21.56,21.56,0,0,1-2.37-5.81c-.37-1.33.31-1.35,1.54-1.86a16.7,16.7,0,0,1,3.14-.9c.82-.16.47-1.46-.34-1.3-1.44.28-5.61,1-5.91,3-.14.95.64,2.63.94,3.53a18.69,18.69,0,0,0,1.87,4.05l1-.81c-1.57-1.86-2-4.82-2.65-7.14a.65.65,0,0,0-1.25.36Z"/><path class="cls-10" d="M118.4,118.13c-1.41-.57-2.52-.28-4-.19-.93.05-1.9-.15-2.25,1s.48,2.32.87,3.24c.5,1.19.85,2.52,1.88,3.34.39.31,1-.11,1-.58a3.63,3.63,0,0,0-.24-1.19c-.31-.79-1.56-.45-1.25.36a1.82,1.82,0,0,1,.19.83l1-.58a4.86,4.86,0,0,1-1-2l-.57-1.35c-.23-.55-.58-.87-.19-1.42s1-.38,1.57-.49a4.52,4.52,0,0,1,2.7.26c.78.31,1.11-1,.34-1.3Z"/><path class="cls-10" d="M104.59,121.86a11.54,11.54,0,0,0,2.57-.74c.69-.22,2.9-1.18,3.54-.83v-1.16c-1.5.68-3.06,1-4.59,1.61a2.17,2.17,0,0,0-1.44,1.23,4.33,4.33,0,0,0,.52,2.88c.63,1.55,1.46,3,2,4.59a.65.65,0,0,0,1.25-.36,21.13,21.13,0,0,0-1-2.56c-.4-.87-1.49-2.43-1.44-3.41.07-1.34,1.58-1.35,2.5-1.66a30.26,30.26,0,0,0,2.9-1.16.69.69,0,0,0,0-1.16,3.14,3.14,0,0,0-2.31.08c-1.46.33-3,1.19-4.45,1.3-.82.06-.83,1.41,0,1.34Z"/><path class="cls-10" d="M103,113c-.08,2.13-.7,5.19,1.07,6.78a.66.66,0,0,0,.91-1,5.55,5.55,0,0,1-1.13-4.68c.25-1.13.93-.93,1.78-.61a18.29,18.29,0,0,1,2.51,1.19.67.67,0,0,0,.65-1.16,18.9,18.9,0,0,0-3.89-1.69c-1.16-.34-1.66,0-2.08,1.16a7,7,0,0,0,1.24,6.74l.91-1c-1.38-1.24-.76-4.15-.7-5.83a.65.65,0,1,0-1.29,0Z"/><path class="cls-10" d="M125.83,122.17a1.77,1.77,0,0,0-1.54.59c-.46.66-.06,1.34.09,2a10,10,0,0,0,.6,2.7,8.77,8.77,0,0,0,1.94,2.31c.62.58,1.47-.31.91-1-1.21-1.39-1.22-3.38-2.08-5-.45-.84-1.59-1.72-2.22-.5-.39.76.72,1.44,1.12.68-.18.34-.1.1,0,.5s.31.72.43,1.06c.18.54.32,1.1.5,1.64a7.14,7.14,0,0,0,1.36,2.55l.91-1a6,6,0,0,1-2-2.64,12.09,12.09,0,0,1-.18-1.34c-.06-.42-.5-1.35.14-1.36a.67.67,0,0,0,0-1.34Z"/><path class="cls-10" d="M120.92,135.52c1.82-.83,3.26-2.75,5.36-2.76l-.46-1.15c-.62.55-1.56.5-2.26.9a10.63,10.63,0,0,0-1.5,1.33c-.72.62-2.36.62-2.58,1.75a5.08,5.08,0,0,0,1.2,3.4,5.51,5.51,0,0,0,1.85.84c1.16.43,2.34.82,3.53,1.18.8.24,1.14-1.05.34-1.3s-1.58-.49-2.36-.76a8.33,8.33,0,0,1-2.47-.92,8.79,8.79,0,0,1-.77-2c.11-.29.85-.32,1.09-.43.87-.42,1.35-1.31,2.14-1.83s1.87-.5,2.69-1.21a.68.68,0,0,0-.46-1.15c-2.44,0-3.91,2-6,2.94-.76.35-.1,1.5.65,1.16Z"/><path class="cls-10" d="M127.58,132.25a5.21,5.21,0,0,0,2.16-.48,17.08,17.08,0,0,1,2.88-.63c.79-.13,2.32-.22,2.22-1.44a1.14,1.14,0,0,0-1.58-.89c-.73.26-1.27,1.07-1.9,1.49a12.79,12.79,0,0,1-3.17,1.44.69.69,0,0,0-.45.83c.45,1.9.69,4,2.1,5.45.6.6,1.51-.35.91-1-1.21-1.21-1.38-3.23-1.77-4.85l-.45.83a16.88,16.88,0,0,0,2.58-1c.56-.29,2-1,2.25-1.62.38-.95-.59-.6-1.08-.52s-1.07.16-1.59.27c-1,.22-2.08.87-3.11.79-.83-.06-.83,1.29,0,1.34Z"/><path class="cls-10" d="M141.05,136.82a6.48,6.48,0,0,0,2.51-.38l-.34-1.3a4,4,0,0,1-1.93.15,1.42,1.42,0,0,0-.53,0,1,1,0,0,0-.59,1.18,11.27,11.27,0,0,0,1.08,2.63l1.54,3.52c.34.79,1.46.1,1.12-.68l-1.95-4.46-.2-.47a.32.32,0,0,0-.35-.32q-.58-.18.17,0l.17,0a3.78,3.78,0,0,0,1.83-.31c.76-.31.46-1.58-.34-1.3a5.58,5.58,0,0,1-2.16.33c-.83,0-.83,1.31,0,1.34Z"/><path class="cls-10" d="M131.27,139.84c1.78-.31,3.22-1.55,5-1.89,1.35-.26,2.94-.05,3.34-1.74a.68.68,0,0,0-.62-.85,3.44,3.44,0,0,0-1.86.53,7.56,7.56,0,0,1-3.07,1.29,3.67,3.67,0,0,0-2,.72c-.52.44-.49,1-.89,1.5h.91l-.22-.26c-.46-.56-1.18.06-1.08.65l.42,2.62c.14.85,1.38.49,1.25-.36l-.42-2.62-1.08.65.22.26a.63.63,0,0,0,.91,0c.35-.42.58-1.25,1-1.54.62-.47,1.72-.31,2.45-.51,1.22-.35,2.18-1.61,3.47-1.6l-.62-.85c-.18.79-3.14.93-3.87,1.22a17.75,17.75,0,0,1-3.55,1.47c-.82.14-.47,1.44.34,1.3Z"/><path class="cls-10" d="M143.83,144.23a2.71,2.71,0,0,1,.1,2.42l1.18.16a5.59,5.59,0,0,1-.17-1.81,2.19,2.19,0,0,1,1.21-1.28c1-.57,2-1,3-1.49.75-.37.1-1.53-.65-1.16-1.38.67-3.12,1.23-4.2,2.41s-.62,2.34-.44,3.68a.64.64,0,0,0,1.18.16,4.2,4.2,0,0,0-.1-3.77c-.4-.76-1.51-.08-1.12.68Z"/><path class="cls-10" d="M152.91,147.22a22.31,22.31,0,0,1-3.48,1.06l.34,1.3,1.35-.32c.47-.11,1-.42,1.34.07a5.86,5.86,0,0,1,.4,1.26l.46,1.46a.65.65,0,0,0,1.25-.36c-.24-.76-.47-1.51-.71-2.27a3,3,0,0,0-.71-1.43,1.37,1.37,0,0,0-1.24-.29c-.83.13-1.65.39-2.47.58s-.47,1.47.34,1.3a22.31,22.31,0,0,0,3.48-1.06c.77-.3.44-1.61-.34-1.3Z"/><path class="cls-10" d="M154.51,148.07a10.27,10.27,0,0,1,3.94-.81.67.67,0,0,0,0-1.34A4.43,4.43,0,0,0,155,147a2,2,0,0,0-.25,1.66l.28,2.58c.09.85,1.39.86,1.29,0l-.17-1.55a7.34,7.34,0,0,1-.17-1.55c0-.29,0-.24.24-.42a2.29,2.29,0,0,1,.64-.31,4,4,0,0,1,1.56-.2v-1.34a11.21,11.21,0,0,0-4.29.86c-.76.32-.43,1.62.34,1.3Z"/><path class="cls-10" d="M151.77,140.57a1.73,1.73,0,0,0-.25,2l.73-1a.48.48,0,0,1-.44-.4l-.39,1,.17,0-.5-.07c.68.38.77,1.47.9,2.17a6.15,6.15,0,0,0,.71,2.1.65.65,0,0,0,1.12-.68c-.73-1.2-.59-5.19-2.73-4.79-.45.08-.54.63-.39,1a1.7,1.7,0,0,0,1.21,1,.67.67,0,0,0,.73-1l0-.32c.53-.66-.38-1.62-.91-1Z"/><path class="cls-11" d="M106.11,158.11l1.05,1.7,2.23-4-.45-.17a2.67,2.67,0,0,0-3.13,4.22c9.95,10.6,23,11.92,36.45,12.67,7.25.4,14.62,1.31,21.64-1.15,6.59-2.31,5.46-7.37,5.77-13.93h-5.17c0,1.86-.85,2.67-.28,4.49s3.76,3.09,2.23.81c-2.24-3.32-8.09.72-10.61,1.34-5.92,1.45-12.09,1.08-18.12.86-6.57-.24-13.29-.71-19.4-3.47a23.91,23.91,0,0,1-7.55-5.18,18.85,18.85,0,0,1-3.24-4.23c-.79-1.59-.08.77,0-1.4,0-2.59.15-5.13-.05-7.74-.09-1.13-.22-7.48-1.15-8.25l-3,.36a26.33,26.33,0,0,1,1.36,3.5c.48,1.42.86,2.86,1.24,4.31.73,2.79,1.33,5.61,2.22,8.36a29.42,29.42,0,0,0,7,12.14c2.4,2.4,6-1.36,3.65-3.8l-9.43-9.71c-2.4-2.47-5.78,1.2-3.65,3.8,5.81,7.1,16.71,11.53,25.47,12.15,5.74.4,11.43.4,17.17,1s11.41,1,16.66-1.47c1.84-.86,1.53-3.69,0-4.65-17-10.59-35.48-16.19-53.3-24.79a2.63,2.63,0,0,0-3.89,2.32c-.72,8.09,2.89,18.69,10.83,21.82,4.86,1.92,11.11,1.69,16.23,2.29l19.9,2.34c2.57.3,3.49-3.84,1.3-5-3.59-1.92-7.15-4.11-11-5.53-3.57-1.33-7.37-2-11-3.24-7.51-2.5-15.67-4.23-21.82-9.69l-3.13,4.22c3.93,2.69,7.41,1.91,11.77,2.9,5.89,1.33,12.5,4.1,15.39,9.9l2.23-4c-3.72-.19-7.42-.5-11.11-1-1-.14-10.2-1.38-10.2-1.4L114,155l1.81.5a2.6,2.6,0,0,0,3.18-1.88l.3-1.46c.69-3.38-4.29-4.82-5-1.43l-.3,1.46,3.18-1.88-1.81-.5c-2-.56-3.55,1.33-3.18,3.31.74,4,6.39,3.94,9.42,4.47a138.07,138.07,0,0,0,16.88,1.89c2.06.11,3.08-2.34,2.23-4-2.42-4.87-6.47-7.82-11.29-9.85a38.64,38.64,0,0,0-9.11-2.91c-3.19-.46-5.75,0-8.61-2-2.42-1.66-5.38,2.23-3.13,4.22,5.73,5.08,12.51,7.34,19.59,9.59,3.54,1.13,7,2.37,10.6,3.34,5.27,1.42,9.8,3.79,14.63,6.37l1.3-5-25.87-3c-5.1-.6-9.68-.7-13-5.42a18.75,18.75,0,0,1-3-12.6L109,140.47c17.79,8.58,36.36,14.22,53.3,24.79v-4.65c-5,2.37-11.58,1-16.84.44-4.21-.43-8.4-.41-12.62-.6-8.19-.38-18.14-4-23.57-10.66l-3.65,3.8L115,163.3l3.65-3.8c-4.88-4.89-6.12-11.58-7.84-18.12-.84-3.19-2.2-11.06-5.79-12.29-3.37-1.16-4.4,2.55-4.14,5.12.38,3.88,1.38,7.59,1.52,11.54.08,2.2-.78,4.87-.36,7,.84,4.3,6.18,8.8,9.48,11.06a37.47,37.47,0,0,0,15.9,5.67,121.05,121.05,0,0,0,19.5,1,48.77,48.77,0,0,0,8.61-.86c3.18-.63,6.06-2.23,9.19-2.9l-2.51-.69c1.21,1.09,1,2.45,2.84,3.11a4.34,4.34,0,0,0,4.5-1.26,5.36,5.36,0,0,0,1.07-4.78c-.25-1.06-1.32-2-1.51-3,.18.93.54-2.58.54-2.69,0-3.48-5-3.44-5.17,0-.13,2.74.43,6.86-2,8.74-2.14,1.68-6.68,1.49-9.29,1.48-5.25,0-10.52-.5-15.76-.79-10.48-.58-20.41-2.72-28-10.83l-3.13,4.22a7.9,7.9,0,0,0,3.06.9c2.08.24,3-2.42,2.23-4a12.16,12.16,0,0,0-1.86-2.79c-2.17-2.63-5.81,1.19-3.65,3.8Z"/><path class="cls-11" d="M117.56,153.13a42.93,42.93,0,0,0,6.31,2.33c3.22.88,4.59-4.3,1.37-5.19a34.52,34.52,0,0,1-5.08-1.78,2.61,2.61,0,0,0-3.54,1c-.64,1.14-.36,3.1.93,3.68Z"/><path class="cls-11" d="M109.6,134.63a10.33,10.33,0,0,1-4.07-3.6c-.56-1-.23-1.75-.19-2.86A9.27,9.27,0,0,0,105,126c1.33-3.14-3.12-5.88-4.46-2.72-.74,1.74-.41,2.73-.39,4.54s-.4,3.2.36,4.92a15.25,15.25,0,0,0,6.47,6.55c2.92,1.66,5.53-3,2.61-4.65Z"/><path class="cls-12" d="M102.86,150.37c6.71,8.48,17.94,13.58,28.1,15.51A130.68,130.68,0,0,0,148.43,168c6.41.34,12.88-.34,19.26.4l-2.23-4c-1.31,2.38-13.53.24-15.79.12-5.24-.27-10.58-.37-15.79-1.07-10.22-1.37-17.09-10.6-27-12.44a2.67,2.67,0,0,0-3.18,3.31c.52,1.92.16,3.94,1.37,5.62,1.36,1.89,3.93,1.86,5.18,3.94l2.92-4-2.11-1.35-2,4.92c2.58.79,3.46,3.6,6.33,4A2.71,2.71,0,0,0,118,163l-2-2.61L114.09,165c1.43-.14,2.38,2,3.43,2.73a18,18,0,0,0,4.56,1.86c4.86,1.67,10.05,3.46,15.17,4s10.33-.69,15.54-.19c4.21.4,8,.51,11.66-2,2.78-1.88.19-6.54-2.61-4.65-4.21,2.85-9.47.9-14.16.94-5.44.05-9.91.78-15.32-.64-3.74-1-9.33-1.76-12.39-4.27-2.13-1.75-2.65-3.52-5.88-3.2a2.75,2.75,0,0,0-1.83,4.59l2,2.61,2.51-4.5c-2.27-.35-4-3.32-6.33-4-3-.93-4.19,3.2-2,4.92a11.51,11.51,0,0,0,3.34,1.89c2.13.92,4-2.1,2.92-4a13.08,13.08,0,0,0-2.85-3.18,9,9,0,0,1-3.17-5.1l-3.18,3.31c6.45,1.2,11.86,6.43,17.72,9.35,5,2.47,9.74,3.27,15.21,3.68,6.43.48,12.87.76,19.3,1.09,4.45.22,9.56,1.48,12.13-3.2a2.73,2.73,0,0,0-2.23-4c-11.13-1.3-22.23,0-33.4-2-10.1-1.74-21.08-6-27.78-14.49-2.12-2.67-5.75,1.15-3.65,3.8Z"/><path class="cls-13" d="M110.34,136.25c-1.12,6.13-4.52,14.33.14,19.57.57.64,1.48-.32.91-1-4-4.51-.8-12.85.19-18.26.15-.85-1.09-1.21-1.25-.36Z"/><path class="cls-13" d="M111.29,136.38c.09,11,5.4,19.82,14.13,26,.69.49,1.34-.68.65-1.16-8.31-5.89-13.4-14.34-13.49-24.85a.65.65,0,1,0-1.29,0Z"/><path class="cls-13" d="M127.3,144.78a52.72,52.72,0,0,0,19.83,23.73c.71.46,1.36-.7.65-1.16a51.52,51.52,0,0,1-19.36-23.25c-.34-.79-1.45-.11-1.12.68Z"/><path class="cls-13" d="M141.15,148.34c2,3,3.41,6.37,5.81,9.09a23.53,23.53,0,0,0,8,5.84c.75.34,1.41-.81.65-1.16a22.63,22.63,0,0,1-7.73-5.63c-2.32-2.64-3.68-5.9-5.61-8.82-.47-.71-1.59,0-1.12.68Z"/><path class="cls-14" d="M100,111.51c.51,7.38-.61,14.75-.1,22.17a202.64,202.64,0,0,0,2.8,20.91c1,5.69,2.52,8.88,7.37,11.84a55.05,55.05,0,0,0,17.67,6.52,123.7,123.7,0,0,0,18,2.07c5.29.29,10.89,1.05,16-.81,1.46-.53,2.82-1.47,4.33-1.87,1.15-.31,2.36-.15,3.45-.73a3.74,3.74,0,0,0,1.94-2.33c1.71-4.68-.7-13-1.64-17.71-.33-1.69-2.83-1-2.49.72.67,3.42,4,14.72.43,17.11-.92.62-3.11.59-4.22,1-2.92,1.07-5.26,2.21-8.43,2.31A110.36,110.36,0,0,1,125,169.57a46.54,46.54,0,0,1-14.27-5.87C105.1,160,105,153,104,146.71a133.91,133.91,0,0,1-1.74-18.19c-.09-5.68.71-11.33.32-17-.12-1.72-2.7-1.73-2.58,0Z"/><path class="cls-14" d="M101.52,111.61c12.1,2.79,22.07,9.51,32,16.95,4.67,3.5,9.34,7,14.31,10,2.56,1.55,22,10.49,18.8,14.92-1,1.38,1.24,2.72,2.23,1.36,3.83-5.27-2.46-8.82-6.38-11.08-7.48-4.31-15-8.25-22-13.36-12.12-8.8-23.46-18-38.21-21.39-1.62-.37-2.31,2.22-.69,2.59Z"/><path class="cls-14" d="M100.25,111.61c1.35,5.71,2.21,12,4.17,17.5,1.25,3.51,4,5.53,7,7.45,8.08,5.25,17.43,7.74,26.34,10.94A76.45,76.45,0,0,1,151.84,154c3,1.85,7.92,6.25,11.74,5.79,5.5-.66,5.61-10.17,1.84-13.18-1.32-1.05-2.61,1.28-1.3,2.32q3.72,5.27-1.38,5.9-2.16,2.1-4.16.23a33.3,33.3,0,0,1-4.65-2.9,66,66,0,0,0-7.46-4c-5.44-2.48-11.14-4.26-16.77-6.21-6.12-2.12-12.28-4.43-17.71-8.14-7-4.77-7.39-15-9.26-22.88-.4-1.68-2.89-1-2.49.72Z"/><path class="cls-14" d="M108.89,114.41a218.85,218.85,0,0,1,12,26.38c.3.8,1.55.45,1.25-.36a221.58,221.58,0,0,0-12.1-26.7c-.41-.76-1.52-.08-1.12.68Z"/><path class="cls-14" d="M120.35,118.52c3.6,8.14,8.13,16.42,10.61,25a.65.65,0,0,0,1.25-.36c-2.53-8.73-7.09-17.05-10.74-25.33-.35-.79-1.46-.1-1.12.68Z"/><path class="cls-14" d="M134.4,127.52a65.39,65.39,0,0,1,9,20.36.65.65,0,1,0,1.25-.36,66.52,66.52,0,0,0-9.13-20.68c-.47-.71-1.59,0-1.12.68Z"/><path class="cls-14" d="M147.44,137.92c3.25,4.7,6.51,9.55,7,15.49.08.85,1.37.86,1.29,0-.55-6.2-3.8-11.24-7.21-16.17-.48-.7-1.6,0-1.12.68Z"/><path class="cls-14" d="M158.66,144.83a32.27,32.27,0,0,1,4.57,11.58c.16.85,1.4.49,1.25-.36a33.28,33.28,0,0,0-4.7-11.9.65.65,0,0,0-1.12.68Z"/><path class="cls-14" d="M105,120.83a31.67,31.67,0,0,1,12.78-2.12c.83,0,.83-1.31,0-1.34a32.5,32.5,0,0,0-13.12,2.17c-.77.3-.44,1.6.34,1.3Z"/><path class="cls-14" d="M108.49,130.31c5.88-2.16,10.69-7.27,17.15-7.52.83,0,.83-1.38,0-1.34-6.68.26-11.44,5.34-17.5,7.57-.78.29-.44,1.59.34,1.3Z"/><path class="cls-14" d="M116.08,137c5.52-2.57,11.66-6.56,17.61-7.72.82-.16.47-1.45-.34-1.3-2.79.54-5.34,2-7.92,3.19l-10,4.66c-.76.35-.1,1.51.65,1.16Z"/><path class="cls-14" d="M127.3,141.59c4.05-2.85,10.87-7.13,15.83-5.93.81.2,1.15-1.1.34-1.3-5.51-1.33-12.42,3-16.82,6.07-.69.48,0,1.65.65,1.16Z"/><path class="cls-14" d="M138.95,146.64a60.64,60.64,0,0,1,12.57-6c.79-.27.45-1.57-.34-1.3a62.17,62.17,0,0,0-12.88,6.19c-.71.45-.06,1.61.65,1.16Z"/><path class="cls-14" d="M147.63,149.47a59.69,59.69,0,0,1,14.63-4.14c.82-.12.47-1.42-.34-1.3a59.69,59.69,0,0,0-14.63,4.14c-.76.32-.43,1.62.34,1.3Z"/><path class="cls-14" d="M153,154.6l7.08-2.74c2.32-.9,5.39-2.7,7.89-2.56.83,0,.83-1.3,0-1.34-2.45-.13-4.88,1.31-7.15,2.19l-8.17,3.16c-.77.3-.44,1.6.34,1.3Z"/><path class="cls-9" d="M118.1,139.06l13.46-3-2.51-4.5-2.7,1.37c-2.8.78-2.25,5.32.69,5.28,14.51-.16,29.3,2.58,43.55,5.2l.69-5.28-10.51-.26.69,5.28c6.7-1.33,13.06,1,19.28,3.39l.69-5.28L180,141c-3.08-1.4-5.25,2.53-2.61,4.65,5.9,4.72,13.48,7.74,17.53,14.54,1.78,3,5.83.39,4.46-2.72a11.58,11.58,0,0,0-5.37-5.85c-1.76-1-4.74.7-3.8,3,3.22,8,9.93,12.13,17.15,15.8a2.59,2.59,0,0,0,3.8-1.61,15.4,15.4,0,0,0-1.73-12.47c-1.08-1.78-4.32-1.77-4.72.64l-1.14,6.89,4.72-.64a48.42,48.42,0,0,0-8.19-11.15,2.57,2.57,0,0,0-4.32,1.19,11.39,11.39,0,0,0,2.46,10.36c1.26,1.55,3.89.68,4.32-1.19a32,32,0,0,1,.84-3.25q1.83-2.06-.12-3.65c-1,3.1,3.11,4.34,4.72,2.07,3.31-4.65-2.43-7.94-4.69-11.26-2.73-4-5.22-7.08-10.29-6.28a2.67,2.67,0,0,0-1.9,2.59c.41,5.33,5.81,6.54,6.85,11.12l2.49-3.4c-4.27.1-7.11-4.53-10.34-6.85a27.14,27.14,0,0,0-10.6-4.48l-.69,5.28c4.12-.1,6.52,1.47,10.28,2.54,1.81.52,3.62.94,5.28-.34,4.56-3.52-.6-7.55-1.43-11.14L188.63,138c1.95,1.9,15,12.55,13.6,15.49l3.54-1a92,92,0,0,1-10.41-6c-4.11-2.88-6.72-6.69-10.25-10.16a13.07,13.07,0,0,0-7.35-4.08c-3.93-.49-7.64,3.38-11.34,2.15L165,139.68l13.19,3.26c2.92.72,4.38-3.2,2-4.92l-3.34-2.4-1.3,5a48.1,48.1,0,0,1,11.78,2.59c1.86.65,3.73-1.41,3.18-3.31a17.16,17.16,0,0,0-2.45-5.25L184,137.92a30.39,30.39,0,0,1,5.71,6c2,2.79,5.83.47,4.46-2.72a18.53,18.53,0,0,0-16.58-11.43v5.38c1.32,0,2.64,0,4,.17a28.34,28.34,0,0,1,4.2.7q2.19.72-.39-.85c-1.91-1.56-4.59-2.2-6.94-2.9a31.65,31.65,0,0,0-14.56-.88c-2.21.39-4.26,1.22-6.42,1.78-3.68,1-7.06.43-10.73-.32-5.92-1.2-11.81-2.58-17.72-3.86l.62,4.92c4-2.58,8.18-5.06,12.16-7.75,2.41-1.63,3.83-2.91,4.07-5.95l-4.41,1.9c3.64,4.37,9.74,5.62,14.86,7.18a185.81,185.81,0,0,0,20.3,4.9l.69-5.28c-13.21.25-27,1.69-40.08-.77l1.14,4.5c1.78-1.93,6.69-.89,8.8-.81l9.1.37c2.85.12,3.6-4.78.69-5.28a74.25,74.25,0,0,1-14.65-4.08l-.69,5.28c-1.13-.08,5.12,1.5,4.75,2.34-1.4,3.12,3.05,5.85,4.46,2.72,2.69-6-4.13-10.09-9.21-10.43-3.1-.21-3.24,4.28-.69,5.28a74.25,74.25,0,0,0,14.65,4.08l.69-5.28c-4.9-.2-9.88-.68-14.78-.58-2.7.06-4.85.53-6.77,2.6-1.25,1.35-.85,4.12,1.14,4.5,13.58,2.56,27.73,1.23,41.45,1,2.8-.05,3.66-4.73.69-5.28-5.6-1-11.16-2.29-16.65-3.83-5.16-1.45-12.62-2.54-16.23-6.87-1.59-1.91-4.25-.23-4.41,1.9-.1,1.31-5.54,3.87-6.37,4.4l-7.3,4.65c-1.79,1.14-1.64,4.42.62,4.92,8.36,1.82,17.72,5.31,26.32,5,3.64-.13,6.84-1.74,10.35-2.45,5.28-1.07,10.17-.09,15.21,1.54,3.46,1.12,11.53,3.41,12-2.81s-10.53-5.64-14-5.7-3.32,5.25,0,5.38c5.57.22,9.88,3.55,12.12,8.77l4.46-2.72a35.46,35.46,0,0,0-6.52-7.08c-2.08-1.7-5.94.54-4.06,3.26a9.13,9.13,0,0,1,1.93,4l3.18-3.31a53.65,53.65,0,0,0-13.16-2.78c-2.77-.24-3.22,3.64-1.3,5l3.34,2.4,2-4.92-13.19-3.26c-3.24-.8-4.54,4.13-1.37,5.19,2.62.87,4.67.41,7.18-.55,3.38-1.29,5.44-2.11,8.57.43,1.68,1.36,2.93,3.31,4.35,4.94,5,5.72,11.46,9.3,18,12.72a2.56,2.56,0,0,0,3.54-1c1.59-3.4.78-6.28-1.56-9.07-3.87-4.63-8.55-8.75-12.85-12.94a2.62,2.62,0,0,0-4.32,2.62c.31,1.36,1,2.15,1.41,3.36.57,1.89.86.82-1.26.35-3.33-.74-5.81-1.67-9.29-1.58-2.8.07-3.65,4.68-.69,5.28,5.63,1.14,9.31,3.91,13.59,7.68,2.63,2.32,5.21,3.92,8.72,3.84a2.7,2.7,0,0,0,2.49-3.4,9.88,9.88,0,0,0-2.3-4.43c-1.27-1.47-4.19-3.1-4.36-5.26l-1.9,2.59c2.68-.42,4.36,3.85,5.62,5.57.45.62,3.71,3.83,3.54,4.07l4.72,2.07a4.35,4.35,0,0,0-4.34-5.78c-4.3.35-5.56,6.39-6.34,9.82l4.32-1.19a5,5,0,0,1-1.13-5.12l-4.32,1.19A43.31,43.31,0,0,1,203.83,166c1,1.89,4.34,1.69,4.72-.64l1.14-6.89-4.72.64a9.82,9.82,0,0,1,1.21,8.32l3.8-1.61c-5.7-2.9-12.17-6.13-14.77-12.59l-3.8,3a7.75,7.75,0,0,1,3.51,3.92l4.46-2.72c-4.61-7.74-12.69-11.1-19.39-16.47l-2.61,4.65a9.22,9.22,0,0,0,4,1c3.08.16,3.28-4.3.69-5.28-7.26-2.76-14.29-4.92-22-3.39-2.94.58-2.14,5.21.69,5.28l10.51.26c2.84.07,3.61-4.75.69-5.28-14.67-2.7-30-5.56-44.92-5.39l.69,5.28a12,12,0,0,0,5-2.76c2.14-1.85-.21-5-2.51-4.5l-13.46,3c-3.25.72-1.88,5.91,1.37,5.19Z"/><path class="cls-9" d="M169.67,145.76a28.53,28.53,0,0,0,7,1.08c2.7.09,3.33-3.61,1.3-5-6.82-4.71-14.62-6.47-22.64-7.48a99,99,0,0,0-13.73-.94c-5.43.08-10.55.77-16-.26-3.25-.62-4.65,4.57-1.37,5.19,8.42,1.6,16.85.07,25.34.78,9,.75,18.1,2.06,25.76,7.35l1.3-5a22.86,22.86,0,0,1-5.59-.88c-3.21-.91-4.58,4.28-1.37,5.19Z"/><g class="cls-15"><path class="cls-16" d="M116.85,138.72l13.46-3-2.51-4.5-2.7,1.37c-2.8.78-2.25,5.32.69,5.28,14.51-.16,29.3,2.58,43.55,5.2l.69-5.28-10.51-.26.69,5.28c6.7-1.33,13.06,1,19.28,3.39l.69-5.28-1.41-.3c-3.08-1.4-5.25,2.53-2.61,4.65,5.9,4.72,13.48,7.74,17.53,14.54,1.78,3,5.83.39,4.46-2.72a11.58,11.58,0,0,0-5.37-5.85c-1.76-1-4.74.7-3.8,3,3.22,8,9.93,12.13,17.15,15.8a2.59,2.59,0,0,0,3.8-1.61A15.4,15.4,0,0,0,208.18,156c-1.08-1.78-4.32-1.77-4.72.64l-1.14,6.89,4.72-.64a48.42,48.42,0,0,0-8.19-11.15,2.57,2.57,0,0,0-4.32,1.19A11.39,11.39,0,0,0,197,163.33c1.26,1.55,3.89.68,4.32-1.19a32,32,0,0,1,.84-3.25q1.83-2.06-.12-3.65c-1,3.1,3.11,4.34,4.72,2.07,3.31-4.65-2.43-7.94-4.69-11.26-2.73-4-5.22-7.08-10.29-6.28a2.67,2.67,0,0,0-1.9,2.59c.41,5.33,5.81,6.54,6.85,11.12l2.49-3.4c-4.27.1-7.11-4.53-10.34-6.85a27.14,27.14,0,0,0-10.6-4.48l-.69,5.28c4.12-.1,6.52,1.47,10.28,2.54,1.81.52,3.62.94,5.28-.34,4.56-3.52-.6-7.55-1.43-11.14l-4.32,2.62c1.95,1.9,15,12.55,13.6,15.49l3.54-1a92,92,0,0,1-10.41-6c-4.11-2.88-6.72-6.69-10.25-10.16a13.07,13.07,0,0,0-7.35-4.08c-3.93-.49-7.64,3.38-11.34,2.15l-1.37,5.19L177,142.59c2.92.72,4.38-3.2,2-4.92l-3.34-2.4-1.3,5a48.1,48.1,0,0,1,11.78,2.59c1.86.65,3.73-1.41,3.18-3.31a17.16,17.16,0,0,0-2.45-5.25l-4.06,3.26a30.39,30.39,0,0,1,5.71,6c2,2.79,5.83.47,4.46-2.72a18.53,18.53,0,0,0-16.58-11.43v5.38c1.32,0,2.64,0,4,.17a28.34,28.34,0,0,1,4.2.7q2.19.72-.39-.85c-1.91-1.56-4.59-2.2-6.94-2.9a31.65,31.65,0,0,0-14.56-.88c-2.21.39-4.26,1.22-6.42,1.78-3.68,1-7.06.43-10.73-.32-5.92-1.2-11.81-2.58-17.72-3.86l.62,4.92c4-2.58,8.18-5.06,12.16-7.75,2.41-1.63,3.83-2.91,4.07-5.95l-4.41,1.9c3.64,4.37,9.74,5.62,14.86,7.18a185.81,185.81,0,0,0,20.3,4.9l.69-5.28c-13.21.25-27,1.69-40.08-.77l1.14,4.5c1.78-1.93,6.69-.89,8.8-.81l9.1.37c2.85.12,3.6-4.78.69-5.28a74.25,74.25,0,0,1-14.65-4.08l-.69,5.28c-1.13-.08,5.12,1.5,4.75,2.34-1.4,3.12,3.05,5.85,4.46,2.72,2.69-6-4.13-10.09-9.21-10.43-3.1-.21-3.24,4.28-.69,5.28a74.25,74.25,0,0,0,14.65,4.08l.69-5.28c-4.9-.2-9.88-.68-14.78-.58-2.7.06-4.85.53-6.77,2.6-1.25,1.35-.85,4.12,1.14,4.5,13.58,2.56,27.73,1.23,41.45,1,2.8-.05,3.66-4.73.69-5.28-5.6-1-11.16-2.29-16.65-3.83-5.16-1.45-12.62-2.54-16.23-6.87-1.59-1.91-4.25-.23-4.41,1.9-.1,1.31-5.54,3.87-6.37,4.4l-7.3,4.65c-1.79,1.14-1.64,4.42.62,4.92,8.36,1.82,17.72,5.31,26.32,5,3.64-.13,6.84-1.74,10.35-2.45,5.28-1.07,10.17-.09,15.21,1.54,3.46,1.12,11.53,3.41,12-2.81s-10.53-5.64-14-5.7-3.32,5.25,0,5.38c5.57.22,9.88,3.55,12.12,8.77l4.46-2.72a35.46,35.46,0,0,0-6.52-7.08c-2.08-1.7-5.94.54-4.06,3.26a9.13,9.13,0,0,1,1.93,4l3.18-3.31a53.65,53.65,0,0,0-13.16-2.78c-2.77-.24-3.22,3.64-1.3,5l3.34,2.4,2-4.92-13.19-3.26c-3.24-.8-4.54,4.13-1.37,5.19,2.62.87,4.67.41,7.18-.55,3.38-1.29,5.44-2.11,8.57.43,1.68,1.36,2.93,3.31,4.35,4.94,5,5.72,11.46,9.3,18,12.72a2.56,2.56,0,0,0,3.54-1c1.59-3.4.78-6.28-1.56-9.07-3.87-4.63-8.55-8.75-12.85-12.94a2.62,2.62,0,0,0-4.32,2.62c.31,1.36,1,2.15,1.41,3.36.57,1.89.86.82-1.26.35-3.33-.74-5.81-1.67-9.29-1.58-2.8.07-3.65,4.68-.69,5.28,5.63,1.14,9.31,3.91,13.59,7.68,2.63,2.32,5.21,3.92,8.72,3.84a2.7,2.7,0,0,0,2.49-3.4,9.88,9.88,0,0,0-2.3-4.43c-1.27-1.47-4.19-3.1-4.36-5.26l-1.9,2.59c2.68-.42,4.36,3.85,5.62,5.57.45.62,3.71,3.83,3.54,4.07l4.72,2.07a4.35,4.35,0,0,0-4.34-5.78c-4.3.35-5.56,6.39-6.34,9.82l4.32-1.19a5,5,0,0,1-1.13-5.12l-4.32,1.19a43.31,43.31,0,0,1,7.38,10.06c1,1.89,4.34,1.69,4.72-.64l1.14-6.89-4.72.64a9.82,9.82,0,0,1,1.21,8.32l3.8-1.61c-5.7-2.9-12.17-6.13-14.77-12.59l-3.8,3a7.75,7.75,0,0,1,3.51,3.92l4.46-2.72c-4.61-7.74-12.69-11.1-19.39-16.47l-2.61,4.65a9.22,9.22,0,0,0,4,1c3.08.16,3.28-4.3.69-5.28-7.26-2.76-14.29-4.92-22-3.39-2.94.58-2.14,5.21.69,5.28l10.51.26c2.84.07,3.61-4.75.69-5.28-14.67-2.7-30-5.56-44.92-5.39l.69,5.28a12,12,0,0,0,5-2.76c2.14-1.85-.21-5-2.51-4.5l-13.46,3c-3.25.72-1.88,5.91,1.37,5.19Z"/><path class="cls-16" d="M168.42,145.42a28.53,28.53,0,0,0,7,1.08c2.7.09,3.33-3.61,1.3-5C169.86,136.76,162.07,135,154,134a99,99,0,0,0-13.73-.94c-5.43.08-10.55.77-16-.26-3.25-.62-4.65,4.57-1.37,5.19,8.42,1.6,16.85.07,25.34.78,9,.75,18.1,2.06,25.76,7.35l1.3-5a22.86,22.86,0,0,1-5.59-.88c-3.21-.91-4.58,4.28-1.37,5.19Z"/></g><path class="cls-17" d="M158.11,146.85a6.61,6.61,0,0,1,2.08.58v-4.65c-1.73,1-3.78-.57-5.2-1.53-2.8-1.88-5.4,2.77-2.61,4.65,3.16,2.12,6.86,3.67,10.42,1.53,1.55-.93,1.82-3.79,0-4.65a14.08,14.08,0,0,0-4.69-1.31c-1.39-.15-2.58,1.34-2.58,2.69a2.7,2.7,0,0,0,2.58,2.69Z"/><path class="cls-17" d="M92.25,175.85c9.44,3.34,16.42,10.67,26.46,12.61,8.43,1.63,19.7,3.39,27.78-.31,4.07-1.86,7.13-5.22,10.73-7.83a40.89,40.89,0,0,1,6.3-3.79c3-1.46,5.41-.86,8.59-.44,10.36,1.38,21.9.37,32.22-1,3.25-.44,3.29-5.83,0-5.38-10.11,1.37-21.36,2.39-31.53,1.07-3.83-.5-6.54-1.24-10.23.37a50.13,50.13,0,0,0-11.81,7.63c-4.63,3.84-8.67,5.9-14.73,5.88a88.77,88.77,0,0,1-16-1.35c-9.93-1.88-17.07-9.29-26.46-12.61-3.16-1.11-4.51,4.08-1.37,5.19Z"/><path class="cls-11" d="M105.95,144c10.94-.63,22-1.28,32.9.14,10.14,1.32,19.58,6.27,29.8,6.71,2.7.12,3.33-3.62,1.3-5a13.56,13.56,0,0,0-8.82-2.55c-3.31.13-3.34,5.34,0,5.38,9.65.1,17.19,4.41,24,11.2,5.24,5.2,10,10.75,16.18,14.84v-4.65c-12.4,7.68-24.86,14.34-39.14,17.3a91.88,91.88,0,0,1-21.71,1.83c-6.74-.23-13.9-1-18.52-6.66-1.79-2.21-4.8.21-4.32,2.62l.86,4.28,3.18-3.31c-8.09-3.46-13.42-11.3-21.79-14.38a2.58,2.58,0,0,0-3.18,1.88,5.58,5.58,0,0,0,1,4.89c1.49,1.92,4.56,1.89,5.84,3.69l4.46-2.72c-5.83-8-16.07-11.71-24.43-16.15l.52,4.22L100,153.51c3.55-3.13,7.77-5.9,7.83-11.17A2.61,2.61,0,0,0,104,140a30.42,30.42,0,0,0-7.54,5.74c-1.57,1.62-.42,4.63,1.83,4.59l7.28-.12-1.83-4.59a18,18,0,0,1-8,4.62c-3.21.91-1.85,6.09,1.37,5.19l4.28-1.19-2-4.92-2.22.65,2.58,2.69.09-1.83c.11-2.25-2.23-3.06-3.89-2.32a25.24,25.24,0,0,0-7.34,5,2.84,2.84,0,0,0,0,3.8,5.64,5.64,0,0,1-1.12,7.83l3.8,1.61-1-4.53-3.8,3,14.46,10.27c4.1,2.91,8.52,7.16,13.13,9.08,1.87.78,3.62.31,5.5.83,2.35.65,4,2.52,6.08,3.75,4.12,2.45,8.92,2.84,13.56,2.56,20.11-1.22,41.93-4.74,59.3-15.91l-3.8-1.61c.23,1.38-1.18,2.86.77,4.66l.52-4.22a42,42,0,0,1-11.25,4.45l1.37,5.19a4,4,0,0,1,3.3-.5l-1.3-5a29.37,29.37,0,0,1-9,3.83l2.51,4.5a114.47,114.47,0,0,1,15-13.28,2.8,2.8,0,0,0,0-4.65,19.28,19.28,0,0,1-6.86-9.57,20.9,20.9,0,0,0-3.38-6.19c-1.87-2.3-5.83.81-4.06,3.26l2.31,3.2c1.94,2.69,6.26.31,4.46-2.72l-.29-.51-4.41,1.9c3.12,2.9.81,5,.29,8.07-.21,1.27,1.31,4.78.72,5.61l4.81,1.36a56.92,56.92,0,0,0-1.42-13.8c-.56-2.5-3.48-2.33-4.72-.64-2.57,3.47-4.09,8.68-1.75,12.75a6.14,6.14,0,0,0,8.89,2.24L188,169.92c-7.76,7.69-20.39,5-29.68,9.63-2.39,1.18-1.13,5,1.3,5,6.24,0,12.36-.2,18.38-2,3.21-1,1.87-5.9-1.37-5.19-16.42,3.62-33.32,7.11-49.85,2.23-2.37-.7-4.54,2.71-2.51,4.5A22.58,22.58,0,0,0,133,189c2.95.91,4.3-3.24,2-4.92-3.66-2.66-13-12.81-17.09-6.53a2.79,2.79,0,0,0,.93,3.68l4.5,2.88c2.88,1.84,5.29-2.68,2.61-4.65-4.59-3.36-34.79-14.14-26.43-22.81L95.17,154a28.78,28.78,0,0,0-.83,10.8c.24,2.15,2.73,3.75,4.41,1.9a32.83,32.83,0,0,0,7.5-13.71c.8-2.93-3.25-4.72-4.72-2.07L97,159.05l4.72,2.07a35.13,35.13,0,0,1,8.06-14.64l-4.06-3.26c-1.58,3-1.76,5.94-2.33,9.23-.83,4.79-3,9.08-5.19,13.33-1.58,3.07,2.64,5.6,4.46,2.72,3-4.76,5.82-9.64,8.36-14.69,1.79-3.56,3.32-6.58,2.68-10.64-.38-2.4-3.66-2.46-4.72-.64l-1,1.72c-1.08,1.85.76,4.85,2.92,4,13.87-5.78,30.38-1.06,44.4,2.13a102.79,102.79,0,0,1,21.31,7c1.6.76,3.19,1.58,4.75,2.43l1.55.87q2.66.52.75,2.37c-.29,3.15-3.31,7.72-4.53,10.57l4.72,2.07a30.29,30.29,0,0,0,.11-17,2.58,2.58,0,0,0-4.72-.64A35.65,35.65,0,0,0,173.15,176a2.6,2.6,0,0,0,4.41,1.9,13.83,13.83,0,0,0,3.77-8.49c.25-4.49-2.94-7.55-3.1-11.79l-4.41,1.9,3.21,2.8c2.1,1.83,5.79-.53,4.06-3.26l-1.67-2.63a2.57,2.57,0,0,0-4.46,0c-4.11,6-9.45,13.47-7.49,21.26a2.58,2.58,0,0,0,4.72.64,89.5,89.5,0,0,0,6.7-11.68c1.48-3.09-3-5.81-4.46-2.72s-3.19,6.86-6.2,8.88c-2.78,1.87-6.34,2.08-9.51,2.67-7,1.31-13.94,4.59-21.22,4.07A24,24,0,0,1,126.69,176c-2.64-1.64-4.82-4-7.64-5.35-3.23-1.52-6.2-2.21-9.08-4.53a19.13,19.13,0,0,0-5.94-3.52c-2.44-.84-4.39,2.7-2.51,4.5,5,4.81,12.13,5.81,17.16,10.53l3.13-4.22a28.36,28.36,0,0,1-13.4-13.8l-4.06,3.26a99.54,99.54,0,0,0,23.55,16.67c8.85,4.64,17.76,4.07,27.26,2.17a31.69,31.69,0,0,0,20.32-12.8c1.46-2,4.52-5.6,3.66-8.52-1-3.44-6.71-6.11-9.33-8.05-1.76-1.3-4.61.89-3.8,3,2.75,7.21-6,13-9,18.7a2.61,2.61,0,0,0,4.46,2.72q5.62-7.77,11.63-15.2L168.76,159a28.93,28.93,0,0,1-5.78,9.59c-2.64,2.74-5.58,2.8-9.13,3.14-5.78.57-11.58,1.34-17.37,1.66-6.19.35-10.62-1.35-15.34-5.44-3.68-3.18-7-6.62-11.25-9l-2.61,4.65,21.63,10.34c6.12,2.93,12.46,7,19.41,6.54,3.29-.22,3.35-5.47,0-5.38l-.41-.12-.93,3.68c5.78-4.11,13.18-5,18.69-9.56,5-4.07,5.69-9.79,5.63-16a2.63,2.63,0,0,0-3.27-2.59c-8.28,2.59-7.51,11.5-8.8,18.73-.49,2.76,3.48,5.07,4.72,2.07a76.33,76.33,0,0,0,4.73-16c.5-2.85-3.2-4.89-4.72-2.07-2.5,4.64-3.62,10.89-7.6,14.46-4.56,4.09-12.56-.15-17.84-1.07-11.19-1.95-20.78-6.28-30.77-11.77l-2,4.92a201.91,201.91,0,0,1,19.16,9.55c5,2.86,9.9,5.81,15.67,6.66,2.59.38,4.92-3.52,2-4.92l-1.59-.76-.62,4.92c5.9-1.6,12.21-1.22,16.95-5.8,4.57-4.42,7-11.14,8.16-17.36a2.8,2.8,0,0,0-1.19-3c-4.22-2-9.45-2.69-12.93,1.27a9.15,9.15,0,0,0-2.18,6c-.11,4.59.57,7.55-2.18,11.79l4.46,2.72,7.72-15.5-4.46-2.72-4.24,9.16a2.61,2.61,0,0,0,4.46,2.72l6.66-9.24L156.87,153a22.82,22.82,0,0,1-7.29,10.06c-5.06,4.12-10.36,2.91-16.28,2.22-9.38-1.09-18.59-3.62-25.48-10.69l-2.51,4.5a393,393,0,0,0,44.35,12.28c3.31.71,4.44-3.94,1.37-5.19A354.23,354.23,0,0,0,108.64,152c-3.24-.86-4.52,4.11-1.37,5.19A276.46,276.46,0,0,0,150,168.13a2.69,2.69,0,0,0,1.37-5.19A315.19,315.19,0,0,0,112,149.77l-.69,5.28c14.66,1.78,29,5.28,43.37,8.81l1.37-5.19c-14.33-2.34-28.87-4.88-41.23-13.3l-1.3,5c9.24.25,17.65,3.91,26.14,7.33,3.64,1.47,14.12,7.52,17.5,3.55s.6-11.32-4.14-12.34c-5.58-1.2-8.89,4.55-7.6,9.63.53,2.09,3.77,2.81,4.72.64a28.26,28.26,0,0,0,2.35-9,2.6,2.6,0,0,0-3.89-2.32l-4.74,3.47,3.8,1.61-.71-3.58c-.49-2.46-3.54-2.38-4.72-.64l-2.52,3.71,4.46,2.72a6.33,6.33,0,0,1,2.5-3.31l-3.8-3c.48-1.29-10.27-4.45-11.56-4.9-3.16-1.1-4.52,4.09-1.37,5.19,4.4,1.54,15.3,8.23,17.92,1.14.79-2.13-2-4.36-3.8-3a12.58,12.58,0,0,0-4.36,5.24c-1.42,3.14,2.53,5.55,4.46,2.72l2.52-3.71-4.72-.64.71,3.58a2.57,2.57,0,0,0,3.8,1.61l4.74-3.47-3.89-2.32a19.33,19.33,0,0,1-1.64,6.24l4.72.64q3.74-.45,2.23,1.8l1.8-1.88c-1.87.63-7.41-2.17-9.28-2.88-3.6-1.37-7.14-2.9-10.72-4.29-6.8-2.65-13.63-4.66-20.93-4.86-2.68-.07-3.36,3.61-1.3,5,12.74,8.67,27.69,11.43,42.46,13.84,3.2.52,4.68-4.37,1.37-5.19-14.8-3.64-29.62-7.16-44.74-9-2.92-.36-3.46,4.56-.69,5.28A315.19,315.19,0,0,1,150,168.13l1.37-5.19A276.46,276.46,0,0,1,108.64,152l-1.37,5.19a354.23,354.23,0,0,1,42.39,14.22l1.37-5.19a393,393,0,0,1-44.35-12.28c-2.49-.85-4.3,2.66-2.51,4.5,8.89,9.13,21,11.6,33,12.65,6.34.55,10.48.65,15.48-3.67a29.79,29.79,0,0,0,9.21-12.94c1.07-3.11-3.11-4.31-4.72-2.07l-6.66,9.24,4.46,2.72,4.24-9.16c1.43-3.09-2.92-5.81-4.46-2.72L147,168a2.61,2.61,0,0,0,4.46,2.72,18.51,18.51,0,0,0,3-7.61c.24-1.73-.18-3.5,0-5.17.5-4.18,3.1-6.29,7.21-4.33l-1.19-3c-1,5.36-2.92,11.81-7.25,15.28-4,3.21-9.51,2.85-14.24,4.13-2,.54-2.69,3.93-.62,4.92l1.59.76,2-4.92c-6.57-1-12-4.86-17.8-8-5.56-3-11.25-5.71-17-8.22-2.71-1.18-4.55,3.51-2,4.92,6.14,3.37,12.33,6.76,18.9,9.14s13.36,2.8,20,4.7c5.42,1.56,10.5,2.83,15.27-1.12s6.2-10.82,9.13-16.26l-4.72-2.07a70,70,0,0,1-4.21,14.72l4.72,2.07c.83-4.65-.29-13.26,5.19-15L166.12,153c0,2.82.11,5.69-1,8.31-1.36,3.2-4.32,4.8-7.26,6.16-4.58,2.11-9.32,3.49-13.5,6.47a2.8,2.8,0,0,0-.93,3.68c1.24,2,2.56,2.85,4.88,2.79V175c-7,.47-14.18-4.55-20.41-7.52l-18-8.62c-3-1.42-5.58,3-2.61,4.65,5.77,3.28,9.87,8.83,15.52,12.27,5.92,3.6,12.34,3.1,18.92,2.45,6.36-.62,14.38,0,20.36-2.57s9.44-9.56,11.67-15.3c1-2.48-2.71-4.61-4.32-2.62q-6.43,8-12.44,16.29l4.46,2.72c3.87-7.3,13.22-13.25,9.56-22.84l-3.8,3c1.41,1,2.82,2.22,4.29,3.17,2.12,1.38,2.54.56,1.74,2.65-1,2.61-3.54,5.23-5.49,7.09-5.91,5.62-14.07,7.06-21.78,7.83-7.94.79-14-1.74-20.66-5.89-6.1-3.79-12.13-7.65-17.3-12.76-2.19-2.16-5.34.55-4.06,3.26A32.87,32.87,0,0,0,119.2,178c2.48,1.24,5.45-2,3.13-4.22-5.07-4.75-12.17-5.77-17.16-10.53l-2.51,4.5c3.4,1.17,5.61,4.33,8.82,5.89,2.09,1,4.39,1.23,6.44,2.4a45,45,0,0,1,4,3.1,29.27,29.27,0,0,0,20.79,5.61A77.09,77.09,0,0,0,154,182.15c3.88-1.06,7.9-1.44,11.76-2.51,6.72-1.86,10.12-6.76,13.14-13L174.44,164a89.5,89.5,0,0,1-6.7,11.68l4.72.64c-1.48-5.86,3.89-12.59,7-17.11H175l1.67,2.63,4.06-3.26-3.21-2.8c-1.6-1.4-4.5-.61-4.41,1.9.22,6,5.78,10.87.84,16.47l4.41,1.9a30.27,30.27,0,0,1,5.42-15.22l-4.72-.64a24.69,24.69,0,0,1-.11,14.1c-.83,2.85,3.51,4.9,4.72,2.07,1.8-4.21,4.28-8.56,5.54-13,.7-2.44.56-4.25-1.39-5.94-6.09-5.3-16.19-8.26-23.69-10.4a225.41,225.41,0,0,0-28.54-5.88c-8.79-1.31-17.61-1.61-26,1.88l2.92,4,1-1.72-4.72-.64c.56,3.51-2.86,8-4.46,10.91-1.9,3.5-3.94,6.91-6.05,10.27l4.46,2.72a65,65,0,0,0,4.84-11c1.13-3.79.83-8.1,2.68-11.61,1.38-2.62-2-5.53-4.06-3.26a41,41,0,0,0-9.39,17c-.81,2.93,3.25,4.72,4.72,2.07l4.5-8.11-4.72-2.07a26.72,26.72,0,0,1-6.17,11.34l4.41,1.9a24.73,24.73,0,0,1,.65-9.37c.68-2.59-2.49-4.51-4.32-2.62-2.31,2.4-4.54,5.38-3.72,9,.86,3.76,5,6.47,7.71,8.79a53.6,53.6,0,0,0,10.23,7.24c4.38,2.25,9.2,3.28,13.24,6.24l2.61-4.65-4.5-2.88.93,3.68c-1,1.53,2.86,3.25,4,4.11l6,4.35,2-4.92a16.51,16.51,0,0,1-6.39-3.55l-2.51,4.5c17.43,5.15,35.27,1.59,52.6-2.23l-1.37-5.19c-5.57,1.71-11.24,1.85-17,1.86l1.3,5c10.07-5,22.09-1.92,30.73-10.47,2.13-2.11-.61-5.79-3.13-4.22q-3.23-2.35-1.58-5a6.08,6.08,0,0,1,1.51-2.61l-4.72-.64A50.93,50.93,0,0,1,185,173.59c-.06,2.9,3.39,3.34,4.81,1.36a5.31,5.31,0,0,0,.95-4,28.89,28.89,0,0,1-.48-3.08c0-1.66.54-1.64.79-3.22.61-3.88-.19-7.2-3.08-9.89-1.47-1.36-4.73-.6-4.41,1.9a7.12,7.12,0,0,0,1,3.23l4.46-2.72-2.31-3.2-4.06,3.26c2.32,2.86,2.66,6.76,4.53,9.89,1.67,2.81,4.25,4.78,6.76,6.71v-4.65a122.2,122.2,0,0,0-16,14.12,2.7,2.7,0,0,0,2.51,4.5,33.32,33.32,0,0,0,10.28-4.37c2.34-1.48,1.14-4.74-1.3-5a8.42,8.42,0,0,0-4.67.69c-3,1.29-2,6,1.37,5.19a46.71,46.71,0,0,0,12.49-5,2.78,2.78,0,0,0,.52-4.22l-.58-.53.66,2.62c.27-1.76.77-2.57.47-4.37a2.57,2.57,0,0,0-3.8-1.61c-16.59,10.67-37.5,14-56.7,15.17a19.91,19.91,0,0,1-13.93-3.94c-3.26-2.32-5.81-2-9.28-3.1-4.61-1.5-9.27-6.18-13.26-9l-13.65-9.7c-2-1.4-4.28.9-3.8,3l1,4.53c.35,1.57,2.46,2.62,3.8,1.61a11.33,11.33,0,0,0,2.16-16.28v3.8a20.86,20.86,0,0,1,6.29-4.16l-3.89-2.32-.09,1.83a2.66,2.66,0,0,0,2.58,2.69A8.94,8.94,0,0,0,102,154c2.54-1.53.85-5.71-2-4.92l-4.28,1.19,1.37,5.19a23.55,23.55,0,0,0,10.28-6,2.73,2.73,0,0,0-1.83-4.59l-7.28.12,1.83,4.59a26,26,0,0,1,6.5-4.9l-3.89-2.32c0,4.08-8.21,9-10.87,11.38l-11.38,10A2.77,2.77,0,0,0,81,168c7.18,3.81,17.58,7.31,22.58,14.22,2,2.72,6.45.08,4.46-2.72-.49-.68-6.15-5.17-6.28-4.44l-3.18,1.88c8.23,3,13.69,10.91,21.79,14.38,2,.84,3.54-1.54,3.18-3.31l-.86-4.28-4.32,2.62c8.94,11,27.53,9,39.71,7.19,16.86-2.51,31.45-9.86,45.93-18.82a2.78,2.78,0,0,0,0-4.65c-7.58-5-13-12.65-20-18.42a35.85,35.85,0,0,0-22.86-8.35v5.38a9.85,9.85,0,0,1,6.21,1.81l1.3-5c-10.31-.44-20.1-5.56-30.42-6.8-10.72-1.28-21.54-.67-32.28-.05-3.31.19-3.33,5.57,0,5.38Z"/><path class="cls-11" d="M119.28,146.82c3.75,3.19,7.54,2.57,11.84.71l-2.51-.69.32.4-.66-2.62c-1.37,6.78,2.11,6.9,7.37,9.22a2.62,2.62,0,0,0,3.54-1l3.28-1.92c2.7-.38,2.2-4.47,0-5.19a21.1,21.1,0,0,0-6.53-1c-3.33,0-3.33,5.33,0,5.38q10.62.17,21.24.6,5.05.21,10.11.48c3.47.19,8.92-.9,8.32,4.43-.38,3.43,4.79,3.4,5.17,0,1-9.27-5.37-9.36-12.48-9.76q-16.17-.9-32.36-1.14v5.38a16.55,16.55,0,0,1,5.15.86v-5.19c-3,.42-4.73,1.82-6.36,4.39l3.54-1c-1.15-.51-2.38-.72-3.5-1.21l-1.9-.61a2.82,2.82,0,0,0,.33-1c-.45-1.31.16-2-.92-3.36a2.43,2.43,0,0,0-2.51-.69c-1.91.83-4.8,2.38-6.81.67-2.55-2.17-6.23,1.61-3.65,3.8Z"/><path class="cls-14" d="M130.93,128.09l3.93,11c.29.8,1.54.46,1.25-.36l-3.93-11c-.29-.8-1.54-.46-1.25.36Z"/><path class="cls-14" d="M141.92,119.94c1.32,5.79,4.93,14.33,2.6,20.07-.32.8.93,1.14,1.25.36,1.13-2.8.83-5.5.22-8.41-.87-4.14-1.88-8.25-2.82-12.38-.19-.84-1.44-.49-1.25.36Z"/><path class="cls-14" d="M153.51,124.3a52.91,52.91,0,0,1,1.55,17.76c-.07.86,1.23.86,1.29,0a54,54,0,0,0-1.6-18.12.65.65,0,0,0-1.25.36Z"/><path class="cls-14" d="M167.09,128.06a26.5,26.5,0,0,1-.81,15.57c-.29.81,1,1.16,1.25.36a27.82,27.82,0,0,0,.81-16.29.65.65,0,1,0-1.25.36Z"/><path class="cls-14" d="M178.92,129.85a25.53,25.53,0,0,1-.08,16.56c-.27.82,1,1.17,1.25.36a26.77,26.77,0,0,0,.08-17.27c-.27-.81-1.52-.46-1.25.36Z"/><path class="cls-14" d="M192.25,135.81a94.12,94.12,0,0,1-3.43,17.92.65.65,0,0,0,1.25.36,96,96,0,0,0,3.48-18.28c.08-.86-1.21-.86-1.29,0Z"/><path class="cls-14" d="M200.46,143.17a46.64,46.64,0,0,1-1.28,21.92.65.65,0,0,0,1.25.36,48.2,48.2,0,0,0,1.28-22.64c-.15-.85-1.4-.49-1.25.36Z"/><path class="cls-14" d="M133.33,126.46a52.45,52.45,0,0,0,20.78-1.75c.8-.23.46-1.53-.34-1.3a51.64,51.64,0,0,1-20.44,1.7c-.82-.1-.82,1.25,0,1.34Z"/><path class="cls-14" d="M125.1,133.35c8.57,1.84,17.59,1.48,26.29,1,7.68-.38,15.18-1.52,22.24-4.86.76-.36.1-1.52-.65-1.16-7.38,3.49-15.33,4.45-23.36,4.75s-16.27.63-24.17-1.07c-.81-.17-1.16,1.12-.34,1.3Z"/><path class="cls-14" d="M149.71,140.8c6.27,2.11,12.86.24,19.17-.84,6.87-1.18,14.09-1.64,20-5.81.68-.48,0-1.65-.65-1.16-5.28,3.73-11.6,4.29-17.75,5.35-6.62,1.14-13.83,3.38-20.42,1.17-.79-.27-1.13,1-.34,1.3Z"/><path class="cls-14" d="M181.93,148.8A142.74,142.74,0,0,0,204.19,146c.81-.17.47-1.47-.34-1.3a140.63,140.63,0,0,1-21.91,2.81c-.83,0-.83,1.39,0,1.34Z"/><path class="cls-14" d="M187.47,153.65a38.68,38.68,0,0,0,22.7,2.28c.82-.16.47-1.46-.34-1.3a37.52,37.52,0,0,1-22-2.28c-.77-.32-1.11,1-.34,1.3Z"/><path class="cls-18" d="M112.64,139.48c-1.24,3.48-2.14,7.71-4,10.87-1.71,2.85-4.89,4.73-7,7.31a30.28,30.28,0,0,0-6.08,13.7c-.15.85,1.09,1.21,1.25.36,1.34-7.34,4.87-12.73,10.18-17.58,4-3.65,5.1-9.26,6.89-14.31.29-.81-1-1.16-1.25-.36Z"/><path class="cls-18" d="M110,148.68c5.16,11,11.55,24.22,5.91,36.31-.36.78.75,1.46,1.12.68,5.89-12.61-.5-26.14-5.91-37.67-.36-.78-1.48-.1-1.12.68Z"/><path class="cls-18" d="M107.75,163.1a73,73,0,0,0-3.13,10.52c-.18.84,1.06,1.2,1.25.36A73,73,0,0,1,109,163.46c.31-.8-.94-1.15-1.25-.36Z"/><path class="cls-18" d="M113.48,141.74c3.9,6,9,11.13,12.72,17.27,5.07,8.32,4.83,17.13,3.87,26.56-.09.86,1.2.85,1.29,0,.85-8.39,1.37-16.7-2.46-24.41-3.7-7.43-9.85-13.21-14.31-20.1-.46-.71-1.58,0-1.12.68Z"/><path class="cls-18" d="M113.12,141a50,50,0,0,0,30.1,8.71c4.28-.16,8.16-.34,11,3.74a39.22,39.22,0,0,1,3.64,7.58,87.68,87.68,0,0,1,5.45,20.23c.13.85,1.37.49,1.25-.36a89,89,0,0,0-5.5-20.4c-1.7-4.16-3.63-9.79-8-11.61s-10.14-.23-14.79-.69a48.75,48.75,0,0,1-22.46-8.37c-.7-.47-1.35.69-.65,1.16Z"/><path class="cls-18" d="M170.87,145.76a42.16,42.16,0,0,0,1.48,25.93c.3.8,1.55.45,1.25-.36a40.83,40.83,0,0,1-1.48-25.22.65.65,0,0,0-1.25-.36Z"/><path class="cls-18" d="M178.58,146.91a40,40,0,0,0,3,31.73c.41.75,1.53.08,1.12-.68a38.54,38.54,0,0,1-2.86-30.69.65.65,0,0,0-1.25-.36Z"/><path class="cls-18" d="M184.79,153.37A23.06,23.06,0,0,0,188.68,179c.58.62,1.49-.33.91-1a21.61,21.61,0,0,1-3.69-24c.36-.77-.75-1.46-1.12-.68Z"/><path class="cls-18" d="M189.63,157.89a19.57,19.57,0,0,0,5.71,18.93c.62.57,1.54-.38.91-1a18.15,18.15,0,0,1-5.38-17.62c.19-.84-1.05-1.2-1.25-.36Z"/><path class="cls-18" d="M195.47,164.53a11.54,11.54,0,0,0,4.19,8.85c.65.53,1.57-.42.91-1a10.23,10.23,0,0,1-3.81-7.9.65.65,0,1,0-1.29,0Z"/><path class="cls-14" d="M103.92,139.53c19.81.58,39.77,1,59.28,4.93,9.48,1.91,18,3.8,24.91,11.25,2.62,2.83,5,5.89,7.61,8.72s5.34,4,8.41,6c1.42.92,2.71-1.41,1.3-2.32-3.78-2.45-6.85-4.33-9.9-7.85a114.2,114.2,0,0,0-8.27-9.16c-6.51-6-15-7.54-23.37-9.22-19.75-4-39.93-4.43-60-5-1.66,0-1.66,2.64,0,2.69Z"/><path class="cls-14" d="M141.71,116.3a58.88,58.88,0,0,1-38.76,20.86c-1.63.2-1.65,2.89,0,2.69,15.67-1.88,30.24-9.1,40.59-21.65,1.08-1.31-.74-3.22-1.83-1.9Z"/><path class="cls-14" d="M142,118.21c12.66,9.17,27.68,8.5,41.73,13.58,7,2.55,13.09,7.59,17.9,13.43a46,46,0,0,1,6.24,9.76,29.2,29.2,0,0,1,1.9,5.26,17.65,17.65,0,0,1,.61,5.41q-.06,4.56-4,3.42c-.83-1.5-3.06-.15-2.23,1.36,3.11,5.64,8.59-.25,8.8-4.78.43-9.24-5.71-18.37-11.58-24.72a45.1,45.1,0,0,0-24.15-13.67c-11.78-2.67-23.77-4-33.93-11.39-1.37-1-2.66,1.34-1.3,2.32Z"/><path class="cls-14" d="M102.8,138.74,83.26,158.92c-3.13,3.23-8,6.43-3.47,10.16,3.45,2.81,8,4.74,11.86,7l11.86,7c7.3,4.31,14.64,9,22.84,11.22,14.53,3.91,32,1.1,46.43-2.41,13.75-3.34,27-9.39,36.86-20.17,1.15-1.25-.68-3.16-1.83-1.9-9,9.82-20.85,15.53-33.34,18.87-13.42,3.59-29.06,6-42.87,3.93-14.83-2.2-28.43-12.82-41.21-20.37-1.73-1-8.72-3.79-9.32-5.5-.9-2.57,5-7,6.78-8.82l16.75-17.3c1.18-1.22-.64-3.12-1.83-1.9Z"/><path class="cls-19" d="M171.95,135.16c15.46-.59,24.1,14.62,32.69,25.56a2.56,2.56,0,0,0,4.32-1.19c.67-4.11-2.19-7.15-4.38-10.39a58.78,58.78,0,0,0-9.78-11.61c-6.73-5.85-15.06-9-23.8-7.27-3.26.64-1.88,5.82,1.37,5.19,7.41-1.44,14.61,1.92,20,7a52.25,52.25,0,0,1,6.74,8c.89,1.27,5.1,6,4.83,7.65l4.32-1.19c-9.61-12.23-19.18-27.78-36.34-27.13-3.32.13-3.33,5.51,0,5.38Z"/><path class="cls-6" d="M91.67,185.85c25,6.3,50.48,12.5,76.29,9l-.69-5.28c-9.42,2.46-20.37,1.45-30,.76a196,196,0,0,1-31-4.82c-3.24-.76-4.58,4.21-1.37,5.19,16.18,5,33,6.15,49.76,7.18,3.33.21,3.3-5.15,0-5.38l-39.16-2.75v5.38l76-7.35-1.3-5c-5.26,2.41-11.93,2.28-17.57,3l-16.8,2a2.7,2.7,0,0,0,0,5.38c6.65.65,13.43-.78,20-1.61l21.4-2.69c2.59-.32,3.85-4.78.69-5.28a35,35,0,0,0-11.91.09l2.92,4a5.09,5.09,0,0,1,5.13-2.29l-.69-5.28c-17,3.2-33.6,7.18-51,5.57-8.54-.79-17-2.21-25.6-2.67s-16.33.72-24.55-2.43l-.69,5.28a436.4,436.4,0,0,0,54.06,3.06q13-.09,26.06-1c8.24-.55,17.93-.2,25.7-3.34a2.72,2.72,0,0,0-.69-5.28c-14.59-1.48-28.31,4.19-42.6,6-15,1.9-30.22.27-45.19-1.3-3.31-.35-3.28,5,0,5.38,15,1.57,30.15,3.13,45.19,1.3,14.28-1.74,28.06-7.48,42.6-6l-.69-5.28c-7.87,3.18-18,2.75-26.33,3.28q-13,.82-26.07.84a438.31,438.31,0,0,1-52.05-3.06c-3.08-.36-3.23,4.31-.69,5.28,8.12,3.11,15.49,2.24,23.95,2.54,9.24.32,18.38,1.91,27.58,2.76,17.82,1.63,34.89-2.49,52.33-5.77,3-.56,2.12-5.19-.69-5.28-4.14-.14-7.11,1.59-9.59,5-1.54,2.08,1,4.29,2.92,4a26.88,26.88,0,0,1,9.16-.09l.69-5.28-21.4,2.69c-6.59.83-13.37,2.25-20,1.61v5.38l20.75-2.46c5.5-.66,11.11-.86,16.23-3.22,2.32-1.06,1.18-5.25-1.3-5l-76,7.35c-3.29.32-3.35,5.14,0,5.38l39.16,2.75v-5.38c-16.31-1-32.63-2.17-48.38-7l-1.37,5.19a204.78,204.78,0,0,0,32.35,5c10.15.73,21.41,1.65,31.37-1,2.74-.72,2.26-5.68-.69-5.28-25.39,3.42-50.37-2.63-74.92-8.83-3.23-.82-4.61,4.37-1.37,5.19Z"/><path class="cls-7" d="M69.51,137.37c1.28.64,3.48,1.56,4.33,2.74,2.2,3-.68,5.89-2.2,7.89q-3.65,4.82-7.32,9.62l4.32,2.62,8.07-25-4.32,1.19c2.18,2.55.1,5.76-1.37,7.8l4.81,1.36,1-2.32a2.77,2.77,0,0,0,.4-3.26l-1.67-2.29a2.59,2.59,0,0,0-4.72.64,136.22,136.22,0,0,1-10.89,23l4.46,2.72a69,69,0,0,1,3.22,6.14c1,2.44,2,4.94,3.08,7.33a17.31,17.31,0,0,0,7,8.09c6.91,4.05,16.48,6.86,24.37,6,4.92-.52,9.63-2.46,14.63-2.23s9.56,2.12,14.25,3.41a78.73,78.73,0,0,0,28.87,2.57,23.76,23.76,0,0,0,9.77-2.82c4-2.36,7.13-5.5,11.62-7.1,8-2.85,16.62-2.55,24.52-5.62,14.23-5.53,22-20.42,24.61-35.27.32-1.86-1.16-4-3.18-3.31-7.78,2.79-15.75,5.76-22.34,11a34.67,34.67,0,0,0-7.76,8.56c-2.52,4-4.27,9.67-9,11.29l2,4.92,34.89-24.38c2.77-1.94.38-6.18-2.61-4.65-8.18,4.19-16.36,8.29-25.05,11.23l2,4.92a55.5,55.5,0,0,1,23.52-7.48l-1.83-4.59a46.49,46.49,0,0,1-11.44,7.37c-2.33,1.07-1.18,5.23,1.3,5l2.24-.19-2.23-4a41.24,41.24,0,0,1-3.82,5.34c-1.69,2-.08,5.15,2.51,4.5a27.07,27.07,0,0,0,8.75-3.91l-3.13-4.22-.34,2.22v-2.72a38.07,38.07,0,0,1-24.49,16.23l2.51,4.5a67,67,0,0,1,14.4-10.24c2.31-1.23,1.19-5.06-1.3-5a27.08,27.08,0,0,0-8.83,1.6l1.37,5.19,3.69-1.5-2-4.92c-12,6.23-23.9,13.24-36.42,18.31A54.71,54.71,0,0,1,145.8,190c-6.5.29-12.68-1.45-18.94-3-12.07-3.07-24.35-2.19-35.63-8.32-5.68-3.09-8.58-7-10.74-13.18-1.46-4.21-2.93-8.12-6-11.37a2.53,2.53,0,0,0-3.13-.42c-7.05,5.62-1.18,13.8,2.22,19.8,3.8,6.71,8.06,15,16.58,15,2.41,0,3.72-3.84,1.3-5a18,18,0,0,1-9.56-10.62l-3.18,3.31c10.69,3.65,22.67,9.87,34.14,8.7,3.47-.35,6.35-.9,9.8.33,2.77,1,5.28,2.47,8.12,3.28a48.93,48.93,0,0,0,16.33,1.44c20.29-1.2,39.5-10.48,53.81-25.42a2.67,2.67,0,0,0-3.13-4.22c-9.76,5.42-19.5,10.87-29.28,16.25s-20.43,10.89-31.81,8.88l-.69,5.28c18-1.6,36.39-3.74,51.06-15.71a97.14,97.14,0,0,0,10.37-10.07c3.13-3.44,6-8,9.73-10.79,3.38-2.54,7.84-3,11.33-5.7a34.51,34.51,0,0,0,4.35-4.12c2.26-2.49,2.87-.78,3.87,2,.83,2.3,4.37,2.8,5,0l1.4-6.41-5.08-.72a23.8,23.8,0,0,1-7.46,16.07l4.06,3.26c2-4.48,3.83-9,5.42-13.66,1-2.89,2.68-6.44,1-9.4-3.11-5.64-9.37-1.87-12.24,1.69l4.41,1.9,2-2.07q3.2.39,3.15,2.92a6.69,6.69,0,0,1-1.18,4.44l4.72.64c-.83-6.34-6.83-9.13-12.17-6.48-6.73,3.34-12,9.14-16.75,14.89-5.94,7.12-13.49,12.06-21.07,17.06-7.77,5.13-15.82,9.9-24.87,12.06-18.46,4.41-38.08-1-56.62-2.37-5.23-.38-10.24-1.13-14-5.39-2.61-3-4.38-7-6-10.57-2.57-5.58-3.86-10.08-2.67-16.2.79-4.08,1.79-7.44.27-11.47a2.68,2.68,0,0,0-3.18-1.88,11.34,11.34,0,0,0-6.32,3.13l4.06.54a3.8,3.8,0,0,1,2.1-4.15q2.4-2,4.55.81l4.06.54a6.28,6.28,0,0,0-5.56-3.39c-1.91-.17-3.29,2.43-2.23,4,2.2,3.37-.27,8.13-.65,11.74a27.78,27.78,0,0,0,1,10.17c1.65,6,4.63,12.74,8.55,17.52,4.09,5,10,6.5,15.82,8.09a89.12,89.12,0,0,0,11.37,2.45c3.37.45,6.93.27,10.22,1.2s6.13,2.5,9.5,3a41.67,41.67,0,0,0,9.68,0,97.68,97.68,0,0,0,20.78-4.06,102.91,102.91,0,0,0,35.6-19.75c2.59-2.18-1.09-6-3.65-3.8a96.41,96.41,0,0,1-34.14,18.62A90.73,90.73,0,0,1,141,184.94c-3.65.31-7.4.55-11-.38-2.9-.75-5.53-2.25-8.48-2.85-11.26-2.26-28-.79-35-12.3-3.89-6.4-7.61-14.57-6.38-22.31.77-4.85,2.74-9.22-.19-13.7l-2.23,4,1.1.73a2.57,2.57,0,0,0,4.06.54c5.23-4.59-.09-11.51-5.77-11-6.37.53-11.6,6.86-9,13.28.7,1.72,3,1.53,4.06.54a5.87,5.87,0,0,1,4-1.75l-3.18-1.88c1.82,4.82-1.14,9.76-1.13,14.71a28.54,28.54,0,0,0,2.48,10.67c2.72,6.65,6.21,14.71,12.35,18.66,6.46,4.16,14.8,3.45,22.07,4.19,9.67,1,19.28,2.69,29,3.14,9.06.41,18.24-.33,26.84-3.53,7.63-2.84,14.6-7.2,21.4-11.73s13.92-9.16,19.45-15.53c2.81-3.24,20-23,21.42-12.14.32,2.46,3.66,2.38,4.72.64,2.89-4.71,2.85-12.42-2.86-14.92-5-2.17-10.39,1.51-10.7,6.92-.13,2.24,3,3.67,4.41,1.9.77-1,2.31-3.67,3.81-1.33.36.56-1.37,4.17-1.58,4.76-1.36,3.88-2.9,7.68-4.57,11.43-1.2,2.7,1.81,5.43,4.06,3.26a29.31,29.31,0,0,0,9-19.87c.19-3-4.43-3.66-5.08-.72l-1.4,6.41h5c-2.29-6.38-6.18-11-12-5a30.84,30.84,0,0,1-6.08,5.45c-2.16,1.3-4.47,1.71-6.72,2.7-4.51,2-7.51,6.69-10.72,10.34-7.76,8.81-16,16.72-27,20.87-10.63,4-22,5.07-33.21,6.06-2.68.24-3.77,4.74-.69,5.28,11,1.94,21.11-1.73,30.85-6.77,11.55-6,22.83-12.59,34.22-18.91l-3.13-4.22c-14.16,14.77-33.63,23.87-53.79,24a41.4,41.4,0,0,1-17.3-3.71,21.54,21.54,0,0,0-12.41-1.58c-11.28,1.37-23.14-4.78-33.69-8.38a2.66,2.66,0,0,0-3.18,3.31A23.28,23.28,0,0,0,88.85,188.1l1.3-5c-5.27,0-8.21-5.48-10.59-9.64-1.46-2.55-8.9-12.52-5.6-15.14l-3.13-.42C74.77,162,75.4,168,77.92,173.06c2.34,4.69,6.28,7.81,10.71,10.21,12.28,6.67,25.49,5.92,38.63,9.32,12.92,3.34,24.37,3.46,37-1.49,13.27-5.21,25.84-12.62,38.52-19.2,2.58-1.34.76-6-2-4.92l-3.69,1.5c-3,1.23-1.82,6.33,1.37,5.19a22.84,22.84,0,0,1,7.46-1.4l-1.3-5a72.13,72.13,0,0,0-15.45,11.08c-2.07,1.93.18,5,2.51,4.5a43.2,43.2,0,0,0,27.58-18.7,2.71,2.71,0,0,0,0-2.72c-2-3-7.36-3.21-7.85,1.31-.47,4.33,4.92,5.81,7.38,3,1.89-2.17-.56-6-3.13-4.22a23.12,23.12,0,0,1-7.51,3.37l2.51,4.5a49.68,49.68,0,0,0,4.62-6.43c1-1.64-.28-4.22-2.23-4l-2.24.19,1.3,5a51.37,51.37,0,0,0,12.49-8.21c1.67-1.46.35-4.77-1.83-4.59a61.62,61.62,0,0,0-26.13,8.22c-2.52,1.46-.83,5.87,2,4.92,9.11-3.07,17.71-7.37,26.29-11.77L222.29,148,187.4,172.4c-2.31,1.61-.94,5.91,2,4.92,7.81-2.66,9.49-11.2,14.53-17,6.36-7.33,15.87-10.75,24.59-13.87l-3.18-3.31c-1.46,8.41-4.39,16.73-9.86,23.23-6,7.15-13.81,9.6-22.56,11.08-7.35,1.25-14.66,2.41-21,6.84-4.31,3-7.61,5.29-13,5.79a73.89,73.89,0,0,1-13.79,0c-9.7-.92-18.84-5.6-28.52-6-4-.17-7.79.94-11.68,1.69a30.42,30.42,0,0,1-15.65-1.21c-5.14-1.63-10.65-3.14-13.52-8.25-2.23-4-3.4-8.58-5.39-12.68s-7.87-8.48-10.51-2.22c-1.31,3.1,2.67,5.74,4.46,2.72a143.61,143.61,0,0,0,11.41-24.32l-4.72.64,1.67,2.29.4-3.26a7.07,7.07,0,0,0-2.49,6.13,2.59,2.59,0,0,0,4.81,1.36c3.17-4.41,4.3-9.95.56-14.32-1.37-1.6-3.74-.62-4.32,1.19l-8.07,25c-.79,2.44,2.7,4.74,4.32,2.62,2.64-3.47,5.3-6.94,7.93-10.43,1.59-2.11,3.43-4.29,4-7,1.1-5.66-3.44-9.12-7.75-11.27-3-1.49-5.61,3.15-2.61,4.65Z"/></svg>