<svg xmlns="http://www.w3.org/2000/svg" width="41.831" height="41.831" viewBox="0 0 41.831 41.831">
  <path id="Icon_ionic-ios-arrow-dropleft-circle" data-name="Icon ionic-ios-arrow-dropleft-circle" d="M24.29,3.375A20.916,20.916,0,1,0,45.206,24.291,20.912,20.912,0,0,0,24.29,3.375Zm4.364,29.071a1.948,1.948,0,0,1,0,2.745,1.917,1.917,0,0,1-1.368.563,1.951,1.951,0,0,1-1.378-.573L16.457,25.7a1.938,1.938,0,0,1,.06-2.675L26.111,13.4a1.941,1.941,0,1,1,2.745,2.745L20.62,24.291Z" transform="translate(-3.375 -3.375)" fill="#afaeae"/>
</svg>
