<svg xmlns="http://www.w3.org/2000/svg" width="300.167" height="225.379" viewBox="0 0 300.167 225.379">
  <g id="Group_515" data-name="Group 515" transform="translate(-1236.083 -1156)">
    <g id="Path_1882" data-name="Path 1882" transform="translate(1264 1156)" fill="#e3d6b3">
      <path d="M 243.5 141.5 L 0.5 141.5 L 0.5 0.5 L 243.5 0.5 L 243.5 141.5 Z" stroke="none"/>
      <path d="M 1 1 L 1 141 L 243 141 L 243 1 L 1 1 M 0 0 L 244 0 L 244 142 L 0 142 L 0 0 Z" stroke="none" fill="#e3d6b3"/>
    </g>
    <g id="Path_1880" data-name="Path 1880" transform="matrix(0.788, -0.616, 0.616, 0.788, 1228.765, 1322.415)" fill="#e3d6b3">
      <path d="M 135.3013000488281 74.12104034423828 L 9.946330070495605 45.67495346069336 L 44.64596176147461 0.9865310192108154 L 135.3013000488281 74.12104034423828 Z" stroke="none"/>
      <path d="M 44.72848510742188 1.695518493652344 L 10.82301330566406 45.36118316650391 L 133.3090515136719 73.15624237060547 L 44.72848510742188 1.695518493652344 M 44.56345367431641 0.2775421142578125 L 137.2935638427734 75.08584594726563 L 9.069671630859375 45.98872756958008 L 44.56345367431641 0.2775421142578125 Z" stroke="none" fill="#e3d6b3"/>
    </g>
    <g id="Path_1881" data-name="Path 1881" transform="matrix(-0.788, -0.616, 0.616, -0.788, 1490.451, 1378.213)" fill="#e3d6b3">
      <path d="M 35.93170928955078 73.69258117675781 L 0.878922700881958 29.67019844055176 L 135.4006500244141 -2.977691650390625 L 35.93170928955078 73.69258117675781 Z" stroke="none"/>
      <path d="M 36.01628112792969 72.99610900878906 L 133.2309875488281 -1.936611175537109 L 1.757886171340942 29.97138786315918 L 36.01628112792969 72.99610900878906 M 35.84714126586914 74.38906097412109 L -4.082696978002787e-05 29.3690071105957 L 137.5703277587891 -4.018774032592773 L 35.84714126586914 74.38906097412109 Z" stroke="none" fill="#e3d6b3"/>
    </g>
  </g>
</svg>
