<svg id="圖層_1" data-name="圖層 1" xmlns="http://www.w3.org/2000/svg" viewBox="0 0 300 300"><defs><style>.cls-1{fill:#dc370f;}.cls-2{fill:#fff;}.cls-3{fill:#231815;}.cls-4{fill:#f29987;}.cls-5{fill:#993123;}</style></defs><title>seafood3</title><path class="cls-1" d="M117.3,83a62.36,62.36,0,0,1,7.5-6.34A19.37,19.37,0,0,1,134,73.09,81.64,81.64,0,0,1,145,73c1.62,0,3.23.14,4.85.28,1.47.12-.37-.14,1.06.15.91.18,1.81.38,2.7.64a8.56,8.56,0,0,1,2.49,1.11,7.87,7.87,0,0,1,2.15,2.53c1.85,3,3.08,6.41,5,9.4,1.83,2.83,4.1,5.38,5.62,8.41.42.83,0,0,0-.12.12.37.22.74.33,1.11.24.89,0,0,0-.18a8.82,8.82,0,0,1,0,1.36c-.08,1-.06.3,0,.13-.08.45-.2.9-.32,1.34-.27,1-.59,2.06-.92,3.08a65.72,65.72,0,0,1-4.68,11.23,88.68,88.68,0,0,1-7,11.32H170a16.71,16.71,0,0,1-2.5-10c.07-4.67,1.33-9.2,2.57-13.93.69-2.64,1.65-5.43,1.42-8.19-.28-3.46-1.92-5.85-4.12-8.41-3.15-3.68-6.19-7.69-9.86-10.87-7.79-6.76-17.58-8.43-27.58-7.14-9,1.16-19.78,2.84-26.83,9-4.36,3.81-6.25,9.52-6.15,15.2,0,2.31.4,4.6.59,6.9.08,1.07.1,2.14.12,3.21,0,1.49,0,.65.07.21,0,.31-.7,2.34-.13,1.06L112.23,108a41.88,41.88,0,0,0,1.47-8.63c.36-4.63-4-7.57-8-8-3.56-.38-6.85,2-8.46,5-1.45,2.7-1.41,5.48-1.07,8.4a161.21,161.21,0,0,0,2.75,16.52l11.76-9c.83.58-.32-.31-.57-.59-.89-1,.77,1.32-.44-.69-3.88-6.47-15.47-4.17-14.91,4a30.9,30.9,0,0,0,11.87,22.11c7.14,5.7,15.75,8.6,24.42,11.15l4.25-15.44a24.49,24.49,0,0,1-2.88-.88c1.32.5-.21-.14-.47-.27-.44-.23-.87-.48-1.3-.74s-.83-.53-1.25-.81c-1.05-.69.8.7-.17-.1a30.11,30.11,0,0,1-2.47-2.32c-.35-.37-.68-.76-1-1.14s-.66-.85-.17-.17a34.13,34.13,0,0,1-1.89-2.89c-.52-.89-1-1.81-1.44-2.73-.58-1.16.37,1-.12-.21-.24-.59-.46-1.2-.66-1.81-3.27-9.7-1.8-20.52-.16-30.42H105.86c6,16.36,5.64,34.36,14.22,49.89a8.13,8.13,0,0,0,9,3.68c3.6-1,5.54-4.17,5.87-7.72a225,225,0,0,0-2-55.84l-15.44,4.26,16.55,58.72c2.5,8.87,15.29,6.79,15.72-2.13.55-11.34,1.11-22.68,1.55-34,.43-11,1.63-22.56-1.17-33.37-1.69-6.53-11.35-8-14.63-1.91-5.94,11-3.89,23.24-1,34.83l15.43-4.25q-3.16-10.78-5.39-21.79l-9.84,9.85a29.9,29.9,0,0,1,3.1.78c.51.17,1,.34,1.51.54-.68-.29-.59-.23.28.17.71.38,1.41.75,2.1,1.17.45.28.89.57,1.33.88-.54-.46-.45-.38.28.22s1.58,1.44,2.3,2.22c.18.2,1.51,1.93.76.87a16.44,16.44,0,0,1,1.77,3c-.39-.91.33,1.17.37,1.39,0-.7,0-.55,0,.45.18-.7.14-.55-.11.44s-.38,1.11-.17.54l-.78,1.59a28.46,28.46,0,0,0-2.56,7c-.94,4.93-.33,9.79-.35,14.75a74,74,0,0,1-1.54,13.25c-1.18,6.6,1.93,13.84,9.69,13.75,5.5-.06,10.08-4.9,13.95-8.37,4.69-4.21,9.45-9.59,5.59-16.16-2.86-4.87-11.15-5.54-13.82,0a20.55,20.55,0,0,0,12,28.63A8,8,0,0,0,179,152.7a8.21,8.21,0,0,0,.62-8.89c-.4-.88-.47-1-.21-.35-.22-1-.31-1-.26-.26l-.18.71a4.84,4.84,0,0,1-4.25,2.78q-1-.21-.15,0c.4.1.79.21,1.17.34,1.16.36,2.31.75,3.46,1.12l13.35,4.32c6.64,2.15,12.62-5.93,9-11.75-4.93-8-13.56-11.37-22.65-10-3.3.5-6,4.53-5.88,7.72.18,3.84,2.46,6.3,5.88,7.72l21.05,8.7c3.21,1.33,7.41-.89,9-3.68a8.23,8.23,0,0,0-1.26-9.7,59.63,59.63,0,0,0-10.11-8.58c-3.25-2.24-8.1-.92-10.33,2.06a8,8,0,0,0,.63,10.51l8.36,8.06L202,139.86c-12-.61-24-1.35-36-1.81-5.92-.23-11.94.07-17.61,1.94-1.36.45-2.7,1-4.08,1.39a18.92,18.92,0,0,1-1.83.48c-.72.13,0-.18-.92,0,.52-.13,1,.17,0,0-1.21-.21-.2.12-.07,0-.51.32-.61-1,.15.34.22.36.65,1.79.31.32-.83-3.68-4.29-5.54-7.72-5.88-10.79-1.06-15.65,12.63-8.54,19.76l11.32-11.32a30.11,30.11,0,0,0-9.2-5.68c-2.87-1.2-6.73.61-8.42,2.87-2.06,2.76-2,5.83-.62,8.89-.61-1.33-.1.18,0,.51.13.6.21,1.22.35,1.81a14.63,14.63,0,0,0,1.92,4.53,12.8,12.8,0,0,0,9.31,5.52,24.57,24.57,0,0,0,8.9-.78c1.36-.33-.71-.25.07,0a9.74,9.74,0,0,0,1.62,0c-.62,0-1.2-.24-.31.08a4.16,4.16,0,0,1-2.86-2.94c2,5.67,8.79,7.89,13.37,3.54,1.15-1.09-.37,0,.91-.76a14.94,14.94,0,0,1,1.42-.77c-.54.24-.55.26,0,.08a9.18,9.18,0,0,1,1.17-.32c.88-.18,1.05-.21.53-.1s-.34.11.55,0a14.35,14.35,0,0,1,1.61.11c6.33.63,9.59-7.17,6.91-12a62.08,62.08,0,0,1-5.26-12.19c-.67-2.14-1.25-4.31-1.72-6.5s-.61-2.45.17-4.47l-14.62,1.92a9.27,9.27,0,0,1-.18-2.68l9.84-5.59c-.34-.05-2.19-.66-.86-.06l.44.39c-.65-.66-.69-.69-.11-.09A8,8,0,1,0,138,128.58c2.23,3.57,5.81,6.53,10.1,7.11s8.68-.94,9.84-5.59a11.76,11.76,0,0,0-1.43-9.65c-4.1-6-12.11-4.6-14.63,1.91-2.29,5.89-.47,12.75,1.26,18.56a87.5,87.5,0,0,0,7.16,16.93l6.91-12a22.52,22.52,0,0,0-17.49,6.4l13.38,3.53c-2.69-7.54-9.93-9.77-17.28-8.51-.55.09-1.08.2-1.62.31-.2,0-2.13.35-1.09.23s-1.12,0-1.1,0l.77.15q-1.16-.31-.27,0c.18.13,2.54,1.78,2.13,2.11a11.16,11.16,0,0,0-.39-1.79,21.75,21.75,0,0,0-1.72-5.06l-9,11.76c-1.06-.45,1.12.73,1.1.72,1.2.72-.08-.18,1,.84a8,8,0,0,0,11.32-11.32c1.73,1.73,1.1,4-.18,5.59a2.24,2.24,0,0,1-2.16,1.64c-1.31.2-1.45.31-.44.34l-7.71-5.88c1.6,7.06,8.83,11.24,15.74,11.06,3.65-.09,7-1.35,10.39-2.48A25.1,25.1,0,0,1,161,154c6.57-.15,13.2.47,19.77.81L202,155.87c7,.35,10.52-9,5.66-13.66l-8.36-8.06-9.7,12.57a41.82,41.82,0,0,1,6.87,6.08l7.79-13.38-21-8.7v15.44c-2.09.31,2.36.37.27,0,.39.06,3,1,1.68.4.4.19,2.45,1.8,1.5.89a12,12,0,0,1,1.05,1.09c-.48-.62-.46-.54.06.23l9-11.75-10.87-3.52c-3.7-1.2-7.64-3-11.59-2.79a11.59,11.59,0,0,0-10.71,8.58c-1.14,4.52.2,8.53,2.17,12.58l9-11.76c-1.72-.54.92.67-.47-.21s.63.9-.43-.29c-.47-.53-1.16-1.48-.43-.36-.14-.2-1.26-2.28-.85-1.33s-.24-1.1-.32-1.21c-.13-.59-.13-.41,0,.53a7.77,7.77,0,0,1-.06-1c0-.32,0-.64,0-1-.17,1-.2,1.13-.08.53.16-.32,1-2.56.16-.83H158.53l.34.58-1.1-4q2.46-4.6.45-2.37l-1.38,1.31c-.81.75-1.64,1.49-2.47,2.22s-1.68,1.45-2.54,2.15c-.49.4-1,.8-1.48,1.19a3.14,3.14,0,0,1,3.52-.5l3.53,2.06q1.31,5.63,1.34,3.24c0-.61,0-.45-.06.47a21.5,21.5,0,0,0,.52-2.51c.42-2.21.73-4.45,1-6.68a71.61,71.61,0,0,0,.4-11.15c-.06-1.53-.16-3.07-.17-4.6,0-.91,0-1.84.09-2.74-.1,1,.15-.72.22-1,.61-2.37,2.87-5.72,3.51-9.06,2.81-14.78-11.83-27.81-25.15-30.5a8.12,8.12,0,0,0-9.84,9.85q2.2,11,5.39,21.78a8,8,0,0,0,15.43-4.25,72.6,72.6,0,0,1-2.32-12.13c-.07-1.18-.1-2.37-.06-3.55,0-.24.19-2.6,0-1.35a27.92,27.92,0,0,1,.79-3.37c.35-.91.39-1.09.12-.53.25-.53.52-1.06.81-1.57l-14.63-1.91c2.35,9.07.94,20.32.55,30.17-.44,11-1,22-1.5,33l15.72-2.13L133,78.35a8.14,8.14,0,0,0-9.85-5.59c-4.56,1.25-6.26,5.56-5.59,9.85a210.69,210.69,0,0,1,1.4,51.58l14.91-4c-3.5-6.34-5.34-14.26-6.85-22.12-1.55-8.08-2.89-16.21-5.75-24-1.19-3.21-4-6-7.72-5.87-3.27.14-7.14,2.35-7.72,5.87-2.18,13.17-4.25,27.55.69,40.39,4.27,11.1,12.58,20.82,24.5,23.8,4,1,8.87-1.31,9.84-5.59a8.17,8.17,0,0,0-5.59-9.85c-6.66-2-12-3.63-17.64-7.31-1-.68-.12,0-.67-.5s-1-.9-1.54-1.38-1.15-1.19-1.69-1.81c-1-1.09.06.35-.73-1-.34-.59-.72-1.16-1-1.76-.19-.35-.74-1.67-.36-.66-.29-.77-.48-1.54-.7-2.32-.46-1.58,0,.71-.16-1.08l-14.92,4a22.62,22.62,0,0,0,6.75,7c2.58,1.79,6.58,1.22,8.89-.63a8.15,8.15,0,0,0,2.87-8.41c-.66-3-1.24-5.92-1.72-8.9-.19-1.21-.28-1.86-.4-2.87-.1-.83-.22-1.66-.28-2.5-.25-3.27.75,1.89-2.74,3.45l-4,1.09.51.06-8-8a22.12,22.12,0,0,1-.9,4.38,8,8,0,0,0,4.63,9.44c3.35,1.35,8.37.42,10-3.27a25.44,25.44,0,0,0,2.09-13c-.16-1.76-.41-3.52-.51-5.28,0-.93-.06-1.86,0-2.79s0,0,0,.2c0-.17.53-2.06.3-1.25s.18-.32.28-.41c-.11.09-.76.84-.14.16.25-.27.51-.51.77-.77-.89.86-.16.11.15-.07.65-.38,1.3-.75,2-1.08-.14.07-1,.39-.14.06.61-.22,1.22-.43,1.84-.63a94.39,94.39,0,0,1,11-2.62,27.56,27.56,0,0,1,4.43-.59,35.47,35.47,0,0,1,6,0c-1.23-.12,1.26.26,1.6.35a19.81,19.81,0,0,1,2.38.73c1.26.49-.81-.45.39.21.37.21.75.4,1.11.62a8.17,8.17,0,0,1,2,1.49c3,3,5.75,6.29,8.54,9.52a11.14,11.14,0,0,0,1,1.11c-.29.09-.68-1.81-.59-1.46-.28-1.09,0-1.45-.37-.84a6,6,0,0,0-.39,1.48c-.6,2.3-1.22,4.59-1.76,6.91-2.37,10.3-2.91,21.51,2.92,30.81,3.41,5.45,10.29,4.84,13.82,0a93.62,93.62,0,0,0,12.9-25.06c1.72-5,3-10.24,1.68-15.54C183.53,88,180.93,84.5,178.44,81c-5.23-7.31-7.34-16.46-16.14-20.64-8.1-3.85-18.26-4-27.08-3.38a38.22,38.22,0,0,0-16.65,4.68c-4.65,2.65-8.69,6.36-12.59,10C102.82,74.6,103,80,106,83a8.15,8.15,0,0,0,11.32,0Z"/><path class="cls-1" d="M118.67,142.52c-4.76-4.16-10.42-7.35-14.64-12.1-5-5.59-6.56-13.34-7-20.6-.9-14.07,3.11-30.31,12.92-40.84,4.87-5.22,11.29-8.17,18.13-9.87,7.17-1.78,15.17-3,22.52-1.76,13.9,2.39,24.58,15.81,28.85,28.54a44.3,44.3,0,0,1-8.64,43.51c-1.14,1.27.74,3.16,1.89,1.88A46.83,46.83,0,0,0,183.56,91c-2.81-14-12.45-28.5-25.88-34.31-7.25-3.14-15.21-2.73-22.86-1.6s-15.27,3.07-21.59,7.49c-12.39,8.66-18.13,25.56-18.92,40.07-.47,8.38.43,17.89,4.67,25.3,4.13,7.21,11.73,11.14,17.8,16.44,1.29,1.13,3.18-.75,1.89-1.88Z"/><path class="cls-1" d="M117.26,143.78c-.41,4.82-.91,10.47-4.9,13.8-4.36,3.63-11.39,1.09-16.32,0-10.33-2.31-21.11-5.27-30.65-10-5-2.44-7.46-6.34-9.07-11.53-1.39-4.51-2.32-9.46-1.4-14.16,1-4.91,4.38-7.59,7.08-11.49a12.39,12.39,0,0,0,1.54-11.19C60.6,91,50.61,89.48,43,88.85c-1.47-.13-1.6,1.78-.67,2.48,5.52,4.18,7.8,11.77,6.22,18.42C47.64,113.61,45.37,116,43,119s-2.53,6-1.5,9.53c1.29,4.38,3.14,8.65,4.76,12.91a69.48,69.48,0,0,0,4.85,11.16c3.95,6.63,10.61,10,18,11.5,9.43,1.9,19.53.87,28.39,5.19,1.54.75,2.89-1.55,1.34-2.31-7.44-3.62-15.61-3.75-23.68-4.64C66.67,161.41,58,159,53.39,151.26c-2.29-3.85-3.7-8.2-5.28-12.37s-4-8.71-4.52-13.17,3.79-7,5.75-10.56a20.19,20.19,0,0,0,2.33-8.39,20.62,20.62,0,0,0-8-17.74L43,91.51c4.35.37,9,.86,12.9,3,4.86,2.67,7.29,8.45,4.45,13.55-2.26,4.06-6,6.61-7.5,11.22-1.39,4.34-1.09,9.06-.17,13.46s2.28,8.89,5,12.36c2.94,3.71,7.41,5.43,11.69,7.12a170,170,0,0,0,32.84,9.33c4.86.85,9.58.79,13.09-3.15s4.16-9.47,4.59-14.61c.15-1.71-2.52-1.7-2.66,0Z"/><path class="cls-1" d="M94.73,167.79c4.53,4.25,11,1.89,16-.29,5.25-2.29,10.62-5.67,12-11.62l-2.63-.36c.11,9.21-8.52,14.67-15.61,18.68a70.54,70.54,0,0,0-9.83,6.27,37.86,37.86,0,0,0-7.55,8.89,56.77,56.77,0,0,1-7.54,9.9A42.11,42.11,0,0,1,70,206.12C62.77,210,54.71,212,46.67,213.24a1.34,1.34,0,0,0-.59,2.23c5.48,4.3,13,.75,18.63-1.35a130.82,130.82,0,0,0,21.38-9.91,82.15,82.15,0,0,0,18-14.21c3-3.16,5.8-6.6,9.39-9.11,3.19-2.23,6.86-3.69,10-6,6.53-4.84,9.16-12.75,10.44-20.47.28-1.68-2.29-2.4-2.57-.71a38.51,38.51,0,0,1-4.1,13c-2.36,4.11-5.82,6.61-9.89,8.86A43.9,43.9,0,0,0,107,183c-3.22,3.25-6.15,6.73-9.59,9.77a93,93,0,0,1-23,14.46c-4.24,1.94-8.58,3.65-13,5.2-3.92,1.38-9.73,4.09-13.52,1.13l-.58,2.23c8.28-1.29,16.52-3.44,23.95-7.4,7.65-4.06,12.93-9.81,17.6-17,2.64-4,5.44-7.64,9.43-10.43,3.83-2.68,8.07-4.68,12-7.17,6.44-4.07,12.49-10.21,12.4-18.32a1.34,1.34,0,0,0-2.62-.35c-1.08,4.75-5.24,7.44-9.38,9.41-3.94,1.87-10.37,4.87-14.15,1.33-1.26-1.18-3.15.71-1.89,1.88Z"/><path class="cls-1" d="M145.57,168.12c1.28,8,3,15.61,7.4,22.56,4.24,6.68,9.8,12.44,13.6,19.4a28.52,28.52,0,0,1,3.78,11.82,34.72,34.72,0,0,1-2.06,12.64c-1.3,4-3.18,7.72-7.06,9.67-3.54,1.79-7.7,1.94-11.58,2.1a1.34,1.34,0,0,0-1.16,2c3.93,5.47,12.63,1.89,17.55-.1a20.16,20.16,0,0,0,8.73-6.18,32.46,32.46,0,0,0,4.82-10.58,41.7,41.7,0,0,0,.19-24c-2.54-8.07-8.36-13.92-13.56-20.33a50.68,50.68,0,0,1-11.34-28.93c-.1-1.71-2.77-1.72-2.67,0a53.47,53.47,0,0,0,5.49,20.73c3.33,6.66,8.36,11.88,13,17.63a34.83,34.83,0,0,1,8.11,21.95c.05,7.21-1.66,16-6.13,21.89-2.67,3.51-6.84,5.22-10.91,6.51-2.94.94-8.64,3.26-10.94.06l-1.15,2c7.92-.32,15.73-1.63,19.53-9.46,3.53-7.26,5.09-16.18,2.65-24-2.58-8.25-8.38-14.8-13.41-21.63a50.06,50.06,0,0,1-7.15-12.5,77.46,77.46,0,0,1-3.13-14c-.27-1.69-2.84-1-2.57.71Z"/><path class="cls-1" d="M153,160.74c16.65,3.27,24.07,22.81,29.8,36.58,2.71,6.54,5.11,14.55,11.08,18.9,5.78,4.21,13.86,3.85,20.51,2.41,8.77-1.89,16.66-6.49,23.65-12a1.35,1.35,0,0,0-.59-2.23c-4.31-.87-8.59-.2-12.78-1.86-4.54-1.79-8.89-4.21-13.27-6.35-7.63-3.72-16.65-6.9-22.82-12.92-9-8.8-12.06-23.77-24-29.59-1.54-.75-2.9,1.55-1.35,2.31,6.07,3,9.7,8.94,13.08,14.52,3.53,5.82,6.94,12,12.3,16.37,6.62,5.39,15.19,8.58,22.8,12.29,4,1.95,8,4.09,12.09,5.77a21.26,21.26,0,0,0,5.7,1.52c2.51.26,5,0,7.51.51l-.59-2.23c-6.4,5-13.64,9.2-21.61,11.1-7.12,1.7-16.3,2.1-21.49-4-2.51-3-4.05-6.64-5.56-10.17-1.66-3.87-3.22-7.78-4.89-11.65-3-6.9-6.28-13.76-11-19.69-4.57-5.75-10.55-10.72-17.92-12.17-1.68-.33-2.39,2.25-.71,2.58Z"/><path class="cls-1" d="M166.66,155.77c7.13,1.53,12.24,7,16.43,12.66,4.35,5.84,8.73,12.31,9.43,19.75.75,8-1.46,16.53-3.23,24.32s-4,15.75-6.18,23.57a1.33,1.33,0,0,0,2.57.71c2.46-8.8,4.92-17.61,6.84-26.55,1.74-8.12,3.92-17.09,2.18-25.37-1.51-7.23-6.08-13.67-10.54-19.4-4.34-5.57-9.67-10.74-16.79-12.26-1.67-.36-2.39,2.21-.71,2.57Z"/><path class="cls-1" d="M175.74,143.17C189,155,201,170.26,203.06,188.51a45,45,0,0,1-4.46,26c-3.9,7.45-10.52,13.15-13.35,21.19-.57,1.62,2,2.32,2.57.71,3.11-8.85,10.91-15.1,14.59-23.74A48.56,48.56,0,0,0,205.55,187c-2.55-18.36-14.46-33.72-27.92-45.75-1.28-1.14-3.17.74-1.89,1.89Z"/><path class="cls-1" d="M174.9,134.33c8.45-4.58,18.76-2.56,26.5,2.53s13.28,13,18.37,20.65c4.86,7.32,9.71,15.46,16.79,20.88a24.82,24.82,0,0,0,12.18,4.76c3.48.45,8.59,1.36,11.23-1.61,2.36-2.67,1.91-6.8.12-9.63a11.82,11.82,0,0,0-9.65-5.38l1.15,2c6.12-8.13,19,5.6,12,12.85-6.14,6.32-17.54,5.3-24.84,2s-13-9.4-17.3-16.06c-2-3.07-3.89-6.3-6.67-8.75a23.91,23.91,0,0,0-8.13-4.52c-7.79-2.65-16.23-2.48-24.05-5.08-1.63-.54-2.33,2-.71,2.57,8.6,2.86,18.27,2.2,26.54,6.07,4.58,2.15,7.35,5.81,10,10A58.58,58.58,0,0,0,227,178.4c6.66,6.42,15.6,10.75,25,10.15,7.86-.5,18.26-5.22,16-14.78-1.86-8-12.79-14.56-18.8-6.58-.65.86.24,2,1.15,2,3.87.15,8.1,3,8.47,7.1.55,6.22-7.83,4.65-11.7,3.93-9-1.7-14.81-9-19.83-16.18-8.53-12.13-16.09-26.78-30.63-32.65-7.46-3-16-3.27-23.19.62-1.51.82-.17,3.12,1.34,2.31Z"/><path class="cls-1" d="M200.59,134.91a80.71,80.71,0,0,0,38.65-23.26l-2.23-1.3c-2.91,12.4-13.4,22-23.6,28.9a91,91,0,0,1-34.59,13.86c-1.68.3-1,2.87.71,2.57a92.84,92.84,0,0,0,36.65-15.1c10.21-7.17,20.45-17,23.41-29.52.29-1.23-1.29-2.33-2.23-1.3a78.24,78.24,0,0,1-37.48,22.58,1.33,1.33,0,0,0,.71,2.57Z"/><circle class="cls-2" cx="120.94" cy="138.8" r="6.97"/><path class="cls-3" d="M120.94,146.53a7.74,7.74,0,1,1,7.74-7.73A7.74,7.74,0,0,1,120.94,146.53Zm0-14.67a6.94,6.94,0,1,0,6.94,6.94A6.94,6.94,0,0,0,120.94,131.86Z"/><circle class="cls-3" cx="120.94" cy="138.8" r="4.9"/><circle class="cls-2" cx="170.3" cy="128.05" r="6.97"/><path class="cls-3" d="M170.3,135.78a7.74,7.74,0,1,1,7.74-7.73A7.74,7.74,0,0,1,170.3,135.78Zm0-14.66a6.93,6.93,0,1,0,6.93,6.93A6.94,6.94,0,0,0,170.3,121.12Z"/><circle class="cls-3" cx="170.3" cy="128.05" r="4.9"/><path class="cls-1" d="M127.08,167.82q-4.8,11.48-10.68,22.46c-3.89,7.27-8.46,14.15-12.33,21.42-3.18,6-5.83,12.71-4.69,19.6.93,5.61,4.65,10.27,10.44,11.2,1.68.28,2.4-2.29.71-2.57-6.8-1.1-9.27-7.66-8.68-13.89.68-7.23,4.82-13.78,8.48-19.85a287.54,287.54,0,0,0,19.32-37.66c.67-1.58-1.91-2.27-2.57-.71Z"/><path class="cls-1" d="M144.17,165.12c-1.71,7.58-7.88,13.89-12.43,19.93l-15.27,20.26c-7.25,9.61-17.71,23.5-8.74,35.47,1,1.36,3.34,0,2.31-1.35-9.4-12.52,4.68-27.4,11.91-37l14-18.56c4.18-5.55,9.23-11.09,10.79-18,.37-1.67-2.2-2.39-2.57-.71Z"/><path class="cls-1" d="M47.78,96.64c3.41,1,8.63,2.33,9.53,6.41.76,3.48-2.93,6.22-5.33,8l4,2.31a6.57,6.57,0,0,1,1.41-5c1-1.36,1.89-2.56,2-4.29.22-3.58-3.9-6.27-6.16-8.49-1.8-1.77-5.39,0-4.46,2.59a21.29,21.29,0,0,1,1.71,6.85c0,2.8-1.39,5.44-2.65,7.87a32.17,32.17,0,0,1-3.45,5.48c-1.31,1.6-3,2.87-3.06,5.1-.1,2.07,1.06,4.22,1.74,6.12L45.7,137a100.85,100.85,0,0,0,5.62,13.5,26.61,26.61,0,0,0,7.74,9.33c3.77,2.69,8.29,3.26,12.81,3.26a71.86,71.86,0,0,1,7.19.09c2.64.27,5.16,1.17,7.79,1.54,2.05.29,4.38-.12,6.35.56,2.46.86,4.28,2.52,6.93,3,9.53,1.7,20.39-6.15,23.17-15.15h-5.15c.34,1.64-2.47,3.53-3.6,4.44a18.79,18.79,0,0,1-5.22,3.15c-4.34,1.6-8.64-.2-12.81-1.51a126.94,126.94,0,0,0-13.43-3.68,78,78,0,0,0-12.67-1.13c-4.69-.15-7.42-1.68-10.4-5.21a47.72,47.72,0,0,1-7.34-10.9c-1.66-3.64-4-8.33-3.74-12.42a10.64,10.64,0,0,1,5.64-8.56l-4-2.3c0,.85-1,2.12-1.28,2.9A22.16,22.16,0,0,0,48.2,121a23.14,23.14,0,0,0-.72,7.13c.32,5.11,2.5,9.41,5,13.76,2.26,3.9,4.73,7.75,8.38,10.5A24.12,24.12,0,0,0,74.17,157c3.43.2,3.42-5.14,0-5.34a18,18,0,0,1-11.37-4.51c-2.84-2.64-4.73-6.16-6.62-9.49C54.1,134,52.6,130.31,52.8,126a17.21,17.21,0,0,1,1.43-6.16c.72-1.62,1.77-2.94,1.67-4.8a2.7,2.7,0,0,0-4-2.3c-16.64,9.12-3.94,30.49,4.64,40.57,2.58,3,5.57,5.34,9.58,6,4.34.77,8.78.29,13.14.93a93.2,93.2,0,0,1,14,3.51c4.11,1.28,8.46,3.13,12.83,3s8.07-2.09,11.37-4.66,6.84-5.77,5.9-10.37c-.55-2.7-4.41-2.37-5.15,0-2.29,7.44-12.78,14.3-20.14,10.11a13.63,13.63,0,0,0-5.53-2.08,57.72,57.72,0,0,1-6.43-.57,55.68,55.68,0,0,0-12.74-1.43c-4.25,0-8.48,0-12-2.82-3-2.39-4.92-5.89-6.52-9.29-2-4.14-3.44-8.48-5-12.79l-2.16-6.08a11,11,0,0,1-.94-2.67c0-.5.42-.83,1.09-1.62a41.34,41.34,0,0,0,6.8-11.71c1.89-4.82.94-9.29-.74-14l-4.46,2.6,3.17,3.12c1.58,1.55,1.07,1.9-.06,3.51a10.62,10.62,0,0,0-1.91,7.37c.18,1.76,2.22,3.65,4,2.3,4.25-3.19,8.93-7.36,7.94-13.25-1.11-6.59-7.75-9.3-13.41-10.94-3.31-.95-4.72,4.19-1.42,5.15Z"/><path class="cls-1" d="M131.28,166.87c3.05,1.16,8.39,4.59,11.36,1.75,2.83-2.69.92-6.6-2-8.11-2.55-1.29-5.67,2.12-3.23,4.19a5.75,5.75,0,0,0,2.5,1.4c.88.19,1.42.89.42-.64-.84-1.29-1-.68-2,.27a7.05,7.05,0,0,0-2.44,6.56,2.66,2.66,0,0,0,2.57,2,5.6,5.6,0,0,0,5.67-5.57c.15-2.75-3.64-3.49-5-1.35s-4.59-1.53-5.5-2.52c-1.27-1.38-3.22-.77-4.19.54-2,2.75-3,6.88.12,9.29a6.78,6.78,0,0,0,4,1.23c1,0,3.25-.58,4.05.13l-.69-2.6c1.29-.6,1.48-1,.58-1.12l-.64-.27a7.07,7.07,0,0,0-2.23-.49,4.38,4.38,0,0,0-3.45,1.86,5.7,5.7,0,0,0-.92,3.61c.27,1.08,1.66.67,1.67-.33,0-.85-.5-1.87-.5-2.81,0-2.83-3.51-3.4-5-1.35a19.5,19.5,0,0,0-3.28,7.42c-.39,1.91-.25,5.38-2,6.66l4,2.3c-.21-5.14,8.23-6.36,11.59-8.49l-3.92-3c-.58,2.58-1.23,3.93-3.56,5.25a32.07,32.07,0,0,0-5.49,3.92,30.05,30.05,0,0,0-7.63,10.68c-1.33,3.12,3.26,5.85,4.61,2.69a25.93,25.93,0,0,1,8.8-11.19c1.74-1.22,3.86-2,5.41-3.48,1.78-1.71,2.48-4.13,3-6.45s-1.86-4.32-3.92-3c-5.47,3.46-14.57,4.71-14.23,13.1.07,1.84,2.28,3.57,4,2.31a10.18,10.18,0,0,0,4-7c.6-3.36,1.19-6.18,3.22-9l-5-1.34c0,2.63.68,6,2.83,7.73,2,1.61,4.49.81,5.78-1.19a5.33,5.33,0,0,0,.88-3.1c0-.31,0-.62,0-.93l-1,.52a15.43,15.43,0,0,0,2,.75,4.35,4.35,0,0,0,5.35-2.81,2.62,2.62,0,0,0-.69-2.6,7.39,7.39,0,0,0-5.35-1.77c-.7,0-2.16.4-2.77.08-.93-.5.26-1.77.79-2.49l-4.19.54c2,2.18,4.32,4.36,7.42,4.61a6.69,6.69,0,0,0,6.46-3.16l-5-1.35-.34.24,2.57,2c-.13-1,2.48-2.51,3.11-3.22a4.16,4.16,0,0,0,1.2-2.94,3.51,3.51,0,0,0-1.56-2.81c-.7-.48-2-.47-2.6-1l-3.23,4.19c.55.28,1.67.08,1.52-.84,0-.26-2.16-.82-2.4-.91l-4.32-1.64c-3.22-1.22-4.61,3.93-1.42,5.14Z"/><path class="cls-1" d="M119.11,189.41c-.57,2.6-2.36,4.45-3.58,6.74A19.9,19.9,0,0,0,114.4,199a8.59,8.59,0,0,1-2.69,3.67l2.23,1.3a8.38,8.38,0,0,1,1.65-3l-2.23-.59c.48,2.52-3.43,3.92-4.71,5.54s-1.17,4.61-2.91,5.72l2,1.5a15.85,15.85,0,0,1,3.57-6c.85-.91,0-2.7-1.3-2.22-3.3,1.17-3.58,4.56-4.28,7.55-.75,3.19-2.49,5.81-4.4,8.44-2.27,3.11-1.1,6-.86,9.52.11,1.71-.05,2.71,1,4.13,1.26,1.65,2.77,2.79,3.62,4.8l2.44-1a45.91,45.91,0,0,1-2.73-4.88c-.7-1.68.21-3.09.06-4.82s-2.68-1.74-2.67,0v4.76l2.62-.35a41.48,41.48,0,0,1,0-11.24h-2.67a38.26,38.26,0,0,0,.87,6.75,1.35,1.35,0,0,0,2.58,0c.8-4.35,2.87-8.31,3.17-12.76.1-1.58-2.15-1.71-2.62-.36a44.11,44.11,0,0,1-2.59,5.94L106,222c-.15-2.36,2-4.28,2.93-6.33a29.23,29.23,0,0,0,1.79-6.64l-2.57-.71-1.77,10a1.33,1.33,0,0,0,2.57.71,52.46,52.46,0,0,1,5.24-10.39c.81-1.25-1.15-2.82-2.09-1.62l.81.27-2.23-1.29-.15.87a1.36,1.36,0,0,0,1.29,1.69c1.7,0,2.52,1.26,3.85-.51,1.55-2.06,2.54-4.79,3.73-7.08l-2.44-.32c.18,1-1.27,2.06-2,2.43s-1.21.58-1.78.95a6.18,6.18,0,0,0-2,2.24c-.69,1.27,1.1,2.83,2.1,1.62,1.54-1.87,3.74-2.77,5.62-4.23a15.71,15.71,0,0,0,3.78-4.22c1.1-1.8,1.45-4.71,3.25-5.92,1.26-.85,2.46-1,3.24-2.46s-1.48-2.85-2.31-1.34c-.72,1.32-2.81,1.56-3.79,2.78-1.14,1.42-1.45,3.29-2.28,4.86-2.19,4.17-6.58,5.21-9.4,8.64l2.1,1.62c1.1-2,3.63-2.17,5.08-3.82a4.17,4.17,0,0,0,1-3.86,1.35,1.35,0,0,0-2.44-.32c-.88,1.7-1.7,3.44-2.64,5.11-.4.73-.56,1.24-1.27,1.38-.28.06-1-.23-1.36-.22l1.29,1.69.14-.87a1.34,1.34,0,0,0-2.22-1.3c-3.38,2.73.17,7,3,3.5l-2.09-1.62a55.44,55.44,0,0,0-5.51,11l2.57.71,1.77-10c.3-1.68-2.26-2.41-2.57-.71a22.25,22.25,0,0,1-2.79,8.29c-1.1,1.72-2.16,3.26-2,5.39a1.35,1.35,0,0,0,2.49.67,47.88,47.88,0,0,0,2.85-6.58l-2.62-.35c-.28,4.18-2.32,8-3.08,12.05h2.58a33.18,33.18,0,0,1-.78-6,1.34,1.34,0,0,0-2.67,0,43.8,43.8,0,0,0,.12,11.94c.22,1.52,2.63,1.12,2.62-.35V228.6h-2.67c.17,2-.91,3.28-.14,5.26a48.59,48.59,0,0,0,3.17,5.79c.72,1.28,3,.39,2.44-1a14.89,14.89,0,0,0-1.74-3.18c-1-1.36-2.51-2.23-2.87-4-.24-1.21-.09-2.62-.3-3.88-.35-2.15-.38-3.68,1-5.46a31,31,0,0,0,2.11-2.73,32.49,32.49,0,0,0,1.3-3.2,11.33,11.33,0,0,0,1.13-3c.33-1.64.5-5,2.42-5.69l-1.3-2.23a19.15,19.15,0,0,0-4.26,7.22,1.35,1.35,0,0,0,2,1.5,5.15,5.15,0,0,0,2.16-2.49c.32-.73.45-1.51.7-2.27a6.18,6.18,0,0,1,2.59-3.12c2.21-1.67,4-3.44,3.41-6.39a1.34,1.34,0,0,0-2.23-.59,12.39,12.39,0,0,0-2.35,4.21c-.43,1.33,1.3,2.15,2.23,1.3a12.78,12.78,0,0,0,2.68-3c.72-1.27.89-2.75,1.56-4.05,1.31-2.52,3.23-4.53,3.85-7.38.37-1.67-2.2-2.39-2.57-.71Z"/><path class="cls-1" d="M122.4,161.07c1.61,2.35,4.34,6.28,7.4,3.22l-2.09-1.61a23.81,23.81,0,0,1-6.34,8.59c-2.79,2.35-6.28,3.33-9.11,5.54l1.89,1.89c3-3.76,6.79-6.39,10.48-9.42,1.17-1,2.31-2.26,2.13-3.91-.24-2.15-2.66-2.79-3.07-4.88-.24-1.25-2.38-1.3-2.57,0a11.57,11.57,0,0,1-1.34,4,1.35,1.35,0,0,0,1.5,2c1.41-.47-.1.33-.68.76-.38.29-.76.57-1.13.87a25,25,0,0,0-3,2.58c-1.65,1.75-3.19,6.73-5.81,6.67L112,179c.49-2.8,2.33-4.74,4.33-6.64s4.25-4,6.38-6c1.26-1.18-.63-3.06-1.88-1.89-4.06,3.8-10.38,7.93-11.41,13.79a1.36,1.36,0,0,0,1.29,1.69,5.44,5.44,0,0,0,4.84-3,27.1,27.1,0,0,1,2.57-4.18,26.51,26.51,0,0,1,3.83-3.34c1.32-1,3.28-2.28,2.74-4.23s-2.53-1.93-4.12-1.4l1.51,2a13.32,13.32,0,0,0,1.61-4.66h-2.57c.32,1.65,1.16,2.11,1.89,3.42,1.23,2.21-1.24,3.49-2.78,4.69a46.05,46.05,0,0,0-8,7.5,1.34,1.34,0,0,0,1.89,1.89c1.75-1.37,3.95-2,5.84-3.16a26.32,26.32,0,0,0,3.88-2.93A25.59,25.59,0,0,0,130,164c.58-1.31-.95-2.76-2.09-1.61s-2.67-1.89-3.22-2.69c-1-1.4-3.28-.07-2.3,1.35Z"/><path class="cls-1" d="M121.93,167.57c3.22,0,3.23-5,0-5s-3.22,5,0,5Z"/><path class="cls-1" d="M119.22,164a90.84,90.84,0,0,1-8.69,8.86c-2.91,2.63-6,6-10,6.85l1,2.44,4.79-3.28a1.34,1.34,0,0,0-1-2.44c-4.32.83-7.38,3.76-10.61,6.52-2.85,2.43-6.44,4.19-6.67,8.35-.1,1.71,2.57,1.71,2.67,0,.17-3.12,4.42-5.19,6.55-7,2.66-2.32,5.21-4.57,8.77-5.25l-1-2.44-4.79,3.28a1.34,1.34,0,0,0,1,2.43c3.9-.82,6.81-3.7,9.7-6.26a98.76,98.76,0,0,0,10.12-10.13c1.1-1.31-.78-3.21-1.89-1.89Z"/><path class="cls-1" d="M50.58,216.6c2.25,0,4.11-1,6.2-1.7a51.09,51.09,0,0,1,7.65-1.55c1.69-.25,1-2.82-.71-2.57A58.77,58.77,0,0,0,57,212.05c-2.12.59-4.21,1.92-6.43,1.88a1.34,1.34,0,0,0,0,2.67Z"/><path class="cls-1" d="M70.16,210.49c4-.75,7.76-3.83,10.72-6.5A21.43,21.43,0,0,0,85,199c1.29-2.21,2-5.11,4.81-5.82a1.33,1.33,0,0,0-.71-2.57c-4.27,1.09-5,5.38-7.37,8.52-2.67,3.64-7.78,7.95-12.31,8.8-1.68.32-1,2.89.71,2.57Z"/><path class="cls-1" d="M108.52,174.32c-1.14.76-4,1.9-3.91,3.61.11,2.18,3,1.17,4,2.46a1.36,1.36,0,0,0,2.3,0,2.7,2.7,0,0,0,0-3.33,1.35,1.35,0,0,0-2.3,0,41,41,0,0,1-6.12,8.5,40.6,40.6,0,0,1-7.64,7.35c-2.8,1.9-5,4.5-7.69,6.48a60.71,60.71,0,0,1-8.72,5l1.35,2.3a28.14,28.14,0,0,0,6.1-5.73,27.39,27.39,0,0,0,2.37-3.58c.48-.9,1.1-3.44,2.15-3.79l-1.65-1.65q-1.23,3.88-2.8,7.64c-.53,1.24,1,2.91,2.09,1.62,2.89-3.52,2.43-8.35,5.08-11.92l-2.43-1a36.44,36.44,0,0,0-1.17,8.82c0,1.48,2.3,1.86,2.62.36a52.7,52.7,0,0,1,3.8-11.34l-2.49-.67c-.24,2.34,0,5.76-1.36,7.73-.87,1.23,1.1,2.76,2.09,1.62,2.89-3.36,5.42-6.86,4.71-11.49a1.34,1.34,0,0,0-2.57,0,6.36,6.36,0,0,1-1.33,3.15l2.23.59c-.5-1.21,3.18-3,4-3.4a18.11,18.11,0,0,1,5.07-1.58l-1.5-2c-1.12,1.46-2.17,2.95-3.18,4.48l2.44,1c.68-2,2.42-3.2,4.14-4.32L106.76,179c-4.33,3.12-10.62,6.32-11.66,12.08a1.35,1.35,0,0,0,2.23,1.3,39.77,39.77,0,0,0,5.14-5.93c1-1.4-1.32-2.73-2.31-1.34a35.54,35.54,0,0,1-4.72,5.38l2.23,1.3c.9-5,6.69-7.79,10.44-10.48,1.37-1,.11-3.26-1.35-2.31-2.36,1.55-4.43,3.16-5.37,5.92-.5,1.49,1.64,2.24,2.44,1q1.52-2.29,3.18-4.48c.79-1-.51-2.13-1.5-2-3,.51-12.85,3.65-10.94,8.25.34.82,1.53,1.47,2.23.59a8.73,8.73,0,0,0,2-4.32H96.25c.54,3.53-1.88,6.39-4,8.89l2.09,1.62c1.71-2.45,1.44-6.23,1.73-9.08a1.34,1.34,0,0,0-2.48-.68,55.15,55.15,0,0,0-4.07,12l2.62.35A33.68,33.68,0,0,1,93.19,189a1.34,1.34,0,0,0-2.44-1c-2.52,3.4-2,8.13-4.66,11.38l2.09,1.62c1.15-2.72,2.18-5.47,3.08-8.28A1.34,1.34,0,0,0,89.62,191c-2.38.81-2.83,3.41-4,5.39a24.81,24.81,0,0,1-7.3,8,1.33,1.33,0,0,0,1.35,2.3,59.62,59.62,0,0,0,9.45-5.54c2.91-2.2,5.43-4.76,8.4-6.91s5-4.85,7.34-7.48a39.79,39.79,0,0,0,5.93-8.35h-2.3l0,.63h2.3a5.07,5.07,0,0,0-2-1.75c-.81-.36-1.7-.19-2.5-.51l.93.94-.08-.32-.34,1.3a18,18,0,0,1,3-2.08c1.42-1,.08-3.26-1.35-2.3Z"/><path class="cls-1" d="M145.59,166.41l1.24,2.35c1,1.94,4.44,1.62,4.88-.64a2.8,2.8,0,0,1,1.09-2l-3.92-1.59a11.48,11.48,0,0,1,.53,5.07l3.92-1.6a3.62,3.62,0,0,0-5.42,1.92,4.42,4.42,0,0,0,.39,3.46c.48.94,2.4,3.19,2,4.3l1.22-1.59-.39.17h2.69c.26.21.29,0,.07-.55q-2.86-1.92-1.87-.53a13.06,13.06,0,0,0,1.19,2.16c.81,1.61,1.48,3.27,2.2,4.92a29.79,29.79,0,0,0,5.41,8.89l2.59-4.46c-3.87-1.12-5.94-5.64-9-8.06-1.86-1.49-5.45-.19-4.46,2.59,2.46,6.91,7.91,11.67,11.64,17.8a65.75,65.75,0,0,0,6,9c2.91,3.41,3.15,6.93,3,11.27-.09,3.24,4.18,3.31,5.24.71,2.48-6.06-.9-11.77-3.82-16.94-2.67-4.71-3.2-10.47-7.75-13.89-2.47-1.87-5.29,2.09-3.23,4.19,4.92,5,11.38,11.16,12.71,18.36,1.17,6.39,1.23,14.42-2.51,20-1.93,2.86,2.69,5.53,4.6,2.7,4.44-6.59,4.36-15.56,3.21-23.13-1.31-8.59-8.41-15.72-14.24-21.68l-3.23,4.19c1.69,1.28,2.27,3.59,2.93,5.49a37.84,37.84,0,0,0,2.46,5.7c2.29,4.2,5.76,8.64,3.73,13.62l5.24.71c.12-4,0-8.07-2-11.61-1.9-3.28-4.73-5.74-6.51-9.14-3.49-6.62-9.83-11.66-12.37-18.78l-4.46,2.6c3.94,3.15,6.18,7.95,11.32,9.44,2.64.76,4.37-2.56,2.6-4.46-3.24-3.48-4.54-8.17-6.59-12.36-.78-1.6-1.73-3.95-3.54-4.62a4.21,4.21,0,0,0-4.89,2c-1.72,2.68-1.13,9.3,3.26,8.78a3.42,3.42,0,0,0,2.86-3.84,10.6,10.6,0,0,0-1.09-3.59c-.26-.57-.54-1.12-.86-1.67-.15-.25-.3-.49-.46-.73-.41-.82-.74-.41-1,1.23l-2.06-.27.41.29c1.28.92,3.69,0,3.92-1.59a17.5,17.5,0,0,0-.54-7.91c-.46-1.5-2.46-2.65-3.92-1.6a8.23,8.23,0,0,0-3.54,5.23l4.88-.64-1.25-2.34c-1.61-3-6.22-.34-4.6,2.69Z"/><path class="cls-1" d="M171.08,219.25a77.19,77.19,0,0,1-.07,14.26c-.32,4.32-1.81,7.91-6.31,9.21-3.29,1-1.89,6.11,1.42,5.15a13.7,13.7,0,0,0,9.74-10.13,61.31,61.31,0,0,0,.55-18.49c-.37-3.37-5.71-3.41-5.33,0Z"/><path class="cls-1" d="M169.08,237.47,167.37,240a2.67,2.67,0,0,0,1,3.65,2.73,2.73,0,0,0,3.65-.95l1.71-2.58a2.67,2.67,0,0,0-4.61-2.69Z"/><path class="cls-1" d="M154.92,250.45a19.93,19.93,0,0,0,8-1.41c1.63-.6,4-1,4.28-3,.2-1.7-2.47-1.69-2.67,0l0,.29.66-1.15c-2.65,1.9-7.09,2.77-10.27,2.59-1.72-.1-1.71,2.57,0,2.67Z"/><path class="cls-1" d="M107.84,219.94A25.45,25.45,0,0,0,128,247.43c1.68.35,2.4-2.23.71-2.57a22.83,22.83,0,0,1-18.22-24.92c.17-1.71-2.5-1.7-2.67,0Z"/><path class="cls-1" d="M106.45,240.81c2.12,1.68,4.72,2.11,7.29,2.75q5.15,1.29,10.31,2.5c1.67.39,2.38-2.18.71-2.57-2.76-.65-5.5-1.31-8.25-2-2.53-.62-6.08-.91-8.17-2.58-1.34-1-3.24.82-1.89,1.89Z"/><path class="cls-1" d="M141.07,164.38v.86a1.33,1.33,0,1,0,2.66,0v-.86a1.33,1.33,0,0,0-2.66,0Z"/><path class="cls-1" d="M140.59,166.37l21.75,28.53c1,1.35,3.34,0,2.3-1.34L142.89,165c-1-1.35-3.34,0-2.3,1.35Z"/><path class="cls-1" d="M134,164.38q15.43,21.65,32.46,42.09c1.09,1.32,3-.58,1.88-1.89q-16.78-20.16-32-41.55c-1-1.39-3.31-.05-2.31,1.35Z"/><path class="cls-1" d="M143.26,172.76a20.28,20.28,0,0,0,7.83,6.11l1-2.44a24.52,24.52,0,0,1-6.11-3.34c-1.08-.79-2.55.76-1.83,1.83q2.41,3.57,5.14,6.89c1.09,1.33,3-.57,1.89-1.89q-2.51-3.06-4.72-6.35l-1.83,1.83a27.05,27.05,0,0,0,6.75,3.6c1.4.52,2.41-1.82,1-2.43a18.72,18.72,0,0,1-7.28-5.7c-1.06-1.35-2.93.55-1.89,1.89Z"/><path class="cls-1" d="M98.84,166.81a43.93,43.93,0,0,1-17-3.09c-5.26-2.1-10.23-4.86-15.63-6.63-1.64-.54-2.34,2-.71,2.57,5.7,1.87,10.93,4.88,16.54,7a45.82,45.82,0,0,0,16.76,2.84,1.34,1.34,0,0,0,0-2.67Z"/><path class="cls-1" d="M174.19,157.5a7.19,7.19,0,0,0,5.58-.82,1.35,1.35,0,0,0-.32-2.44,10.24,10.24,0,0,0-2.82-.2l.36,2.62c1,.36,1.54.16,1.7-.59.41-.6.12-.75-.85-.46a1.35,1.35,0,0,0-1.15,2,48.11,48.11,0,0,0,3.49,5.12c.87,1.12,2.51-.12,2.23-1.3-.51-2.12.23-4.28.7-6.35l-2.44.32c1.18,1.89,3.61,6.14,1.83,8.33l2.23.59c-.55-2.21-1.82-7.11.76-8.69h-1.35a12.1,12.1,0,0,1,2.18,2.33c1,1.13,3-.37,2.09-1.61a5.4,5.4,0,0,0-1.42-1.44c-.91-.68-1.89.28-2,1.15a7,7,0,0,0,.88,4.49c.71,1.3,3,.41,2.44-1l-1.14-3.09a1.34,1.34,0,0,0-2.62.35c-.11,1.09.36,1.39.77,2.34.69,1.57-.13,2-1,3.23a6.52,6.52,0,0,0-.53,6.24,1.35,1.35,0,0,0,2.43.32,54.18,54.18,0,0,0,5.21-10.72,1.35,1.35,0,0,0-.93-1.64,5.54,5.54,0,0,0-2.29-.24c-1.69.18-1.7,2.85,0,2.67a2.59,2.59,0,0,1,1.58.14l-.93-1.64A51.84,51.84,0,0,1,184,167.58l2.44.31c-1.32-3.15,1.16-4.16,2-6.71a3.23,3.23,0,0,0,.09-1.92c-.24-.85-1.36-1.59-1.27-2.47l-2.62.36,1.14,3.09,2.44-1a4.66,4.66,0,0,1-.53-3.14l-2,1.15.46.48,2.09-1.61a12.46,12.46,0,0,0-2.71-2.76,1.36,1.36,0,0,0-1.35,0c-3.83,2.35-2.87,8.14-2,11.71a1.34,1.34,0,0,0,2.23.58c2.77-3.41.62-8.28-1.41-11.56a1.35,1.35,0,0,0-2.44.32c-.59,2.61-1.34,5.11-.7,7.77l2.22-1.3a44.06,44.06,0,0,1-3.07-4.58l-1.15,2c1.43,0,4.61-.12,3.84-2.47-.68-2.07-3.72-2.24-5.4-1.72-1.38.42-1.21,2.74.35,2.62a5.18,5.18,0,0,1,2.11.1l-.32-2.44a4.33,4.33,0,0,1-3.52.56c-1.67-.4-2.38,2.17-.71,2.57Z"/><path class="cls-1" d="M162.6,159.09l-.58.72.66,1.15c0-.4,1.16-1.51,1.42-1.56.6-.11,1.29,1.24,1.6,1.72v-1.35a1.32,1.32,0,0,1-1.1,1.06l.27,2.09c.78-.78,1.24-1.65,2.3-1.17s1.64,2.31,2,3.21l2-1.51c-1.56-.87-4.75-2.69-6-.16-1.33,2.82,2.71,5.19,4.11,6.82.95,1.1,2.46-.11,2.23-1.3a15,15,0,0,0-1.64-4.58l-2.1,1.62c1.92,2.19,5.54,1.61,5.5-1.66l-2.28.94a5.58,5.58,0,0,1,1.13,4.54l2.22-.59a20.26,20.26,0,0,1-2.05-2.46,1.34,1.34,0,0,0-2.48.67c0,2.74.3,5.25,2.13,7.4,2.44,2.85,4.73,5.28,6.16,8.84l2.44-1-7.81-12.21-2.09,1.61a24.83,24.83,0,0,1,5.22,7.6l2.31-1.35a48.79,48.79,0,0,1-3.13-8.67l-2.44,1,5.36,9.95c.77,1.43,2.66.37,2.44-1a66.15,66.15,0,0,0-3.26-12.68,1.35,1.35,0,0,0-2.58,0,8.3,8.3,0,0,0,.16,4.71,1.34,1.34,0,0,0,2.62-.35,7.92,7.92,0,0,0-.46-2.55l-2.44,1c5.66,7.38,6.35,18.25,15,23.21a1.33,1.33,0,0,0,1.35-2.3c-8.08-4.61-8.78-15.35-14.09-22.26-.82-1.08-3-.53-2.43,1a3.86,3.86,0,0,1,.36,1.84l2.62-.35a5.62,5.62,0,0,1-.15-3.3h-2.58a65.45,65.45,0,0,1,3.27,12.68l2.44-1-5.36-9.94a1.34,1.34,0,0,0-2.44,1,53,53,0,0,0,3.39,9.32c.74,1.56,3,.2,2.31-1.35a27,27,0,0,0-5.64-8.13c-1.06-1.05-2.93.31-2.1,1.61l7.8,12.22c.77,1.21,3,.44,2.44-1a26.31,26.31,0,0,0-4-6.93c-.93-1.14-2.12-2.1-3-3.29-1.16-1.62-1.2-3.37-1.22-5.31L170,168a24.46,24.46,0,0,0,2.47,3,1.34,1.34,0,0,0,2.23-.59,8.51,8.51,0,0,0-1.81-7.13c-.74-.95-2.29-.13-2.28.94l-.94-.23c-1-1.17-2.8.33-2.1,1.62a12.93,12.93,0,0,1,1.38,3.94l2.23-1.29c-1.08-1.26-3.48-2.52-3.44-4.43L167,165c.85-.53,2,.43,2.71.81a1.35,1.35,0,0,0,2-1.51c-.69-2-2-4.51-4-5.51s-3.34.95-4.67,2.29a1.35,1.35,0,0,0,.27,2.1c2.18,1.46,5.49-.77,4.75-3.36-.31-1.07-2.17-3.21-3.28-3.51-1.57-.43-2.46,1-3.37,2.05-.76.9-1.87,2-1.17,3.33a2.32,2.32,0,0,0,3,.71,3.07,3.07,0,0,0,.14-5.83c-1.59-.65-2.28,1.93-.71,2.57Z"/><path class="cls-1" d="M178.27,179.25a56.82,56.82,0,0,1,2.67,6.15l2-1.5L182,183c-1-1.35-3.3-.09-2.31,1.34a34.44,34.44,0,0,1,4.06,7.74l2.23-1.3c-1.72-1.54-1.67-4.15-3.53-5.67-1.12-.91-2.89.22-2.09,1.62,1.92,3.35,2.85,6.81,4.34,10.33a29.58,29.58,0,0,0,2.25,4.14c.75,1.24,3,4.06,2.31,5.59l2.43.32a21.81,21.81,0,0,0-1.8-4.42c-1-1.78-.55-2.88-.31-4.93.37-3.26.34-6.35-1.17-9.33a1.35,1.35,0,0,0-2.49.68,32.25,32.25,0,0,0,.83,5.7l2.23-1.3a4,4,0,0,1-1-2.24c-.35-1.56-2.48-1.05-2.62.36-.45,4.49,3.32,7.13,4.46,11.14.39,1.39,2.77,1.19,2.62-.36-.43-4.2,1.23-8.88-1.53-12.57a21.26,21.26,0,0,0-4.19-3.61,27.06,27.06,0,0,1-5.27-6l-2.1,1.61a10.33,10.33,0,0,0,2.34,1.76,1.35,1.35,0,0,0,2-1.15,4.23,4.23,0,0,0,0-1.33l-2.27.94c2,2.25,3.94,4.63,6.1,6.74a16.53,16.53,0,0,0,2.62,2.1c.65.41,1.31.71,1.61,1.48.14.38.47,3.28-1,2-1.3-1.11-3.2.76-1.89,1.89,3.68,3.17,6.37-.16,5.52-4.24-.55-2.63-2.85-3.17-4.66-4.84-2.32-2.14-4.32-4.69-6.43-7a1.35,1.35,0,0,0-2.28,1,4,4,0,0,1,0,1.33l2-1.15a5.18,5.18,0,0,1-1.8-1.34c-1-1-3,.34-2.1,1.61a35.87,35.87,0,0,0,7.76,8.13c4.38,3.4,2.38,8,2.87,12.73l2.62-.35c-1-3.62-4.76-6.49-4.36-10.43l-2.62.35a7.67,7.67,0,0,0,1.73,3.42c.9,1.08,2.52-.1,2.23-1.3a27.33,27.33,0,0,1-.74-5l-2.49.67c1.63,3.2.94,6.73.53,10.13-.36,3.06,1.66,5,2.49,7.91a1.35,1.35,0,0,0,2.44.32c1.65-3.44-1.63-7-3.25-9.84a38.39,38.39,0,0,1-2.62-6.66,36.85,36.85,0,0,0-3-6.26L180.6,187c1.77,1.45,1.77,4.1,3.53,5.66.9.81,2.72.05,2.23-1.29A37.54,37.54,0,0,0,182,183l-2.31,1.34a9.44,9.44,0,0,0,1.83,1.85c.91.7,2.34-.47,2-1.51a62.66,62.66,0,0,0-2.94-6.79c-.77-1.53-3.07-.18-2.3,1.35Z"/><path class="cls-1" d="M193.84,207.84c-1.82,3.79-2.34,7.92-3.67,11.87a32.52,32.52,0,0,1-2.94,6.33c-1,1.68-2,3-2.2,5-.17,1.35,1.88,1.76,2.48.67a25.49,25.49,0,0,0,1.64-4.34c.74-2.15,2.3-3.4,3.89-4.93l-2.28-.94c-.06,2.73-1.79,4.75-3.51,6.71l2.1,1.62c1.44-3.41,2.79-9.27,6.24-11.17l-1.82-1.82a34.72,34.72,0,0,1-3.06,4.88c-1,1.38,1.29,2.7,2.31,1.35a16.06,16.06,0,0,1,4.29-4c.75-.49,1-1.88,0-2.31s-2.62-1.05-3.13-2-.11-1.51.25-2.59a24.06,24.06,0,0,0,1.22-5.75c.18-2.26.75-4.24,1.11-6.46.13-.82-.31-5.1.06-5.32a22.79,22.79,0,0,1,6,1.92c1.08,1.11-.53,4.75-1,6.15a62,62,0,0,1-5.54,12.53l2.09-.27a41.1,41.1,0,0,1-3.11-2.94l-1.61,2.09c2.62,1.65,3.88.28,5.4-1.93a41.85,41.85,0,0,0,5.13-9.34c.59-1.61,2.22-6,.57-7.41-.86-.74-2.47-.47-3.46-.41-2.08.11-4.06.45-6-.67l-1,2.44a30.59,30.59,0,0,0,4,1.23,1.34,1.34,0,0,0,1.3-2.23l-1.6-1.47a1.35,1.35,0,0,0-2.23,1.3c1,4.18-.4,7.06-2,10.82a10.53,10.53,0,0,0,0,8,1.34,1.34,0,0,0,2.62-.35c.27-3.48,2.67-6.88,3.51-10.31a20.55,20.55,0,0,1,1.1-4.22c-1,2-1.8,4.13-2.7,6.18l2.48.67c.1-3,2.22-5.92,1-8.82-1.1-2.66-3.49-4.43-5.74-6.06-1.39-1-2.73,1.3-1.35,2.3,1.82,1.32,5.11,3.49,4.81,6.11-.12,1-.86,2.19-1.08,3.27a19.09,19.09,0,0,0-.34,3.2c0,1.25,1.94,1.91,2.49.67,1-2.35,3.89-6.39,3-9.08a2.66,2.66,0,0,0-4.21-1.3c-2,1.55-1.8,5.45-2.45,7.7-1,3.28-3,6.24-3.26,9.69l2.62-.36c-1.62-4.11.53-6.7,1.73-10.47a15.52,15.52,0,0,0,.19-8.36l-2.23,1.3,1.6,1.47,1.3-2.23a32.23,32.23,0,0,1-3.95-1.23c-1.44-.56-2.29,1.68-1,2.44a8.4,8.4,0,0,0,3.88,1.16c1.74.1,4.06-.65,5.71-.05l-.93-.93c.5,2.17-5.22,16.5-7.66,15-1.31-.83-2.63,1-1.61,2.09a36.14,36.14,0,0,0,3.11,3,1.35,1.35,0,0,0,2.09-.27,63.94,63.94,0,0,0,7-17.71c.41-1.81,1-3.59-1-4.51a37,37,0,0,0-4.58-1.47c-1.15-.37-3.05-1.42-4.29-1.17-1.85.36-1.7,2.34-1.67,3.86a18.35,18.35,0,0,1-.4,5.63,17.24,17.24,0,0,0-.66,3.76,24.07,24.07,0,0,1-.9,5.6c-.33,1.09-1.33,2.72-1.27,3.86.11,2.09,3.48,4,5.1,4.67v-2.31a20.23,20.23,0,0,0-5.26,4.93L193,223a35.71,35.71,0,0,0,3-4.89,1.34,1.34,0,0,0-1.82-1.82c-4.16,2.28-5.48,8.06-7.21,12.12-.53,1.26,1,2.87,2.1,1.62,2.22-2.52,4.21-5.11,4.29-8.6a1.35,1.35,0,0,0-2.28-.95c-1.39,1.35-3,2.6-3.87,4.34s-1.12,3.75-2.07,5.48l2.48.67c.24-1.88,2.11-3.94,3-5.61a35.41,35.41,0,0,0,2.09-5c1.25-3.72,1.69-7.67,3.4-11.24.74-1.54-1.56-2.89-2.3-1.34Z"/><path class="cls-1" d="M197,206.23a43.71,43.71,0,0,1-2.73,4.24,1.34,1.34,0,0,0,.48,1.83,1.37,1.37,0,0,0,1.82-.48,43.71,43.71,0,0,0,2.73-4.24,1.33,1.33,0,0,0-2.3-1.35Z"/><path class="cls-1" d="M187.61,192.4a23.81,23.81,0,0,0,1.45,9.6c.59,1.59,3.17.9,2.57-.71a21.75,21.75,0,0,1-1.35-8.89c.09-1.72-2.58-1.72-2.67,0Z"/><path class="cls-1" d="M183.33,192.4l.87.83a1.35,1.35,0,0,0,2.23-.59c.26-.91.5-1.82.73-2.74l-2.44.32c1.23,2.23.87,5.21,2,7.62,1.19,2.59,2.84,4.87,3.32,7.74l1.64-1.64-1.12-1.39c-.38-1.67-2.95-1-2.57.71a4.25,4.25,0,0,0,3,3.25c1.05.38,1.79-.73,1.64-1.64-.47-2.83-2-5.12-3.24-7.65-1.32-2.7-.9-5.76-2.33-8.35a1.35,1.35,0,0,0-2.44.32c-.22.92-.46,1.83-.72,2.74l2.23-.59-.87-.83c-1.24-1.19-3.13.7-1.89,1.89Z"/><path class="cls-1" d="M186.29,167.51a61.56,61.56,0,0,0,4.93,10.17c2.57,4.09,3,7.95,2.94,12.69,0,1.75,2.5,1.68,2.67,0a33.16,33.16,0,0,0-4.21-19.91c-1.16-2-4-4.54-3.77-7l-2.62.36a178.78,178.78,0,0,1,6.26,18.86c.72,2.64,1.32,5.78,2.8,8.14s4.33,1.18,6.51,2.15a1.36,1.36,0,0,0,2-1.15c.25-4.83-3.59-8.69-3.21-13.46l-2.49.67a19.81,19.81,0,0,1,3,7.1c.36,1.69,2.89,1,2.57-.71A60.62,60.62,0,0,0,191.6,159a1.34,1.34,0,0,0-2.09.27,8.47,8.47,0,0,0-1.12,6c.14.92,1.28,1.12,2,.8a2.06,2.06,0,0,1-.11,2.79l2.1-.27-.21-1.43-2.1.27a8.6,8.6,0,0,1,2.5,4.69,1.34,1.34,0,0,0,2.43.32,4.48,4.48,0,0,0,.8-2.81,1.34,1.34,0,0,0-2.67,0v7.92l2.62-.36c-.16-1.08-1.94-8.47-.51-8.85l-1.64-.93c2.22,8.64-.34,18,4.07,26.14a1.34,1.34,0,0,0,2.3,0c1.49-2.7.59-5.91.26-8.82l-1.3-11.52c-.19-1.68-2.86-1.7-2.67,0l1.07,9.43c.3,2.67,1.69,7.11.34,9.56h2.3c-4.22-7.77-1.66-17.17-3.8-25.5a1.36,1.36,0,0,0-1.64-.93,3.4,3.4,0,0,0-2.59,3.64c0,2.79.82,5.74,1.24,8.49.23,1.51,2.62,1.11,2.62-.35v-7.92h-2.67l-.43,1.47,2.44.31a11,11,0,0,0-3.18-5.87,1.34,1.34,0,0,0-2.09.27,3.92,3.92,0,0,0,.62,4.66,1.34,1.34,0,0,0,2.1-.27c.85-1.7,1.69-3.73.45-5.46a3,3,0,0,0-4-1l2,.8a5.74,5.74,0,0,1,.85-3.9l-2.09.27a57.82,57.82,0,0,1,11.42,25.25l2.57-.71a21.64,21.64,0,0,0-3.29-7.73,1.35,1.35,0,0,0-2.49.67c-.38,4.85,3.46,8.68,3.21,13.46l2-1.15a11,11,0,0,0-3-1c-1.48-.23-2.2.13-3-1.26-1.47-2.54-1.95-6.07-2.74-8.88a161,161,0,0,0-5.6-16.46,1.34,1.34,0,0,0-2.62.35c-.16,2,.8,3.42,1.93,5a32.24,32.24,0,0,1,3.89,6.76,31.36,31.36,0,0,1,2.16,15.14h2.67c0-4-.05-8.08-1.93-11.75-1-1.86-2.24-3.54-3.22-5.4a65.23,65.23,0,0,1-2.82-6.41c-.63-1.58-3.21-.89-2.57.7Z"/><path class="cls-1" d="M189.89,161.07a65.28,65.28,0,0,0,.38,8.5l.66-1.15c-2.38,1.57-4,3.81-2.72,6.67a42.06,42.06,0,0,1,2.33,5.37,18.94,18.94,0,0,0,2.1,5c.92,1.44,3.23.11,2.3-1.34-1.29-2-1.67-4.25-2.47-6.45-.87-2.44-3.33-4.9-.2-7a1.29,1.29,0,0,0,.66-1.15,65.27,65.27,0,0,1-.37-8.5,1.34,1.34,0,0,0-2.67,0Z"/><path class="cls-1" d="M199.26,216.57c4.78,4,10.72,1.1,15.79-.78a109.93,109.93,0,0,0,18-8.16l-2-1.51c-.86,2.64-3.94,3.77-6.27,4.8a47.76,47.76,0,0,1-9.31,3.44c-3.6.76-5.53-1.29-8.63-2.5a6.24,6.24,0,0,0-5.57.21,1.35,1.35,0,0,0-.27,2.09,21.85,21.85,0,0,0,3.6,3.33c1.28.95,2.55-1,1.62-2.1l0-.11-1,1.28a4.79,4.79,0,0,1,2.94-.36,1.34,1.34,0,0,0,1-2.44c-4.72-2.86-3.86-8.68-1.6-12.86l-2.44-.32c.69,2.57-.57,4.7-2,6.74-.8,1.18-2.22,2.6-2.37,4.07-.32,3.1,3.84,2.72,5.8,2.86,3.79.25,7.92,1.05,11.58-.31,3.91-1.44,7.57-4,11.2-6a1.35,1.35,0,0,0-.32-2.43q-11.26-4.6-22.24-9.85a1.38,1.38,0,0,0-1.62.21,2.72,2.72,0,0,0-.43,3.26c.43.84,1.28,1.3,1.76,2.1.92,1.51.19,3.27-.48,4.79l2.44,1,1.13-4.52a1.34,1.34,0,0,0-2.58-.71c-1.29,3.66-2.28,7.16-1.73,11.05.16,1.2,1.89,1.2,2.43.32A21.27,21.27,0,0,0,211,199.9l-2.62.35c1.18,3.54,3.36,7.55-.61,10.27a1.35,1.35,0,0,0,.68,2.49,44.72,44.72,0,0,0,17.27-2.55,1.35,1.35,0,0,0,.59-2.23c-1.95-1.75-4.16-1.26-6.51-.68a46.1,46.1,0,0,1-12.1,1.3v2.66a185.31,185.31,0,0,0,19.11-1.73c1.34-.19,1.19-2.26,0-2.57-5.35-1.37-10.66-2.81-15.36-5.79l-1.35,2.3,11.4,6.54a1.35,1.35,0,0,0,2-1.16c.26-7.47-8.29-8.65-13.18-11.72-1.27-.8-2.76,1.08-1.62,2.09a50.79,50.79,0,0,0,11,7.49l-.27-2.1c-1,1-4.33-1.88-5.7-2.09-1-.14-2.31.92-1.51,2l4.39,5.71,1.51-2c-1-.19-3.45-1.7-4-1.41,1.55-.75.2-3-1.34-2.31-4.52,2.18,2.68,5.91,4.67,6.3,1,.19,2.28-.95,1.5-2l-4.38-5.71-1.51,2c2.94.43,5.3,4.28,8.3,1.4a1.35,1.35,0,0,0-.27-2.09,48.11,48.11,0,0,1-10.5-7.07L209,199.68c3.9,2.45,12.07,3.5,11.86,9.42l2-1.15-11.39-6.53a1.33,1.33,0,0,0-1.35,2.3c4.89,3.11,10.44,4.64,16,6.06v-2.57a182.74,182.74,0,0,1-18.4,1.64,1.33,1.33,0,0,0,0,2.66,49.45,49.45,0,0,0,7.88-.43c1.32-.18,2.64-.42,3.95-.72s3.68-1.33,4.9-.25l.58-2.23a42.6,42.6,0,0,1-16.56,2.46l.67,2.49a8,8,0,0,0,3.63-5.5c.39-2.75-1-5.26-1.8-7.79-.45-1.34-2.77-1.22-2.62.36a18.84,18.84,0,0,1-2.77,11.91l2.44.32c-.47-3.34.64-6.53,1.74-9.63l-2.58-.71-1.12,4.52c-.35,1.4,1.81,2.46,2.44,1a11.09,11.09,0,0,0,1.3-5.36,5,5,0,0,0-.74-2.19c-.19-.3-1.9-2-1.83-2.06l-1.62.2q11.29,5.4,22.88,10.12l-.32-2.44c-3.07,1.72-6.1,3.6-9.26,5.15-3.59,1.77-7.31,1.15-11.16.89-.5,0-3.89,0-4-.21s2.57-3.78,2.8-4.17a9.38,9.38,0,0,0,1.31-7.4,1.35,1.35,0,0,0-2.44-.32c-3,5.51-3.44,12.87,2.56,16.52l1-2.44a7.16,7.16,0,0,0-4.36.36,1.41,1.41,0,0,0-1,1.29,2.26,2.26,0,0,0,.75,2l1.62-2.1a18.74,18.74,0,0,1-3.07-2.9l-.27,2.09c3.08-1.69,6.65,2.43,9.75,2.85,2.85.38,5.74-.8,8.36-1.77,4.5-1.68,11.24-3.52,12.9-8.62a1.35,1.35,0,0,0-2-1.51,96.29,96.29,0,0,1-14.65,6.87c-4.26,1.64-11.77,6-15.93,2.49-1.32-1.09-3.21.79-1.89,1.89Z"/><path class="cls-1" d="M203.25,136.22c5.87-2.68,11.87-5.19,17.64-8.1,5.3-2.66,9.91-6.72,14.63-10.27l-1.62-2.1a115.12,115.12,0,0,1-12.85,14.09q-3.51,3.27-7.31,6.23c-.91.71-2.85,2.76-4,2.66s-2.87-2.76-3.57-3.53v1.88a2.5,2.5,0,0,1,2.41,1.39,1.33,1.33,0,0,0,2.3-1.35,17.47,17.47,0,0,1-1.42-3.79l-2,1.51a7.54,7.54,0,0,1,2.71,3l2.09-1.61a3,3,0,0,1-.67-3.6l-2,.79a8.57,8.57,0,0,1,2.6,3.34l1.83-1.83.36-.82,2-.8-1-1.08a1.35,1.35,0,0,0-1.83-.48l-.19.14a1.38,1.38,0,0,0-.48,1.83l.13.27a1.37,1.37,0,0,0,1.51.61c1.41-.29,2.31-2,3.17-3l-2.23-.59,0,.19c-.91,1.07.31,3.06,1.62,2.1a27.57,27.57,0,0,1,6.46-3.58,1.36,1.36,0,0,0,1-1.28l-.24-2.16-1,1.28,5.91-.93-1.3-2.23-2.52,2.67c-1.18,1.25.7,3.13,1.88,1.89l2.53-2.67a1.35,1.35,0,0,0-1.3-2.23l-5.91.93a1.33,1.33,0,0,0-1,1.29l.24,2.16,1-1.29a30.51,30.51,0,0,0-7.1,3.85l1.62,2.09a2.66,2.66,0,0,0,.67-2.79,1.35,1.35,0,0,0-2.23-.59c-.37.43-1.55,2.19-2,2.29l1.51.61-.14-.27-.47,1.83.19-.14-1.83-.48a5,5,0,0,0,2,2,1.35,1.35,0,0,0,2-.8,3.37,3.37,0,0,0-4.42-4.32c-3.16,1.33-2.57,5.34.14,6.74a1.35,1.35,0,0,0,1.83-1.82,11.32,11.32,0,0,0-3.56-4.29c-.76-.58-1.68.1-2,.8a5.57,5.57,0,0,0,1.36,6.19,1.34,1.34,0,0,0,2.09-1.61,10.28,10.28,0,0,0-3.66-4,1.35,1.35,0,0,0-2,1.51,20.14,20.14,0,0,0,1.69,4.43l2.3-1.35c-1.49-2.21-4.2-4.37-6.59-1.92a1.36,1.36,0,0,0,0,1.88c1.58,1.76,3.72,5.6,6.57,4.36,3-1.33,6.09-4.48,8.59-6.62a115.93,115.93,0,0,0,16.33-17.18c.83-1.06-.28-3.1-1.62-2.09-4.72,3.55-9.33,7.6-14.63,10.27-5.77,2.91-11.76,5.42-17.64,8.1-1.56.71-.2,3,1.35,2.3Z"/><path class="cls-1" d="M222.8,133.42a22.44,22.44,0,0,0,3-3.69c.94-1.44-1.37-2.78-2.3-1.35a18.9,18.9,0,0,1-2.55,3.15,1.33,1.33,0,0,0,1.88,1.89Z"/><path class="cls-1" d="M208.51,146.11q1.86,3.39,3.42,6.91c.61,1.37,3,.37,2.44-1a23.36,23.36,0,0,1-1.61-5.93l-2.44,1c6.22,9.77,12.25,19.7,19,29.1l2.1-1.61a33.49,33.49,0,0,1-5.83-9.3l-2.44,1,10.42,15.47,2.09-1.61a21.6,21.6,0,0,1-5.74-6.83,1.34,1.34,0,0,0-1.83-.47c-.45.34-7.09-10.47-7.76-11.48a27.88,27.88,0,0,0-8.17-8.68c-1.93-1.2-6-3.2-7.07.14a3.34,3.34,0,0,0,.9,3.29c1.6,1.58,4.12.8,5.79,2.14.91.75,2.73.09,2.22-1.29a5.65,5.65,0,0,0-1.74-2.58c-.45-.39-1-.65-1.45-1s-1.89-2.83-1.22-1.23a10.62,10.62,0,0,0,4.68,5.09,1.35,1.35,0,0,0,1.83-1.83l-1.17-2.35c-.56-1.13-2.66-.65-2.49.68l.44,3.44c.22,1.68,2.89,1.7,2.67,0l-.44-3.44-2.48.67,1.17,2.35,1.82-1.83a8.11,8.11,0,0,1-3.06-2.81c-.56-.92-.73-2.12-1.44-2.94a2.49,2.49,0,0,0-3.37-.43,3.21,3.21,0,0,0-1.31,3.66c.79,2.58,4.12,2.9,5,5.29l2.23-1.3a7,7,0,0,0-3.44-1.49s-2.63-.22-1.68-1.06c.19-.17,2.33,1.19,2.62,1.39,3.11,2.06,5.38,5.15,7.35,8.25,1.42,2.22,7.22,14.46,10.93,11.68l-1.83-.48a23.3,23.3,0,0,0,6.17,7.36c1.08.85,3-.24,2.09-1.61L225.46,165c-.78-1.17-3.05-.45-2.44,1a37.63,37.63,0,0,0,6.52,10.47c1,1.13,3-.38,2.09-1.61-6.76-9.41-12.78-19.34-19-29.1a1.34,1.34,0,0,0-2.44,1,22.88,22.88,0,0,0,1.61,5.92l2.44-1c-1.05-2.36-2.19-4.66-3.42-6.92-.83-1.51-3.13-.16-2.31,1.35Z"/><path class="cls-1" d="M221.9,207l2.29,1.13a1.38,1.38,0,0,0,1.83-.48,1.34,1.34,0,0,0-.48-1.82l-2.3-1.13a1.36,1.36,0,0,0-1.82.48,1.33,1.33,0,0,0,.48,1.82Z"/><path class="cls-1" d="M231.59,173.94a32.58,32.58,0,0,0,7.37,10.4,1.33,1.33,0,0,0,1.88-1.89,6.17,6.17,0,0,1-1.69-3.18l-2,1.51a11.69,11.69,0,0,1,4.46,3.7l1.15-2-.55-.32c-1-1-3,.36-2.09,1.62,2.46,3.47,8.65,3.45,12.42,3A26.63,26.63,0,0,0,266,180.92c4.11-3.5-.67-7.52-3.27-10.4-1.89-2.1-7-9-10.18-5a1.34,1.34,0,0,0,1.61,2.09,1.56,1.56,0,0,1,2.15.9l2.09-1.62c-1.92-1.92-5.5-2.64-5.84.94a1.32,1.32,0,0,0,1,1.28A9.9,9.9,0,0,1,259,172.8c.58.79,3.44,6.52,1.07,6.75l.95,2.27,4-4.67-2.23-.59a2.18,2.18,0,0,1-.35,2.57l1.83-.48c-2.82-2,1.31-5.31.84-7.75-.41-2.15-3.61-4.13-5.14-5.46-1.29-1.11-3.19.76-1.89,1.89,1.09.94,3.29,2.3,4,3.59s-.85,3.05-1.17,4.36A5.2,5.2,0,0,0,263,181a1.36,1.36,0,0,0,1.83-.48,4.92,4.92,0,0,0,.61-4.62,1.35,1.35,0,0,0-2.23-.58l-4,4.67c-.68.78-.3,2.39.94,2.27,4-.37,3.8-5.07,2.74-7.94a12.74,12.74,0,0,0-8.52-7.76l1,1.29,1.29.95a1.34,1.34,0,0,0,2.1-1.62,4.29,4.29,0,0,0-5.79-1.85l1.61,2.1c1.16-1.42,6.63,5.25,7.38,6.12.92,1.06,3.68,3.49,2.86,5.06-.56,1-2.85,2.07-3.88,2.65a24.24,24.24,0,0,1-8.42,2.87c-2.47.35-8.25.73-9.94-1.65l-2.1,1.62a3.38,3.38,0,0,0,2.44,1.09,1.34,1.34,0,0,0,1.16-2,14.49,14.49,0,0,0-5.43-4.67,1.35,1.35,0,0,0-2,1.51,8.91,8.91,0,0,0,2.39,4.36l1.88-1.89a30.47,30.47,0,0,1-6.94-9.86c-.7-1.57-3-.21-2.31,1.35Z"/><path class="cls-1" d="M234.43,182.13a4.25,4.25,0,0,0,3.74,1.45c2.12-.15,3.74-2.14,5.65-.47,3.11,2.74,6.25,2.57,10.12,1.52a1.33,1.33,0,0,0-.71-2.57c-1.75.47-3.84,1.13-5.63.49-1.43-.52-2.24-2-3.58-2.62a3.75,3.75,0,0,0-2.79-.28c-1.52.43-3.42,2.31-4.92.6-1.12-1.3-3,.59-1.88,1.88Z"/><path class="cls-1" d="M243.82,182.37h-.69a1.34,1.34,0,0,0,0,2.67h.69a1.34,1.34,0,0,0,1.33-1.33,1.35,1.35,0,0,0-1.33-1.34Z"/><path class="cls-1" d="M198.8,188.28l-.23,2.29a1.34,1.34,0,0,0,2.67,0l.23-2.29a1.34,1.34,0,0,0-1.33-1.34,1.37,1.37,0,0,0-1.34,1.34Z"/><path class="cls-1" d="M201.26,215.44c1.14.4,2.29.77,3.45,1.1a1.33,1.33,0,0,0,.71-2.57c-1.16-.34-2.31-.7-3.45-1.11a1.35,1.35,0,0,0-1.64.94,1.37,1.37,0,0,0,.93,1.64Z"/><path class="cls-1" d="M185.46,167.26a13.51,13.51,0,0,0,1.42,2.94,1.35,1.35,0,0,0,1.82.47,1.34,1.34,0,0,0,.48-1.82,11,11,0,0,1-1.15-2.3,1.33,1.33,0,0,0-2.57.71Z"/><path class="cls-1" d="M105.45,223.71c-.92,6.5,1.75,17.52,9.12,19.34a1.35,1.35,0,0,0,1.3-2.23,61.7,61.7,0,0,1-4.84-6.31c-1.38-2.16-3.48-5.34-2.77-8l-2.44.32c1.57,2.65.83,5.86,3.08,8.24,1.18,1.25,3.06-.64,1.88-1.88-1.86-2-1.28-5.38-2.66-7.71a1.34,1.34,0,0,0-2.43.32c-1.59,6,4.78,12.73,8.29,16.94l1.3-2.23c-5.69-1.4-8-11-7.26-16.06.24-1.68-2.33-2.41-2.57-.71Z"/><path class="cls-1" d="M162,249.78c3.22,0,3.22-5,0-5s-3.22,5,0,5Z"/><path class="cls-1" d="M164,247.54a12.89,12.89,0,0,1,1.9-1.29,1.35,1.35,0,0,0,.48-1.82,1.37,1.37,0,0,0-1.83-.48,17.07,17.07,0,0,0-2.43,1.7,1.34,1.34,0,0,0,0,1.89,1.36,1.36,0,0,0,1.88,0Z"/><path class="cls-1" d="M183.76,237a17.73,17.73,0,0,0-.56,3.56,1.35,1.35,0,0,0,2.49.67,31.23,31.23,0,0,0,2.32-5.14c.56-1.63-2-2.32-2.57-.71a27.26,27.26,0,0,1-2.05,4.5l2.48.68a14.36,14.36,0,0,1,.46-2.85,1.33,1.33,0,0,0-2.57-.71Z"/><path class="cls-1" d="M183.05,236.88a16.7,16.7,0,0,0,.75,7.12c.54,1.62,3.12.93,2.57-.71a14.83,14.83,0,0,1-.65-6.41c.2-1.71-2.47-1.69-2.67,0Z"/><path class="cls-1" d="M186.54,243.36a10.94,10.94,0,0,1,.28-3.69c.16-1.07.35-2.14.57-3.19.17-.84-1.11-1.2-1.29-.36-.46,2.3-1.33,5.25-.85,7.59.18.84,1.46.49,1.29-.35Z"/><path class="cls-1" d="M75.72,166a67.45,67.45,0,0,0,47,.4c3.22-1.15,1.83-6.32-1.42-5.15a62.82,62.82,0,0,1-44.14-.41c-3.22-1.22-4.61,3.95-1.42,5.16Z"/><path class="cls-1" d="M78.06,161.09c-2.5-.78-5-1.66-7.39-2.69a2.75,2.75,0,0,0-3.65,1c-.66,1.12-.38,3.09,1,3.66a91.87,91.87,0,0,0,8.66,3.23c3.29,1,4.7-4.13,1.42-5.16Z"/><ellipse class="cls-4" cx="48.26" cy="97.88" rx="2.2" ry="2.57" transform="translate(-31.56 23.46) rotate(-20.76)"/><path class="cls-1" d="M48.49,100.81a3,3,0,0,1-2.66-2A2.62,2.62,0,1,1,50.69,97h0a2.81,2.81,0,0,1-1.38,3.7A2.33,2.33,0,0,1,48.49,100.81ZM48,95.75a1.39,1.39,0,0,0-.53.1,2.21,2.21,0,1,0,2.45,1.39h0A2.2,2.2,0,0,0,48,95.75Z"/><ellipse class="cls-4" cx="49.63" cy="105.15" rx="2.58" ry="2.12" transform="translate(-63.47 132.17) rotate(-78.17)"/><path class="cls-1" d="M49.46,108.12a2.12,2.12,0,0,1-.44-.05,2.78,2.78,0,0,1-1.86-3.43,3.26,3.26,0,0,1,1.12-1.89,2.35,2.35,0,0,1,2-.51,2.78,2.78,0,0,1,1.86,3.43h0A2.89,2.89,0,0,1,49.46,108.12Zm.33-5.12a1.65,1.65,0,0,0-1,.38,2.48,2.48,0,0,0-.84,1.42,2,2,0,0,0,1.24,2.49,2,2,0,0,0,2.13-1.78h0A2,2,0,0,0,50.07,103,1.27,1.27,0,0,0,49.79,103Z"/><ellipse class="cls-4" cx="48.26" cy="113.38" rx="3.28" ry="2.73" transform="translate(-72.61 137.37) rotate(-78.17)"/><path class="cls-1" d="M48.06,117a2.74,2.74,0,0,1-.56-.06,3.73,3.73,0,0,1,1.51-7.2,2.91,2.91,0,0,1,2,1.54,4.07,4.07,0,0,1,.35,2.7h0a4,4,0,0,1-1.41,2.34A3,3,0,0,1,48.06,117Zm.39-6.52A2.78,2.78,0,0,0,46,112.9a2.66,2.66,0,0,0,1.7,3.3,2.1,2.1,0,0,0,1.75-.47,3.21,3.21,0,0,0,1.12-1.87h0a3.23,3.23,0,0,0-.27-2.16,2.13,2.13,0,0,0-1.42-1.14A2.71,2.71,0,0,0,48.45,110.52Z"/><ellipse class="cls-4" cx="43.41" cy="121.51" rx="3.65" ry="2.6" transform="translate(-84.42 139.09) rotate(-78.17)"/><path class="cls-1" d="M43.05,125.53a1.83,1.83,0,0,1-.47,0,2.68,2.68,0,0,1-1.87-1.65,5.17,5.17,0,0,1,1.16-5.52,2.67,2.67,0,0,1,2.37-.76c1.62.34,2.56,2.39,2.1,4.58h0A4.82,4.82,0,0,1,45,124.71,2.8,2.8,0,0,1,43.05,125.53Zm.72-7.23a2.06,2.06,0,0,0-1.36.6,4.39,4.39,0,0,0-1,4.61,1.71,1.71,0,0,0,2.95.62A4,4,0,0,0,45.56,122c.37-1.76-.3-3.39-1.48-3.64A1.63,1.63,0,0,0,43.77,118.3Z"/><circle class="cls-4" cx="92.6" cy="197.72" r="3.6"/><path class="cls-1" d="M92.6,201.73a3.88,3.88,0,0,1-.82-.09,4,4,0,0,1-3.1-4.74,4,4,0,0,1,7.84,1.64h0A4,4,0,0,1,92.6,201.73Zm0-7.21a3.2,3.2,0,0,0-2.67,4.95,3.2,3.2,0,1,0,5.36-3.5,3.13,3.13,0,0,0-2-1.38A3,3,0,0,0,92.59,194.52Z"/><ellipse class="cls-4" cx="220.56" cy="135.38" rx="4.26" ry="3.4" transform="translate(-33.33 185.52) rotate(-42.71)"/><path class="cls-1" d="M219.7,139.6a3.41,3.41,0,0,1-2.56-1.06,3.49,3.49,0,0,1-.82-2.95,5.23,5.23,0,0,1,1.66-3c1.89-1.74,4.58-1.91,6-.37s1.05,4.22-.84,6a5.22,5.22,0,0,1-3.13,1.41Zm1.71-7.64a4.64,4.64,0,0,0-4.3,3.75,2.73,2.73,0,0,0,.62,2.29,2.69,2.69,0,0,0,2.22.79,4.38,4.38,0,0,0,2.65-1.2h0c1.56-1.44,1.92-3.61.79-4.82A2.65,2.65,0,0,0,221.41,132Z"/><ellipse class="cls-4" cx="228.63" cy="128.97" rx="3.7" ry="2.56" transform="translate(-31.62 94.69) rotate(-21.92)"/><path class="cls-1" d="M227.73,132.12a4.83,4.83,0,0,1-.94-.1,2.45,2.45,0,0,1-1.6-4,5,5,0,0,1,2.33-1.83c2.1-.84,4.3-.29,4.91,1.22a2.58,2.58,0,0,1-.37,2.45,5,5,0,0,1-2.33,1.83h0A5.53,5.53,0,0,1,227.73,132.12Zm1.81-5.5a4.59,4.59,0,0,0-1.72.35,4.23,4.23,0,0,0-2,1.52,1.84,1.84,0,0,0-.29,1.71,1.82,1.82,0,0,0,1.39,1,4.22,4.22,0,0,0,2.47-.26h0a4.23,4.23,0,0,0,2-1.52,1.84,1.84,0,0,0,.3-1.71A2.17,2.17,0,0,0,229.54,126.62Z"/><ellipse class="cls-4" cx="233.8" cy="122.18" rx="2.76" ry="2.16" transform="translate(-17.91 201.1) rotate(-45)"/><path class="cls-1" d="M233.19,125.05a2.26,2.26,0,0,1-1.63-.64,3.23,3.23,0,0,1,4.47-4.47c1,1,.81,2.81-.42,4h0a3.6,3.6,0,0,1-2.07,1A2,2,0,0,1,233.19,125.05Zm1.2-5a2.71,2.71,0,0,0-1.84.83,2.12,2.12,0,0,0-.42,2.91,1.56,1.56,0,0,0,1.32.4,2.79,2.79,0,0,0,1.59-.82,2.12,2.12,0,0,0,.42-2.91A1.45,1.45,0,0,0,234.39,120.1Z"/><ellipse class="cls-4" cx="85.07" cy="202.9" rx="3.05" ry="3.38"/><path class="cls-1" d="M85.07,206.68a3.8,3.8,0,1,1,3.45-3.78A3.63,3.63,0,0,1,85.07,206.68Zm0-6.76a3,3,0,1,0,2.65,3A2.84,2.84,0,0,0,85.07,199.92Z"/><ellipse class="cls-4" cx="76.98" cy="208.42" rx="2.92" ry="2.13" transform="translate(-139.31 157.62) rotate(-56.51)"/><path class="cls-1" d="M76.31,211.52a2,2,0,0,1-1.16-.34,2.24,2.24,0,0,1-1-1.86,3.85,3.85,0,0,1,.68-2.3c1-1.52,2.78-2.14,3.94-1.37s1.3,2.64.29,4.17h0a4,4,0,0,1-1.86,1.53A2.86,2.86,0,0,1,76.31,211.52Zm1.34-5.41a2.74,2.74,0,0,0-2.11,1.35,3,3,0,0,0-.55,1.82,1.49,1.49,0,0,0,.61,1.24,1.46,1.46,0,0,0,1.36.07,3,3,0,0,0,1.47-1.22c.76-1.15.74-2.52-.06-3.05A1.29,1.29,0,0,0,77.65,206.11Z"/><circle class="cls-4" cx="69.33" cy="211.87" r="2.4"/><path class="cls-1" d="M69.32,214.67a2.79,2.79,0,0,1-2.74-2.24,2.77,2.77,0,0,1,.41-2.11,2.8,2.8,0,0,1,3.88-.79,2.81,2.81,0,0,1,.79,3.89h0A2.79,2.79,0,0,1,69.32,214.67Zm0-4.8a1.81,1.81,0,0,0-.4,0,1.93,1.93,0,0,0-1.27.86,2,2,0,0,0-.3,1.5A2,2,0,0,0,71,213h0a2,2,0,0,0-.56-2.78A2,2,0,0,0,69.33,209.87Z"/><path class="cls-5" d="M155,72.37a5.25,5.25,0,0,1,3.43,1.17,10.5,10.5,0,0,1,1.41,1.34,6.22,6.22,0,0,1,.51.64c.22.35.26.21.12-.43l1-1,0,0h1.42c.26,0,.22.25-.08-.13a6.59,6.59,0,0,0-.7-.79A5.63,5.63,0,0,0,159.94,72c-1.33-.42-2.88.13-4.1-.34l1.18.69c.47.37-.14,1.06.44,0,1.69-3-2.93-5.7-4.62-2.7a5.88,5.88,0,0,0-.86,4.62,4.3,4.3,0,0,0,4,2.83,19.22,19.22,0,0,1,2-.1c.61.1.53.25,1,.75a4,4,0,0,0,4.2,1.42,3.91,3.91,0,0,0,2.59-3.62,6.6,6.6,0,0,0-2-4.31A11.44,11.44,0,0,0,155,67c-3.43.09-3.45,5.44,0,5.35Z"/><path class="cls-5" d="M153.75,74.15c-1.57,2.54.88,4.7,3.2,5.19a9.06,9.06,0,0,0,6.15-.88c3.05-1.59.35-6.21-2.7-4.62a3.23,3.23,0,0,1-1.46.37,2.73,2.73,0,0,1-.75-.07c-.18,0-.4-.2-.3-.08l.69,1.18-.07-.25-.27,2.06.13-.2c1.81-2.93-2.81-5.62-4.62-2.7Z"/><path class="cls-5" d="M152.73,68.89a4.25,4.25,0,0,1-.69,2.24l1.22.52a2.59,2.59,0,0,1,.66-1.45l-1.25-.34c-.2,1.56-1.29,4.66-.49,6.11.37.67,1.25,1,1.87,1.25,1.31.64,2.63,1.32,4,1.86,3.29,1.3,7,.2,7.12-3.78,0-.86-1.31-.86-1.34,0-.21,5.18-6.13,2.18-8.67,1-1.44-.68-1.84-1.15-1.62-2.75l.48-3.66c.1-.73-.91-.8-1.24-.33a4.47,4.47,0,0,0-.8,1.76c-.16.72.85,1.21,1.22.52a6.69,6.69,0,0,0,.87-2.92c.07-.86-1.26-.86-1.33,0Z"/><path class="cls-5" d="M152.68,76.19a2.56,2.56,0,0,0,1.87,1.47c.84.15,1.2-1.14.35-1.29a1.35,1.35,0,0,1-1.07-.86c-.34-.79-1.49-.11-1.15.68Z"/><path class="cls-5" d="M165.61,86.43c1.55.39,4.06,2.29,2.37,4.07-.8.83-2,.4-2.79-.25-.49-.42-1.74-2-1.46-2.65a4.27,4.27,0,0,1,1.18-.73c.51-.13.85.29,1.24.61s2.36,1.7,1.08,2.29-1.63-1-2.22-1.55c-.06-.35-.18-.41-.36-.17a1.93,1.93,0,0,1,1.52.8.65.65,0,0,0-.15-.78l-1.25.33a3.82,3.82,0,0,0,3.35,2,.68.68,0,0,0,.58-1c-.67-1.13-2.37-5.29-4.32-3.72a1.64,1.64,0,0,0-.34,2c.45,1,1.61,1.3,2.45,1.94.69.52,1.36-.64.68-1.16-.39-.29-.82-.45-1.22-.72a1.38,1.38,0,0,1-.72-.67c.1-.4.27-.39.5,0a14.67,14.67,0,0,1,1.81,3l.58-1a2.46,2.46,0,0,1-2.19-1.36.68.68,0,0,0-1.25.34c-.1,1.23,1.43,2.61,2.58,1.67s-.76-2.58-1.67-2.87c-1.67-.53-2.57.54-1.74,2,.76,1.34,2.06,2.68,3.74,2.16a2,2,0,0,0,.94-3.19,12,12,0,0,0-2.19-2,1.51,1.51,0,0,0-1.81-.36c-.6.28-1.76.83-2.06,1.47s.18,1.89.54,2.57a4.63,4.63,0,0,0,4.14,2.71,3.07,3.07,0,0,0,2.62-3.43c-.17-2-2-3.28-3.81-3.72-.83-.21-1.19,1.08-.35,1.28Z"/></svg>