<svg id="圖層_1" data-name="圖層 1" xmlns="http://www.w3.org/2000/svg" viewBox="0 0 300 300"><defs><style>.cls-1{fill:#b7b8b8;}.cls-2{fill:#7d7d7d;}.cls-3{fill:#231815;}.cls-4{fill:#dedfdf;}.cls-5{fill:#fff;}.cls-6{fill:#b5b5b6;}.cls-7{fill:#0e1d3a;}</style></defs><title>未命名-1</title><path class="cls-1" d="M255.77,127c-3.69.09-6.57,1.63-9.78,3.33q-6.35,3.36-12.69,6.75c-1.86,1-1.13,4.48,1.14,4.2A38.67,38.67,0,0,0,248.32,137c5-2.7,9.12-6.61,13.89-9.61s9.78-4.27,14.91-6c1.57-.53,11.88-4.9,10.88-6l-.58-2.19c-.29,1.85-2.78,4.19-3.74,5.8-1.46,2.45-2.74,5-4.07,7.54-2.46,4.71-5,9.34-6.28,14.52-.72,2.86,3.33,3.86,4.35,1.2a63,63,0,0,1,5.54-11.19c1.86-3,3.93-5.6,4.9-9a2.29,2.29,0,0,0-2.17-2.85,12.63,12.63,0,0,0-6.21.72l2.19,3.76.7-.61c1.91-1.68-.59-4.93-2.73-3.54-7.76,5-16.63,7.75-24.95,11.68l2.27,3.89c5-3.62,10.72-5.69,16.56-7.66,2.81-.95,1.62-4.75-1.2-4.34l-13.23,1.91,1.73,4.12c7.07-3.52,15.13-5.58,22.58-8.16l-2.77-2.77a40,40,0,0,1-9.23,16.68l3.76,2.19a24.47,24.47,0,0,1,4.83-8.56,2.26,2.26,0,0,0-2.73-3.54,26.13,26.13,0,0,0-13.57,17,2.25,2.25,0,0,0,4.34,1.2,93.08,93.08,0,0,1,4-10.69l-4.12-.53a51.57,51.57,0,0,1,2.2,11.15l4.2-1.13a13.68,13.68,0,0,1-2.4-11.66c.49-2.07-1.54-3.29-3.31-2.54-3.08,1.3-6.44,1.36-9.67,2a48.28,48.28,0,0,0-8.11,2.63c-4.2,1.72-10.24,3.6-13.09,7.26-1,1.32-.59,4.08,1.59,3.84a17,17,0,0,1,8.14,1l1.19-4.34,0-.1c-1.9-2.22-5,1-3.19,3.18l1.07,1.28c1.75,2.13,4.5-.58,3.53-2.72-1.29-2.86,4.77-3.91,6.51-4.45,2.11-.66,6.7-2.84,8.77-1.58V132c-4,2.78-5.22,8.37-.89,11.61,1.56,1.17,3.52,1.37,5.21,2.32a18.26,18.26,0,0,0,1.75,1.23c2.58,1.12,5-.15,7.13-1.65l-2.73-.35c4.1,3.26,6.28,6.74,8.91,11.15,2.47,4.13,5.76,7.89,8.67,11.72l3.08-3.08a22.77,22.77,0,0,0-5.3-3.24,2.3,2.3,0,0,0-2.54,1c-1.51,2.08-.23,3.42,1,5.16l3.08-3.08c-2.8-1.83-5.78-2.12-9-2.29-4.5-.24-8.73-1.92-13.11-2.92-8.45-1.92-14.81-8.07-23.6-8.91-2.34-.23-2.91,3.11-1.14,4.19,6,3.68,12.48,6.83,19.41,8.34a41.54,41.54,0,0,0,9.94,1c4.1-.12,8.09-1.17,12.19-.41a2.28,2.28,0,0,0,2.54-3.31c-3.74-6.43-7.65-12.58-13.77-17-1.52-1.09-4.05.75-3.31,2.54a73.64,73.64,0,0,0,7.93,14.53l.81-3.08c-1.93.84-7.74-13-8.52-14.55-.93-1.87-3.51-1.14-4.11.54-1,2.76.23,5.41,1.2,8,1.12,3,4.26,7.22,4.11,10.4l3.85-1.6c-5-4.58-6-11.78-9-17.66-1-2.09-4.15-1-4.19,1.13A40.05,40.05,0,0,0,269,161.68l3.54-2.73c-6-6.72-6.77-16.37-10.62-24.27a2.27,2.27,0,0,0-3.89,0c-4,8.61.54,17.1,4.39,24.9l3.08-3.08c-3.3-1.61-6.68-3.69-7.81-7.37-.38-1.23-2.66-7.71-2-8.84l-1.94,1.11c-3,.39,2.69,11.77,3.13,12.54l1.95-3.39c-2.67.3-4,.56-6.05-.72-1.35-.83-1.92-1.33-3.56-1.17-2.32.24-3.3,3.91-.6,4.43,8.64,1.66,3.38-11.15,1.8-14.6-1.21-2.63-5.09-.35-3.89,2.27.5,1.09,1.89,7.72,3.29,8l-.6,4.42c.78-.08,2.72,1.93,3.82,2.19,1.8.42,4-.1,5.79-.3a2.29,2.29,0,0,0,1.94-3.39c-1.75-3.07-3.05-5.89-2.9-9.47.06-1.39.2-2.69-.67-3.91a3.34,3.34,0,0,0-5.84.52c-.7,1.65.18,3.49.55,5.15a63.41,63.41,0,0,0,1.84,7.58c1.54,4.19,5.66,7,9.51,8.84a2.27,2.27,0,0,0,3.08-3.08c-3-6-7.56-13.58-4.39-20.34H258c4.1,8.39,4.94,18,11.33,25.18,1.81,2,4.53-.56,3.53-2.73a35,35,0,0,1-3.16-15.56L265.54,145c3.14,6.33,4.23,13.62,9.66,18.58a2.29,2.29,0,0,0,3.85-1.59c.11-2.51-1.07-4.3-2.13-6.53s-4.33-8-3.35-10.7l-4.11.54c2.29,4.61,4.18,10.17,7.29,14.3a5.64,5.64,0,0,0,7.38,1.86,2.26,2.26,0,0,0,.81-3.08,69.47,69.47,0,0,1-7.48-13.46l-3.3,2.55c5.43,3.92,8.84,9.68,12.15,15.37l2.55-3.31c-6.85-1.26-13.68.95-20.6-.29-7.15-1.28-13.71-4.43-19.87-8.19l-1.13,4.2c8.14.78,14.47,6.94,22.41,8.75,3.47.8,6.89,2.24,10.4,2.77s7.42-.12,10.65,2c1.82,1.19,4.43-1.25,3.08-3.08-.71-1-.55-1.28-1-.62l-2.54,1c1.37.47,3,1.95,4.21,2.78,1.79,1.24,4.44-1.29,3.09-3.08-3.16-4.17-6.82-8.26-9.31-12.87a32.89,32.89,0,0,0-9-10.91,2.32,2.32,0,0,0-2.73-.36,4.14,4.14,0,0,1-3.42,1.13,9.66,9.66,0,0,0-1.19-1c-1.23-.55-8.42-2.78-4-5.83a2.28,2.28,0,0,0,0-3.89c-4.68-2.85-12.19,1-16.78,2.64-5,1.8-7,4.27-4.66,9.55l3.54-2.73-1.06-1.28-3.19,3.18a3.65,3.65,0,0,0,2,1.26c2.82.82,3.87-3.35,1.19-4.34a19.4,19.4,0,0,0-9.33-1.16l1.6,3.84c1.59-2.05,4.37-3,6.65-4.07a65.73,65.73,0,0,1,8.82-3.64c4.79-1.52,9.85-1.56,14.49-3.52l-3.31-2.55a18.14,18.14,0,0,0,2.85,15.13c1.16,1.63,4.4,1.3,4.19-1.14a57.21,57.21,0,0,0-2.36-12.35c-.52-1.68-3.27-2.41-4.11-.54A103.13,103.13,0,0,0,264,142.07l4.34,1.2a21.74,21.74,0,0,1,11.51-14.36l-2.73-3.54a30.41,30.41,0,0,0-6,10.55,2.26,2.26,0,0,0,3.76,2.19,44.82,44.82,0,0,0,10.39-18.66,2.27,2.27,0,0,0-2.77-2.77c-7.84,2.72-16.21,4.91-23.65,8.61-2.49,1.23-.58,4.45,1.74,4.11l13.23-1.91-1.2-4.34c-6.19,2.08-12.28,4.27-17.63,8.11a2.25,2.25,0,0,0,2.27,3.89c8.32-3.93,17.19-6.63,24.95-11.68l-2.73-3.54-.69.61c-1.66,1.46.09,4.53,2.19,3.77a10.07,10.07,0,0,1,5-.56l-2.17-2.85c-1.11,3.9-4.06,7.07-6,10.57a72.15,72.15,0,0,0-4.43,9.62l4.35,1.2c1.28-5.08,3.8-9.6,6.22-14.21,2.12-4.05,4.91-7.73,7.05-11.7.95-1.76,1.39-3.9-.78-5.1-2.74-1.51-5.3,1.53-7.35,2.78-7.12,4.31-15.78,5-22.88,9.48-8.48,5.34-15.07,12-25.5,13.26l1.13,4.2,9.52-5.06c3.29-1.75,6.85-4.31,10.68-4.41,2.9-.07,2.91-4.58,0-4.5Z"/><path class="cls-2" d="M234.05,140c9.19-5.76,18.26-12,28-16.79,9.36-4.65,19.78-6.54,29-11.22,1.94-1,.23-3.9-1.7-2.92-9.24,4.67-19.7,6.58-29.05,11.22-9.73,4.83-18.8,11-28,16.79-1.84,1.15-.14,4.08,1.71,2.92Z"/><path class="cls-1" d="M251.14,138.5c2,1,4.08,1.94,6,3.05,3.63,2.07,2.37,3.25,2.16,6.42a3.87,3.87,0,0,0,4.13,4.33,2.3,2.3,0,0,0,2.17-1.66c.48-2.2-.1-3.44-1.32-5.27-1.4-2.1-2.82-3.64-3.56-6.12-.68-2.29-.18-2.29,1.63-3.73,4.14-3.31,10.65-6.84,7.72-13L267,125.63c-.11-1.34-.65-1.8-1.6-1.39-.77.13-1.54.25-2.31.34-1.53.23-3.08.4-4.59.78a16.08,16.08,0,0,0-5.65,2.56c-2.36,1.74-5,5-3.81,8.13,1,2.68,5.37,1.52,4.35-1.2-1.23-3.24,6-5.12,7.83-5.46,2.42-.47,5.54-.22,7.72-1.45,2.58-1.46,2.86-4.58.34-6.2-2-1.31-4,1.2-3.08,3.08,1.65,3.47-10,8-10.43,11.88-.2,1.83.61,4,1.3,5.63.48,1.17,4.43,6.06,4.19,7.12l2.18-1.66c2.52-.1,1-5.55.1-6.79-2.21-3.26-6.79-4.69-10.15-6.39-2.58-1.31-4.86,2.58-2.27,3.89Z"/><path class="cls-2" d="M184.78,192.79a2.55,2.55,0,0,1,2.47.31,2.26,2.26,0,0,0,3.08-.8,12.06,12.06,0,0,1,2.33-3.52c2-2.1-1.17-5.28-3.18-3.19a15.81,15.81,0,0,0-3,4.43l3.08-.8a7.15,7.15,0,0,0-7-.32,2.25,2.25,0,0,0,2.27,3.89Z"/><path class="cls-2" d="M131.54,119.78c16.78,3.52,35.58-.37,50.79,9,2.47,1.53,4.73-2.37,2.27-3.89-15.74-9.73-34.56-5.86-51.87-9.48-2.82-.6-4,3.74-1.19,4.34Z"/><path class="cls-2" d="M170.11,120.53A92.51,92.51,0,0,0,154.83,116c-5.14-1-9.86-1.26-14.57-3.65-2-1-4.07-1.59-5.74.37a3.09,3.09,0,0,0-.64,3.31c.25.63,1.59,2.37,1.32,1.39l1.58-2.77c-1,2.18-.62,2.59,1,1.22l2.08-1.16c.53-.3,5-3.47,4.9-3.49-2.82-.46-4,3.43-1.2,4.34l26.76,8.73c3,1,14.13,7,15.13.6s-8.7-5.92-12.23-6.75c-8.45-2-16.7-6.4-24.72-9.68-2.68-1.1-3.85,3.26-1.2,4.34,5.62,2.3,11.23,4.62,16.85,6.9a51.12,51.12,0,0,0,8.69,2.95c1.22.26,7.91,1.68,8.56.53-.27.47-16.69-5.45-18.21-5.94l-18.43-6-1.2,4.34c7.44,1.21,6.34-10.12-1.27-7.28a48.41,48.41,0,0,0-7.47,4.09c-1.17.7-2.56,1.44-2.88,2.92-.81,3.73,3.42,4.7,6,3.7a2.31,2.31,0,0,0,1.58-2.77,2.76,2.76,0,0,0-1.18-1.88c-1.77-1-.32,1.8.42,2.46,2,1.77,5.44,2.08,7.87,2.43a98.25,98.25,0,0,1,22.25,5.67c2.7,1.05,3.87-3.3,1.2-4.35Z"/><path class="cls-3" d="M92,202.76a35.26,35.26,0,0,0,3.71,5.3c1.26,1.5,3.92.28,3.85-1.59a13,13,0,0,1,.18-3.05,2.31,2.31,0,0,0-1.57-2.77,2.27,2.27,0,0,0-2.77,1.57,18.4,18.4,0,0,0-.35,4.25l3.85-1.6a28,28,0,0,1-3-4.39c-1.43-2.52-5.32-.25-3.89,2.28Z"/><path class="cls-4" d="M188.14,152.51c3.38.76,6.53,2.28,9.93,3.06a56.19,56.19,0,0,0,10.09,1.3c5.8.24,5.79-8.77,0-9-6.34-.27-11.57-2.67-17.63-4-5.64-1.26-8.05,7.42-2.39,8.69Z"/><path class="cls-5" d="M33.29,167c11.92,8.21,26,12,40.06,14.65,6.77,1.29,13.59,2.39,20.34,3.84,7.5,1.6,14.8,4.06,22.33,5.46,16.75,3.09,33-1,49.42-3.84,15.92-2.76,30.08-7.48,41.89-19a9.19,9.19,0,0,0,1.41-10.92c-2.17-3.7-6.18-4.77-10.17-4.14a106.23,106.23,0,0,1-19.5,1.56c-6.61-.18-12.87-1.86-19.28-3.29-13.49-3-27.24-3.57-41-3.54a638.64,638.64,0,0,0-85.05,6.06c-8.84,1.21-8.34,15.72,0,17.37A395.19,395.19,0,0,0,171.44,174c4.82-.75,7.48-6.78,6.3-11.08-1.42-5.14-6.26-7-11.08-6.3a369.42,369.42,0,0,1-128.13-2.72v17.37a602.37,602.37,0,0,1,83.71-5.42,180.29,180.29,0,0,1,39.37,4.44c14.13,3.15,27.54,2.43,41.74.19l-8.76-15.05c-10,9.76-22.26,12.3-35.62,14.64-14.41,2.53-28.37,6-42.93,2.51-12.87-3.11-25.63-5.9-38.63-8.4-12.39-2.4-24.51-5.45-35-12.69-4-2.76-10-.75-12.32,3.23-2.62,4.47-.79,9.56,3.23,12.32Z"/><path class="cls-6" d="M83.7,170.9a36.9,36.9,0,0,0,9.79,3.74c2.82.64,4-3.71,1.2-4.34A32.72,32.72,0,0,1,86,167c-2.54-1.4-4.81,2.49-2.27,3.89Z"/><path class="cls-6" d="M76.74,166a9.08,9.08,0,0,1,5.91,3.9l3.08-3.08a29.89,29.89,0,0,0-6.36-3.27c-2.36-.9-4.07,3.08-1.73,4.11,3.48,1.55,6.44,4.86,9.74,6.86a56.75,56.75,0,0,0,11,5.05,2.26,2.26,0,0,0,2.77-1.57,23.1,23.1,0,0,1,8-14.88c1.77-1.54-.13-4.28-2.19-3.77-4.48,1.12-8.6-.8-13.06-.32-4.09.45-7.87,3.25-12,1.84l-.6,4.42c4.72-.24,7.27,5.93,10.66,8.23,2.59,1.76,3.17.1,5.69-.43l-2.54-1c.49.81,4.31-1.79,4.92-2.39a8.49,8.49,0,0,0,1.6-2.08,3.82,3.82,0,0,0,.32-3.09,2.19,2.19,0,0,0-1.58-1.57,9.44,9.44,0,0,0-2.18-.14,33.49,33.49,0,0,1-4.67.26c-1.56-.08-2.81,0-3.79,1.3-2.31,3.17.91,5.76,3.64,6.81a2.26,2.26,0,0,0,2.77-2.77c-1.69-4.8-5.92-5.91-10-8.25l-.53,4.12a28.19,28.19,0,0,1,18.22-1c2.8.77,4-3.57,1.19-4.34a32.28,32.28,0,0,0-20.61,1c-1.72.67-2.35,3.08-.54,4.12,2.6,1.49,6.83,2.44,7.92,5.56l2.77-2.77c-1.54.77-1.55,1.24,0,1.4a2.52,2.52,0,0,0,1.22,0c1.13-.05,2.4-1.11,3.42-1l-1.58-1.57c.21,1-4.1,4.33-4.42,6.09a3.84,3.84,0,0,0,1.84,4.08c4.18,2.2,5.66-3.27,4-6.09a2.32,2.32,0,0,0-2.54-1,3.46,3.46,0,0,0-1.33.39c-.63.8-1.2.66-1.69-.43-1.75-.93-3.22-3.44-4.71-4.79-2.2-2-4.42-3.29-7.43-3.13a2.26,2.26,0,0,0-.6,4.42c4.7,1.6,8.3-.76,12.87-1.55,4.91-.86,9.58,1.29,14.62,0l-2.19-3.77a26.73,26.73,0,0,0-9.13,16.87l2.77-1.57a51.21,51.21,0,0,1-11.2-5.41c-2.86-1.86-5.31-4.66-8.44-6l-1.74,4.11a25,25,0,0,1,5.28,2.81c1.84,1.26,4.34-1.24,3.08-3.08a13.65,13.65,0,0,0-8.6-6c-2.82-.65-4,3.7-1.19,4.34Z"/><path class="cls-4" d="M7.26,147.31c9.39,12.14,19.4,24.5,33.8,30.82,4.66,2,8.89-3,5.46-7.08A13.41,13.41,0,0,1,44,166.7l-7.52,4.38L47,182.29l5.46-7.07A97.22,97.22,0,0,1,23.65,156c-4.18-4-10.34,2.15-6.37,6.37A109.16,109.16,0,0,0,51.45,187l3.47-8.23c-6.56-2.1-12.92-4.28-18.58-8.31-4.13-2.94-9.43,3.83-5.46,7.07a78.29,78.29,0,0,0,47.33,17.88c4.42.15,6.2-6.29,2.28-8.39q-11-5.88-22.52-10.74c-5.26-2.22-9.88,5.45-4.55,7.78q16.58,7.25,33.5,13.62l-3.15-5.54c.89-.62.63-.91-.78-.89l-3.32-1-6.64-2V197a46.51,46.51,0,0,1,17.78.88c4.86,1.17,8-5.66,3.48-8.23l-4.47-2.51-2.27,8.4c4.92.6,9.79,1.5,14.63,2.58l-2-7.53c-2.92,3-7.76,1.8-11.39,1v8.68a83.53,83.53,0,0,1,25.69.56c5.8,1,7.7-6.48,2.39-8.69L109.4,189l-1.19,8.85a82.88,82.88,0,0,1,21.25,2.86l1.2-8.85a93.33,93.33,0,0,1-12.84.38l1.2,8.84q20.43-2.87,40.64-7l-5.54-3.15.13.86.45-3.47c-.35.7-4.73.91-5.53,1-2.75.39-5.53.62-8.3.76a105,105,0,0,1-14.73-.38v9c13-.85,26.18-1.73,38.78-5.25,12.32-3.44,23.67-9.64,36.26-12.18L197.71,173a48.38,48.38,0,0,1-14.52,4.57l3.47,8.23a129.31,129.31,0,0,1,22.8-12.11c5.3-2.14,3-10.86-2.39-8.68a140.56,140.56,0,0,0-24.95,13c-4.44,2.93-1.5,9,3.47,8.23a55.57,55.57,0,0,0,16.67-5.49c4.78-2.41,1.3-9.19-3.47-8.23-12,2.44-23,8.21-34.68,11.72-12.32,3.71-25.2,4.55-38,5.39-5.84.39-5.75,8.48,0,9a105.67,105.67,0,0,0,24.56-.59c5.88-.83,13.27-2,12.11-9.6-.39-2.51-3.4-3.59-5.54-3.15q-20.22,4.18-40.65,7.06c-5.21.73-3.64,8.65,1.2,8.84a93.33,93.33,0,0,0,12.84-.37c4.79-.47,6.41-7.44,1.19-8.85a93.44,93.44,0,0,0-23.64-3.18c-5.47,0-5.61,7-1.2,8.85l7.49,3.12,2.39-8.69a97.93,97.93,0,0,0-30.47-.55c-4.46.6-4.12,7.79,0,8.68,7,1.51,14.69,2.21,20.15-3.33,2.28-2.32,1.38-6.77-2-7.52-5.63-1.27-11.3-2.2-17-2.91-4.59-.57-5.92,6.34-2.28,8.39l4.47,2.51,3.47-8.23a58.21,58.21,0,0,0-22.58-.89c-4.64.69-3.91,7.53,0,8.69,5.81,1.71,20.32,8.11,21.83-2.46A4.69,4.69,0,0,0,89.31,189Q73.49,183,58,176.23L53.42,184q11.51,4.86,22.52,10.74l2.27-8.39a68.19,68.19,0,0,1-41-15.25l-5.46,7.08c6.25,4.45,13.49,6.9,20.74,9.21,4.77,1.53,8.16-6.08,3.47-8.23A102.56,102.56,0,0,1,23.65,156l-6.37,6.37A104,104,0,0,0,47.94,183c4.5,2,9.19-3.11,5.46-7.07L42.87,164.71c-3-3.17-9.06.1-7.53,4.38a25.73,25.73,0,0,0,4.81,8.33l5.46-7.07c-13.73-6-23-17.85-32-29.41-3.54-4.58-9.88,1.84-6.37,6.37Z"/><path class="cls-4" d="M185.44,152.34c2.24-2.92,7.53-1.34,10.51-.81,3.86.69,7.47,1.24,11.37.63,5.45-.84,3.38-8.31-1.19-8.85A96,96,0,0,1,192,140.5l-1.2,8.85L237,154.6c3.25.37,5.83-4.16,3.89-6.78-1.81-2.45-3.89-4.65-7.24-3.44-2.92,1.06-3.62,4-3.67,6.82l2.24-3.89-.82.36,3.47-.45-.95-.42c-3.07-2.84-9.14-.1-7.52,4.38a14.14,14.14,0,0,0,1,2.42c2.72,4.58,9.14,1.41,8.23-3.47a7.54,7.54,0,0,0-1-2.42c-2.57-4.33-9.72-1.51-8.23,3.47a23.1,23.1,0,0,1,1,7.34c-.15,5.8,8.86,5.79,9,0a30.77,30.77,0,0,0-1.3-9.73l-8.23,3.47c.08-.14.1,0,.09.26l8.23-3.47-.09-.26-7.53,4.38c2.83,2.61,5.65,3.49,9.21,1.92A4.43,4.43,0,0,0,239,151.2a1.43,1.43,0,0,1,.22-1.21l-2.07,2.69.52-.29-3.47.45.66.26L232.18,151c.3.46.62.91.95,1.34l3.89-6.78-46.26-5.25c-5.13-.58-6,7.55-1.2,8.85a113.87,113.87,0,0,0,16.57,3.13l-1.2-8.84c-4.74.73-9.84-1.62-14.6-1.73a14.51,14.51,0,0,0-12.67,6c-3.53,4.6,4.29,9.09,7.78,4.55Z"/><path class="cls-4" d="M219.55,163.4a65.73,65.73,0,0,0,7.16.5l-2.28-8.39a84.57,84.57,0,0,1-17.15,9l4.39,7.52a11.08,11.08,0,0,1,5.51-3.37l-5.54-5.54c-2.61,7.69-12.09,9.25-19,10.55-10.54,2-21.17,3.41-31.65,5.69l2.39,8.69a274.66,274.66,0,0,0,66.89-25.53l-6.62-5.09a10.43,10.43,0,0,1-9.72,8l3.18,7.69a85.8,85.8,0,0,1,28.17-19.47c4.16-1.75,4.39-9.46-1.19-8.85a429.31,429.31,0,0,1-46.46,2.59c-5.79,0-5.81,9,0,9a431.87,431.87,0,0,0,46.46-2.59l-1.2-8.85a96.75,96.75,0,0,0-32.15,21.79c-2.61,2.69-.82,7.85,3.19,7.68a19.64,19.64,0,0,0,18.41-14.56,4.56,4.56,0,0,0-6.62-5.09A265.18,265.18,0,0,1,161,179.32c-5.66,1.34-3.25,9.91,2.39,8.69,12.31-2.68,25-3.84,37.19-6.82,8.81-2.15,16.75-6.76,19.78-15.72,1.13-3.31-2.37-6.41-5.54-5.54a20,20,0,0,0-9.48,5.69c-2.84,3-.08,9.22,4.38,7.53a95.18,95.18,0,0,0,19.3-9.86c3.64-2.44,2.36-8.32-2.27-8.39a68.34,68.34,0,0,1-7.16-.51c-5.74-.7-5.69,8.31,0,9Z"/><path class="cls-4" d="M163.39,140.42l-1.63-.28v8.69a65.89,65.89,0,0,1,23.43.35L184.11,141a13.41,13.41,0,0,1-7.46,2.21c-4.88,0-6.37,8.1-1.2,8.84,3.58.52,7.11,1.18,10.63,2,5.64,1.3,8-7.38,2.4-8.68q-5.28-1.23-10.63-2l-1.2,8.84a22.28,22.28,0,0,0,12-3.44c3.06-1.9,2.91-7.45-1.08-8.23a78.66,78.66,0,0,0-28.21-.35c-4.32.71-4.29,7.94,0,8.69l1.63.28c5.67,1,8.1-7.7,2.39-8.69Z"/><path class="cls-4" d="M174.61,145a37.74,37.74,0,0,0-6.46-3.21c-2.2-.87-5,1-5.54,3.15-.6,2.59.79,4.6,3.14,5.54.48.19.47.18,0,0l.69.31c.4.18.8.38,1.19.58.84.44,1.66.92,2.46,1.43a4.54,4.54,0,0,0,6.16-1.62,4.6,4.6,0,0,0-1.62-6.16Z"/><path class="cls-4" d="M15.74,147l10.9,16.19c3.22,4.79,10.51.62,7.78-4.54a18.83,18.83,0,0,1-2-12.27H23.7a19.85,19.85,0,0,0,5.77,9.52c1.92,1.75,5.85,1.88,7.08-.92a8.1,8.1,0,0,1,3.18-4c2.16-1.41,3.32-5.18.91-7.08-2.71-2.12-5.2-2.7-8.29-.88-3.77,2.22-2.26,8.52,2.27,8.39,20.81-.58,41.63-.84,62.45-1.11,10.11-.14,20.22-.27,30.33-.46s20-1,29.71,1.85c5.57,1.64,7.95-7.05,2.4-8.68-9.35-2.75-18.91-2.42-28.54-2.24-10.71.21-21.41.35-32.12.49-21.41.29-42.82.55-64.23,1.15l2.28,8.39-.31.12-3.18-1.32.86.67.91-7.07a16.41,16.41,0,0,0-6.41,7.26l7.07-.91a11,11,0,0,1-3.45-5.54c-1.12-4-7.9-4.56-8.69,0a28.91,28.91,0,0,0,2.94,19.2l7.78-4.54-10.9-16.19c-3.22-4.78-11-.28-7.78,4.54Z"/><path class="cls-4" d="M34.11,159.24c6.35-3.48,15-3.66,22.07-4.52,7.6-.92,15.22-1.61,22.86-2.16,14.93-1.07,29.92-1.76,44.89-2.23,30.54-1,60.87,5.26,91,9.64,2.83.41,4.06-3.93,1.19-4.35-31.11-4.52-62.37-10.86-93.93-9.74-15.85.56-31.73,1.25-47.55,2.51-7.92.63-15.83,1.44-23.7,2.5-6.41.87-13.33,1.3-19.09,4.46-2.55,1.39-.28,5.28,2.27,3.89Z"/><path class="cls-4" d="M31.8,159.31A45.87,45.87,0,0,0,43,172.85c2.23,1.81,5.44-1.35,3.19-3.19A42.09,42.09,0,0,1,35.69,157c-1.39-2.54-5.28-.27-3.89,2.28Z"/><path class="cls-4" d="M43.28,170.29c6.5,4.26,13.63,7.17,20.91,9.81,8,2.91,16.11,5.88,24.5,7.57,15.72,3.18,32.8,3.54,48.75,2.16s30.7-6.62,45.22-12.77c13.77-5.84,27.94-11.65,39-22.05,2.11-2-1.07-5.17-3.18-3.18-10.33,9.72-23.66,15.18-36.52,20.68-14.78,6.31-30,11.78-46.17,13-15.31,1.11-31.68.87-46.72-2.31-7.58-1.6-14.88-4.24-22.15-6.85-7.44-2.67-14.71-5.54-21.34-9.9-2.43-1.59-4.69,2.31-2.28,3.89Z"/><path class="cls-1" d="M69.67,172A10,10,0,0,0,68.32,174a.57.57,0,0,0,.34.83c-.71-.15-1.89,2.49-2.09,2.84a.56.56,0,0,0,1,.57c1.36-2.06,3.16-4,3.2-6.54a.57.57,0,0,0-.84-.49c.78-.42,1.53-5.45,1.53-6.78,0-.61-1-.79-1.11-.15a37.73,37.73,0,0,0-.48,5.72l1.11-.15c-.77-3-.35-5.78-.9-8.74a28.66,28.66,0,0,0-2.94-7.41l-1,.57a20.93,20.93,0,0,1,3.94,10.53l1.11-.15c-2-5.88-3.86-11-7.32-16.2-.4-.6-1.37,0-1,.57,3.36,5.05,5.3,10.22,7.2,15.93.19.56,1.17.51,1.11-.15a22.18,22.18,0,0,0-4.09-11.1.57.57,0,0,0-1,.57c1.69,3.36,3,6.28,3,10.07a20.78,20.78,0,0,0,.7,5.81A.57.57,0,0,0,71,170a34.15,34.15,0,0,1,.44-5.42l-1.11-.15c0-1.93-1.15,4.57-1.18,4.81-.13.93-.09,1.9-.21,2.85,0,.44.51.67.85.48-.9.49-2.52,4.09-3.19,5.1l1,.57a14.59,14.59,0,0,1,2.44-3.4.56.56,0,0,0-.25-.94l.74-1c.44-.56-.35-1.36-.8-.79Z"/><path class="cls-7" d="M246.68,146l-.78-.25h-2.7l.85.08C244.93,145.82,245.81,145.9,246.68,146Z"/><path class="cls-3" d="M248.54,146.31l-1.87-.13-.91-.06c-.57-.05-1.14-.09-1.72-.12l-.4,0-.45,0v-.45H246Z"/><path class="cls-7" d="M128.18,121.05C86,118.37,42.69,124.29,4.71,143.53l.12.3A68.58,68.58,0,0,1,16.3,144a22.8,22.8,0,0,1,3.28-.12c33.71-2.32,70.86-3,107.14-2.64,40.33.43,79.84,2.15,118.5,4.22C207,133.47,168,123.59,128.18,121.05Z"/><path class="cls-3" d="M247,145.81l-1.78-.09c-32.16-1.72-74.69-3.74-118.49-4.21-39.54-.42-75.58.46-107.13,2.63a23.89,23.89,0,0,0-3.26.13,69.15,69.15,0,0,0-11.49-.22H4.68l-.06-.15-.12-.28-.09-.2.19-.1c34.84-17.65,77.58-25.43,123.6-22.5,43.79,2.79,85.57,14.53,117.09,24.45ZM107.86,141q9.28,0,18.86.1c43,.46,84.79,2.42,116.73,4.12-31.28-9.8-72.32-21.17-115.28-23.9-45.81-2.91-88.36,4.8-123.07,22.3a69.34,69.34,0,0,1,11.23.24,22.28,22.28,0,0,1,3.26-.13C46,141.87,75.66,141,107.86,141Z"/><path class="cls-7" d="M108,145.35q4.45.38,8.91.72l24.75.38c3.41-.25,6.82-.6,10.22-1Z"/><path class="cls-3" d="M141.67,146.67l-24.77-.38c-2.79-.21-5.57-.44-8.35-.66l-.58,0,0-.45,43.88.11,0,.45C149.1,146,145.41,146.4,141.67,146.67Zm-28-1.08,3.21.25,24.73.38c2.1-.15,4.19-.34,6.12-.54Z"/><path class="cls-3" d="M5.2,143.09c59.67-29.41,128.22-26.13,191.37-11,17.65,4.22,35.06,9.38,52.28,15.11,1.38.46,2-1.72.6-2.17-61.55-20.48-128.69-34.86-193.36-21.65a215.19,215.19,0,0,0-52,17.78c-1.3.64-.16,2.59,1.14,2Z"/><path class="cls-3" d="M127.45,121.17a92.91,92.91,0,0,1,18.74-14,1.13,1.13,0,0,0-1.14-1.94,95.13,95.13,0,0,0-19.19,14.35c-1,1,.55,2.6,1.59,1.6Z"/><path class="cls-3" d="M187.89,130.13a11.52,11.52,0,0,0,6.39-1.76l-1.65-.68.68,2.44a1.13,1.13,0,0,0,2.17-.6l-.68-2.43a1.14,1.14,0,0,0-1.65-.68,9.34,9.34,0,0,1-5.26,1.46,1.13,1.13,0,0,0,0,2.25Z"/><path class="cls-3" d="M198.42,132.44a12.45,12.45,0,0,0,6.4-1.6l-1.66-.67.68,2.18c.43,1.38,2.61.79,2.17-.6l-.68-2.18a1.14,1.14,0,0,0-1.65-.67,10.16,10.16,0,0,1-5.26,1.29,1.13,1.13,0,0,0,0,2.25Z"/><path class="cls-3" d="M209.82,135.12a8.87,8.87,0,0,0,4.51-1.13l-1.65-.67.46,1.47c.43,1.38,2.6.79,2.17-.6l-.46-1.47a1.14,1.14,0,0,0-1.65-.68,6.55,6.55,0,0,1-3.38.83,1.13,1.13,0,0,0,0,2.25Z"/><path class="cls-3" d="M146,108.15a131.5,131.5,0,0,0,20.81,8.28c3.67,1.16,7.35,2.24,11,3.36,1.49.45,4.28.75,5.49,1.71,2.26,1.79,1.3,4.49,1.1,6.88-.12,1.44,2.14,1.44,2.25,0,.21-2.45,1.33-5.94-.64-7.89-2.35-2.32-7.7-2.9-10.76-3.83-9.61-2.89-19.19-5.83-28.14-10.46-1.29-.66-2.43,1.28-1.14,2Z"/><path class="cls-3" d="M92.07,201.6c56.8,3.18,116.94-11.1,157.87-52.72a1.12,1.12,0,0,0-1.59-1.59c-40.53,41.21-100.06,55.2-156.28,52.06-1.45-.08-1.44,2.17,0,2.25Z"/><path class="cls-3" d="M74.21,163.47c7.13-2.28,14.39-4.63,21.93-4.94a36.68,36.68,0,0,1,7.4.39c1,.17,3.78.32,4.39,1.06,1.91,2.35-2.35,6-3.38,7.75a36.83,36.83,0,0,0-3.4,7.28c-.14.45-.76,3.91-1.05,4.14-1.13.92-3.8-1.4-4.8-2L75.48,166c-.63-.36-1.2.62-.57,1l25.24,14.2a.57.57,0,0,0,.83-.34,37,37,0,0,1,7.35-16.77c1.68-2.25,3.53-3.59.61-4.95-10.65-5-24.73-.05-35,3.24-.69.22-.4,1.31.3,1.08Z"/><path class="cls-3" d="M100.43,181.5a.76.76,0,0,1-.39-.1L74.8,167.21a.72.72,0,0,1-.39-.64.87.87,0,0,1,.41-.73.76.76,0,0,1,.77,0L95.41,177c.23.13.53.34.87.58,1.1.75,2.93,2,3.68,1.41a21.62,21.62,0,0,0,.72-2.87c.12-.59.21-1,.26-1.17a36.42,36.42,0,0,1,3.41-7.32,14.63,14.63,0,0,1,1.21-1.59c1.49-1.8,3.52-4.27,2.19-5.91-.42-.51-2.29-.73-3.4-.87-.34,0-.63-.07-.85-.11a36.19,36.19,0,0,0-7.35-.38c-7.4.3-14.61,2.6-21.57,4.83l-.3.1a.74.74,0,0,1-1-.5.8.8,0,0,1,.51-1l1.36-.43c9.94-3.2,23.57-7.58,33.83-2.8,1,.46,1.5.94,1.63,1.51.2.85-.49,1.7-1.36,2.78-.25.31-.52.64-.79,1a36.51,36.51,0,0,0-7.31,16.67.66.66,0,0,1-.38.51A.89.89,0,0,1,100.43,181.5ZM75.2,166.19a.28.28,0,0,0-.15,0,.43.43,0,0,0-.19.34.25.25,0,0,0,.16.24L100.26,181a.41.41,0,0,0,.36,0,.23.23,0,0,0,.14-.17A36.94,36.94,0,0,1,108.15,164c.27-.36.54-.7.8-1,.8-1,1.42-1.75,1.27-2.39-.09-.42-.55-.81-1.38-1.2-10.1-4.7-23.63-.36-33.51,2.82L74,162.6a.35.35,0,0,0-.22.46.29.29,0,0,0,.38.2l.3-.1c7-2.23,14.23-4.55,21.69-4.85a35.61,35.61,0,0,1,7.44.39l.83.11c1.34.15,3.17.37,3.7,1,1.57,1.92-.61,4.55-2.19,6.48a13.39,13.39,0,0,0-1.17,1.53,36.09,36.09,0,0,0-3.37,7.23c0,.13-.14.59-.25,1.12-.48,2.29-.67,3-.88,3.13-1,.82-2.86-.46-4.21-1.39a8.79,8.79,0,0,0-.84-.55L75.37,166.24A.3.3,0,0,0,75.2,166.19Z"/><path class="cls-3" d="M88.9,201.92a50.07,50.07,0,0,0,8.85,9.31,1.14,1.14,0,0,0,1.7-1,8.15,8.15,0,0,1,4.27-8.35c1.27-.7.13-2.64-1.14-1.94a10.34,10.34,0,0,0-5.39,10.29l1.7-1a48.19,48.19,0,0,1-8.4-8.95c-.9-1.14-2.48.47-1.59,1.59Z"/><path class="cls-3" d="M177.23,192.37a17.19,17.19,0,0,1,5.15.52c1.94.54,2.93,1.61,4.67,2.25,1,.37,1.43.66,2.46.05,1.46-.87,2.79-4,3.76-5.23a39.74,39.74,0,0,1,5.7-5.68c1.12-.93-.48-2.51-1.59-1.59a40.16,40.16,0,0,0-5.27,5.16c-.72.86-2.85,4.93-3.67,5.16s-3.27-1.54-4.16-1.86a18.36,18.36,0,0,0-7.05-1c-1.44,0-1.45,2.3,0,2.25Z"/><path class="cls-3" d="M231.82,140.09a171.94,171.94,0,0,1,41.39-23.23q5.07-2,10.27-3.62c1.14-.37,4.88-2.17,6-1.78,3.36,1.19,0,5.49-.86,7.42a204.57,204.57,0,0,1-11.29,21.5,1.13,1.13,0,0,0,1.94,1.14,192.2,192.2,0,0,0,13.33-26.22c.85-2.08,2.07-5-.78-6.12-2.69-1-7.14,1.31-9.65,2.13a173.4,173.4,0,0,0-51.46,26.84c-1.14.86,0,2.82,1.14,1.94Z"/><path class="cls-3" d="M243.05,154.94c15.85,8.09,33.26,13.52,51.09,14.5,6,.34,5.42-3.18,2.53-7.29a227.58,227.58,0,0,0-17-21.28c-1-1.08-2.56.52-1.59,1.6,4.67,5.18,9.12,10.55,13.29,16.15,1.09,1.47,6.26,6.84,4.4,8.66-1.07,1.06-10.74-1-11.74-1.18A131.19,131.19,0,0,1,244.19,153c-1.29-.66-2.43,1.28-1.14,1.94Z"/><circle class="cls-5" cx="42.49" cy="150.93" r="7.38"/><path class="cls-3" d="M42.49,159.12a8.19,8.19,0,1,1,8.19-8.19A8.2,8.2,0,0,1,42.49,159.12Zm0-15.53a7.34,7.34,0,1,0,7.34,7.34A7.34,7.34,0,0,0,42.49,143.59Z"/><circle class="cls-3" cx="42.49" cy="150.93" r="5.19"/><path class="cls-1" d="M63.28,183.37l-.66-.61c13.86-15,.11-34,0-34.17l.72-.54C63.46,148.25,77.65,167.77,63.28,183.37Z"/><path class="cls-1" d="M65.14,181.07l-.57-.7c4.4-3.61,6.75-7.8,7-12.45.48-8.89-7-16.6-7-16.68l.65-.63c.31.33,7.79,8.06,7.29,17.36C72.21,172.88,69.74,177.29,65.14,181.07Z"/><path class="cls-3" d="M4,143.32a96.94,96.94,0,0,0,32.05,38.44c16.35,11.49,35.6,16,54.86,19.93,1.41.29,2-1.88.6-2.17-18.6-3.84-37.25-8.07-53.18-18.91A94.75,94.75,0,0,1,6,142.18c-.61-1.31-2.55-.17-1.94,1.14Z"/><path class="cls-1" d="M69.87,160.71c1.4,3.09,1.13,7,.18,10.25-.58,2-2.33,3.22-2.07,5.36.09.72,1.21.72,1.13,0-.2-1.65,1.17-2.79,1.74-4.19a17.36,17.36,0,0,0,.89-4.41,13.63,13.63,0,0,0-.89-7.58c-.3-.66-1.27-.08-1,.57Z"/><path class="cls-3" d="M139.25,120.89a40.91,40.91,0,0,1,10.14-6.59c.66-.3.09-1.27-.57-1a42,42,0,0,0-10.37,6.77c-.54.48.26,1.27.8.79Z"/><path class="cls-3" d="M142.06,120.31a6.88,6.88,0,0,1,2.09-2.88c.55-.46-.25-1.26-.8-.8A8,8,0,0,0,141,120c-.26.67.83,1,1.09.29Z"/><path class="cls-3" d="M141,119.87h.14a.57.57,0,0,0,0-1.13H141a.57.57,0,0,0,0,1.13Z"/><path class="cls-3" d="M141.86,119.52l-1.3-.3c-.7-.16-1,.92-.3,1.09l1.3.3c.71.16,1-.93.3-1.09Z"/><path class="cls-3" d="M147.64,122.15a32.84,32.84,0,0,1,8.12-5.25c.65-.3.08-1.27-.57-1a33.53,33.53,0,0,0-8.34,5.43c-.55.48.25,1.27.79.79Z"/><path class="cls-3" d="M149.93,121.64a5.41,5.41,0,0,1,1.64-2.25c.56-.47-.24-1.26-.79-.8a6.59,6.59,0,0,0-1.94,2.75c-.26.68.83,1,1.09.3Z"/><path class="cls-3" d="M82.73,165.8a29.89,29.89,0,0,1,15.85-2.12c.71.09,1-1,.3-1.09a31.3,31.3,0,0,0-16.72,2.24c-.67.28-.09,1.25.57,1Z"/><path class="cls-3" d="M84.23,168.42a20,20,0,0,1,8.23,1c.69.23,1-.86.3-1.09a20.74,20.74,0,0,0-8.53-1c-.72.06-.73,1.19,0,1.12Z"/><path class="cls-3" d="M236.16,141.62A113.87,113.87,0,0,1,263.33,128c.68-.23.39-1.32-.3-1.08a114.55,114.55,0,0,0-27.44,13.71c-.59.41,0,1.38.57,1Z"/><path class="cls-3" d="M240.52,142.07c2-3.55,5.45-6.08,8.85-8.2.56-.34,0-1.19-.57-.84-3.55,2.21-7.07,4.88-9.19,8.58-.32.57.59,1,.91.46Z"/><path class="cls-3" d="M243.85,144a38,38,0,0,1,8-2.92.57.57,0,0,0-.3-1.09,39.26,39.26,0,0,0-8.27,3c-.64.33-.07,1.3.57,1Z"/><path class="cls-3" d="M237.16,141a6.35,6.35,0,0,0,1.57,1.1.57.57,0,0,0,.77-.77,7.12,7.12,0,0,0-1.24-1.83l-.55.94a1.23,1.23,0,0,1,.71.48.58.58,0,0,0,1-.4c0-.54,1.31-.65,1.74-.86a4.12,4.12,0,0,0,1.37-1.12.57.57,0,0,0-.55-.94,4,4,0,0,0-2.8,2.75.57.57,0,0,0,1.09.3,2.8,2.8,0,0,1,2-2l-.54-.95a4.68,4.68,0,0,1-2.36,1.32,1.54,1.54,0,0,0-1.09,1.46l1-.39a2.78,2.78,0,0,0-1.21-.78c-.56-.19-.9.56-.55.94a6.31,6.31,0,0,1,1.07,1.6l.77-.77a5.29,5.29,0,0,1-1.34-.91c-.53-.5-1.33.3-.8.79Z"/><path class="cls-3" d="M239.25,142.62a7.09,7.09,0,0,1,4.31-4.68c.67-.25.38-1.34-.3-1.08a8.27,8.27,0,0,0-5.1,5.46.57.57,0,0,0,1.09.3Z"/><path class="cls-3" d="M249,146.72a.63.63,0,0,1,0,.52c-.34.64.63,1.21,1,.57a1.83,1.83,0,0,0,0-1.66.56.56,0,0,0-.77-.2.58.58,0,0,0-.2.77Z"/></svg>