<svg id="圖層_1" data-name="圖層 1" xmlns="http://www.w3.org/2000/svg" viewBox="0 0 300 300"><defs><style>.cls-1{fill:#470e06;}.cls-2{fill:#fff;}</style></defs><title>seafood6</title><ellipse class="cls-1" cx="151.05" cy="150.94" rx="44.26" ry="37.52"/><path class="cls-2" d="M151.05,188.8c-24.6,0-44.61-17-44.61-37.86s20-37.87,44.61-37.87,44.61,17,44.61,37.87S175.65,188.8,151.05,188.8Zm0-75c-24.21,0-43.91,16.67-43.91,37.17s19.7,37.17,43.91,37.17S195,171.44,195,150.94,175.27,113.77,151.05,113.77Z"/><path class="cls-1" d="M177.26,125.08c3.22,0,3.22-5,0-5s-3.22,5,0,5Z"/><path class="cls-1" d="M115.34,69.52c11.87,14.37,18.09,32.44,30.09,46.73.72.85,1.94-.38,1.23-1.23-12-14.28-18.22-32.35-30.1-46.73-.71-.86-1.93.37-1.22,1.23Z"/><path class="cls-1" d="M114.6,69.81a576.06,576.06,0,0,0,26.54,57c.53,1,2,.11,1.5-.88a570.05,570.05,0,0,1-26.37-56.53c-.41-1-2.09-.57-1.67.46Z"/><path class="cls-1" d="M134.86,238.9c-.55-18.64,5.57-36.73,4.86-55.37,0-1.11-1.77-1.12-1.73,0,.71,18.64-5.41,36.73-4.86,55.37,0,1.11,1.77,1.11,1.73,0Z"/><path class="cls-1" d="M135.66,238.91a574.52,574.52,0,0,0,13.86-61c.18-1.09-1.48-1.56-1.67-.46a574.52,574.52,0,0,1-13.86,61,.87.87,0,0,0,1.67.46Z"/><path class="cls-1" d="M153.86,187.51q5.77,18.3,11,36.77a.87.87,0,0,0,1.67-.46q-5.23-18.47-11-36.77c-.33-1.05-2-.6-1.67.46Z"/><path class="cls-1" d="M162.52,186.93Q165,205.44,166.69,224c.1,1.1,1.83,1.11,1.73,0q-1.71-18.82-4.23-37.57c-.15-1.1-1.82-.63-1.67.46Z"/><path class="cls-1" d="M165.73,224.83a1.25,1.25,0,0,0,0-2.5,1.25,1.25,0,0,0,0,2.5Z"/><path class="cls-1" d="M165.86,224l.46.92a.87.87,0,0,0,1.5-.87l-.47-.92a.86.86,0,0,0-1.49.87Z"/><path class="cls-1" d="M186.75,169.22q18.54,5,36.93,10.46a.87.87,0,0,0,.46-1.67q-18.39-5.5-36.93-10.46a.87.87,0,0,0-.46,1.67Z"/><path class="cls-1" d="M190.7,161.51q17.07,7.89,33.76,16.52c1,.51,1.86-1,.87-1.49q-16.7-8.62-33.75-16.52c-1-.46-1.89,1-.88,1.49Z"/><path class="cls-1" d="M223.53,179.82a1.25,1.25,0,0,0,0-2.5,1.25,1.25,0,0,0,0,2.5Z"/><path class="cls-1" d="M224,178.72l1,.09a.86.86,0,0,0,.87-.86.88.88,0,0,0-.87-.86l-1-.1a.87.87,0,0,0-.87.86.89.89,0,0,0,.87.87Z"/><path class="cls-1" d="M111.54,164.13q-15,11.84-30.27,23.23c-.89.66,0,2.16.87,1.49q15.48-11.52,30.62-23.5c.87-.69-.36-1.91-1.22-1.22Z"/><path class="cls-1" d="M115.2,170.22Q98.82,179.46,82.07,188c-1,.5-.12,2,.87,1.49Q99.7,181,116.07,171.71a.86.86,0,0,0-.87-1.49Z"/><path class="cls-1" d="M82.15,189.21a1.25,1.25,0,0,0,0-2.5,1.25,1.25,0,0,0,0,2.5Z"/><path class="cls-1" d="M81.82,188.18l-.69.76a.89.89,0,0,0,0,1.22.87.87,0,0,0,1.22,0l.7-.76a.87.87,0,0,0-1.23-1.22Z"/><path class="cls-1" d="M158.58,73.17Q153,95.46,148.23,117.94c-.23,1.09,1.44,1.55,1.67.46q4.74-22.49,10.35-44.77a.87.87,0,0,0-1.67-.46Z"/><path class="cls-1" d="M158.87,73.62c2.07,13.9-2,27.81-.24,41.72.13,1.09,1.86,1.1,1.72,0-1.78-14.07,2.29-28.12.19-42.18-.16-1.09-1.83-.63-1.67.46Z"/><path class="cls-1" d="M234.52,152.2q-22.62-4-45.39-7.2c-1.08-.15-1.55,1.52-.46,1.67q22.77,3.15,45.39,7.2c1.09.19,1.56-1.48.46-1.67Z"/><path class="cls-1" d="M234.09,152.49c-13.79,3-28,0-41.86,2.71-1.09.22-.63,1.89.46,1.67,13.83-2.75,28.06.34,41.86-2.71,1.08-.24.62-1.91-.46-1.67Z"/><path class="cls-1" d="M71.57,133q21.68,7.63,43.63,14.42c1.07.33,1.52-1.34.46-1.66Q93.72,138.92,72,131.28c-1-.37-1.5,1.3-.46,1.67Z"/><path class="cls-1" d="M72.05,132.4c14.12.34,27.2,6.77,41.29,7.42,1.11.05,1.11-1.68,0-1.73-14.09-.65-27.16-7.08-41.29-7.42a.87.87,0,0,0,0,1.73Z"/><path class="cls-1" d="M212.37,64.35c-9.46,6.86-15.47,17.8-21.8,27.36q-11.37,17.15-22.21,34.61c-.59,1,.91,1.82,1.49.88Q180,110.88,190.57,94.83c6.58-10,12.83-21.85,22.68-29,.89-.65,0-2.15-.88-1.49Z"/><path class="cls-1" d="M212.42,64.51a657.51,657.51,0,0,0-37.38,66c-.49,1,1,1.87,1.5.87a657.36,657.36,0,0,1,37.38-66c.6-.94-.89-1.81-1.5-.88Z"/><path class="cls-1" d="M223.18,217.37C218.55,206.51,209,198.11,201,189.73q-14-14.64-28.34-28.87a.87.87,0,0,0-1.22,1.23q13.89,13.75,27.41,27.88c8.18,8.57,18.12,17.18,22.85,28.27.43,1,1.92.14,1.49-.87Z"/><path class="cls-1" d="M223.11,217.58a659.88,659.88,0,0,0-56-51.14c-.86-.69-2.09.53-1.23,1.23a655.08,655.08,0,0,1,56,51.13c.78.8,2-.43,1.23-1.22Z"/><path class="cls-1" d="M39.83,166.92c12.07,3.08,25.3.38,37.46-.93q19.21-2.07,38.37-4.69c1.1-.15.63-1.81-.46-1.66q-18.92,2.56-37.91,4.62c-12,1.29-25.14,4-37,1a.87.87,0,0,0-.46,1.67Z"/><path class="cls-1" d="M39.72,166.76a658.14,658.14,0,0,0,74.92-13.28c1.08-.26.62-1.93-.46-1.67A652.73,652.73,0,0,1,39.72,165c-1.09.13-1.11,1.86,0,1.73Z"/><path class="cls-1" d="M176.36,121.14a33.56,33.56,0,0,0,7-7.69,1.75,1.75,0,0,0-2.37-2.37,11,11,0,0,0-5.17,11.53,1.73,1.73,0,0,0,1.67,1.27c2.34-.17,3-1.77,3.83-3.75l4.41-10.51c.59-1.41-1.36-2.72-2.54-2a15.41,15.41,0,0,0-5,5.22c-1,1.64,1.42,3.63,2.71,2.1a87,87,0,0,0,7.78-10.73,1.74,1.74,0,0,0-2.36-2.36,7.42,7.42,0,0,0-3.34,9c.46,1.3,2.43,1.83,3.16.41q3.55-6.91,6.41-14.16c.64-1.62-1.78-2.9-2.89-1.68a23.76,23.76,0,0,0-4.33,6.61,1.74,1.74,0,0,0,2.71,2.1c2.13-1.75,7.5-6.72,6.46-10A1.8,1.8,0,0,0,192.31,93l-.24,0a1.73,1.73,0,0,0-1.27,1.67v.19a1.75,1.75,0,0,0,3.23.87l6.15-11.15c1.08-2-1.91-3.7-3-1.74L191,94l3.22.87v-.19L193,96.34l.24,0-2.13-1.21c.1.3-2.26,3.39-2.41,3.58a21.77,21.77,0,0,1-3.15,3.07l2.72,2.1A20.9,20.9,0,0,1,192,97.93l-2.89-1.69q-2.7,6.83-6.06,13.34l3.16.41a4.06,4.06,0,0,1,1.75-5.12l-2.36-2.36a81,81,0,0,1-7.24,10l2.71,2.1a11.41,11.41,0,0,1,3.8-4l-2.55-2-2.45,5.84c-.31.74-2,5.85-2.45,5.88l1.67,1.27a7.35,7.35,0,0,1,3.58-7.62l-2.37-2.37a29.91,29.91,0,0,1-6.43,7c-1.74,1.39.73,3.83,2.45,2.45Z"/><path class="cls-1" d="M191.56,97.41c3.21,0,3.22-5,0-5s-3.23,5,0,5Z"/><path class="cls-1" d="M199.06,84.53a13.34,13.34,0,0,1,3.5-5.2l-1.48-.61a8.09,8.09,0,0,1-2,4.59l1.48.61c-.17-1.51,1.1-3.14,1.79-4.39l1.89-3.47h-1.49a2.83,2.83,0,0,1-.31,3.18l1.62.43c.19-2.57,2.36-5.4,3.83-7.43.65-.9-.85-1.77-1.5-.87-1.71,2.36-3.83,5.31-4.06,8.3-.08,1,1.15,1.06,1.61.44a4.42,4.42,0,0,0,.3-4.92.87.87,0,0,0-1.49,0c-.95,1.73-1.91,3.46-2.85,5.19a5.66,5.66,0,0,0-1.07,3.54c.07.66.93,1.24,1.47.61a10.08,10.08,0,0,0,2.5-5.81c.08-.78-1-1.09-1.48-.61a15.43,15.43,0,0,0-3.94,6c-.37,1.05,1.3,1.5,1.67.46Z"/><path class="cls-1" d="M207.36,72.24a8.43,8.43,0,0,0,3.17-3.4c.51-1-1-1.87-1.49-.87a6.75,6.75,0,0,1-2.55,2.77c-1,.58-.08,2.08.87,1.5Z"/><path class="cls-1" d="M192.93,152.58l6.81.92v-1.67a18,18,0,0,1-5.37.77.87.87,0,0,0,0,1.73l3.92,0-.43-1.61a4,4,0,0,1-3.15.67v1.73l7.71-1a.87.87,0,0,0,0-1.73,88.45,88.45,0,0,1-9.73-1v1.67a11.22,11.22,0,0,1,6.36-.59.87.87,0,0,0,.46-1.67l-5.09-1.9-.23,1.7a19,19,0,0,1,5.94,1,.87.87,0,0,0,.67-1.58l-5.64-3.33-.67,1.58a11,11,0,0,1,2.75,1.19V148l-.94.13-.67,1.58,2.51.43.46-1.67-4.13-.56-.23,1.7a24.31,24.31,0,0,1,8.37.47l.23-1.7h-4.35a.87.87,0,0,0-.43,1.61,15,15,0,0,0,5.15,1.58l-.43-1.61a10.38,10.38,0,0,1-3.75,1.43c-1,.17-.7,1.65.23,1.69l4.6.22-.23-1.69a2,2,0,0,0-1.56,1.12.87.87,0,0,0,.51,1.27,20.86,20.86,0,0,0,6.69-.08c.81-.14.83-1.55,0-1.67l-5.87-.85-.23,1.7,4.71-.4a.87.87,0,0,0,.23-1.7l-4.77-1.77-.46,1.67,2.81.63.46-1.66a2.5,2.5,0,0,1-2.21-1.21l-1,1.27a23.92,23.92,0,0,1,7.14,2.18l.43-1.61-3.53.19a.87.87,0,0,0-.43,1.61,9.12,9.12,0,0,0,4.72,1.17l-.44-1.61-1.41.69a.87.87,0,0,0,.23,1.7,25.32,25.32,0,0,0,5.9-.2.87.87,0,0,0,0-1.67l-3.6-.55-.23,1.7,4.47.27c1,.07,1.12-1.41.23-1.69-2.65-.85-5.26-1.77-7.84-2.78l-.46,1.67q5.13,1,10.29,1.76v-1.67a8.22,8.22,0,0,1-4.69.1c-.92-.22-1.57,1.13-.67,1.59a9.71,9.71,0,0,0,5.18,1.12c1.1-.06,1.11-1.77,0-1.73l-2,.06c-.94,0-1.22,1.48-.23,1.7l1.62.36.23-1.7-2.55.07a.87.87,0,0,0,0,1.73,23.24,23.24,0,0,0,6.29,0,.87.87,0,0,0,.23-1.7l-2.85-.9-.23,1.7,2.21,0a.87.87,0,0,0,.23-1.7l-1-.61-.84,1.45,2.52.71-.39-1.45a2.33,2.33,0,0,0-.68,1.37.89.89,0,0,0,.84,1.1l5.33.06c1,0,1.21-1.52.23-1.69l-4.82-.85c-1.08-.19-1.56,1.43-.46,1.67l6.15,1.3a.87.87,0,0,0,.46-1.67,22.82,22.82,0,0,0-6.24-1.49v1.73a44.36,44.36,0,0,1,7.27.74c1.09.2,1.55-1.46.46-1.67a47.68,47.68,0,0,0-7.73-.8c-1.13,0-1.08,1.62,0,1.73a20.93,20.93,0,0,1,5.78,1.43l.46-1.67-6.15-1.3L222,153.5l4.82.84.23-1.7-5.33-.06.83,1.09.24-.61a.87.87,0,0,0-.38-1.44l-2.52-.71c-.79-.22-1.52.87-.84,1.45a4.59,4.59,0,0,0,1.78,1l.23-1.7-2.21,0a.86.86,0,0,0-.23,1.69l2.85.91.23-1.7a22.85,22.85,0,0,1-6.29,0v1.73l2.55-.07c.94,0,1.21-1.48.23-1.7l-1.62-.36-.23,1.7,2-.06v-1.73a8,8,0,0,1-4.3-.89l-.67,1.58a10,10,0,0,0,5.61-.1c.76-.23.89-1.54,0-1.67q-5.16-.78-10.29-1.76a.87.87,0,0,0-.46,1.67q3.87,1.52,7.84,2.77l.23-1.69-4.47-.28c-1-.06-1.2,1.55-.23,1.7l3.6.55v-1.67a23,23,0,0,1-5.44.14l.23,1.69a4.92,4.92,0,0,0,1.82-.86.87.87,0,0,0-.43-1.61,5.82,5.82,0,0,1-3.85-.93L207,152.4l3.53-.19c.8,0,1.26-1.21.44-1.61a25,25,0,0,0-7.55-2.36c-.64-.09-1.5.59-1,1.27a4.57,4.57,0,0,0,3.24,2c1.07.16,1.57-1.41.46-1.66l-2.81-.64a.87.87,0,0,0-.46,1.67l4.77,1.77.23-1.7-4.71.4c-.89.07-1.26,1.54-.23,1.7l5.87.85v-1.67a16.69,16.69,0,0,1-5.77.08l.52,1.27.53-.33a.86.86,0,0,0-.23-1.69l-4.6-.22.23,1.69a11.12,11.12,0,0,0,4.16-1.6.87.87,0,0,0-.44-1.61,12,12,0,0,1-4.28-1.34l-.44,1.61h4.35a.87.87,0,0,0,.23-1.7,26,26,0,0,0-8.83-.53c-.87.09-1.28,1.55-.23,1.69l4.13.57c1.07.14,1.57-1.48.46-1.67l-2.51-.42c-.88-.15-1.64,1.15-.67,1.58a2.46,2.46,0,0,0,2.69-.14.87.87,0,0,0,0-1.49A18.4,18.4,0,0,0,195,146.6a.87.87,0,0,0-.67,1.58l5.65,3.33.66-1.58a20.17,20.17,0,0,0-6.4-1,.87.87,0,0,0-.23,1.7l5.09,1.9.46-1.67a12.76,12.76,0,0,0-7.28.59c-.7.27-.93,1.52,0,1.67a94.16,94.16,0,0,0,10.19,1.1v-1.73l-7.71,1a.87.87,0,0,0,0,1.73,6.3,6.3,0,0,0,4-.91.87.87,0,0,0-.44-1.61l-3.92-.05v1.73a19.9,19.9,0,0,0,5.83-.83c.74-.22.89-1.55,0-1.67l-6.81-.92c-1.09-.15-1.56,1.52-.46,1.67Z"/><path class="cls-1" d="M189.27,168.32l2.15.56c.78.2,1.56-.88.85-1.44l-.77-1.22-1.47.61,1.78,2a.87.87,0,0,0,1.45-.84l-1.07-3.44-1.45.85,2,2a.87.87,0,0,0,1.45-.84l-.48-2.38-1.58.66.55.77a.87.87,0,0,0,1.58-.66,4.51,4.51,0,0,0-.47-1.83.87.87,0,0,0-1.27-.51c-1.16.77-1.52,3.06.37,3.28s2.09-2.14,1-3.12L192.69,164a9.92,9.92,0,0,1,2.52,3.5l.75-1.3a7.23,7.23,0,0,1-2.3-.55c-.87-.32-1.36.85-.84,1.44l1.38,1.56.38-1.44-1.59.18c-.69,0-1.22,1-.61,1.48a6.13,6.13,0,0,0,5,1.56.87.87,0,0,0,.43-1.61l-2.19-1.42L195,169l4.09,1.46a.87.87,0,0,0,.84-1.44,17.75,17.75,0,0,1-2.9-3.09l-1.18,1.18,1.86,1.15c.82.5,1.81-.71,1.05-1.36a20.56,20.56,0,0,1-3.36-3.61l-1,1.27a6.18,6.18,0,0,1,4.11,4l.84-1.09-1.87-1.07-1.18,1.18,3.41,1.52c.84.38,1.81-.62,1.05-1.36l-1-1.52-1.27,1,1.38.91c.82.75,2-.44,1.22-1.22l-1.54-1.52-1,1.36a7.53,7.53,0,0,1,2.52,1.82l.84-1.45a14.84,14.84,0,0,1-2.51-.77c-.62-.25-1.24.48-1.06,1.06a4,4,0,0,0,1.35,2.14l.17-1.36-1.59.73c-.64.2-.92,1.26-.2,1.58l.6-.79v1.73l3.91.36a.88.88,0,0,0,.44-1.62l-2-1-.66,1.58,3.35.87c.67.18,1.44-.63,1-1.27a9.09,9.09,0,0,0-2.38-2.33c-.8-.55-1.8.73-1,1.36l.92.78,1.05-1.36a4.94,4.94,0,0,1-2.57-3.42l-1.45.85,4.07,3.14.61-1.47-1.07-.4c-.86-.67-2.1.5-1.23,1.22a32.17,32.17,0,0,0,4.7,3.24.86.86,0,0,0,.87-1.49l-1.62-1.65L204.37,170a4.24,4.24,0,0,0,1.67,1,.87.87,0,0,0,1.05-1.36,12.38,12.38,0,0,0-2.19-2.15l-1,1.36a3.27,3.27,0,0,1,1.8,1.42l.61-1.48a23.59,23.59,0,0,0-4.76.5.84.84,0,0,0-.6.61c-.33,2.45,3,3.27,4.88,3.69a.88.88,0,0,0,1-1.27,6.1,6.1,0,0,0-1.81-2l-.87,1.5,3.56,2,.67-1.58-1.16-.57-.61,1.47,1.38.34a.88.88,0,0,0,1-1.27l-1.55-2.25L206,171a12.18,12.18,0,0,0,2.12,1.44.87.87,0,0,0,1-1.36,7.12,7.12,0,0,1-1.59-2l-.75,1.3,2.27,1.31.61-1.48-1.68-.08c-.8-.2-1.52.85-.84,1.44a25.23,25.23,0,0,0,3,2.27l.43-1.61-1.48-.46-.66,1.58a7.15,7.15,0,0,1,1.63.44c.67.23,1.43-.66,1-1.27L209.9,171l-1.18,1.18,2.54,1.44a.87.87,0,0,0,1.18-1.18,4.29,4.29,0,0,0-1.32-1.55l-.84,1.44,1.61.82.21-1.58-1.93.18a.88.88,0,0,0-.84,1.1,2.91,2.91,0,0,0,1.09,1.59l1.05-1.36-.05-.13L210.36,174a14.23,14.23,0,0,1,2.56.61l.23-1.7-.71,0a.87.87,0,0,0-.44,1.61l1.16.58a.87.87,0,0,0,1.18-1.18l-.74-1.43-.74,1.3,1.53.52.21-1.58-1,.14a.87.87,0,0,0-.46,1.67l2.14.93c1,.48,1.88-1,.88-1.49s-1.51-.7-2.56-1.11l-.46,1.67a2.71,2.71,0,0,0,1.88-.14.89.89,0,0,0,.21-1.59,3.41,3.41,0,0,0-2.41-.75.88.88,0,0,0-.75,1.3l.74,1.43L214,173.6l-1.16-.58-.43,1.61.71,0c1,.06,1.12-1.4.23-1.7a16.15,16.15,0,0,0-2.56-.61.87.87,0,0,0-1.06,1.06,1.46,1.46,0,0,0,.84,1.16c.81.53,1.79-.71,1-1.36l-.64-.82-.83,1.09a6.65,6.65,0,0,0,2.39-.24c.81-.18.74-1.17.21-1.59a3.49,3.49,0,0,0-2-1c-.8-.21-1.52.87-.85,1.45l1.06,1.2,1.18-1.18-2.54-1.44c-.69-.4-1.73.45-1.18,1.18l1.14,1.51,1-1.27a7.15,7.15,0,0,0-1.63-.44c-.92-.2-1.57,1.09-.67,1.58a4.18,4.18,0,0,0,2.35.7c.92.08,1.1-1.18.44-1.61a15.32,15.32,0,0,1-2.61-2l-.84,1.45a3.56,3.56,0,0,0,2.14.14.88.88,0,0,0,.61-1.48,4.83,4.83,0,0,0-3.49-1.81.87.87,0,0,0-.74,1.3,11.91,11.91,0,0,0,1.85,2.34l1.05-1.36-1.77-1.17c-.7-.54-2,.16-1.36,1.05l1.55,2.25,1-1.27a4.87,4.87,0,0,0-1.84-.4.88.88,0,0,0-.61,1.48,2.44,2.44,0,0,0,1.92,1c.92.16,1.57-1.07.67-1.58l-3.57-2c-1-.56-1.75.85-.87,1.5l1.19,1.34,1-1.27c-.58-.13-3.14-.6-2.78-1.07.22-.3,2.61-.31,2.8-.33a.87.87,0,0,0,.61-1.47,5.47,5.47,0,0,0-2.15-1.7c-.82-.38-1.88.71-1,1.36a12.79,12.79,0,0,1,2.19,2.16l1-1.36a4.24,4.24,0,0,1-1.67-1c-.7-.53-1.63.49-1.18,1.18a7.14,7.14,0,0,0,2.24,2.27l.87-1.49a29.74,29.74,0,0,1-4.34-3l-1.23,1.22a3.08,3.08,0,0,0,2.3.91.88.88,0,0,0,.61-1.48L200.44,165c-.62-.48-1.72-.07-1.44.84a7.44,7.44,0,0,0,3.37,4.45c.81.52,1.81-.72,1-1.36l-.93-.77-1.05,1.35,1.76,1.71,1-1.27-3.35-.87a.87.87,0,0,0-.67,1.58l2,1,.44-1.61-3.91-.36c-1.11-.1-1.09,1.62,0,1.73l.32,0a.82.82,0,0,0,.75-.43l.16-.35a.92.92,0,0,0-.13-1,1.64,1.64,0,0,0-.83-.63l-.21,1.58a5.45,5.45,0,0,0,2-.9.88.88,0,0,0,.17-1.36l-.9-1.38L198.91,168a16.92,16.92,0,0,0,2.51.77.87.87,0,0,0,.84-1.45,12.11,12.11,0,0,0-2.87-2.08.87.87,0,0,0-1,1.36l1.54,1.51,1.22-1.22a4.51,4.51,0,0,0-1.73-1.19c-.62-.3-1.53.21-1.27,1a5.2,5.2,0,0,0,1.44,2.29l1-1.36-3.41-1.52c-.72-.33-1.7.38-1.18,1.18a3.71,3.71,0,0,0,3.36,1.93.87.87,0,0,0,.83-1.1,7.78,7.78,0,0,0-5.32-5.2c-.68-.22-1.43.65-1,1.27a22.65,22.65,0,0,0,3.63,4l1-1.36-1.87-1.14c-.7-.43-1.71.47-1.18,1.18a19.89,19.89,0,0,0,3.17,3.44l.84-1.44-4.09-1.46c-1-.35-1.46,1.07-.67,1.58l2.2,1.41.44-1.61a4.19,4.19,0,0,1-3.81-1.05l-.61,1.47a7.1,7.1,0,0,0,2-.24.88.88,0,0,0,.39-1.45l-1.38-1.56-.85,1.44A11.48,11.48,0,0,0,196,168c.72.08,1-.78.74-1.3a10.86,10.86,0,0,0-2.79-3.85c-.82-.74-2,.46-1.22,1.22l.67.11-1.27-.52a4.51,4.51,0,0,1,.47,1.83l1.58-.67-.55-.77a.87.87,0,0,0-1.58.67l.48,2.38,1.45-.84-2-2a.87.87,0,0,0-1.44.84l1.07,3.44,1.45-.84-1.79-2a.87.87,0,0,0-1.47.61,3,3,0,0,0,1.26,2.44l.84-1.45-2.15-.56a.87.87,0,0,0-.46,1.67Z"/><path class="cls-1" d="M196.36,165.2a4.09,4.09,0,0,0-2.17-.68.87.87,0,0,0-.61,1.47,6.81,6.81,0,0,1,1.2,1.67l1-1.27a10,10,0,0,1-2.12-.8c-1-.51-1.86,1-.87,1.49a12,12,0,0,0,2.53,1,.87.87,0,0,0,1-1.27,8.11,8.11,0,0,0-1.47-2l-.61,1.48a2.41,2.41,0,0,1,1.3.44c.93.62,1.8-.87.87-1.49Z"/><path class="cls-1" d="M213.93,175.1a1,1,0,0,1,.9.24l.67-1.58a3.75,3.75,0,0,0-1.88-.07.87.87,0,0,0-.21,1.58,1.84,1.84,0,0,0,1,.29.87.87,0,0,0,.83-.63l.36-1.21-1.07.6a3.13,3.13,0,0,1,.9.49l.61-1.47-1.39.06a.87.87,0,0,0-.75,1.3,2.59,2.59,0,0,0,3,1.26.87.87,0,0,0-.46-1.67.85.85,0,0,1-1-.46l-.74,1.3,1.39-.06c.68,0,1.24-1,.62-1.48a5.38,5.38,0,0,0-1.67-.93.86.86,0,0,0-1.06.6l-.36,1.21.84-.63a.15.15,0,0,1-.16-.07l-.21,1.58a2,2,0,0,1,1,.08c1,.31,1.4-1,.66-1.58a2.64,2.64,0,0,0-2.23-.42c-1.08.24-.63,1.91.46,1.67Z"/><path class="cls-1" d="M215.1,175.44a7.32,7.32,0,0,0,3.43,1.05c1.12.06,1.11-1.66,0-1.73A5.43,5.43,0,0,1,216,174c-.95-.58-1.82.92-.87,1.49Z"/><path class="cls-1" d="M216.48,175.48l.69.23a.87.87,0,0,0,1.06-.6.89.89,0,0,0-.6-1.07l-.69-.23a.87.87,0,1,0-.46,1.67Z"/><path class="cls-1" d="M218.08,176a1.9,1.9,0,0,1,1,1c.23.5,1,.06.74-.44a2.61,2.61,0,0,0-1.31-1.29c-.51-.22-1,.52-.44.75Z"/><path class="cls-1" d="M218.9,176.18l1.16,1c.35.28,1-.1.68-.53a2.58,2.58,0,0,0-1.27-.93c-.52-.18-.75.65-.23.84l1.39.47c.46.16.78-.58.33-.79l-1.05-.49c-.5-.24-.94.51-.44.74l1.06.5.33-.79-1.39-.48-.23.84a1.5,1.5,0,0,1,.75.53l.68-.53-1.16-1c-.43-.35-1,.26-.61.61Z"/><path class="cls-1" d="M218.89,176l1.38.25c.54.09.77-.74.23-.84l-1.38-.24c-.55-.1-.78.73-.23.83Z"/><path class="cls-1" d="M197.19,169.7a1.84,1.84,0,0,0,1,1.3l.22-.8a.73.73,0,0,1-.7-.27c-.37-.42-1,.2-.61.61a1.49,1.49,0,0,0,1.31.52c.38,0,.64-.59.22-.8a1.09,1.09,0,0,1-.61-.79c-.11-.55-.94-.32-.83.23Z"/><path class="cls-1" d="M220.09,176.74a3.66,3.66,0,0,1,1.27.46l.1-.79-.39,0-.42.72a6.35,6.35,0,0,1,2.4,1.22c.42.35,1-.26.61-.61a7.41,7.41,0,0,0-2.78-1.45c-.39-.1-.77.44-.42.73a1.23,1.23,0,0,0,1.23.26.43.43,0,0,0,.1-.79,4.5,4.5,0,0,0-1.47-.55c-.54-.1-.78.74-.23.84Z"/><path class="cls-1" d="M223.29,178.61a2.2,2.2,0,0,0,1.13.88c.52.19.75-.65.23-.83a1.2,1.2,0,0,1-.62-.49c-.3-.46-1.05,0-.74.44Z"/><path class="cls-1" d="M223.79,178.84a1,1,0,0,0,1.44.59c.77-.39.67-1.35.51-2.05l-.79.33c.16.39-.2.8-.55.91a1.64,1.64,0,0,1-1.41-.43c-.43-.35-1.05.26-.61.61a2.39,2.39,0,0,0,2.6.51,1.59,1.59,0,0,0,.72-2c-.2-.47-.9-.13-.79.33a1.68,1.68,0,0,1,.06.86c0,.11-.31.36-.35.14-.09-.55-.93-.31-.83.23Z"/><path class="cls-1" d="M180.33,178.76l3.65,2.11c1.36.78,2.46-.94,1.57-2a6.19,6.19,0,0,1-1.35-2.54L182,177.55a8.12,8.12,0,0,0,3,1.92,1.31,1.31,0,0,0,1.59-1.6,11,11,0,0,0-1.11-2.45l-2.24,1.31a52.5,52.5,0,0,1,2.92,4.83l1.46-1.91-3-1.21c-1.23-.49-2.17,1.33-1.27,2.17l4.26,3.95a1.3,1.3,0,0,0,1.84-1.83,12.81,12.81,0,0,1-2.32-4.6l-1.9,1.46a31,31,0,0,1,3.34,2.58l1.27-2.17-1.11-.57c-1.29-.91-2.43,1-1.57,2a34.49,34.49,0,0,0,4.18,4.28l1.83-1.84a4.16,4.16,0,0,1-1.69-2.26l-2.37,1,.67,1.55,1.12-2-2-.24c-1.07-.12-1.48,1.17-1.12,2a7.77,7.77,0,0,0,5.07,4.32,1.32,1.32,0,0,0,1.47-1.91,8.56,8.56,0,0,1-.9-2.08l-2.17,1.26a30.23,30.23,0,0,1,2.81,2.85l1.26-2.17a26.29,26.29,0,0,0-3.15-.89,1.31,1.31,0,0,0-1.26,2.17,22.22,22.22,0,0,0,5.09,4.23c1.32.81,2.48-1,1.57-2l-1.31-2.19-1.9,1.46a8.65,8.65,0,0,1,3.81,4.07l1.46-1.9a3.9,3.9,0,0,1-2.11-1c-1.36-1-2.66,1.27-1.31,2.24a7.35,7.35,0,0,0,2.73,1.24,1.32,1.32,0,0,0,1.47-1.91,10.83,10.83,0,0,0-4.74-5c-.91-.5-2.34.36-1.91,1.47a10.62,10.62,0,0,0,2,3.33l1.57-2a19.76,19.76,0,0,1-4.57-3.82l-1.26,2.17a24.52,24.52,0,0,1,3.15.88c1.32.47,2-1.27,1.26-2.17a31.27,31.27,0,0,0-2.8-2.84c-.9-.8-2.61-.05-2.17,1.26a17.43,17.43,0,0,0,1.16,2.7l1.46-1.9a5.56,5.56,0,0,1-3.52-3.13l-1.12,1.95,2,.24c1.09.13,1.46-1.17,1.12-2l-.67-1.55c-.59-1.33-2.9-.37-2.38,1a7.45,7.45,0,0,0,2.37,3.41c1.27,1.05,3.11-.74,1.83-1.84a33.65,33.65,0,0,1-4.17-4.27l-1.58,2a4.48,4.48,0,0,0,1.73.83,1.31,1.31,0,0,0,1.26-2.17,36.17,36.17,0,0,0-3.87-3,1.32,1.32,0,0,0-1.91,1.47,15.75,15.75,0,0,0,3,5.74l1.84-1.83-4.26-3.95L184,180.94l3,1.21c1.12.45,1.95-1,1.47-1.9a54.82,54.82,0,0,0-2.92-4.83,1.3,1.3,0,0,0-2.24,1.31l.85,1.83,1.6-1.59-1.86-1.25A1.31,1.31,0,0,0,181.7,177a11.47,11.47,0,0,0,2,3.69l1.57-2-3.66-2.11a1.3,1.3,0,0,0-1.3,2.24Z"/><path class="cls-1" d="M197.56,193.88a23.09,23.09,0,0,1,3.2,1.75c1.32.86,2.45-1,1.57-2a5.92,5.92,0,0,1-1.11-2.23l-2.37,1a9.82,9.82,0,0,0,1.89,1.92,5.12,5.12,0,0,1,1.77,1.72l1.46-1.91a19.22,19.22,0,0,0-3.07-.88c-1-.2-2.22.92-1.47,1.9a14.9,14.9,0,0,0,2.65,2.73c.84.64,1.73,1.43,2.81.86a1.32,1.32,0,0,0,.46-1.77l0-.05c-.73-1.5-3-.19-2.24,1.31l0,.05.47-1.78c.56-.3,1,0,.28-.51a8.5,8.5,0,0,1-.8-.66,10.9,10.9,0,0,1-1.39-1.49l-1.46,1.91a19.22,19.22,0,0,1,3.07.88c1.16.44,1.91-1,1.47-1.9-.79-1.64-2.59-2.24-3.66-3.64-.83-1.1-2.78-.53-2.37,1a8.76,8.76,0,0,0,1.78,3.37l1.57-2a23.68,23.68,0,0,0-3.2-1.75c-1.52-.68-2.84,1.55-1.31,2.24Z"/><path class="cls-1" d="M202.52,196.6a9.07,9.07,0,0,1,3.1,3.41l1.78-1.78a27.15,27.15,0,0,1-2.71-1.6l-1.31,2.24a15.62,15.62,0,0,1,3.9,3.44c1.05,1.3,2.88-.55,1.83-1.83a17.49,17.49,0,0,0-4.42-3.85c-1.43-.89-2.68,1.31-1.31,2.24a27.15,27.15,0,0,0,2.71,1.6,1.3,1.3,0,0,0,1.77-1.77,12,12,0,0,0-4-4.34c-1.32-1-2.61,1.24-1.31,2.24Z"/><path class="cls-1" d="M206.54,200.54a8.26,8.26,0,0,1,2.13,2.57l1.46-1.91-.81-.22a1.3,1.3,0,0,0-.69,2.5l.82.22a1.31,1.31,0,0,0,1.46-1.9,10.15,10.15,0,0,0-2.54-3.1,1.33,1.33,0,0,0-1.83,0,1.31,1.31,0,0,0,0,1.84Z"/><path class="cls-1" d="M208.85,204.14a5.53,5.53,0,0,1,1.91,1.13l1.22-1.22a2.33,2.33,0,0,1-.81-1.27l-1.06,1.06c1,.33,1.48,1.41,1.9,2.32l1-1.27a2.63,2.63,0,0,1-.9-.56c-.84-.72-2.05.45-1.22,1.22l2.49,2.34a.86.86,0,0,0,1.22-1.22,5.34,5.34,0,0,1-.84-1.28l-1.18,1.18a1.61,1.61,0,0,1,.89,1l1.27-1c-.74-.33-1.47-.68-2.2-1a.88.88,0,0,0-1.3.74c0,1.5,2.24,2.23,3.33,2.89a.87.87,0,0,0,1.27-1l-.25-.7-1.44.84a2.1,2.1,0,0,1,.62,1.25l.83-1.09h0c-1-.55-1.85,1-.87,1.49a1.59,1.59,0,0,0,.82.23.88.88,0,0,0,.84-1.1,3.64,3.64,0,0,0-1.07-2,.87.87,0,0,0-1.44.84l.24.7,1.27-1-1.46-.88c-.23-.13-1-.73-1-.51l-1.3.75c.73.36,1.46.7,2.2,1a.88.88,0,0,0,1.27-1,3.27,3.27,0,0,0-1.69-2,.87.87,0,0,0-1.18,1.18,7,7,0,0,0,1.11,1.63l1.22-1.22-2.49-2.34-1.22,1.22a5.64,5.64,0,0,0,1.66,1c.78.31,1.25-.67,1-1.27a5.13,5.13,0,0,0-2.94-3.12.88.88,0,0,0-1.07,1.07,3.94,3.94,0,0,0,1.26,2c.83.73,2.05-.47,1.22-1.22a7.62,7.62,0,0,0-2.67-1.58c-1.06-.36-1.51,1.31-.46,1.67Z"/><path class="cls-1" d="M215.2,209.61a2.68,2.68,0,0,1,.87,1.34.87.87,0,0,0,1.27.51q-.75-.26-.45.24c.06.15.12.29.19.44a4.15,4.15,0,0,0,.54.82,4.7,4.7,0,0,0,1.54,1.26c1,.52,1.86-1,.87-1.49a3.77,3.77,0,0,1-1.7-2.1,1.27,1.27,0,0,0-1.87-.66l1.27.52a4.28,4.28,0,0,0-1.3-2.1c-.83-.74-2.06.48-1.23,1.22Z"/><path class="cls-1" d="M155.14,188.52a29.74,29.74,0,0,0,1.61,3.06.87.87,0,0,0,1.58-.67l-.61-3.14-1.67.46a25.06,25.06,0,0,0,1.9,3.94.87.87,0,0,0,1.61-.44c.17-2,.68-5.82-2.36-5.36a.87.87,0,0,0-.52,1.27c1.1,1.67,2.27,3.26,3.51,4.82.52.64,1.42,0,1.48-.62a13.13,13.13,0,0,0-.5-5.25.87.87,0,0,0-1.67,0,6.16,6.16,0,0,0-.47,2.78.87.87,0,0,0,1.61.43,10.61,10.61,0,0,0,1.13-3.26l-1.58.21a13.87,13.87,0,0,1,1.76,3.9.87.87,0,0,0,1.7-.23,22.94,22.94,0,0,0-.26-3.7c-.15-1-1.62-.67-1.7.23a47,47,0,0,0-.07,6.92l1.7-.23-1.07-3.53a.87.87,0,0,0-1.66,0,23.49,23.49,0,0,0-.6,3.83l1.61-.44-1.7-3.58a.87.87,0,0,0-1.58.21,10,10,0,0,0,.07,4.61l1.66-.46a11.06,11.06,0,0,0-1.23-2.9.87.87,0,0,0-1.61.44,6.7,6.7,0,0,0,.13,2.23c.15,1,1.72.73,1.7-.23a5.24,5.24,0,0,0-.37-2.28.86.86,0,0,0-1.69.23l-.13,1.48,1.62-.44-.53-.7c-.54-.74-1.89-.35-1.58.66l2.1,6.93a.87.87,0,0,0,1.7-.23,20.73,20.73,0,0,0-.86-5.46l-1.66.46q1.43,4.51,3.2,8.9c.34.84,1.71.82,1.7-.23a58.58,58.58,0,0,0-1.13-10.4.87.87,0,0,0-1.7.23,49.16,49.16,0,0,0,.48,6.05c.14.95,1.82.74,1.7-.23a31.19,31.19,0,0,0-1.21-5.82l-1.67.46c.89,2.34,1.82,4.65,2.8,6.95.36.84,1.59.34,1.62-.44a34,34,0,0,0-.3-5.43c-.14-1.07-1.71-1.16-1.72,0a19.88,19.88,0,0,0,.32,3.85c.17,1,1.67.72,1.7-.23l.13-5.32-1.7.23a37.3,37.3,0,0,1,1.54,11.26l1.69-.23L163.65,200a.87.87,0,0,0-1.7.23,27.48,27.48,0,0,0,.38,4.15l1.58-.66c-1-2-1.58-4.91-4.08-5.17-.61-.07-.92.6-.83,1.09a21.09,21.09,0,0,0,4,9.17.87.87,0,0,0,1.58-.67,23,23,0,0,0-1.69-5.38L161.66,204a5.29,5.29,0,0,1,2.81,4.11l1.7-.23-.67-2.44c-.25-.91-1.79-.77-1.7.23l.4,4.68,1.61-.44a36.37,36.37,0,0,0-2.57-4.81.88.88,0,0,0-1.5,0c-2,2.92,1.19,6.67,2.58,9.18.49.9,1.77.27,1.58-.66L164.76,208l-1.67.46,1.43,5.65,1.45-.84-1.88-2.14a.87.87,0,0,0-1.44.84l1.34,4.08a.87.87,0,0,0,1.7-.23,6.54,6.54,0,0,0-.06-2.07l-1.48.62,1.37,1.68-1.58.67c.38.88,2.88,6.12,1.74,7.06a.86.86,0,0,0-.13,1.05,1.58,1.58,0,0,0,1.19.84c.9.19,1.6-1.14.66-1.58l-1-.47-.66,1.58,1.12.24c1.09.23,1.55-1.43.46-1.66l-1.13-.24c-.9-.19-1.6,1.13-.66,1.58l1,.46.67-1.58c.44.09.26,1.14.56-.49a3.9,3.9,0,0,0-.1-1.22,26.44,26.44,0,0,0-2.23-6.44c-.38-.92-1.83-.26-1.58.66a1.66,1.66,0,0,0,2.31,1.31.88.88,0,0,0,.64-.83,5.63,5.63,0,0,0-1.43-3.85.87.87,0,0,0-1.47.61,6.54,6.54,0,0,1,.06,2.07l1.7-.23-1.35-4.08-1.44.84,1.87,2.14c.6.68,1.65-.05,1.45-.84L164.76,208c-.28-1.08-1.89-.62-1.67.46l1.14,5.57,1.58-.67c-.85-1.54-3.81-5.66-2.57-7.44h-1.5a36.44,36.44,0,0,1,2.58,4.81.87.87,0,0,0,1.61-.43l-.4-4.68-1.7.23.67,2.44a.87.87,0,0,0,1.7-.23c.13-2.73-1.5-4.2-3.66-5.61-.8-.51-1.51.47-1.19,1.19a20.62,20.62,0,0,1,1.52,5l1.58-.66a20.16,20.16,0,0,1-3.78-8.76l-.84,1.1c1.18.12,2.16,3.43,2.58,4.31s1.73.22,1.59-.67a16.94,16.94,0,0,1-.32-3.69l-1.69.23,1.44,4.06a.87.87,0,0,0,1.7-.23,39,39,0,0,0-1.6-11.72.87.87,0,0,0-1.7.23l-.13,5.32,1.69-.23a12.46,12.46,0,0,1-.26-3.39h-1.72a35.24,35.24,0,0,1,.29,5.43l1.61-.43q-1.38-3.24-2.63-6.54c-.39-1-2-.62-1.67.46a28.75,28.75,0,0,1,1.15,5.36l1.7-.23a45.57,45.57,0,0,1-.42-5.59l-1.7.23a55.37,55.37,0,0,1,1.07,9.94l1.69-.23q-1.77-4.4-3.2-8.9c-.33-1-2-.61-1.66.46a19.25,19.25,0,0,1,.79,5l1.7-.23-2.1-6.93-1.58.67.52.71a.87.87,0,0,0,1.61-.44l.12-1.48L157,192l.3,1.82,1.7-.23-.07-1.77-1.61.43a6.73,6.73,0,0,1,1.06,2.49.86.86,0,0,0,1.66-.46,6.36,6.36,0,0,1-.06-3.69l-1.58.21,1.69,3.57c.4.85,1.55.34,1.61-.43a16.1,16.1,0,0,1,.54-3.38h-1.66l1.06,3.54c.27.9,1.76.78,1.7-.23a45.68,45.68,0,0,1,.07-6.92l-1.7.23a13.55,13.55,0,0,1,.2,3.24l1.7-.23a15.53,15.53,0,0,0-1.93-4.32c-.37-.57-1.45-.57-1.59.21a6.47,6.47,0,0,1-.95,2.85l1.61.44a3.65,3.65,0,0,1,.41-2.32H159.5a12.31,12.31,0,0,1,.44,4.79l1.48-.61c-1.16-1.44-2.23-2.92-3.24-4.46l-.52,1.27c.51-.08.2,3.4.17,3.69l1.61-.43a22.59,22.59,0,0,1-1.72-3.53.87.87,0,0,0-1.67.46l.61,3.14,1.58-.66a29.65,29.65,0,0,1-1.6-3.06c-.46-1-2-.13-1.5.87Z"/><path class="cls-1" d="M139.15,184.29l1.48,4.79a.86.86,0,0,0,1.66-.46,14.14,14.14,0,0,1-.27-4.57l-1.7.23a38.14,38.14,0,0,1,1.74,5.43l1.67-.46a10.25,10.25,0,0,1-.45-4.89l-1.58.21a7.16,7.16,0,0,1,1.26,3.87.87.87,0,0,0,1.73,0,20.68,20.68,0,0,1,.73-4.17l-1.7-.23.22,5.12c0,.93,1.52,1.23,1.7.23a47.14,47.14,0,0,1,1.22-5l-1.7-.23a34,34,0,0,1-.55,6.2l1.58-.21-1.76-3.61a.87.87,0,0,0-1.58.21l-1.68,5.61,1.59-.2a29.92,29.92,0,0,1-2-6c-.24-1.1-1.87-.62-1.67.46a30.53,30.53,0,0,1,.46,7.14h1.73c0-1.7,1.43-7.43.45-2h1.67c-.35-1.43-.62-2.86-.84-4.32-.16-1.05-1.59-.64-1.7.23l-.7,5.52,1.61-.43a17,17,0,0,1-1.09-2.23.86.86,0,0,0-1.49,0,4.59,4.59,0,0,0-.39,4.34c.22.61,1.26,1,1.58.21a24.88,24.88,0,0,1,2.5-4.52h-1.49l.38,2.45c-.11,1,1.56,1.2,1.7.23a18.34,18.34,0,0,1,1.08-4.13l-1.7-.23a14.61,14.61,0,0,1-.24,4.46c-.21,1.08,1.38,1.55,1.67.46a15.76,15.76,0,0,1,1.36-3.51l-1.58-.21.05,3.19,1.45-.38-.5-.52a.87.87,0,0,0-1.44.38,28.38,28.38,0,0,0-1.54,5.44c-.19,1.08,1.43,1.55,1.67.46a49.22,49.22,0,0,0,1-6.61c.07-1-1.53-1.2-1.7-.23l-.9,4.93h1.67c-.53-1.59-1-3.19-1.35-4.82-.23-1-1.62-.69-1.7.23a32.24,32.24,0,0,0,.07,6.44l1.7-.23-1-4.47a.87.87,0,0,0-1.7.23l-.05,3.53,1.61-.44-.58-1.24c-.28-.72-1.49-.93-1.67,0a11.29,11.29,0,0,0-.26,2.17l1.69-.23-.39-1.87-1.66.46a8,8,0,0,1,.25,4.17l1.7.23a4.15,4.15,0,0,1,.22-2.48l-1.7-.23.05,5.42a.86.86,0,0,0,1.72,0,19,19,0,0,1,1.21-5.36h-1.67a10.2,10.2,0,0,1,.79,3.57c0,.91,1.52,1.24,1.7.23a24.61,24.61,0,0,1,1.26-4.71l-1.69-.23-.28,3.8c-.08,1.11,1.64,1.1,1.73,0a20,20,0,0,1,1.21-5.54h-1.67c.8,3.52-1.06,8-2,11.34H143a6,6,0,0,1-.27-4.22l-1.67-.46-1,3.87h1.66a14.68,14.68,0,0,1-.31-5.07c.1-1-1.5-1.18-1.7-.23l-1.06,5,1.58-.2a7.61,7.61,0,0,1-.82-3.63h-1.73l.13,2.56a.87.87,0,0,0,1.7.23l.62-2.65-1.7-.23-.69,5.8,1.7-.23-.37-1.2a.87.87,0,0,0-1.7.23,45.9,45.9,0,0,0,.22,5.25c.11,1.09,1.76,1.14,1.73,0a11.62,11.62,0,0,1,1.26-5.79l-1.61-.44a11.78,11.78,0,0,1-.22,4.13l1.7.23a6.28,6.28,0,0,1,.8-3.34l-1.58-.21a8.44,8.44,0,0,1,.22,3.46c-.08,1.12,1.62,1.09,1.73,0l.71-2-1.62-.44a10.31,10.31,0,0,1-1.43,5.36h1.49l-.81-2.12a.87.87,0,0,0-1.61-.44,7.74,7.74,0,0,0-1.52,3.38l1.7.23c-.15-2.05.78-2.26,2-3l-1.3-.74a7.52,7.52,0,0,1-1.23,4.77h1.49l-.77-2a.87.87,0,0,0-1.73,0,4.37,4.37,0,0,0,0,1.69.87.87,0,0,0,1.09.84,2.7,2.7,0,0,0,1.87-1.93c.33-1-1.06-1.45-1.58-.66a6.19,6.19,0,0,0-1,2.13l1.59-.2a3.37,3.37,0,0,0-1.07-1.21.87.87,0,0,0-1.47.61,7.75,7.75,0,0,0-.05,3.07.84.84,0,0,0,.61.6c1.74.28,2.51-1.3,3.57-2.53L139,214.4a9.72,9.72,0,0,1-1.26,4.24l1.61.44a13.91,13.91,0,0,0-.28-3.41.86.86,0,0,0-1.66,0,25.46,25.46,0,0,1-.86,3.22l1.44-.38-.49-.83a.87.87,0,0,0-1.67,0l-.86,5.15a.87.87,0,0,0,1.58.66l2.73-3.59-1.58-.67-1.47,6.19h1.67a4.49,4.49,0,0,0-1.93-2.61c-.94-.61-1.81.89-.87,1.49l1.13,1.58a.87.87,0,0,0,1.67,0l1.47-6.19a.87.87,0,0,0-1.58-.66l-2.73,3.59,1.58.67.86-5.15h-1.67a1.87,1.87,0,0,0,.94,1.59.87.87,0,0,0,1.44-.38,23.88,23.88,0,0,0,.86-3.22h-1.66a8.62,8.62,0,0,1,.21,3,.87.87,0,0,0,1.61.43,12.54,12.54,0,0,0,1.5-5.11.88.88,0,0,0-1.48-.61c-.95,1.1-1.44,2-1.18.08l-1.48.61.79.86a.87.87,0,0,0,1.58-.21l.86-1.72-1.58-.67-.67.72,1.1.83a4.37,4.37,0,0,1,0-1.69H137a5.45,5.45,0,0,0,1,2.83.88.88,0,0,0,1.49,0,8.14,8.14,0,0,0,1.46-5.65.87.87,0,0,0-1.3-.75c-2.08,1.38-3,1.75-2.81,4.53.07.91,1.5,1.25,1.7.23a7,7,0,0,1,1.34-3l-1.61-.43a6.71,6.71,0,0,0,1.05,3,.87.87,0,0,0,1.49,0,12,12,0,0,0,1.67-6.24.87.87,0,0,0-1.61-.44,6.18,6.18,0,0,0-.94,2.88h1.73a13.55,13.55,0,0,0-.28-3.92.87.87,0,0,0-1.58-.2,9.91,9.91,0,0,0-1,4.21.87.87,0,0,0,1.7.23,14.15,14.15,0,0,0,.28-4.59c-.08-.77-1.19-1.28-1.61-.44a13.68,13.68,0,0,0-1.5,6.67h1.73a43.73,43.73,0,0,1-.22-5.25l-1.7.23.37,1.2a.87.87,0,0,0,1.7-.23l.69-5.8c.12-1-1.48-1.17-1.7-.23l-.62,2.65,1.7.23-.13-2.56c-.05-1.11-1.77-1.12-1.73,0a11.86,11.86,0,0,0,1.06,4.5.87.87,0,0,0,1.58-.21l1.06-5-1.7-.23a15.85,15.85,0,0,0,.38,5.53.87.87,0,0,0,1.66,0l1-3.87a.87.87,0,0,0-1.67-.46,7.4,7.4,0,0,0,.27,5.14.87.87,0,0,0,1.67,0c1.08-3.79,2.93-8.28,2-12.26-.2-.9-1.4-.75-1.67,0a22.38,22.38,0,0,0-1.27,6h1.73l.28-3.8c.07-1-1.38-1.09-1.7-.23a25.39,25.39,0,0,0-1.27,4.71l1.7.23a12.67,12.67,0,0,0-.85-4,.88.88,0,0,0-1.67,0,20.75,20.75,0,0,0-1.26,5.82h1.72l0-5.42A.86.86,0,0,0,139,198a6.64,6.64,0,0,0-.29,2.94c.09.88,1.54,1.28,1.7.23a12.15,12.15,0,0,0-.26-5.09c-.28-1.08-1.89-.62-1.66.46l.39,1.87c.2,1,1.65.7,1.7-.23l.2-1.71h-1.67a11.19,11.19,0,0,0,.76,1.65.87.87,0,0,0,1.61-.43l0-3.53-1.69.23,1,4.47c.21.93,1.81.75,1.7-.23a32.24,32.24,0,0,1-.07-6.44l-1.7.23c.38,1.63.82,3.23,1.35,4.82.25.75,1.51.9,1.67,0l.9-4.93-1.7-.23a44.07,44.07,0,0,1-.91,6.15l1.67.46a29.1,29.1,0,0,1,1.53-5.44l-1.44.38.49.52a.87.87,0,0,0,1.45-.38,10.53,10.53,0,0,0,0-4.11.87.87,0,0,0-1.58-.21,18.13,18.13,0,0,0-1.54,3.93l1.67.46a17.28,17.28,0,0,0,.3-4.92.86.86,0,0,0-1.69-.23,18.36,18.36,0,0,0-1.09,4.13l1.7.23a5.47,5.47,0,0,0-.62-3.32.87.87,0,0,0-1.49,0,24,24,0,0,0-2.5,4.51l1.58.21.21-3h-1.49a15.33,15.33,0,0,0,1.09,2.23c.45.83,1.52.34,1.61-.44l.7-5.52-1.7.23c.22,1.46.5,2.89.84,4.32a.87.87,0,0,0,1.67,0c.24-1.36.48-5.12-1.94-4.77-2.18.3-1.93,4.84-1.91,6.27a.87.87,0,0,0,1.73,0,32.28,32.28,0,0,0-.52-7.6l-1.67.46a31.79,31.79,0,0,0,2.13,6.44c.32.71,1.39.45,1.58-.21l1.68-5.61-1.58.2L144.7,191a.87.87,0,0,0,1.58-.2,37.16,37.16,0,0,0,.61-6.66.87.87,0,0,0-1.7-.23,47.14,47.14,0,0,0-1.22,5l1.7.23-.22-5.12a.86.86,0,0,0-1.69-.23,23.62,23.62,0,0,0-.8,4.63h1.73a11.09,11.09,0,0,0-1.5-4.74c-.33-.59-1.46-.56-1.58.2a12.19,12.19,0,0,0,.45,5.81.87.87,0,0,0,1.67-.46,38.14,38.14,0,0,0-1.74-5.43.87.87,0,0,0-1.7.23,16.34,16.34,0,0,0,.34,5l1.66-.46-1.47-4.79c-.33-1.06-2-.61-1.67.46Z"/><path class="cls-1" d="M135.06,224.12a4,4,0,0,0-.67,2.71c.06.67,1,1.23,1.48.61a4,4,0,0,1,1-1l-1.48-.61c0,.32-.69,1-.8,1.47a.87.87,0,0,0,1.06,1.06,10.6,10.6,0,0,0,2.23-.58.87.87,0,0,0-.45-1.67c-1.91.49-3.49,1.54-3.1,3.7a.88.88,0,0,0,1.27.52,4,4,0,0,0,1.33-1.41.87.87,0,0,0-1.36-1.05c-1,1-2.26,3.38-.67,4.4a.85.85,0,0,0,.87,0,2.6,2.6,0,0,0,.86-3,.87.87,0,0,0-1.67,0,34.53,34.53,0,0,0-.69,3.48,13.22,13.22,0,0,0-.11,1.39c0,.33-.15,1.37.18,1.13-.89.65,0,2.15.87,1.49a1.58,1.58,0,0,0,.72-1.34c.17-1,0-2.12.15-3.17.14-.85.35-1.68.55-2.52H135c.89.81,1.5.6,1.83-.64l-1.36-1.05-.7.78,1.27.52a2.18,2.18,0,0,1,1.88-1.57l-.45-1.67a10.32,10.32,0,0,1-2.23.58l1.06,1.07c.21-.87.84-.95.86-1.93a.88.88,0,0,0-1.48-.61,4.1,4.1,0,0,0-1,1l1.47.62a2.18,2.18,0,0,1,.43-1.84c.6-.94-.9-1.81-1.49-.87Z"/><path class="cls-1" d="M110.65,166.14a5.71,5.71,0,0,0-2.91,3.14.87.87,0,0,0,1.36,1.05,19.58,19.58,0,0,1,3-2l-1-1.35a18.67,18.67,0,0,1-2.77,2.78.87.87,0,0,0,.84,1.45,12.5,12.5,0,0,0,3.71-2.18c.78-.65-.22-1.79-1-1.36a20.13,20.13,0,0,0-3.71,2.54c-.67.58.05,1.67.84,1.45a31,31,0,0,0,4.65-1.74l-.88-1.49-3.48,2.24a.87.87,0,0,0,.87,1.5,27.05,27.05,0,0,1,4.31-1.47l-.66-1.58a48.53,48.53,0,0,0-4.46,2.35.87.87,0,0,0,.66,1.58,25.91,25.91,0,0,0,4.56-1.42c1-.41.65-2-.46-1.67-3.13.85-6,1.82-8.46,4-.75.69.21,1.8,1,1.36l4.17-2.14c.85-.44.25-2-.67-1.58a15.24,15.24,0,0,1-4.52,1.14l.75,1.31a4.39,4.39,0,0,1,2.39-2.29l-.87-1.5-2.29,1.63.87,1.49a11.07,11.07,0,0,1,3.61-1.78.87.87,0,0,0-.46-1.67l-3.87.84,1,1.28,1.73-1.94-1.05-1.36-2.48,2.78,1.35,1.05.56-1.19a.87.87,0,0,0-1.36-1l-3.73,2.92c-.77.61.23,1.87,1,1.36l1.58-1-.87-1.49a26.66,26.66,0,0,0-3.89,3.13c-.76.73.2,1.73,1,1.36l5.73-2.53-1.19-1.18a8.4,8.4,0,0,1-3.15,2.56c-.83.47-.26,2,.66,1.58l4.33-1.8c1-.41.59-2.07-.46-1.66q-4.56,1.78-9,3.95l1.19,1.19a11,11,0,0,1,1.75-2c.68-.68-.21-1.91-1.05-1.36l-4.86,3.2a.87.87,0,0,0,.67,1.58l8.51-2.26a.87.87,0,0,0-.46-1.67c-4,.8-7.16,2.92-10.38,5.28-.88.64-.11,2.07.87,1.49L98,180.51a.87.87,0,0,0-.67-1.58L93.11,180l.84,1.44c.3-.3.62-.58,1-.85.86-.73-.36-1.9-1.22-1.22l-2.15,1.7,1.22,1.23a5.36,5.36,0,0,1,2.77-1.4l-.66-1.58c-3.38,1.48-7.13,2.51-9.17,5.84a.87.87,0,0,0,.52,1.27c3.47.64,5.84-2.15,8.36-4.1.8-.63-.22-1.79-1-1.36-3.14,1.63-6.32,3.18-9.43,4.88-1,.54-.1,2,.88,1.5,3.1-1.71,6.28-3.25,9.42-4.89l-1-1.35c-1.83,1.42-4.06,4.13-6.67,3.65l.51,1.27c1.84-3,5.52-3.89,8.55-5.22.92-.4.26-1.81-.66-1.58a8.77,8.77,0,0,0-3.54,1.84c-.87.72.36,1.91,1.22,1.23l2.15-1.71-1.22-1.22c-.33.27-.65.55-1,.85a.87.87,0,0,0,.84,1.45l4.22-1.1L97.13,179,93,181.49l.87,1.49c3.09-2.26,6.15-4.34,10-5.1l-.46-1.67-8.51,2.26.66,1.58,4.87-3.2-1.05-1.35a19.09,19.09,0,0,0-2,2.37c-.55.76.49,1.53,1.19,1.19q4.18-2.09,8.54-3.79l-.46-1.66-4.33,1.8.67,1.58a10.63,10.63,0,0,0,3.78-3.19c.56-.79-.49-1.49-1.19-1.18l-5.73,2.53,1,1.36a25,25,0,0,1,3.54-2.87c.91-.61.08-2.09-.87-1.49l-1.58,1,1,1.36,3.72-2.92-1.35-1.05c-.19.4-.37.8-.56,1.19-.39.83.66,1.83,1.36,1.05L108.6,170c.62-.69-.21-2-1-1.36a8,8,0,0,0-2.34,2.56.87.87,0,0,0,1,1.27l3.87-.84-.46-1.67a13.28,13.28,0,0,0-4,2c-.9.64,0,2.14.87,1.49l2.29-1.62a.87.87,0,0,0-.87-1.5,7.24,7.24,0,0,0-3,2.91.87.87,0,0,0,.75,1.3,17.53,17.53,0,0,0,5-1.21l-.67-1.58-4.16,2.15,1.05,1.36c2.21-2,4.87-2.84,7.69-3.6l-.46-1.67a25.91,25.91,0,0,1-4.56,1.42l.67,1.58c1.45-.86,2.93-1.63,4.46-2.35.91-.42.26-1.81-.67-1.58a31,31,0,0,0-4.72,1.64l.87,1.5,3.49-2.25a.87.87,0,0,0-.88-1.49,26.84,26.84,0,0,1-4.23,1.56l.84,1.45a16.27,16.27,0,0,1,3.36-2.27l-1.05-1.36a7.81,7.81,0,0,1-2.94,1.73l.84,1.45a18.73,18.73,0,0,0,2.77-2.79.87.87,0,0,0-1-1.36,21.83,21.83,0,0,0-3.34,2.31l1.36,1a3.81,3.81,0,0,1,2.29-2.53c1-.52.11-2-.88-1.49Z"/><path class="cls-1" d="M106.9,154.47a46.64,46.64,0,0,1-6,2.25l.46,1.66a30.65,30.65,0,0,1,6.68-1.72l-.67-1.58c-3.28,1.5-6.76,1.7-10.31,1.83l.22,1.7a17.64,17.64,0,0,1,5.42-1.12l-.23-1.69a24.43,24.43,0,0,1-8.3,1.56l.23,1.69a87.81,87.81,0,0,1,14.39-1.13l-.23-1.69a91.83,91.83,0,0,1-10.89,2.24c-.95.13-.74,1.78.23,1.69l11.55-1-.23-1.7c-2.91.67-5.82,1.2-8.77,1.58l.23,1.7a52.66,52.66,0,0,1,7.93-.73l-.23-1.7-3.78,1.11c-.91.27-.78,1.76.22,1.7l4.3-.25v-1.73l-15.4,1.76.23,1.7a43.93,43.93,0,0,1,6.62-2.11c1.11-.25.61-1.82-.46-1.66a48.28,48.28,0,0,1-8.32.47l.43,1.61a28.9,28.9,0,0,1,5-1.58l-.46-1.67A23.57,23.57,0,0,1,90.24,159l.62,1.47a4.26,4.26,0,0,1,3.93-1.06l-.23-1.7-12.2,1.95c-1,.17-.65,1.6.23,1.7A44.87,44.87,0,0,0,93.07,161c1.08-.12,1.11-1.83,0-1.73a64.5,64.5,0,0,0-10,1.53.87.87,0,0,0,.23,1.7l11.84-.45v-1.73l-7,.84a.87.87,0,0,0,0,1.73l4.56.09v-1.73q-7.82.75-15.64,1.4l.23,1.7,7.6-1.34c1-.17.71-1.68-.23-1.69l-7.16-.14V163a13,13,0,0,0,5.89-1.29A.88.88,0,0,0,83,160,59.15,59.15,0,0,0,70.33,162c-.77.2-.88,1.54,0,1.66a42.26,42.26,0,0,0,7.2.42.86.86,0,0,0,0-1.72,46.19,46.19,0,0,0-7.43.36c-.86.11-1.29,1.52-.23,1.69a29.25,29.25,0,0,0,8.51.19.87.87,0,0,0,0-1.73A29.69,29.69,0,0,0,68.73,164a.87.87,0,0,0,.23,1.7,34.57,34.57,0,0,0,5.48.1c.91-.06,1.24-1.52.23-1.7a42.26,42.26,0,0,0-8.77-.69.87.87,0,0,0,0,1.73,11.75,11.75,0,0,0,5.95-.79.87.87,0,0,0,0-1.66c-3.28-1.12-6.25,1-9.56.54-1-.14-1.08,1.39-.23,1.7a31.7,31.7,0,0,0,5.82,1.5l.23-1.7q-3.83-.08-7.64-.27v1.73l3-.17c.8-.05,1.25-1.2.44-1.62-2.54-1.29-5-1.18-7.8-.83a.87.87,0,0,0-.23,1.7l5,1.48.22-1.7-5.54-.46c-.83-.07-1.22,1.27-.44,1.61a14.06,14.06,0,0,0,2.81.94l.23-1.7-4.67-.37c-1.13-.08-1.07,1.59,0,1.73a7.75,7.75,0,0,0,3.11-.19.87.87,0,0,0,0-1.67,35.69,35.69,0,0,0-11.71-.25c-.9.12-.75,1.44,0,1.66a54.92,54.92,0,0,0,9.07,1.88c1,.13,1.13-1.42.23-1.69l-3.58-1.09-.23,1.7c2,.13,4,.34,6.07.67,1.09.18,1.56-1.48.46-1.66a64.9,64.9,0,0,0-6.53-.74c-1-.06-1.14,1.43-.23,1.7l3.58,1.08.23-1.7a52.72,52.72,0,0,1-8.61-1.81v1.66a32.85,32.85,0,0,1,10.79.26v-1.67a4.7,4.7,0,0,1-2.65.13v1.73l4.67.37a.87.87,0,0,0,.23-1.7,8.77,8.77,0,0,1-2.39-.76l-.44,1.61,5.54.46c1,.08,1.14-1.43.23-1.7l-5-1.47-.23,1.69c2.4-.31,4.69-.54,6.93.6l.43-1.61-3,.17a.87.87,0,0,0,0,1.73q3.81.2,7.64.27c.94,0,1.21-1.54.23-1.7a30,30,0,0,1-5.82-1.5l-.23,1.7c3.09.41,6.1-1.62,9.1-.61v-1.66a10.88,10.88,0,0,1-5.49.72v1.73a39.92,39.92,0,0,1,8.31.62l.23-1.69A34.57,34.57,0,0,1,69,164l.23,1.7a28.27,28.27,0,0,1,9.19-1.1v-1.73a27.85,27.85,0,0,1-8-.12l-.23,1.7a47.31,47.31,0,0,1,7.43-.37v-1.72a42.19,42.19,0,0,1-6.74-.36v1.66A57.48,57.48,0,0,1,83,161.77l-.44-1.61a11.16,11.16,0,0,1-5,1.06.87.87,0,0,0,0,1.73l7.16.14-.23-1.7-7.6,1.33a.87.87,0,0,0,.23,1.7q7.83-.64,15.64-1.4a.87.87,0,0,0,0-1.73l-4.56-.09v1.73l7-.84c1.07-.13,1.14-1.77,0-1.73l-11.84.45.23,1.69A61,61,0,0,1,93.07,161v-1.73a44.87,44.87,0,0,1-10.48.33l.23,1.7,12.2-2c1-.17.64-1.59-.23-1.7a6.2,6.2,0,0,0-5.16,1.57.87.87,0,0,0,.61,1.48,25.47,25.47,0,0,0,6.9-1.43.87.87,0,0,0-.46-1.67,30.67,30.67,0,0,0-5.37,1.76c-.84.36-.35,1.59.44,1.61a50.52,50.52,0,0,0,8.78-.54l-.46-1.66a43.89,43.89,0,0,0-6.62,2.1c-.81.33-.83,1.82.23,1.7l15.4-1.76c1.08-.12,1.13-1.8,0-1.73l-4.3.25.23,1.7L108.8,160a.87.87,0,0,0-.23-1.7,56.06,56.06,0,0,0-8.39.79c-1,.16-.74,1.83.23,1.7,3.1-.4,6.17-.94,9.23-1.64.93-.21.75-1.79-.23-1.7l-11.55,1,.23,1.7A89.87,89.87,0,0,0,109,157.89a.87.87,0,0,0-.23-1.7,91.16,91.16,0,0,0-14.85,1.2c-1,.13-.74,1.75.23,1.69a25.6,25.6,0,0,0,8.76-1.62c.82-.34.84-1.75-.23-1.7a19,19,0,0,0-5.87,1.18c-.87.32-.81,1.74.23,1.7,3.89-.14,7.6-.43,11.19-2.06,1-.45.21-1.71-.67-1.58a31,31,0,0,0-6.68,1.72c-1,.38-.63,2,.46,1.66a48.29,48.29,0,0,0,6.46-2.42c1-.46.13-2-.88-1.49Z"/><path class="cls-1" d="M75.47,133.5a17.24,17.24,0,0,0,3.07,1.3.87.87,0,0,0,.67-1.58h0l.31,1.18.2.58.87-1.49-.82-.4-.67,1.58a12.41,12.41,0,0,1,2.15.74c.92.36,1.52-1.13.67-1.58l-1.43-1.18-.84,1.45A30.47,30.47,0,0,1,83.89,136l.66-1.58-1.79-.72-.46,1.67a8.35,8.35,0,0,1,2.25.62c1,.35,1.47-1.07.67-1.58l-1.62-1.23-.85,1.45c1.79.56,3.54,1.16,5.29,1.83l.23-1.7-2.65-.3c-.87-.1-1.14,1.21-.43,1.61a31,31,0,0,0,4.7,2.12l.46-1.66a6.88,6.88,0,0,1-2.95-1.07L87,137a23.33,23.33,0,0,1,3.63.62.86.86,0,0,0,.46-1.66,5.33,5.33,0,0,1-2.68-1.44L87.53,136a31.64,31.64,0,0,1,4.57,1.48l.46-1.66a8,8,0,0,0-2.31-.55c-.9-.14-1.6,1.09-.67,1.58a30.58,30.58,0,0,0,4.06,1.8l.23-1.7a5.32,5.32,0,0,1-2.68-.24.87.87,0,0,0-.46,1.67l4.88,1.54.46-1.67A10.3,10.3,0,0,1,92,136.07l-.84,1.44L95.68,139c1.06.35,1.49-1.29.46-1.66a4.89,4.89,0,0,1-2.61-1.84l-.84,1.44c1.93.66,3.83,1.38,5.73,2.15l.23-1.7-3.06-.15a.87.87,0,0,0-.44,1.61,39.14,39.14,0,0,0,3.54,1.94l.67-1.58c-1.28-.26-2.53-.55-3.78-.89L95.12,140a33.15,33.15,0,0,1,7.47,2.56l.87-1.49-1.39-.62L101.4,142c2.75.9,5.45,1.88,8.14,2.93.9.36,1.56-1.17.67-1.58q-5.43-2.47-10.79-5c-1-.48-1.87,1-.87,1.5,3.58,1.71,7.17,3.4,10.78,5l.67-1.58q-4-1.57-8.14-2.93c-.91-.3-1.57,1.19-.66,1.58l1.39.62c1,.44,1.89-1,.87-1.49a33.91,33.91,0,0,0-7.88-2.73.86.86,0,0,0-.46,1.66c1.25.35,2.5.64,3.78.9.9.18,1.6-1.13.66-1.58A39.14,39.14,0,0,1,96,137.35L95.59,139l3.06.15c1,.06,1.06-1.36.23-1.7-1.9-.77-3.8-1.48-5.74-2.15-.87-.3-1.36.85-.84,1.45A7.46,7.46,0,0,0,95.68,139l.46-1.66-4.51-1.49a.87.87,0,0,0-.84,1.45,12.19,12.19,0,0,0,4.82,2.61.87.87,0,0,0,.46-1.67l-4.88-1.54-.46,1.67a9.2,9.2,0,0,0,3.14.3A.86.86,0,0,0,94.1,137a28.26,28.26,0,0,1-3.64-1.63l-.67,1.58a8.36,8.36,0,0,1,2.31.54c1.09.34,1.46-1.25.46-1.66A30.45,30.45,0,0,0,88,134.32c-.78-.19-1.52.85-.84,1.44a8.58,8.58,0,0,0,3.45,1.88l.46-1.66a37.53,37.53,0,0,0-4.09-.69c-.88-.09-1.15,1.22-.44,1.62a11,11,0,0,0,3.36,1.23.86.86,0,0,0,.46-1.66,28.14,28.14,0,0,1-4.29-2l-.44,1.62,2.65.3c1,.12,1.07-1.38.23-1.7q-2.62-1-5.29-1.83a.87.87,0,0,0-.84,1.45,9.65,9.65,0,0,0,2,1.5l.66-1.58a8,8,0,0,0-2.25-.63.87.87,0,0,0-.46,1.67l1.79.72c.91.36,1.53-1.13.67-1.59a34.63,34.63,0,0,0-4.68-2c-.89-.31-1.34.84-.84,1.44A3.5,3.5,0,0,0,81,135.31l.67-1.58a12.41,12.41,0,0,0-2.15-.74c-.92-.27-1.56,1.14-.66,1.58l.82.4c1,.49,1.86-1,.87-1.49a3.69,3.69,0,0,0-1.72-.53.83.83,0,0,0-.74.43l-.1.14a.87.87,0,0,0,.31,1.18l0,0,.66-1.59A9.89,9.89,0,0,1,76.34,132c-1-.53-1.86,1-.87,1.49Z"/><path class="cls-1" d="M98.33,138.17a25.29,25.29,0,0,0,4.82,2.49c1,.41,1.49-1.26.46-1.66a10,10,0,0,1-2.4-1.37l-.44,1.61c3.07,0,6.61,1.37,9.6,2l.23-1.69-7.78-.27a.87.87,0,0,0-.23,1.7q4.13,1.2,8.32,2.13l.23-1.7a27.76,27.76,0,0,1-7.78-1.26c-1.06-.33-1.52,1.34-.46,1.67a29.5,29.5,0,0,0,8.24,1.32.87.87,0,0,0,.23-1.7q-4.2-.93-8.32-2.13l-.23,1.7,7.78.26a.86.86,0,0,0,.23-1.69c-3.16-.7-6.82-2.09-10.06-2.09a.88.88,0,0,0-.44,1.62,12.06,12.06,0,0,0,2.82,1.53l.46-1.66a22.87,22.87,0,0,1-4.4-2.33c-.93-.62-1.8.88-.88,1.5Z"/><path class="cls-1" d="M78.45,134.15a7.87,7.87,0,0,1,2.15.36l.46-1.67-.88-.16a.89.89,0,0,0-1.06.61.87.87,0,0,0,.6,1.06l.88.16a.87.87,0,0,0,.46-1.67,10,10,0,0,0-2.61-.42.87.87,0,0,0,0,1.73Z"/><path class="cls-1" d="M116.76,72.67a9.68,9.68,0,0,0,1.78,4.21.87.87,0,0,0,1.61-.44,7.11,7.11,0,0,0-.07-2.64l-1.67.46a41.73,41.73,0,0,0,2.13,5.95c.41.9,1.85.25,1.58-.67l-.41-1.44-1.67.46a29.27,29.27,0,0,0,1.9,3.9.87.87,0,0,0,1.61-.43,7.27,7.27,0,0,0-.45-2.72l-1.66.46a32.09,32.09,0,0,1,1.12,3.57l1.67-.46a6.32,6.32,0,0,0-2.82-3.65.88.88,0,0,0-1.27,1,84.83,84.83,0,0,0,3.15,8.16c.43,1,1.72.21,1.58-.67-.29-1.82-.66-3.6-1.12-5.38l-1.67.46L123.76,87a.87.87,0,0,0,1.67-.46,46.7,46.7,0,0,0-1-5.09l-1.67.46,2.78,7.37a.87.87,0,0,0,1.67-.46c-.42-1.76-.91-3.5-1.45-5.22l-1.67.46L126.82,91l1.58-.66c-.72-1.28-1.29-2.87-2.41-3.85a.9.9,0,0,0-1.22,0c-1.19.92-.36,2.65.09,3.78l1.58-.67-.55-1.17c-.41-.88-1.94-.25-1.58.67.7,1.84,1.47,3.63,2.33,5.41.42.88,1.88.26,1.58-.67a9.32,9.32,0,0,1-.7-3.55l-1.61.44,2,3.11c.43.66,1.71.47,1.61-.44a32.31,32.31,0,0,0-1.2-6.15.86.86,0,0,0-1.66.46,24.72,24.72,0,0,0,3.42,7.59l1.49-.87-2.16-3.15c-.53-.77-1.87-.32-1.58.67l1.48,5,1.58-.66-1.79-2.54a.87.87,0,0,0-1.61.43,4.5,4.5,0,0,0,.08,2l1.45-.84L128,93.94c-.63-.8-1.81.22-1.36,1,1.25,2.31,2.39,4.66,3.44,7.07.39.89,1.88.25,1.58-.67a22.72,22.72,0,0,1-1-4.44l-1.61.43,1.88,3.42a.87.87,0,0,0,1.58-.67l-1.19-5.42-1.58.67a31.15,31.15,0,0,1,2.28,4.77l1.58-.67a13.44,13.44,0,0,1-1.45-4.89l-1.62.44a59.64,59.64,0,0,1,3.59,8.68l1.58-.66-2.3-3.25a.87.87,0,0,0-1.61.44,4.16,4.16,0,0,0,.76,2.9l1.36-1-1.64-2a.86.86,0,0,0-1.47.61,8.08,8.08,0,0,0,.89,3L133,102.6l-.91-1c-.7-.75-1.8.2-1.36,1l2.72,5.28c.48.93,1.75.24,1.58-.67l-.87-4.91c-.17-1-1.73-.74-1.7.23l.08,2.28,1.09-.83a7.6,7.6,0,0,0-1.77-.23.87.87,0,0,0-.84,1.09c.65,1.66,1.71,4.36,3.82,4.3a.85.85,0,0,0,.75-.43c.91-1.92.43-4-.33-5.91l-1.58.66,1.39,2.27a.87.87,0,0,0,1.58-.67,43.89,43.89,0,0,0-1.18-4.68l-1.58.66a43.49,43.49,0,0,0,3.49,6.39l1.35-1-1.88-2.36c-.61-.76-1.55.11-1.45.84a14.61,14.61,0,0,0,1.52,4.71l1.36-1a7.54,7.54,0,0,1-1.43-2.12.88.88,0,0,0-1.62.44,6.29,6.29,0,0,0,.26,2.32l1.07-1.06-1.12-.59a.88.88,0,0,0-1.3.75c-.25,2.87,2,5.2,3.19,7.76a.87.87,0,0,0,1.61-.44c-.27-2.45.28-6.45-2.45-7.54-.61-.25-1.25.48-1.06,1.06a28.37,28.37,0,0,0,3.17,6.73.87.87,0,0,0,1.58-.66l-1.51-7.87-1.06,1.07,1.34,1.31c.39.9,1.86.25,1.58-.67a3.89,3.89,0,0,0-.68-1.49l-1.36,1a52.9,52.9,0,0,1,4.72,6.51l1.18-1.19a13.92,13.92,0,0,1-4.17-4.5.87.87,0,0,0-1.58.67,19.44,19.44,0,0,0,2.21,5.35l1-1.27-1.53-1.68-1.61.44,1,1.37c.53.72,2,.33,1.58-.66a7.69,7.69,0,0,0-1.68-2.76c-.76-.82-2,.41-1.23,1.22l1.24,2,1.59-.67-1-1.38c-.46-.62-1.67-.5-1.61.44a3.24,3.24,0,0,0,2.8,3.35.87.87,0,0,0,1-1.27,18.06,18.06,0,0,1-2-4.94l-1.58.67a16.27,16.27,0,0,0,4.79,5.12c.72.5,1.62-.48,1.18-1.19a55.85,55.85,0,0,0-5-6.86c-.63-.74-1.89.23-1.35,1l.5,1.08,1.58-.67a3.23,3.23,0,0,0-2.37-2.1c-.67-.23-1.18.46-1.06,1.06l1.51,7.87,1.58-.67a26.78,26.78,0,0,1-3-6.32L136,109.76c1,.42,1.07,4.84,1.18,5.88l1.61-.43c-.93-2-3.14-4.7-2.95-6.89l-1.3.75a7.24,7.24,0,0,0,1.53.75c.65.26,1.2-.48,1.06-1.06l-.2-1.86-1.61.43a13.21,13.21,0,0,0,1.7,2.47c.67.78,1.79-.21,1.36-1a12.5,12.5,0,0,1-1.34-4.3l-1.44.84,1.88,2.36c.61.77,1.9-.23,1.36-1a44.45,44.45,0,0,1-3.49-6.39c-.4-.9-1.86-.26-1.58.66a44.68,44.68,0,0,1,1.18,4.69l1.58-.67-1.39-2.26c-.49-.79-2-.28-1.58.67a7.35,7.35,0,0,1,.77,3.23,2.37,2.37,0,0,1-1.67-2.11l-.83,1.1,1.31.17a.89.89,0,0,0,1.1-.84l-.08-2.28-1.69.23.87,4.91,1.58-.66-2.73-5.28-1.36,1,.92,1c.69.75,1.79-.2,1.36-1l-.66-2.13-1.48.61,1.64,2c.61.77,1.89-.23,1.35-1l-.52-2-1.61.43,2.3,3.25c.53.75,1.9.33,1.58-.67A63.72,63.72,0,0,0,132,94.16c-.37-.74-1.71-.42-1.61.43a16.91,16.91,0,0,0,1.69,5.77c.43.86,1.93.25,1.58-.67a33.17,33.17,0,0,0-2.46-5.18.87.87,0,0,0-1.58.66l1.2,5.42,1.58-.67-1.88-3.41c-.39-.7-1.72-.44-1.62.44a25.83,25.83,0,0,0,1.07,4.9l1.58-.67c-1.05-2.4-2.19-4.75-3.44-7.06l-1.36,1,1.07,1.37c.58.76,1.58-.1,1.44-.84l0-1.54-1.61.44,1.79,2.54c.54.76,1.88.33,1.58-.67l-1.48-5-1.58.67,2.16,3.14c.62.9,2.08.09,1.49-.87a23.63,23.63,0,0,1-3.25-7.18l-1.66.46a30.5,30.5,0,0,1,1.13,5.69L129.4,93l-2-3.11c-.44-.68-1.67-.47-1.61.43a14.82,14.82,0,0,0,.76,4l1.58-.66c-.79-1.64-1.51-3.3-2.16-5l-1.58.66.55,1.18c.41.87,2,.24,1.58-.67a4,4,0,0,1-.53-2.1h-1.22a14.76,14.76,0,0,1,2.13,3.5c.47.83,1.95.26,1.58-.67l-2.72-6.88c-.4-1-2-.63-1.67.46q.82,2.58,1.45,5.22l1.67-.46-2.78-7.37a.87.87,0,0,0-1.67.46,46.7,46.7,0,0,1,1,5.09l1.67-.46-1.68-4.26a.87.87,0,0,0-1.67.46,54.63,54.63,0,0,1,1.12,5.38l1.58-.67a78.65,78.65,0,0,1-3-7.74l-1.27,1a4.2,4.2,0,0,1,2,2.61c.42,1,2,.65,1.67-.46a32.14,32.14,0,0,0-1.13-3.57c-.38-1-2-.6-1.66.46a4.46,4.46,0,0,1,.38,2.26l1.61-.44a25.69,25.69,0,0,1-1.72-3.49c-.4-1-2-.64-1.67.46l.42,1.44,1.58-.67a37.46,37.46,0,0,1-2-5.53c-.31-1.11-1.82-.61-1.67.46v2.18L120,76a8.92,8.92,0,0,1-1.6-3.79c-.2-1.1-1.86-.63-1.67.46Z"/><path class="cls-1" d="M133.66,107.71A4.06,4.06,0,0,0,134,110a.86.86,0,0,0,1.18.31.88.88,0,0,0,.31-1.18,1.93,1.93,0,0,1-.13-1,.87.87,0,0,0-1.67-.46Z"/><path class="cls-1" d="M158.42,77.46l-.23,7.74,1.7-.22a5.67,5.67,0,0,1-.34-2.79c0-1.14-1.59-1.07-1.73,0l-1,7.7,1.69-.23a7.7,7.7,0,0,1,.25-4.12l-1.7-.23a13.06,13.06,0,0,1-.32,5.13.87.87,0,0,0,1.67.46c.54-1.64,1.13-3.24,1.82-4.83l-1.61-.44c-.29,2.92-.73,5.8-1.3,8.68H159a49.68,49.68,0,0,1-.78-6,.87.87,0,0,0-1.7-.23,44.8,44.8,0,0,0-2.5,9.72c-.13.89,1.08,1.62,1.58.67a49.78,49.78,0,0,0,2.66-6l-1.7-.23-.69,6c-.11,1,1.43,1.13,1.7.23a26.69,26.69,0,0,1,1.6-4.09l-1.58-.21a13.15,13.15,0,0,1-.36,6.5l1.58-.21a9,9,0,0,1-.65-5h-1.73a32.45,32.45,0,0,1-.43,7l1.45-.38c-1.33-1.7-1-3.67-.77-5.56H155a25.6,25.6,0,0,1-.8,5.84h1.67a7.15,7.15,0,0,1-.1-4.39l-1.66-.46-1.67,7.82c-.24,1.08,1.4,1.54,1.66.46a16.43,16.43,0,0,1,1.34-3.66l-1.58-.21a5.43,5.43,0,0,1,.07,3.83l1.7.23a11.18,11.18,0,0,1,1.37-4.75l-1.58-.21a44.88,44.88,0,0,1,.43,4.61l1.69-.23a9.47,9.47,0,0,1,.75-5.3l-1.58-.2a24.67,24.67,0,0,1,.49,6.47l1.7-.23-.61-3.24a.87.87,0,0,0-1.7.23,37.29,37.29,0,0,1-.46,8.57h1.67c-.49-2.46-.86-4.93-1.12-7.43h-1.73a26.19,26.19,0,0,1,0,6.13l1.61-.43a12.66,12.66,0,0,1-1.06-4.48.87.87,0,0,0-1.73,0l-.54,4.11,1.61-.43-.71-3a.87.87,0,0,0-1.73,0,21.68,21.68,0,0,1-.8,3.76h1.67l-.08-2.09c.1-1-1.51-1.18-1.7-.23-.49,2.49-1.1,4.93-1.83,7.35a.88.88,0,0,0,1.45.85c1.9-1.62,1.85-4.17,3.31-6.07l-1.61-.43a18.09,18.09,0,0,1-1.34,5.07c-.4.94,1.07,1.44,1.58.66a55.59,55.59,0,0,0,3.31-5.75l-1.61-.43a28.67,28.67,0,0,1-1.08,5.35l1.67.46a12,12,0,0,1,1.59-4.11l-1.58-.21a16.3,16.3,0,0,1,.7,3.82h1.73a28.26,28.26,0,0,1-.18-3.68h-1.72c.23,3.19,1.46-.11,2.29-1.23l-1.58-.21a38.87,38.87,0,0,1,.51,5.38l1.62-.44-.31-.7c-.44-1-1.93-.14-1.49.87l.3.7c.35.81,1.64.38,1.61-.43a42.3,42.3,0,0,0-.57-5.84c-.14-.82-1.2-.73-1.58-.21-1.19,1.6-3.5,5.45-.66,6.57a.87.87,0,0,0,.84-.22c1.24-1.11.86-2.68.74-4.24a.86.86,0,0,0-1.72,0,28.25,28.25,0,0,0,.17,3.68c.12,1.08,1.8,1.13,1.73,0A19.41,19.41,0,0,0,157,110a.87.87,0,0,0-1.58-.2,12.78,12.78,0,0,0-1.77,4.52.87.87,0,0,0,1.67.46,32.1,32.1,0,0,0,1.14-5.81.87.87,0,0,0-1.61-.44,57.56,57.56,0,0,1-3.32,5.75l1.58.67a19.3,19.3,0,0,0,1.4-5.53c.11-1-1.16-1-1.61-.44-1.34,1.74-1.34,4.27-3,5.71l1.44.84c.73-2.42,1.34-4.86,1.83-7.35l-1.7-.23a5,5,0,0,0,.14,2.55.87.87,0,0,0,1.67,0,24.49,24.49,0,0,0,.86-4.22h-1.73a9.5,9.5,0,0,0,1,3.84c.4.88,1.51.3,1.61-.44l.54-4.11h-1.73A16.13,16.13,0,0,0,155,110.9c.41.87,1.53.31,1.61-.44a25.65,25.65,0,0,0,0-6.13c-.13-1.08-1.84-1.11-1.73,0,.27,2.66.66,5.27,1.18,7.89a.87.87,0,0,0,1.67,0,40.16,40.16,0,0,0,.52-9l-1.7.23.61,3.24c.19,1,1.65.7,1.7-.23a26.4,26.4,0,0,0-.55-6.93.87.87,0,0,0-1.58-.21,11.71,11.71,0,0,0-.92,6.63c.13,1,1.74.74,1.7-.23-.08-1.71-.25-3.38-.49-5.07a.87.87,0,0,0-1.58-.21,14.26,14.26,0,0,0-1.61,5.63c-.08,1,1.46,1.17,1.7.23a8.53,8.53,0,0,0-.07-4.75.88.88,0,0,0-1.58-.21,18.52,18.52,0,0,0-1.51,4.08l1.66.46L155.73,98a.86.86,0,0,0-1.66-.46,8.68,8.68,0,0,0,.09,5.31.87.87,0,0,0,1.67,0,28,28,0,0,0,.86-6.3c0-1.15-1.59-1.07-1.73,0-.33,2.56-.35,4.71,1.28,6.78a.86.86,0,0,0,1.44-.38,35.44,35.44,0,0,0,.49-7.42.87.87,0,0,0-1.73,0,10.63,10.63,0,0,0,.88,5.83c.31.72,1.39.44,1.59-.21a15.29,15.29,0,0,0,.36-7.42.87.87,0,0,0-1.58-.21,29.15,29.15,0,0,0-1.78,4.51l1.7.23.69-6c.12-1-1.38-1.08-1.7-.23a46,46,0,0,1-2.49,5.56l1.59.66a44.23,44.23,0,0,1,2.5-9.72l-1.7-.23a53.28,53.28,0,0,0,.84,6.41.87.87,0,0,0,1.67,0c.6-3,1.05-6.07,1.35-9.14a.87.87,0,0,0-1.61-.43c-.74,1.72-1.41,3.46-2,5.24l1.67.46a14,14,0,0,0,.38-5.59c-.12-.9-1.43-1.25-1.7-.23a11.75,11.75,0,0,0-.24,5c.16,1,1.58.64,1.7-.23l1-7.7h-1.73a9.28,9.28,0,0,0,.4,3.24.87.87,0,0,0,1.7-.23l.23-7.74c0-1.11-1.69-1.11-1.73,0Z"/><path class="cls-1" d="M109.31,227.35q14.31-20.74,26.74-42.7a.87.87,0,0,0-1.49-.88q-12.44,21.94-26.74,42.71c-.64.92.86,1.79,1.49.87Z"/><path class="cls-1" d="M108.94,227.67l22.71-45.4c.5-1-1-1.87-1.49-.87l-22.72,45.4c-.49,1,1,1.86,1.5.87Z"/><path class="cls-1" d="M222.09,95.71Q201.21,110,181.66,126.14c-.86.71.37,1.93,1.22,1.22q19.37-16,40.09-30.16c.91-.63,0-2.13-.88-1.49Z"/><path class="cls-1" d="M222.38,95.68l-37.47,34.25c-.82.76.41,2,1.23,1.23L223.6,96.9c.82-.75-.4-2-1.22-1.22Z"/><path class="cls-1" d="M92.69,90.38q17.84,17.82,37.18,34c.85.71,2.08-.51,1.22-1.22q-19.34-16.19-37.17-34c-.79-.79-2,.44-1.23,1.23Z"/><path class="cls-1" d="M92.63,90.09l40.55,30.54c.88.67,1.75-.83.87-1.5L93.5,88.6c-.89-.67-1.75.83-.87,1.49Z"/><path class="cls-1" d="M193.07,228.43q-8-24-18.08-47.27c-.44-1-1.93-.14-1.49.87q10,23,17.9,46.86c.35,1.05,2,.6,1.67-.46Z"/><path class="cls-1" d="M193,228.71l-22.56-45.47c-.5-1-2-.12-1.5.87l22.56,45.48c.5,1,2,.12,1.5-.88Z"/><path class="cls-1" d="M56.13,107.71a499,499,0,0,1,59.53,26.34c1,.52,1.86-1,.87-1.49A501.92,501.92,0,0,0,56.59,106c-1-.38-1.49,1.29-.46,1.67Z"/><path class="cls-1" d="M56.61,107.29l64,21.58c1.06.35,1.51-1.32.46-1.67l-64-21.58c-1.06-.35-1.51,1.32-.46,1.67Z"/><path class="cls-1" d="M81.3,226.9a502,502,0,0,1,45.29-47.07c.82-.75-.4-2-1.23-1.22a501.94,501.94,0,0,0-45.28,47.07c-.71.85.5,2.08,1.22,1.22Z"/><path class="cls-1" d="M81.07,226.32l42.2-52.76c.68-.87-.53-2.1-1.23-1.23L79.85,225.09c-.69.86.53,2.1,1.22,1.23Z"/><path class="cls-1" d="M250.62,116.65A501.32,501.32,0,0,1,187.38,133c-1.09.21-.63,1.88.46,1.67a501.32,501.32,0,0,0,63.24-16.36c1-.35.6-2-.46-1.67Z"/><path class="cls-1" d="M250.51,117.27,186.92,140.1c-1,.37-.59,2.05.46,1.67L251,118.94c1-.37.59-2-.46-1.67Z"/><path class="cls-1" d="M170.27,184.13l1.72,4.05c.42,1,1.72.22,1.58-.66a28.26,28.26,0,0,1-.32-4l-1.7.23.5,2.24c.24,1.09,1.9.63,1.66-.45l-.49-2.25a.87.87,0,0,0-1.7.23,30.41,30.41,0,0,0,.39,4.46l1.58-.67-1.73-4.05c-.43-1-1.92-.14-1.49.87Z"/><path class="cls-1" d="M172.65,183.75v.72a.87.87,0,0,0,1.73,0l.08-.09-1.36-.17.63,1.16c.39.72,1.7.44,1.61-.43a9.75,9.75,0,0,0-.49-2.56.87.87,0,0,0-1.7.23,26.68,26.68,0,0,0,.24,6.25l1.58-.67-.65-2-1.7.23a9.24,9.24,0,0,0,1.61,3.19.88.88,0,0,0,1.58-.2,6.79,6.79,0,0,0,.22-4.2c-.26-1.11-1.83-.61-1.67.46l.76,5,1.27-1a5.57,5.57,0,0,1-2.24-2c-.54-.73-1.92-.34-1.58.66a25.39,25.39,0,0,0,2.93,6.1c.42.65,1.7.48,1.61-.44a24.14,24.14,0,0,0-.63-3.56l-1.66.46c.44,1.17.9,2.33,1.37,3.48a.87.87,0,0,0,1.7-.23,10.78,10.78,0,0,0-.31-4.38.87.87,0,0,0-1.67.46l.92,3.83c.25,1.09,1.91.63,1.66-.46a3.46,3.46,0,0,0-1.28-2.14.87.87,0,0,0-1.44.85,20.74,20.74,0,0,0,1.85,5.64c.49,1,2,.13,1.49-.87s-1-2.15-1.37-3.25c-.27-.69-1.54-1-1.67,0a4.09,4.09,0,0,0,.54,3.06.87.87,0,0,0,1.61-.43,4.38,4.38,0,0,0-.4-2l-1.58.66,1.57,3.1c.42.83,1.55.35,1.61-.43a7.6,7.6,0,0,0-.87-4.42c-.45-.92-1.77-.25-1.58.67l1.51,7.1,1.58-.67a4.46,4.46,0,0,1-1.08-2.36l-1.58.67,1.55,2.49a.87.87,0,0,0,1.58-.66,25,25,0,0,0-1.08-4.6l-1.58.67a17.26,17.26,0,0,1,1.49,4.41c.22,1.09,1.89.63,1.67-.46a20.44,20.44,0,0,0-1.66-4.83.87.87,0,0,0-1.58.67,25.82,25.82,0,0,1,1.07,4.6l1.58-.67-1.54-2.49a.87.87,0,0,0-1.58.66,7.48,7.48,0,0,0,1.24,2.78.87.87,0,0,0,1.58-.67l-1.5-7.1-1.58.66a5.08,5.08,0,0,1,.63,3.55l1.62-.44-1.57-3.1c-.44-.86-1.92-.26-1.59.67l.34,1.53,1.61-.44-.36-1.73h-1.67c.48,1.24,1,2.45,1.55,3.66l1.49-.87a19.14,19.14,0,0,1-1.68-5.23l-1.44.84.84,1.37,1.66-.46-.91-3.83-1.67.46a8.6,8.6,0,0,1,.25,3.92l1.7-.23c-.48-1.15-.93-2.31-1.38-3.48a.86.86,0,0,0-1.66.46,15.64,15.64,0,0,1,.56,3.1l1.61-.44a23.7,23.7,0,0,1-2.76-5.68l-1.58.67a9.12,9.12,0,0,0,2.86,2.6.88.88,0,0,0,1.27-1l-.75-5-1.67.46a4.32,4.32,0,0,1-.22,3.28l1.58-.21A5.88,5.88,0,0,1,174.3,186c-.27-.89-1.82-.77-1.7.23a7.56,7.56,0,0,0,.88,2.87c.5.94,1.72.24,1.58-.66a24.93,24.93,0,0,1-.17-5.79l-1.7.23.43,2.1,1.61-.44-.63-1.17a.88.88,0,0,0-1.36-.17,1.33,1.33,0,0,0-.58,1.31h1.73v-.72a.87.87,0,0,0-1.73,0Z"/><path class="cls-1" d="M179.08,200.64a9.18,9.18,0,0,0,1.17,2.92c.41.67,1.73.46,1.62-.44l-.38-3c-.13-1.08-1.85-1.11-1.72,0a24,24,0,0,0,1.9,7.05.87.87,0,0,0,1.61-.44,36.24,36.24,0,0,0-.81-4.73c-.27-1.09-1.89-.62-1.67.46a51.13,51.13,0,0,0,2.58,8.67.86.86,0,0,0,1.66-.46l-.6-3.49-1.67.46c.84,3.94,1.82,7.66,4.34,10.87.6.76,1.57-.11,1.45-.84a22.26,22.26,0,0,0-2.18-6.66c-.5-1-2-.12-1.49.87a21,21,0,0,1,2,6.25l1.44-.85c-2.31-2.93-3.13-6.52-3.89-10.1-.23-1.1-1.86-.62-1.67.46l.61,3.49,1.66-.46a52,52,0,0,1-2.57-8.67l-1.67.46a32.32,32.32,0,0,1,.75,4.27l1.62-.44a20.93,20.93,0,0,1-1.68-6.17h-1.72l.37,3,1.61-.43a5.33,5.33,0,0,1-1-2.51c-.25-1.09-1.91-.63-1.67.46Z"/><path class="cls-1" d="M129.67,184.51l-1.2,4a.87.87,0,0,0,1.67.46,10.86,10.86,0,0,1,1.38-2.92l-1.58-.21a2.89,2.89,0,0,1-.57,2.86l1.45.84a7.31,7.31,0,0,1,.85-1.92c.16-.32.52-1.38.74-1.5l-.67.08q-.47-.78-.57,0l-.32.81c-.32.82.89,1.43,1.45.84a13.56,13.56,0,0,1,1.68-1.53l-1.27-1a9.09,9.09,0,0,1-1.83,2.6,21.35,21.35,0,0,0-1.69,2.73c-.52,1,1,1.86,1.49.88a20.85,20.85,0,0,1,2-3.16,7.35,7.35,0,0,0,1.69-2.59c.17-.66-.65-1.46-1.27-1a16.61,16.61,0,0,0-2,1.81l1.44.84c.28-.71.81-1.56.44-2.33a1.06,1.06,0,0,0-1.22-.63c-.7.15-1,1-1.24,1.55a11.8,11.8,0,0,0-1.35,3c-.13.76.82,1.56,1.44.84a4.64,4.64,0,0,0,1-4.54.88.88,0,0,0-1.58-.21,13,13,0,0,0-1.56,3.34l1.67.46,1.2-4a.87.87,0,0,0-1.67-.46Z"/><path class="cls-1" d="M128,188.09c-.2,1.16-.44,2.32-.72,3.47a.87.87,0,0,0,1.58.66,6.79,6.79,0,0,1,1.49-1.49l-1.27-1-1.17,3.07c-.28.74.66,1.32,1.27,1a2.75,2.75,0,0,0,1.33-1.62.87.87,0,0,0-1.45-.84L127,193.62l1.36.18a2.39,2.39,0,0,1,.16-2.3.87.87,0,0,0-1.5-.87,4.18,4.18,0,0,0-.15,4,.86.86,0,0,0,1.35.17l2.06-2.28-1.45-.84a.83.83,0,0,1-.53.59l1.27,1,1.16-3.07a.87.87,0,0,0-1.27-1,9.34,9.34,0,0,0-2.1,2.11l1.58.67c.28-1.15.52-2.31.72-3.47s-1.48-1.56-1.67-.46Z"/><path class="cls-1" d="M137.05,212.39a6.16,6.16,0,0,0,.34,2.52.9.9,0,0,0,1.07.61.88.88,0,0,0,.6-1.07,5,5,0,0,1-.28-2.06.88.88,0,0,0-.87-.87.89.89,0,0,0-.86.87Z"/><path class="cls-1" d="M138.4,213.79l0-1.5-1.61.43a5,5,0,0,1,.56,2.08l1.69-.23a13.43,13.43,0,0,1-.43-1.77.87.87,0,1,0-1.67.46,12.37,12.37,0,0,0,.44,1.77c.28.89,1.74.78,1.7-.23a7.06,7.06,0,0,0-.8-3,.87.87,0,0,0-1.61.44l0,1.5a.87.87,0,0,0,1.73,0Z"/><path class="cls-1" d="M126.83,192a13.78,13.78,0,0,1-.9,3.46c-.4,1,1.27,1.49,1.67.46a15.51,15.51,0,0,0,1-3.92c.14-1.1-1.59-1.09-1.73,0Z"/><path class="cls-1" d="M127.37,194.09a9.24,9.24,0,0,0-1.12,2h1.49c-.56-.84-.32-2.59-1.81-2.54-1.79.06-2,3.55-2.41,4.78a.87.87,0,0,0,1.27,1l2.59-1.69-.88-1.5a11.2,11.2,0,0,0-3.68,5.52l1.7.23a8.16,8.16,0,0,1,.6-2.94c.27-.79-.9-1.53-1.44-.85a16.45,16.45,0,0,0-3.14,6.4.87.87,0,0,0,1.58.66,4.72,4.72,0,0,1,2.34-2c.86-.43.26-1.92-.67-1.58-3,1.12-4.21,3.59-5.25,6.48-.34,1,1.07,1.47,1.58.67a5.42,5.42,0,0,1,2.44-2.39c.8-.49.28-2-.67-1.58a7.25,7.25,0,0,0-3.61,3.51c-1.71,2.8-3.25,5.71-4.72,8.65-.5,1,1,1.86,1.49.87,1-2,2-3.9,3.07-5.81s2.13-4.72,4.23-5.55l-.66-1.59a8.76,8.76,0,0,0-3.06,3l1.58.66c.8-2.23,1.59-4.36,4-5.27l-.66-1.58a7.35,7.35,0,0,0-3,2.59l1.58.67a14.26,14.26,0,0,1,2.69-5.63l-1.44-.84a12.81,12.81,0,0,0-.67,3.4c-.07,1,1.38,1.09,1.7.23.68-1.79,1.24-3.27,2.89-4.48.87-.65.07-2.12-.88-1.5l-2.58,1.7,1.27,1c.24-.73,1.06-2.78.78-2.94-.65-.36.52,1.49.28,1.12a.87.87,0,0,0,1.49,0,8.78,8.78,0,0,1,1.12-2c.61-.94-.89-1.81-1.49-.88Z"/><path class="cls-1" d="M119.33,177.38a8.9,8.9,0,0,1-1,2.31.88.88,0,0,0,1.19,1.19,11.08,11.08,0,0,0,2.56-1.94l-1.35-1.05-1.25,2.51c-.41.82.72,1.87,1.36,1a3.63,3.63,0,0,1,2.18-1.61l-1-1.27-1.81,1.9a.87.87,0,0,0,.67,1.58,21.92,21.92,0,0,0,3.64-1.13.87.87,0,0,0-.46-1.67c-3.38.71-5.64,3.68-8,6l1.22,1.22a22.1,22.1,0,0,0,3.42-5.79c.33-.82-.89-1.43-1.45-.84a29.27,29.27,0,0,0-2.5,3.06l1.61.44.75-2.18-1.49-.87c-1.8,2.75-4.25,4.15-5.48,7.36-.36.93,1.09,1.48,1.58.66a9,9,0,0,1,3.83-3.57l-1.27-1a9.8,9.8,0,0,1-3,4.64l1.45.84,1.49-2.2-1-1.36-4.21,4,1.48.61.69-2.19-1.44-.84-.72,1.85a.88.88,0,0,0,.52,1.27,4,4,0,0,0,2.31.09l-.67-1.58a12.52,12.52,0,0,0-4.26,4.39L110,193a22.07,22.07,0,0,1,1.91-3c.55-.82-.69-1.76-1.36-1.05a28.15,28.15,0,0,0-4.48,6.24.87.87,0,0,0,1,1.27c1.58-.39,2.54-1.06,2.59-2.71a.87.87,0,0,0-1.3-.75,8.47,8.47,0,0,0-3,2.43.87.87,0,0,0,.84,1.44,2.56,2.56,0,0,0,1.3-.57l-1-1.36c-2.25,2.46-4.53,4.89-6.74,7.37-1.68,1.89-3.05,4.42-5,6-.86.7.37,1.92,1.22,1.22,2-1.64,3.27-4.08,5-6,2.22-2.48,4.49-4.91,6.74-7.36.63-.69-.2-1.94-1-1.36l-.89.39.84,1.45a7.67,7.67,0,0,1,2.7-2.16l-1.31-.74-1.32,1,1,1.27a26.63,26.63,0,0,1,4.22-5.89l-1.36-1c-1,1.51-3.49,3.94-1.29,5.4a.88.88,0,0,0,1.18-.31,10.55,10.55,0,0,1,3.64-3.78.87.87,0,0,0-.66-1.58l-1.39-.08.52,1.27a5.69,5.69,0,0,0,.88-2.27c.19-.8-.84-1.52-1.44-.84a4,4,0,0,0-1.2,3.41.87.87,0,0,0,1.47.62l4.21-4a.87.87,0,0,0-1-1.36,4.28,4.28,0,0,0-2.28,3.23.87.87,0,0,0,1.45.84,11.78,11.78,0,0,0,3.49-5.4.88.88,0,0,0-1.27-1,10.54,10.54,0,0,0-4.45,4.2l1.58.66c1.14-3,3.65-4.4,5.3-6.94.62-.94-.85-1.75-1.49-.87a4.62,4.62,0,0,0-1,3,.88.88,0,0,0,1.62.43,16,16,0,0,1,2.23-2.7l-1.45-.85a19.17,19.17,0,0,1-3,5c-.69.84.41,2,1.22,1.22,2.08-2,4.27-4.94,7.23-5.56l-.46-1.67a22,22,0,0,1-3.64,1.14l.67,1.58a6,6,0,0,0,2.42-2.52.87.87,0,0,0-1-1.27,5.71,5.71,0,0,0-3,2l1.36,1.05,1.25-2.52a.87.87,0,0,0-1.36-1,6.26,6.26,0,0,1-2.22,1.67l1.19,1.19a16.57,16.57,0,0,0,1.21-2.73c.36-1.06-1.31-1.51-1.67-.46Z"/><path class="cls-1" d="M106.23,195a1.84,1.84,0,0,0-2,.57,3.38,3.38,0,0,0-.63,2.27.88.88,0,0,0,1.48.61,7.61,7.61,0,0,0,1.32-1.51.87.87,0,0,0-.31-1.19.89.89,0,0,0-1.18.31,6.15,6.15,0,0,1-1,1.17l1.47.61a2,2,0,0,1,.14-1,.34.34,0,0,1,.14-.15c.09-.07,0,0,.15,0a.87.87,0,0,0,1.06-.61.89.89,0,0,0-.6-1.06Z"/><path class="cls-1" d="M81.22,187.49a3.6,3.6,0,0,0-.88,2.23l1.7-.23s-.05-.22,0-.14,0-.15,0,0a1.1,1.1,0,0,0,0-.15l.07-.13c-.06.09.17-.17.14-.14s.14-.06,0,0c0,0,.27,0,.12,0a.88.88,0,0,0,.86-.87.87.87,0,0,0-.86-.86,2.23,2.23,0,0,0-2,2.8.87.87,0,0,0,1.7-.23,1.58,1.58,0,0,1,.38-1,.9.9,0,0,0,0-1.23.89.89,0,0,0-1.23,0Z"/><path class="cls-1" d="M78.47,115.5c1.73,1.24,3.7,1.59,5.7,2.28a76.51,76.51,0,0,1,8.65,3.82c.7.34,1.75-.42,1.19-1.18a9.47,9.47,0,0,0-3.89-3.2c-.82-.37-1.84.66-1.05,1.36a36.81,36.81,0,0,0,8.63,5.7.86.86,0,0,0,.87-1.49,51.56,51.56,0,0,1-4.88-3.43l-1,1.36a71.82,71.82,0,0,1,7.73,4.27c.81.52,1.83-.74,1-1.36L96.8,120l-1,1.36c2.34,1.5,4.7,2.94,7.1,4.32l.67-1.58a6,6,0,0,1-4.12-3l-1,1.27a48.14,48.14,0,0,1,9.25,4.48l.66-1.58L102.8,124a.87.87,0,0,0-.66,1.58,50.8,50.8,0,0,0,9.47,4.74c1,.36,1.46-1.07.67-1.58q-1.92-1.23-3.75-2.58l-.67,1.58,2.08.67a.89.89,0,0,0,1.1-.84c.26-2.87-3.67-3.94-5.85-4.49a.87.87,0,0,0-.67,1.58c3.81,2.35,8.36,2.32,12.36,4.2l.44-1.61a75.26,75.26,0,0,1-7.64-.55c-.93-.12-1.06,1.18-.43,1.61a15.43,15.43,0,0,0,6.18,2.55l.23-1.7a9.29,9.29,0,0,1-3.63-.3.88.88,0,0,0-.84,1.45,6.73,6.73,0,0,0,4,2,.87.87,0,0,0,1-1.27,9.85,9.85,0,0,0-2.89-3.14l-.67,1.58,5.3,1.65c.92.28,1.56-1.15.66-1.58-1.45-.71-3.18-2-4.83-2.09a.88.88,0,0,0-.87.87v.16a.9.9,0,0,0,.87.87h.12c1.12.06,1.11-1.67,0-1.73h-.12l.86.86v-.16l-.86.86c1.19.07,2.89,1.33,4,1.85l.67-1.58-5.3-1.64c-1-.31-1.42,1-.66,1.58a6.11,6.11,0,0,1,2.27,2.51l1-1.27a4.46,4.46,0,0,1-3.19-1.6l-.84,1.45a15.55,15.55,0,0,0,4.09.36c.92,0,1.23-1.51.23-1.7a14.57,14.57,0,0,1-5.77-2.37l-.44,1.61a75.26,75.26,0,0,0,7.64.55c.82,0,1.23-1.24.44-1.61-4-1.87-8.59-1.87-12.37-4.2l-.66,1.58c1.1.28,4.73,1.15,4.58,2.82l1.09-.83-2.08-.66c-1-.32-1.4,1-.66,1.58,1.22.9,2.47,1.75,3.74,2.57l.67-1.58a48.66,48.66,0,0,1-9.06-4.56l-.67,1.58,5.54,1.32a.87.87,0,0,0,.67-1.58,50.28,50.28,0,0,0-9.66-4.66.87.87,0,0,0-1,1.27,7.33,7.33,0,0,0,5.15,3.75.87.87,0,0,0,.67-1.58c-2.41-1.38-4.77-2.82-7.1-4.32-.81-.52-1.83.75-1,1.36l4.61,3.66,1-1.36a72.68,72.68,0,0,0-7.73-4.28c-.81-.38-1.87.71-1.05,1.36a53.2,53.2,0,0,0,5.24,3.7l.87-1.49a34.67,34.67,0,0,1-8.27-5.43l-1,1.35a7.82,7.82,0,0,1,3.26,2.58l1.19-1.18C91.5,119,89.3,118,87,117c-2.46-1-5.53-1.48-7.7-3-.91-.65-1.77.85-.87,1.49Z"/><path class="cls-1" d="M101.51,98l7.43,5.12.67-1.58a3.89,3.89,0,0,1-2.18-1l-.66,1.58a23.19,23.19,0,0,1,4.31,1.94l.67-1.58-3.15-.75a.87.87,0,0,0-.84,1.45,22.88,22.88,0,0,0,5,3.61l.44-1.61-1.3-.6-.87,1.49c1.58,1,3.13,2.1,4.64,3.23l.87-1.49L113.29,106a.87.87,0,0,0-1,1.36,16.37,16.37,0,0,0,3.26,2.41.87.87,0,0,0,.87-1.5,14.45,14.45,0,0,1-2.91-2.14l-1,1.36,3.26,1.83c1,.56,1.74-.84.87-1.49-1.51-1.13-3-2.21-4.64-3.23-1-.62-1.73.84-.87,1.49a4.07,4.07,0,0,0,2.17.84c.87.11,1.15-1.23.44-1.61A21.73,21.73,0,0,1,109,102l-.84,1.44,3.15.75a.87.87,0,0,0,.67-1.58,25,25,0,0,0-4.73-2.11c-1-.33-1.43,1-.67,1.58a6.42,6.42,0,0,0,2.59,1.11.87.87,0,0,0,.67-1.58l-7.44-5.11c-.91-.63-1.78.86-.87,1.49Z"/><path class="cls-1" d="M115.26,110.3l1.36.92c.8.55,1.81-.73,1-1.36l-.87-1.29-1.27,1a7.47,7.47,0,0,1,1.57,1c.71.49,1.65-.48,1.19-1.19l-.4-.59-1.18,1.18,2.68,1.9.87-1.5-1.62-1c-.69-.44-1.39.29-1.27,1a2.93,2.93,0,0,0,.79,1.92l1.18-1.19-1-.76-.87,1.49,3,2.18.87-1.5-1.62-1c-.87-.54-1.66.64-1.05,1.36l1.63,1.89c.65.77,1.81-.21,1.36-1.05a20.35,20.35,0,0,1-1.35-3l-1.27,1a7.46,7.46,0,0,1,1.89,1.55.87.87,0,0,0,1.36-1l-.36-.63-1.36,1c.94,1,1.91,2,2.91,3,.8.78,2-.39,1.22-1.23a19.32,19.32,0,0,0-2.26-2.17.88.88,0,0,0-1.45.84,7.26,7.26,0,0,0,1.22,2.61l1.18-1.18-1.15-.76c-.87-.59-1.62.64-1,1.35a10.92,10.92,0,0,0,3.32,2.77.87.87,0,0,0,1-1.36,4.89,4.89,0,0,1-1.13-1.74l-1.18,1.18,2.28,1.38a.87.87,0,0,0,1.18-1.19,18.09,18.09,0,0,0-2.28-3l-1,1.36a40.78,40.78,0,0,1,4.93,3.41l1-1.36c-.74-.44-1.47-.89-2.2-1.34s-1.71.65-1.05,1.35a32.38,32.38,0,0,0,4.62,4.05l.87-1.5a27.26,27.26,0,0,0-6.35-3.32.88.88,0,0,0-1,1.27,33.06,33.06,0,0,0,2.54,3.13l1.22-1.23-.95-1.14-1.36,1c.92.72,1.84,1.4,2.82,2,.59.38,1.56-.27,1.27-1a5.21,5.21,0,0,0-1.13-1.89c-.72-.85-1.94.38-1.23,1.22l.69,1.13,1.27-1a23.57,23.57,0,0,1-2.47-1.76c-.7-.56-2,.15-1.35,1a7,7,0,0,0,1.22,1.5c.79.78,2-.41,1.22-1.23a28.73,28.73,0,0,1-2.26-2.77l-1,1.27a25.25,25.25,0,0,1,5.94,3.15c.91.64,1.76-.85.87-1.5a30,30,0,0,1-4.27-3.77l-1.05,1.36c.73.46,1.46.91,2.2,1.35s1.83-.73,1.05-1.36a43.61,43.61,0,0,0-5.27-3.68.87.87,0,0,0-1,1.36,15.91,15.91,0,0,1,2,2.61l1.18-1.19-2.28-1.37c-.79-.48-1.53.44-1.18,1.18a8.28,8.28,0,0,0,1.4,2.1l1-1.36a9.77,9.77,0,0,1-3-2.5l-1,1.36,1.15.76c.7.47,1.69-.47,1.18-1.18a4.33,4.33,0,0,1-1-2.2l-1.44.84a18.61,18.61,0,0,1,2.26,2.18l1.22-1.23c-1-1-2-2-2.91-3-.67-.73-1.84.2-1.36,1l.36.63,1.36-1a12.22,12.22,0,0,0-2.24-1.82.88.88,0,0,0-1.27,1,24.41,24.41,0,0,0,1.52,3.38l1.36-1-1.62-1.89-1,1.35,1.62,1c1,.59,1.75-.85.87-1.5l-3-2.17c-.91-.66-1.74.83-.87,1.49l1,.77c.68.53,1.65-.5,1.18-1.19l-.61-1.5-1.27,1,1.62,1c1,.61,1.77-.86.87-1.5l-2.68-1.89c-.7-.5-1.65.48-1.18,1.18l.39.6L118,109a8.23,8.23,0,0,0-1.58-1,.88.88,0,0,0-1.27,1,3.65,3.65,0,0,0,1.32,2.06l1-1.36-1.36-.93c-.92-.63-1.78.87-.87,1.5Z"/><path class="cls-1" d="M185,127l2-1.32-.38-1.44a28.51,28.51,0,0,0-2.73,3.37.88.88,0,0,0,1,1.27A7.59,7.59,0,0,0,188,127l-1.44-.84-.9,1.53,1.22,1.23c1.42-1.6,2.74-3.25,4-5,.63-.86-.66-1.6-1.36-1l-2.84,2.25,1.45.84,1.43-1.88-1.22-1.22-.91.66.84,1.45c1.38-1.32,2.86-.93,3.65-2.82.3-.71-.68-1.37-1.27-1l-2.14,1.4c-.78.51-.3,1.91.67,1.58a6.23,6.23,0,0,0,2.94-1.91c.54-.6,0-1.74-.84-1.45l-1.66.57.66,1.58c1.17-.55.53-.3.54-.37-.16.93-1.67,2.36-2.19,3.09-.65.92.84,1.75,1.5.88l5-6.73c.61-.81-.67-1.68-1.36-1a6.87,6.87,0,0,1-3,1.85l.84,1.45a8.36,8.36,0,0,1,3.36-1.76l-.84-1.45-1.9,2.44c-.54.7.17,2,1,1.36a22.57,22.57,0,0,0,4-3.63.87.87,0,0,0-1-1.35l-4.49,2.2,1,1.35a18.41,18.41,0,0,1,5.34-4.05l-1.28-1-.49,1.8a.86.86,0,0,0,1.66.46l2-2.45-1.27-1a3.76,3.76,0,0,1-1.52,2.51l1.36,1a29.37,29.37,0,0,1,2.22-4.23l-1.49-.87a11,11,0,0,0-.71,1.83c-.21.68.65,1.43,1.27,1l1.5-1.1-1.27-1-.43.81,1.35,1a4.26,4.26,0,0,1,1.67-2.33c.73-.64-.25-2-1.05-1.36l-1,.72c-.89.65,0,2.15.87,1.49l1-.72-1.05-1.36a6.7,6.7,0,0,0-1.94,2.69.87.87,0,0,0,1.36,1,1.84,1.84,0,0,0,.88-1.58c.1-.65-.59-1.48-1.27-1l-1.51,1.1,1.27,1,.54-1.42a.86.86,0,0,0-1.49-.87,28.91,28.91,0,0,0-2.23,4.23.87.87,0,0,0,1.36,1,6.23,6.23,0,0,0,2-3.27.88.88,0,0,0-1.27-1,5.74,5.74,0,0,0-2.78,3.49l1.66.46.5-1.8a.88.88,0,0,0-1.27-1,19.2,19.2,0,0,0-5.68,4.32.87.87,0,0,0,1.05,1.36l4.49-2.2-1-1.36a20.37,20.37,0,0,1-3.64,3.36l1.05,1.36,1.89-2.45c.48-.61.08-1.74-.84-1.44a13.21,13.21,0,0,0-4.12,2.2c-.68.53.06,1.74.84,1.45a10.85,10.85,0,0,0,3.77-2.3l-1.36-1-5,6.72,1.5.88c1.11-1.57,3.74-3.89,2.08-5.81a.87.87,0,0,0-.84-.22c-1,.19-1,.48-2,.94s-.26,1.89.67,1.58l1.66-.57-.84-1.44-2.18,1.46.67,1.58,2.13-1.4-1.27-1c-.3.73-2.5,1.38-3.21,2a.88.88,0,0,0,.85,1.45,2.62,2.62,0,0,0,1.67-1.11.86.86,0,0,0-1.22-1.22,6.06,6.06,0,0,0-1.88,2.64c-.38.9.86,1.3,1.44.84l2.84-2.25-1.35-1.05a59.28,59.28,0,0,1-3.73,4.62c-.74.83.45,2,1.22,1.23a5.11,5.11,0,0,0,1.34-2.3.87.87,0,0,0-1.44-.84l-2.48,1.36,1,1.28a24.59,24.59,0,0,1,2.45-3,.87.87,0,0,0-.38-1.44,3.24,3.24,0,0,0-4.16,3c-.14,1.1,1.59,1.09,1.73,0Z"/><path class="cls-1" d="M182.79,106.51l-.35.11a.88.88,0,0,0-.6,1.06.86.86,0,0,0,1.06.61l.35-.12a.86.86,0,0,0-.46-1.66Z"/><path class="cls-1" d="M186.37,106.7a.65.65,0,0,1-.26-.26.87.87,0,1,0,1.67-.46,1.28,1.28,0,0,0-.95-1,.9.9,0,0,0-1.07.61.88.88,0,0,0,.61,1.06Z"/><path class="cls-1" d="M204,76a5.1,5.1,0,0,0,1.59-1.58.87.87,0,0,0-.31-1.18.86.86,0,0,0-1.18.31,3,3,0,0,1-1,.95.89.89,0,0,0-.31,1.19A.87.87,0,0,0,204,76Z"/><path class="cls-1" d="M198.44,116.44l.91-1-1.22-1.22a3.33,3.33,0,0,0-.6,1.09c-.33,1.07,1.34,1.52,1.67.46a1.09,1.09,0,0,1,.15-.33.86.86,0,1,0-1.22-1.22l-.91,1c-.76.81.46,2,1.22,1.22Z"/><path class="cls-1" d="M202.09,113.52l1.25-1.43-1.44-.38-.14,1.26,1.58.66a3.33,3.33,0,0,1,2.17-2.25l-1-1.27a18.87,18.87,0,0,1-2,2.43l1.36,1c2.54-4.16,7.2-5.76,10.14-9.46.68-.86-.53-2.1-1.22-1.22-1.65,2.07-3.94,3.3-6,4.91a18.61,18.61,0,0,0-4.42,4.9.86.86,0,0,0,1.35,1A22.63,22.63,0,0,0,206,111c.41-.58-.29-1.55-1-1.27a5.56,5.56,0,0,0-3.37,3.46.87.87,0,0,0,1.58.67,3.52,3.52,0,0,0,.31-2.59.88.88,0,0,0-1.45-.38l-1.25,1.43c-.73.83.49,2.06,1.22,1.22Z"/><path class="cls-1" d="M203,110.73a4,4,0,0,1-.8.94l1.45.38c0-.13,0-.22.06-.26a.89.89,0,0,0,.31-1.19.87.87,0,0,0-1.18-.31,2,2,0,0,0-.86,2.22.88.88,0,0,0,1.45.38,5.25,5.25,0,0,0,1.06-1.29.86.86,0,0,0-1.49-.87Z"/><path class="cls-1" d="M190.06,135.62a18.81,18.81,0,0,0,4.57-1L194,133a39.56,39.56,0,0,0-3.93,2.63.87.87,0,0,0,.67,1.58l3.13-.83-.67-1.59a7.57,7.57,0,0,0-2.9,2.23.88.88,0,0,0,.62,1.47c3.31-.08,5.83-2.25,9-2.86a.87.87,0,0,0-.23-1.7,43,43,0,0,0-6.19.81l.46,1.66c.51-.13,4.14-.87,4.26-1.3-.07.25-2.82.61-3,.66l1,1.27c1-1.65,1-4.25-1.63-3.7l.67,1.58a7.65,7.65,0,0,1,4-1.3l-.61-1.48-1.32.81a.86.86,0,0,0,.46,1.66l3.81-.69-1-1.28-1.41,1.4a.87.87,0,0,0,.67,1.58l1.37-.23-.84-1.44-.83.64c-.81.62.21,1.81,1,1.36a48.53,48.53,0,0,1,6.5-2.92.86.86,0,0,0-.46-1.66,25.91,25.91,0,0,1-7.27.93l.23,1.7q5-1.41,10.13-2.32l-.84-1.45-2.93,2.46c-.78.66.21,1.8,1,1.36l3.52-1.86c.82-.43.36-1.54-.43-1.61a17.9,17.9,0,0,0-7.58.91.87.87,0,0,0,.46,1.67L213.25,131c1.09-.23.63-1.9-.46-1.67l-10.31,2.15.46,1.67a17.21,17.21,0,0,1,7.12-.85l-.44-1.61-3.52,1.86,1.05,1.36,2.94-2.46c.72-.61-.09-1.58-.85-1.45q-5.13.92-10.13,2.32a.87.87,0,0,0,.23,1.7,27.31,27.31,0,0,0,7.73-1l-.46-1.66a50.23,50.23,0,0,0-6.91,3.09l1.05,1.35.83-.64c.76-.59-.1-1.57-.84-1.45l-1.37.24.67,1.58a8.47,8.47,0,0,0,2-2c.48-.68-.32-1.39-1-1.27l-3.81.7.46,1.66a5.14,5.14,0,0,0,2.08-1.24.87.87,0,0,0-.61-1.48,9.21,9.21,0,0,0-4.9,1.54A.87.87,0,0,0,195,135l-.33,1.16a.88.88,0,0,0,1,1.27c1.33-.29,5.18-.38,4.47-2.7s-5.23-.36-6.61,0c-1.09.28-.62,1.88.46,1.66a40.82,40.82,0,0,1,5.73-.74l-.23-1.7c-3,.57-5.47,2.73-8.56,2.8l.61,1.48A6.67,6.67,0,0,1,194,136.3c.91-.42.26-1.83-.66-1.58l-3.13.83.66,1.58a40.29,40.29,0,0,1,3.94-2.63c.82-.48.28-1.92-.67-1.58a16.21,16.21,0,0,1-4.11,1c-1.09.12-1.11,1.85,0,1.73Z"/><path class="cls-1" d="M209.2,130.17l-.35.08.67,1.58a8.87,8.87,0,0,1,4.86-1.5.87.87,0,0,0,0-1.73,10.62,10.62,0,0,0-5.73,1.74.87.87,0,0,0,.66,1.58l.35-.09c1.08-.26.62-1.92-.46-1.66Z"/><path class="cls-1" d="M212.2,131.65a13.58,13.58,0,0,0,5-1.79.87.87,0,0,0-.67-1.58,9.75,9.75,0,0,1-2.47.28v1.73c5.32-.61,10.51-2.67,15.61-4.22a.87.87,0,0,0-.46-1.67c-4.92,1.5-10,3.57-15.15,4.16-1.07.12-1.13,1.77,0,1.73A19.05,19.05,0,0,0,217,130l-.67-1.58a12.56,12.56,0,0,1-4.58,1.62c-1.1.17-.63,1.83.46,1.66Z"/><path class="cls-1" d="M116.45,69a.21.21,0,0,1,0,.24.88.88,0,0,0-1-1.27l-.3.08a.86.86,0,0,0,.46,1.66l.3-.07-1-1.27a1.65,1.65,0,0,0,0,1.5.86.86,0,0,0,1.49-.87Z"/><path class="cls-1" d="M167.55,224.84c-.14,0-.2-.06-.15-.14s0,0-.05,0-.19,0-.28,0a1.91,1.91,0,0,1-.75-.13.44.44,0,0,0-.49.63,1.27,1.27,0,0,0,1.76.38,1.53,1.53,0,0,0,.4-2c-.25-.5-1-.06-.75.44a.66.66,0,0,1-.1.8.41.41,0,0,1-.57-.08l-.48.63a1.87,1.87,0,0,0,2-.21.75.75,0,0,0-.5-1.26c-.55-.06-.55.81,0,.86Z"/><path class="cls-1" d="M225.15,177.42a.79.79,0,0,1-.27,1.22c-.41.12-.78.07-1,.51a.44.44,0,0,0,.38.65,1.85,1.85,0,0,0,1.82-2.44c-.17-.53-1-.3-.83.23a1,1,0,0,1-1,1.35l.37.65c.06-.12.36-.09.48-.12a1.41,1.41,0,0,0,.94-.84,1.74,1.74,0,0,0-.29-1.82c-.41-.38-1,.23-.61.61Z"/><path class="cls-1" d="M184.86,65.59q-9.69,25.6-21,50.53c-.46,1,1,1.89,1.49.88q11.43-25.12,21.21-50.95c.39-1-1.28-1.49-1.67-.46Z"/><path class="cls-1" d="M185.49,66.61q-3.62,13.14-7.23,26.26c-2.42,8.73-5,17.37-9.27,25.41-.51,1,1,1.86,1.5.87,4.09-7.79,6.74-16.14,9.1-24.6,2.55-9.15,5-18.32,7.57-27.48a.87.87,0,0,0-1.67-.46Z"/><path class="cls-1" d="M166.79,116.13a7.41,7.41,0,0,1,1.28-2.63l-1.58-.67-.68,3.73c-.17.91,1.1,1.6,1.58.67l1.5-2.9-1.61-.44a12.74,12.74,0,0,0,.28,3.38.88.88,0,0,0,1.58.21,40.86,40.86,0,0,0,2.23-6.38.87.87,0,0,0-1.58-.66L167.21,114l1.58.67a18.6,18.6,0,0,1,2.34-6.84l-1.62-.44a20.14,20.14,0,0,0,.47,5.9c.26,1,1.59.68,1.7-.22l1.12-8.66c.11-.84-1.27-1.19-1.61-.43l-2,4.32,1.61.44a16.8,16.8,0,0,1,1.8-5.7l-1.61-.44a49.7,49.7,0,0,1,.13,7.62.87.87,0,0,0,1.7.23c.8-3.57,1.74-7.09,2.83-10.59.32-1-1-1.39-1.58-.66a21.59,21.59,0,0,0-2.33,3.78l1.59.21c-.6-1.71,1.78-4.81,2.56-6.29l-1.58-.21,0,2.86A.87.87,0,0,0,176,100l1.78-5.31a.87.87,0,0,0-1.44-.84A28.28,28.28,0,0,1,174.21,96l1.45.84.93-1.83c.75-.82-.47-2-1.23-1.23a5,5,0,0,0-1.37,2.6.87.87,0,0,0,1.44.84A24.94,24.94,0,0,0,177.54,95l-1.44-.84-1.79,5.31L176,100a7.23,7.23,0,0,0,0-3.78.87.87,0,0,0-1.58-.2c-1.12,2.13-3.63,5.07-2.74,7.62a.88.88,0,0,0,1.58.2,21.54,21.54,0,0,1,2.32-3.78L174,99.36c-1.09,3.5-2,7-2.83,10.59l1.7.23a49.7,49.7,0,0,0-.13-7.62c-.07-.78-1.18-1.26-1.61-.43a19.41,19.41,0,0,0-2,6.57c-.11.84,1.27,1.19,1.61.43l2-4.32-1.61-.44L170,113l1.7-.23a18.83,18.83,0,0,1-.41-5.45.87.87,0,0,0-1.61-.43,19.87,19.87,0,0,0-2.5,7.25.87.87,0,0,0,1.58.66l2.57-3.52-1.58-.67a37.78,37.78,0,0,1-2,6l1.58.21a7.8,7.8,0,0,1-.22-2.92.87.87,0,0,0-1.61-.44l-1.5,2.91,1.58.66.68-3.73a.87.87,0,0,0-1.58-.67,12.19,12.19,0,0,0-1.45,3c-.35,1.06,1.32,1.51,1.66.46Z"/><path class="cls-1" d="M177.08,94.53c-1.39-1.56.71-4.4,1.42-6.11l3.39-8.15c.43-1-1.24-1.47-1.66-.46L175.7,90.67c-1,2.53-1.55,3.16.16,5.09.73.83,1.95-.39,1.22-1.23Z"/><path class="cls-1" d="M177.55,94.34c-.11-2.77,1.61-6,2.61-8.54.41-1-1.26-1.48-1.66-.46-1.09,2.74-2.8,6-2.68,9,.05,1.11,1.78,1.11,1.73,0Z"/><path class="cls-1" d="M185.93,66.55l.25-.12-.64-.49a.79.79,0,0,0,.06.62c.13.32.58.23.74,0a.91.91,0,0,0,.13-.7c-.09-.49-.86-.37-.85.11v.26l.85-.11,0,0h-.75a.08.08,0,0,1,0,.09l.85.11V66a.44.44,0,0,0-.87,0,4.5,4.5,0,0,1-.17,1,.43.43,0,0,0,.79.33,1.9,1.9,0,0,0-.16-2.19c-.34-.44-.95.18-.61.61a1,1,0,0,1,0,1.15l.79.33a6.06,6.06,0,0,0,.21-1.19h-.87v.33c0,.48.75.6.85.12a1,1,0,0,0-.11-.76.44.44,0,0,0-.75,0,.79.79,0,0,0-.12.65c.07.49.85.36.85-.12V66l-.85.12,0,0h.74l0,0c.14-.39-.33-.64-.64-.49l-.24.12c-.5.24-.07,1,.43.75Z"/><path class="cls-1" d="M132.58,185.79l.6-2.83-1.27.52c1.09.57-1.85,2.39-2.15,2.65a4.14,4.14,0,0,0-1.26,1.92c-.81,2.21-2.32,4-3,6.26a.87.87,0,0,0,1.67.46c.54-1.8,1.68-3,2.44-4.6.59-1.24.39-1.92,1.72-3,.51-.42,1.16-.62,1.65-1.07,1.31-1.21,1.54-3.17-.19-4.09a.88.88,0,0,0-1.27.52l-.6,2.83c-.23,1.09,1.43,1.55,1.67.46Z"/><path class="cls-1" d="M169.25,117.72a28.45,28.45,0,0,1,1.95-5l-1.61-.43a7.75,7.75,0,0,1-1.65,5.4l1.18-.31c.28.4.44.26.47-.43.16-.44.32-.87.49-1.3l.75-2q.88-2.27,1.82-4.51c.42-1-1.25-1.47-1.67-.46q-1.39,3.38-2.69,6.78c-.45,1.18-1.23,2.45,0,3.36.4.31.93,0,1.18-.31a9.13,9.13,0,0,0,1.89-6.27c-.06-.8-1.2-1.26-1.62-.44a33,33,0,0,0-2.12,5.36.87.87,0,0,0,1.67.46Z"/><path class="cls-1" d="M171.42,113.25a15.55,15.55,0,0,1,1.8-3.79l-1.61-.44-1.12,2.46,1.45.84a91.56,91.56,0,0,1,3.58-10.59l-1.67-.46a25.64,25.64,0,0,1-2.58,8.1l1.58.66a38.77,38.77,0,0,1,3.7-11.29l-1.62-.44a8.71,8.71,0,0,1-1.84,5.64l1.58.67q5.34-15,9.38-30.49a.86.86,0,0,0-1.66-.46q-4,15.45-9.39,30.49c-.35,1,1,1.39,1.58.66a10.12,10.12,0,0,0,2.08-6.51.87.87,0,0,0-1.61-.44,40.3,40.3,0,0,0-3.86,11.71c-.15.9,1.09,1.61,1.58.67a27.38,27.38,0,0,0,2.75-8.51.87.87,0,0,0-1.67-.46,95.52,95.52,0,0,0-3.58,10.59.87.87,0,0,0,1.44.84,3.88,3.88,0,0,0,1.63-3.68.87.87,0,0,0-1.61-.43,18.13,18.13,0,0,0-2,4.2c-.34,1.06,1.33,1.51,1.67.46Z"/><path class="cls-1" d="M186.23,67.56a2.47,2.47,0,0,0,.61-1.76l-.85.11.09.33a.44.44,0,0,0,.85-.12,1.26,1.26,0,0,0-.31-.87.44.44,0,0,0-.74.31,4.38,4.38,0,0,0,.18,1.14.44.44,0,0,0,.79.1,1.5,1.5,0,0,0,.17-1l-.53.53-.09-.14.83.23a.93.93,0,0,0-.26-1,.44.44,0,0,0-.74.3l-.15,1.41c-.05.51.7.56.85.12.23-.7.26-1.72-.65-1.92-.76-.16-1.16.61-1.29,1.22s.71.78.83.23c0-.1.11-.59.26-.61.31,0,0,.75,0,.85l.84.11.16-1.41-.74.31s.06,0,0,.12a.43.43,0,0,0,.83.23.71.71,0,0,0-.51-.92.43.43,0,0,0-.53.53.57.57,0,0,1-.09.38l.79.1a3.46,3.46,0,0,1-.14-.91l-.74.31a.35.35,0,0,1,.06.25l.85-.11-.1-.33a.43.43,0,0,0-.84.12,1.65,1.65,0,0,1-.36,1.15c-.36.42.25,1,.61.61Z"/></svg>