<svg id="圖層_1" data-name="圖層 1" xmlns="http://www.w3.org/2000/svg" xmlns:xlink="http://www.w3.org/1999/xlink" viewBox="0 0 300 300"><defs><style>.cls-1{fill:#dedfdf;}.cls-2{fill:#facc9b;}.cls-3{fill:#7d7d7d;}.cls-4{fill:#b5b5b6;}.cls-5{fill:#fff;}.cls-6{fill:#231815;}.cls-7{fill:url(#未命名漸層_2);}</style><linearGradient id="未命名漸層_2" x1="18.71" y1="140.32" x2="30.39" y2="140.32" gradientUnits="userSpaceOnUse"><stop offset="0" stop-color="#fff"/><stop offset="1"/></linearGradient></defs><title>seafood1</title><path class="cls-1" d="M46.36,167.37c4.24-.19,9.08-.73,13.1.9,2,.83,2.93-2.49.91-3.3-4.33-1.76-9.46-1.23-14-1-2.2.1-2.21,3.52,0,3.42Z"/><path class="cls-2" d="M47.3,174.54a71.21,71.21,0,0,0,11.26,3.85c3.16.77,7.21,2,10.48,1.41a1.65,1.65,0,0,0,1.19-1.19c.52-3.11-3.2-4.91-5.56-6.13-2-1-3.67,1.9-1.73,3a40.38,40.38,0,0,0,7.07,3c2.11.67,3-2.64.91-3.3a36.23,36.23,0,0,1-6.25-2.66l-1.73,3c.53.28,4,2.23,4,2.27l1.2-1.2c-2.85.5-7-1-9.83-1.71A64.71,64.71,0,0,1,49,171.58c-2-.86-3.75,2.09-1.73,3Z"/><path class="cls-1" d="M208.51,163.92c4.91,1.53,8.92,1.12,13.78-.39a1.73,1.73,0,0,0,1-2.52c-1.27-1.67-2.83-4.77-5.39-4.36a4.66,4.66,0,0,0-2.16,1.36,11.89,11.89,0,0,1-4.6,2.44,1.72,1.72,0,0,0,.91,3.31l3.12-.81c.29-.08,2.83-.49,2.19-1,1.67,1.42,4.11-1,2.43-2.42-2.12-1.8-6.3.35-8.65,1l.91,3.31a15.14,15.14,0,0,0,4.48-2c.48-.32,1.13-1.16,1.63-1.28.41-.56.72-.33.93.67l1.24,1.63,1-2.51c-4.26,1.32-7.64,1.73-12,.38-2.11-.65-3,2.65-.91,3.31Z"/><path class="cls-3" d="M234.41,148.3c3.22,0,3.23-5,0-5s-3.22,5,0,5Z"/><path class="cls-1" d="M98.53,158.5q5.34,4.11,10.93,7.87c3,2,7.72.67,9.38-2.45a7,7,0,0,0-2.46-9.38q-5.59-3.76-10.94-7.87c-2.85-2.19-7.79-.53-9.37,2.46-1.92,3.63-.59,7,2.46,9.37Z"/><path class="cls-2" d="M63.49,163.35A83.54,83.54,0,0,1,72,166.64c2.28,1.07,3.81,1.83,6.37,1.47,4.6-.64,5.53-1.81,3.67-6l-1.94,2.51a38.38,38.38,0,0,1,9.59,4.5c1.86,1.2,3.58-1.76,1.73-3A41.66,41.66,0,0,0,81,161.31c-1.56-.49-2.49,1.25-1.93,2.52a10.42,10.42,0,0,1,.79,2.1l.44-1.67c-.77.81-4.93.14-5.51,0-1.11-.36-2.18-1.05-3.25-1.5-2.34-1-4.74-1.83-7.15-2.66-2.08-.73-3,2.58-.91,3.3Z"/><path class="cls-3" d="M239.05,139c-.09.18-.05.16.13-.07a.54.54,0,0,1,.27-.23.68.68,0,0,1,.5-.07.87.87,0,0,1,.54.45.28.28,0,0,1,0,.15v-.07c-.07.09-.08.2,0,0-.12.26.05-.09.08-.13s.07-.11,0,0l.12-.13.38-.4A1.71,1.71,0,0,0,238.7,136c-1.22,1.26-2.16,3-1.19,4.69s3.67,1.81,4.5,0a1.77,1.77,0,0,0-.61-2.35,1.73,1.73,0,0,0-2.35.62Z"/><path class="cls-3" d="M238.39,136.09c-.07.25-.15.5-.24.74l.31-.74a6.54,6.54,0,0,1-.78,1.33l.48-.62-.3.35a3.08,3.08,0,0,0,4.36,4.36,9,9,0,0,0,2.11-3.78,3.08,3.08,0,0,0-5.94-1.64Z"/><path class="cls-3" d="M239.53,134.81c0-1.12,0-.8-1.06-.09a6.58,6.58,0,0,0-1.65,1.55,4.8,4.8,0,0,0-.77,4.24c1.07,3.84,5.8,5.35,9.14,6.52,8.95,3.14,18.78,4.19,28.08,5.91,2,.38,4.75-1.4,3.79-3.79a6.54,6.54,0,0,0-1.4-2.35c-.36-.31-.73-.61-1.11-.89q-1.69-1.56-.66,2.52c2.07,1,4.69-3.4,5.87-2.91a3.08,3.08,0,0,0,3.79-2.15c.73-4.59-2.75-8.87-4-13.18L275.75,134l-.15-.13-.91-2.18.1.71,5.26-2.18c-4-3.52,1-6.47,1.68-10.16a50.09,50.09,0,0,0,.34-6.72,77.76,77.76,0,0,1,1.26-9.73l-3,2.26h.35l-2.66-1.53.17.37v-3.11q1.29-1.08-.48.12c-.67.41-1.35.82-2,1.22-1.36.81-2.74,1.61-4.13,2.36a50.83,50.83,0,0,1-9.05,3.87l3.48,4.53a2.88,2.88,0,0,1,2.18-1.24c3.85-.93,2.22-6.88-1.64-6a9.89,9.89,0,0,0-5.87,4.08c-1.63,2.19,1.07,5.28,3.48,4.53a66.49,66.49,0,0,0,13.64-6.25c3-1.77,7.46-3.42,5.59-7.64a3,3,0,0,0-2.67-1.53h-.35a3.11,3.11,0,0,0-3,2.27A91.83,91.83,0,0,0,276,112.66c-.12,1.71-.09,3.42-.2,5.13s-.85,2.32-1.78,3.69a10.08,10.08,0,0,0,1.72,13.08c1.75,1.56,5.63.7,5.26-2.18-.28-2.22-1.19-3.91-3.56-4.35-2.22-.41-4.5,1.38-3.8,3.79a48.08,48.08,0,0,0,1.91,5.36c.48,1.11,2.28,3.44,2.1,4.55l3.8-2.16c-2.23-.92-4.37-.06-6.15,1.4a4.84,4.84,0,0,1-2.18,1.38c-1,.3-2,.22-2.92.85a4.32,4.32,0,0,0-1.78,4.57,5,5,0,0,0,1.42,2.22c.27.26,1.68,1.69,1.32.8L274.9,147c-7.38-1.37-14.84-2.52-22.15-4.23-1.6-.38-3.19-.79-4.76-1.3-1-.33-2.07-.7-3.08-1.12-.26-.11-2.23-.7-2.29-.77-.63.17-.56.08.23-.28l.58-.36a6.72,6.72,0,0,0,1.09-.89,4.6,4.6,0,0,0,1.17-3.24c.05-4-6.11-4-6.16,0Z"/><path class="cls-3" d="M287.35,153.44c-.19-.09-.36-.19-.53-.29.65,0,0-1.55-.1-2.24a29.34,29.34,0,0,0-.8-3.2,33.48,33.48,0,0,0-2.67-6.29,12.77,12.77,0,0,0-.95-1.44c-.77-3.41-2.15-6.52-2.9-10a9.17,9.17,0,0,1,.44-1.49c.74-1.79,2.26-3,1.77-5.13a3.9,3.9,0,0,0-1.18-2q1.89-5.86,3.28-11.87a3.22,3.22,0,0,0-1-3c.11-.12.23-.25.34-.39,2.43-3-1.55-7.29-4.36-4.36l-.43.43c-.88.73-2,.9-3,1.45a2.58,2.58,0,0,0-1.53,0c-3.43,1.18-6.2,3.18-9.13,5.22l-.07,0c-2.6.89-5.23,1.71-7.87,2.48a3,3,0,0,0-2.16,2.77l-1.48.71a117.62,117.62,0,0,0-11.46,6.77c-3.28,2.14-6.65,4.21-9.26,7.16s1.72,7.34,4.36,4.36A21.51,21.51,0,0,1,239,131a2.74,2.74,0,0,0,1.05,1.82c.39.33.8.63,1.2.91,1.68,2.07-5.69,7.83-6.92,8.64-2.93,1.94-1.16,5.83,2,5.66,1.44,2.3,5.43,3,7.78,3.52a4,4,0,0,0,1.07.06,3.34,3.34,0,0,0,1.32,1.82,12.49,12.49,0,0,0,1.41.81,3.42,3.42,0,0,1,1,.32l.18.06a31.61,31.61,0,0,1,1.66.49,3.15,3.15,0,0,1,.79.21,3,3,0,0,1,1.25.34,2.58,2.58,0,0,1,.42.1,3.36,3.36,0,0,1,.79.16,21.9,21.9,0,0,0,6.24-.37,34.84,34.84,0,0,0,5.23,1.67,24.64,24.64,0,0,0,7.22.28,8.39,8.39,0,0,0,2.77,1.8c2.37.7,5.39-.26,7.78-1.06a5.1,5.1,0,0,0,1.75.85C288.24,160,290.59,155,287.35,153.44Zm-44-25.61,1-.65a12.1,12.1,0,0,0,.14,1.21,7.53,7.53,0,0,0-.8-.43ZM244,142.2c.19-.22.38-.44.56-.67a8.74,8.74,0,0,0,.39.9C244.6,142.34,244.28,142.27,244,142.2Zm16.15-23.66-.06-.1.37-.16Zm11.95,28.66-.64-.2c0-.48,0-1,0-1.45.21.38.42.76.66,1.14.13.21.27.41.41.62Zm1-33.2a2.24,2.24,0,0,0-.27-.34l.34-.17C273.16,113.66,273.14,113.83,273.11,114Z"/><path class="cls-3" d="M258.27,134.65h0Z"/><path class="cls-3" d="M214.9,127.5l-.59.23a1.72,1.72,0,0,0,.45,3.36,6,6,0,0,1,2.9.83,1.73,1.73,0,0,0,2.51-1.93c-.53-1.58-1.87-3.44-3.76-3.25a3.75,3.75,0,0,0-2.2,1.36L212,130.25c-1.57,1.55.85,4,2.42,2.42l1.46-1.43c.3-.29.82-1.07,1.19-1.17h-.91c.36.08.58.5.69.83l2.51-1.94a9.62,9.62,0,0,0-4.62-1.29l.46,3.36.59-.23a1.75,1.75,0,0,0,1.2-2.1,1.73,1.73,0,0,0-2.11-1.2Z"/><path class="cls-1" d="M127.31,121.31c2.09-.09,4.19-.24,6.28-.25a9.25,9.25,0,0,1,7.06,2.77,1.72,1.72,0,0,0,2.69-2.08c-1.52-3.3-5.05-3-8-4l1.2,2.11c0-.22,5.69-2,6.56-2.27a16.32,16.32,0,0,1,3.48-.73,10.4,10.4,0,0,1,2.3-.07,4.16,4.16,0,0,0-.28,1.09c.36,3.21.17,5.49,3,7.75,1.39,1.1,3.89-.32,2.69-2.07a6.54,6.54,0,0,1-1.28-4.2,1.73,1.73,0,0,0-2.17-1.65c-4.52,1-9,.65-13.6.26l.45,3.36c.67-.2,8.66-2.3,8.06-3.18-.47-.69-2.65,2-2.75,2.44-1.09,4.24,5,4.18,7.41,4.37,2.19.18,2.18-3.25,0-3.42-.36,0-4.19-.56-4.13.12,0-.09,1.89-.91,2.11-1.11a2.66,2.66,0,0,0,.71-3.39c-2-4-9.48,0-12.32.87a1.72,1.72,0,0,0,.46,3.36c4.89.42,9.68.66,14.51-.38l-2.17-1.65a9.67,9.67,0,0,0,1.76,5.93l2.69-2.08a5.09,5.09,0,0,1-2.16-4.21c0-1.26.82-2.21.43-3.48-.6-2-2.89-2.17-4.73-2.18-3.14,0-6.14,1.14-9,2.29-1.66.67-4.92,1.19-5.34,3.32a1.76,1.76,0,0,0,1.19,2.1c1.86.69,5,.43,5.95,2.48l2.69-2.07c-1.94-1.76-3.86-3.3-6.53-3.7-3-.45-6.23.05-9.23.17-2.2.09-2.21,3.52,0,3.43Z"/><path class="cls-1" d="M218.71,142.27c2.83-1.12,6.41-1.18,9.42-1.65l10-1.56-1.82-6.6c-3.37,1.12-5.6,3.34-8.11,5.75a43.5,43.5,0,0,1-10.32,7.26l2.64-.35-.88-.14,2,1.58a21.11,21.11,0,0,1,2-2.51l-5.73-1.51c.87,2.67-2.45,5.82-4.19,7.46a23.68,23.68,0,0,1-7.94,4.88l3.33,5.72c1.41-1.67,3.79-1.84,5.74-2.69,2.35-1,4.07-2.69,6.13-4.17,3.83-2.75,8.15-4.66,11.14-8.44,2.71-3.42-2.1-8.3-4.84-4.84-3,3.77-7.53,5.6-11.27,8.5a20.75,20.75,0,0,1-6.5,3.57,11.35,11.35,0,0,0-5.25,3.23c-2,2.34-.17,7,3.34,5.72,7.35-2.75,20-11.23,16.92-20.76-.75-2.29-3.94-3.55-5.73-1.51-2.18,2.49-4.45,5.53-3.74,9.06a4.43,4.43,0,0,0,5.88,3.29c3.24-1,6.77-4.17,9.46-6.23,2.52-1.93,4.67-5.24,7.74-6.27,4.26-1.42,2.47-7.27-1.82-6.6l-10,1.56c-3,.47-6.58.52-9.41,1.64-4,1.61-2.29,8.23,1.82,6.61Z"/><path class="cls-1" d="M108.15,154.55A147.61,147.61,0,0,1,129,155.63c3.68.45,6.85-3.47,6.85-6.85,0-4.08-3.16-6.4-6.85-6.85a147.61,147.61,0,0,0-20.81-1.08c-8.8.17-8.83,13.87,0,13.7Z"/><path class="cls-1" d="M138.53,167.69c10.8-.56,21.58-1.22,32.26-3,4.82-.82,9.47-.65,14.32-1A33.49,33.49,0,0,0,200,159l-10.3-5.92c0-.79.35-.4-1,.35a30.58,30.58,0,0,1-3.78,1.42c-2.07.82-4.06,2.22-6.16,2.78-2.86.78-6,.75-8.95,1.44a57.61,57.61,0,0,0-8.6,2.81c-2.27.94-4.27,2.31-6.71,2.18-3.37-.17-5.88-.27-9.09,1.2-.11,0-2.77,1.11-1.22.88-1.1.16-3-.63-4-.71a10.66,10.66,0,0,0-8.89,3.3c-2.34,2.59-2.92,7.17,0,9.69a10.25,10.25,0,0,0,7.22,2.87l-1.83-13.45c-5.41.74-10.88,1.14-16.35,1.37l4.85,11.69a3,3,0,0,1,1.89-.82l-5.28-12.52c-1.61.79-3.82.38-5.56.43a70.52,70.52,0,0,0-8.06.81c-4.79.69-9.48,1.75-14.33,1.93-7.56.29-9.5,11.41-1.82,13.46a28.76,28.76,0,0,0,17.69-.72c3.45-1.31,5.83-4.62,4.78-8.42-.91-3.32-5-6.11-8.43-4.79a16,16,0,0,1-10.4.72l-1.82,13.46c6.09-.24,12-1.69,18-2.43s11.4.09,16.89-2.62c7.23-3.58,2-14.14-5.27-12.52a16.84,16.84,0,0,0-7.94,4.34c-4.27,4-1,11.93,4.84,11.7,6.71-.28,13.35-.95,20-1.86,3.32-.46,5.35-4.54,4.9-7.52a6.84,6.84,0,0,0-6.72-5.94l.11-.05,3,1.76-.67-.57v9.69c-.36.39-1.83.25-1.51.68s1.84.35,2.22.41a13.19,13.19,0,0,0,5.66-.19c2.13-.6,3.43-2,5.6-1.74,7.26.74,13.07-3.44,20-5.15,3.12-.78,6.25-1,9.39-1.54,2.93-.55,5.23-2.4,7.95-3.43,6.79-2.57,13.05-6.25,13.21-14.38.1-5.18-5.9-8.54-10.31-5.91a21.06,21.06,0,0,1-11.15,2.9,92.54,92.54,0,0,0-14.75,1.41c-9.45,1.6-19,2.05-28.61,2.54-8.77.45-8.82,14.15,0,13.7Z"/><path class="cls-1" d="M83.86,157.67q8.07,1.89,16.22,3.42c5,.92,10.2,2.15,15.3,1.71,5.29-.45,10.39-1.73,15.71-2.09a103.68,103.68,0,0,0,16.4-2.78c10.61-2.43,21.53-3.52,32.3-5l33.79-4.65-8.43-8.43c-1.64,8.66-9,13.45-17.23,15-5,.93-10.06.33-15.09.26a54.39,54.39,0,0,0-16.49,2.18c-6.66,2-6.34,11.06,0,13.21a40.17,40.17,0,0,0,17.4,1.93l-3.45-12.77c-13.76,5.87-30.28-.26-43.83-3.69v13.21a6.82,6.82,0,0,1,5.9.16l-1.63-12.52c-1.55.8-5,0-6.68-.15-2.93-.22-5.85-.53-8.75-1-6-.95-12-2.5-18-3.23-10-1.2-28.16,2.44-24.83,16.55,1.34,5.7,6.63,9.64,12.19,10.72,5.94,1.16,11.43-.48,17.24-1.52,5.4-1,10.84.5,16.17,1.23a40.45,40.45,0,0,0,8.3.52c2.76-.18,6.1-1.62,8.81-1.38,3.2.29,5.74,1.35,9.05.81a16.22,16.22,0,0,0,12.65-21.42c-2.07-5.83-11.8-7.17-13.22,0-.65,3.29-5.19,4.37-7.8,5.77-2.09,1.13-3.72,3-5.72,4.11,1-.56.8-.1-.37-.31a28.72,28.72,0,0,0-3.59-.23,162.29,162.29,0,0,0-32.07,1.6l3.64,13.22c3.29-.55,6.88.94,10.06,1.55,4.32.84,8.63,1.17,12.88-.22,8.34-2.73,4.77-16-3.65-13.21-3.32,1.09-6.5,0-9.81-.71a33.75,33.75,0,0,0-13.12-.63c-3.66.61-5.69,5.13-4.79,8.43,1.09,3.94,4.75,5.31,8.43,4.79a140.85,140.85,0,0,1,17.88-1.34q4.62-.07,9.23.15c2.86.13,5.82.62,8.66,0s4.65-2.33,7-4.05a47.83,47.83,0,0,1,6.2-3.31c4.76-2.54,9.07-6.49,10.16-12H143.62c1,2.92-.41,4.82-3.5,4.11a21.2,21.2,0,0,0-9.17-.4,32.12,32.12,0,0,1-7.56,1c-5.58-.21-11-1.85-16.6-2.07s-10.87,1.92-16.44,2.26a11,11,0,0,1-2.57-.05c.16,0-2-.64-1.91-.69a6.53,6.53,0,0,1-.54,1.83c-.29-.23,1.73-1.11,1.61-1.06,4.27-1.9,10.27-.42,14.62.45,6.15,1.23,12.27,2.38,18.51,3.05,6,.63,12.07,1.48,17.57-1.36,5.8-3,3.34-10.48-1.64-12.52a18.3,18.3,0,0,0-13.19-.16c-6,2.21-7,11.43,0,13.21,18.05,4.57,36.4,10,54.39,2.31,6.14-2.62,3.13-13.51-3.46-12.76A30.61,30.61,0,0,1,160,157.27v13.21c11.81-3.57,24.19.3,36-3.58,10.78-3.53,20.19-11.91,22.36-23.41,1-5.54-3.11-9.15-8.42-8.42l-32.44,4.46c-10.37,1.43-20.88,2.49-31.14,4.63-4.89,1-9.66,2.45-14.66,2.81-5.28.39-10.32,1.19-15.54,2-4.39.66-8.75-.4-13.06-1.2q-7.84-1.47-15.6-3.3c-8.57-2-12.23,11.19-3.64,13.21Z"/><path class="cls-1" d="M42.15,154.53l-.06.2c-.09.32.13-.23,0-.08a4.23,4.23,0,0,0-.24.4c0-.07.23-.26.07-.1l-.15.15c-.21.21.23-.15.06,0l-.22.14a1.71,1.71,0,0,0,1.73,3,4.5,4.5,0,0,0,2.08-2.71,1.71,1.71,0,1,0-3.3-.91Z"/><path class="cls-1" d="M52.28,154.34a19.71,19.71,0,0,1,1.88,4.25c.5,1.67.49,1.93-1.36,2.14-2.38.27-4.66-1.1-7-1.18-2-.07-3.59.9-5.45,1.51-2.51.82-5.13.22-7.63,1.2L34,165.39c2.3-1.38,5.83-.62,8.41-.6a84,84,0,0,0,9.64-.61c5.88-.63,12-.19,17.81-1.21l-2.1-1.19c.28,1.54,0,2.63.75,4.06s2.71,3.26,2.4,5l1.65-1.26a5.9,5.9,0,0,0-1-1.1,1.71,1.71,0,0,0-2.42,2.42c1,1,1.91,2.29,3.44,2.11a1.77,1.77,0,0,0,1.65-1.26,7.73,7.73,0,0,0-1-4.88c-.46-.9-1.35-1.79-1.72-2.73a16.61,16.61,0,0,1-.41-3.24,1.75,1.75,0,0,0-2.11-1.2c-3.63.64-7.39.24-11.06.51-3.25.24-6.48.7-9.73,1s-6.21.17-9.34.15c-2.31,0-4.52-.08-6.54,1.14-1.6,1-.55,3.87,1.32,3.13s3.62-.48,5.51-.73a22.92,22.92,0,0,0,4.26-1.35c3.54-1.16,7.37,1,11.12.58,6.35-.68,2.77-7.9.73-11.45-1.09-1.91-4-.19-2.95,1.73Z"/><path class="cls-1" d="M75.17,152.8l2.88.26.58.06c-.46-.33-.54-.31-.26.07.07.34.27.65.31,1a1.76,1.76,0,0,0,1.72,1.71,1.72,1.72,0,0,0,1.71-1.71c-.16-1.44-.61-3.26-2-4.08a5.18,5.18,0,0,0-2.3-.5l-2.69-.24c-2.2-.2-2.18,3.22,0,3.42Z"/><path class="cls-1" d="M29.7,146.88a58.07,58.07,0,0,1,13,7.6,1.72,1.72,0,0,0,2.69-2.08,11.44,11.44,0,0,0-5-5.58l-1.72,3a24,24,0,0,1,5.21,3.29c1.66,1.4,4.06-.9,2.42-2.42a3.48,3.48,0,0,1-1.19-1.57l-.62,2.34,2-1-2.08-.27a5.87,5.87,0,0,0,4.2,2c1.4.13,2.36-2,1.21-2.93a11.15,11.15,0,0,0-5.61-2.5c-2.12-.3-3.12,2.82-.91,3.3a11.91,11.91,0,0,1,5.49,2.72v-2.42c-3.17,2.72-6.33,6.14-10,8.22s-8.17,1.18-12.17,2.47a1.71,1.71,0,0,0,.91,3.3A67.65,67.65,0,0,0,44,158.64l-2.52-1.94a6.16,6.16,0,0,1-6.79,3.79c-1.36-.16-2,1.55-1.48,2.58,2.28,4.15,8.78,3.77,12.75,3.08a1.72,1.72,0,0,0,1.19-2.1,9.6,9.6,0,0,1,1.32-7.25l-3.13-1.32a21.8,21.8,0,0,1-.75,3.59,2.25,2.25,0,0,0,.35,3.6L46,162c1.89-.47,5-3.16,6.42-4.37a3.9,3.9,0,0,0,1.79-2.79,9.49,9.49,0,0,0-1.45-2.92l-3.3-.91a33.53,33.53,0,0,1-2.86,7.31,5.16,5.16,0,0,0-.83,1.89c-.21,1.94,1.13,1.82-.18,4.07a1.72,1.72,0,0,0,2.68,2.08c4.24-4.32,8.36-8.84,9.82-14.87A1.74,1.74,0,0,0,56,149.38l-2.12.12a1.72,1.72,0,0,0,0,3.43c2.1.06,4.9.5,6.53-1.07a1.72,1.72,0,0,0,.44-1.67,2,2,0,0,0-1.17-1.47,1.82,1.82,0,0,0-2.08.27l-.19.16c-1.4,1.19.13,3.19,1.67,2.87l1.87-.4L59,149.1q-4.71,7.76-10.16,15c-1.16,1.54,1.44,3.56,2.69,2.07,1.08-1.29,13.65-16.51,14.15-16-.07-.08-4,7.07-4.25,7.77a48.64,48.64,0,0,1-2,4.54,9.54,9.54,0,0,1-1.4,2.05c-.89.95-1.35,1.23-2.37,1.07l-1-2.52-.62,1a1.72,1.72,0,0,0,1.48,2.57c3.79-.36,5.48-4.25,2.76-7.09v2.43l7.94-9.67-2.87-1.67a78.36,78.36,0,0,1-5.1,10.36,1.72,1.72,0,0,0,.27,2.07,8.45,8.45,0,0,0,3.29,2.23c-1.84-.48-3.07,2.19-1.32,3.13l6,3.2c1.5.81,3.14,2,4.82,2.47,1.83.47,3.81-.29,4.08-2.36.34-2.58-2.56-5.14-4.11-6.81-2.94-3.14-6.26-6.23-5.88-10.9l-3.37.46A50.09,50.09,0,0,1,64.3,162c.45,2,3.27,1.41,3.36-.46a4.21,4.21,0,0,0-.41-2.56c-.58-1.46-2.85-1.78-3.3,0-.65,2.56-1.59,4.37-.27,6.79a12.91,12.91,0,0,0,5.08,5,1.72,1.72,0,0,0,2.34-2.34c-2.25-4.42-4.52-9.12-2.94-14.13H64.85a46.69,46.69,0,0,0,5.22,9.63,1.71,1.71,0,0,0,3-1.72c-2-3.86-3.87-7.9-2.52-12.26l-2.86.76c2.13,2.3,1.68,5.83,2.1,8.72a28,28,0,0,0,2.58,8.19l1.48-2.58c-.28,0,.12-7,.19-7.5a34.26,34.26,0,0,1,1.73-7.12,1.74,1.74,0,0,0-1.19-2.11l-1.79-.56-.46,3.37,3.91.17c.42,0,3.62-.11,3.9.17-.65-.65-.11,1.08-.1,1.5,0,1.17,0,2.34,0,3.5-.27,4.7-1.88,9.31-6.22,11.68l2.34,2.34c3.42-6,6.45-12.59,3.21-19.35-.74-1.55-3.24-.77-3.19.87A22.1,22.1,0,0,1,74,162.47h3a14.66,14.66,0,0,1-.82-9.87H72.8a9.74,9.74,0,0,1,.17,4.71l3.37.46.06-2.58c0-2.21-3.38-2.2-3.43,0l-.06,2.58c0,1.89,3,2.38,3.36.45a13.61,13.61,0,0,0-.17-6.53,1.72,1.72,0,0,0-3.3,0A18.61,18.61,0,0,0,74,164.2a1.73,1.73,0,0,0,3,0A25.85,25.85,0,0,0,79.56,152l-3.19.86c2.62,5.48-.51,11.13-3.21,15.89a1.73,1.73,0,0,0,2.34,2.35c5.6-3.06,7.72-9.14,7.94-15.22.08-2,.63-5.61-1.11-7.12a4.54,4.54,0,0,0-2.88-.76c-2.38-.16-4.78-.21-7.16-.31-2-.09-2.25,2.8-.45,3.36l1.79.56-1.2-2.1A35.29,35.29,0,0,0,70.37,163c.13,2.49.45,5.29,3.44,5.49a1.73,1.73,0,0,0,1.48-2.58c-1.73-3.62-2.11-7.16-2.56-11.09a10.67,10.67,0,0,0-2.66-6.51,1.73,1.73,0,0,0-2.86.75c-1.64,5.29.48,10.19,2.86,14.89l3-1.72a43.1,43.1,0,0,1-4.87-8.82,1.73,1.73,0,0,0-3.31,0c-1.85,5.91.62,11.53,3.3,16.76l2.34-2.34c-1.38-.78-3.37-2.12-3.85-3.74-.39-1.33.27-2.79.61-4.15H64l.29,1.65,3.36-.45a50.05,50.05,0,0,0-2.35-7.46,1.72,1.72,0,0,0-3.37.45c-.38,4.67,2.21,8.34,5.24,11.61.81.87,1.67,1.69,2.46,2.58s3.76,3.44.93,1.74-5.57-3-8.34-4.49l-1.32,3.13a3.07,3.07,0,0,0,4-2.4c.51-2.75-2.31-4-3.92-5.55l.27,2.07a84.79,84.79,0,0,0,5.45-11.17c.63-1.56-1.81-2.95-2.87-1.66l-7.93,9.66a1.77,1.77,0,0,0,0,2.43l-.34,1.24L57,165.89l.62-1a1.72,1.72,0,0,0-1-2.51c-4.22-.66-6.86,5.24-2.38,6.89,6.33,2.34,9.28-7.64,11.11-11.54A37.17,37.17,0,0,1,68,152.86c.68-1,1.67-1.83,1.46-3.13-.32-2-2.59-3-4.35-2.77-3.26.35-5.43,4.13-7.31,6.39L49.1,163.76l2.69,2.08q5.46-7.26,10.17-15A1.73,1.73,0,0,0,60,148.32l-1.87.39,1.66,2.87.2-.17-2.08.27-.4-.58.44-1.67c-.53.51-3.39.1-4.11.07v3.43a18,18,0,0,0,3-.25l-2.1-2.1c-1.32,5.46-5.11,9.45-8.94,13.35L48.54,166c1.26-2.16.58-3.73,1-6,.23-1.14,1.28-2.5,1.73-3.61a36.11,36.11,0,0,0,1.47-4.52c.57-2.18-2.5-2.9-3.3-.91a2.54,2.54,0,0,0,.33,2.53c.12.18,1,.92.94,1.07,0,.35-2.93,2.12-3.3,2.37-2,1.35-6.33,2.93-6.49,5.81a2.55,2.55,0,0,0,3.64,2.56c2.79-1.31,3.68-6.3,4.05-9,.25-1.81-2-3.11-3.13-1.32A13.11,13.11,0,0,0,43.84,165l1.2-2.11c-2.24.39-7.52,1-8.88-1.51l-1.48,2.57a9.56,9.56,0,0,0,10.09-6.3c.61-1.52-1.32-2.51-2.51-1.93a64.77,64.77,0,0,1-15.55,5.24l.91,3.3c4.36-1.41,8.89-.36,13-2.81,3.88-2.32,7.23-5.82,10.65-8.76a1.72,1.72,0,0,0,0-2.42,15.25,15.25,0,0,0-7-3.6l-.91,3.3a8,8,0,0,1,4.1,1.63l1.21-2.93-1.78-.95a1.74,1.74,0,0,0-2.07-.26l-2,1a1.75,1.75,0,0,0-.61,2.35,8,8,0,0,0,1.73,2.26l2.42-2.42a27.09,27.09,0,0,0-5.91-3.83c-2-.93-3.66,1.83-1.72,3a8.58,8.58,0,0,1,3.75,4.35l2.69-2.07a60.93,60.93,0,0,0-13.7-8.13c-2-.86-3.76,2.09-1.73,2.95Z"/><path class="cls-2" d="M61.73,170.08a22.76,22.76,0,0,1-6.48,3.24,1.73,1.73,0,0,0,.46,3.37c3,.35,5.75.08,8.62,1.17,2.44.92,4.77,2.09,7.24,2.94A58.51,58.51,0,0,0,87,183.75c2.2.13,2.2-3.29,0-3.43a54.27,54.27,0,0,1-16.82-3.67c-2.37-.93-4.68-2.23-7.17-2.81s-4.88-.29-7.31-.58l.45,3.37A25.79,25.79,0,0,0,63.45,173c1.79-1.26.08-4.23-1.72-3Z"/><path class="cls-2" d="M59.27,171.72c5.93,1.31,11.58,4.35,17.15,6.71l16.92,7.16c2,.85,3.76-2.1,1.73-3L76.94,175c-5.44-2.3-11-5.26-16.76-6.54-2.15-.48-3.06,2.83-.91,3.3Z"/><path class="cls-2" d="M61.19,175.57a84.09,84.09,0,0,0,16,5.72c2.14.52,3.06-2.78.91-3.31a78.55,78.55,0,0,1-15.16-5.37c-2-.94-3.72,2-1.73,3Z"/><path class="cls-2" d="M59.2,177.77a56.81,56.81,0,0,0,12.36,3.72c2.15.38,3.08-2.92.91-3.3a53.23,53.23,0,0,1-11.54-3.37c-2-.86-3.75,2.09-1.73,3Z"/><path class="cls-2" d="M23.79,161.19a56.82,56.82,0,0,0,22,7.38"/><path class="cls-2" d="M22.93,162.67a61.38,61.38,0,0,0,22.84,7.61c2.18.28,2.16-3.15,0-3.43a57.07,57.07,0,0,1-21.12-7.14c-1.91-1.09-3.64,1.86-1.72,3Z"/><path class="cls-2" d="M36,167.7c4.13,1,8.77.92,13.17,1.32,1.85.17,5,.1,6.48.76,2.77,1.19-2.31,3-4.15,3.52-2.63.73-1.19,3.37,1.45,2.65,3.39-.93,12.36-5.49,7.85-8.12-2.15-1.25-6.6-1.28-9.35-1.56C47,165.81,42,166,37.85,165c-2.51-.63-4.4,2.09-1.89,2.73Z"/><path class="cls-2" d="M29.37,168.27a73.68,73.68,0,0,0,20.76,6.2c2.58.4,4.51-2.12,1.91-2.52a70.31,70.31,0,0,1-19.85-5.88c-2.07-1-4.89,1.21-2.82,2.2Z"/><path class="cls-2" d="M41.05,170.18l12.89,3.75c3.69,1.08,6.5-3,2.83-4.08l-12.89-3.76c-3.69-1.07-6.51,3-2.83,4.09Z"/><path class="cls-2" d="M31.79,167.26l7.73,3.19a3.08,3.08,0,0,0,3-.34,1.15,1.15,0,0,0-.23-2l-7.73-3.18a3,3,0,0,0-3,.33,1.15,1.15,0,0,0,.23,2Z"/><path class="cls-2" d="M19.22,163.87c6.55,3,12.64,6.74,20,6.58,2.18,0,2.47-3.46.26-3.41-7,.15-12.93-3.55-19.15-6.41-2-.92-3.12,2.32-1.13,3.24Z"/><ellipse class="cls-4" cx="157.32" cy="140.49" rx="74.98" ry="4.64" transform="translate(-12.45 15.33) rotate(-5.37)"/><path class="cls-4" d="M142.41,146.32c36.43-2.9,69.28-7.7,93.05-13.13l-23.63-1.62a.89.89,0,0,1-.44-.15,317.39,317.39,0,0,1-41.1-2.44,321,321,0,0,1-35.82-6.62c-12.28-3-24.16-5.6-36.85-4.36-23.54,2.29-47,9.45-68.75,19.05a.78.78,0,0,1-.2.16,72.22,72.22,0,0,0-10,6.69C39.24,149.46,87.05,150.72,142.41,146.32Z"/><circle class="cls-5" cx="54.92" cy="145.39" r="6.6"/><path class="cls-6" d="M30.62,137.26c21.73-9.13,45.19-15.94,68.73-18.11,12.61-1.16,24.42,1.28,36.63,4.1a334.88,334.88,0,0,0,35.59,6.24,331.26,331.26,0,0,0,41.89,2.29.86.86,0,0,0,0-1.71,329.59,329.59,0,0,1-75.77-8.18c-11.44-2.61-22.68-5.37-34.51-4.74-11.65.63-23.34,3-34.65,5.75a256.25,256.25,0,0,0-38.37,12.7c-1,.42-.56,2.08.46,1.66Z"/><path class="cls-7" d="M18.71,144.15a68.88,68.88,0,0,1,11.68-7.65"/><path class="cls-6" d="M19.31,144.76a72,72,0,0,1,11.51-7.52c1-.52.11-2-.86-1.48a74,74,0,0,0-11.86,7.79c-.86.68.36,1.89,1.21,1.21Z"/><path class="cls-6" d="M18,146c5-1.33,9.56,1.47,13.8,3.61a78.91,78.91,0,0,1,9.91,5.4c.95.66,1.86-.83.93-1.48-4.1-2.88-9-5.05-13.55-7.23-3.7-1.76-7.44-3-11.58-1.95A.86.86,0,1,0,18,146Z"/><path class="cls-6" d="M41.26,153.76a27.73,27.73,0,0,1-23.54,5.06c-.49-.11-1.15.25-1.09.83.69,6.08,7.07,8.64,12.1,10.59,7.63,3,15.69,4.64,23.54,6.92,8.34,2.42,16.63,5.06,25.2,6.59a140,140,0,0,0,25.93,2.09c17.06-.16,34-3,50.57-6.88,15.63-3.65,31.48-7.66,46.52-13.32,14.15-5.32,27.57-12.82,36.85-25,.66-.88-.82-1.73-1.48-.86C219,162,188.1,168.59,162.45,175.12c-31.38,8-64.14,13-95.95,4.38-8.61-2.32-17.15-4.93-25.76-7.27a113.91,113.91,0,0,1-11.56-3.64c-4.1-1.6-10.26-3.84-10.83-8.94l-1.09.82A29.53,29.53,0,0,0,42.47,155c.87-.68-.35-1.88-1.21-1.21Z"/><path class="cls-6" d="M120,120a180.55,180.55,0,0,0,22.81-4.34,57.43,57.43,0,0,1,5.7-1.59c1-.15,2.47-.58,3.22.55a9.59,9.59,0,0,1,.35,2.76,29.34,29.34,0,0,0,2.74,9c.48,1,2,.13,1.48-.86a26.56,26.56,0,0,1-2.3-6.81c-.29-1.6-.11-3.83-.92-5.35-1-1.9-2.59-1.68-4.4-1.16A193.72,193.72,0,0,1,120,118.32c-1.08.14-1.1,1.85,0,1.71Z"/><path class="cls-6" d="M204.84,131.75a26.5,26.5,0,0,0,8.87-2.31c1-.45,2.14-1.52,3.14-1.75,1.88-.43,2.7,2.71,3.4,4.1.5,1,1.92,0,1.43-.95-1-1.9-1.82-5.83-4.59-5.16-1.69.42-3.34,1.92-5,2.59a24.85,24.85,0,0,1-7.4,1.77c-1.09.1-1,1.81.1,1.71Z"/><path class="cls-6" d="M289.69,157.71a115.4,115.4,0,0,1-56.56-11.22c-1-.48-1.86,1-.87,1.48a118.59,118.59,0,0,0,20,7.48h0a116.77,116.77,0,0,0,37.35,4C290.78,159.36,290.79,157.65,289.69,157.71Z"/><path class="cls-6" d="M279.41,129.16l9.1,29.25c.33,1.05,2,.6,1.65-.46l-9.1-29.24c-.33-1.05-2-.6-1.65.45Z"/><path class="cls-6" d="M206.5,163.35c1.34,1.94,3.21,2.56,5.53,2.63,4,.12,8.2-.7,12.19-1.1a.87.87,0,0,0,.74-1.29c-1.6-2.54-3.3-5-5.13-7.37-.66-.86-2.15,0-1.48.86,1.83,2.39,3.54,4.83,5.14,7.38l.73-1.29-8.07.81c-2.58.26-6.4,1.08-8.17-1.49-.62-.91-2.1-.05-1.48.86Z"/><path class="cls-6" d="M231.84,147.52a61.25,61.25,0,0,0,9.49-13c.53-1-1-1.84-1.47-.87a59.9,59.9,0,0,1-9.23,12.66c-.76.8.44,2,1.21,1.21Z"/><path class="cls-6" d="M212.85,131.93l27.33,1.77c1.1.07,1.1-1.64,0-1.72l-27.33-1.76c-1.1-.08-1.09,1.64,0,1.71Z"/><path class="cls-6" d="M231.54,132.09a141.51,141.51,0,0,1,52.44-32c1-.35.59-2-.46-1.65a143.41,143.41,0,0,0-53.19,32.45c-.79.77.42,2,1.21,1.21Z"/><path class="cls-6" d="M282.43,100c.9,9.94-1.22,19.62-3.49,29.24-.26,1.07,1.39,1.53,1.65.45,2.3-9.76,4.46-19.6,3.56-29.69-.1-1.09-1.81-1.1-1.72,0Z"/><path class="cls-6" d="M68,178.13l-.59-1.22c8.69-4.51,13.9-10.38,15.5-17.44,2.54-11.21-5-21.77-5.1-21.87l1.06-.83c.33.45,8,11.16,5.34,23C82.49,167.25,77,173.43,68,178.13Z"/><path class="cls-6" d="M61.77,172.69l-.48-.74c7-2.74,11.15-6.31,12.43-10.6,2-6.81-4-13.23-4.09-13.29l.85-.5c.27.27,6.43,6.78,4.28,14C73.4,166.08,69,169.83,61.77,172.69Z"/><path class="cls-6" d="M54.89,152a6.6,6.6,0,1,1,6.6-6.59A6.6,6.6,0,0,1,54.89,152Zm0-12.5a5.91,5.91,0,1,0,5.91,5.91A5.91,5.91,0,0,0,54.89,139.49Z"/><circle class="cls-6" cx="54.89" cy="145.4" r="4.11"/><path class="cls-6" d="M87.8,165.42c3.46-.31,6.92-.54,10.4-.65,1.73-.05,3.47-.08,5.21-.08.87,0,1.73,0,2.6,0,.79.7.7,1.34-.26,1.92-.6,1.38-2.23,2.83-3.18,4-1.57,2-3.09,3.39-5.84,2.69a44,44,0,0,1-9.51-4.19c-1-.53-1.83,1-.86,1.47,3.46,1.88,9,5.41,13.14,4.68a5.86,5.86,0,0,0,3.49-2.44c1.72-2,4.38-4.65,5.56-7s-.22-2.79-2.54-2.84a160.42,160.42,0,0,0-18.21.71c-1.09.1-1.1,1.81,0,1.71Z"/><ellipse class="cls-4" cx="152.09" cy="145.39" rx="1.61" ry="0.01"/><circle class="cls-3" cx="112.73" cy="141.64" r="2.38"/><path class="cls-3" d="M112.73,144.36a2.72,2.72,0,1,1,2.72-2.72A2.72,2.72,0,0,1,112.73,144.36Zm0-4.75a2,2,0,1,0,2,2A2,2,0,0,0,112.73,139.61Z"/><circle class="cls-3" cx="127.08" cy="136.77" r="2.38"/><path class="cls-3" d="M127.08,139.49a2.72,2.72,0,1,1,2.72-2.72A2.72,2.72,0,0,1,127.08,139.49Zm0-4.75a2,2,0,1,0,2,2A2,2,0,0,0,127.08,134.74Z"/><circle class="cls-3" cx="149.76" cy="146.43" r="1.19"/><path class="cls-3" d="M149.76,147.79a1.36,1.36,0,1,1,1.36-1.36A1.36,1.36,0,0,1,149.76,147.79Zm0-2.38a1,1,0,1,0,0,2,1,1,0,0,0,0-2Z"/><circle class="cls-3" cx="129.8" cy="139.61" r="1.19"/><path class="cls-3" d="M129.8,141a1.36,1.36,0,1,1,1.36-1.36A1.36,1.36,0,0,1,129.8,141Zm0-2.38a1,1,0,1,0,1,1A1,1,0,0,0,129.8,138.59Z"/><circle class="cls-3" cx="167.18" cy="147.56" r="2.38"/><path class="cls-3" d="M167.18,150.28a2.72,2.72,0,1,1,2.71-2.72A2.72,2.72,0,0,1,167.18,150.28Zm0-4.75a2,2,0,1,0,2,2A2,2,0,0,0,167.18,145.53Z"/><circle class="cls-3" cx="179.32" cy="138.25" r="1.19"/><path class="cls-3" d="M179.32,139.61a1.36,1.36,0,1,1,1.36-1.36A1.36,1.36,0,0,1,179.32,139.61Zm0-2.38a1,1,0,1,0,1,1A1,1,0,0,0,179.32,137.23Z"/><circle class="cls-3" cx="133.68" cy="149.95" r="1.19"/><path class="cls-3" d="M133.68,151.3a1.36,1.36,0,1,1,1.36-1.36A1.36,1.36,0,0,1,133.68,151.3Zm0-2.37a1,1,0,1,0,1,1A1,1,0,0,0,133.68,148.93Z"/><circle class="cls-3" cx="197.82" cy="142.2" r="1.19"/><path class="cls-3" d="M197.82,143.56a1.36,1.36,0,1,1,1.36-1.36A1.36,1.36,0,0,1,197.82,143.56Zm0-2.38a1,1,0,1,0,1,1A1,1,0,0,0,197.82,141.18Z"/><circle class="cls-3" cx="201.41" cy="144.96" r="1.72"/><path class="cls-3" d="M201.41,146.93a2,2,0,1,1,2-2A2,2,0,0,1,201.41,146.93Zm0-3.44a1.47,1.47,0,1,0,1.47,1.47A1.47,1.47,0,0,0,201.41,143.49Z"/><circle class="cls-3" cx="153.56" cy="133.43" r="2.14"/><path class="cls-3" d="M153.56,135.87a2.45,2.45,0,1,1,2.45-2.44A2.44,2.44,0,0,1,153.56,135.87Zm0-4.27a1.83,1.83,0,1,0,1.83,1.83A1.83,1.83,0,0,0,153.56,131.6Z"/><circle class="cls-3" cx="158.68" cy="138.13" r="1.19"/><path class="cls-3" d="M158.68,139.49a1.36,1.36,0,1,1,1.36-1.36A1.36,1.36,0,0,1,158.68,139.49Zm0-2.38a1,1,0,1,0,1,1A1,1,0,0,0,158.68,137.11Z"/><path class="cls-6" d="M234.34,132.13l21.36-11.42c.49-.26.12-1-.36-.77L234,131.36c-.48.26-.12,1,.37.77Z"/><path class="cls-6" d="M238.42,132.58c5.48-4.18,11.29-7.85,17.11-11.54.46-.29.1-1.07-.37-.77-5.88,3.72-11.75,7.43-17.29,11.66-.44.33.11,1,.55.65Z"/><path class="cls-6" d="M236.86,132.2c2.63-3,6.71-4.73,10.17-6.64a.17.17,0,0,0-.17-.3c-3.5,1.93-7.58,3.61-10.24,6.7-.15.17.1.41.24.24Z"/><path class="cls-6" d="M235.79,131.65l-.28-.21a.17.17,0,0,0-.09.33,3.34,3.34,0,0,0,2.81-.19c.16-.08.06-.3-.09-.32-2.9-.22.39-1.06.28-1.11-.37-.18-1.88,2.25-.16.23a.18.18,0,0,0,0-.27l-.11-.06a.17.17,0,0,0-.23.06l0,.07c-.07.12,0,.31.19.25,1.41-.58-.29,1,1.4-.26a.17.17,0,0,0-.17-.3c-.53.26-2.69,1.46-.94,1.58,1,.07,1.92-1.65,2.42-2.31.12-.15-.15-.36-.27-.2-.78,1,1.8-.9,2-1.06s3.13-1.84,1.86-1.06a27.87,27.87,0,0,0-4.2,2.67c-.15.13,0,.36.21.27,1.35-.77,2.69-1.57,4-2.42.77-.5,1.6-1,2.32-1.57s1-.68,0-.25a18.35,18.35,0,0,0-3.26,1.71c-.76.59-1.3,1.43-2.15,2-.37.25-1,.49-1,.9.09-.43,2-1.43,2.36-1.7,1.32-1,2.67-1.91,4-2.88.33-.25,1.19-.9-.09,0-.74.54-1.4,1.17-2.17,1.68s-4.33,2.92-4.92,2.1a.18.18,0,0,0-.27,0,14.74,14.74,0,0,0-1.92,1.95.18.18,0,0,0,.08.29l.42.36a.17.17,0,0,0,.33.09c.08-.23-.19-.62-.18-.65a2.22,2.22,0,0,1,1.46-1.53c-.11,0,1,.09.48.18,2.86-.51,6.14-3.23,8-5.35.12-.13,0-.38-.21-.27-2.63,1.84-6,3.63-8.12,6-.12.14,0,.38.21.27a35.67,35.67,0,0,0,3.95-2.88c1.29-1.17,3.73-1.64,4.57-3.24.07-.13-.09-.34-.23-.23-1.13.83-2.27,1.65-3.44,2.42-.65.43-1.3.85-2,1.26-.17.1-2.19,1.26-1.34.85,1.52-.73,3.34-1.47,4.38-2.86.12-.14-.09-.3-.23-.23a42.44,42.44,0,0,0-6,3.83.17.17,0,0,0,.14.31c2-.5-1.64,1-1.77.62a.18.18,0,0,0-.22-.12c-.49.16-.44.09-.65.58a.17.17,0,0,0,.23.24c.71-.34,2.2-1.68.95-.39-.13.14,0,.39.21.27l.33-.24c.18-.13,0-.42-.17-.29-.63.44-.46.22-.8.92-.06.14.09.34.24.23.64-.44,1.9-1.08,1.65-2a.18.18,0,0,0-.17-.13c-.51,0-2,.46-1.66,1.18a.17.17,0,0,0,.28.08,2.39,2.39,0,0,0,.8-1.24c.06-.14-.08-.34-.24-.24a5.2,5.2,0,0,0-1.83,2c-.08.14.08.34.23.24a13.41,13.41,0,0,0,2.26-1.93.17.17,0,0,0-.21-.27,28.79,28.79,0,0,0-3,1.64.17.17,0,0,0,.09.32c2.36.18-1.43.75.84.36.19,0,.14-.28,0-.33-.72-.31-.4-.26-1.18-.18-.22,0-.22.37,0,.35Z"/><path class="cls-6" d="M239.93,129.46a6.36,6.36,0,0,1-1.14,1.12l.24.23a5.06,5.06,0,0,1,.65-.87l-.28-.17c-.24.83-1.19,1.19-1.43,2l.25-.1-.05-.06a.18.18,0,0,0-.35,0,.34.34,0,0,0,.23.35.17.17,0,0,0,.25-.1c.24-.82,1.19-1.18,1.43-2a.17.17,0,0,0-.29-.16,5.94,5.94,0,0,0-.71.94c-.08.14.09.34.24.23a6.33,6.33,0,0,0,1.2-1.17c.13-.17-.11-.42-.24-.24Z"/><path class="cls-6" d="M132.81,121.56l10.35-5.85a.43.43,0,0,0-.44-.74l-10.34,5.85a.43.43,0,0,0,.43.74Z"/><path class="cls-6" d="M153.49,114.3a.38.38,0,0,0-.42,0L139.13,123c-.47.29,0,1,.43.74l13.95-8.71.08-.08A3.74,3.74,0,0,1,153.49,114.3Z"/><path class="cls-6" d="M145.8,124.51l8.07-4.62a.43.43,0,0,0-.43-.74l-8.07,4.62a.43.43,0,0,0,.43.74Z"/><path class="cls-3" d="M258.49,114.46c-1.2,2,1.19,3.25.17,5.3-1.28,2.57-5.46,3.95-7.53,5.85-1.58,1.45-1.8,3-2.55,4.88-1.31,3.36-4.45,4.8-7.58,6.11l1.94,2.52.68-1.06-3-1.73a3.26,3.26,0,0,1-1.35,1.66l2.69,2.08a30.84,30.84,0,0,0,1.71-2.66c1.09-1.92-1.87-3.65-3-1.73a30.84,30.84,0,0,1-1.71,2.66c-1.22,1.69,1.3,3.22,2.69,2.08a7.2,7.2,0,0,0,1.89-2.36,1.72,1.72,0,0,0-3-1.73l-.68,1.06c-.74,1.16.53,3.11,1.93,2.52a23,23,0,0,0,7.17-4.08c2.43-2.3,2.46-5.87,4.83-8.06,2.18-2,5.22-3.12,7.1-5.49a6.15,6.15,0,0,0,1.47-3.55c0-.4-.55-3.34-1-2.54,1.14-1.9-1.82-3.62-3-1.73Z"/><path class="cls-3" d="M271.38,113c0,.17,0,.34,0,.5s0,.23,0,.05c0,.08,0,.16-.05.24s-.09.32-.14.48,0,.11,0,0a2.69,2.69,0,0,1-.16.29,1.71,1.71,0,1,0,3,1.73,5.85,5.85,0,0,0,.78-3.27,1.76,1.76,0,0,0-1.72-1.71,1.74,1.74,0,0,0-1.71,1.71Z"/><path class="cls-1" d="M88,168a59.62,59.62,0,0,1,11.72.28c1.64.2,1.63-2.37,0-2.57A59.62,59.62,0,0,0,88,165.44c-1.64.12-1.66,2.69,0,2.57Z"/></svg>