<svg id="圖層_1" data-name="圖層 1" xmlns="http://www.w3.org/2000/svg" viewBox="0 0 300 300"><defs><style>.cls-1{fill:#e94a1c;}.cls-2{fill:#8d4b00;}.cls-3{fill:#231815;}</style></defs><title>seafood8</title><path class="cls-1" d="M172.09,157.54c3.21,0,3.22-5,0-5s-3.22,5,0,5Z"/><path class="cls-1" d="M179.44,145.61c3.22,0,3.22-5,0-5s-3.22,5,0,5Z"/><path class="cls-1" d="M214.08,178.11c3.22,0,3.22-5,0-5s-3.22,5,0,5Z"/><path class="cls-1" d="M239.35,190.11l2.47.3v-9.95a25.5,25.5,0,0,1-4.62.15l2.51,9.27q-2.29.45.7,1.4l3.32,2.06,6.63,4.13a5,5,0,0,0,7.49-4.3,19.31,19.31,0,0,0-2.52-10,25.93,25.93,0,0,0-2.56-3.34,10.51,10.51,0,0,1-2.66-6.06l0-1.67q-5.29.72-2.87,3.91c.21,1.66,1.62,3.61,2.3,5.19,1.6,3.78,2.08,7.39,2.62,11.4.71,5.24,2.58,12.94,8.8,14.07,7.48,1.36,8.9-7.19,4.68-11.6l-3.52,8.49a33.9,33.9,0,0,1,14.41,1.68l1.33-9.77a53.22,53.22,0,0,0-13.69,2.61c-1.33.47-3.67,2.06-4.73,2.29-.78.16-2.64-.28-4-.05-3.25.54-9.55,3.11-11.79,5.73a7.1,7.1,0,0,0-1.12,7.82,6.4,6.4,0,0,0,7,3.25,11.06,11.06,0,0,0,2.08-.77c1.2-.54,1.24-.7.13-.49,1.28.79,2,2.89,3.4,3.84a7.62,7.62,0,0,0,8.57.17c3.2-2.25,2.09-5.1,3.3-8.14l-2.29,3q-4.07-.72-1.42,1.13c.7.58,1.42,1.15,2.14,1.7a18.5,18.5,0,0,0,3.69,2c3,1.2,6.31,1.41,8.58-1.3,4.74-5.67-1.2-12.82-6.42-14.89l1.19,9.09q-3.18-.92-1.48,1c3.26,5.51,11.86.51,8.59-5-2.77-4.68-6.94-7-12.13-4.55-4.32,2-2.35,7.69,1.18,9.09l.37,1,3.48-3.47c1-.35,0,0-.81-.67s-1.59-1.27-2.38-2c-1.46-1.28-2.66-2.42-4.61-2.79a6.65,6.65,0,0,0-7.67,5.08,6.44,6.44,0,0,0-.26,2.42l0,1.1,3.52-2.76c.19-1-2.75-3.37-3.45-3.85a7.86,7.86,0,0,0-5.56-1.34,7.22,7.22,0,0,0-2.25.72c-1.21.63-2.12.43-.39.92l3,2.28c.08,2.66,1,3.26,2.83,1.82l3.63-1.48-3.84-.5c3.68,1.87,6.25.9,9.85-.63a43.15,43.15,0,0,1,13.79-3.36,5,5,0,0,0,1.32-9.77,41.16,41.16,0,0,0-17.06-2c-4.21.38-6.66,5.2-3.52,8.49l.53.82-.5-3.83-.18,1,2.29-3-1,.49,3.84-.5c-1.62-.49-1.9-7.8-2-9a36.37,36.37,0,0,0-2.22-9.1c-2-5.12-4.29-14.29-10.68-15.38-7.22-1.25-8.89,6.28-8.38,11.8a17,17,0,0,0,2.87,8.36c2.25,3.23,4.76,5,4.76,9.36l7.49-4.29c-5.34-3.32-14-11.68-20.7-7.59-4.34,2.65-2.35,9,2.51,9.26a25.5,25.5,0,0,0,4.62-.14c6.38-.77,6.39-9.17,0-9.95l-2.47-.3c-6.34-.78-6.29,9.18,0,10Z"/><path class="cls-2" d="M246.43,163.68a12.71,12.71,0,0,1-1.44,4.49c-.75,1.41,1.4,2.67,2.15,1.25a16.13,16.13,0,0,0,1.78-5.74c.18-1.59-2.3-1.57-2.49,0Z"/><path class="cls-1" d="M215.5,182.58c3.52-.69,7,2.74,10.59,3.1a12.68,12.68,0,0,0,7.53-1.69c5-2.89,8.1-8.56,10.19-13.77,1.91-4.74,4.64-11.1.56-15.33-4.43-4.6-12.44-6-18.34-7.28-2.24-.48-4.44,2.43-2.42,4.16a40,40,0,0,0,7.11,5c4.1,2.19,7.88,2.94,5.55,8.37-1.36,3.18-2.69,7.15-5.15,9.67-3.4,3.49-6.2,1.36-10,.58l-.66,4.88c3.48-.17,7.1-.46,10-2.64,3.24-2.46,5-6.95,7-10.36,1.28-2.21,3.84-5,2.41-7.61-1.71-3.12-7.26-5.43-10.13-7.36-2.53-1.7-4.63,1.87-3,3.91,2.44,3.08,5.48,5.54,3,9.89-1.12,2-4.55,6.11-6.77,6.48l2.81,3.65a26.19,26.19,0,0,0,4.85-17.74l-4.25,1.76a6.64,6.64,0,0,1,2.86,5.57c0,3.2,5,3.21,5,0a10.93,10.93,0,0,0-4.32-9.09c-1.5-1.16-4.45-.63-4.25,1.76a22.09,22.09,0,0,1-4.17,15.23c-1.4,2,.91,4,2.81,3.65,2.82-.46,4.24-2.15,6-4.24,2-2.29,4.65-4.73,6-7.47,2.39-4.91-3.38-9.58-6.07-13l-3,3.9c2.8,1.89,6.77,3.74,8.93,6.34l-.64-2.42c-1,3.11-3.51,6.28-5.16,9.09-2.51,4.27-5,5.46-9.88,5.7-2.66.13-3.54,4.3-.66,4.88,4.49.92,7.74,2.92,12.19.3s6.32-7.63,8.28-12.08c1.62-3.65,3.42-7.31.78-10.91a12.67,12.67,0,0,0-4.89-3.63,42.6,42.6,0,0,1-9-5.62l-2.42,4.16c4.64,1,9.5,2,13.66,4.36,3.41,2,3.27,3.78,2.34,7.18a41.19,41.19,0,0,1-3.3,8.29c-2.7,5-7.18,10.33-13.52,7.72-3.38-1.39-5.94-2.91-9.71-2.17-3.14.61-1.81,5.41,1.32,4.79Z"/><path class="cls-1" d="M183.79,181c14.22,5.18,35.87.12,39.05-16.83,1.56-8.34.54-14.87-4.46-21.76-4.67-6.43-12.4-11.17-20.4-7.92-3.69,1.49-5.3,6.85-1.19,9.09a25.58,25.58,0,0,1,7.17,6.31c2.35,2.77,3.32,4.51,2,8.27s-7.32,12.08-12.35,10.53l2.19,8.32c6.44-5,25.73-24.44,12.38-31.52a5,5,0,0,0-7.48,4.29,25.76,25.76,0,0,0,0,3.83c.31,6.37,10.26,6.41,9.95,0a25.76,25.76,0,0,1,0-3.83l-7.48,4.29c-1.46-.77-2.35,2.51-3.16,3.8a39.62,39.62,0,0,1-3,4.26,51.57,51.57,0,0,1-8.2,7.84c-3.12,2.44-1,7.33,2.19,8.31,10.14,3.12,20.72-7.58,24.08-16.14,2-5.2,2.34-10.7-.94-15.44s-7.31-9-12.27-11.71l-1.19,9.09c5.55-2.25,9.35,3,11.74,7.33,2,3.59,1.72,9.26.17,13.09-3.81,9.4-18.19,9.79-26.1,6.9-6-2.19-8.62,7.42-2.64,9.6Z"/><path class="cls-1" d="M180.08,146.57c3.22,0,3.22-5,0-5s-3.22,5,0,5Z"/><path class="cls-1" d="M174.53,136.92a14.78,14.78,0,0,1,10.79,4.62c4.54,4.56,11.38-2.35,7-7l-2.68-2.89-7,7c3.27,3.31,7.56,7.29,5.48,12.31-1.64,4-4.6,8.2-8.3,10.37-2.49,1.46-3.59,5.79-1,7.81l1.25,1v-7a18.7,18.7,0,0,1-23.45,3.48l-2.51,9.26c6,.6,13.42,2.46,19-.81,2.49-1.47,4.32-3.88,6.22-6,2.29-2.55,4.85-5,6.9-7.77a12.94,12.94,0,0,0,2.73-8c.13-3.39,1-6.36,1.38-9.7.7-5.61-1.67-10.65-7.17-12.54-3.59-1.23-7.16,2.63-6.12,6.12l.79,2.61,8.31-4.84-2-1.87c-4-3.7-11.07,1.14-7.81,6,3.1,4.65,2.5,14.16-.46,18.69l9.09,3.83c1-4.34,2.16-8.63,1.79-13.11-.51-6.34-10.47-6.4-9.94,0,.29,3.62-.63,7-1.44,10.46a5,5,0,0,0,9.09,3.84c4.83-7.39,5.45-21.24.46-28.73l-7.81,6,2,1.87c3.51,3.28,9.79.09,8.31-4.84l-.78-2.6-6.12,6.12c.66.22-1.5,8.4-1.56,9.59-.13,2.18.19,3.49-.95,5.37-1,1.61-2.75,3.06-4,4.46-2.24,2.5-4.54,6.5-8.11,6.8-3.8.32-8-.62-11.76-1-5.05-.5-6.57,7-2.51,9.26a28.76,28.76,0,0,0,35.5-5c1.69-1.76,2.16-5.34,0-7l-1.25-1-1,7.81a31.76,31.76,0,0,0,13.47-17.84c2.15-8.16-3.29-15-8.63-20.46-4.52-4.58-11.38,2.34-7,7l2.68,2.9,7-7A25,25,0,0,0,174.53,127c-6.4-.1-6.4,9.85,0,9.95Z"/><path class="cls-2" d="M249.36,197.3c1.76,0,3-.9,4.35-2,1.76-1.43,3.47-2.93,5.15-4.45,1.19-1.08-.58-2.83-1.76-1.76s-2.42,2.16-3.65,3.21-2.49,2.52-4.09,2.48a1.25,1.25,0,0,0,0,2.49Z"/><path class="cls-2" d="M254.08,177.75c-.28,2.56-2.81,4.46-4.64,6.05-2.06,1.79-4.84,4.62-7.82,3.85a1.25,1.25,0,0,0-.66,2.4c3.77,1,6.81-1.6,9.54-3.89s5.66-4.68,6.07-8.41c.18-1.59-2.31-1.58-2.49,0Z"/><path class="cls-2" d="M244.62,166.32c.59,4.86-2.07,8.64-5,12.27-2.48,3.12-5,6.14-9.15,6.94-1.56.31-.9,2.71.67,2.4,5-1,8.16-4.87,11.15-8.73s5.38-7.88,4.77-12.88c-.19-1.57-2.68-1.59-2.48,0Z"/><path class="cls-2" d="M223.18,151.73a8.76,8.76,0,0,1,1.66,4.84c.1,1.59,2.59,1.6,2.49,0a11.19,11.19,0,0,0-2-6.1c-.94-1.26-3.1,0-2.14,1.26Z"/><path class="cls-2" d="M224.78,155.61c-.06,5.75-.33,11.2-4.13,15.86a61.68,61.68,0,0,1-4.43,4.72c-.8.79-5.59,5.55-1.41,3.64,1.45-.67.19-2.81-1.26-2.15l-3.07,1.41a1.19,1.19,0,0,0-.62,1.07c.63,6.06,8.24-2.33,9.35-3.47,6.15-6.36,8-12.24,8-21.08a1.24,1.24,0,0,0-2.48,0Z"/><path class="cls-2" d="M222.72,154.7l1.5,2.13a1.29,1.29,0,0,0,1.71.44,1.25,1.25,0,0,0,.44-1.7l-1.5-2.12a1.28,1.28,0,0,0-1.7-.45,1.25,1.25,0,0,0-.45,1.7Z"/><path class="cls-2" d="M196.94,140.45a3.7,3.7,0,0,1,1.64,1.7,1.24,1.24,0,1,0,2.15-1.25,6.07,6.07,0,0,0-2.54-2.6c-1.41-.76-2.66,1.38-1.25,2.15Z"/><path class="cls-2" d="M197.93,144.59C199.28,150,198.07,155,196,160c-.61,1.48,1.8,2.12,2.39.66,2.22-5.44,3.36-10.93,1.9-16.72a1.25,1.25,0,0,0-2.4.67Z"/><path class="cls-2" d="M168.76,130.83c7.64,5.54,8.26,18.49,4.76,26.51-4.05,9.26-14.41,10.22-23,12.65a1.25,1.25,0,0,0,.66,2.4c10.38-2.93,21.65-4.47,25.44-16.17,2.95-9.06,1.58-21.61-6.59-27.54-1.3-.94-2.54,1.22-1.26,2.15Z"/><path class="cls-1" d="M146.08,124c5.9.71,11.8,1.42,17.68,2.19,1.59.21,1.57-2.28,0-2.48-5.88-.78-11.78-1.49-17.68-2.19-1.58-.19-1.57,2.3,0,2.48Z"/><path class="cls-1" d="M120.2,160.09c8.53,6.27,18.4,9.58,28.71,11.59,1.56.3,2.23-2.09.66-2.4-10.1-2-19.76-5.2-28.12-11.34-1.29-.95-2.53,1.21-1.25,2.15Z"/><path class="cls-1" d="M149,121.74a22.9,22.9,0,0,0-4.37-.62c-1.6-.08-1.59,2.41,0,2.48a19.31,19.31,0,0,1,3.71.54,1.25,1.25,0,0,0,.66-2.4Z"/><path class="cls-1" d="M144.13,120.91c-12.45-2-23.18-8.33-33.42-15.41-1-.71-2.35.69-1.7,1.7,1,1.54,2.89,5.61,5.2,5.1a1.28,1.28,0,0,0,.91-1.2c.19-2.36-2.79-4.35-4.41-5.6-1-.78-2.32.71-1.7,1.7a88.2,88.2,0,0,0,17.33,20.31c1.21,1,3-.71,1.76-1.76A86.09,86.09,0,0,1,111.15,106l-1.7,1.7c.67.52,4.15,4.53,4.16,1.8,0-.72-2-2.77-2.46-3.5l-1.7,1.7c10.41,7.2,21.37,13.57,34,15.66,1.57.26,2.24-2.14.66-2.4Z"/><path class="cls-1" d="M114.18,154.21a26.38,26.38,0,0,0,7.66,7.07c1.37.84,2.62-1.31,1.25-2.14a23.37,23.37,0,0,1-6.76-6.19c-.94-1.28-3.09,0-2.15,1.26Z"/><path class="cls-3" d="M129.69,116.37a4.76,4.76,0,0,1,5.65-1.85,4.4,4.4,0,0,1,2.39,5.35"/><path class="cls-1" d="M110.28,147.62c.45,2.91,2.35,5.14,4.31,7.21,1.1,1.17,2.85-.6,1.76-1.76-1.69-1.79-3.29-3.6-3.67-6.11-.25-1.58-2.65-.91-2.4.66Z"/><path class="cls-1" d="M125.72,125.67a25.86,25.86,0,0,0-14.14,12.63c-.71,1.43,1.43,2.7,2.14,1.26a23.34,23.34,0,0,1,12.66-11.49c1.48-.57.84-3-.66-2.4Z"/><path class="cls-1" d="M113.14,137.45a119.19,119.19,0,0,1-20.66-8.33,1.25,1.25,0,0,0-1.51,2c1,1.17,4.12,5.87,6.07,3.75s-3.27-5-4.56-5.71-2.39.91-1.51,2a85.27,85.27,0,0,0,19.63,17.1c1.36.86,2.6-1.3,1.26-2.15a83,83,0,0,1-19.13-16.71l-1.51,2c.93.54,4.15,3.48,4.17,1.06,0-.57-2.17-2.4-2.66-3l-1.51,2a122.82,122.82,0,0,0,21.25,8.57,1.24,1.24,0,0,0,.67-2.39Z"/><path class="cls-1" d="M125.25,126.9a254,254,0,0,1-77-63.42c-1-1.24-2.77.53-1.76,1.76A256,256,0,0,0,124,129.05c1.41.75,2.67-1.39,1.26-2.15Z"/><path class="cls-1" d="M58.46,77.17a474.3,474.3,0,0,0,62.28,45.51.62.62,0,0,0,.63-1.07,471.36,471.36,0,0,1-62-45.32c-.6-.52-1.49.36-.88.88Z"/><path class="cls-1" d="M12.9,80.92a356.07,356.07,0,0,0,92,64.9c1.43.71,2.69-1.44,1.26-2.15a353.6,353.6,0,0,1-91.53-64.5c-1.14-1.13-2.9.63-1.76,1.75Z"/><path class="cls-1" d="M25.81,91.47C47,107.59,68.36,123.76,92.91,134.4c.72.31,1.36-.76.62-1.07C69,122.68,47.59,106.52,26.44,90.39c-.64-.48-1.26.6-.63,1.08Z"/><path class="cls-1" d="M163.86,126.28c9.53,5.69,11.64,22,6,31-4.64,7.34-14.1,9-21.67,11.79-1.48.56-.84,3,.66,2.4,9.51-3.56,20.58-5.67,24.78-16.17,4-10.07,1.35-25.31-8.47-31.16a1.24,1.24,0,0,0-1.26,2.14Z"/><path class="cls-1" d="M168.91,129.69c9.32-2.22,19-2.86,24.7,6.4,4.29,7,3.78,16.19.3,23.35C190.72,166,185.17,171.28,179,175c-4.31,2.59-8.85,4.34-13.92,3.1-4.63-1.13-9.29-3.91-13.62-5.86-1.44-.66-2.71,1.48-1.25,2.14,5,2.28,10.57,5.72,16.12,6.51,4.67.67,9.22-1,13.21-3.32,7.83-4.48,14.74-11.38,17.88-20,2.86-7.83,2.43-17.37-2.62-24.25-6.69-9.11-16.63-8.44-26.51-6.09-1.55.37-.89,2.77.66,2.4Z"/><path class="cls-1" d="M194.41,136c7.26.11,16,.14,21.79,5.31,5.55,5,7.17,14.51,5.79,21.6-1.66,8.54-7.84,13.49-16,15.7-8.3,2.26-18,3.28-25.77-1-1.41-.76-2.67,1.39-1.26,2.15,8.64,4.69,19.33,3.64,28.48,1,8.6-2.5,15.14-8.2,16.92-17.21,1.49-7.56-.06-17.28-5.47-23.07-6.14-6.57-16.16-6.86-24.51-7a1.25,1.25,0,0,0,0,2.49Z"/><path class="cls-1" d="M223.09,148.79c5.38,1.56,11.22,2.69,16.43,4.77,3.14,1.25,5.37,2.53,5.65,6.25a15.52,15.52,0,0,1-.69,4.77,42.58,42.58,0,0,1-3.89,8.8c-3.11,5.84-7.13,10.16-14.23,10.25-6.09.07-12.47-2-18.08-4.19-1.5-.58-2.15,1.82-.67,2.4,7.13,2.75,16.48,5.89,24.15,3.56,6.26-1.89,9.63-7.9,12.3-13.41,2.49-5.13,5.94-12.81,1.59-18-2-2.34-5.29-2.81-8.06-3.61l-13.84-4a1.25,1.25,0,0,0-.66,2.4Z"/><path class="cls-1" d="M247.48,163.84c2.47,1.17,5.11,2.36,6.79,4.6,3.66,4.88-.66,9.49-4.19,12.37-4.93,4-12.84,10.13-18.74,4.81-1.19-1.07-3,.68-1.76,1.75,7.66,6.91,17.86-.42,23.92-6.22,2.85-2.74,5.56-6.47,4.62-10.61-1.06-4.63-5.45-7-9.39-8.85-1.44-.69-2.7,1.46-1.25,2.15Z"/><path class="cls-1" d="M256.11,175.45c2.47,2,3.5,4.17,2.43,7.3a20.22,20.22,0,0,1-3.8,6.76,13.7,13.7,0,0,1-5.53,3.27c-4,1.39-6.58.73-8.48-2.94-.73-1.43-2.88-.17-2.15,1.25,7.61,14.7,31.91-7.26,19.29-17.39-1.24-1-3,.75-1.76,1.75Z"/><path class="cls-1" d="M259.63,185.11a16.4,16.4,0,0,1,.1,8.87,1.25,1.25,0,0,0,2.4.66,19,19,0,0,0-.1-10.19,1.25,1.25,0,0,0-2.4.66Z"/><path class="cls-1" d="M245.75,197.24a35.23,35.23,0,0,1,7.62,4.22c1.3.94,2.54-1.21,1.25-2.14a37.16,37.16,0,0,0-8.21-4.48c-1.48-.59-2.13,1.82-.66,2.4Z"/><path class="cls-1" d="M264,194.57a18,18,0,0,1,10.48-.37,19.49,19.49,0,0,1,4.58,2l2.22,1.63q1.61,7-2.86,6.2a1.26,1.26,0,0,0-1.07,1.88c1.93,3,2.91,8-.1,10.85a5.4,5.4,0,0,1-8.6-1.85,1.25,1.25,0,0,0-2.27.3,7.22,7.22,0,0,1-4.33,5,4.31,4.31,0,0,1-2.23.64q-4.16,1.09-5.34-5.17a1.25,1.25,0,0,0-1.51-1.95c-3,1.57-5.08,2.39-8.25.66-2.52-.41-3.11-1.73-1.78-3.94a3.64,3.64,0,0,1,2.3-4.09,56.25,56.25,0,0,1,7.46-4.38c1.43-.72.17-2.87-1.25-2.14-4.54,2.31-13.94,6.39-11.85,13.11s9.81,5.42,14.62,2.92l-1.5-1.95c-3.1,3.92-.48,8.55,4.18,9.43a10.41,10.41,0,0,0,11.88-7.48l-2.28.29a7.83,7.83,0,0,0,11.44,3.25c4.83-3.35,4.38-10.31,1.56-14.76l-1.08,1.87c5.52.15,9.67-4.17,5.66-9.32-4.69-6-13.93-7.08-20.74-5-1.52.48-.87,2.88.66,2.4Z"/><path class="cls-1" d="M132.2,165.39c-8.77-.38-17.63,1.5-26.29,2.72-3.81.54-7.74.87-11.21,2.68s-6.28,4.85-8.94,7.75c-1.07,1.18.68,2.94,1.76,1.76,2.5-2.73,5.09-5.67,8.43-7.37,3.78-1.91,8.35-2.1,12.47-2.68,7.86-1.11,15.81-2.72,23.78-2.37,1.6.07,1.6-2.42,0-2.49Z"/><path class="cls-1" d="M135.92,168c-4,3.43-8.65,5.59-13.48,7.62-2.17.91-5.81,1.66-7.15,3.73-1.24,1.92-.35,4.68-.34,6.79a29.44,29.44,0,0,1-4.35,15.22,1.25,1.25,0,0,0,2.15,1.26,32.93,32.93,0,0,0,3.91-9.53c.83-3.69-.29-8.66,1.39-11.8s7.41-4.18,10.57-5.7a41.45,41.45,0,0,0,9.06-5.83c1.22-1-.54-2.79-1.76-1.76Z"/><path class="cls-1" d="M142,169.27a48.9,48.9,0,0,1-4.24,11.95c-1.06,2-3.59,4.46-3.8,6.81-.21,2.2,1.8,5.22,2.66,7.17,1.76,4,3.67,7.85,5.69,11.7.74,1.41,2.89.16,2.14-1.26-1.58-3-3.1-6-4.52-9.15-1.64-3.55-4.06-6.72-2.15-10.38,2.82-5.39,5.25-10.18,6.62-16.18.36-1.56-2-2.22-2.4-.66Z"/><path class="cls-1" d="M147.29,171.6c0,4.16-.07,8.33-.07,12.49,0,2.68-.12,4.9,1.58,7.14,2.11,2.76,5.43,5.13,8,7.46q4.78,4.29,9.66,8.46c1.21,1,3-.72,1.76-1.76q-7.31-6.27-14.41-12.78c-5.77-5.3-4.09-13.83-4.05-21a1.25,1.25,0,0,0-2.49,0Z"/><path class="cls-1" d="M201.72,180.43c-1.18,1.89-2.4,3.77-3.66,5.6-1.14,1.65-2.81,3.31-3.63,5.12-1.25,2.8,1.23,6.69,2.2,9.3.56,1.48,3,.84,2.4-.67-1.31-3.52-3.22-6.38-.76-9.76,2-2.71,3.82-5.5,5.6-8.34.85-1.36-1.3-2.61-2.15-1.25Z"/><path class="cls-1" d="M204.31,181.51c-1,5.11-4.2,15.67,2.41,18.22,1.49.57,2.14-1.83.66-2.4-4.2-1.62-1.25-12.2-.67-15.16.3-1.56-2.09-2.23-2.4-.66Z"/><path class="cls-1" d="M210,182.73c-.38,5.06-3.34,12.3,2.65,15.37,1.42.73,2.68-1.42,1.26-2.15-4.73-2.42-1.72-9.28-1.43-13.22.12-1.6-2.36-1.59-2.48,0Z"/><path class="cls-1" d="M211.77,183.36a42.68,42.68,0,0,0,9.36,10.25c1.25,1,3-.77,1.76-1.76a41,41,0,0,1-9-9.74c-.87-1.34-3-.09-2.14,1.25Z"/><path class="cls-1" d="M96.82,135.73c2.67.81,4.92,3.06,7.11,4.71l7.46,5.64c1.28,1,2.52-1.2,1.26-2.15l-8.4-6.34c-2.13-1.61-4.17-3.47-6.77-4.26-1.53-.47-2.19,1.93-.66,2.4Z"/><path class="cls-1" d="M103.72,137.79l10.11,6a1.24,1.24,0,0,0,1.25-2.14l-10.11-6a1.24,1.24,0,0,0-1.25,2.15Z"/><path class="cls-1" d="M107.58,141.79c1.88,1.26,3.82,2.45,5.8,3.55,1.4.78,2.66-1.37,1.26-2.15-2-1.1-3.92-2.28-5.81-3.54-1.33-.9-2.58,1.26-1.25,2.14Z"/><path class="cls-1" d="M115,141.76c2.62-5.1,7.09-9.33,11.32-13.12,1.19-1.07-.57-2.82-1.76-1.76-4.38,3.93-9,8.34-11.71,13.63-.73,1.42,1.41,2.68,2.15,1.25Z"/><path class="cls-1" d="M114.55,141.46c-1.7,2.31-3.51,5.18-2.19,8.11,1.54,3.41,6.51,6.32,9.33,8.54,3,2.36,6.14,5.23,9.62,6.81,4.63,2.11,9.79-.08,14.37,2.08,1.44.68,2.7-1.46,1.25-2.15-5.52-2.61-11.33,0-16.71-3.47a98.92,98.92,0,0,1-8.84-6.68c-3.73-3-8.88-6.28-4.69-12,1-1.3-1.21-2.54-2.14-1.26Z"/><path class="cls-1" d="M137.64,167.52c3.18,1.71,6.45,3.32,10.17,2.83,4.5-.59,8.61-3.73,12.22-6.25a39.58,39.58,0,0,0,15.37-20.72c.49-1.53-1.91-2.18-2.4-.66a36.07,36.07,0,0,1-12.29,17.78,60.54,60.54,0,0,1-8.17,5.46c-5,2.77-8.77,2-13.64-.59-1.41-.76-2.67,1.39-1.26,2.15Z"/><path class="cls-1" d="M171,151.24c.32,1.22-5.67,4.87-6.66,5.83-2,2-3.31,4.43-5.25,6.42-1.13,1.15.58,2.83,1.76,1.76q4.41-4,9.09-7.78l-2.08-.55c.21,1.31-3.61,3.74-4.51,4.49-2.19,1.81-4.44,3.38-7.37,3.48-1.6.06-1.61,2.54,0,2.49,3.62-.13,6.4-1.95,9.13-4.22,2.18-1.81,5.66-3.71,5.15-6.9-.16-1-1.44-1.06-2.08-.55q-4.68,3.73-9.09,7.78l1.76,1.76c2.92-3,4.9-6.29,8.28-8.9,1.77-1.36,5-3.18,4.27-5.77a1.25,1.25,0,0,0-2.4.66Z"/><path class="cls-1" d="M114.24,112.7a14.93,14.93,0,0,0,4.88,6c3,1.94,6.06,3.41,8.86,5.65,1.24,1,3-.76,1.76-1.75a45.7,45.7,0,0,0-7-4.73,14,14,0,0,1-6.38-6.4c-.76-1.41-2.91-.16-2.15,1.25Z"/><path class="cls-1" d="M122.86,122.64l5.42,5.23c1.16,1.11,2.92-.65,1.76-1.76l-5.42-5.23c-1.15-1.11-2.91.64-1.76,1.76Z"/><path class="cls-1" d="M117.51,114.08c3.43,4.1,8,6.81,12.59,9.42a1.24,1.24,0,0,0,1.25-2.15c-4.41-2.51-8.78-5.08-12.08-9-1-1.23-2.78.54-1.76,1.76Z"/><path class="cls-1" d="M125.33,118.27c3.44,2.55,6.3,4.55,10.54,5.24,4,.64,8.21,1.44,12.21.9,1.56-.21,1.59-2.7,0-2.48-3.78.5-7.82-.15-11.55-.82-4-.73-6.69-2.58-10-5-1.28-1-2.53,1.2-1.25,2.15Z"/><path class="cls-1" d="M166.19,125.25c-3.59-2.34-7.42-1.24-11.37-.87-1,.1-2,.16-3,.2a2.4,2.4,0,1,0-4.79,0,63.75,63.75,0,0,1-7.79-.74,5.34,5.34,0,0,0-1.89-.51,2.37,2.37,0,0,0-1.57-.55,2.32,2.32,0,0,0-1.3.37l-.3-.29c-4.08-4.23-10.32,1.33-7.9,5.84a2.24,2.24,0,0,0-.74,1,4,4,0,0,0-2.87-.37c-2.87.66-4.32,3.6-5.53,6-.92,1.78-1.81,3.56-2.72,5.34-.61,1.21-1.56,2.56-1.65,4-.12,1.93,1.28,3,2.93,3.68a4.89,4.89,0,0,0,.5,3.24c4.94,9.67,15.26,10.91,24.13,15.19,3.91,1.89,7.68,3.85,11.93,1.53,4.52-2.47,8.47-7,12.36-10.33l.11-.1a4.64,4.64,0,0,0,3.24,1.18c5.53,0,6.29-7.42,2.26-9.44a7,7,0,0,0,.25-.69,5.12,5.12,0,0,0,3.85-3.19C177.19,138.64,172.36,129.28,166.19,125.25Zm-45.61,14.23c.34-.68.94-2.28,1.69-3.53l.19.18a5.63,5.63,0,0,1,1.82,2.56,2.05,2.05,0,0,0,.91,1.07,9.59,9.59,0,0,0-.22,1.63,2.8,2.8,0,0,0,0,.42,2.23,2.23,0,0,0-3,1.06c-1-.21-2-.45-3-.72C119.58,141.11,120.26,140.11,120.58,139.48Z"/><path class="cls-1" d="M124.66,115.58c-3.2,0-3.21,5,0,5S127.87,115.58,124.66,115.58Z"/><circle class="cls-3" cx="121.52" cy="139.19" r="4.3"/><path class="cls-1" d="M99.56,136.13A11.45,11.45,0,0,0,95,133.47c-2.43-.77-4.1,2.43-2.42,4.15a31.55,31.55,0,0,0,7,5.38c2.79,1.58,5.3-2.71,2.51-4.3a26.51,26.51,0,0,1-5.94-4.59l-2.42,4.15A6,6,0,0,1,96,139.65c2.33,2.19,5.85-1.32,3.52-3.52Z"/><path class="cls-1" d="M92.68,133.94a50.52,50.52,0,0,1-8.54-3.72c-1.72-1-2.75-2.93-4.82-3.28-2.35-.38-3.35,3.21-1,3.6,1,.18,1.74,1.38,2.53,2a16.53,16.53,0,0,0,2.94,1.7,74.7,74.7,0,0,0,7.89,3.31c2.26.81,3.24-2.79,1-3.6Z"/><path class="cls-1" d="M77.67,126.24a28.78,28.78,0,0,1-12.48-8.18c-1-1.21-2.8.55-1.76,1.76A30.9,30.9,0,0,0,77,128.64a1.25,1.25,0,0,0,.66-2.4Z"/><path class="cls-1" d="M62.83,117.63q-4.42-3.27-9-6.33c-1.34-.9-2.58,1.26-1.26,2.15,3.05,2,6,4.15,9,6.33,1.28,1,2.53-1.21,1.25-2.15Z"/><path class="cls-1" d="M70.07,88.3a11.37,11.37,0,0,0,4.3,5.89c1.3.93,2.55-1.22,1.26-2.15a8.55,8.55,0,0,1-3.16-4.4c-.48-1.52-2.89-.87-2.4.66Z"/><path class="cls-1" d="M72.48,91.14q6.45,5.25,12.6,10.86c1.18,1.07,2.94-.68,1.76-1.76q-6.15-5.61-12.6-10.85c-1.23-1-3,.74-1.76,1.75Z"/><path class="cls-1" d="M83.92,100.4a57.86,57.86,0,0,0,10.76,7.9,1.25,1.25,0,0,0,1.51-2,7.2,7.2,0,0,0-2.51-2.27c-1.33-.92-2.54,1.22-1.26,2.14a68.73,68.73,0,0,1,8.81,7.52,1.25,1.25,0,0,0,2-1.51l-.85-1.74-2,1.51a19.68,19.68,0,0,0,5.1,4.3c1.17.7,2.63-1.06,1.5-2l-2.28-1.81-1.5,2,8,5.65c1.14.81,2.59-1,1.5-1.95l-6.1-5.13-1.51,2c3.43,1.72,5.71,4.87,8.77,7.1A30.78,30.78,0,0,0,124,126.79c1.45.4,2-1.47,1-2.27a66.69,66.69,0,0,0-13.11-7.66c-1.45-.63-2.72,1.51-1.26,2.15a66.36,66.36,0,0,1,13.11,7.65l1-2.27A27.87,27.87,0,0,1,113,118.18c-2.16-2-4-4-6.63-5.32-1.18-.6-2.65,1-1.51,2l6.11,5.13,1.5-2-8-5.65c-1.14-.8-2.61,1.08-1.5,2l2.27,1.81,1.51-1.95a17.92,17.92,0,0,1-4.59-3.91c-1-1.14-2.53.31-2,1.51l.84,1.74L103,112a73.08,73.08,0,0,0-9.31-7.9l-1.26,2.14,2,1.89,1.51-2a54.72,54.72,0,0,1-10.26-7.51c-1.18-1.09-2.94.67-1.76,1.76Z"/><path class="cls-1" d="M105.7,145.77a38,38,0,0,0,5.43,2,1.24,1.24,0,0,0,.66-2.39,36.13,36.13,0,0,1-4.83-1.74c-1.45-.66-2.71,1.49-1.26,2.14Z"/><path class="cls-2" d="M173,156.07a16.62,16.62,0,0,1-5.54,6.58c-2.38,1.57-4.94,2.89-7.4,4.31a1.25,1.25,0,0,0,1.26,2.15c3-1.73,6.27-3.29,9-5.44a19.34,19.34,0,0,0,4.85-6.34c.74-1.42-1.4-2.67-2.15-1.26Z"/><path class="cls-2" d="M176,155.66c1-3.62,2.3-7.25,1.55-11-.31-1.57-2.71-.9-2.4.66.65,3.25-.7,6.62-1.54,9.72a1.24,1.24,0,0,0,2.39.66Z"/><path class="cls-2" d="M160,169.83a1.25,1.25,0,0,0,0-2.5,1.25,1.25,0,0,0,0,2.5Z"/><path class="cls-2" d="M198.13,141.39c6.25,15.13-7.64,27-18.29,35.26-1.26,1,.51,2.73,1.76,1.76,11.34-8.81,25.53-21.69,18.93-37.68-.61-1.46-3-.82-2.4.66Z"/><path class="cls-1" d="M185.62,133.56c3.22,0,3.23-5,0-5s-3.22,5,0,5Z"/><path class="cls-1" d="M186.78,134.17l3.26,3.56a2.51,2.51,0,0,0,3.52,0,2.55,2.55,0,0,0,0-3.52l-3.27-3.56a2.5,2.5,0,0,0-3.51,0,2.54,2.54,0,0,0,0,3.52Z"/><path class="cls-2" d="M212.93,179a5.75,5.75,0,0,1-4.37,1.09c-1.57-.26-2.24,2.13-.66,2.4a8.26,8.26,0,0,0,6.29-1.34c1.29-.92.05-3.08-1.26-2.15Z"/><path class="cls-2" d="M250.64,196.11a10.7,10.7,0,0,1-3.23-.47c-.77-.24-1.1,1-.33,1.2a12.27,12.27,0,0,0,3.56.52.63.63,0,0,0,0-1.25Z"/><path class="cls-2" d="M248.29,196.86l2.24-.12c.8,0,.8-1.28,0-1.24l-2.24.12c-.8,0-.8,1.29,0,1.24Z"/><path class="cls-2" d="M251.17,196.82a6.35,6.35,0,0,0,4.37-2c1.28-1.18,2.78-1.88,3.31-3.65a.62.62,0,0,0-1.2-.33c-.4,1.35-1.64,1.94-2.65,2.8-.4.34-.75.76-1.17,1.1a4.3,4.3,0,0,1-2.66.88c-.79.06-.8,1.31,0,1.25Z"/><path class="cls-2" d="M220.68,173.41c-2.36,3.67-6.82,6.22-10.3,8.74-.65.46,0,1.54.62,1.07,3.65-2.63,8.28-5.33,10.76-9.18.43-.68-.65-1.3-1.08-.63Z"/><path class="cls-2" d="M232.1,185.37c-.8,0-2.12-.2-2.81.28a1.16,1.16,0,0,0-.19,1.62,1.56,1.56,0,0,0,1.81.45c1.08-.33,2.07-.82,3.19-1.06l-.7-.91a1.61,1.61,0,0,1-1.79,1c-.78-.16-1.12,1-.33,1.2a2.84,2.84,0,0,0,3.2-1.61.63.63,0,0,0-.71-.91,15.27,15.27,0,0,0-2.54.8c-.22.09-.43.19-.66.26s-.62.1-.13.14a15.34,15.34,0,0,0,1.66,0,.62.62,0,0,0,0-1.24Z"/><path class="cls-2" d="M240,190.91a9.25,9.25,0,0,0,4.17-1.35c.67-.43.05-1.5-.63-1.08a7.77,7.77,0,0,1-3.54,1.19c-.8.06-.8,1.3,0,1.24Z"/><path class="cls-2" d="M259.34,187.91a7,7,0,0,1-1.83,2.36c-.61.51.28,1.39.88.87a7.93,7.93,0,0,0,2-2.6c.35-.71-.72-1.35-1.08-.63Z"/><path class="cls-2" d="M259.05,188.08l-.65.74c-.52.6.35,1.48.88.88l.65-.74c.52-.6-.35-1.49-.88-.88Z"/><path class="cls-2" d="M250.94,197.4a18.81,18.81,0,0,0,6.49-4.13c.57-.55-.31-1.43-.88-.88a17.52,17.52,0,0,1-5.94,3.81c-.74.28-.42,1.48.33,1.2Z"/><path class="cls-1" d="M269.24,197.27c1.82.61,3.72,1,5.58,1.49,3.1.81,4.42-4,1.32-4.79-1.86-.49-3.76-.89-5.58-1.5a2.49,2.49,0,0,0-1.32,4.8Z"/><path class="cls-1" d="M254.37,201.88c3.21,0,3.22-5,0-5s-3.23,5,0,5Z"/><path class="cls-1" d="M204.81,182.8c3.21,0,3.22-5,0-5s-3.23,5,0,5Z"/><path class="cls-1" d="M103.77,115.77c3.22,0,3.22-5,0-5s-3.22,5,0,5Z"/><path class="cls-1" d="M100.68,113.85c3.22,0,3.22-5,0-5s-3.22,5,0,5Z"/><path class="cls-1" d="M125.73,132.18c3.21,0,3.22-5,0-5s-3.23,5,0,5Z"/><path class="cls-1" d="M114.64,151.26c3.22,0,3.22-5,0-5s-3.22,5,0,5Z"/><path class="cls-1" d="M112.72,144.22c3.22,0,3.23-5,0-5s-3.22,5,0,5Z"/><path class="cls-2" d="M176.14,152.37a.63.63,0,0,0,0-1.25.63.63,0,0,0,0,1.25Z"/><path class="cls-2" d="M174,156.2h.32a.62.62,0,0,0,0-1.24H174a.62.62,0,0,0,0,1.24Z"/><path class="cls-2" d="M175.92,143.41a.63.63,0,0,0,0-1.25.63.63,0,0,0,0,1.25Z"/><path class="cls-2" d="M175.29,141.73l-.43,6.53a32.87,32.87,0,0,1-1.08,6,.62.62,0,0,0,1.2.33,28.26,28.26,0,0,0,1.06-5.39l.49-7.46c.06-.8-1.19-.79-1.24,0Z"/><path class="cls-2" d="M199.16,140.34a19.76,19.76,0,0,1-1.51-2.54c-.36-.72-1.43-.09-1.08.62a19.28,19.28,0,0,0,1.52,2.55c.46.65,1.54,0,1.07-.63Z"/><path class="cls-2" d="M197.67,139a.63.63,0,0,0,0-1.25.63.63,0,0,0,0,1.25Z"/><path class="cls-2" d="M180.4,176.8a3.94,3.94,0,0,0-2.06.86.63.63,0,0,0,.13,1,2.61,2.61,0,0,0,2.55-.17c.66-.43,0-1.51-.63-1.07a1.33,1.33,0,0,1-1.29.16l.12,1a2.35,2.35,0,0,1,1.18-.5.64.64,0,0,0,.62-.62.63.63,0,0,0-.62-.62Z"/><path class="cls-1" d="M212,184.55a33.45,33.45,0,0,0,8.74-5c1.25-1-.52-2.74-1.76-1.76a29.6,29.6,0,0,1-7.64,4.33c-1.48.56-.83,3,.66,2.39Z"/><path class="cls-1" d="M211.52,184.64a1.25,1.25,0,0,0,0-2.5,1.25,1.25,0,0,0,0,2.5Z"/><path class="cls-1" d="M211.42,184.54a1.25,1.25,0,0,0,0-2.5,1.25,1.25,0,0,0,0,2.5Z"/><path class="cls-1" d="M248.52,163.78l.14,6a1.25,1.25,0,0,0,2.49,0l-.14-6a1.25,1.25,0,0,0-2.49,0Z"/><path class="cls-1" d="M248,163.35q.15,3.51.12,7l2.31-.63-.17-.29a1.24,1.24,0,0,0-2.15,1.25l.18.3a1.25,1.25,0,0,0,2.31-.63q0-3.51-.12-7c-.07-1.59-2.55-1.6-2.48,0Z"/><path class="cls-1" d="M247.77,163a34.91,34.91,0,0,1-5.08,15.7c-1,1.67-2.4,3.11-3.46,4.77s-1.52,3.42-2.57,5c-.88,1.34,1.27,2.58,2.15,1.25,1.32-2,2-4.22,3.45-6.15a43.63,43.63,0,0,0,4.19-6.5,38.11,38.11,0,0,0,3.8-14.07c.14-1.59-2.35-1.58-2.48,0Z"/><path class="cls-1" d="M232.25,189l5-1.54a5.85,5.85,0,0,0,3-1.48c.5-.61-.37-1.5-.88-.88-.78.94-2.47,1.16-3.6,1.5l-3.9,1.2a.62.62,0,0,0,.33,1.2Z"/><path class="cls-1" d="M260.76,186.89c-.63,1.33-.52,3.1-1.48,4.25-.51.61.37,1.49.88.87,1.11-1.32,1-3,1.67-4.49.34-.72-.73-1.35-1.07-.63Z"/><path class="cls-1" d="M260,187.13a11.14,11.14,0,0,1-2.13,6.41c-.46.65.62,1.27,1.08.62a12.4,12.4,0,0,0,2.3-7,.63.63,0,0,0-1.25,0Z"/><path class="cls-2" d="M173.24,133.13c1.1,5.7,2.75,10.6,2.34,16.51,0,.32.47.32.49,0,.42-6-1.23-10.85-2.35-16.64-.07-.31-.54-.18-.48.13Z"/></svg>