<svg id="圖層_1" data-name="圖層 1" xmlns="http://www.w3.org/2000/svg" viewBox="0 0 300 300"><defs><style>.cls-1{fill:#695826;}.cls-2{fill:#d4c28d;}.cls-3{fill:#7a6838;}.cls-4{fill:#e9e4db;}</style></defs><title>seafood7</title><path class="cls-1" d="M235.15,156.36l0,4c0,2.66,4.35,3.45,4.8.65a7.59,7.59,0,0,1,.85-3.1l-4.72-1.3-1,5.87a2.45,2.45,0,0,0,4.72,1.3l1.42-3.86-4.72-1.3c-1.36,8.48-3.49,16-11.08,21-2.63,1.71-.18,5.94,2.47,4.22,8.73-5.65,11.74-14,13.33-23.88a2.45,2.45,0,0,0-4.72-1.3l-1.42,3.86,4.72,1.3,1-5.87a2.45,2.45,0,0,0-4.72-1.3,7.75,7.75,0,0,0-.85,3.1l4.81.65,0-4c0-3.15-4.9-3.16-4.89,0Z"/><path class="cls-1" d="M238.94,155.84a1.88,1.88,0,0,0,0-3.75,1.88,1.88,0,0,0,0,3.75Z"/><path class="cls-1" d="M211.87,192c2.26.2,4-1.39,5.71-2.67q2.88-2.19,5.66-4.55c2.4-2-1.07-5.48-3.46-3.45-1.34,1.13-2.7,2.25-4.09,3.33-.92.71-2.62,2.55-3.82,2.44-3.13-.27-3.12,4.62,0,4.9Z"/><path class="cls-1" d="M158.31,204.51c2.9.18,5.78-.58,8.66-.88a79.46,79.46,0,0,1,9.75-.37c3.15.06,3.15-4.83,0-4.89a79.46,79.46,0,0,0-9.75.37c-2.87.3-5.77,1.06-8.66.87-3.15-.2-3.13,4.69,0,4.9Z"/><path class="cls-1" d="M66.78,176.21c4.55,10.9,18.3,15.8,28.7,19.22,3,1,4.28-3.73,1.3-4.71-8.14-2.68-21.66-7.13-25.28-15.81-1.2-2.86-5.93-1.6-4.72,1.3Z"/><path class="cls-1" d="M56.94,158c.58,7,5,14.4,9.86,19.46,2.17,2.28,5.63-1.18,3.46-3.46-3.77-4-8-10.49-8.43-16-.25-3.11-5.15-3.14-4.89,0Z"/><path class="cls-1" d="M70.47,177.13c3.87,5.61,9.22,9.36,14.89,13s11,6.11,17.74,5.08c3.11-.48,1.79-5.19-1.3-4.72-9.11,1.39-22.2-8.72-27.1-15.83-1.78-2.58-6-.13-4.23,2.47Z"/><path class="cls-1" d="M89.18,189.48a17.68,17.68,0,0,1,3.66,2.12L97,194.2c2.69,1.66,5.15-2.57,2.47-4.23L94.75,187a18.64,18.64,0,0,0-4.27-2.27c-3-.9-4.31,3.82-1.3,4.72Z"/><path class="cls-1" d="M96,195.83c5.38,1.61,10.75,3.47,16.21,4.81s11.27,1.13,16.67,3.1c3,1.08,4.25-3.65,1.31-4.72-5.45-2-11.1-1.73-16.68-3.1s-10.83-3.19-16.21-4.81c-3-.9-4.31,3.82-1.3,4.72Z"/><path class="cls-1" d="M103.63,191.74c2,4.71,7.82,5.9,12.39,7.26,6.76,2,13.78,2.74,20.78,3.43,3.13.31,3.11-4.59,0-4.89a126.82,126.82,0,0,1-15-2.1c-2.62-.59-12.31-2.34-13.41-5-1.19-2.87-5.93-1.61-4.72,1.3Z"/><path class="cls-1" d="M130.94,203.3c8.61.4,17.26,2.34,25.88,1.93,3.14-.15,3.15-5,0-4.89-8.62.4-17.27-1.53-25.88-1.93-3.15-.15-3.14,4.74,0,4.89Z"/><path class="cls-1" d="M138.43,201.06c13.24,0,26.28-.05,39.38-2.15,3.1-.5,1.79-5.22-1.3-4.72-12.69,2-25.27,2-38.08,2-3.15,0-3.15,4.89,0,4.89Z"/><path class="cls-1" d="M160.53,205.88c12.7-.62,25.15-2.13,36.73-7.7,2.84-1.36.36-5.58-2.47-4.22-10.77,5.18-22.46,6.45-34.26,7-3.14.16-3.16,5,0,4.89Z"/><path class="cls-1" d="M174.6,200.82c11.53-2.37,22.42-3.22,33.57-7.58,2.9-1.13,1.63-5.87-1.3-4.72-11.14,4.36-22,5.21-33.57,7.58-3.08.63-1.78,5.35,1.3,4.72Z"/><path class="cls-1" d="M194,200.79c6.4-3,12.86-5.89,19.31-8.79,2.87-1.29.38-5.5-2.47-4.22-6.45,2.9-12.9,5.79-19.31,8.79-2.85,1.33-.37,5.55,2.47,4.22Z"/><path class="cls-1" d="M206.09,196.56a69.58,69.58,0,0,0,9.61-3.44c2.87-1.26.39-5.48-2.47-4.22a61.54,61.54,0,0,1-8.44,2.94c-3,.83-1.74,5.55,1.3,4.72Z"/><path class="cls-1" d="M203.65,196.49l1.42.15-.65-4.81a8.21,8.21,0,0,0-2.3.87,2.47,2.47,0,0,0-.88,3.34,2.5,2.5,0,0,0,3.35.88l.41-.21c-.2.08-.22.1-.06,0s.52-.15.78-.2a2.44,2.44,0,0,0,1.75-2.69,2.49,2.49,0,0,0-2.4-2.12l-1.42-.14a2.45,2.45,0,0,0-2.45,2.45,2.51,2.51,0,0,0,2.45,2.44Z"/><path class="cls-1" d="M217.12,191.38c4.27-3.9,9.48-6.53,13-11.23,1.88-2.52-2.36-5-4.23-2.47-3.16,4.25-8.34,6.7-12.22,10.24-2.33,2.12,1.14,5.58,3.46,3.46Z"/><path class="cls-1" d="M227,184.65c1.11-1.74,2.27-3.44,3.53-5.07s2.54-2.9,3.18-4.77c1-3-3.71-4.27-4.72-1.31-.51,1.49-2.16,2.91-3.1,4.16-1.1,1.46-2.13,3-3.12,4.52-1.7,2.66,2.53,5.11,4.23,2.47Z"/><path class="cls-1" d="M234.62,172.72a101.69,101.69,0,0,1,5.15-13c1.36-2.82-2.86-5.31-4.22-2.47a110.19,110.19,0,0,0-5.65,14.18c-1,3,3.77,4.3,4.72,1.3Z"/><path class="cls-1" d="M57.88,142.42a49.85,49.85,0,0,0-1.8,14.83c.09,3.14,5,3.16,4.89,0a45.46,45.46,0,0,1,1.63-13.53c.84-3-3.87-4.33-4.72-1.3Z"/><path class="cls-2" d="M85,119c22.46-18.53,51-30.46,80.4-30.17,25.72.25,52.07,10.69,64.16,34.65,6.81,13.47,15.87,34.05,7.9,48.55-5.92,10.75-17.88,17.57-28.72,22.45-27.64,12.45-59.12,11.42-88.36,6.2-15.18-2.71-30.9-6.06-43.85-14.89C62,175.89,47.2,152.6,63,137.09c.75-.73-.4-1.89-1.15-1.15-10.14,10-8,25.35-.89,36.42C68.83,184.68,82,192.2,95.68,196.6c15.72,5.07,32.75,7.64,49.2,8.84,17.3,1.26,35,.36,51.69-4.7,12.55-3.81,25.43-9.8,35.05-18.89,11.58-10.94,12.12-24,7.45-38.67-4.56-14.3-10.42-28.6-22-38.6-10.31-8.87-23.42-14-36.74-16.14-34.52-5.63-70,7.53-96.45,29.38-.81.66.35,1.81,1.15,1.15Z"/><path class="cls-2" d="M85.44,118.39a.63.63,0,0,0,0-1.25.63.63,0,0,0,0,1.25Z"/><path class="cls-2" d="M84.24,118.79a.63.63,0,0,0,0-1.25.63.63,0,0,0,0,1.25Z"/><path class="cls-2" d="M85.07,116.74a89.17,89.17,0,0,0-15,10.92c-3,2.76-8.31,6.91-9.77,10.82-1.77,4.7-.75,12.36-.15,17.17,2.24,17.77,21,28.67,36.33,34.55,21.45,8.25,46.12,9.47,68.93,9.15,11.6-.15,23.86-3,34.89-6.28,9.33-2.78,17.25-6.47,23.92-13.68,8-8.69,12.8-18,16.74-29.08.36-1-1.22-1.41-1.57-.43-6.41,18-16.53,33.8-35.3,40.27a142,142,0,0,1-36.62,7.55c-15.71,1-32.52-.61-48-3.08a103.79,103.79,0,0,1-35.34-12,55.21,55.21,0,0,1-11.84-8.8c-2.52-2.55-6.2-5.62-7.87-8.75-3.68-6.87-3.43-15.91-2.81-23.46.35-4.25,3.54-6.79,6.49-9.78A86.42,86.42,0,0,1,85.9,118.15a.82.82,0,0,0-.83-1.41Z"/><path class="cls-2" d="M78.56,148.67c2.91-2.76,5.73-6,9-8.37,2.88-2.08,5.91-2.71,8.54-5.35,5.49-5.52,1.86-17.65-6.92-16.7l-1.63.18L96,133.15c-1.14,2.18-4.31,3.24.44.69a34.44,34.44,0,0,0,4.24-2.93,28.29,28.29,0,0,1,7.57-4.45c6.48-2.33,8.45-8.3,5.84-14.38l-.56-1.31c-2.1-4.9-9.21-5.89-13.39-3.51-5.05,2.87-5.58,8.55-3.51,13.38l.57,1.32L103,107.59a55.17,55.17,0,0,0-14.09,7.81c-3.67,2.64-7.58,3.51-9.85,7.87-3.08,5.92.58,15.58,8.45,14.73l1.63-.18-6.92-16.7c-1.58,1.59-6.14,3.26-8.37,5.16-3.17,2.7-6.12,5.69-9.15,8.55-9.17,8.67,4.68,22.49,13.84,13.84Z"/><path class="cls-2" d="M82.35,138.43c9.65,0,9.67-15,0-15s-9.67,15,0,15Z"/><path class="cls-2" d="M101.94,124.82c9.65,0,9.67-15,0-15s-9.67,15,0,15Z"/><path class="cls-2" d="M112.41,122.77c6.74-3.86,13.69-7.52,21.34-9.12,6.7-1.4,8.31-9,5.85-14.37l-.23-.49-3.51,13.39c2.24-1.25,7.59-1.41,10.22-1.86,12.39-2.08,7.13-20.94-5.2-18.87-4.82.81-10.56,1.41-14.89,3.83-4.93,2.76-5.7,8.66-3.51,13.39l.22.48,5.85-14.37c-9.15,1.91-18,6.47-26,11.09-10.92,6.27-1.08,23.19,9.87,16.9Z"/><path class="cls-2" d="M144.13,110l6-.55c.92-.08,1.83-.18,2.75-.23.64,0,3.37.41,1.44,0,5,1.17,10.83-1.55,12-6.84,1.14-5-1.5-10.77-6.83-12-5.13-1.21-10.27-.34-15.43.12s-10,4.17-9.78,9.79c.21,4.9,4.32,10.28,9.78,9.78Z"/><path class="cls-2" d="M152.05,108.6a17,17,0,0,1,6.47.72c10.37,3.14,17.78-13.18,7.54-17.88l-.14.22L159,108.36a9,9,0,0,1,3.91.23c10.34,2.57,17.91-12.93,7.54-17.88l-.56-.27L173.4,94l-.26-.57-8.45,14.72a15,15,0,0,1,5.13,1c8.27,2.72,15.21-7.25,11.05-14.37l-.73-1.26-8.45,14.72q1.6-.93,1.8.09c11.23,5.62,21.15-11.26,9.87-16.9a23,23,0,0,0-11.67-2.76c-7.31.34-12.33,8.08-8.45,14.72l.74,1.26,11-14.37a35.8,35.8,0,0,0-10.33-1.69c-8-.19-11.41,8.32-8.45,14.73a9.1,9.1,0,0,0,4.34,4.34l7.53-17.88a29.47,29.47,0,0,0-9.11-.93c-7.53.51-14.09,10.93-6.92,16.7a19.81,19.81,0,0,0,4.1,2.85l7.54-17.89A33.39,33.39,0,0,0,152.05,89c-12.51.74-12.6,20.31,0,19.56Z"/><path class="cls-2" d="M179.42,109.3c.29,0,1.78.22,2,0-.13.15-3.4-1.46-.9-.19a44.46,44.46,0,0,0,5.76,2.17c1.56.54-.9-.55.49.24.48.33.56.37.24.13-.51-.41-.24-.21.8.61a19.55,19.55,0,0,0,5.95,3.11c5,1.65,10.69-1.92,12-6.84,1.46-5.31-1.8-10.37-6.84-12,.6.2,2,1.31-.09-.23-.74-.55-1.44-1.16-2.22-1.65a25.78,25.78,0,0,0-6.16-2.5c-1.66-.5,1.14.53-.61-.19a34.15,34.15,0,0,0-3.93-1.72c-2.12-.58-4.33-.39-6.49-.48-5.28-.23-9.78,4.66-9.78,9.78a9.94,9.94,0,0,0,9.78,9.79Z"/><path class="cls-2" d="M191.93,113.42l1,.29a10.12,10.12,0,0,0,7.54-1,11,11,0,0,0,4.49-5.85,9.9,9.9,0,0,0-1-7.53,10.25,10.25,0,0,0-5.85-4.5l-1.05-.29a10.12,10.12,0,0,0-7.54,1,7.47,7.47,0,0,0-2.74,2.52,7.34,7.34,0,0,0-1.75,3.33,9.92,9.92,0,0,0,1,7.54,10.3,10.3,0,0,0,5.85,4.5Z"/><path class="cls-2" d="M189.23,112c1.38.64,2.78,1.25,4.14,1.92.25.12,2.45,1.28,1.24.53,1.16.72,2.28,1.76,3.46,2.52.51.31,1,.63,1.51,1a3.16,3.16,0,0,1-1.15-1c3.46,5.72,13.79,7,16.89,0a16.51,16.51,0,0,0,1.61-6l-16.7,6.92c1.69,1.57,0-.61,1.21,1.35a10,10,0,0,0,13.38,3.51c4.48-2.62,6.31-8.88,3.51-13.39a25.4,25.4,0,0,0-4.27-5.31c-6.5-6-16-1.49-16.7,6.92l0,.56,1.33-4.94-.22.51h16.89c-2-3.31-4.91-5.43-8.13-7.44,1.57,1-1.43-1.07-1.52-1.13a16.19,16.19,0,0,0-1.6-1c-1.58-.88-3.32-1.55-5-2.31-4.63-2.15-10.76-1.46-13.39,3.51-2.28,4.32-1.44,11.08,3.51,13.38Z"/><path class="cls-2" d="M203.22,119.2q2.43,3.42,4.92,6.81c5.53,7.54,18,5.41,18.23-4.94l0-2.35-18.23,4.94c2.44,4.4,5.12,8.75,7.36,13.26,1.83,3.7,2.29,7.73,3.7,11.62,4.24,11.76,23.16,6.69,18.87-5.2-1.8-5-2.55-10.05-4.91-14.85-2.46-5-5.41-9.83-8.12-14.71-4.83-8.69-18-4.53-18.24,4.94l0,2.35L225,116.13q-2.49-3.37-4.92-6.81c-7.24-10.18-24.22-.41-16.9,9.88Z"/><path class="cls-2" d="M219.9,148.13l0,1.69,18.23-4.94-.42-.94a7.33,7.33,0,0,0-2.52-2.75,8.78,8.78,0,0,0-7.23-1.92,7.28,7.28,0,0,0-3.64,1.16,9.91,9.91,0,0,0-4.49,5.85l-.35,2.6a9.76,9.76,0,0,0,1.33,4.94l.43.93,1.53,2a7.27,7.27,0,0,0,3.15,2,4.83,4.83,0,0,0,2.46.66,7.33,7.33,0,0,0,3.91-.17,11.59,11.59,0,0,0,4.31-2.52,10,10,0,0,0,2.87-6.91l0-1.69a10,10,0,0,0-2.86-6.92,10.89,10.89,0,0,0-6.92-2.86,9.89,9.89,0,0,0-6.92,2.86,10.31,10.31,0,0,0-2.86,6.92Z"/><path class="cls-2" d="M219.18,149.61a32.14,32.14,0,0,1-10.88,15.75c-4.09,3.35-3.48,10.35,0,13.83,4,4,9.74,3.37,13.83,0a50.18,50.18,0,0,0,15.92-24.38c3.65-12.08-15.23-17.24-18.87-5.2Z"/><path class="cls-2" d="M212.56,162.88a11.15,11.15,0,0,0-5.1,3,10.78,10.78,0,0,0-2.88,5.13,9.42,9.42,0,0,0,3.5,10.28,7.34,7.34,0,0,0,3.33,1.75,9.92,9.92,0,0,0,7.54-1l2-1.53a9.85,9.85,0,0,0,2.52-4.32,1.05,1.05,0,0,1,.08-.35l-1,2.34a1.62,1.62,0,0,1,.17-.32l-1.53,2a1.6,1.6,0,0,1,.25-.27l-2,1.53a1.57,1.57,0,0,1,.3-.2l-2.34,1a1.42,1.42,0,0,1,.35-.11,10.93,10.93,0,0,0,5.84-4.5,7.22,7.22,0,0,0,1.17-3.63,7.4,7.4,0,0,0-.18-3.9,9.87,9.87,0,0,0-4.5-5.85,10.43,10.43,0,0,0-7.53-1Z"/><path class="cls-2" d="M206,167.84c-.37.33-.76.65-1.14,1-.89.79-.17.4.22-.13-.27.37-.87.59-1.22.89-1.71,1.45,4.45-.52,2.49-.56a15.37,15.37,0,0,0-9.17,2.79c-2.11,1.59-3.76,3.19-4.49,5.85a10,10,0,0,0,1,7.54c2.61,4,9,6.79,13.39,3.51.4-.3,1.93-.83.66-.53-.3.07-2.22.37-1.37.41a12.75,12.75,0,0,0,6.72-1.7,45.49,45.49,0,0,0,6.77-5.21c3.85-3.4,3.72-10.42,0-13.84a10,10,0,0,0-13.84,0Z"/><path class="cls-2" d="M204.4,170.64c-2,.17-4.52.44-6.25,1.69-.77.35-.3.25,1.41-.32q2.67-.48,1.38-.45a2.12,2.12,0,0,0-.56,0c-1,.08-1.93.21-2.88.37-.73.23-1.42.57-2.16.79-.32.1-2.32.52-.76.24s-.56,0-.79,0c-5.12-.06-10,4.53-9.79,9.78a10,10,0,0,0,9.79,9.78c2.4,0,5.88-.07,8.07-1.36,1-.59-.83.07-1.2,0a4.29,4.29,0,0,0,1.13,0,13.44,13.44,0,0,0,4.3-1c.49-.19,1-.39,1.43-.61q2-.9-3.12.74c5.09-.43,10-4.19,9.79-9.78-.23-4.94-4.33-10.25-9.79-9.79Z"/><path class="cls-2" d="M191.48,175c1.13-.44,1.17-.49.12-.13s-1,.26.26.06a7.52,7.52,0,0,1-2.37.05,48.77,48.77,0,0,0-8.17,1c-5,1-8.38,7.25-6.83,12,1.72,5.33,6.65,7.92,12,6.83,1.17-.2,1.23-.24.17-.11.62-.08,1.24-.13,1.86-.16,1.11-.06,2.21,0,3.31-.09a25.19,25.19,0,0,0,9.5-2.59c4.66-2.16,6.18-9.24,3.51-13.39-3.1-4.8-8.41-5.82-13.39-3.51Z"/><path class="cls-2" d="M186.6,193.92c9.65,0,9.66-15,0-15s-9.67,15,0,15Z"/><path class="cls-2" d="M186.6,193.92c9.65,0,9.66-15,0-15s-9.67,15,0,15Z"/><path class="cls-2" d="M182.18,176.75c-1.15.28-2.31.56-3.46.82-3.22.73,1.77.09,1.72.29a18.65,18.65,0,0,0-1.79-.61c-4.34-1.11-9.7.11-12.57,3.75-1.67,2.13-2.87,4.1-2.87,6.92a10,10,0,0,0,2.87,6.92c3.52,3.23,10.46,4.29,13.84,0q2.78-3.24-6.11,1.36l1.43.52a12.79,12.79,0,0,0,5.43.31,61.55,61.55,0,0,0,6.71-1.42c5-1.24,8.43-7.09,6.83-12a10,10,0,0,0-12-6.83Z"/><path class="cls-2" d="M172.69,178.65q-6.81-.24-13.61-.57c-5.12-.26-10,4.68-9.79,9.78a10,10,0,0,0,9.79,9.79q6.79.33,13.61.57c5.12.18,10-4.63,9.78-9.79a10,10,0,0,0-9.78-9.78Z"/><path class="cls-2" d="M168.72,180.64a15.38,15.38,0,0,0-8.74-2.2,13.1,13.1,0,0,0-3.26.47q-1.29.26,1.17.06c1.64.08,2,.06,1.21-.08a24.77,24.77,0,0,0-2.95-.57c-5-1-10.8,1.4-12,6.83-1.1,4.84,1.46,11,6.83,12a40.41,40.41,0,0,0,6.95,1.12,8.46,8.46,0,0,0,3-.34c1.15-.16,1-.16-.56,0q1.62,0-.78-.18c-1.35-.68-1.57-.77-.66-.26,4.45,2.55,10.91,1.19,13.39-3.51s1.23-10.66-3.51-13.38Z"/><path class="cls-2" d="M60.92,142.78c-1.25,9.89.23,24.67,10.67,29.34,7.6,3.39,14.25-7.84,6.59-11.27-5.79-2.59-4.85-13-4.21-18.07.45-3.53-3.32-6.49-6.52-6.53-3.89,0-6.09,3-6.53,6.53Z"/><path class="cls-2" d="M67.86,170.69c1.73,1.91,3.39,4,5.31,5.71,1.73,1.56,3.86,2.5,5.66,3.77,4.59,3.23,9.47,4.76,14.83,6.41,8,2.47,11.48-10.12,3.47-12.58-2.29-.71-4.59-1.42-6.85-2.21-1.88-.66-2.59-1.44-4.16-2.69-1.33-1.07-2.88-1.42-4.23-2.38-1.78-1.26-3.33-3.63-4.81-5.26-5.65-6.23-14.85,3-9.22,9.23Z"/><path class="cls-2" d="M90.11,186.63a218.66,218.66,0,0,0,28.2,7.85c8.19,1.69,11.7-10.88,3.47-12.58a217.06,217.06,0,0,1-28.2-7.85c-7.93-2.8-11.34,9.8-3.47,12.58Z"/><path class="cls-2" d="M157,186.05a74.69,74.69,0,0,1-8.85-.7c-2.29-.39-4.95-.2-6.92-1.52-7-4.68-13.54,6.62-6.59,11.26,3.14,2.1,6.45,2.28,10,2.84A115.38,115.38,0,0,0,157,199.1c8.39.4,8.37-12.65,0-13Z"/><path class="cls-2" d="M139.63,185.12l-.62.16,5,.66c3,1.55-1.6-1.76-2.32-2.12a9.66,9.66,0,0,0-4.4-1c-3.74.12-6.37,2.44-8.19,5.53l5.63-3.23q1.83,1-.73-.27a16.53,16.53,0,0,0-3.11-1.13c-2.12-.58-4.33-.73-6.45-1.35-4.88-1.43-8.47-2.33-13.6-1.44-8.26,1.42-4.76,14,3.46,12.58,3.23-.56,6.76,1.52,9.88,2.17s6.77,2.67,9.93,2.56a7.52,7.52,0,0,0,4.57-1.47c4.67-3.6-4.94-3.37-3.71-1.52,1.73,2.6,5.3,3.25,8.1,2.5,8.09-2.2,4.66-14.78-3.47-12.58Z"/><path class="cls-2" d="M103.25,191.52c3.71,1.5,7.5,1.59,11.26,2.74,4.1,1.25,8.51,2.85,12.46.36,7.1-4.45.56-15.74-6.58-11.26l-.68.43,3.29-.89c-2.22.2-5.47-1.52-8-2-3-.57-5.43-.8-8.29-2-3.26-1.33-7.17,1.44-8,4.55-1,3.73,1.28,6.7,4.55,8Z"/><path class="cls-2" d="M165.51,172.54c-9.38-.27-18.49-1.72-27,2.81l5-.65c-3.22-.48-6.13-1.95-9.33-2.58s-5.55.18-8.59.31c-1.13,0-1.2.48-2.26.23-1.31-.31-2.77-1.93-4-2.57a44.06,44.06,0,0,0-8.38-3c-13-3.86-22.09-14.81-31.39-24.08-4.14-4.13-10.89-.94-11.14,4.61-.32,7.17,2.76,13.47,7.67,18.57,4.18,4.35,10.56,10,17,7.75,13.54-4.72,2.42-27.41-2.11-34.8l-11.27,6.59a244.42,244.42,0,0,0,17.54,24.06c3.63,4.41,11.31.75,11.13-4.61-.39-11.83-4.43-24.07-7.71-35.37L88.1,133.27l7.8,26.21c2,6.59,3.32,14,8.66,18.78a6.6,6.6,0,0,0,10.9-2.88c3.27-10,1.39-20.14,1.6-30.39.15-7.5,1.3-19.32-5.08-24.84-2.14-1.84-5.36-2.65-7.91-1-8.73,5.61-10.16,21.37-5.67,29.8,6.31,11.84,16.95,20.9,23.45,32.72,3.09,5.61,12.36,3.16,12.16-3.29a319.08,319.08,0,0,0-2.93-32.52c-1.33-9.87-2.05-20.34-5.46-29.76-1.9-5.25-8.8-6.51-11.92-1.56A53.42,53.42,0,0,0,105.33,142c-.08,4.26.11,9.69,1.73,13.66a10.31,10.31,0,0,0,2.51,3.91c1.85,1.64,4.55,1.37,6.26,2.95,6.18,5.66,15.43-3.54,9.23-9.23-2.33-2.13-4.43-2.76-7.19-4.11l1.35,1.68a21,21,0,0,1-.57-3.34,37.8,37.8,0,0,1-.27-5.52A40.31,40.31,0,0,1,125,121.11L113,119.55c3.13,8.65,3.88,18.14,5.11,27.21a303.94,303.94,0,0,1,2.81,31.6l12.16-3.3c-4.53-8.22-10.56-15.33-16.37-22.66-2.52-3.19-6.59-7.23-7.66-11.2-.57-2.11-.07-3.93.41-6,.29-1.26,2.3-5.56,1.16-4.83l-7.91-1c3.52,3,1.17,15.85,1.25,20,.14,7.66,1.32,15.14-1.12,22.58L113.79,169c-4.24-3.81-5.15-12.5-6.73-17.8l-6.38-21.44c-2.39-8-14.93-4.63-12.58,3.47,2.92,10.07,6.9,21.37,7.25,31.9l11.13-4.61A215.55,215.55,0,0,1,91,139.13c-4.49-7-15.68-.61-11.27,6.59a47.91,47.91,0,0,1,4.45,8.92c.47,1.34,1.36,8.39,2.16,8.94L90,161l-1.77-1.38c-.76-1-2-1.72-2.89-2.63-2.61-2.77-4-5.55-3.84-9.35l-11.13,4.61c6.66,6.65,13.15,13.6,20.71,19.25a50.31,50.31,0,0,0,11.49,6.5c4.32,1.73,8.66,2.43,12.65,4.89,3.07,1.9,5.92,3.7,9.73,3.34,2-.19,3.66-1.24,5.65-1.32,2.64-.12,4.89,1.49,7.37,2.09,4.7,1.14,7.26-1.41,11.64-1.82,5.15-.48,10.77.29,15.93.44,8.39.25,8.39-12.8,0-13.05Z"/><path class="cls-2" d="M124.56,108a71.34,71.34,0,0,0-9,17c-2,5.19,5.06,10.54,9.58,7.37,4.92-3.47,9.79-7,14.78-10.39,4.73-3.18,10-4.88,15-7.66L147,104c-9.65,8.26-20.76,15.15-26,27.22-3,6.79,4.34,12.81,10.24,7.91a173,173,0,0,1,35.73-22.94c3.34-1.6,4.47-1.72,7.89-.37,3.64,1.43,7.26,2.9,10.89,4.35,7,2.8,13.86,5,19.43,10.3,3.27,3.1,11.87,9.45,11.9,14.27,0,5.86-7,12.69-11.43,15.77-5.55,3.83-11.63,3.63-17.87,5.36a39.23,39.23,0,0,0-7.12,3c-4.05,2-6.17,2.68-10.71,1.46A100.12,100.12,0,0,0,151,167c-3.59-.26-7.6-.13-11.12-.95-3.86-.9-4.57-3.48-5.36-7.31-1.09-5.27-.87-11.13-.3-16.45.39-3.57,1-4.67,4.79-5.67a80.09,80.09,0,0,0,9.84-2.95c5.6-2.24,10.2-5.68,15.35-8.7,6.86-4,12.3-2.16,19,1.12A101.7,101.7,0,0,0,199,132.38c6.36,1.88,11.31,6.76,9.95,13.93-1.4,7.46-9.16,10.25-15.65,11.69-7.89,1.75-15.69,2.91-23.51,5-7.13,1.92-11-.62-16.8-4.59a57.53,57.53,0,0,0-7.7-4.69c-1.31-.63-2.65-1.16-4-1.67-.85-.32-3.25-1.87-2.68-.38-2.52-6.64-12.66-6-12.81,1.74a21.17,21.17,0,0,0,6.86,16.36c4.34,4,10.69,1,11.14-4.62a66.48,66.48,0,0,0-.93-17.92c-.29-1.54-2.16-5.6-1.71-6.75.75-1.92,4.77-3.32,6.42-3.79,5-1.42,10.26-1.42,15.24-3s8.85-5.13,14.11-3.72,10.75,4.81,15.8,7.1c4.18,1.89,13.47,4.78,7.8,10.36-3.59,3.53-11.41,3.66-16.07,4.5-5.44,1-10.87,2-16.32,2.92-6.28,1-10.78,1.59-15.69-3.13-3.78-3.64-7.62-9.56-.23-10.59,5.15-.72,10.35-.06,15.55-1,4.64-.83,10.11-3.86,13.61-1.07,2,1.59,4,3.16,6,4.73s5.71,5.86,8,6.31q3.25,3.54.87-4.51-1.87-.15-3.75-.33c-2.92-.27-5.83-.59-8.77-.65a135.52,135.52,0,0,0-16.47,1.16c-3.13.32-6.26.64-9.41.69-1.57,0-3.14,0-4.71-.08A2.59,2.59,0,0,0,155.5,144l-3.9,3c2.17-.81,6.19.39,8.47.62l7.72.8C173.48,149,179.27,150,185,150a31.44,31.44,0,0,0,14-2.89c4-1.94,7.84-5.74,12.33-6.5,4.66-.79,8.78,1.2,13.24-1.41a10.19,10.19,0,0,0,5.36-9.64c-.34-4.27-3.09-6.47-6.14-9-3.62-3-6.21-6.9-9.76-10.09-6.24-5.59-15.49,3.61-9.23,9.23,3,2.7,5,6.19,7.89,8.94.36.35,3.34,3,3.87,2.76l.11-3.61c-1.48-.21-3-.34-4.44-.41-8.83.14-14.1,7.31-22.15,9.15-9.2,2.09-20.77-1-30-2s-16.18-1.33-18.48,9.39c-4.85,22.66,28.12,13.77,39.72,13.62,7.4-.1,18.32,3.83,24.47-1.86,7.23-6.68.26-13.72-5.24-18.07-5.75-4.54-13.11-13.25-21-13.18-4,0-8.12,1.51-12,2.35-5.19,1.11-10.09.83-15.32,1.18-7,.47-14.2,3.39-16.83,10.39-3.17,8.43,2.09,16.64,7.84,22.48,6.25,6.34,13.6,8.38,22.35,7.4,9.74-1.08,19.64-3.1,29.23-5.08,7.93-1.64,15.7-4.91,19.31-12.67,3.53-7.57.51-15.45-6-20.16-4-2.9-8.81-4.65-13.31-6.67-4.83-2.17-9.65-4.74-14.65-6.5-10-3.54-17.69,3.67-27.34,5.37-9,1.57-18.24,3.29-23.18,12-2.75,4.84-1,8.83.19,13.83a54.35,54.35,0,0,1,.93,16.73l11.14-4.61a8.35,8.35,0,0,1-3.05-7.13L126,155.14c3,7.85,10.24,8.05,16.61,12s12.4,9.26,20.33,9.86c4.8.35,9.13-1.14,13.65-2.51,5.43-1.65,11-2.29,16.58-3.25,8.25-1.43,16.81-4.18,22.57-10.58,11.61-12.88,6.38-33.39-9.57-39.61-4.19-1.63-8.56-2.48-12.66-4.38-4.29-2-8.41-4.38-12.94-5.82-9-2.84-17-1-24.79,4-3.73,2.39-7.28,5-11.4,6.64-4.28,1.74-9,2.16-13.19,4-8.09,3.51-9.69,10.76-10.17,18.82-.5,8.45-.33,17.27,3.35,25.07,4.41,9.35,12.51,9.63,21.91,10.34,4.86.37,9.75.53,14.54,1.56,5,1.07,9.73,3.37,15,3,3.82-.29,7.17-2,10.51-3.72,4.66-2.42,9.27-2.72,14.29-3.85,14.55-3.28,34.13-21.26,28.59-37.8-1.46-4.36-4.81-7.62-8-10.8-3.85-3.87-7.58-7.93-12-11.19-8.82-6.55-20.85-9.7-31-13.69-4.68-1.84-8.24-2.5-12.95-.6A131.08,131.08,0,0,0,150,110.3a191.68,191.68,0,0,0-28,19.58l10.24,7.91c4.79-11,15.23-17.08,24-24.58,5.75-4.92-1.62-13.8-7.91-10.25-4.93,2.79-10.21,4.48-14.95,7.66-5,3.36-9.86,6.93-14.79,10.39l9.59,7.37a59.15,59.15,0,0,1,7.69-13.84c5-6.79-6.36-13.31-11.26-6.59Z"/><path class="cls-3" d="M150.86,142.05a107.47,107.47,0,0,0,52.88-11.67c.93-.48.11-1.88-.83-1.41a105.71,105.71,0,0,1-52,11.45c-1.05,0-1.05,1.59,0,1.63Z"/><path class="cls-3" d="M160.54,141.73c14.61,2.78,37.43.58,47.31-12.13a.83.83,0,0,0-.57-1.4,11,11,0,0,0-3.38.22c-1,.16-.6,1.73.43,1.57l2.95-.15-.58-1.4c-9.44,12.15-31.76,14.37-45.72,11.72-1-.19-1.47,1.38-.44,1.57Z"/><path class="cls-3" d="M131.39,156a160.69,160.69,0,0,0,50,3.73c7.35-.64,14.8-1.56,21.65-4.45s13-7.38,19-11.78c.83-.62,0-2-.83-1.41-5.37,3.92-10.79,7.91-16.81,10.78-8,3.8-16.78,4.8-25.48,5.42a159.53,159.53,0,0,1-47.17-3.86c-1-.24-1.46,1.33-.43,1.57Z"/><path class="cls-3" d="M135.05,157.19c10,3.9,20.45,5.21,31.13,5.53,10.32.31,21.17.8,31.28-1.59,1-.24.59-1.81-.43-1.57-9.95,2.35-20.69,1.84-30.85,1.53-10.53-.32-20.84-1.64-30.7-5.48-1-.38-1.4,1.2-.43,1.58Z"/><path class="cls-3" d="M197.46,161.13a90.48,90.48,0,0,0,18.71-8,.82.82,0,0,0-.83-1.41A88.29,88.29,0,0,1,197,159.56a.81.81,0,0,0,.43,1.57Z"/><path class="cls-3" d="M216,153.24c4.54-1.86,6.28-6.32,7.69-10.69a.85.85,0,0,0-.57-1,1.23,1.23,0,0,0-1.22,0c-1,.38-.55,2,.43,1.58h.36l-.57-1c-1.2,3.72-2.63,7.95-6.55,9.56-1,.39-.54,2,.43,1.57Z"/><path class="cls-3" d="M114.68,169.77c8.81,4.44,18.24,6.73,28,8,11.88,1.59,24.5,3.14,36.44,1.66,10.95-1.36,21.79-4.83,32.1-8.66,9.88-3.68,16.22-9.68,22.63-17.9.64-.81-.5-2-1.15-1.15-7,9-14,14.8-24.93,18.54-10,3.46-20.4,6.82-31,7.8-9.78.89-19.87-.3-29.6-1.39-11-1.22-21.67-3.33-31.62-8.34-.94-.47-1.76.94-.82,1.41Z"/><path class="cls-3" d="M114.87,170.34c15.06,5.94,30.43,11,46.67,12.2s31.33-1.49,46.78-6.76c1-.34.57-1.92-.43-1.58-15.26,5.21-30.17,7.87-46.35,6.71s-31.32-6.26-46.23-12.14c-1-.38-1.41,1.19-.44,1.57Z"/><path class="cls-3" d="M208.32,175.78a46,46,0,0,0,25.65-23c.46-.94-.95-1.77-1.41-.82a44.3,44.3,0,0,1-24.67,22.28c-1,.36-.55,1.94.43,1.58Z"/><path class="cls-3" d="M142.47,178.42c7,2.45,15.1,2.69,22.44,3.65,1,.13,1-1.5,0-1.63-7.24-.95-15.08-1.18-22-3.6-1-.34-1.42,1.23-.43,1.58Z"/><path class="cls-3" d="M152.38,179c3.52,3.1,10.08,3.15,14.52,3.3a.82.82,0,0,0,0-1.63,52.22,52.22,0,0,1-7.27-.74c-2-.36-4.5-.68-6.1-2.08-.79-.69-1.94.46-1.15,1.15Z"/><path class="cls-3" d="M157.53,180.55l11.17.74c1.05.07,1-1.56,0-1.63l-11.17-.74c-1-.07-1,1.56,0,1.63Z"/><path class="cls-3" d="M168.6,181.71a.63.63,0,0,0,0-1.25.63.63,0,0,0,0,1.25Z"/><path class="cls-3" d="M168.57,181.86c2.61-.16,5.22-.31,7.83-.37a.82.82,0,0,0,0-1.63c-2.61.06-5.22.21-7.83.37-1,.07-1,1.7,0,1.63Z"/><path class="cls-3" d="M168.81,181.24A77.62,77.62,0,0,0,186,180.4c1-.17.59-1.74-.43-1.58a75.58,75.58,0,0,1-16.73.79c-1.05-.06-1.05,1.57,0,1.63Z"/><path class="cls-3" d="M177.17,180.11c5.13,1,11.45-.14,16.48-1.41a.82.82,0,0,0-.44-1.57c-4.62,1.16-10.83,2.38-15.6,1.41-1-.21-1.46,1.36-.44,1.57Z"/><path class="cls-3" d="M183.46,179.8c4.54-.87,9.2-.42,13.49-2.39,1-.43.13-1.84-.82-1.41-4.11,1.89-8.75,1.39-13.11,2.22-1,.2-.59,1.77.44,1.58Z"/><path class="cls-3" d="M190.41,178.57A40.49,40.49,0,0,0,201.62,176c1-.33.57-1.91-.43-1.57a39,39,0,0,1-10.78,2.51c-1,.05-1,1.68,0,1.63Z"/><path class="cls-3" d="M194.15,177.51l8.87-1.6c1-.18.59-1.76-.43-1.57l-8.88,1.6c-1,.18-.59,1.75.44,1.57Z"/><path class="cls-3" d="M194.77,178c1,.38,2.22-.17,3.21-.42l4.35-1.1a.81.81,0,0,0-.43-1.57l-3.33.84c-.81.21-2.56,1-3.37.68-1-.36-1.41,1.21-.43,1.57Z"/><path class="cls-3" d="M198.19,175.92c3.11-.19,6-1.3,9.11-1.64,1-.12,1-1.75,0-1.63-3.08.33-6,1.45-9.11,1.64-1,.07-1.05,1.7,0,1.63Z"/><path class="cls-3" d="M202.6,176.8a6.52,6.52,0,0,0,3.48-1.23l4-2.28a.82.82,0,0,0-.83-1.41l-3.05,1.74c-1.08.62-2.31,1.59-3.6,1.55a.82.82,0,0,0,0,1.63Z"/><path class="cls-3" d="M203.14,176.05a39.89,39.89,0,0,1,6.55-3.16c1-.37.56-1.94-.43-1.57a42.11,42.11,0,0,0-6.94,3.32.82.82,0,0,0,.82,1.41Z"/><path class="cls-3" d="M207.49,174.75c3.5-.18,6.2-2.77,8.81-4.88.81-.66-.35-1.81-1.15-1.15-2.2,1.76-4.71,4.25-7.66,4.4-1.05,0-1.06,1.68,0,1.63Z"/><path class="cls-3" d="M210.47,172.77a46.4,46.4,0,0,0,4.71-2.54c.89-.55.07-2-.82-1.41a43.68,43.68,0,0,1-4.72,2.54c-.95.44-.12,1.84.83,1.41Z"/><path class="cls-3" d="M215.46,171.46a9.44,9.44,0,0,0,2.76-1.9c.72-.79,1.13-1.82,1.91-2.56s-.39-1.88-1.16-1.15a17.62,17.62,0,0,0-1.7,2.31,7.41,7.41,0,0,1-2.63,1.89c-.93.49-.11,1.9.82,1.41Z"/><path class="cls-3" d="M216.69,170c3.5-3,8-4.76,10.62-8.72.59-.87-.82-1.69-1.4-.82-2.53,3.77-7,5.49-10.38,8.39-.79.68.37,1.83,1.16,1.15Z"/><path class="cls-3" d="M145.16,159.62c4.15.07,8.14,1.13,12.25,1.51a85,85,0,0,0,11.28-.12c1.05,0,1.05-1.67,0-1.63a80,80,0,0,1-12,0c-3.88-.44-7.62-1.35-11.54-1.41a.82.82,0,0,0,0,1.63Z"/><path class="cls-3" d="M167.1,161.62q7.89.24,15.75-.22c1.05-.06,1.05-1.69,0-1.63q-7.86.47-15.75.22c-1,0-1,1.59,0,1.63Z"/><path class="cls-3" d="M175,160.81a113.29,113.29,0,0,0,11.36.24.82.82,0,0,0,0-1.63c-3.79.11-7.58,0-11.36-.24-1-.07-1,1.56,0,1.63Z"/><path class="cls-3" d="M183.36,161.32a25.13,25.13,0,0,0,5-.16c2.07-.28,4.08-1.07,6.18-1,1,0,1-1.59,0-1.63a21.61,21.61,0,0,0-5,.79,24.15,24.15,0,0,1-6.12.36c-1.05-.06-1.05,1.57,0,1.63Z"/><path class="cls-3" d="M185.25,159.87c4.23.77,9.31.12,13.49-.91,1-.25.58-1.82-.44-1.57-3.79.93-8.75,1.61-12.62.91-1-.19-1.47,1.38-.43,1.57Z"/><path class="cls-3" d="M191.69,161c1.65-.58,3.33-.54,5-1s3.3-1.35,5.09-1.74c1-.23.59-1.8-.43-1.58a51.74,51.74,0,0,0-5.09,1.75c-1.61.52-3.32.46-5,1-1,.35-.56,1.92.43,1.57Z"/><path class="cls-3" d="M192.15,159.54c2.34-.38,4.84-.28,7.14-.82a48,48,0,0,0,7-2.62c1-.39.54-2-.44-1.57a38,38,0,0,1-7.4,2.66c-2.21.39-4.5.41-6.74.77-1,.17-.59,1.74.44,1.58Z"/><path class="cls-3" d="M197.05,158.29a30.75,30.75,0,0,0,6.17-1.2c1.95-.74,3.73-1.85,5.7-2.58,1-.36.55-1.94-.43-1.57-1.92.71-3.66,1.68-5.52,2.48a26.82,26.82,0,0,1-6.36,1.3c-1,.17-.59,1.74.44,1.57Z"/><path class="cls-3" d="M201.5,156.76a9.61,9.61,0,0,0,7.24-2.84.82.82,0,0,0-1.16-1.15,8,8,0,0,1-6.08,2.36c-1.05,0-1,1.59,0,1.63Z"/><path class="cls-3" d="M201.73,159.18c1.48-1,2.92-1.18,4.55-1.8a19,19,0,0,0,4-2.23c.86-.6,0-2-.82-1.41a15,15,0,0,1-4.71,2.42,10.79,10.79,0,0,0-3.83,1.61c-.85.6,0,2,.82,1.41Z"/><path class="cls-3" d="M204.06,155.84c1.31,0,2.27-.88,3.36-1.49a20.31,20.31,0,0,1,4.7-1.87.82.82,0,0,0-.44-1.57,23.93,23.93,0,0,0-3.67,1.31,20.81,20.81,0,0,0-1.87,1c-.62.37-1.31,1-2.08,1a.82.82,0,0,0,0,1.63Z"/><path class="cls-3" d="M210.06,154.74a7.27,7.27,0,0,1,2.23-1.39c1-.38.54-2-.44-1.57a9.61,9.61,0,0,0-2.94,1.81c-.78.7.37,1.85,1.15,1.15Z"/><path class="cls-3" d="M211.6,154.72a10.83,10.83,0,0,1,3.11-2.09,41.54,41.54,0,0,0,3.45-2.46c.82-.63,0-2-.83-1.41a35.46,35.46,0,0,1-3.85,2.7,10,10,0,0,0-3,2.1c-.66.81.49,2,1.15,1.16Z"/><path class="cls-3" d="M212,153.1a9.38,9.38,0,0,1,2.39-1.86,6.2,6.2,0,0,0,2.14-1.87c.62-.85-.79-1.66-1.41-.82a7.14,7.14,0,0,1-2.28,1.68,10.83,10.83,0,0,0-2,1.71c-.73.76.42,1.91,1.15,1.16Z"/><path class="cls-3" d="M212.16,152.06c1.49-1.5,3.49-2.22,5.25-3.35a25.63,25.63,0,0,0,4.16-3.4c.74-.74-.41-1.9-1.15-1.15a23.15,23.15,0,0,1-4.88,3.77,19.62,19.62,0,0,0-4.53,3,.81.81,0,0,0,1.15,1.15Z"/><path class="cls-3" d="M217.3,150.34a7.48,7.48,0,0,1,2.28-2,.82.82,0,0,0-.82-1.41,9.52,9.52,0,0,0-2.87,2.6c-.63.85.79,1.66,1.41.83Z"/><path class="cls-3" d="M219.05,149.6a9,9,0,0,1,1.77-3.14c.7-.78-.45-1.94-1.15-1.15a10.62,10.62,0,0,0-2.19,3.85c-.32,1,1.26,1.43,1.57.44Z"/><path class="cls-3" d="M169.89,141.9l10.87-.45c1.05,0,1.06-1.67,0-1.63l-10.87.45c-1,0-1,1.67,0,1.63Z"/><path class="cls-3" d="M176.81,141l9.05-1.69c1-.19.6-1.76-.43-1.57l-9.06,1.69c-1,.19-.59,1.76.44,1.57Z"/><path class="cls-3" d="M181.27,140.8c4.21.31,8.77-1.27,12.68-2.69,1-.36.56-1.93-.43-1.57-3.75,1.36-8.22,2.93-12.25,2.63-1.05-.08-1.05,1.55,0,1.63Z"/><path class="cls-3" d="M184,139.71a33.63,33.63,0,0,0,9.46-2.82c.95-.44.12-1.85-.83-1.41a31.56,31.56,0,0,1-9.06,2.65c-1,.15-.59,1.72.43,1.58Z"/><path class="cls-3" d="M185.7,138.66c1.89-1.24,4.5-.92,6.6-1.74a55.62,55.62,0,0,0,5.79-2.87c.93-.48.11-1.89-.82-1.41-2.27,1.19-4.6,2.7-7.12,3.25-1.85.4-3.63.28-5.27,1.36-.87.57-.06,2,.82,1.41Z"/><path class="cls-3" d="M193.54,137.28a7.67,7.67,0,0,0,2.63-1.16,16.66,16.66,0,0,0,2.42-1.12c.81-.67-.34-1.82-1.15-1.16a3.38,3.38,0,0,1-1,.34,7.31,7.31,0,0,0-1.09.53,6.25,6.25,0,0,1-2.24,1c-1,.15-.6,1.72.43,1.58Z"/><path class="cls-3" d="M194.16,137.65a20.59,20.59,0,0,0,5.7-2.56c.88-.57.07-2-.82-1.41a19.19,19.19,0,0,1-5.32,2.4.82.82,0,0,0,.44,1.57Z"/><path class="cls-3" d="M199.09,134.53c.2-.55,1.3-1,1.78-1.26a15.72,15.72,0,0,1,2.17-1c1-.36.56-1.93-.43-1.57a16.87,16.87,0,0,0-3.1,1.46,4.17,4.17,0,0,0-2,1.93c-.37,1,1.21,1.41,1.58.43Z"/><path class="cls-3" d="M200.45,135a16.73,16.73,0,0,1,3.29-2.17c.94-.47.11-1.88-.82-1.41a18.05,18.05,0,0,0-3.62,2.43c-.8.68.36,1.83,1.15,1.15Z"/><path class="cls-3" d="M203.18,132.2a5.25,5.25,0,0,1,1.83-1.29c1-.38.54-2-.44-1.57a7.08,7.08,0,0,0-2.55,1.71c-.71.77.44,1.92,1.16,1.15Z"/><path class="cls-4" d="M100.3,126.05A18.54,18.54,0,0,1,105,125c.31,0,2.64.08,2.07-.28-.33-.21,0,.73,0,1.3a22.57,22.57,0,0,1-.39,4.86c-.15.79-.59,3.75-1.53,4-1.86.59-1.71-6.61-1.74-7.7,0-1.41.08-.07.11.57a13.66,13.66,0,0,1-.14,2.48c-.07.56-.3,3.74-.72,4l1.89-.24-.45-.15L105.5,135c-.35-.54,0-2.13-.06-2.79a13.25,13.25,0,0,0-.46-2.65,8.65,8.65,0,0,0-3-4.56,2.48,2.48,0,0,0-4.17,1.73,16,16,0,0,0,1,7.38c1.1,2.91,5.83,1.65,4.71-1.3a12.87,12.87,0,0,1-.81-6.08l-4.18,1.73c3.35,2.61.26,7.73,3.62,9.89,4.32,2.78,5.59-4.52,5.95-7.1.5-3.59.26-8.33-4-9.35-4.46-1.06-5.75,3-5.52,6.49s-.26,9.11,3.4,11.12,7.22-.92,8.52-4.2,2.78-10,.71-13.26c-2.3-3.66-9-1.8-12.17-.68-3,1-1.68,5.77,1.3,4.72Z"/><path class="cls-4" d="M102.23,127.94a5.75,5.75,0,0,0,0-5.13c-.9-1.91-4-1.38-4.47.58a12.93,12.93,0,0,0,.48,7.73,2.53,2.53,0,0,0,3,1.71,2.47,2.47,0,0,0,1.7-3,8.44,8.44,0,0,1-.47-5.13l-4.47.59c.05.11,0,.37.05.19a2.52,2.52,0,0,0,.88,3.34,2.46,2.46,0,0,0,3.34-.87Z"/></svg>