<svg id="圖層_1" data-name="圖層 1" xmlns="http://www.w3.org/2000/svg" viewBox="0 0 300 300"><defs><style>.cls-1{fill:#8a5613;}.cls-2{fill:#ae6d21;}.cls-3{fill:#583900;}.cls-4{fill:#fff;}.cls-5{fill:#231815;}.cls-6{fill:#5d3c00;}.cls-7{fill:#553600;}.cls-8{fill:#513300;}.cls-9{fill:#563700;}</style></defs><title>seafood4</title><path class="cls-1" d="M174.86,214.11l3.39,1.37a2.9,2.9,0,0,0,3.55-2,3,3,0,0,0-2-3.56l-3.4-1.37a2.9,2.9,0,0,0-3.55,2,3,3,0,0,0,2,3.56Z"/><path class="cls-1" d="M216.49,159.19c14.29,1.93,26.19,16.62,36.3,25.76l2.82-4.83a5.32,5.32,0,0,1-3.36-2.25l-3.51,4.54c3,1.32,8.2,4.5,11.38,2.12,1.24-.92,1.22-1.86,1.64-3.22a85.64,85.64,0,0,1,2.93-8.37c2.22-5.17,4.79-10.13,4.69-15.85-.06-3.54-.56-7-.48-10.57.07-2.94.74-5.9.63-8.84-.24-6.22-6.73-23.18-15.39-19-2.22,1.06-3.76,3.33-5.42,5.08-2.4,2.52-4.95,4.9-7.53,7.23-5.91,5.35-11.82,11.56-20.5,9.71-3-.64-4.54,2.59-2.81,4.83,2.06,2.67,3.26,3.21,3.83,7.29.12.84-.27,1.68,0,2.54.71,2,3.12,3,4.81,3.93a2.93,2.93,0,0,0,4.24-3.27c-.24-1.29-2.37-7.65-1.87-8.69l-2.49,1.43c.64,0,2.18,7.26,2.25,8,.15,1.56-.22,3.3.48,4.78a4.09,4.09,0,0,0,4.8,2.53c2.66-.65,3.54-3.1,3.41-5.64C237.3,157,233,146.59,233,146.61l-2.82.74c4,1.37,4.41,12.9,5.41,16.25,1.22,4.09,4.47,6.83,7.52,9.68,2.57,2.39,7.06,7.13,10.86,7.2,3.15.05,5.81-3.23,7.54-5.5a26,26,0,0,0,4.93-11.33c.85-4.91-.56-9.1-.9-13.91-.38-5.4,1.56-10.68.18-16.06a20.63,20.63,0,0,0-7.22-11,3,3,0,0,0-3.5-.45c-2.52,1.63-4.16,3.78-6.26,5.88-2.74,2.76-6.11,4.68-9.29,6.87s-8.09,5.09-7.74,9.71c.19,2.48,1.91,4.41,3.07,6.48,1.79,3.18,2.45,6.72,3.54,10.16,1.59,5,4,9.39,8.23,12.63,2.83,2.18,7.14,4.83,10.64,2.59,3.7-2.36,6.27-9,6.89-13.14.45-3-.24-5.36-1.2-8.15-1.26-3.7-1.35-7.26-1.31-11.13.06-5.94-.48-11.12-4.25-15.89-1-1.26-3-.95-4.09,0l-13.29,12c-2.7,2.43-4.71,4.08-3.27,7.8,1.9,4.92,5.61,8.63,7.36,13.74A22.29,22.29,0,0,0,251.7,173c1.71,1.33,4.11,1,4.83-1.27,1.1-3.45,3.91-7.05,4.39-10.66.36-2.69-1.11-4.34-2.28-6.6-3.42-6.58-.1-14.3-1.7-21.39-.52-2.31-3.26-2.56-4.83-1.28-4,3.24-14.32,9.72-11.44,15.74.76,1.59,2.19,2.88,3,4.51,1.13,2.31,1.79,4.83,2.69,7.24,1.17,3.12,2.31,6.43,5.14,8.37a2.94,2.94,0,0,0,3.5-.45c4.35-3.75.53-11.16-1.26-15.2-.55-1.24-3.86-6.26-3.6-6.72s1.92-1,2.47-1.55a6.36,6.36,0,0,0,1.51-2.91h-5.57l-.86,2.86c-2.14,3.05,2.87,6,5,2.91a8.91,8.91,0,0,0,1.44-7.31c-.49-3-4.81-2.51-5.57,0-.2.64-3.46,1.8-4.09,2.9a5.58,5.58,0,0,0-.43,4.37c.67,2.29,2.64,4.16,3.73,6.25.69,1.32,4.69,9,3.15,10.31l3.51-.45c-2.14-1.47-2.77-5.78-3.61-8.14a36.65,36.65,0,0,0-3.37-7.57c-.25-.39-1.95-2.53-1.94-2.59-.08,1.56,2.72-1.21,3-1.52a97.81,97.81,0,0,1,7.71-7l-4.83-1.27c1.38,6.12-1.19,12.37.37,18.47.56,2.2,2.66,4.07,3.1,6.09.62,2.82-3,8.26-3.89,11l4.83-1.28c-6.07-4.71-7.06-12.79-11.22-19-1.27-1.92-2.25-2.49-1.29-4.85.59-1.45,3.59-3.24,4.69-4.24l9.39-8.47h-4.09c3.21,4.06,2.5,9.11,2.51,13.9a36,36,0,0,0,1.57,10.57c.77,2.62,1.46,4.65.69,7.37-.23.82-2,6-3.3,6.59-4,1.88-8.5-5.3-9.7-8-1.51-3.42-2.12-7.15-3.44-10.64s-4.73-6.71-1.94-10.11c2.19-2.67,6.58-4.45,9.34-6.53,3.24-2.45,5.6-6.09,9-8.27l-3.51-.46c3.47,2.82,5.83,6.46,6.12,11,.26,4.13-1.14,8.18-.84,12.32.28,3.74,1.63,7.28,1.27,11.08-.32,3.46-2.26,10.37-5.67,12.13s-7.86-3.89-10.21-6.21c-3.61-3.57-4.16-6.09-5.26-10.89-1.19-5.21-2.28-12.45-8.1-14.46a2.84,2.84,0,0,0-2.81.74c-1.55,1.72-1.56,3.07-1.05,5.31.18.83,3.68,10.81,4.05,10.74l2.82.74c-.83-.64-.42-4.09-.6-5.16a22.84,22.84,0,0,0-1.9-6c-1.25-2.6-2.67-5.28-5.83-5.24a2.86,2.86,0,0,0-2.5,1.43c-1.77,3.7.6,9.36,1.29,13.15l4.24-3.26c-2.75-1.58-.93-3.16-2.1-6s-3.63-4.59-5.4-6.88l-2.81,4.83c8.27,1.76,14.58-1.2,20.82-6.48,4.19-3.54,8.3-7.26,12.12-11.19,1-1.08,3.3-4.78,5.08-4.52,1.29.19,3.7,5.3,4.31,6.53,2.83,5.67,1.79,10,1.64,16s1.37,11.66-1,17.42c-1.6,3.95-3.61,7.74-5.21,11.67a13.14,13.14,0,0,0-1,4.9q2.93-1.23-.21-1.51c-1.38-.46-2.73-1-4.06-1.58-2.94-1.28-5.79,2-3.5,4.54a12.21,12.21,0,0,0,5.91,3.73c2.71.84,5-2.89,2.81-4.83-10.82-9.77-23.51-25.17-38.85-27.25-3.64-.49-5.21,5.08-1.54,5.58Z"/><path class="cls-2" d="M210.21,144.88c1.41.92,8.71,5.55,6.55,8.05-.57.66-3.37.49-4.27.77-1.89.6-3.29,1.92-5,2.89l2.22-.29-.45-.08,1.73,1.33-.26-.35v2.92c.63-1.34,2.61-2.09,3.69-3.08a8.34,8.34,0,0,0,2.44-3.55,6.49,6.49,0,0,0,.25-3.7c-.33-1.24-1.47-2-1.9-3.07l-2,3.56c1.93-.48,2-1.51,2.93-3l-1.73,1.33,1.29.12c2.93.76,4.62-2.69,2.81-4.83l-1.06-1.24-4.09,4.08a9.35,9.35,0,0,0,1.33,1.19c2.82,2.32,6.9-1.57,4.08-4.08l-.5-.72-3.95,4c1.06.59,4.47,3.22,3.23,4.85l1.72-1.33-.75.25c-3.52,1.15-2,6.73,1.54,5.57,7.48-2.44,1.56-11.9-2.82-14.34-2.7-1.49-5.11,1.42-4,4a4.75,4.75,0,0,0,1.41,1.88l4.08-4.08a10.67,10.67,0,0,1-1.32-1.19c-2.69-2.65-6.47,1.28-4.09,4.08l1.06,1.25,2.81-4.83c-3.54-.92-5.09-.19-6.8,2.73l1.73-1.32-.49.12a2.9,2.9,0,0,0-2,3.55,12.15,12.15,0,0,0,1.06,2.1c.85,1.38.82,1.45-.52,2.69-1.52,1.42-3.51,2.18-4.44,4.15a2.93,2.93,0,0,0,0,2.92c2.36,3.18,4.47,1.27,7.12-.23,3.12-1.77,7-.45,9-4.25,3.53-6.93-3.65-12.43-8.71-15.76-3.11-2-6,3-2.92,5Z"/><path class="cls-1" d="M189.19,106.64l.27.09-.26-.11a3.84,3.84,0,0,0,.49.27l.16.1c.25.18.2.14-.14-.11a3.55,3.55,0,0,1,.41.38,2.91,2.91,0,0,0,4.08,0,2.94,2.94,0,0,0,0-4.09,8.62,8.62,0,0,0-3.47-2.11,2.92,2.92,0,0,0-3.56,2,3,3,0,0,0,2,3.56Z"/><path class="cls-1" d="M148.32,92.15c1.45-1.21,7.46,1.93,8.94,2.3a44.84,44.84,0,0,0,9.08,1.27c6.57.27,13.27-.86,19.75.66,12.7,3,19.68,20.59,22.08,32.05l4.84-2.81c-4.86-4.23-8.31-9.35-13.68-13-6-4-12.63-7-18.55-11.09-.3-.21-4.88-4-5.21-1.81-.1.64,1.48,2.43,1.92,2.93,1.7,2,4,3.18,6.26,4.42,2.6,1.46,4.92,3.26,7.43,4.85,3.49,2.23,7.25,3.71,10.25,6.66a2.92,2.92,0,0,0,4.83-2.82A25.59,25.59,0,0,0,198,102.48c-4.77-4-11.77-4.19-16.15-8.32L179,99c4,.7,9.56,1.38,11.69,5.4s.58,5.34,4.15,8.49c6.46,5.71,10.82,13.13,15.58,20.24,2.06,3.08,7.07.18,5-2.92-3-4.54-6-9.2-9.25-13.57-2.63-3.52-7.63-6.79-9.11-10.82-1.26-3.44-1.85-5.93-5-8.32-3.35-2.54-7.46-3.36-11.52-4.07-2.64-.47-5.08,2.68-2.81,4.83,3.75,3.54,8.22,4,12.7,6.17a19.51,19.51,0,0,1,10.21,12.89l4.84-2.81c-6.31-6.2-15.36-9-22.24-14.39-2.3-1.81-3.13-5.48-6.1-6.46a4.64,4.64,0,0,0-5.79,2.85c-2.62,6.75,9.64,12,13.76,14.22a111.46,111.46,0,0,1,13,8c4.1,3.07,6.92,7.56,10.81,10.94a2.91,2.91,0,0,0,4.83-2.81c-2.73-13-10.54-31.28-24.37-35.61-7.84-2.46-16-.86-24.07-1.39-5.17-.35-9.23-2.43-14.11-3.52a7.12,7.12,0,0,0-7,1.69c-2.86,2.38,1.25,6.45,4.09,4.09Z"/><path class="cls-1" d="M138.48,92.17c6.65.45,13.72,3.77,19.72,6.45a174.5,174.5,0,0,1,18.08,9.21c11.63,6.92,20.65,16.33,28.46,27.26l4.53-3.5-17.66-16.9-3.5,4.54A83.41,83.41,0,0,1,204,131.11c3.73,3.43,5.65,8.16,9.93,11,2.74,1.82,5.9-2.3,3.51-4.53-3.34-3.11-4.21-9.08-5.35-13.5-1.21-4.67-1.61-9.54-2.79-14.23-1.93-7.65-5.26-15.06-11.66-20-5.87-4.55-12.4-4.75-19.55-4.93-9.54-.25-18.74-.21-28.1,2.11-3.41.85-2.25,5.31.77,5.68a53.1,53.1,0,0,1,23.1,8.72c3.11,2.07,6-2.94,2.92-5a59.25,59.25,0,0,0-26-9.51l.77,5.68c8.44-2.1,17.05-2.2,25.68-2,8.29.18,15.56.84,20.94,8,5.19,6.86,6.25,15.79,7.78,24,1.3,7,2,14.07,7.42,19.09l3.5-4.54c-2.52-1.67-3.75-4.4-5.57-6.7a42,42,0,0,0-5.89-5.73A88,88,0,0,0,191,114.24c-2.82-1.55-5.94,2.22-3.5,4.54l17.66,16.89c2.27,2.18,6.51-.73,4.54-3.5-8.38-11.73-18.07-21.89-30.54-29.33a175.53,175.53,0,0,0-20.94-10.47c-6.21-2.64-13-5.52-19.77-6-3.72-.25-3.7,5.53,0,5.78Z"/><path class="cls-1" d="M203.73,162.51a71.39,71.39,0,0,0-5.2,12.83l5.67.76a6.53,6.53,0,0,0-1-4.44c-1.31-2.47-5.58-1.41-5.39,1.46.11,1.56.68,3.78.36,5.35-.25,1.23-1.28,2.37-1.69,3.59-.66,1.94-.6,3.93-1.56,5.8a36.19,36.19,0,0,0-2,3.21c-1.27,3.21-1.19,5.81-3.31,8.8-2.58,3.62-5.15,8.31-8.43,11.29-3.94,3.59-7.71,1.24-12.32,1-4.39-.23-8.44-.26-12.72-1.49-7.69-2.21-14.64-1.56-22.59-1.12-3.82.21-3.61,5.3,0,5.78L145.89,217c2.81.38,4.91.9,7.4-.6,3.19-1.91.28-6.91-2.92-5-1.73,1-6-.38-7.85-.64l-9-1.19v5.78c5.37-.3,11.68-1.55,17-.36,3.83.87,7.38,2.27,11.35,2.69,4.56.49,9,.89,13.54,1.46a10.6,10.6,0,0,0,8.68-2.76c3.23-2.76,5.53-6.69,8-10.1,2.17-3,4.52-5.78,5.62-9.33,1.23-4,2.85-7.57,3.94-11.62.54-2.06,1.76-3.5,2.18-5.49s-.14-4.61-.28-6.7l-5.38,1.46.25,1.52c-.19,3.33,4.78,3.82,5.68.77a64.39,64.39,0,0,1,4.62-11.45c1.72-3.29-3.27-6.22-5-2.91Z"/><path class="cls-1" d="M146,212c3.69,1.21,7.6,2.91,11.5,3.29,3.62.36,6.38-.7,9.82-1.53,6.45-1.56,12.55.4,17.88-4.52,3.9-3.61,8.67-10,10.36-15,1.14-3.39.42-6.74,2.3-10,1.65-2.83,3.6-4.76,4.07-8.15.38-2.72-2.56-5-4.83-2.82l-12,11.4c-3.78,3.58-7.39,5.52-12,7.74-9.23,4.42-17,11.37-26,16.19-2.71,1.44-1.21,5.17,1.46,5.38,3.6.29,7.77,1.34,11.24-.09,2.91-1.2,5.31-3.88,7.67-5.86,3.62-3,7.17-6.19,10.88-9.1,4.33-3.38,8.72-4.05,13.63-6.08l-3.27-4.25c-2.59,5.92-11.13,19.38-18.91,16.43l1.28,4.83,15.87-12.59c2.91-2.31-1.2-6.37-4.09-4.08L167,205.83c-1.87,1.49-.51,4.15,1.28,4.83,11.08,4.21,21.64-10.42,25.44-19.08.86-2-.65-5.34-3.27-4.25-2.93,1.22-6.09,1.71-9,2.95-3.6,1.54-6.55,4.11-9.53,6.59l-10.22,8.56c-4.76,4-7.19,3.31-13.12,2.83l1.46,5.39c9.58-5.12,17.75-12.49,27.69-17,9.35-4.22,16.11-12.26,23.47-19.25l-4.83-2.81c-.64,4.55-4.9,7.46-5.7,12.06-.56,3.25-.48,6.11-2.42,9-1.56,2.31-3.13,4.71-4.83,6.91-4.55,5.89-9.58,3.83-15.94,5.19-3.73.8-6.74,2.37-10.68,1.59a79.27,79.27,0,0,1-9.25-2.9c-3.54-1.16-5.06,4.42-1.54,5.57Z"/><path class="cls-2" d="M111.94,210.41c17.95,3,37.44.7,52.73-9.85a33.16,33.16,0,0,0,8.16-7.51c2.61-3.58,2.63-5.88,2-10-.27-1.81,0-8.22,2-8.37.36,0,3.82,2.22,4.43,2.47a25,25,0,0,0,6.74,1.47V167.11c-4,0-9.79,3.42-11.57,7.08a6.83,6.83,0,0,0,6.59,9.87,6,6,0,0,0,5.58-4.24c1.42-4.7,7-6.74,10.57-9.63,3.13-2.54,5.1-6.81,8.6-8.75,6.51-3.6.68-13.59-5.84-10-5.14,2.85-7.82,8.32-12.65,11.67-5.33,3.69-9.87,7.17-11.83,13.62l5.57-4.25-1,.07,5,2.86-.63-.88L187,179c-.8,2.67,2-.33,1-.33,7.61,0,7.22-10.75,0-11.56-4.29-.48-6.81-4.82-11.3-4.65-2.95.11-5.76,2.09-7.78,4.1a20.77,20.77,0,0,0-5.24,9.05c-.94,3.4.21,6.57-.19,9.82,0,.87.16,1,.38.33a19.94,19.94,0,0,1-2.67,2.92,29.86,29.86,0,0,1-4.72,3.39,53.66,53.66,0,0,1-12.6,5.54A64.39,64.39,0,0,1,115,199.26c-7.28-1.2-10.41,9.94-3.08,11.15Z"/><path class="cls-2" d="M97.84,104.5a26.36,26.36,0,0,1,20-3.35c5.13,1.17,10.43-5.78,5.62-9.66l-2.52-2-7,9.07a31,31,0,0,0,10.42,2.6c3.46.23,6.94-3.94,5.58-7.32-.53-1.3-1.07-2.58-1.63-3.86l-5,8.69a81.42,81.42,0,0,1,18.15,4.74c5.75,2.16,9.23-5.76,5.63-9.67A23.44,23.44,0,0,0,142,89.58l-4.46,10.57a97.17,97.17,0,0,1,14.6,7c5.55,3.24,12-4.59,7-9.08L155.69,95l-7,9.08c2.92,2,5.72,4.13,8.43,6.41a5.78,5.78,0,0,0,8.18-8.17l-3.63-4.27-7,9.07a51.75,51.75,0,0,0,8.17,5.15c5.47,2.77,12.48-4.83,7-9.08l-4.38-3.4-7,9.07a130.6,130.6,0,0,1,23.39,20.07c4.43,4.78,12.62-1.45,9.08-7a21,21,0,0,0-6.53-6.57c-6.29-4.09-11.92,5.81-5.84,10,9,6.19,16,14.64,23,23,4.18,5,12.66-1.55,9.07-7l-2.61-4-9.08,7a14.42,14.42,0,0,1,4.05,4.57c3.65,6.49,13.64.67,10-5.83a22.37,22.37,0,0,0-5.85-6.91c-4.72-3.67-13,1-9.08,7l2.61,4,9.08-7c-7.63-9.18-15.4-18-25.3-24.79l-5.84,10a5.53,5.53,0,0,1,2.38,2.43l9.08-7a143.42,143.42,0,0,0-25.73-21.87c-5.37-3.59-12.22,5-7,9.08l4.38,3.4,7-9.07a51.75,51.75,0,0,1-8.17-5.15c-5.52-4.24-10.94,4.43-7,9.08l3.62,4.27,8.18-8.17c-3.47-2.92-7-5.66-10.78-8.22-5.39-3.71-11.87,4.69-7,9.07L151,106.3l7-9.08A117.19,117.19,0,0,0,140.64,89c-6.28-2.39-9.89,7.27-4.46,10.57a7.45,7.45,0,0,1,2.78,2.32l5.63-9.66a94.55,94.55,0,0,0-21.23-5.15c-4.87-.64-6.5,5.26-5,8.7l.46,1.1,5.57-7.32a11.87,11.87,0,0,1-4.58-1c-5.4-2.3-12.63,4.55-7,9.08l2.52,2L121,90A38.49,38.49,0,0,0,92,94.52c-6.37,3.84-.56,13.84,5.83,10Z"/><path class="cls-2" d="M70.5,149.24v-.19A5.93,5.93,0,0,0,68.8,145a5.76,5.76,0,0,0-8.17,0,6,6,0,0,0-1.69,4.08v.19a6,6,0,0,0,1.69,4.09,5.78,5.78,0,0,0,8.17,0,6,6,0,0,0,1.7-4.09Z"/><path class="cls-2" d="M46.88,135.1c6.43,0,6.45-10,0-10s-6.45,10,0,10Z"/><path class="cls-2" d="M118.23,175.4c12.86,0,12.89-20,0-20s-12.89,20,0,20Z"/><path class="cls-2" d="M53.07,181.94l1.64,2.21,5-2.92c-1.54-2-2.83-3.15-5.45-3.62a2.92,2.92,0,0,0-2.82,4.83c8.69,9.4,21.54,15.63,32.31,22.32,3.16,2,6.07-3,2.91-5-10.33-6.42-22.81-12.41-31.13-21.41l-2.81,4.83,2,1c2.2,2.93,7.21.08,5-2.92L58.07,179c-2.19-3-7.21-.07-5,2.92Z"/><path class="cls-2" d="M80.31,98.9c-6.69.42-10.67,6.84-16.23,10-2.78,1.56-.91,6.47,2.22,5.28A11.81,11.81,0,0,0,73,108.6c1.77-3-2.11-5.47-4.54-3.5q-5.4,4.37-10.91,8.56l4.25,3.27-.21.34-2.92-5a64.16,64.16,0,0,0-12.83,12.4l4.54.58-.61,1.49-4.25-3.26c-1.91,6-10.41,8.52-12.65,14.59-1,2.82.39,5.72-.38,8.5s-3.83,4.15-4.24,7.06c-.62,4.46,4.48,9.53,7.06,12.69a158,158,0,0,0,14.71,15c2.71,2.53,6.81-1.54,4.08-4.09-4.19-3.92-8.4-7.84-12.22-12.13-2.23-2.5-5.1-5.38-6.51-8.45-1.29-2.8.09-3.28,1.51-5.78,2.64-4.63.37-10.28,4.33-14.23,3.5-3.48,8.34-6.78,9.89-11.65.74-2.32-2.16-4.68-4.25-3.26-2.33,1.58-3.23,4-1.46,6.42,1,1.31,3.28,2.2,4.54.58a59,59,0,0,1,11.66-11.49c2.93-2.15.36-6.93-2.92-5a4.75,4.75,0,0,0-2.44,3.11c-.77,2.24,2.22,4.8,4.24,3.26q6.1-4.65,12.07-9.46l-4.53-3.5-3.28,2.89L67,113.86a40.93,40.93,0,0,0,5.28-3.45c2.22-1.74,5.07-5.54,8-5.73,3.7-.23,3.72-6,0-5.78Z"/><path class="cls-2" d="M80.4,126.42c6.51-4.43,13.11-9.17,20.93-10.87,8-1.75,16.68-.6,24.72.48,4.73.63,9.09,0,12.16-4.14,2.69-3.61,3.41-8.86.9-12.84-4.16-6.6-10-9.76-17.69-10.4-12.83-1.07-16,20.59-3.07,22.7,12.3,2,25.15,3.9,35.93,10.57,9.41,5.83,16.85,14.74,23.54,23.42,3.2,4.13,7.66,6.79,13.06,5.31,4.49-1.24,9.08-6.19,8.49-11.15-1.35-11.3-7.25-19.29-18.07-23.2-4.76-1.71-10.62,1.15-13.06,5.32-2.73,4.67-1.54,10.06,1.81,14a96.58,96.58,0,0,0,14,13.53c4.1,3.23,9.19,4.62,14,1.81,4.11-2.41,7.12-8.34,5.31-13.06a17.48,17.48,0,0,0-4.21-7l-16.35,16.34a22,22,0,0,1,1.84,1.62q2.51,2.76.22-4.6c-.94.2-1.9,2-2.58,2.73l-7.58,8.17c-6.42,6.91-2.3,20.33,8.17,19.73,18.48-1.05,31-21.24,19.6-37.44l-10,17.39-4.2-2.18-1.58-5.83,2.71-3.9c-8.24,4.84-7.15,18.92,2.76,21.13,8.56,1.9,17.63-2.27,20.16-11.12,2.72-9.52-5.28-21-15.94-18.1-6.77,1.86-13,8.41-17.68,13.4-2.58,2.78-5,5.71-7.33,8.68-1.39,1.77-2.76,3.55-4.13,5.34-.74,1-4.26,3.88-1.21,2l5.84-1.58-1.12,0,8.18,3.39c3,2.58.33,1.59,1.53-.11s1.58-4.84,2.33-6.75a46.23,46.23,0,0,0,3.44-12.15c1-8.87-1.92-17.75-6.48-25.31-3.85-6.4-9.2-12.41-15.93-15.86-9-4.61-16.62-2.35-26.1-1.55-8.46.72-16.78-2.47-25.24-2.25-8.73.23-16.58,3.19-24.42,6.78-6.9,3.15-13.41,6.67-16.86,13.8a23.46,23.46,0,0,0-2.35,11.74,22.56,22.56,0,0,0,1.73,7.35,27.79,27.79,0,0,0,1.23,2.73q1.56,2.85.45.33C71.3,152.59,80.5,157.55,87,156c10.51-2.6,18.8-10.57,29.93-10.22,6.27.19,12.54.82,18.8,1.25l10.05.7,5.58.38c1.4.1,5,1.24,1.77-.53l-4.15-4.15.47,1-1.58-5.83c.62,14.79-1.34,29.79,7.79,42.68,5,7.08,12.65,12.26,21.41,7.88,7.33-3.66,11.53-11,14.47-18.33,4.09-10.24-8.94-17-17-13.06,1.27-.62-1.14-1.46-1.92-2-2.1-1.4-4.16-2.88-6.29-4.24a93.64,93.64,0,0,0-15-7.64A59.34,59.34,0,0,0,120.19,140c-9.34,1.35-17.92,4.23-26.9-.14-8.2-4-12.42-11.68-13.79-20.39-.89-5.69-8.9-10.26-14.22-8.08s-10.18,4.78-14.39,8.92a42.46,42.46,0,0,0-5.09,6.26c-.41.59-1.59,1.9-1.68,2.6-.22,1.87-4.53-.07,3-.46-10.44.55-17,16.39-5.83,21.54q7.47-11.43,1.6-10.13a8,8,0,0,0-3.4,1.27A14.1,14.1,0,0,0,36,143.68a13.42,13.42,0,0,0-3.6,11.82c1.26,6.94,7.23,12.28,12.18,16.92A114.51,114.51,0,0,0,78,194.34c10.89,4.64,20.66-4.8,15.82-15.82A138.61,138.61,0,0,0,78.6,152.13c-8.7-11.85-26.79-1.85-20,11.67,8,15.92,31.42,19.26,47,22.7q13.78,3,27.73,5.32c9,1.45,17.93,2.31,26.1-2.72,8.64-5.32,6.73-18.11-2.76-21.13l-26.66-8.47c-5.43-1.72-11.58,1.58-13.64,6.69-2.26,5.63-.1,11,4.73,14.44a74.11,74.11,0,0,0,41.48,13.23l-10-17.4c-2.81,6.39-11.57,4.78-17.43,4.64-8.06-.2-16.21-.38-24.1-2.19a50,50,0,0,1-9.94-3.23c-4.48-2.1-8.52-4.76-13.68-4.76-10.72,0-17.19,9.57-15.22,19.52v-6.15l-.13.89,5.31-6.91-.51.22H88.64l-.51-.23,5.72,10,0-.41-17.4,10c25.93,19.13,61.85,15.74,85-6.08l-19.33-11.25c-.71,2.25-3.31,4.67-6,3.52l-2.76,21.13c6.05-2.15,11.36-5.25,16.87-8.48,2.89-1.69,8.58-5.54,12.18-3.89,5.66,2.62,12.45,1.61,15.81-4.14,2.92-5,1.55-13.2-4.14-15.82a32,32,0,0,0-26.07-.74c-7.31,2.86-13.46,8.17-20.8,10.78-4.37,1.56-7.71,4.82-8.28,9.61-.49,4.12,1.31,9.71,5.52,11.52,16.55,7.1,34.35.35,39.94-17.34,3.6-11.41-11.26-18.87-19.32-11.25-16.15,15.25-39.41,15.4-56.94,2.47-7.58-5.6-16.94,2.12-17.39,10l0,.41c-.21,3.69,2.28,8.42,5.73,10,4.75,2.15,9.51,2.51,13.86-.9a11.28,11.28,0,0,0,4.21-6.45c.17-1.17.33-2.34.47-3.51-.68-3.33-.71-4.06-.08-2.21L93.34,191l-2.74,2.63H84.45c3.07.42,5.76,2.35,8.6,3.58a68.71,68.71,0,0,0,12,4A133.87,133.87,0,0,0,129.37,204c15.49.62,35.86.94,43.27-15.91,3.46-7.87-.5-17.22-10-17.39a52.46,52.46,0,0,1-29.81-10.07l-8.91,21.13,26.66,8.47-2.76-21.13c-3.66,2.25-9.65.17-13.64-.52q-11.23-2-22.38-4.41c-6.74-1.49-13.53-3-20.14-5-4.28-1.29-10.89-2.78-13.07-7.09l-20,11.67a139.1,139.1,0,0,1,15.23,26.39l15.82-15.82a104.3,104.3,0,0,1-21-11.81c-4.82-3.56-12.35-8.89-14.87-14.43L55.36,154l-.11-1.15-1.58,5.84.52-1-4.14,4.14c-1.47.69,2.47-.67,2.41-.64A18.51,18.51,0,0,0,57.4,158a17.55,17.55,0,0,0,4.89-9A17.14,17.14,0,0,0,53,130.23l-5.83,21.55c7.23-.39,12.06-3.91,16.12-9.72,2.3-3.3,4.23-6.8,8.19-8.42l-14.22-8.08a47.9,47.9,0,0,0,19.52,31.16c11.46,8.29,25.26,9.81,38.86,7.46,5.9-1,11.57-2.48,17.61-1.61A48,48,0,0,1,148.64,168c12.51,6.67,22.58,17.07,37.54,9.72l-17-13.06a8.55,8.55,0,0,1-3.84,4.52l5.84-1.58-1.6,0,5.83,1.58c-2.07-1.07-3.42-6.77-3.94-9.18-1.17-5.51-.79-11.36-.6-17,.2-6.23-.7-12.33-6.6-15.74-5.23-3-12.69-2.35-18.55-2.75-11.5-.8-23.77-2.92-35.26-1.77-11.07,1.11-19.24,8.29-29.67,10.86l14.64,11.15a15.34,15.34,0,0,0-1.85-9c-.34-.69-1.73-2.58-1.7-3,0,.43,2.35-1.33,2.93-1.63,7-3.55,13.91-6.44,21.84-5.84,4.83.37,9.59,1.45,14.42,1.91,5.31.51,10.21-.16,15.45-1,3.49-.57,5.59-1,8.51,1.28a22.32,22.32,0,0,1,5.23,6.63c1.65,2.87,3.26,6.09,3.21,9.47-.07,4.18-2.67,8.42-4,12.29-3,8.62-4.08,21.38,4.37,27.41,10.56,7.55,18.05-2.45,24-10,4.67-6,10.43-14.2,17.57-17.3H193.69l1.24.57-4.14-4.14.66,1.32-1.58-5.83,2.23-4.84,5.84-1.58.44.29,2.76,21.13c14.83-8.73,9-31.66-8.6-31.17-8.13.23-15.25,9.89-10,17.4.66.94,1.92,2.56.37,2.65l8.18,19.74c5.12-5.52,12.43-11.4,15.17-18.56,3.23-8.47-.45-16.46-7.07-22.05-11.2-9.47-27.2,5.84-16.35,16.34l.83.8-3-5.1.41,1.07,19.32-11.25a97,97,0,0,1-14-13.53L175.15,138.6a3.88,3.88,0,0,1,1.1.9l21.54-5.83c-8.87-11.5-18-22.6-30.28-30.71-12.83-8.51-28.09-11.46-43-13.9l-3.08,22.71a3.14,3.14,0,0,1-2.27-1l13-17c-11.71-1.57-23.19-3-34.94-.9-10.59,1.93-19.77,7.66-28.53,13.63-12.23,8.32-.67,28.37,11.67,20Z"/><path class="cls-3" d="M148.7,209.41q5.38,4.07,10.34,8.65c1.13,1.05,2.84-.64,1.7-1.7q-5.19-4.79-10.82-9c-1.24-.93-2.44,1.16-1.22,2.08Z"/><path class="cls-3" d="M234.21,146.29c5.35-1,10.07-4.12,15.19-5.89a160.49,160.49,0,0,1,17-4.48c1.51-.34.87-2.66-.64-2.32a160.49,160.49,0,0,0-17,4.48c-5.1,1.76-9.89,4.87-15.19,5.89-1.52.3-.87,2.61.64,2.32Z"/><path class="cls-3" d="M234.87,161.24a122.88,122.88,0,0,0,29.63,10.61c1.51.33,2.16-2,.64-2.32a120.16,120.16,0,0,1-29-10.37c-1.38-.7-2.6,1.37-1.22,2.08Z"/><path class="cls-3" d="M237.39,152q15-4.22,30.21-7.09c1.52-.29.88-2.61-.64-2.32q-15.25,2.88-30.21,7.09a1.2,1.2,0,0,0,.64,2.32Z"/><path class="cls-3" d="M242.17,158.48a90,90,0,0,0,24.55,3.65,1.2,1.2,0,0,0,0-2.4,88,88,0,0,1-23.91-3.57,1.2,1.2,0,0,0-.64,2.32Z"/><path class="cls-3" d="M245.56,155.27a58.56,58.56,0,0,0,22.57-2.08,1.2,1.2,0,0,0-.64-2.31,57,57,0,0,1-21.93,2c-1.54-.16-1.52,2.25,0,2.4Z"/><path class="cls-3" d="M241.52,138.85a136.51,136.51,0,0,0,20.67-16.38c1.12-1.07-.58-2.77-1.7-1.7a133.67,133.67,0,0,1-20.18,16c-1.3.83-.1,2.92,1.21,2.07Z"/><path class="cls-3" d="M239.75,168.05a47.88,47.88,0,0,0,19.71,13.42c1.45.53,2.08-1.79.64-2.32a45.47,45.47,0,0,1-18.65-12.8c-1-1.16-2.72.54-1.7,1.7Z"/><path class="cls-3" d="M157.85,206.46a134.88,134.88,0,0,0,16.24,11.44,1.2,1.2,0,0,0,1.21-2.08,130.32,130.32,0,0,1-15.75-11.06c-1.18-1-2.89.72-1.7,1.7Z"/><path class="cls-3" d="M167.06,200.19l20.72,13.44c1.3.85,2.51-1.23,1.21-2.07l-20.72-13.44c-1.3-.85-2.5,1.23-1.21,2.07Z"/><path class="cls-3" d="M176.41,194.05c5,4.54,12.3,3.71,17.59,7.67,1.24.92,2.43-1.16,1.21-2.08-5.11-3.82-12.35-3-17.1-7.29-1.15-1-2.85.66-1.7,1.7Z"/><path class="cls-3" d="M184.74,186.23a28.89,28.89,0,0,0,15.14,5.13c1.55.09,1.54-2.32,0-2.4a26.55,26.55,0,0,1-13.93-4.8c-1.27-.89-2.47,1.2-1.21,2.07Z"/><path class="cls-3" d="M193.33,179.78a60.21,60.21,0,0,0,9,1.78c1.53.19,1.51-2.22,0-2.4a57.21,57.21,0,0,1-8.41-1.7,1.2,1.2,0,0,0-.63,2.32Z"/><path class="cls-3" d="M200.76,171.49l3.31.78c1.51.35,2.15-2,.64-2.32l-3.31-.78c-1.5-.35-2.14,2-.64,2.32Z"/><path class="cls-3" d="M152.41,92.77a91.34,91.34,0,0,0,7.13-6c1.13-1.06-.57-2.76-1.7-1.7-2.12,2-4.33,3.89-6.64,5.66-1.21.93,0,3,1.21,2.08Z"/><path class="cls-3" d="M163.74,98.13A134.79,134.79,0,0,1,180.53,86c1.32-.8.11-2.88-1.21-2.07A137.48,137.48,0,0,0,162,96.43c-1.18,1,.52,2.69,1.7,1.7Z"/><path class="cls-3" d="M175.3,105.15l23.19-14.66c1.31-.82.1-2.9-1.21-2.07l-23.19,14.65c-1.31.83-.1,2.91,1.21,2.08Z"/><path class="cls-3" d="M184,112.73c5.73-7.07,15.82-6.28,22.12-12.7,1.08-1.1-.62-2.81-1.7-1.7-6.28,6.41-16.29,5.51-22.12,12.7-1,1.19.72,2.9,1.7,1.7Z"/><path class="cls-3" d="M191.78,120.35c5.26-4.44,11.37-7.18,18.31-7.27a1.2,1.2,0,0,0,0-2.4c-7.59.09-14.27,3.12-20,8-1.19,1,.52,2.69,1.7,1.7Z"/><path class="cls-3" d="M200.33,127.53a85.86,85.86,0,0,1,12.25-1.66c1.54-.09,1.55-2.5,0-2.4a88.62,88.62,0,0,0-12.88,1.75c-1.52.31-.88,2.63.63,2.31Z"/><path class="cls-3" d="M206.9,134.39l8.54-.09a1.21,1.21,0,0,0,0-2.41l-8.54.09a1.21,1.21,0,0,0,0,2.41Z"/><path class="cls-3" d="M210.87,140.67c10.16,4.59,20.38-.38,28.3-7.07,4.92-4.16,9.2-10.19,14.66-13.59C263,114.28,267,132.45,268,138.15c.28,1.52,2.6.88,2.32-.64-1.27-6.72-3.61-14.47-8.1-19.83-3.18-3.8-6.1-2.7-9.5.1-10.91,9-24.22,28.25-40.68,20.81-1.4-.63-2.62,1.44-1.21,2.08Z"/><path class="cls-3" d="M209.67,162.54c16.74-6.57,29.09,12.68,39.52,22.33,4,3.72,7.17,4.81,10.85.1,4.13-5.29,6.6-12,8.07-18.43.35-1.51-2-2.15-2.32-.64a51.25,51.25,0,0,1-3.56,10.67c-2,4.22-4.57,11.07-10.73,7.16-2.68-1.69-4.93-4.82-7.1-7.12s-4.59-4.91-7-7.22c-7.53-7.15-17.8-13.3-28.33-9.17-1.43.56-.81,2.89.63,2.32Z"/><path class="cls-3" d="M268,138a89.5,89.5,0,0,1-2.7,29.69,1.2,1.2,0,0,0,2.32.64A91.47,91.47,0,0,0,270.41,138c-.12-1.53-2.52-1.54-2.4,0Z"/><path class="cls-3" d="M26.94,155.76C42.26,179.28,64.19,199,91,208.37a92.9,92.9,0,0,0,46.47,3.77c14.07-2.46,26.35-9,37.45-17.82,12.35-9.84,22.83-21.76,34.75-32.1,1.17-1-.54-2.71-1.7-1.7-19.36,16.79-36.2,39.44-61.73,47.12-29.62,8.92-61,.06-85.16-18.17a137.57,137.57,0,0,1-32-34.92c-.84-1.29-2.92-.09-2.07,1.21Z"/><ellipse class="cls-4" cx="49.91" cy="131.32" rx="4.71" ry="4.56"/><path class="cls-5" d="M49.91,136.38a5.06,5.06,0,1,1,5.22-5.06A5.15,5.15,0,0,1,49.91,136.38Zm0-9.59a4.53,4.53,0,1,0,4.68,4.53A4.61,4.61,0,0,0,49.91,126.79Z"/><ellipse class="cls-5" cx="49.91" cy="131.32" rx="3.31" ry="3.2"/><ellipse class="cls-4" cx="62.26" cy="139.51" rx="6.43" ry="6.23"/><path class="cls-5" d="M62.26,146.42a6.91,6.91,0,1,1,7.13-6.91A7,7,0,0,1,62.26,146.42Zm0-13.1a6.2,6.2,0,1,0,6.39,6.19A6.31,6.31,0,0,0,62.26,133.32Z"/><ellipse class="cls-5" cx="62.26" cy="139.51" rx="4.52" ry="4.38"/><path class="cls-3" d="M105.29,212.1l40.14,4.73,19.6,2.31c5.71.67,11.61,1.52,17.09-.76,8-3.35,13-11.76,16.27-19.37,5-11.51,6.85-24.07,12.06-35.49.63-1.4-1.44-2.62-2.08-1.22-4.51,9.9-6.68,20.54-10.25,30.76-3.28,9.37-8.89,21.34-19.49,23.94-5.83,1.43-12.43-.12-18.27-.81l-17.73-2.09-37.34-4.4c-1.54-.18-1.52,2.23,0,2.4Z"/><path class="cls-3" d="M83.48,145c5.53,6.16,15,6.83,22.8,6.81,10.68,0,21.17-2.49,31.48-5.08,20.48-5.14,43.81-11.13,62.72,1.89,1.27.88,2.48-1.2,1.21-2.08-15.49-10.67-34.82-9.11-52.28-5.14-10.29,2.33-20.42,5.43-30.87,7-10,1.51-25.85,3.25-33.36-5.1-1-1.16-2.73.55-1.7,1.7Z"/><path class="cls-3" d="M50.06,181l-1.36-1.36c5.89-5.92,7.79-6.34,10.2-6.85,2.24-.48,5-1.08,13.27-7.89,15.65-12.91,8.72-26.68,8.41-27.26l1.71-.9c.08.16,8,15.71-8.9,29.65-8.6,7.1-11.64,7.75-14.08,8.28C57.21,175.16,55.55,175.52,50.06,181Z"/><path class="cls-3" d="M47.88,172.07l-.21-1.92C65,168.25,69.07,154,69.1,153.88l1.86.51C70.92,154.54,66.45,170,47.88,172.07Z"/><path class="cls-3" d="M83.65,174.24a85.75,85.75,0,0,0,13.29,1.23c2.18,0,7.85-1.15,8.86,1.82.66,1.92-1.65,7.13-2.44,8.73-1.36,2.73-2.73,4.93-6,3.55-2.06-.86-4.48-3.51-6.19-5a106.23,106.23,0,0,1-9.35-9.39c-1-1.16-2.72.55-1.7,1.7,4.73,5.34,10,10.85,16,14.79,4.27,2.8,7.42-.48,9.33-4.41,1.56-3.23,4.84-10.38,1.39-13.37-2.06-1.77-5.66-.84-8-.81a82,82,0,0,1-14.51-1.13c-1.52-.25-2.17,2.06-.64,2.31Z"/><path class="cls-3" d="M85,165.59c-2.44,3.71-5.35,10.38-10.7,9.73-1.53-.19-1.52,2.21,0,2.4,6.44.79,9.84-6.45,12.78-10.92.85-1.3-1.23-2.5-2.08-1.21Z"/><path class="cls-3" d="M28.77,154.31c-.58-2.91,4.38-4.51,5.27-7.19.64-1.94-.18-3.72-.9-5.49-1.62-4,1-5.17,3.62-7.44,3.21-2.77,5.7-6.56,8.69-9.6,11.64-11.84,25.29-21.78,40.69-28.16,14.61-6.05,30.74-9.09,46.54-7.4s29.93,8.4,42.35,18.1c13,10.12,24,22.45,36.22,33.4,1.15,1,2.85-.67,1.7-1.7C189.55,117.89,169,91.8,136,87c-33.35-4.81-66.33,10.59-89.85,33.47-3.69,3.58-6.75,7.88-10.49,11.36-2,1.86-5.16,2.73-5.82,5.67-1.11,4.91,4.45,5.85-.44,11.3-1.9,2.12-3.57,3-2.95,6.11.3,1.51,2.62.87,2.32-.64Z"/><path class="cls-3" d="M120,88.22l33.7-1.13,16.85-.57c5.77-.19,11.83-.93,17.56-.07,22.08,3.29,22,37.32,28.35,53.38.56,1.43,2.88.81,2.32-.64-4.36-11.09-5.47-23.1-9.65-34.24-2.9-7.74-7.53-16.14-15.52-19.54-4.63-2-9.72-1.74-14.63-1.58l-19.66.67L120,85.82c-1.54.05-1.55,2.45,0,2.4Z"/><ellipse class="cls-3" cx="108.35" cy="119.29" rx="7.96" ry="10.79" transform="translate(-46.95 162.3) rotate(-63.23)"/><circle class="cls-6" cx="132.18" cy="175.18" r="6.38"/><ellipse class="cls-7" cx="141.7" cy="104.78" rx="4.82" ry="3.54" transform="translate(-15.67 184.1) rotate(-63.23)"/><ellipse class="cls-8" cx="159.86" cy="125.11" rx="8.24" ry="5.93" transform="translate(-23.85 211.48) rotate(-63.23)"/><ellipse class="cls-9" cx="156.47" cy="187.79" rx="9.42" ry="6.49" transform="translate(-81.67 242.91) rotate(-63.23)"/></svg>