<svg id="圖層_1" data-name="圖層 1" xmlns="http://www.w3.org/2000/svg" viewBox="0 0 300 300"><defs><style>.cls-1{fill:#e1822c;}.cls-2{fill:#ee9f29;}.cls-3{fill:#ed9b29;}.cls-4{fill:#e98028;}.cls-5{fill:#da6010;}.cls-6{fill:#7c3f48;}.cls-7{fill:#eb8e29;}.cls-8{fill:#ea8629;}.cls-9{fill:#231815;}.cls-10{fill:#de071e;}.cls-11{fill:#f6b767;}.cls-12{fill:#e2561b;}</style></defs><title>seafood2</title><path class="cls-1" d="M175.11,94.57a15.25,15.25,0,0,0,3.61,1.75c1.18.45,3,.74,3.83,1.73,1.49,1.78,4.57-.57,3.23-2.49a12.86,12.86,0,0,0-3.12-3.25c-.36-.26-1.29-.59-1.52-1a11.23,11.23,0,0,1,0-1.93c-.24-2.63-4.36-2.65-4.13,0,.17,1.86-.23,3.52,1.31,4.94,1.31,1.2,2.84,1.73,3.9,3.27l3.24-2.5c-2-2.36-5.81-2.37-8.27-4.12-2.16-1.55-4.22,2-2.08,3.55Z"/><path class="cls-2" d="M81.44,187.07a15.67,15.67,0,0,0,3.46-.73,2.06,2.06,0,0,0-1.09-4c-.44.15-.88.28-1.34.39l-.62.13-.32.05h-.09A2.11,2.11,0,0,0,79.38,185c.05,1,.91,2.19,2.06,2.06Z"/><path class="cls-2" d="M77.16,172.77h1.77a2.06,2.06,0,0,0,0-4.12H77.16a2.06,2.06,0,0,0,0,4.12Z"/><path class="cls-2" d="M71.7,153.59c.78.13,1.39.62.83,1.53-1.39,2.27,2.17,4.34,3.55,2.08a5,5,0,0,0-3.29-7.58,2.12,2.12,0,0,0-2.53,1.43,2.07,2.07,0,0,0,1.44,2.54Z"/><path class="cls-2" d="M70.49,144.35a5.66,5.66,0,0,1,1.4-.73c.58-.2.75-.34,1.22-.16a14.86,14.86,0,0,0,1.5.73,4,4,0,0,0,1.82,0c2.6-.52,1.5-4.5-1.1-4,.42-.09-.8-.66-1-.75a3.89,3.89,0,0,0-2.19-.16,9.81,9.81,0,0,0-3.69,1.51c-2.15,1.52-.1,5.09,2.08,3.56Z"/><path class="cls-2" d="M216.86,189.32a1.39,1.39,0,0,1-1-.92,2.11,2.11,0,0,0,2.54,1.44,2.09,2.09,0,0,0,1.44-2.54,3,3,0,0,0-1.93-2,2.05,2.05,0,0,0-1.59.2,2.08,2.08,0,0,0-1,1.24,2.12,2.12,0,0,0,1.44,2.53Z"/><path class="cls-2" d="M225.14,173.09c-.32,0-.36,0-.13,0s.19,0-.12,0a2.61,2.61,0,0,1,.27.06c-.27-.12-.3-.14-.1,0a2.06,2.06,0,1,0,2.08-3.56,4.75,4.75,0,0,0-3.1-.43,2,2,0,0,0-1.23.94,2.1,2.1,0,0,0-.21,1.59,2.13,2.13,0,0,0,2.54,1.44Z"/><path class="cls-2" d="M229.18,153.89a5.64,5.64,0,0,1,3-.38,2.06,2.06,0,1,0,0-4.12,9.64,9.64,0,0,0-5,.94,2.07,2.07,0,0,0-.74,2.82,2.11,2.11,0,0,0,2.82.74Z"/><path class="cls-2" d="M210.8,123c.37-.33,1.27-1.28,1.71-.7l1.7-2.22a3.81,3.81,0,0,0-2.29-.16c-1.68.31-1.27,3,.4,3,.17,0,2-.09,2,0-.46-.43-.56-.41-.3,0,.09.22.17.45.24.67a2.45,2.45,0,0,1,.18,1.43,7,7,0,0,0-.27,1.38,1.51,1.51,0,0,0,3,0c0-.83.48-1.39.34-2.29a9.84,9.84,0,0,0-.92-2.79c-.89-1.78-2.6-1.44-4.31-1.41l.4,3a1,1,0,0,1,.69.16,1.52,1.52,0,0,0,1.7-2.21,3.67,3.67,0,0,0-2.9-1.79,6.1,6.1,0,0,0-3.54,1.88c-1.45,1.3.68,3.42,2.13,2.13Z"/><path class="cls-2" d="M222.76,135.73,225,135l1-.34.41-.14c.59-.12.55-.2-.13-.24l-.69-.9a4.7,4.7,0,0,1-.35,1.28l1.06-.44c.33,0,.72.35.29,0a1.9,1.9,0,0,0-.45-.31,1.62,1.62,0,0,0-1.31-.09,2.37,2.37,0,0,0-1.44,2.38,3.81,3.81,0,0,0,1.25,2.59,1.86,1.86,0,0,0,1.22.48c.38,0,.84-.25,1.1-.25L226,136.39a7.29,7.29,0,0,0-1.2,1.56,1.51,1.51,0,0,0,2.6,1.52,4.53,4.53,0,0,1,.73-.95A1.52,1.52,0,0,0,227,136a1.75,1.75,0,0,0-1.08.22c-.51.16-.23.3.83.42-.16-.51-.47-.51-.93,0l-1.16-.15c1,.47,1.79,1.3,2.81.25a5.76,5.76,0,0,0,1.19-3.53c-.17-3.41-5.08-.89-6.72-.34-1.83.6-1,3.51.8,2.9Z"/><path class="cls-2" d="M228.86,152.78c1-.55,2.47-1,2.87-2.21a4.51,4.51,0,0,0,.15-1.79c0-.48-.13-.78.14-1,1.1-.9.1-2.48-1.07-2.57-1.45-.11-3.38-.15-4.15,1.33s-1.2,3.05.43,4a1.51,1.51,0,0,0,1.52-2.6l-.21-.12.54.54c.18.28,0,.52.21,0a4.14,4.14,0,0,1,.31-.59l-.54.54a5.38,5.38,0,0,1,1.89,0l-1.06-2.57a2.83,2.83,0,0,0-1,1.7,4.68,4.68,0,0,0-.09.91c0,.3.22,1,.1,1.25l.54-.54a21.24,21.24,0,0,1-2.13,1.21c-1.7.94-.19,3.54,1.52,2.6Z"/><path class="cls-2" d="M224.37,172.07c1.52,0,5.41.19,4.84-2.33a3.36,3.36,0,0,0-1.58-2.21,12.27,12.27,0,0,0-2.67-.8,1.5,1.5,0,0,0-.8,2.9l1.79.47.26.08c.15,0,.12,0-.08-.06.05.17.14.24.17.42l.15-1.16-.06.11.54-.54c.24-.13-.24,0-.27,0l-.76.07c-.51,0-1,.05-1.53.05a1.51,1.51,0,0,0,0,3Z"/><path class="cls-2" d="M217.71,188.3a2.19,2.19,0,0,1,.85.48,2.83,2.83,0,0,0,1.73.81,1.51,1.51,0,0,0,1.46-1.1c.3-1.56-.63-2.91-1.52-4.11a1.56,1.56,0,0,0-2.06-.54,1.52,1.52,0,0,0-.54,2.06c.28.38.54.76.78,1.16.1.17.21.34.3.52s0,.19.09.17c.06.26.07.24,0-.06l1.45-1.11-.17,0,.76.21c-.3-.14-.65-.54-1-.76a5.14,5.14,0,0,0-1.37-.62c-1.86-.55-2.65,2.35-.8,2.91Z"/><path class="cls-2" d="M81.83,185.15a3.92,3.92,0,0,0,1.58-1,1.14,1.14,0,0,1,.86-.38l-.76-.2.14.08-.54-.54a1.47,1.47,0,0,1,1.38-1c-1.69-.95-3.21,1.65-1.52,2.6a2.09,2.09,0,0,0,2.7-.51,2.26,2.26,0,0,0-.19-2.92,2.56,2.56,0,0,0-2.74-.24,4.07,4.07,0,0,0-1.27.78l-.38.38c-.08.08-.2.1-.06.06-1.84.58-1.06,3.49.8,2.9Z"/><path class="cls-2" d="M76.29,168.61c.69-.26,2-.8,2.7-.19l-.39-.67.08.18v-.8c0-.11-.38.19-.5.26l-1.09.52a1.51,1.51,0,0,0,1.52,2.6A6.91,6.91,0,0,0,81,169a2,2,0,0,0,0-2.79c-1.45-1.42-3.82-1.17-5.55-.51a1.54,1.54,0,0,0-1,1.85,1.51,1.51,0,0,0,1.85,1.05Z"/><path class="cls-2" d="M70.29,152.57a5.52,5.52,0,0,1,.86,3.87c-.15,1.2,1.37,1.79,2.27,1.3a10.81,10.81,0,0,1,1.63-.73,1.53,1.53,0,0,0,1.06-1.85,28.25,28.25,0,0,1-.75-3.4,1.5,1.5,0,0,0-2.9.8,30.28,30.28,0,0,0,.74,3.4l1-1.85a15.36,15.36,0,0,0-2.35,1l2.26,1.3a8.15,8.15,0,0,0-1.27-5.39c-1.06-1.61-3.67-.11-2.6,1.52Z"/><path class="cls-2" d="M86.07,117.75a9,9,0,0,0,1.5,7.53c1,1.29,3.21.61,2.76-1.16-.11-.43-.24-.87-.31-1.31s.17-1-.29-.76l-1.16.15.27.09c1.83.65,2.62-2.26.8-2.9a2,2,0,0,0-2.58,1.5,8.38,8.38,0,0,0,.36,4l2.75-1.16a6.08,6.08,0,0,1-1.2-5.21c.44-1.88-2.46-2.69-2.9-.8Z"/><path class="cls-2" d="M66.91,140c.82,1.28,1.48,3.08,3.27,2.81a16.22,16.22,0,0,0,2.7-.84c1.25-.4,1.47-.39,2.34.66a1.51,1.51,0,0,0,2.36-.31A20.48,20.48,0,0,1,79.36,139c.71-1.06-.27-2.13-1.3-2.26a21.7,21.7,0,0,0-9,.7c-1.86.54-1.07,3.45.8,2.9a19.57,19.57,0,0,1,8.23-.59l-1.3-2.27A20.48,20.48,0,0,0,75,140.81l2.37-.3c-.81-1-1.86-2.09-3.23-2-1.55.1-3,1.23-4.48,1.36l1.07.44a11.45,11.45,0,0,1-1.2-1.82c-1-1.63-3.65-.12-2.6,1.52Z"/><path class="cls-3" d="M112.81,169l2.49,6.29,2.52-1.47a3,3,0,0,1-1.3-1.69c-.65-1.79-3.45-1.09-2.91.8a23.54,23.54,0,0,0,8.91,12.73c5.21,3.71,11.56,4.46,17.76,5.05,1.55.15,2-2.09.76-2.8-3.23-1.92-7-2.73-10.17-4.68-2.74-1.66-4.9-3.89-7.92-5.11-1.19-.48-2.42,1.18-1.7,2.21a25.6,25.6,0,0,0,6.64,6.57c1.39,1,3.18-1.3,1.83-2.36-1-.79-11.08-8.35-11.08-8.35l-2.06.54c4.13,2.65,8.51,6.41,13.41,7.45l.4-3a8.17,8.17,0,0,1-3.27-1.09L126,182.85l10.53,3.9c1.61.59,2.65-2,1.16-2.75a15.21,15.21,0,0,0-6.66-1.84c-1.66-.08-2.08,2.65-.4,3,5.81,1.06,10.95,4.52,17,4.3a1.51,1.51,0,0,0,0-3c-4.61-.58-9.29-1.59-12.71-5L133.42,184c8.91,3.64,19.58,6.59,28.05.25l-1.82-2.37a16.15,16.15,0,0,1-10.86,4.37c-3.1,0-6,0-8.7,1.74a1.51,1.51,0,0,0,.76,2.8l7.83-.28-.4-3a19.5,19.5,0,0,1-12,.05l-.8,2.9a45,45,0,0,1,8.37,2.33l.8-2.9-4.18-1.07a1.52,1.52,0,0,0-1.16,2.76c2.3,1.57,5.07,1.44,7.75,1.53a85.74,85.74,0,0,0,10,.14c6.75-.54,13-3.72,19.17-6.29l-1.47-2.52a26.43,26.43,0,0,1-6.5,3.53c-2.79,1.13-4.83.83-7.66.24-4.22-.87-8.37-1.48-12.52,0a1.51,1.51,0,0,0,.4,2.95,92.9,92.9,0,0,0,9.29-.46l-.4-3-1.54.25,1.46,2.52c3-2.92,6.89-4.12,10.8-5.25l-1.46-2.52a12.6,12.6,0,0,1-7.06,3.37c-1.56.21-2.19,2.49-.4,3a30.72,30.72,0,0,0,11,.89c1.89-.19,2-3.07,0-3l-4.72.15.76,2.81,10.49-4.61-1.52-2.6a33.64,33.64,0,0,1-8.53,2.65l1.46,2.52a26.26,26.26,0,0,1,11-5.31l-.8-2.9q-5.55,1.58-11.17,2.76l1.16,2.76a51.57,51.57,0,0,1,11.76-5.53l-1.91-1.45c.38,2.89-1.32,5-3.11,7a1.52,1.52,0,0,0,1.06,2.57,2.94,2.94,0,0,0,2.87-1.66c.83-1.43-1.29-3.21-2.36-1.83l-1.44,1.06,1.16,2.75a24.45,24.45,0,0,0,8.73-8.91,1.51,1.51,0,0,0-.54-2.06,7.87,7.87,0,0,0-5.38-.84,1.51,1.51,0,0,0-.9,2.21,2.43,2.43,0,0,0,2.56,1.34,7.47,7.47,0,0,0,1.29-.42l.88-.7a1.71,1.71,0,0,1-1.27,1.83c-1.56,1.12-.06,3.74,1.52,2.6,2-1.42,4.17-3.66,2.57-6.22a2.89,2.89,0,0,0-2.32-1.46c-.43,0-3.13.59-2.63,1.51l-.9,2.21a3.91,3.91,0,0,1,3.06.54l-.54-2.06a21.36,21.36,0,0,1-7.65,7.83,1.52,1.52,0,0,0,1.16,2.76,5,5,0,0,0,2.77-1.84l-2.37-1.82-.27.17,1.07,2.57c2.28-2.62,4.47-5.49,4-9.15a1.52,1.52,0,0,0-1.9-1.45,54.8,54.8,0,0,0-12.48,5.83,1.51,1.51,0,0,0,1.16,2.75q5.63-1.2,11.17-2.77a1.51,1.51,0,0,0-.8-2.9,29.49,29.49,0,0,0-12.31,6.08c-1.28,1.05.15,2.75,1.47,2.52a37.25,37.25,0,0,0,9.25-3c1.77-.82.23-3.37-1.52-2.6l-10.49,4.61c-1.4.61-.66,2.85.76,2.8l4.72-.15v-3a28.55,28.55,0,0,1-10.25-.78l-.4,2.95a16.18,16.18,0,0,0,9.19-4.25,1.52,1.52,0,0,0-1.47-2.52c-4.43,1.29-8.76,2.74-12.13,6a1.52,1.52,0,0,0,1.47,2.52l1.54-.25c1.66-.27,1.3-3.13-.4-3-3.09.3-6.18.46-9.29.46l.4,3c3.27-1.15,6.47-.85,9.83-.2,2.12.42,4.39,1.27,6.58,1.14,3.87-.22,8.66-3.15,11.6-5.46,1.16-.9-.1-3.08-1.46-2.51-5.48,2.28-11.06,5.14-17,6a47.62,47.62,0,0,1-8.61.13c-2.81-.1-6.63.42-9-1.22l-1.16,2.75,4.18,1.06a1.51,1.51,0,0,0,.8-2.9,45,45,0,0,0-8.37-2.33,1.51,1.51,0,0,0-.8,2.9,22.37,22.37,0,0,0,13.57,0c1.57-.5,1.36-3-.4-3l-7.83.28.76,2.81c3.34-2.22,7.59-.89,11.32-1.69a20.37,20.37,0,0,0,8.85-4.89c1.27-1.1-.45-3.39-1.83-2.36-7.83,5.85-17.54,2.79-25.73-.55-1.45-.59-2.47,1.53-1.47,2.51,4,4,9.4,5.16,14.84,5.85v-3c-5.72.2-10.69-3.19-16.2-4.19l-.4,2.95a11.43,11.43,0,0,1,5.14,1.43l1.16-2.75L126.76,180c-1.62-.6-2.62,1.92-1.16,2.75a11.73,11.73,0,0,0,4.79,1.5c1.68.19,2.05-2.6.4-2.95-4.59-1-8.8-4.65-12.69-7.15a1.51,1.51,0,0,0-2.06.54c-1.08,2.37.82,3.6,2.58,5l9,7,1.82-2.37a21.34,21.34,0,0,1-5.56-5.49l-1.7,2.22c3,1.22,5.23,3.78,8.09,5.31s6.34,2.42,9.28,4.17l.76-2.81c-5.37-.51-10.92-1.1-15.53-4.15a20.38,20.38,0,0,1-8.23-11.42l-2.91.8a6.3,6.3,0,0,0,2.08,3c1,.82,3.13.1,2.51-1.46l-2.49-6.29c-.7-1.78-3.61-1-2.9.8Z"/><path class="cls-3" d="M183.81,179.1a5.76,5.76,0,0,0,4.91-4c.11-.47-.08-.94.06-1.39s.72-.89,1-1.3,1.45-3.57.34-3h-1.49l-.15-1.16c-.22.86-.88,1.58-1.12,2.45-.3,1,0,2.11-.32,3.1a11.72,11.72,0,0,1-1.47,2.36,11.58,11.58,0,0,0-1.15,2.77l2.21-.9c-.26-.14-.58-3.07-.62-3.38-.23-1.9-3.24-1.92-3,0s.3,5,2.11,6a1.52,1.52,0,0,0,2.21-.9,13.22,13.22,0,0,1,2.3-4c.81-1.17.47-1.88.5-3.23.05-1.81,2.69-4.25.19-5.63-2-1.11-2.75.91-2.76,2.45s-1.07,2-1.59,3.32-.26,3.27-2.16,3.45-1.93,3.2,0,3Z"/><path class="cls-4" d="M193.45,171.31l-.55-.37a1.52,1.52,0,0,0-2.27,1.3c0,1-.46,1.94-.06,3a9.05,9.05,0,0,0,2.55,2.85,27.06,27.06,0,0,0,7.11,4.54,59.89,59.89,0,0,0,8.87,2.85c2.35.62,5.05,1.8,7.43.68,1.34-.63,2.67-1.89,2.2-3.45-.59-2-3.7-2.9-5.39-3.59a38.09,38.09,0,0,0-4.59-1.29c-1.49-.39-2.84-1.15-4.3-1.65-3.2-1.09-6.76-1.2-9.23-3.78a1.51,1.51,0,0,0-2.36,1.82c1.77,2.89,4.58,5.89,7.86,7,4.43,1.49,9.64,1.92,13.62,4.5,1.63,1.06,3.14-1.54,1.52-2.6-3-2-6.9-2.8-10.33-3.75-1.77-.49-3.79-.73-5.38-1.72a16.17,16.17,0,0,1-4.69-5l-2.37,1.83c2.5,2.61,5.77,3.22,9.13,4.14,2.17.59,4.12,1.64,6.29,2.2a19.93,19.93,0,0,1,6.42,2.35c1.08.43,1.22.58.42.43l-2.23-.23c-1.07-.19-2.17-.57-3.22-.84-2-.54-4.08-1.06-6.07-1.76-3.67-1.28-10.37-4-10.18-8.54l-2.27,1.3.55.37c1.61,1.09,3.12-1.52,1.52-2.6Z"/><path class="cls-4" d="M191.58,168l.52,1.78,1.9-1.46-.52-.16,1.05,1.05-.17-.52-2.21,1.7c1.94,1.35,4.34,1.93,6.56,2.7,2.85,1,6.19,1,9.18,1.11a58.14,58.14,0,0,0,10.71-.54c2-.31,4-1,4.94-3a3.73,3.73,0,0,0-.8-4.46c-1.86-1.61-4.71-1.12-6.93-1-3.44.2-6.89.49-10.33.6a29.13,29.13,0,0,1-6.1-.79c-1.47-.26-3,0-4.43-.37a1.54,1.54,0,0,0-1.85,1.05c-1.82,4.63,7.79,3.86,9.35,5.36l1.47-2.52a36.08,36.08,0,0,0-5.65-1c-1.69-.13-2,2.57-.4,3,4.3,1,8.67,2.39,13.11,2.52a29.51,29.51,0,0,0,6.35-.59c1.35-.26,3.82-.39,4.84-1.56,1.86-2.15-1.25-3.55-3-3.59a27,27,0,0,0-5.44.76,26.09,26.09,0,0,1-8.77.19l-.41,3,10.5-.92c1.91-.17,1.93-3.18,0-3l-10.5.92c-1.54.13-2.2,2.69-.4,3a29.52,29.52,0,0,0,7.91.21c1-.13,7.48-.85,7.51-1.55l.74-1.3c-3,1.72-8,1.74-11.28,1.36a90.78,90.78,0,0,1-10.39-2.26l-.4,3a30.58,30.58,0,0,1,4.85.85,1.51,1.51,0,0,0,1.46-2.51,6.48,6.48,0,0,0-3.48-1.76c-.44-.08-5.14-.58-5.1-.67l-1.85,1.05c2,.52,4,.31,6,.74a22.06,22.06,0,0,0,5.85.5c2.49-.11,5-.29,7.48-.43.92-.06,5.92-1,6.6-.18,2.2,2.58-6.22,2.92-7,2.95-2.3.11-4.61.1-6.91,0a21.56,21.56,0,0,1-7.72-1.42c-1.61-.7-3.31-.89-4.77-1.91a1.52,1.52,0,0,0-2.21,1.7,2.17,2.17,0,0,0,1.74,1.74,1.52,1.52,0,0,0,1.91-1.45,8.41,8.41,0,0,0-.93-3.3c-.87-1.73-3.47-.21-2.6,1.52Z"/><path class="cls-4" d="M188.44,160.35a28.14,28.14,0,0,1-1.12,4.54l2.91.8a45,45,0,0,1,2.27-5.84l-2.81-.76a24.65,24.65,0,0,1,.05,4.21,1.51,1.51,0,0,0,1.11,1.45c2.21.55,4.27-.72,6.48-1.05,2-.3,3.85-.1,5.65-1.06l-1.52-2.6c-1.35,1-3.26,2.3-4.75,1.27-1.26-.88-2.33-2.58-3.51-3.61l-.67,2.52c4.71-1,9.52-.54,13.85-2.93l-1.83-2.37c-2.64,2.6-6.13,3.52-9.63,4.4a1.52,1.52,0,0,0,0,2.9,19.53,19.53,0,0,0,9.12.21l-1.7-2.21-1,.65c-1.49.58-1.42,3,.4,3,4.77-.09,9.37-2.23,13.82-3.77,2.16-.74,4.32-1.47,6.47-2.22,1.61-.57,3.48-1.06,4.62-2.44,1.84-2.2.71-5.31-1.47-6.81-3.43-2.36-7.36-.61-10.57,1.23-1.2.7-.78,3,.76,2.81s3.23.08,4.89,0c.83.51,1.41.29,1.73-.65a6.43,6.43,0,0,1-2.27,1.3,42.89,42.89,0,0,1-6.75,1.44c-2.62.48-5.24,1-7.85,1.46-2.06.39-4,.72-5.37,2.39-.74.88-.36,2.72,1.07,2.57l6.85-.74a14.33,14.33,0,0,0,4.33-.7c1.41-.64,2.57-1.89,3.88-2.7,1.73-1.07,3.54-2,5.31-3,1.23-.7.77-2.95-.76-2.81a57.11,57.11,0,0,0-16,3.82l1.16,2.75a31.89,31.89,0,0,1,9.21-4.16,1.51,1.51,0,0,0-.8-2.91,34.31,34.31,0,0,0-9.93,4.47c-1.34.88-.51,3.42,1.16,2.75a54.76,54.76,0,0,1,15.18-3.71l-.76-2.8c-2.61,1.49-5.24,2.93-7.7,4.66-2.89,2-7.67,1.72-11.15,2.1l1.06,2.57c1.3-1.55,3.85-1.58,5.72-1.93l6.17-1.15c3.13-.58,6.7-.86,9.39-2.73,1.33-.92,2.58-2.64,1.06-4-2-1.82-6.47-1.52-8.85-1.22l.76,2.81a12.59,12.59,0,0,1,4.25-1.9c1.75-.26,6.1,1.09,3.15,3.53-1.66,1.37-5.16,1.86-7.15,2.54-4.63,1.59-9.7,4.13-14.64,4.22l.4,3a5.5,5.5,0,0,0,2.81-2c.86-1.15-.55-2.45-1.7-2.21a16.07,16.07,0,0,1-7.52-.21v2.9c4-1,7.93-2.18,11-5.17a1.51,1.51,0,0,0-1.82-2.36c-4,2.21-8.77,1.72-13.13,2.62a1.52,1.52,0,0,0-.66,2.52c1.54,1.34,3.33,4.43,5.29,4.95,2.16.58,5-.94,6.62-2.14a1.51,1.51,0,0,0-1.52-2.6c-1.35.72-3.25.46-4.74.7s-3.67,1.46-5.07,1.11l1.1,1.45a24.66,24.66,0,0,0,0-4.21c-.13-1.33-2.11-2.25-2.81-.76a51.32,51.32,0,0,0-2.58,6.56c-.58,1.86,2.29,2.63,2.91.8a29.23,29.23,0,0,0,1.12-4.54c.31-1.89-2.59-2.71-2.91-.8Z"/><path class="cls-4" d="M110.75,176.92l.64.52a1.52,1.52,0,0,0,2.57-1.06,8.48,8.48,0,0,0-.17-1.74L111,175.8l1.36,2.16.54-2.06A47.2,47.2,0,0,1,101,181.39,39.78,39.78,0,0,1,94.82,183c-1.15.17-6.27.69-6.64-.94-.27-1.17,11.22-2.85,12.31-2.93a45,45,0,0,0,11.25-1.95l-1.85-1.85c-.34,1.08-5.11,2.31-6.21,2.57-2,.46-4-.17-6,.21s-3.89,1-6,1.2a15.3,15.3,0,0,0-5.1,1.31A1.52,1.52,0,0,0,87,183.4c4.88.92,9.67-.48,14.44-1.45,1.89-.38,1.09-3.29-.81-2.9-4.15.84-8.57,2.25-12.83,1.45l.36,2.75c2.39-1.14,5.09-.86,7.62-1.44a16,16,0,0,1,4.11-.78,23.52,23.52,0,0,0,2.91.12c2.89-.31,9-1.8,10-5a1.52,1.52,0,0,0-1.85-1.85c-5.87,1.89-12,1.8-18,3.09-3.22.69-9.75,1.28-7.55,6.43.69,1.63,2.82,1.82,4.37,2.09a18.48,18.48,0,0,0,7.76-.37,53.5,53.5,0,0,0,16.9-7.05,1.53,1.53,0,0,0,.54-2.06l-1.35-2.16a1.52,1.52,0,0,0-2.76,1.16l.07.94,2.57-1.07-.64-.52c-1.48-1.23-3.63.89-2.13,2.13Z"/><path class="cls-4" d="M81.58,172.12c4.06,1.93,8.72,2.27,13.15,2.76,4.23.47,8.45-1.42,12.59-.82,2.43.35,4.83-.61,5.56-3.16.61-2.12-.74-5.21-3.16-5.56-4.22-.61-7.93.53-12.1.66a31.58,31.58,0,0,1-5.31-.48c-2-.27-4.33-.32-6.17-1.2-5.23-2.49-9.82,5.3-4.56,7.8Z"/><path class="cls-4" d="M79.23,160.09l1.24.26c4.77,1,8.26-5.78,3.48-8.26l-.46-.34-3.19,7.71c5,.6,9.86,2.14,14.72,3.41s10.2,1.6,14.9,3.4L108.84,158l-.5.24,2.28-.62c-4.11.41-8.22-.91-12.22-1.66s-8.34-.39-12.1-1.82c-5.44-2.07-7.79,6.66-2.4,8.71,4.57,1.74,10,1.37,14.76,2.36,4.5.94,10.37,2.69,14.74.59,3.85-1.86,2.2-7-1.08-8.26-5-1.92-10.73-2.29-15.95-3.68a116.12,116.12,0,0,0-16.07-3.46c-4.18-.5-5.56,5.12-3.2,7.71a7.55,7.55,0,0,0,2.29,1.76l3.48-8.25-1.24-.26c-5.67-1.21-8.09,7.5-2.4,8.71Z"/><path class="cls-4" d="M78.9,145.91c8.3,8.54,21.73,9.41,32.77,11.67,5.66,1.16,8.1-7.46,2.4-8.71a76.91,76.91,0,0,1-7.8-1.86c-2.12-.71-4.13-1.68-6.26-2.33-4.67-1.44-9.53-2.12-13.45-5.29l-4.4,7.55c2.51,1,5.11,1.32,7.63,2.22s5,1.84,7.6,2.62c5.82,1.75,11.67,3.42,17.51,5.12,5.6,1.63,8-7.08,2.41-8.71-5.84-1.71-11.7-3.37-17.52-5.12-2.58-.78-5.07-1.72-7.6-2.63s-5.12-1.17-7.62-2.21c-4.12-1.7-7.81,4.79-4.4,7.55,4.69,3.79,9.73,5.49,15.47,7.05,2.53.69,4.9,1.68,7.35,2.58a64.79,64.79,0,0,0,8.68,2.17l2.4-8.71c-5.45-1.12-10.94-2.13-16.36-3.39-4.62-1.07-9-2.48-12.42-6-4.06-4.17-10.44,2.22-6.39,6.39Z"/><path class="cls-5" d="M112.58,168.11a4.84,4.84,0,0,0-1.68-.68c-.47-.09-.68.64-.2.73a4,4,0,0,1,1.5.6c.41.27.78-.38.38-.65Z"/><path class="cls-5" d="M91.64,166.56c6.61,1.84,13.55.95,20.22,2.45.47.1.68-.62.2-.73-6.67-1.5-13.61-.61-20.22-2.45a.38.38,0,0,0-.2.73Z"/><path class="cls-5" d="M112.92,158.88a1.74,1.74,0,0,1-1.23-.45c-.36-.33-.9.2-.54.53a2.57,2.57,0,0,0,1.77.67.38.38,0,0,0,0-.75Z"/><path class="cls-5" d="M87.16,152.66c1.21.47,2.45.55,3.68,1,.68.25,1.35.63,2,.91a53,53,0,0,0,6.53,2.14c4.46,1.2,9.09,1.89,13.42,3.51.46.16.65-.56.2-.73-4.33-1.62-9-2.31-13.42-3.5a50.55,50.55,0,0,1-7.41-2.53c-1.62-.72-3.19-.89-4.82-1.52-.46-.18-.65.55-.2.73Z"/><path class="cls-4" d="M113.15,157.68c-8.34-1.32-16.15-4.58-24.37-6.4-3.72-.83-14.19-3.78-14.07,3,.11,6.53,9.08,8.46,13.84,9.94A80.58,80.58,0,0,0,112,168a.76.76,0,0,0,0-1.51,75.21,75.21,0,0,1-18.41-2.38c-2.78-.71-5.53-1.55-8.24-2.5-3.1-1.07-7-2.09-8.59-5.32l-.56-2,2.18-2.7a5.63,5.63,0,0,1,2.65-.1,39.51,39.51,0,0,1,5.2.77c2.87.55,5.7,1.28,8.51,2.09,6,1.73,11.82,3.78,18,4.75,1,.15,1.36-1.3.4-1.45Z"/><path class="cls-4" d="M112.94,172.59c-6.6,3-13.84,3.42-20.89,4.71-3.58.65-9.13,1.33-7.13,6.52,1.78,4.63,8.92,2.62,12.45,1.85A63.6,63.6,0,0,0,116,178.3a.75.75,0,0,0-.76-1.3,62.62,62.62,0,0,1-14.2,6.18,58.36,58.36,0,0,1-7.13,1.63,18.48,18.48,0,0,1-4.06.36c-2.06-.13-5-2.1-3.43-4.55,1-1.57,5.44-1.77,7.07-2.05,2.39-.41,4.79-.72,7.19-1.09a49.05,49.05,0,0,0,13-3.59c.88-.4.12-1.7-.76-1.3Z"/><path class="cls-4" d="M111.53,165.71c-7.92,1.3-15.69-.79-23.53-1.63-2-.21-5.37-1.1-7.06.35-1.26,1.07-1.78,3.53-1.52,5.1.87,5.12,8.07,5.36,12.07,5.67A61.76,61.76,0,0,0,113,173a.75.75,0,0,0-.4-1.45,60.71,60.71,0,0,1-16.84,2.35c-4.1,0-15.73.31-14.81-6,.54-3.76,4.82-2.53,7.56-2.21,2.9.33,5.78.84,8.67,1.25a48.06,48.06,0,0,0,14.71.26c.95-.16.55-1.61-.4-1.45Z"/><path class="cls-5" d="M95.3,142.06a2.61,2.61,0,0,0,1.52.93c.89.25,1.8.44,2.7.66a.38.38,0,0,0,.2-.73l-1.93-.47c-.62-.15-1.43-.23-1.84-.77s-.94,0-.65.38Z"/><path class="cls-5" d="M99.42,143.7c2.61,1.41,5.46,2.07,8.21,3.14,1.39.55,2.67,1.37,4.06,1.92,1.62.64,3.26.55,4.67,1.81.35.33.89-.2.53-.53a6.1,6.1,0,0,0-2.41-1.4,34.27,34.27,0,0,1-4.85-1.75c-3.2-1.48-6.71-2.16-9.83-3.84-.43-.23-.81.42-.38.65Z"/><path class="cls-4" d="M190.18,156.72c6-.94,11.66-2.89,17.47-4.59,2.81-.82,5.64-1.57,8.5-2.14q2.58-.53,5.19-.82a7.63,7.63,0,0,1,2.43-.06,3.42,3.42,0,0,1,2.4,4.78c-1.51,3.07-5.12,4.1-8.08,5.15-2.72,1-5.46,1.81-8.24,2.54a75.61,75.61,0,0,1-18.92,2.51.76.76,0,0,0,0,1.51,80.18,80.18,0,0,0,23.45-3.75c4.76-1.47,13.74-3.41,13.84-9.94.12-6.82-10.35-3.86-14.07-3-8.22,1.82-16,5.08-24.37,6.4-1,.15-.55,1.6.4,1.45Z"/><path class="cls-5" d="M191.05,166.32a6.38,6.38,0,0,0,3.18-.66c.45-.15.26-.88-.2-.72a6.14,6.14,0,0,1-2.78.66c-.47-.1-.68.62-.2.72Z"/><path class="cls-5" d="M190.89,159.13c4.24-1.38,8.79-1.58,12.91-3.34,1.84-.79,3.74-1.37,5.58-2.12,2.19-.9,4.14-2.23,6.45-2.88a.37.37,0,0,0-.2-.72,39.46,39.46,0,0,0-5.88,2.59c-1.64.76-3.38,1.12-5,1.86-4.52,2-9.35,2.36-14,3.89-.46.15-.26.87.2.72Z"/><path class="cls-5" d="M190.94,158.42l-.26-.19c-.39-.29-.76.36-.38.65l.26.19c.39.29.76-.36.38-.65Z"/><path class="cls-4" d="M161.64,122.26c3.22,0,3.23-5,0-5s-3.22,5,0,5Z"/><path class="cls-4" d="M186.49,151.65a11.6,11.6,0,0,1,1.66,3.34,3,3,0,0,0,2.9,2.21c4.18-.46,8.21-2.25,12.18-3.6A64,64,0,0,0,214,149.39c3.18-1.76.85-6-2.32-5.5-3.78.6-7.57,1.05-11.38,1.3-3.14.21-6.25,0-9.13,1.38-3.55,1.72-.44,6.68,3,5.2,3.18-1.35,6.67-1.69,10-2.62a24.82,24.82,0,0,0,8.88-4.76,17.19,17.19,0,0,1,4.14-2.76c.22-.08,2-.42,1.76-.92.14.27-1.46,1.21-1.61,1.3-2.51,1.45-5.12,2.2-7.35,4.14s.15,5.82,2.93,5c5-1.41,9.82-6.15,5.32-11l.77,2.93.06-.29-2.1,2.11.24-.07c3.72-1.08,2.14-6.89-1.6-5.81l-.24.07a3,3,0,0,0-2.1,2.1,4.58,4.58,0,0,0-.17,1.09c0,.58.68,1.45.64,1.83-.08.8.46-.33-.38.39a5.67,5.67,0,0,1-2,.83l2.93,5c3.28-2.86,8.33-2.92,10.25-7.42,1.81-4.23-1.62-7.87-5.92-7.78-5.08.12-8.08,4.25-12.12,6.57-4.61,2.66-10.39,2.7-15.28,4.79l3,5.2c1.25-.61,3-.38,4.35-.45,1.75-.09,3.49-.22,5.24-.39,3.17-.3,6.34-.73,9.49-1.24l-2.32-5.5a56.64,56.64,0,0,1-9.35,3.61c-3.34,1.13-7.07,3-10.58,3.38l2.9,2.21a16.64,16.64,0,0,0-2.26-4.78c-2.2-3.16-7.42-.15-5.2,3Z"/><path class="cls-5" d="M186.74,149.32Q194,147.4,201,144.94c3.52-1.24,7.93-2.25,10.54-5.1.65-.71-.41-1.78-1.06-1.06-2.78,3-8.18,4.14-12,5.43-4,1.36-8.09,2.57-12.19,3.66a.75.75,0,0,0,.4,1.45Z"/><path class="cls-4" d="M92.52,121.1c-2.28.87-4.3,2.11-4.14,4.84.21,3.57,3.23,7.74,4.92,10.74l2.37-1.82a22.17,22.17,0,0,1-3.08-3L90.46,134c3.16,3.69,6.5,7.5,11,9.53,4,1.79,12.05,1.12,14.19,5.52a1.52,1.52,0,0,0,2.75-.36c.5-2.69,2.4-3.72,3.94-5.73a2.93,2.93,0,0,0,.25-3.76c-1.11-1.4-3.19-1.33-4.48-2.57-2-2-4.15-3.77-6.35-5.57s-4.08-3.5-6.27-5a37.27,37.27,0,0,0-7.2-3.53c-1.51-.62-3.36-1.85-5-1.23s-3,3-3.35,4.52c-.41,1.88.52,3.28,1.49,4.8,1.63,2.53,3.3,5,5.1,7.44a10.53,10.53,0,0,0,3.75,3.58,50.76,50.76,0,0,0,7.78,2.4c3.11.91,9.42,3.07,11.53-.63a3.81,3.81,0,0,0,.34-3.6c-.38-.64-1.19-1-1.76-1.39a21.93,21.93,0,0,1-3.43-3.38,35.24,35.24,0,0,0-13-9.67c-1.82-.8-4.62-2.59-6.64-2.22s-3.09,2.35-3.59,4a1.55,1.55,0,0,0,.69,1.7c4.16,3,4.52,9.08,8.83,12.12,5,3.49,11.29,2,16.91,1.69,1.34-.08,2.23-2.13.76-2.8-3.52-1.6-7.37-2-8.52-6.3l-2.75,1.16c1.19,1.74,3.67,6.47,6.24,3.7a1.52,1.52,0,0,0-.31-2.37c-3.35-1.74-5.38-5.07-8.46-7.21-2.74-1.91-6.72-4-10.11-4a1.52,1.52,0,0,0-1.06,2.57,12.49,12.49,0,0,1,1.77,2.07A10.54,10.54,0,0,0,97,131.61a8.46,8.46,0,0,1,2.14,3.27,12.24,12.24,0,0,0,1.53,3.07c3,4.18,7.72,4.58,12.51,4.07a1.51,1.51,0,0,0,0-3,21.21,21.21,0,0,1-4.45-.48c-1.34-.45-2.32-1.76-3.42-2.57-1.27-1-2.4-1.62-3.14-3.09a14.92,14.92,0,0,1-1.07-4.11l-2.52,1.46c1.77,1.63,2.93,3.78,4.57,5.52a25,25,0,0,0,5.37,4.24,1.52,1.52,0,0,0,1.83-2.37,73.78,73.78,0,0,1-6.57-8c-1.11-1.57-3.73-.07-2.6,1.52a78.33,78.33,0,0,0,7,8.6l1.82-2.36a21.75,21.75,0,0,1-5.42-4.51,54.3,54.3,0,0,0-3.91-4.78,1.52,1.52,0,0,0-2.51,1.47c.65,3.85,1.74,6.25,4.92,8.53,1.38,1,2.46,2.41,4,3.08,1.82.76,4.09.67,6,.85v-3c-2.76.29-5.77.63-8.21-1-2.16-1.45-2.52-3.5-3.57-5.69-.75-1.59-2-2.24-2.93-3.65-.41-.61-.55-1.36-1-2s-1.08-.88-1.56-1.4l-1.07,2.57c3.57,0,7.94,2.81,10.46,5.2,2.15,2,3.93,4.24,6.59,5.62l-.3-2.36c.69-.74-1.12-2.52-1.51-3.09a1.51,1.51,0,0,0-2.75,1.16c1.4,5.31,5.48,6.09,9.9,8.1l.76-2.81c-5.79.36-13.33,2.32-17.26-3.32-2.42-3.47-3.4-7.48-7-10.08l.7,1.7c.89-3.07,3.83-.89,5.8,0a42.89,42.89,0,0,1,5.63,2.92c3.56,2.25,5.72,5.51,8.69,8.38a13.69,13.69,0,0,1,1.73,1.47,2.23,2.23,0,0,1,.81.86,3.23,3.23,0,0,1-2.76.73c-2.37,0-4.89-1-7.14-1.68-2-.61-4.83-1-6.54-2.29s-3-3.77-4.13-5.49-4.2-4.92-3.39-7.07c1-2.74,3.55-.71,5.39,0,4.63,1.94,8.17,4.94,12,8.09a52.54,52.54,0,0,1,5,4.3,8.07,8.07,0,0,0,2.77,2.33c1.27.54,2.16,0,.89,1.32-.56.57-1.13,1.09-1.63,1.71a9.39,9.39,0,0,0-2,4.32l2.75-.36c-2.13-4.37-7.79-4.69-12-5.62-6-1.33-9.89-5.54-13.74-10-1.26-1.48-3.37.66-2.13,2.13a22.17,22.17,0,0,0,3.08,3c1.27,1,3.26-.23,2.36-1.83s-1.84-3.34-2.68-5c-1-2-2.88-5,.1-6.11,1.79-.68,1-3.6-.8-2.9Z"/><path class="cls-6" d="M185.11,137.45l-2.05,1c-.44.21-.06.86.38.65l2.05-1c.43-.21,0-.86-.38-.65Z"/><path class="cls-7" d="M187.51,103.18c-.28,1.16-2,7.89-.19,8.26s1.57,3-.19,3c-3.74,0-6.38-2-9.58-3.65s-6.74-2.12-9.6-4.4a1.52,1.52,0,0,1,1.27-2.62c3.21.82,6.12.91,9.09-.67a21.94,21.94,0,0,1,6.61-2.12c1.51-.27,2.13,2,.94,2.75-1.84,1.16-1.52,4.85-1.51,6.65,0,1.36-2,2.35-2.76.94a4.59,4.59,0,0,0-3.78-2.59,1.51,1.51,0,0,1-.55-2.72,10.52,10.52,0,0,1,3.5-1.61l-.77,2.27c-1.37-1.63-3.59-1.09-5.33-.69s-2.85-2.42-1-2.85c3.33-.77,6.43-.94,8.79,1.86a1.52,1.52,0,0,1-.77,2.27,8.12,8.12,0,0,0-2.78,1.25l-.55-2.73a7.26,7.26,0,0,1,5.7,3.86l-2.75.93c0-3.23-.23-7.4,2.84-9.34l.93,2.75a16.31,16.31,0,0,0-5.51,1.89,8.79,8.79,0,0,1-3,1.25,18.38,18.38,0,0,1-8-.39l1.27-2.62c2.35,1.86,5.32,2.28,8,3.49,3,1.36,5.58,3.84,9,3.83l-.19,3c-4.9-1-3-8.44-2.19-11.8.45-1.88,3.4-1.31,2.95.58Z"/><path class="cls-7" d="M110.24,95.84c.87.81,6,5.45,4.77,6.75s.36,3.35,1.82,2.36c3.1-2.08,4.18-5.21,5.91-8.38s4.4-5.52,5.51-9a1.51,1.51,0,0,0-2.51-1.47c-2.21,2.48-4.58,4.17-7.92,4.52a21.93,21.93,0,0,0-6.67,1.93c-1.4.62-.66,2.85.76,2.81,2.17-.07,4,3.17,5,4.67.76,1.13,2.95.84,2.81-.76a4.6,4.6,0,0,1,1.7-4.26,1.52,1.52,0,0,0-1.07-2.57,10.46,10.46,0,0,0-3.8.63l1.91,1.45c.23-2.12,2.36-2.91,4-3.55s1-3.6-.8-2.9c-3.19,1.22-5.85,2.81-6.24,6.45a1.51,1.51,0,0,0,1.9,1.45,8.13,8.13,0,0,1,3-.51l-1.06-2.58a7.3,7.3,0,0,0-2.58,6.39l2.8-.76c-1.79-2.69-3.93-6.27-7.56-6.16l.76,2.8a16.42,16.42,0,0,1,5.62-1.52,8.91,8.91,0,0,0,3.18-.62,18.46,18.46,0,0,0,6.4-4.78l-2.52-1.46c-.91,2.85-3.14,4.86-4.68,7.35-1.73,2.8-2.49,6.3-5.36,8.23l1.83,2.37c3.49-3.59-2.23-8.67-4.77-11-1.43-1.31-3.56.82-2.13,2.13Z"/><path class="cls-8" d="M99.6,87.89l8.09,5.18a1.52,1.52,0,0,0,2.27-1.3,8.49,8.49,0,0,1,2.46-5.29L109.9,85a2.39,2.39,0,0,1-.75,1.76l2.8.76c.17-1.65,3.1-3.27,4.12-4.7,1.45-2,2.81-4.1,4.31-6.09a130.78,130.78,0,0,1,11.23-13,1.51,1.51,0,0,0-1.82-2.36,64.33,64.33,0,0,0-23.65,25.67,1.52,1.52,0,0,0,2.06,2.06,13.9,13.9,0,0,0,7.26-8.28,1.52,1.52,0,0,0-2.21-1.7l-1.55,1,2.06,2.06a82.56,82.56,0,0,0,6.74-11c.61-1.22-.75-3-2.06-2.06a40.51,40.51,0,0,0-8.29,8.3c-2.33,3-5.53,6.58-6.25,10.44l2.52-.66a10.34,10.34,0,0,0-3.8-2.44l.9,2.21A36.36,36.36,0,0,1,115,75.57c1.64-1,.13-3.63-1.52-2.6a39.83,39.83,0,0,0-12.57,12.48,1.53,1.53,0,0,0,.9,2.21,5.37,5.37,0,0,1,2.47,1.67,1.52,1.52,0,0,0,2.52-.67c.61-3.26,3.38-6.31,5.33-8.92a38.37,38.37,0,0,1,7.82-8l-2.06-2.06a82.56,82.56,0,0,1-6.74,11c-.88,1.23.85,2.86,2.06,2.06l1.55-1-2.22-1.7a11,11,0,0,1-5.87,6.48l2.06,2.06A61.4,61.4,0,0,1,131.31,64l-1.83-2.36a135,135,0,0,0-12,14c-1.79,2.41-3.38,5.83-5.86,7.55a5,5,0,0,0-2.65,4.32c-.17,1.67,2,1.79,2.81.76a5.09,5.09,0,0,0,1.06-2.48c.21-1.38-1.38-2.65-2.52-1.47a11.84,11.84,0,0,0-3.35,7.42l2.27-1.3-8.09-5.19c-1.63-1-3.15,1.56-1.52,2.61Z"/><path class="cls-8" d="M121.25,67.62a7.11,7.11,0,0,1-2.62,1.45l1.47,2.52,2.24-2.1c1.42-1.32-.72-3.45-2.13-2.13L118,69.46A1.52,1.52,0,0,0,119.43,72a10.75,10.75,0,0,0,3.95-2.23,1.51,1.51,0,0,0-2.13-2.13Z"/><path class="cls-8" d="M105.4,87.59l.44-.38-2.52-.66.57-1.28-1.52,2.6c1.66,1.16,6,4.93,8.25,3.44,1.12-.76,1.07-2.41,1.28-3.58.42-2.25,2-3.36,3-5.19.94-1.59,1-3.54,2.06-5.07,1.38-2,3.58-3.85,5.3-5.62,3.11-3.2,6.22-6.31,10.15-8.5,1.69-.94.17-3.54-1.52-2.6a40.11,40.11,0,0,0-8.7,6.87c-2.54,2.53-5.47,5.07-7.57,8a15.43,15.43,0,0,0-1.77,4.08c-.68,1.89-2.21,3-3.13,4.71-.37.7-.64,3.65-1,3.86-.53.33-4.51-2.7-4.92-3-1.59-1.11-3.09,1.49-1.52,2.6s4.77.48,3.85-2.12a1.53,1.53,0,0,0-2.51-.67l-.43.38c-1.47,1.28.67,3.41,2.12,2.13Z"/><path class="cls-2" d="M181.11,88.68a3.33,3.33,0,0,1-1.87-1c-.5-.44-1.56,0-1.26.73a79.13,79.13,0,0,0,4.51,9.76.76.76,0,0,0,1.38-.18c.38-1.09,1.54-1.67,2.2-2.56a3,3,0,0,1,3.17-1.56c1,.08,1-1.43,0-1.51-1.59-.13-2.9,0-3.89,1.35s-2.41,2.35-2.93,3.88l1.37-.18a73.45,73.45,0,0,1-4.35-9.4l-1.26.73a5.8,5.8,0,0,0,2.53,1.34.75.75,0,0,0,.4-1.45Z"/><path class="cls-1" d="M175.54,93a22.7,22.7,0,0,1,10.52,6.31l.73-1.26-1.61-.77c-.59-.55-1.71.19-1.18.91l1.13,1.52c.47.64,1.64.3,1.37-.58a6.56,6.56,0,0,1-.44-2.6l-1.28.54a4.79,4.79,0,0,1,1.52,3c.14.91,1.39.56,1.48-.2a25.41,25.41,0,0,1,2.34-8.09l-1.3-.76-1.36,3.18c-.37.87.88,1.65,1.3.76a9.2,9.2,0,0,0,.93-3.63.78.78,0,0,0-.75-.75,72.26,72.26,0,0,0-17.14-.12.76.76,0,0,0,0,1.51c4.1.53,8.33,1.22,11.35,4.31l.91-1.18-6.31-3.65a.75.75,0,0,0-.76,1.3,14.09,14.09,0,0,1,4.73,4.58.76.76,0,0,0,1.38-.58L182,93.06l-1.11.85a6.54,6.54,0,0,1,2.82,3.87l1.26-.73c-2.61-2-5.19-3.82-8.61-3.73a.76.76,0,0,0,0,1.51,7,7,0,0,1,4.62,1.8l.91-1.18q-4-2.31-8.22-4.31c-.52-.24-1.38.18-1.11.85a2.73,2.73,0,0,0,3,2,.76.76,0,0,0,.2-1.48L154,86v1.45a25.86,25.86,0,0,1,4.24-.84c2.06,0,3.6,1.13,5.35,2a54.55,54.55,0,0,0,7.4,2.79l.2-1.48c-4.36-.2-8.27-1.81-12.23-3.54l-.38,1.4A70.45,70.45,0,0,1,186.74,97c.72.42,1.55-.6.91-1.19l.2-3.08-1.13-.65a6.21,6.21,0,0,1,0,2.43l1.1-.45a3.47,3.47,0,0,1-1.73-2.51.76.76,0,0,0-1.37-.18l-1,1.92,1.18-.15a6.08,6.08,0,0,0-3.37-1.79l-.4,1.45,2.76.45c.51.09,1.16-.33.93-.92a2.38,2.38,0,0,0-1.71-1.64,4.4,4.4,0,0,0-1.77.08c-1.71.15-2.71.43-4.3-.45s-2.83-2-4.52-2.5c-2.49-.7-6.45,1.16-8.17-1.48l-.65,1.13,6.8.6-.2-1.48-3,.63a.76.76,0,0,0,.2,1.48l6.61.15a.76.76,0,0,0,.53-1.28,1.8,1.8,0,0,0-2.51-.4.76.76,0,0,0,.38,1.4,20.77,20.77,0,0,1,5.65,1l-.33-1.25-2.72.85V90.6a43,43,0,0,1,6-.44.76.76,0,0,0,.38-1.41l-1.24-.61v1.3l2.19.28,1.13-.65a2.42,2.42,0,0,0-2.49,0,.76.76,0,0,0,.38,1.41,21.7,21.7,0,0,1,8.58,1c.92.29,1.32-1.16.4-1.46a23.17,23.17,0,0,0-9-1l.38,1.4h1a.76.76,0,0,0,1.13-.65c-.17-2.61-2.55-2.49-4.45-1.58a.75.75,0,0,0,0,1.3l1.24.61.38-1.4a45.63,45.63,0,0,0-6.4.5.76.76,0,0,0,0,1.45,4.66,4.66,0,0,0,4.19-1.24.76.76,0,0,0-.34-1.26,21.84,21.84,0,0,0-6-1.06l.38,1.4.69.16.53-1.29-6.61-.14.2,1.47,3-.63c.88-.19.59-1.41-.2-1.48l-6.8-.59a.76.76,0,0,0-.65,1.13c2.42,3.7,7,1,10.39,2.74,1.53.78,2.8,2,4.46,2.53,1,.33,5.16-.44,5.47.36l.92-.93-2.76-.45c-.93-.16-1.36,1.26-.4,1.45a4.07,4.07,0,0,1,2.71,1.4A.76.76,0,0,0,185,94l1-1.92-1.38-.18a5.52,5.52,0,0,0,2.42,3.41.76.76,0,0,0,1.11-.45,9.25,9.25,0,0,0,0-2.83c-.07-.52-.6-1-1.13-.65a3.35,3.35,0,0,0-.5,5.45l.91-1.18a72.11,72.11,0,0,0-28.9-9.46.76.76,0,0,0-.38,1.4c4.2,1.84,8.36,3.53,13,3.74a.76.76,0,0,0,.21-1.48c-3.82-1.14-7.12-3.1-10.77-4.55-2.19-.87-4.85.22-7,.65-.76.15-.67,1.25,0,1.45l21.82,6.52.2-1.48-1.59-.87-1.1.85q4.19,2,8.22,4.31c.72.41,1.58-.61.92-1.18a8.75,8.75,0,0,0-5.69-2.25v1.51c3-.09,5.29,1.53,7.54,3.28.55.43,1.5.06,1.26-.73a8.25,8.25,0,0,0-3.51-4.77.77.77,0,0,0-1.11.85l1.06,3.67,1.38-.58a15.83,15.83,0,0,0-5.27-5.12l-.76,1.3,6.31,3.65a.76.76,0,0,0,.91-1.19c-3.31-3.39-7.89-4.16-12.41-4.75V92a72.26,72.26,0,0,1,17.14.11l-.76-.75a5.75,5.75,0,0,1-.72,2.87l1.3.76,1.36-3.18c.37-.87-.88-1.65-1.3-.76a27.86,27.86,0,0,0-2.55,8.85l1.48-.2A6,6,0,0,0,185.84,96a.76.76,0,0,0-1.28.53,10.58,10.58,0,0,0,.49,3l1.38-.58-1.13-1.52-1.18.91a4,4,0,0,0,2.27,1.16.76.76,0,0,0,.73-1.26,24.44,24.44,0,0,0-11.18-6.7.76.76,0,0,0-.4,1.46Z"/><path class="cls-1" d="M184.63,96a3.89,3.89,0,0,0,1.2-5.4l-1.18.92a8.25,8.25,0,0,0,4.53,2.9l.2-1.48a51.54,51.54,0,0,0-6.21.19c-2.25.22-5.8,1.72-6.48-1.77-.32-1.68.28-3-2-3.45a11.69,11.69,0,0,0-3.12.14c-2.46.09-4.45-1-6.69-1.81-2.62-.94-5.22-1.31-7.71.14a.75.75,0,0,0,.76,1.3c3.89-2.28,7.77,1.07,11.59,1.77,1,.19,2.32-.22,3.25,0L175.24,91a6.25,6.25,0,0,0-.18.86c.08.33-.08.71,0,1.06a3.24,3.24,0,0,0,3.06,2.28,26.69,26.69,0,0,0,5-.52,49.57,49.57,0,0,1,6.21-.2.76.76,0,0,0,.2-1.48,7,7,0,0,1-3.87-2.51c-.55-.67-1.6.19-1.18.91l-.66,3.34c-.78.56,0,1.87.76,1.3Z"/><path class="cls-4" d="M142.22,122.72c.06-.62.21-.89-.19-.91s.87,1.77,1,2l2.37-1.83a6.53,6.53,0,0,0-1.73-1.22,1.52,1.52,0,0,0-2.06,2.06,3,3,0,0,0,4.36,1.32,14.41,14.41,0,0,0,3-2.67,14.5,14.5,0,0,1,2.26-2.24l-.71,0,1.2.85c2.2,1.54,4.61,3.14,7.44,2.62,1.94-.36,3.14-1.59,2.85-3.56l-2.75,1.16a3.61,3.61,0,0,1,.8,2.81l1.1-1.46c.21,0-1.12-1-1.16-1.07a3.46,3.46,0,0,0-1.36-.11c-1.18,0-2.07.6-3.33.33a10.26,10.26,0,0,1-2.6-1.42c-1.73-.92-4.95.29-5.38,2.34s2.45,3.13,4.08,3a4.15,4.15,0,0,0,1.73-.53c1.68-1.15.09-.21-.19-.89.55,1.36,2.42,1.71,3.65,1.78a1.52,1.52,0,0,0,1.3-2.27,7.61,7.61,0,0,0-4.45-3.8,1.51,1.51,0,0,0-1.46,2.52,13.86,13.86,0,0,0,8.38,3.77c1.92.2,1.91-2.82,0-3a10.5,10.5,0,0,1-6.25-2.89l-1.47,2.51a4.7,4.7,0,0,1,2.65,2.42l1.3-2.26c-1.69-.09-1.83-1.94-3.72-1.38-.56.17-2.22,1.16-2.08,1.8-.13-.61,2.17.7,2.15.69a9.74,9.74,0,0,0,4.89.64c1.31,0,1.23.46,2.38.8a2.63,2.63,0,0,0,1.75,0,1.54,1.54,0,0,0,1.1-1.45,7.46,7.46,0,0,0-1.21-4.33A1.51,1.51,0,0,0,159,120a24.85,24.85,0,0,1-3.89-1.12,18.15,18.15,0,0,1-1.58-1.06c-.86-.6-1.77-1.54-2.9-1.48a3.19,3.19,0,0,0-2,1.17c-.32.28-4.3,4.25-4.48,3.82l-2.06,2.06,1.12.75a1.51,1.51,0,0,0,2.36-1.82c-.75-1.55-2.38-4-4.42-3.7-2.25.32-1.8,2.52-2,4.14-.2,1.93,2.81,1.91,3,0Z"/><path class="cls-4" d="M192.66,165.11c5.11,1.42,10.31,1.47,15.57,1.27,2.61-.1,5.22-.26,7.84-.27,1.49,0,3,0,4.47.12,2.05.17,2.78,1.27,2.69,3.25-.27,6-11.34,4.43-15.42,4a60.58,60.58,0,0,1-16.48-4.18c-.9-.37-1.29,1.09-.4,1.45a61.57,61.57,0,0,0,20.65,4.5c4,.16,11.77.8,13.09-4.39.4-1.54.16-4-1-5.16-1.44-1.52-4.68-1.09-6.52-1.11-8.1-.07-16.19,1.26-24.13-.94a.75.75,0,0,0-.4,1.45Z"/><path class="cls-4" d="M192.09,171.66A48,48,0,0,0,204,176.94c2.22.7,4.47,1.33,6.69,2,1.8.57,5.32,1.17,6.64,2.47,1.9,1.88.19,4.54-2.46,4.85a11.83,11.83,0,0,1-4-.74,56.12,56.12,0,0,1-7.63-2.88,62.79,62.79,0,0,1-13.16-8.18c-.74-.6-1.82.46-1.06,1.07a64.17,64.17,0,0,0,16.54,9.72c3.44,1.37,11.15,5,13.54.14,2.46-5-3.06-6.26-6.59-7.44-6.71-2.24-13.67-3.72-19.68-7.63-.81-.53-1.57.77-.76,1.3Z"/><path class="cls-3" d="M112.09,165.31c-2.33,21,25.61,29.88,42.06,29.17a51.65,51.65,0,0,0,27.7-9.23c7.16-5.18,12.08-14,8.91-22.9-.33-.9-1.78-.51-1.46.4,3.37,9.4-2.86,18-10.61,22.79A51.47,51.47,0,0,1,153.17,193c-15.49.38-41.76-7.92-39.57-27.7.1-1-1.4-.95-1.51,0Z"/><path class="cls-4" d="M146.24,119.67c1.26-.72,2.19-1.86,3.41-2.63,2.14-1.35,3.64.42,4.76,2.15.52.81,1.83,0,1.3-.76-1.09-1.69-2.55-3.62-4.81-3.44s-3.62,2.34-5.42,3.38a.75.75,0,0,0,.76,1.3Z"/><path class="cls-4" d="M145.83,118.74c-1,.84-2.75-.79-3.62-1.16a3.18,3.18,0,0,0-2.47-.18c-2.08.91-1.62,4.3-1.19,6A.75.75,0,0,0,140,123c-.28-1.14-.74-3.31.44-4s1.88.35,2.81.83c1.24.65,2.52.87,3.65-.08.74-.63-.33-1.69-1.07-1.07Z"/><path class="cls-4" d="M155.08,119.44c1.11,1,2.4.74,3.64.09.67-.35,1.5-1.18,2.28-1.15,1.88.09,1.23,3.26,1,4.29s1.22,1.35,1.45.4c.43-1.73.9-5.13-1.19-6a3.08,3.08,0,0,0-2.38.14c-.89.35-2.71,2-3.71,1.2-.74-.62-1.81.44-1.06,1.06Z"/><path class="cls-4" d="M139.54,123.41c-7.78,2.13-14.44,7.72-16.39,15.75-.23.94,1.22,1.34,1.45.4,1.83-7.52,8.05-12.7,15.34-14.69a.76.76,0,0,0-.4-1.46Z"/><path class="cls-4" d="M162.47,124.67c7.36,2.21,13.8,7.52,15.94,15.09a.75.75,0,0,0,1.45-.4c-2.28-8.09-9.12-13.78-17-16.15a.76.76,0,0,0-.4,1.46Z"/><path class="cls-4" d="M123,139.53c-8.35,10.07-16.75,28-2.72,37.27A48.47,48.47,0,0,0,131,181.54a84,84,0,0,0,15.26,4.05c8.69,1.31,17.53.29,25.1-4.37a.75.75,0,0,0-.76-1.3c-7.22,4.44-15.66,5.45-23.94,4.22a77.37,77.37,0,0,1-23.26-7.27c-15.61-8-7.94-25.9.67-36.27.61-.74-.45-1.81-1.07-1.07Z"/><path class="cls-4" d="M179.58,141.26c4.2,5.2,8.47,11.1,9.67,17.82.66,3.71.22,8.1-2,11.25-2,2.77-5.07,4.42-8.06,5.93-12.76,6.43-27.47,9.11-41.37,5a.75.75,0,0,0-.4,1.45c15.49,4.54,31.9.91,45.72-6.88,5.89-3.33,8.68-9.55,7.73-16.27-1-7.36-5.64-13.75-10.19-19.39-.61-.76-1.67.31-1.07,1.06Z"/><path class="cls-4" d="M123.12,139.4a100.14,100.14,0,0,0-18.86-14.35c-3.71-2.17-12.25-8.66-15.21-2.44-2.65,5.54.83,13,5.1,16.6,5.94,5.09,14.61,7.43,21.71,10.36.9.37,1.29-1.09.4-1.45-5.89-2.44-12.2-4.51-17.75-7.69-5.39-3.1-10.37-9.68-8.42-16.29,1.42-4.83,7.07-1.25,9.84.22q3.84,2,7.5,4.42a98.52,98.52,0,0,1,14.63,11.68c.69.68,1.76-.39,1.06-1.06Z"/><path class="cls-4" d="M96.81,88.54c-4.25,5.16-6.76,11.27-8.67,17.63-.83,2.78-2.59,6.61-2.15,9.54.36,2.39,2.73,4.65,4.33,6.28.68.69,1.75-.38,1.06-1.07C88.8,118.3,87,116.09,88,112.23c.66-2.53,1.36-5,2.15-7.53a44.85,44.85,0,0,1,7.71-15.1c.61-.74-.45-1.81-1.07-1.06Z"/><path class="cls-4" d="M98.63,89c3.92-.41,8.2,4.2,10.7,6.81a21.68,21.68,0,0,1,3.71,4.48c1.17,2.28.93,4.61.22,7a21.17,21.17,0,0,1-14,14.06c-.92.29-.53,1.74.4,1.46a22.66,22.66,0,0,0,15.59-17.58c.77-4.64-2.13-7.71-5.23-10.86-2.75-2.8-7.15-7.34-11.42-6.89-.95.1-1,1.6,0,1.5Z"/><path class="cls-4" d="M86.36,114.11c-.79,2.33-1.64,4.84-1.28,7.34.41,2.83,2.43,5,3.32,7.65.3.92,1.75.53,1.45-.4a49.88,49.88,0,0,0-2.54-5.13c-1.4-3-.52-6,.5-9.06.31-.92-1.14-1.32-1.45-.4Z"/><path class="cls-4" d="M97.58,89.42a149.23,149.23,0,0,1,25.36-23.13c.78-.56,0-1.87-.76-1.3A150.56,150.56,0,0,0,96.52,88.36c-.64.72.42,1.79,1.06,1.06Z"/><path class="cls-4" d="M111.26,94.14c.6-1.62,4.35-2.52,5.74-3.06,1.6-.63,3.23-1.2,4.82-1.85a27.53,27.53,0,0,0,7.87-4.56l-1.25-.74a54.48,54.48,0,0,1-13.89,21.44c-.71.67.36,1.73,1.06,1.06a56,56,0,0,0,14.28-22.1c.27-.76-.74-1.18-1.26-.73-3.5,3-7.8,4.38-12,6-2.2.86-5.9,1.69-6.79,4.12-.34.91,1.12,1.3,1.45.4Z"/><path class="cls-4" d="M109.25,94.84c6.31-12.42,16.46-22.84,25.24-33.53.61-.74-.45-1.81-1.06-1.06C124.57,71,114.31,81.55,108,94.09c-.44.86.86,1.62,1.3.75Z"/><path class="cls-4" d="M122.47,66.66a45.34,45.34,0,0,1,11.43-5.51c.92-.29.53-1.74-.4-1.45a46.58,46.58,0,0,0-11.79,5.66c-.81.53,0,1.84.76,1.3Z"/><path class="cls-4" d="M180.71,138.77A99.84,99.84,0,0,1,196,129.43a93.58,93.58,0,0,1,9.05-3.87c3.2-1.17,9-3.75,9.56,1.53.66,6.75-4.73,12.29-10.51,14.67-5.94,2.44-12.51,3.68-18.7,5.33a.75.75,0,0,0,.4,1.45c4.47-1.19,8.95-2.34,13.4-3.58a32.3,32.3,0,0,0,9.7-4c4.54-3.1,8.49-9.54,7-15.24-1.77-6.85-10.68-1.9-14.71-.24a100.08,100.08,0,0,0-21.28,12c-.77.57,0,1.88.76,1.3Z"/><path class="cls-4" d="M194.66,91.37a69.84,69.84,0,0,1,13.62,12.48q3,3.42,5.92,7c2.62,3.22,3.24,6.08,3.27,10.16a.76.76,0,0,0,1.51,0c0-2.81-.08-6.07-1.61-8.54-1.8-2.89-4.39-5.48-6.61-8-4.58-5.31-9.46-10.45-15.34-14.33-.82-.54-1.57.77-.76,1.3Z"/><path class="cls-4" d="M192.66,90.27c-3.63,1.73-4.84,7.45-5.67,11-.94,4-2.15,8.89.7,12.33a22.57,22.57,0,0,0,23.16,7,.75.75,0,0,0-.4-1.45,21.17,21.17,0,0,1-19.91-4.71c-1.42-1.32-2.76-2.71-3-4.68a21.72,21.72,0,0,1,.7-7c.7-3.39,1.78-9.49,5.21-11.12.87-.42.11-1.72-.76-1.3Z"/><path class="cls-4" d="M194.9,89.86a192.76,192.76,0,0,0-43.65-5.34.76.76,0,0,0,0,1.51,191,191,0,0,1,43.25,5.28c.94.22,1.34-1.23.4-1.45Z"/><path class="cls-4" d="M186.48,101.48c-2-1.48-6-.06-8.17.39-4.38.91-8.67,2-13.18,1.36a.76.76,0,0,0-.53,1.29,56,56,0,0,0,24,10.85c.95.19,1.35-1.27.4-1.45a54.3,54.3,0,0,1-23.29-10.47l-.54,1.29a28.45,28.45,0,0,0,9.29-.51c1.62-.32,3.22-.7,4.83-1s4.93-1.58,6.47-.42c.78.59,1.53-.72.76-1.3Z"/><path class="cls-4" d="M188.74,101c-11.38-7.55-25.3-11.28-38-16-.91-.33-1.3,1.12-.4,1.45,12.59,4.66,26.38,8.36,37.65,15.83.81.53,1.56-.77.76-1.3Z"/><path class="cls-4" d="M208.79,122.67c1.63-4.12,7-3.15,7.79,1,.49,2.51-.57,5-1.51,7.24-.37.89,1.08,1.28,1.45.4,1.52-3.66,3.17-9.05-.82-11.85-3.15-2.22-7-.51-8.36,2.85-.35.9,1.1,1.29,1.45.4Z"/><path class="cls-4" d="M116.76,146.91,90,138.7c-4.13-1.26-12.54-4.2-13.18,2.86-.58,6.45,6.87,8.9,11.63,10.76,7.92,3.1,16.11,5.46,24.66,5.61a.76.76,0,0,0,0-1.51A62.65,62.65,0,0,1,94,152.77c-3-1-6-2.18-9-3.46s-7.12-3.53-6.69-7.54c.53-4.79,6-3.23,9-2.3s6.33,1.94,9.49,2.91l19.54,6a.75.75,0,0,0,.4-1.45Z"/><path class="cls-4" d="M81.42,138.78c-2.51-1.37-5.27-3.46-8.3-3.15-3.39.34-6.9,1.93-9.92,3.31-.91.42-.35,1.84.56,1.42a46.26,46.26,0,0,1,7.87-2.87c3.55-.88,6.13,1,9.12,2.64.89.49,1.56-.86.67-1.35Z"/><path class="cls-4" d="M48.83,137.81q-7.65,1.26-15.2,3c-4.17,1-8.68,1.76-12.59,3.55-2.2,1-4.47,3-3.43,5.65s4.79,3.74,7.33,4.21c9.07,1.7,18.44-.91,27.11-3.39a122.66,122.66,0,0,0,13.3-4.15c1.84-.75,4.88-2.13,4.41-4.64-.58-3-5.24-4-7.72-4.38A25.68,25.68,0,0,0,49.54,139c-.9.34-.51,1.79.4,1.45A24.48,24.48,0,0,1,60.5,139c1.43.12,5.13.36,6.13,1.62l.41,3.56a9.06,9.06,0,0,1-1.1.61A22.36,22.36,0,0,1,63,146a162,162,0,0,1-23.87,6.49,38.8,38.8,0,0,1-13.8.33c-1.64-.31-4.64-.85-5.65-2.34-2.3-3.38,2.17-4.91,4.7-5.68a200.89,200.89,0,0,1,24.84-5.49c1-.16.55-1.61-.4-1.45Z"/><path class="cls-4" d="M68.17,145.31a38.56,38.56,0,0,0,4.45-1.14,2.21,2.21,0,0,1,2.2,0c.37.19.73.39,1.08.59.72.42,1.39.86,2,1.31s1.7-.2,1.06-.64c-1.13-.78-3.18-2.51-5.11-2.6a4.76,4.76,0,0,0-2,.51,16.81,16.81,0,0,1-4.09,1.06c-1,.11-.55,1,.4.87Z"/><path class="cls-4" d="M67.58,148c-8.63,4.88-17.68,9.37-26,14.72-1.93,1.23-4.42,3.57-2.85,6.08s5.58,2,7.88,1.63c4.53-.68,9-2.55,13.17-4.31,3.41-1.42,7.38-2.8,10.23-5.22a7.77,7.77,0,0,0-1.63-12.94c-.86-.43-1.63.87-.76,1.3a6.42,6.42,0,0,1,3.62,7c-.61,3.06-3.57,4.56-6.12,5.82-5.4,2.66-11.31,5.31-17.23,6.59-1.54.33-4.57,1.08-6.12.3-4.8-2.39,1.08-5.25,2.39-6l8.07-4.56,16.13-9.12c.85-.47.09-1.78-.76-1.3Z"/><path class="cls-4" d="M38.45,165.79c-2.73,1-6.15,2.69-7.45,5.47s1.48,6.47,2.72,9c.35.7,1.38.32,1.41-.38.13-3.75.64-8.59,5.19-9.28,1-.14.55-1.59-.4-1.45-5.23.79-6.14,6.32-6.3,10.73l1.4-.38c-.87-1.74-2.5-4-2.87-5.93-.61-3.17,4.58-5.53,6.7-6.28.9-.32.51-1.78-.4-1.45Z"/><path class="cls-4" d="M69.9,150.22A20.58,20.58,0,0,1,76.64,152c1.53.7,2.56-.54,1-1.23a25.07,25.07,0,0,0-8.14-2.14c-1.69-.15-1.34,1.42.36,1.58Z"/><path class="cls-4" d="M81.1,160.52a3.48,3.48,0,0,0-2.74-3c-2.32-.68-4.38.62-6.68.21-1.11-.2-1.2,1.32-.09,1.52a9.26,9.26,0,0,0,3.45-.13c1.14-.21,4.19-.75,4.33,1.1.07,1,1.8,1.24,1.73.25Z"/><path class="cls-4" d="M68.58,167.08c-7.38,1.88-15.32,5-20.9,10.39-1.53,1.47-3,3.6-1.71,5.68,1.63,2.54,5.45,1.76,7.86,1.15,7.34-1.86,15.54-5.5,21-10.84,1.16-1.13,3.71-3.37,2.23-5.08-1.7-2-6-1.54-8.2-1.15-1,.17-.55,1.62.4,1.45a11.3,11.3,0,0,1,5.11.09c2.16.62,1.59,1.19.33,2.63a26.07,26.07,0,0,1-6.4,5,56.79,56.79,0,0,1-13.87,6.14,17.39,17.39,0,0,1-3.62.75,5.43,5.43,0,0,1-2.27-.09c-1.74-1.67-1.8-3.12-.21-4.34a27.32,27.32,0,0,1,6-4.43A54.18,54.18,0,0,1,69,168.53a.75.75,0,0,0-.4-1.45Z"/><path class="cls-4" d="M82.36,165.35c-3.91-1.15-8.21-1.69-10.3,2.6-.43.87.86,1.63,1.29.76,1.78-3.66,5.35-2.87,8.61-1.91.92.28,1.32-1.17.4-1.45Z"/><path class="cls-4" d="M73.13,174a30,30,0,0,1,9.85-.77c1,.09,1-1.41.07-1.51a31.53,31.53,0,0,0-10.24.81.75.75,0,0,0,.32,1.47Z"/><path class="cls-4" d="M44.82,181.38c-.41,1.59-.85,3.18-1.21,4.78a5.14,5.14,0,0,0-.08,3.08c.89,2.24,4.54,2.63,6.53,2.9.92.13,1.37-1.24.4-1.45a4.66,4.66,0,0,1-2.71-1.82c-.93-1.4-.11-3,.65-4.3a.75.75,0,0,0-1.3-.76c-.9,1.54-1.86,3.59-1,5.34a6.18,6.18,0,0,0,3.94,3l.4-1.45c-2-.28-6-.69-5.53-3.59.32-1.79.89-3.56,1.34-5.32a.75.75,0,0,0-1.45-.4Z"/><path class="cls-4" d="M76.64,183.07A42.62,42.62,0,0,0,58,191.24c-1.19.94-3.19,2.75-2.57,4.5s3.41,1.77,5,1.88c6.31.46,12-2.55,16.93-6.14,1.78-1.28,4.7-2.88,5.06-5.28.34-2.25-1.87-3.52-3.58-4.35-.87-.42-1.63.88-.76,1.3,1.62.78,3.67,1.54,1.78,4.49-.56.88-2,1.65-2.87,2.26a51.06,51.06,0,0,1-4.43,3,21,21,0,0,1-12.13,3.25c-1.16-.09-3.57,0-3.16-2,.19-.91,2-2,2.64-2.39a50.56,50.56,0,0,1,4.69-2.81A41.06,41.06,0,0,1,77,184.52c.95-.17.54-1.62-.4-1.45Z"/><path class="cls-4" d="M85.25,179.65a10.16,10.16,0,0,0-6.13,3.7c-.6.76.46,1.83,1.06,1.07a9,9,0,0,1,5.47-3.32c.95-.18.55-1.63-.4-1.45Z"/><path class="cls-4" d="M89.91,185.59c-2.49-2.12-6.91.23-9.58,1.65-1.18.63.16,1.69,1.33,1.06,1.55-.82,5-2.92,6.56-1.6.82.7,2.52-.41,1.69-1.11Z"/><path class="cls-4" d="M56.1,195.71c-3.74,2.26.73,7.74,2.9,9.3.76.54,1.39-.57.92-1.18A6.48,6.48,0,0,1,58.73,198a.75.75,0,0,0-1.45-.4,8,8,0,0,0,1.57,7.33l.91-1.18a8.82,8.82,0,0,1-2.7-3c-.49-.94-1.43-3-.2-3.7a.75.75,0,0,0-.76-1.3Z"/><path class="cls-4" d="M186.66,148.92l18.34-7.6,9.16-3.8c3.21-1.33,9.92-3.9,9.91,2.12s-9.53,9.15-14,11.21a63,63,0,0,1-19.25,5.76c-1,.11-1,1.61,0,1.5,7.9-.89,15.3-3.63,22.41-7.1,4.79-2.34,13-5.44,12.3-12.12-.77-7.47-9.24-3.87-13.39-2.15l-25.89,10.73c-.88.36-.5,1.82.4,1.45Z"/><path class="cls-4" d="M244.56,126.83a199.57,199.57,0,0,1,25.38-1.66c2,0,6.3-.07,6.51,2.78.17,2.24-3.11,4.09-4.71,5a37.31,37.31,0,0,1-13.22,3.71,157.12,157.12,0,0,1-25.3.49,12.63,12.63,0,0,1-3.57-.37c-1.06,0-1.43-.67-1.11-2-.7-1.07-.57-1.88.38-2.41a13,13,0,0,1,4.44-2.51,24.35,24.35,0,0,1,10.83-1.71c1,.07,1-1.44,0-1.51a25.47,25.47,0,0,0-10.82,1.62c-2.57,1-6.07,2.53-7.32,5.2-3.12,6.69,12.28,5.26,15.06,5.28,9.58.07,19.9.35,28.93-3.38,3.25-1.34,12.28-7.23,5.68-10.72-3.72-2-9.46-.94-13.47-.77-5.91.27-11.81.78-17.69,1.48-.95.11-1,1.62,0,1.5Z"/><path class="cls-4" d="M17.22,146.72c-2.53-.52-4.21,1.41-4.56,3.8-.47,3.16,1.17,6.09,3.05,8.48.42.53,1.29.07,1.29-.53,0-2-.85-6.58,2-7,1-.14.55-1.59-.4-1.45-3.87.55-3.09,5.67-3.07,8.43l1.29-.53a12.31,12.31,0,0,1-2.4-4.37c-.44-1.73-.61-6,2.44-5.4.95.19,1.35-1.26.4-1.45Z"/><path class="cls-4" d="M277.12,126c1.59-2.44,4.53.47,5.43,2a12.49,12.49,0,0,1,1.39,5l1.28-.53c-1.87-2-5-6.3-8.08-3.92-.76.58,0,1.89.76,1.3,2.21-1.68,4.91,2.27,6.26,3.68a.75.75,0,0,0,1.28-.53c-.27-2.85-1.06-5.83-3.24-7.83-1.86-1.71-4.82-2.34-6.38.06-.53.81.77,1.57,1.3.76Z"/><path class="cls-4" d="M232.68,145.82l18.5-1.12,9.25-.55c1.32-.08,4.07-.56,5.14.37,2.82,2.44-1.42,4.7-2.9,5.46-5.39,2.78-12.2,3.66-18.13,4.52-3.33.47-7.77,1.44-10.43-1.25a6.4,6.4,0,0,1-.81-7.83.75.75,0,0,0-1.3-.76,7.75,7.75,0,0,0,5.9,11.8c4.12.45,8.79-.71,12.82-1.5s8.45-1.62,12.25-3.46c2-1,5.4-2.86,5.19-5.58s-3.35-3.42-5.63-3.4c-9.93.12-19.94,1.19-29.85,1.79-1,.06-1,1.56,0,1.51Z"/><path class="cls-4" d="M267.11,143.6c2.37-1.1,6-2.35,8.34-.74,1.81,1.24,2.26,4.75,2.93,6.82l1.25-.73c-3.19-3.07-7.72-6.34-12-3.25-.78.56,0,1.86.76,1.3,3.71-2.67,7.49.42,10.19,3a.76.76,0,0,0,1.26-.74c-.81-2.51-1.29-7-4.08-8.22s-6.77,0-9.4,1.24c-.88.41-.11,1.71.76,1.3Z"/><path class="cls-4" d="M234.85,170.79a54,54,0,0,1,13.27,8.6c1.69,1.53,4,3.43,5,5.47s-1.09,4.14-3.28,3.95c-1.41-.13-3-1.26-4.27-1.92A56.44,56.44,0,0,1,233.3,178c-1.74-1.64-3.85-3.58-4.8-5.82-.86-2-.22-2.2,1.84-2.2a12.06,12.06,0,0,1,4.35,1c.91.35,1.3-1.11.4-1.45-1.93-.74-6.38-2-8.24-.29-1.56,1.43.41,4,1.31,5.28,4.41,6.37,12,11.68,19,14.86,2.07.94,5.06,2.12,7.15.56s1.16-4.35-.15-6.22c-4.43-6.34-11.65-11-18.52-14.2-.88-.41-1.64.88-.76,1.3Z"/><path class="cls-4" d="M254.66,188.09c.11,1.86.35,3.77.3,5.63-.07,2.82-4,2.49-6,2.37v1.5a6.25,6.25,0,0,0,4.41-2.08c1.29-1.53.75-3.79.15-5.48-.32-.91-1.77-.52-1.45.4.46,1.32,1.06,3.12,0,4.28a4.67,4.67,0,0,1-3.09,1.38.75.75,0,0,0,0,1.5c2.06.12,5.82.42,7.06-1.69a5.22,5.22,0,0,0,.47-2.9c-.06-1.64-.19-3.28-.28-4.91-.06-1-1.56-1-1.51,0Z"/><path class="cls-4" d="M224,191.2A40.67,40.67,0,0,1,228.7,203a47.36,47.36,0,0,1,1.07,6.15c.07.8.33,3.45-.38,3.83-1.15.61-2.45-.86-3.16-1.54a20,20,0,0,1-5.39-10.35,49.05,49.05,0,0,1-.91-7.15,18.63,18.63,0,0,1-.12-2.69c.15-2.44,2.46-2.72,4.44-1.86.88.38,1.65-.92.76-1.3-1.74-.76-4-1.65-5.6-.14s-1.1,4.58-.95,6.51c.49,6.27,1.67,12.63,6.08,17.4.9,1,3.16,3.45,4.71,3.1,2-.44,2.15-3.33,2.1-4.9a42.84,42.84,0,0,0-6-19.65.75.75,0,0,0-1.3.76Z"/><path class="cls-4" d="M228.79,214.45c.67,1.76-1.69,2.53-2.95,2.82a10.36,10.36,0,0,1-4.4-.09l-.2,1.48a7.27,7.27,0,0,0,6.54-4.25c.37-.88-.92-1.65-1.3-.76a5.75,5.75,0,0,1-5.24,3.5c-.8,0-1.08,1.3-.2,1.48,2.69.57,11,.23,9.21-4.58-.34-.9-1.8-.51-1.46.4Z"/><path class="cls-4" d="M219.32,184.5a14.13,14.13,0,0,1,3.47,4.25c.46.85,1.76.09,1.3-.76a15.14,15.14,0,0,0-3.71-4.56c-.73-.62-1.81.44-1.06,1.07Z"/><path class="cls-4" d="M215.33,189.68a6.37,6.37,0,0,1,2.47,1.66c1.34,1.37,2.26-.22.9-1.61a10.3,10.3,0,0,0-4.17-2.75c-.58-.19-.85.42-.65,1.11a2.42,2.42,0,0,0,1.45,1.59Z"/><path class="cls-4" d="M224.24,167.13a4.77,4.77,0,0,1,3.47,2c.56.79,1.86,0,1.3-.76a6.46,6.46,0,0,0-4.77-2.74c-1-.08-1,1.42,0,1.51Z"/><path class="cls-4" d="M223.22,173.8a17.63,17.63,0,0,1,6.44,1.21c1.39.54,2.25-.46.87-1a22.33,22.33,0,0,0-8.28-1.48c-1.41,0-.45,1.31,1,1.26Z"/><path class="cls-4" d="M225.67,148.72c1.77-1.48,3.71-3,6.24-2.94a.73.73,0,1,0,0-1.46c-3-.12-5.29,1.63-7.36,3.36-.76.64.37,1.67,1.12,1Z"/><path class="cls-4" d="M220.64,136.4a16.93,16.93,0,0,1,12.19-5.59,1.11,1.11,0,1,0-.2-2.21,19.61,19.61,0,0,0-13.91,6.4c-1,1.14.9,2.54,1.92,1.4Z"/><path class="cls-4" d="M225.34,142.66a10.53,10.53,0,0,1,7.18-4c1.23-.17.71-1.72-.52-1.54a12.38,12.38,0,0,0-8.34,4.73c-.64.88,1,1.69,1.68.81Z"/><path class="cls-4" d="M226.94,156.11c1.34-1.42,4.2-2.24,7.16-1.83,1.58.22,2.34-1.11.75-1.33-4-.57-8.14.29-10,2.32-.74.78,1.39,1.63,2.13.84Z"/><circle class="cls-9" cx="144.48" cy="119.44" r="2.58"/><circle class="cls-9" cx="157.81" cy="118.92" r="2.58"/><path class="cls-4" d="M130.21,138.26c-1.49,4-4.7,7.14-6.56,11s-2.45,8.71-2.53,13c-.16,9,5.07,15.5,13.26,18.61C144,184.54,153.6,182,163,179.23c4.35-1.3,8.69-2.6,13.07-3.76,3.06-.81,6.24-2.1,7.83-5,2.41-4.45-.4-9.45-3.8-12.43-3.15-2.76-7.93-6.11-11.77-2.88-2.75,2.31.75,6.17,3.65,4.73,3.88-1.94,4.55-6.06,4.4-10s-6.18-3.88-6,0c.07,1.75.39,3.92-1.41,4.82l3.65,4.72c-1.17.2-1.16.44,0,.72.42.22.83.45,1.22.7a15.42,15.42,0,0,1,2.72,2.1c1.15,1.13,3,3.21,1.93,4.93-1.23,2-5.66,2.22-7.68,2.8-9,2.6-18.56,6.91-28.12,6-8.26-.78-15.68-5.33-15.53-14.36.07-4.32.71-8.65,3-12.36,2.09-3.35,4.46-6.33,5.84-10.07s-4.47-5.22-5.8-1.6Z"/><path class="cls-4" d="M181.15,145.29q1.51.56.57-.42L177.6,149l.67.42a3,3,0,0,0,5.14-2.13,4.75,4.75,0,0,0,0-1.13c-.12-2.06-2.54-4.05-4.53-2.6-4.59,3.34.55,8,3.09,10.76s6.76-1.35,4.26-4.26c-1.14-1.32-2.32-2.58-3.56-3.79-2.83-2.76-6.69,1.32-4.26,4.26a19.78,19.78,0,0,1,4.51,12.1l5.14-2.13c.31,1,.52,1,.64.13a7.24,7.24,0,0,0,.35-1.29,5.73,5.73,0,0,0-.13-2.76c-1.1-3.8-6.41-2.15-5.81,1.6.47,2.89.9,6.49-1,9s-5.17,3.15-7.88,3.9a3.05,3.05,0,0,0-.72,5.51,5.71,5.71,0,0,0,6.67-.07,3,3,0,0,0-3-5.2,123.6,123.6,0,0,1-15.72,6c-4.91,1.51-10.23,3.56-15.4,2.3v5.8A56.1,56.1,0,0,0,163.55,178c5.07-3.28,9.53-7.72,15.45-9.47a3,3,0,0,0,1.33-5,12.58,12.58,0,0,0-10.48-4.16c-3.15.27-4.36,5.18-.8,5.92a12.81,12.81,0,0,0,6-.09c2.1-.54,4-2,6.23-1.71,1.63.19,3-1.53,3-3,0-2.82-2.14-6.64-5.41-4.23-2.65,2-1.2,5.22.88,6.83,1.85,1.42,4.59-.52,4.53-2.6-.07-3-1.55-5.13-3.45-7.29a26.24,26.24,0,0,1-4.59-7.88c-2.58-6.14-5.83-11.73-11.7-15.23a26.39,26.39,0,0,0-17.08-3.28c-6.13.85-13.86,4.32-17.81,9.23a3.06,3.06,0,0,0,2.13,5.14c5.43.28,10.31-1.76,15.26-3.72,2.21-.88,4.49-2.07,6.91-1.67a17.15,17.15,0,0,1,5.7,2.08c3.08,1.78,6,4.71,6.28,8.45.37,5-3.17,9.48-2.65,14.61.08.8,2,7.33,3.1,5.47-.64,1-4.82,1.31-6,1.89-1.86.9-2.72,2.48-4.27,3.7-1.87,1.48-5.07,1.8-7.4,2-10,.73-21.19-6.21-20.62-17.23l-.88,2.13c4.08-5.26,9.43-9.24,11.61-15.78l-2.1,2.1c6.05-2.42,13.92-8.35,20.66-4.79,4.43,2.34,3.84,9.36,3.86,13.56a3,3,0,0,0,3.81,2.9c1.42-.34,3-.78,3.82-2.15a3.2,3.2,0,0,0-1.18-4.31,4.43,4.43,0,0,0-6.35,2.76,3.06,3.06,0,0,0,3.71,3.7c4.06-.68,8-2.08,12.13-2.51,1.61-.17,3.53-.52,4.72.67,1,1,1.6,3.11,2.19,4.4l1.8-4.42c-.4.14-.82.26-1.23.36-.71.12-.47.25.72.4l1.49,2.6c0,2.42-1.62,2.59-2.78,1.06l1.8-4.42a17.39,17.39,0,0,1-6,1.1,33,33,0,0,0-6,.61,31.59,31.59,0,0,0-10.24,4,34.79,34.79,0,0,0-9,8c-.53.67-1,1.37-1.54,2.05a5.47,5.47,0,0,1-1,1.31c-.74.53-.89.56-.44.12-1.32-.48-2.34-1.94-3.71-2.52-3.74-1.59-8.06-.91-11.76-2.56-4-1.78-3.62-6.24-3.25-10,.26-2.63,1-3.37,3.05-4.62a57.48,57.48,0,0,0,5.86-4c3.66-2.8,7.1-5.88,10.68-8.78l-2.13.88c4.32.2,6.36,5.12,7.45,8.67a56.31,56.31,0,0,1,1.81,6.86c.58,3.32-.3,5.29-2.8,7.48-8,7-22.46,9-28.38-1.68l-3.4,4.42c1.12.29,1.17.18.13-.34v-4.26l2.8-.43-2.13,5.14c6.74.86,13.19,4.89,20.08,4.46a16.6,16.6,0,0,0,13.75-9c3.29-6.53-1-11.43-2.84-17.48-.74-2.49-2.46-5.44-5.46-5-2.59.42-5,1.92-5.72,4.52l1.39-1.8c-3.63,2.7-8,4.26-11.5,7.07a15.09,15.09,0,0,0-4,4.56c-1.44,2.65-1.06,4.25.73,6.57,6.14,8,18.33,8.59,23.58-.75,2.27-4,2.32-8.92-1.64-11.91s-9.68-2-13.47.77c-3,2.22-7.64,7-5.2,11.06s8.48,4.21,12.28,2.44,8.9-7.15,5.71-11.36c-3.78-5-9.91,2.69-13.13,4.61s-.3,7.19,3,5.2a57.42,57.42,0,0,0,5.23-4.09,11.68,11.68,0,0,1,1.51-1q-1.14-3.87-1.93-1.59c-.79.68-1.18,1.69-2.12,2.32a5.69,5.69,0,0,1-2.78,1c-.59,0-2.65-.76-2.46.08-.34-1.48,4-4.27,5-4.71,1.63-.71,4.89-1,5.55,1.21s-2,5-3.62,6c-4.53,2.73-9.33-.41-11.73-4.36l.3,2.32c1.42-3.49,5-5.16,8.14-6.84a46.18,46.18,0,0,0,4.88-2.91c1.57-1.12,1.72-2.26,3.55-2.6l-2.93-.77c1.37,1.16,1.2,3.25,1.94,4.81.88,1.86,2.16,3.41,2.69,5.45,1,3.79-1.59,7.29-4.89,9-3.78,1.94-7.66.86-11.5-.29a78.45,78.45,0,0,0-12.44-3.06c-2.87-.37-3.58,3.4-2.13,5.14a4,4,0,0,0,5.72.43,3.08,3.08,0,0,0,0-4.26,4.23,4.23,0,0,0-2.79-1.2c-2.51-.37-4.77,1.94-3.4,4.42a20.93,20.93,0,0,0,15.26,10.3c6.8,1.07,13.82-1.11,19.45-5,2.55-1.74,5.33-3.93,6.77-6.73,1.58-3.07,1.24-6.66.53-9.92-1.17-5.31-2.8-11.27-6.61-15.33a11.49,11.49,0,0,0-6.73-3.6c-3.78-.53-6.39,3-9.07,5.24a80.22,80.22,0,0,1-9,6.85c-1.32.82-3.12,1.43-4.23,2.5-1.4,1.36-2.08,3.85-2.42,5.7-1,5.8-.92,12.89,4.39,16.49,2.74,1.85,5.89,2.35,9.09,2.79,1.64.22,3.71.3,5.19,1.09,1.23.66,2.13,1.82,3.39,2.44,3.47,1.72,6.58-.35,8.58-3.18a30.71,30.71,0,0,1,8.16-8.15,26.11,26.11,0,0,1,10.37-4,50.74,50.74,0,0,1,5.37-.21,19.7,19.7,0,0,0,5.8-1.36c1.64-.55,3.05-2.76,1.8-4.42a4.85,4.85,0,0,0-7.71-.11,3.18,3.18,0,0,0,.76,4.69c1.57,1,3.52.35,5.15-.16a3.06,3.06,0,0,0,1.8-4.42c-2-4.41-3.88-7.9-9.16-8.14-5.68-.26-11.16,1.88-16.68,2.81l3.7,3.71a1.61,1.61,0,0,1-2.42.89l-1.38-1.8,0,.14.77-2.93c.45-.4.21-.4-.69,0l3.81,2.91c0-5.53,0-12-3.88-16.39-4.44-5-13.31-5.1-19-2.51-2,.91-3.89,2.08-5.93,3-1.39.61-3.53,1-4.62,2.13s-1.44,3.18-2.3,4.55a32.21,32.21,0,0,1-3.92,4.72c-1.94,2.05-5.06,4.44-5.5,7.31-.53,3.45.74,7.34,2.3,10.36,3.27,6.31,9.92,10.92,16.82,12.36a29.6,29.6,0,0,0,10.74.14c4-.63,6.79-1.67,9.57-4.57,2.15-2.23,5.29-1.94,7.92-3.42,3.74-2.1,3-5.41,1-8.51-2.29-3.65-.44-7.37.64-11.16a15.45,15.45,0,0,0,.24-9.25c-2.1-6.48-8.56-11.1-15-12.55-4.09-.92-7,0-10.84,1.52-4.43,1.75-8.79,3.76-13.66,3.51l2.13,5.14c3.11-3.87,9.44-6.85,14.29-7.56a20.4,20.4,0,0,1,14,3c4.62,3,6.89,8,9,12.94a24.73,24.73,0,0,0,3.31,6.42c1.24,1.53,3.73,3.26,3.78,5.39l4.53-2.6-1.11,3.61-2.33-.31-1.09-.7,3-3c-3.83-.45-6.86,2.79-10.66,2l-.8,5.91a7,7,0,0,1,6.22,2.39l1.33-5c-5.86,1.74-10.35,5.56-15.27,9a51.48,51.48,0,0,1-17.69,7.87c-2.88.68-2.86,5.11,0,5.8,6,1.47,11.89-.25,17.67-2a139.47,139.47,0,0,0,18.09-6.85l-3-5.2-.59.06-.71,5.51c4.3-1.2,8.88-2.75,11.47-6.67,2.7-4.09,2.32-9,1.58-13.64l-5.81,1.6c.22.75-.69,2.36-.7,3.22a4.69,4.69,0,0,0,1.39,3.36c1.75,2,5.2.4,5.14-2.13a26.5,26.5,0,0,0-6.27-16.36l-4.26,4.26c1.24,1.21,2.42,2.47,3.56,3.79l4.26-4.26c-.59-.63-1.21-1.22-1.79-1.86-.35-.39-.66-.85-1-1.21-1.65-1.57,1.95-.73-1.49,1.77l-4.53-2.6a4.75,4.75,0,0,1,0,1.13l5.14-2.13a9.35,9.35,0,0,0-1.89-1.36c-2.51-1.35-5.88,1.48-4.12,4.12,1.58,2.37,3.2,4,6.23,3.19,3.76-.95,2.17-6.76-1.6-5.81Z"/><path class="cls-4" d="M114.7,162.82c-1.41,5,2.17,9.71,5.62,12.91a17.61,17.61,0,0,0,6.12,3.84c3,1.07,6.32,1.11,9.13,2.78l3-5.2c-6.7-3.37-15.66-8-17.35-16a3,3,0,0,0-4.42-1.8c-.8.54-1.57,1.09-2.32,1.67l4.42,3.4a10.4,10.4,0,0,1,2.06-3.83c2.49-2.91-1.48-7-4.26-4.26q-1.44,1.45,2.7,2.55c.27-.28.54-.54.84-.8a11,11,0,0,0,1.72-1.55c2.13-2,0-6-2.93-5l-.62.06,2.6,4.53,4.13-6.22-5.2-3,.13-.19,3.4,4.42a45.3,45.3,0,0,1,4.93-5.7c2-2,0-6.11-2.93-5l-.85.21,1.52,5.61,3.5-2.38c1.91-1.3,2-5.05-.72-5.5a2.36,2.36,0,0,1,1.34,2.12c0,.13,0,.09.06-.13s.3-.65.38-.79c.47-.83,1-1.62,1.52-2.39.79-1.13,1.66-2.2,2.48-3.3,1.68-2.24-1.08-5-3.4-4.42a5.89,5.89,0,0,0-3.6,2.55c-2.18,2.86,2.31,5.77,4.73,3.65,4.38-3.84,9-6.68,14.91-7,3-.16,6.3-.61,9.3-.14s5.57,2.87,8.36,4.13c2.1.94,5.48-.68,4.43-3.4-.95-2.44-2.74-4-5.46-3.88a3,3,0,0,0-.8,5.91,9.08,9.08,0,0,1,4.74,3.71c1.49,2.26,5.94,1.68,5.61-1.52l-.13-1.28-4.53,2.6c2,1.27,2.69,3.68,3.54,5.79a17.78,17.78,0,0,0,3.63,6c1.76,1.79,5.29.51,5.14-2.13a5.11,5.11,0,0,0-3.65-4.9c-2.24-.86-4.24,1.66-3.71,3.7a15.18,15.18,0,0,0,3.81,6.8c2.36,2.46,6.52-.72,4.73-3.65l.06.13c2.06-3.29-3.14-6.32-5.2-3a5.37,5.37,0,0,0-.06,6l4.73-3.65a8.8,8.8,0,0,1-2.26-4.14L176,145.25l-.76-.91,5.14-2.13c-1.84-1.89-2.46-4.55-3.51-6.9a12.71,12.71,0,0,0-4.88-5.86c-1.81-1.14-4.77.31-4.53,2.6l.13,1.28,5.61-1.52a15.86,15.86,0,0,0-8.34-6.47l-.8,5.91-.35-.54,4.42-3.4c-3.25-1.47-6-4-9.61-4.71-3.88-.77-8.13-.34-12,0-7.22.54-12.9,4.06-18.22,8.72l4.73,3.65v.21l-3.4-4.42-.67.86c-.39.51-.77,1-1.15,1.53a25.76,25.76,0,0,0-2.53,4c-1.2,2.5-1.38,6.38,2.17,7l-.72-5.5-3.5,2.38c-2.35,1.59-1.65,5.69,1.52,5.61a6.63,6.63,0,0,0,2.45-.43l-2.93-5a54.63,54.63,0,0,0-5.87,6.92c-1.62,2.24,1,5,3.4,4.43a5.5,5.5,0,0,0,3.47-2.58c2.13-3.27-3.06-6.26-5.2-3L115.85,153c-1.38,2.08.51,4.32,2.6,4.53a4.54,4.54,0,0,0,2.22-.27l-2.93-5c-2.16,2.05-5.79,4.68-4,8.14,1.53,3,5.29,2.18,7.3.18l-4.26-4.26a17.75,17.75,0,0,0-3.61,6.49c-.71,2.31,2.29,5,4.42,3.4.76-.58,1.53-1.13,2.33-1.67l-4.43-1.8c2,9.69,12,15.52,20.12,19.62,3.44,1.73,6.4-3.2,3-5.2-3.92-2.33-9-1.89-12.67-4.51-2.16-1.55-6.26-5.3-5.43-8.22,1.07-3.73-4.74-5.32-5.81-1.6Z"/><path class="cls-4" d="M131.21,163.21c2.92,1.09,5.57,2.75,8.43,4a33.78,33.78,0,0,0,9.11,2.41c6.45.8,12.94-.06,19.27-1.36,3.79-.79,2.18-6.6-1.6-5.81-5.81,1.2-11.87,2-17.79,1.11s-10.44-4.13-15.82-6.14c-3.63-1.36-5.2,4.46-1.6,5.81Z"/><path class="cls-10" d="M137.53,135.88c2.64,2.56,5.66,5.56,5,9.6-.15,1,1.3,1.36,1.45.4.74-4.65-2.29-8-5.41-11.07-.7-.67-1.76.39-1.06,1.07Z"/><path class="cls-10" d="M162.05,134.78c-2.47,3.33-4.81,7-3.46,11.3.3.92,1.75.53,1.46-.4-1.23-3.86,1.1-7.17,3.3-10.14.57-.78-.73-1.53-1.3-.76Z"/><path class="cls-4" d="M195.06,129.64c-1.22,3.9-2.48,7.78-4,11.58l2.9.8a46.93,46.93,0,0,0,2.52-11.83,1.51,1.51,0,0,0-2.57-1.06c-2.84,2.8-3.93,6.44-4.56,10.29-.15,1-.14,3.29-1.42,3.56-1,.21-1.58-1.27-1.85-1.89a9.31,9.31,0,0,0-2.72-3.45L181.55,140l.5.34,1.82-2.36a9,9,0,0,1-.8-.58l-1.52,2.6a40.88,40.88,0,0,1,4.84,3.3,1.56,1.56,0,0,0,1.82.24c3.48-1.74,3.11-6.6,3.83-10a1.53,1.53,0,0,0-2.22-1.7,57.82,57.82,0,0,0-7.73,5.12c-1.16.91-.06,2.45,1.06,2.57a21.38,21.38,0,0,1,4.12.93,1.53,1.53,0,0,0,1.71-2.22c-.16-.21-.34-.93-.48-.68l-1.3.75-.14.08c1.56,1.15,3.06-1.46,1.52-2.61a2,2,0,0,0-1.38-.48,1.51,1.51,0,0,0-1.3.74,3.64,3.64,0,0,0,.47,3.72l1.71-2.21a25.28,25.28,0,0,0-4.93-1l1.07,2.57a52.45,52.45,0,0,1,7.12-4.65l-2.21-1.7c-.48,2.26-.28,7.12-2.44,8.2l1.83.23a46.35,46.35,0,0,0-5.45-3.77c-1.63-1.1-3,1.47-1.52,2.6a9,9,0,0,0,.8.58c1.41.91,3.16-1.27,1.83-2.37-.36-.29-.73-.54-1.11-.81-1.41-1-3,1.2-1.82,2.37a7.26,7.26,0,0,1,1.94,2.12,12.17,12.17,0,0,0,1.39,2.68,3.79,3.79,0,0,0,4.89,1c2.09-1.25,2.44-3.14,2.8-5.36.55-3.31,1.33-6.53,3.79-9l-2.57-1.06a43.85,43.85,0,0,1-2.41,11c-.65,1.85,2.21,2.57,2.9.8,1.5-3.8,2.76-7.68,4-11.58.58-1.85-2.33-2.65-2.9-.8Z"/><path class="cls-4" d="M179.85,140c2,3,3.87,8.27,8.44,7.49a10.44,10.44,0,0,0,3.34-1.53q3-1.68,6-3.17c3.68-1.77,7.45-3.35,11.19-5l-2.21-1.7c-.47,2.56-3.46,2.64-5.6,2.68l.76,2.81a34.49,34.49,0,0,0,11.39-7.93l-2.36-1.82a8.86,8.86,0,0,1-2.81,3.74l2.21,1.7A71.91,71.91,0,0,1,214.66,126l-2.81-.76a9.71,9.71,0,0,1-.92,5.32l2.75,1.16c.65-3,.91-6.81-2.21-8.63-1.58-.92-3.18.15-4.72.85a45.34,45.34,0,0,0-6.67,3.89,1.51,1.51,0,0,0,1.52,2.6,3.09,3.09,0,0,0,2.09-2.36c.09-1.24-1.33-1.73-2.27-1.3a7.34,7.34,0,0,0-1.64,1.3,1.51,1.51,0,0,0,1.47,2.51,67.62,67.62,0,0,0,7.44-2.74l-2.21-.9a6.89,6.89,0,0,1-1.1,5.35l2.6,1.52,3.9-7.41-2.75-1.16a24.28,24.28,0,0,1-5.39,10.27l2.57,1.06a30.42,30.42,0,0,1,1.44-7.51c.53-1.66-1.89-2.6-2.75-1.16a91,91,0,0,1-5.34,7.89l2.75,1.16a27.69,27.69,0,0,1,2.57-5.91l-2.8-.76a64.71,64.71,0,0,1-1.62,8.39h2.91a17.75,17.75,0,0,1-.39-5.53c.12-1.68-2.64-2.07-3-.4a15.71,15.71,0,0,1-1.59,4.91l2.75.36c-.65-3.21.79-6.44.93-9.66a1.51,1.51,0,0,0-2.27-1.3c-4.17,3.21-3.52,8.41-5.17,12.93-.57,1.58,2.09,2.73,2.76,1.16a10.84,10.84,0,0,0,1-2.8c.21-1.65-2-1.81-2.81-.76a8.43,8.43,0,0,0-.93,2.4c-.57,1.9,2.21,2.55,2.91.8a20.61,20.61,0,0,0,1.12-11.31c-.32-1.9-3.23-1.09-2.91.81a17.51,17.51,0,0,1-1.12,9.7l2.91.8a5.47,5.47,0,0,1,.62-1.68l-2.8-.76a1.74,1.74,0,0,0-.58,1.28l2.76,1.16c1.23-3.37.7-8.76,3.78-11.13l-2.26-1.3c-.15,3.6-1.57,6.82-.82,10.46a1.52,1.52,0,0,0,2.75.36,17.74,17.74,0,0,0,1.89-5.63l-3-.4a20.71,20.71,0,0,0,.49,6.33,1.52,1.52,0,0,0,2.91,0,71.51,71.51,0,0,0,1.72-9.19c.19-1.55-2.11-2-2.81-.76a30.71,30.71,0,0,0-2.87,6.63c-.53,1.76,1.79,2.43,2.75,1.16a91,91,0,0,0,5.34-7.89l-2.75-1.17a33.75,33.75,0,0,0-1.55,8.32,1.52,1.52,0,0,0,2.57,1.07,27.46,27.46,0,0,0,6.16-11.6c.41-1.61-1.93-2.72-2.75-1.16l-3.9,7.41a1.51,1.51,0,0,0,2.6,1.52,9.86,9.86,0,0,0,1.4-7.67,1.52,1.52,0,0,0-2.21-.9,60.64,60.64,0,0,1-6.73,2.44l1.47,2.52a2.37,2.37,0,0,1,1-.83l-2.26-1.3c.08-1.07.35-.68-.6-.24l1.52,2.6a45.8,45.8,0,0,1,6.22-3.68c1.68-.78,3-1.27,3.32,1.11a9.34,9.34,0,0,1-.36,3.06c-.34,1.57,2,2.78,2.75,1.16a12.65,12.65,0,0,0,1.33-6.84c-.11-1.36-2.08-2.22-2.8-.76a76.86,76.86,0,0,0-4.73,12c-.35,1.16,1.14,2.52,2.21,1.7a11.73,11.73,0,0,0,3.89-4.82c.63-1.46-1.08-3.17-2.36-1.83A32.49,32.49,0,0,1,200.28,139c-1.41.61-.64,2.83.76,2.8,3.52-.06,7.76-.83,8.5-4.89a1.53,1.53,0,0,0-2.21-1.7c-5.47,2.4-11,4.67-16.22,7.59-2.48,1.39-4.12,2.67-6.08,0-1-1.35-1.67-2.89-2.58-4.28-1.07-1.61-3.68-.1-2.6,1.52Z"/><path class="cls-4" d="M189.88,131.79c-.53,2.11,1.05,3.09,2.94,3.32,3.42.43,7.19-.11,10.6-.23s10.77.71,11.75-3.81c.41-1.89-2.49-2.7-2.9-.8-.47,2.16-6.81,1.54-8.5,1.59l-7.48.22c-.58,0-1.16.07-1.74.08-.39,0-.78,0-1.16,0-.66-.3-.86-.15-.61.44.47-1.88-2.43-2.69-2.9-.8Z"/><path class="cls-4" d="M199.66,140.28c-2.29.16-3.52-1.63-4.72-3.32-.67-1-1.13-1.56-.85-2.76a13.51,13.51,0,0,0,.47-2.89,1.51,1.51,0,0,0-3,0c0,1.48-.76,2.83-.62,4.32s1.21,2.62,2,3.74c1.67,2.25,3.7,4.13,6.68,3.92,1.92-.13,1.94-3.14,0-3Z"/><path class="cls-4" d="M198.7,130.84c3.22,0,3.23-5,0-5s-3.22,5,0,5Z"/><path class="cls-4" d="M189.88,94.29c-1.45,5.45-2.71,11.09-.72,16.57L191,109a2.78,2.78,0,0,1-1.79-3c.14-1.72-2.52-2-3-.4-1.26,4.66,1.7,8.33,5.36,10.84,4.77,3.25,9.3,3.71,14.94,3.06L205.05,118v.46l1.7-.69-1.69-.55a1.52,1.52,0,0,0-1.16,2.76,6.16,6.16,0,0,0,4.64.68c1.69-.38,6-3.08,6.92-.51l2.75-1.16c-.85-2-1.34-4.13-2.25-6.09a17.2,17.2,0,0,0-3.86-4.91c-1.38-1.39-1.76-3.38-3.17-4.65a7.2,7.2,0,0,0-1.73-1c-1.82-.93-2.25-1.85-2.83-3.72l-2.75,1.16a16.89,16.89,0,0,0,3.7,4.94l2.13-2.13a81.43,81.43,0,0,1-6.27-5.91c-1.68-1.76-3.12-4-5-5.55-2.44-2-6.4-1.37-6.44,2.26a1.51,1.51,0,0,0,1.51,1.5,3,3,0,0,1,2.16.34,14.46,14.46,0,0,0-.79,1.24A10,10,0,0,0,191.7,99a10.2,10.2,0,0,0,.44,5.81c.64,1.8,3.45,1.09,2.9-.8a22.25,22.25,0,0,1-1.2-8.56h-3q.06,9,.89,17.88l2.57-1.06-2.2-1.89a1.51,1.51,0,0,0-2.13,2.13c3.14,3.48,6.41,6.47,11.28,6.91,3.66.33,9.16.32,12.14-2.23,3.88-3.32-.06-5.91-2.65-8.41L197,95.45a1.52,1.52,0,0,0-2.52.67,52.66,52.66,0,0,0-1.74,15.41l2.27-1.3a11.65,11.65,0,0,1-4.8-4.71l-2.06,2.06c3.42,1.66,4.07,6.07,7.08,8.27,3.66,2.67,9.82,1.4,13.91.49,1.54-.34,3.21-.69,3.56-2.45a3,3,0,0,0-2-3.32c-1.47-.65-2.47-.38-3.9-1.48a23.48,23.48,0,0,1-2.82-3c-2.18-2.47-4.25-5-6.21-7.68a1.52,1.52,0,0,0-2.81.76l-.3,10.56c-.06,1.9-.53,4.34,1.64,5.21,2.37.94,6.21.64,8.73.53,1.87-.09,3.41-.54,4.46-2.18a1.53,1.53,0,0,0-.23-1.82c-1.15-1.29-2.55-1.45-4.12-2a10.33,10.33,0,0,1-6-4.94c-1-1.72-3.37-.21-2.6,1.52,1,2.25-1.07,5.51-.49,8.06a1.53,1.53,0,0,0,2.21.9,4.12,4.12,0,0,0,2-4.54L197.81,112a9,9,0,0,0,7.68,1.91c1.91-.36,1.1-3.26-.8-2.91a5.65,5.65,0,0,1-4.75-1.13,1.53,1.53,0,0,0-2.52,1.47l-.65,1.14,2.22.9c-.71-3.08,1.57-5.64.18-8.78l-2.6,1.52a13.68,13.68,0,0,0,4.28,4.7c1.75,1.18,4.94,1.32,6.28,2.82l-.24-1.83c-.78,1.22-4,.66-5.2.62a9.57,9.57,0,0,1-3-.15l-1.11-.16.05-1.76L198,99.18l-2.8.76a104.62,104.62,0,0,0,8.21,10,10.88,10.88,0,0,0,3.44,2.71c.37.16,2.11.31,2.35.61a13.19,13.19,0,0,1-2.5.5,25.26,25.26,0,0,1-7.46.45c-2.22-.34-3.18-1.55-4.33-3.32-1.49-2.29-2.67-4.65-5.23-5.89a1.52,1.52,0,0,0-2.06,2.06,14.69,14.69,0,0,0,5.88,5.79,1.52,1.52,0,0,0,2.26-1.3,50,50,0,0,1,1.63-14.61l-2.51.66,8.59,8.3,4.3,4.15,2.58,2.49c.8.78,1.91,1.15,1.24,2.14-1.53,2.24-7.48,1.94-9.83,1.74-4.23-.36-6.94-3.07-9.64-6.06L190,112.47l2.2,1.89c.89.76,2.7.35,2.57-1.07q-.82-8.91-.89-17.88c0-2-2.82-1.89-3,0a24.27,24.27,0,0,0,1.31,9.36l2.9-.8a7.49,7.49,0,0,1,.42-6.43c.55-1,1.14-1.66.93-2.88-.43-2.51-3-3-5.14-2.83l1.51,1.51c0-1.4,4,2.93,4.12,3,.83.95,1.68,1.87,2.55,2.78,1.87,1.94,3.85,3.77,5.9,5.52,1.46,1.24,3.56-.79,2.13-2.13a14.73,14.73,0,0,1-3.23-4.33c-.76-1.53-3.25-.46-2.75,1.16s1.18,3.56,2.72,4.71c.91.69,2.39,1,3.08,1.92.53.71.73,1.72,1.26,2.47,1.33,1.86,3.32,3.06,4.43,5.11s1.69,4.65,2.65,6.91c.67,1.55,3.33.44,2.76-1.16a4.66,4.66,0,0,0-4-3.25c-2.92-.35-6.17,2.84-8.92,1.28l-1.16,2.75,1.69.54a1.5,1.5,0,0,0,1.7-.69,3,3,0,0,0,.41-2c-.09-.73-.63-1.61-1.51-1.5-3.8.44-7.44.72-10.94-1.13-3.26-1.72-7.61-4.7-6.45-9l-3-.4a5.64,5.64,0,0,0,4,5.92,1.51,1.51,0,0,0,1.85-1.85c-1.81-5-.59-10,.73-15a1.51,1.51,0,0,0-2.91-.8Z"/><path class="cls-4" d="M186.27,103v2.13a1.51,1.51,0,1,0,3,0V103a1.51,1.51,0,0,0-3,0Z"/><path class="cls-4" d="M202.2,95.76l-.71-.5a1.52,1.52,0,0,0-2.21,1.7,7.22,7.22,0,0,1-.71,4.67c-.4.48-1,.69-1.47,1.16a2.84,2.84,0,0,0-.64,1.74c-.23,1.92,2.78,1.91,3,0,0,.34,1.17-.5,1.45-.79a4.37,4.37,0,0,0,1-2.35c.29-1.65.91-3.6.31-5.23L200,97.86l.71.5c1.58,1.13,3.08-1.48,1.52-2.6Z"/><path class="cls-4" d="M98.08,88.2a67.4,67.4,0,0,0-5.42,9.1c-1.5,3.25-2.07,6.79-3.56,10-1.07,2.32-2.78,4.61-2.44,7.27a8.81,8.81,0,0,0,3.53,6.49,1.52,1.52,0,0,0,2.21-1.7,16.18,16.18,0,0,1-1-4.58c.07-1.6,1.39-3.1,2.25-4.35a15.32,15.32,0,0,0,3-6.36c.26-1.6-1.83-2.73-2.75-1.16l-1.72,2.9,2.6,1.52q1.29-2.44,2.69-4.84L94.86,101l-.51.83,2.57,1.07a4.14,4.14,0,0,1,.72-2.69,1.51,1.51,0,0,0-2.37-1.82,9.51,9.51,0,0,0-3,4.21c-.64,1.62,1.9,2.59,2.75,1.16a58.64,58.64,0,0,0,3.3-6.34c1-2.37,2.85-4.27,4.16-6.5h-2.6A10.37,10.37,0,0,0,102.84,94c1.11.8,2.52-.52,2.21-1.7l-.31-1.19L102,92.28a9.58,9.58,0,0,0,3.07,3.2c1.61,1.29,2.34,3.06,3.81,4.46a1.51,1.51,0,0,0,2.37-1.82l-.81-1.9L108.06,98c2.5,2.22,4.64,5.95,3.4,9.41a24.42,24.42,0,0,1-2.22,3.56,18.78,18.78,0,0,1-3.68,4.32,35.4,35.4,0,0,1-4.27,3.16,3.69,3.69,0,0,1-2.58,1c-1.1-.07-1-.37-1.81-.63s-2.33,0-2.86-.23c-1-.55-1.32-4-1.59-5.11l-2.9.8A14.07,14.07,0,0,0,93.29,120c.89.82,2.67.3,2.57-1.07a17.69,17.69,0,0,0-2.21-7.48V113c-.39.66,1.54,5.14,2,5.87a3.33,3.33,0,0,0,2.53,1.87c2.65.3,5.79-2.9,7.6-4.54,2.6-2.38,5.51-5.78,6.6-9.2.68-2.15-.37-5.68-1.69-7.47-1.83-2.48-5.22-6.19-8.29-7.08-2.88-.84-4.28,1.53-5.28,3.9a52.23,52.23,0,0,0-3.29,12.16,7.19,7.19,0,0,0,0,3.57c.76,2.14,2.31,3.91,3.06,6.13a1.52,1.52,0,0,0,2.21.9,22.68,22.68,0,0,0,4.94-4.22c1-1.17,2.27-2,3.31-3.18,2.14-2.36,3.46-6.37,2.65-9.47a11.76,11.76,0,0,0-5.9-7.45c-2.74-1.28-6.09-.56-7.36,2.36-.39.91,0,2.4,1.3,2.27,2.36-.26,4.6-1.15,6.2,1.28l2.06-2.06A7.42,7.42,0,0,0,97.17,100a1.53,1.53,0,0,0,1.07,2.57c2,.12,3.82-.53,5.52.72.92.68,1.61,1.62,2.59,2.28s2.14-.26,2.26-1.3a4,4,0,0,0-1.33-3.56c-1-1-3.07,0-2.52,1.47,1.59,4.21-.61,7.21-4.24,9.07a12.19,12.19,0,0,0-1.66.91c-.32.23-1.06,1.18-1.33,1.28l-.23.3a1.38,1.38,0,0,0-.14-2,31.23,31.23,0,0,1-1-3.19l-2.75,1.16a24.16,24.16,0,0,0,4.34,4.75,1.51,1.51,0,0,0,2.36-1.83,24.12,24.12,0,0,0-3.59-5.26l-1.82,2.37a30,30,0,0,0,6.25,3.32c1.38.54,2.58-1.58,1.46-2.52A33.35,33.35,0,0,1,97.93,106l-1.82,2.36a31.63,31.63,0,0,0,6.91,3.32c1.55.53,2.35-1.46,1.47-2.51-2-2.38-4.64-3.68-7.46-4.88l-.76,2.81a50.2,50.2,0,0,1,10.49,2.62c1.63.54,2.63-1.92,1.16-2.75-3.78-2.15-8.12-2.76-12-4.67l-.36,2.76a16.67,16.67,0,0,1,10.6.57v-2.9a5.26,5.26,0,0,1-4.44-.74c-1.64-1-3.16,1.57-1.52,2.6a8.31,8.31,0,0,0,6.76,1c1.55-.39,1.29-2.4,0-2.9a19.31,19.31,0,0,0-12.2-.58,1.52,1.52,0,0,0-.36,2.75c3.87,1.91,8.24,2.53,12,4.67l1.16-2.76a55,55,0,0,0-11.29-2.73c-1.45-.15-2.12,2.23-.76,2.81,2.58,1.1,5,2.22,6.85,4.41l1.47-2.52a28.47,28.47,0,0,1-6.2-3c-1.54-1-2.84,1.12-1.83,2.37a33.35,33.35,0,0,0,4.45,4.52l1.47-2.52a26.21,26.21,0,0,1-5.53-3c-1.47-1-2.9,1.15-1.83,2.36a21.27,21.27,0,0,1,3.12,4.65l2.37-1.82A21.4,21.4,0,0,1,96,108.2a1.51,1.51,0,0,0-2.75,1.16c.4,2.08,1.61,6.13,3.87,7,2,.75,3.4-1.71,4.94-2.52,4.72-2.5,7.68-7,5.63-12.47l-2.52,1.46.45,1.43,2.27-1.3c-1.49-1-2.41-2.64-4.13-3.3s-3.65,0-5.5-.12l1.06,2.57a4.41,4.41,0,0,1,5.43-.93c1.26.66,2.94-.73,2.06-2.06-2.31-3.5-5.08-3.18-8.8-2.78l1.3,2.27c1.6-3.67,5.54.08,6.71,2,1.51,2.46,1.33,4.7.11,7.27-.81,1.74-2.27,2.66-3.54,4a26.85,26.85,0,0,1-5,4.59l2.21.9c-.88-2.63-3.44-5.37-3-8.09a54.85,54.85,0,0,1,2.65-10.47c.67-1.86,1.14-3.85,3.27-2.84,1.53.72,2.94,2.45,4.1,3.67a7.55,7.55,0,0,1,2.25,3.95c.55,2.56.19,3.41-1.1,5.41-1.78,2.77-4.65,6.28-7.71,7.71-2.47,1.15-2.59-1.56-3.29-3.44a5.93,5.93,0,0,0-1.27-2.37,2.88,2.88,0,0,0-4.15-.07,2,2,0,0,0-.47,2c.56,2.24,1.7,3.68,1.88,6.14l2.57-1.06a10.85,10.85,0,0,1-3-4.38,1.51,1.51,0,0,0-2.9.8c.49,2,.67,4.75,2.09,6.42s2.83.53,4.48,1.21,2.31,1.46,4.22.66a27.85,27.85,0,0,0,6.26-4.19,22.65,22.65,0,0,0,5-5.43c1-1.52,2.69-3.34,3-5.13a12.68,12.68,0,0,0-4.42-11.9,1.51,1.51,0,0,0-2.36,1.83l.81,1.9L111,97.81c-1.16-1.11-1.73-2.64-2.89-3.76s-2.75-1.71-3.52-3.29-3.18-.46-2.75,1.16l.31,1.19,2.21-1.7a5.23,5.23,0,0,1-1.84-2,1.53,1.53,0,0,0-2.6,0c-1.21,2.06-2.93,3.8-4,5.95-1.11,2.36-2.18,4.64-3.51,6.89l2.75,1.16a6.82,6.82,0,0,1,2.19-2.89L95,98.69a8.59,8.59,0,0,0-1.13,4.21A1.52,1.52,0,0,0,96.48,104a4.05,4.05,0,0,0,1-1.44c.75-1.73-1.6-3.24-2.6-1.52s-1.83,3.21-2.69,4.84a1.51,1.51,0,0,0,2.6,1.52l1.72-2.9-2.75-1.16c-.57,3.48-3.18,5.67-4.66,8.72-1.27,2.63-.33,5.5.42,8.17l2.21-1.7c-4.82-3.26.77-10.83,1.88-14.88,1.42-5.15,4.14-9.49,7.09-13.89,1.08-1.62-1.52-3.13-2.6-1.52Z"/><path class="cls-4" d="M203.57,118.37c-.19,0-.37-.1-.56-.16s.31.17,0,0l-.27-.16a1.51,1.51,0,1,0-1.52,2.6,4.74,4.74,0,0,0,1.53.62,1.5,1.5,0,0,0,.8-2.9Z"/><path class="cls-4" d="M216.71,122.27c-.25-.08,0,0,0,0l-.09-.07.12.12a1.13,1.13,0,0,0,1.6-1.59,2.49,2.49,0,0,0-1.08-.67,1.13,1.13,0,0,0-1.39.78,1.16,1.16,0,0,0,.79,1.39Z"/><path class="cls-4" d="M217.88,148.71c6.44,0,6.45-10,0-10s-6.44,10,0,10Z"/><path class="cls-4" d="M228,131.2c-1.85,3.43.45,7.14,4.3,7.42,2.13.16,4.19-.7,6.33-.67,2.6,0,5.17.58,7.77.62,4.7.07,10-.06,14.49-1.7,4-1.48,8.67-2.11,12-4.88l-5-2.93c-.11.44-3.39.91-3.94,1.13-1.16.49-2.23,1.19-3.43,1.59a19.54,19.54,0,0,1-9.64.15c-2.84-.62-5.59-1.6-8.47-2.07a23.67,23.67,0,0,0-3.85-.36c-1,0-3.34.81-4.28.44l1.8,1.38-.35-.58.3,2.32c-1,.8-1.07,1-.1.73a5.73,5.73,0,0,0,1.27-.42,24.94,24.94,0,0,0,2.34-1.1,16.15,16.15,0,0,1,6.3-1.55,111.21,111.21,0,0,1,14.94-.41l-1.52-5.61c-1.82.87-4.27.74-6.23,1.08a45.33,45.33,0,0,0-7,1.86,3.06,3.06,0,0,0-.72,5.51c3.3,2.2,8.75,1.81,12.49,1.29a9.82,9.82,0,0,0,5-1.74c1.46-1.19,1.38-2.18,1.8-3.85l-1.38,1.8a4.82,4.82,0,0,1,4.22-.37c.86.24,4.08.26,4.26.41v-4.26c-3.2,2.58-7.88,1.47-11.55.92-4.21-.64-8.33-1.26-12.51-2.09a12,12,0,0,0-5,0,22.47,22.47,0,0,1-2.65.83,8.17,8.17,0,0,1-1.71-.14c-3.6-.21-7.26,3-10,5-3.11,2.2-.28,7.31,3,5.2a55.53,55.53,0,0,1,7.59-4.28c2.57-1.1,5.24-1,8-1.09l17.69-.56c3.86-.12,3.88-6.14,0-6l-20,.63c-6.28.21-11.1,2.8-16.34,6.12l3,5.2a54.76,54.76,0,0,1,5.73-3.69c1.19-.64,2,0,3.68-.34,2.09-.41,3.7-1.38,5.88-.9s4,.95,6.1,1.23c7.78,1.06,16.61,3.7,23.32-1.72a3,3,0,0,0,0-4.26c-2.22-1.83-4.32-1.26-6.92-2a10.36,10.36,0,0,0-7.25.28,4.64,4.64,0,0,0-2.69,1.78,8.7,8.7,0,0,0-.43,1.21c-.52,1.13.55.29-.55.55-2.5.58-7.56,1.16-9.81-.34l-.72,5.5a43,43,0,0,1,8.22-2,20.8,20.8,0,0,0,6.42-1.5c2.86-1.35,1.25-5.51-1.52-5.61a109,109,0,0,0-12.65.21c-3.5.26-7.2.41-10.42,1.94a44.31,44.31,0,0,1-4.37,1.76,4.51,4.51,0,0,0-2.94,2.64c-1.11,3,1.59,5.44,4.45,5.23a37,37,0,0,1,4.73-.52,31,31,0,0,1,6.23,1.3,34.29,34.29,0,0,0,10.93,1.5,25.3,25.3,0,0,0,4.83-.58,46.9,46.9,0,0,0,4.72-2c3.15-1.19,6.48-1.16,7.41-5.08a3,3,0,0,0-5-2.93c-2,1.69-5.58,1.82-8,2.79a30.67,30.67,0,0,1-10,1.91,59.84,59.84,0,0,1-9.37-.31,23.11,23.11,0,0,0-4.63-.13c-.6.06-1.22.15-1.81.26l-1.22.27c-.8,0-.92.61-.35,1.72,1.84-3.41-3.36-6.46-5.2-3Z"/><path class="cls-4" d="M180.75,139.8c-3.94-2.55-8.31-4.5-8.8-9.78-.18-1.92-3.19-1.93-3,0a12.29,12.29,0,0,0,3.16,7.42c2,2.13,4.72,3.4,7.13,5,1.63,1.06,3.14-1.54,1.52-2.6Z"/><path class="cls-4" d="M212.82,128.2c-1.41,3.14-2.31,6.57-5.53,8.19a18.19,18.19,0,0,0-2.65,1.76c-1.74,1.29-3.39,1.4-5.51,1.64-1.91.21-1.93,3.22,0,3,1.74-.19,3.79-.12,5.44-.83s2.66-2.19,4.24-3c3.87-2,4.91-5.48,6.61-9.27.79-1.75-1.8-3.28-2.6-1.52Z"/><path class="cls-4" d="M201.15,155c1.28-.36,2.21-1.42,3.48-1.84,1.83-.62,1.05-3.53-.8-2.91a11.6,11.6,0,0,0-2,.89,7.08,7.08,0,0,1-1.47,1,1.51,1.51,0,0,0,.8,2.91Z"/><path class="cls-4" d="M19.91,146.52c-2.91,3.69,2,6.59,5.28,7.31,5.65,1.25,11.19-1.05,16.73-1.9l-.81-2.9-2.38.76c-1.54.49-1.37,3.09.4,3,5.21-.4,10.46-2.6,15.59-3.74s10.06-2.46,14.33-5.51a1.53,1.53,0,0,0-.36-2.75,49.55,49.55,0,0,0-9.48-2.17c-3.22-.46-6.59.25-9.74-.37v2.9a12.17,12.17,0,0,1,8,.26A18.36,18.36,0,0,0,62.11,143a1.52,1.52,0,0,0,1.45-1.91l-.41-1.36-1.45,1.9,1.92,1,.74-1.3c-2.36,1.72-6.25,2.28-9,3s-5.8,1.1-8.68,1.78-5.56,2.16-8.46,2.92a31.47,31.47,0,0,1-9.91.91c-1-.08-4.15-.71-4.31-2.22-.09-.85,2.6-1.12,3.34-1.31,3.11-.8,6.21-1.61,9.32-2.38a69.36,69.36,0,0,1,10.22-1.78c1.65-.15,10.74-1.32,11,1.22l1.51-1.5a81.65,81.65,0,0,0-17.09,3.48c-2.86.93-5.62,2.23-8.52,3a13.56,13.56,0,0,1-4.43.57c-.38,0-3.78-.51-3.72-1.17l-1.11,1.46c.63-.24,2.43.53,3.3.64a21.44,21.44,0,0,0,4.67,0c2.39-.22,5.39-.3,7.5-1.56,1.41-.83,2.32-1.79,4.07-1.85a30.89,30.89,0,0,0,3.47-.16c3-.46,5.6-2.12,8.5-2.9a1.52,1.52,0,0,0,0-2.9,17.63,17.63,0,0,0-11.9.45,1.52,1.52,0,0,0,0,2.9l3.62,1,.4-3a73.24,73.24,0,0,0-10.32,1.56c-3.14.87-7.44,4.71-10.52,2.42l-.36,2.75a95.3,95.3,0,0,0,13.86-3.87c1.81-.66,1-3.57-.8-2.91a95.3,95.3,0,0,1-13.86,3.87c-1.41.28-1.29,2.06-.36,2.76,2.69,2,5.76,1.11,8.52-.28,4.45-2.24,8.95-2.68,13.84-3.29,1.58-.2,2.17-2.47.4-3l-3.62-1v2.9a15.08,15.08,0,0,1,10.3-.45v-2.9c-2.6.7-5,2.15-7.58,2.72-2.38.52-5-.21-7.2,1-1.22.66-2.12,1.57-3.5,2a25.08,25.08,0,0,1-5.59.76,17.91,17.91,0,0,1-5-.45,4.14,4.14,0,0,0-2.59-.2,1.59,1.59,0,0,0-1.1,1.45c-.19,2.2,2.38,3.28,4.18,3.78a15.47,15.47,0,0,0,8.85-.61c3.61-1.14,7.06-2.65,10.72-3.65a77.91,77.91,0,0,1,13-2.4c.74-.08,1.6-.63,1.5-1.51-.34-3.26-2.92-4.24-5.92-4.42a60,60,0,0,0-14.22,1c-4.79.87-9.5,2.24-14.21,3.45-2,.5-6.83,1.05-6.09,4.27.63,2.74,4.17,5.08,6.77,5.17a38.18,38.18,0,0,0,13.37-1.48c2-.68,3.89-1.65,5.94-2.22,2.28-.64,4.65-.91,7-1.4q3.22-.69,6.39-1.64c1.92-.57,4.41-1.07,6-2.25a1.54,1.54,0,0,0,.75-1.31c-.31-2.58-2.46-3.91-4.93-4a1.53,1.53,0,0,0-1.46,1.91l.42,1.36,1.45-1.9c-2.33-.27-4.41-1.94-6.81-2.29a15.66,15.66,0,0,0-6.63.52c-1.36.38-1.5,2.6,0,2.9,3.1.61,6.25,0,9.39.34a47.74,47.74,0,0,1,9.83,2.2l-.36-2.75c-4.08,2.91-8.79,4.14-13.61,5.21-2.19.48-4.38.93-6.54,1.51-2.75.74-5.39,1.9-8.25,2.12l.4,3,2.39-.76a1.51,1.51,0,0,0-.81-2.9c-3.24.49-6.38,1.5-9.63,1.95a16.52,16.52,0,0,1-4.33.12c-.63-.07-5.93-1.41-5.11-2.45,1.18-1.51-.93-3.66-2.13-2.13Z"/><path class="cls-4" d="M39.69,167.29c2.34,4.26,8.79,1.07,12.16.13,1.91-.54,1.06-3.19-.8-2.91l-7.2,1.1c-1.51.23-1.36,2.57,0,2.9,6.23,1.55,12-1.56,16.85-5.2l-2.06-2.06a1.77,1.77,0,0,1-.8,1.09c-1.79.67-1.07,3.51.8,2.91,6.82-2.19,18.15-8.27,10-15.93a1.52,1.52,0,0,0-2.52.66,8.12,8.12,0,0,0-.29,2.94c.12,1.21.82,2.39.23,3.37-1.2,2-5.45,3.75-7.49,4.69a52.88,52.88,0,0,1-7.83,2.8c-2.17.61-6,2.27-7.72.34l-.67,2.52-.9-.28,1.06-1.86.51-.38.23,1.82A5.44,5.44,0,0,1,45.78,164L44,163.78l.22.54a1.53,1.53,0,0,0,1.45,1.11c5.31.27,9.68-2,14.09-4.72,3.71-2.26,8-3.9,7.39-9l-2.81.76a5.4,5.4,0,0,1,.48,1l2.75-1.16c-.24-.43-.43-.9-.63-1.36-.79-1.77-3.36-.23-2.6,1.52.25.59.85,1.31,1,1.91.31.86.92,0,0,.44l2.21.9c-1-3.41-3.47-5.53-6.74-3.07C56,156.27,51.88,159.9,45.66,161l.8,2.91c.48-.17,2.45-.76,2.44-.77L48.36,161c.51-.44.46-.55-.15-.32s-1.43.16-2.15.19l.4,3A38.4,38.4,0,0,0,57.63,157c1.46-1.28-.68-3.4-2.13-2.13A33.71,33.71,0,0,1,45.66,161c-1.44.58-1.44,3.07.4,3,1.32-.08,4.13.1,4.9-1.36a1.54,1.54,0,0,0-.54-2.06c-1.25-.85-3.55,0-4.76.46a1.51,1.51,0,0,0,.8,2.91,25.79,25.79,0,0,0,9.59-3.78c1.33-.85,2.6-1.8,3.84-2.78.77-.61,1.48-1.37,2.29-1.9,1.66-1.1,1.93-.76,2.46,1.08a1.54,1.54,0,0,0,2.22.9c3.77-1.66,1.09-4,0-6.47l-2.6,1.52c.2.46.39.93.63,1.36a1.51,1.51,0,0,0,2.75-1.16,8.58,8.58,0,0,0-.78-1.72c-.67-1.24-3-.76-2.8.76.49,4-4.5,5.62-7.43,7.37-3.49,2.08-6.9,3.58-11,3.37l1.45,1.1a4.45,4.45,0,0,0-1-1.87,1.53,1.53,0,0,0-1.82-.23,8.29,8.29,0,0,0-3.59,3,1.53,1.53,0,0,0,.24,1.83c.72.73,1.33,1.39,2.42,1.16a1.52,1.52,0,0,0,1.05-1.85,2.46,2.46,0,0,0-2.81-1.83,1.52,1.52,0,0,0-.66,2.52c1.89,2.06,3.71,2,6.31,1.53A52.2,52.2,0,0,0,58,164.5a38.25,38.25,0,0,0,9.13-5.21c1-.75,2-1.36,2.28-2.6.41-2-.89-3.8-.36-5.91l-2.52.67c1.25,1.18,2.7,2.61,1.85,4.52-.58,1.33-2.11,2.21-3.28,3a29.16,29.16,0,0,1-7.26,3.4l.8,2.91a4.15,4.15,0,0,0,2.6-2.48c.55-1.19-.71-3.07-2.06-2.06-4.14,3.1-9.14,6.23-14.53,4.9v2.9l7.2-1.09-.8-2.91c-1.63.46-7.66,3.26-8.76,1.26-.93-1.7-3.53-.18-2.6,1.52Z"/><path class="cls-4" d="M62.39,155.4l-.12-.08.75,1.3v-.17l-.74,1.3c.91-.53.46.2.2.4-1.22,1,.11,2.9,1.46,2.52,1.67-.47,3.73.43,5.25-.48,1.14-.69,2.23-1.93,2-3.29-.34-1.91-3.25-1.1-2.9.8l0,.23.15-1.16c.07-.09-.81.75-.85.78.16-.1-.55,0-.71-.05a9.74,9.74,0,0,0-3.76.26l1.47,2.52c2-1.56,1.74-4.91-.92-5.59a3.72,3.72,0,0,0-3.24.69,1.71,1.71,0,0,0,.42,2.62c1.59,1.11,3.1-1.5,1.52-2.6Z"/><path class="cls-4" d="M47.05,182c.76.43,1,1.47,1.83,1.92a4.22,4.22,0,0,0,2.58.27c1.69-.26,3.38-.61,5.09-.87A11.37,11.37,0,0,0,60,182c3.09-1.59,6.1-3.41,9.11-5.15,2.42-1.4,5.23-3,6.78-5.47.9-1.4,1-3.39-.89-3.95-1.17-.36-2.34.25-3.45.63L65.94,170c-3.59,1.24-7.29,2.32-10.81,3.77a14.32,14.32,0,0,0-3.52,2,10.86,10.86,0,0,0-1.53,1.42c-.59.66-.94.77-.37,1.29l-1.06,2.57a7.93,7.93,0,0,1,4.63.92c1,.54,2.76-.4,2.21-1.71a21.74,21.74,0,0,0-1.42-2.86L52,179.46a7.94,7.94,0,0,1,2.89,2.15,1.52,1.52,0,0,0,2.57-1.06,19.89,19.89,0,0,0-.67-4.61l-2.51,1.47a14.78,14.78,0,0,1,2.6,3.13,1.52,1.52,0,0,0,2.81-.76,28.7,28.7,0,0,0-.29-4.54l-2.75,1.16L57.93,179a1.52,1.52,0,0,0,2.37.31,10.09,10.09,0,0,0,1.4-2.23l-2.37.3,1.12,1.1a1.51,1.51,0,0,0,2.51-.67,18.15,18.15,0,0,0,.36-2.95l-2.81.76a13.54,13.54,0,0,0,1.59,1.87,1.52,1.52,0,0,0,2.52-.66l.3-1.45-1.85,1.05.88.31a1.49,1.49,0,0,0,1.7-.69l.43-.93h-2.6l.78,1.21a1.52,1.52,0,0,0,2.6,0l.85-1.59-1.3.75A10,10,0,0,0,73.7,172a1.52,1.52,0,0,0,0-2.13c-5.42-4.63-14.51.34-19.16,3.95-1.53,1.19.61,3.31,2.13,2.13,3.08-2.39,11.16-7.15,14.9-3.95v-2.13a7.88,7.88,0,0,1-2.45,2c-.94.46-2,.29-2.91.65-1.13.44-1.35,1.2-1.95,2.31h2.6l-.78-1.21a1.52,1.52,0,0,0-2.6,0l-.43.93,1.7-.69-.88-.32A1.52,1.52,0,0,0,62,174.59l-.3,1.45,2.51-.67-1.12-1.26a1.52,1.52,0,0,0-2.81.76,7.76,7.76,0,0,1-.24,2.15l2.52-.66-1.12-1.1a1.52,1.52,0,0,0-2.36.31,5.25,5.25,0,0,1-.93,1.62l2.36.3-1.27-2.61c-.82-1.68-3-.37-2.75,1.16a23.43,23.43,0,0,1,.18,3.74l2.8-.76a17.55,17.55,0,0,0-3.07-3.74,1.52,1.52,0,0,0-2.52,1.46,16.86,16.86,0,0,1,.56,3.81L57,179.48a9.72,9.72,0,0,0-3.5-2.62c-1.29-.58-2.9.66-2.06,2.06a12.89,12.89,0,0,1,1.12,2.15l2.21-1.7A10.91,10.91,0,0,0,48.65,178a1.53,1.53,0,0,0-1.07,2.57,2.38,2.38,0,0,0,3.18.34c.88-.53,1.36-1.62,2.1-2.31a13,13,0,0,1,4.49-2.48c2.9-1.1,5.89-2,8.83-3l4.5-1.54c.93-.32,2.87-1.43,3.84-1.12l-1-1.06c.39,1.63-4.73,4.22-5.86,4.88-2.12,1.22-4.26,2.41-6.39,3.62A17.3,17.3,0,0,1,54,180.47c-1.19.12-2.79,1-4,.34-.49-.27-.84-1.1-1.44-1.45A1.51,1.51,0,0,0,47.05,182Z"/><path class="cls-4" d="M78.3,186l.72-.19c1.58-.4,1.27-2.37,0-2.9a3,3,0,0,0-3.56.86l2.13,2.13A2.32,2.32,0,0,1,79,184.77c1.57-.68.45-3.25-1.16-2.75a12.33,12.33,0,0,0-7.34,5.71c-1.16,2.08-1.59,3.6-3.89,4.83-2.74,1.47-4.77,2.36-7.78.89l.3,2.36c1.93-1.7,5.23-2.61,7.55-3.7l-2.26-1.3a3.19,3.19,0,0,1-2.35,1.51l.8,2.9c3.83-1.32,7.77-3.11,8.54-7.52.17-1-.67-2.33-1.85-1.86a92.4,92.4,0,0,0-10.35,4.92l1.83,2.36a13.36,13.36,0,0,1,12.68-4.67l-.9-2.21a26.4,26.4,0,0,1-3.92,5.57c-1.11,1.19.36,3.4,1.82,2.36,1.65-1.17,3.28-2.38,4.83-3.67a13.71,13.71,0,0,0,2.18-2.06c.29-.39.4-1.39,1-.94l.3-2.37a69.11,69.11,0,0,0-6.71,5.36l2.13,2.13,7-6.52c1.42-1.33-.72-3.46-2.13-2.13l-7,6.52c-1.43,1.33.69,3.42,2.13,2.13a63.7,63.7,0,0,1,6.1-4.89,1.52,1.52,0,0,0,.31-2.36c-1.19-1-2.85-1.92-4.26-.7-.91.79-1.35,2.08-2.26,3a43.2,43.2,0,0,1-5.09,3.94l1.82,2.37a29.18,29.18,0,0,0,4.4-6.18,1.52,1.52,0,0,0-.9-2.21A16.38,16.38,0,0,0,59,191a1.51,1.51,0,0,0,1.82,2.37,84.18,84.18,0,0,1,9.63-4.61l-1.85-1.85c-.58,3.32-3.59,4.43-6.44,5.42a1.51,1.51,0,0,0,.8,2.9c2.52-.62,4.21-1.73,4.56-4.41.16-1.25-1.37-1.72-2.27-1.3-2.64,1.24-6,2.23-8.16,4.17a1.52,1.52,0,0,0,.31,2.37c4.37,2.14,7.6,1.12,11.63-1.34a9,9,0,0,0,3.58-4.27,9.73,9.73,0,0,1,6.12-5.52l-1.16-2.75a5,5,0,0,0-2.06,1.59c-1.19,1.48.8,3.59,2.13,2.13l.63-.09v-2.9l-.72.19c-1.88.48-1.08,3.39.8,2.9Z"/><path class="cls-4" d="M222.85,191l.77,1.73c.54,1.23,2.44.8,2.75-.36a3.7,3.7,0,0,0-1-3.92c-.86-.85-2.71-.28-2.58,1.06a15.09,15.09,0,0,0,2.57,7.23,1.52,1.52,0,0,0,2.81-.76,11.57,11.57,0,0,0-1.28-5.94c-.74-1.51-3.39-.44-2.75,1.16,1.93,4.81,2.78,10.11,4,15.12a9.14,9.14,0,0,1,.41,2.49c.34,1.65.13,1.94-.64.86a12.44,12.44,0,0,1-2.26-3.47c-1.36-2.51-2.66-5-2.66-7.9a15,15,0,0,0,0-2.76c-.11-.61-.52-3.26-.9-2.74-1.12,1.54-.14,4.92.23,6.54.52,2.32.42,5,1.36,7.2a11.11,11.11,0,0,0,3.87,4.35c1.07.82,2.58-.53,2.22-1.7q-2.19-7.08-3.79-14.32c-.41-1.89-3.32-1.09-2.9.8q1.59,7.25,3.78,14.32l2.21-1.7c-2.47-1.88-2.8-3.62-3.23-6.63-.3-2.14-1.24-4.34-1.12-6.52s1.5-5.79-1.85-6.47c-2.39-.49-3.62,2.4-3.68,4.35,0,1.63.8,3.14.84,4.8a15.63,15.63,0,0,0,.8,5.16c.82,2.24,6.45,14.69,9.9,9.37,1.79-2.75.49-6.35-.38-9.14-1.33-4.26-1.62-8.62-3.3-12.81l-2.75,1.16a8.43,8.43,0,0,1,.87,4.42l2.8-.76a11.8,11.8,0,0,1-2.15-5.71l-2.57,1.07.26,1,2.76-.36-.77-1.73c-.78-1.77-3.37-.24-2.6,1.52Z"/><path class="cls-4" d="M228.33,172.54q2.17,1.89,4.42,3.7l1.46-2.51a6.72,6.72,0,0,1-3-1.78l-2.12,2.13,7.09,6.8,1.83-2.37c-1.08-.81-2.2-1.58-3.24-2.43-1.31-1.05-1.12-1.09-1.37-2.63a5,5,0,0,0-2.56-3.54l-1.16,2.75a10.41,10.41,0,0,1,7.17,4.11l.9-2.21a2.66,2.66,0,0,1-2.23-.71,1.53,1.53,0,0,0-2.27,1.3c-.34,4.39,2.58,7.35,5.84,9.8s7.15,5.24,11.52,4.42c2.74-.51,4.58-3.06,2-5.17-3.62-2.92-9.09-2.24-12.8-5.23L238,181.34c3.78,2.16,6.35,5.84,10.64,7.16A1.52,1.52,0,0,0,250.1,186c-1.94-2.19-4.85-3-6.92-5.08-1-1-7.05-7.05-6.36-8.27l-2.37.3a22.89,22.89,0,0,0,7.83,5.15l.4-3-1.57-1.1-1.85,1.85c2.2.68,4.26,3.25,5.93,4.74l5.84,5.17,1.06-2.57c-2.77-.1-9.66-.5-10.53-4l-1.45,1.9a5.19,5.19,0,0,1,3.54,1.21c1.21,1,3.5-.35,2.37-1.83l-1.51-2c-.93-1.21-3.41-.59-2.75,1.16l.49,1.3c.67,1.8,3.59,1,2.9-.8l-.49-1.3-2.75,1.16,1.51,2,2.36-1.82a8.69,8.69,0,0,0-5.67-2.09,1.52,1.52,0,0,0-1.45,1.91c1.31,5.23,9,6,13.43,6.17a1.52,1.52,0,0,0,1.07-2.57l-7.63-6.77c-1.7-1.49-3.27-3.23-5.47-3.91a1.52,1.52,0,0,0-1.85,1.85,4.18,4.18,0,0,0,4.47,3.31,1.51,1.51,0,0,0,.4-3,19.06,19.06,0,0,1-6.5-4.37,1.52,1.52,0,0,0-2.36.31c-1.8,3.2,2,6.26,3.84,8.48a31.09,31.09,0,0,0,4.81,5c1.66,1.26,3.71,1.9,5.1,3.47l1.47-2.51c-3.91-1.21-6.44-4.87-9.92-6.87-1.43-.81-3.2,1.26-1.83,2.37A16.83,16.83,0,0,0,243,184c1.15.38,2.32.67,3.49,1,.58.16,1.17.32,1.74.52s3,.51,1.7.92c-2.72.88-6.07-1.74-8.12-3.22-2.76-2-5.8-4.26-5.51-8l-2.26,1.3c1.54,1,2.77,1.5,4.55,1a1.51,1.51,0,0,0,.9-2.21,13.23,13.23,0,0,0-9-5.5c-1.6-.23-2.73,1.8-1.16,2.76,1.84,1.12.55,3.14,1.83,4.58s3.65,2.76,5.34,4c1.38,1,3-1.2,1.82-2.36l-7.1-6.8c-1.39-1.34-3.51.76-2.12,2.13a9.83,9.83,0,0,0,4.27,2.55c1.37.43,2.66-1.55,1.47-2.51-1.5-1.22-3-2.45-4.42-3.71s-3.6.86-2.13,2.13Z"/><path class="cls-4" d="M243.44,178.58l-1.36-2.74a1.52,1.52,0,0,0-2.06-.54,1.54,1.54,0,0,0-.54,2.06l1.36,2.74a1.52,1.52,0,0,0,2.06.54,1.54,1.54,0,0,0,.54-2.06Z"/><path class="cls-4" d="M232.34,146.42a7.72,7.72,0,0,0,2.89,7.19l1.82-2.36a13.82,13.82,0,0,1-2.87-2.06c-1.19-1.11-3.41.37-2.37,1.83,2.33,3.24,4.61,4.85,8.64,4.08,2.53-.49,5,0,7.53-.43s4.56-2.07,7.06-2.4L254,149.7l-2.22.64.4,3c4.31-.73,11.26-1.55,14.31-5.2,3.28-3.92-4.18-4.15-6.26-4.08l.4,2.95c.79-.23,2.78-.9,3.56-.31l-.75-1.3a79,79,0,0,1-7.41,4.15c-1.58.65-3.21.2-4.88.36a25.6,25.6,0,0,0-4.14.95,6.33,6.33,0,0,1-4.83-.44,12.88,12.88,0,0,0-2.84-1.2,2.36,2.36,0,0,0-2.93,2.42l2.26-1.3c-.92-.22-1.22-.81-.91-1.76-.46-1.09-.21-1.51.74-1.24a14.51,14.51,0,0,1,3.08.21,51,51,0,0,0,5.8-.07c2.07-.14,4.11-.44,6.16-.77,1.16-.19,6.05-.94,3.05.8a22.51,22.51,0,0,1-10.83,2.77,33.3,33.3,0,0,1-5.73-.36,16.49,16.49,0,0,1-2.8-.64,14.31,14.31,0,0,0,2.12.65,1.53,1.53,0,0,0,1.85-1.86l-.18-.85-2.57,1.06,1.9,2.35a1.52,1.52,0,0,0,2.52-.67l-.51-.23,2.06-.54h.45l2.52.66-.21-1.48,1.45,1.9a14.57,14.57,0,0,1,1.82-2.66l-.31,2.37c1.16-.79,2.25-1.12,3.23-2.2l2.36.3,2,.07-.67-2.51-1.15.52c-1.9.38-1.09,3.28.8,2.91a4.62,4.62,0,0,0,2.48-1.31,1.51,1.51,0,0,0-.66-2.51c-1.69-.48-3.68-.81-5,.62a3,3,0,0,0-.35,3.73,1.52,1.52,0,0,0,2.37.3,2.47,2.47,0,0,0-.28-3.85c-2-1.35-4.94.2-6.6,1.33a1.51,1.51,0,0,0-.3,2.36,2.89,2.89,0,0,0,3.84.23c1.13-.79,2-2.1,1-3.36-2.31-3-6.81.08-7.41,2.86a1.52,1.52,0,0,0,1.45,1.91,2.65,2.65,0,0,0,1.48-5c-2.88-1.55-5,1.7-4.18,4.25a1.53,1.53,0,0,0,2.52.66c2.5-2.08-.39-4.78-2.86-4.46s-4,3.68-1.24,4.95a1.55,1.55,0,0,0,2.06-.54c2.52-4-4-6.66-5-2.09l2.51-.66-1.9-2.34a1.52,1.52,0,0,0-2.57,1.06,8.39,8.39,0,0,0,.29,1.65l1.85-1.85c-2.11-.39-5.58-1.78-5.81,1.8-.21,3.36,3.77,3.88,6.22,4.19a32.26,32.26,0,0,0,11.63-.54c2.85-.7,7.17-2.12,8.91-4.67,1.61-2.34-.52-4-2.72-4.39s-4.55.24-6.79.59a50.67,50.67,0,0,1-7.69.59c-2.85,0-7.73-1.42-9.78,1.36s.71,5.6,3,7a1.52,1.52,0,0,0,2.27-1.3l0-.6-.75,1.3c.68-.48,4.2,1.83,5.15,2,1.89.41,3.22-.47,5-1,2.23-.64,4.3-.17,6.5-.44,1.66-.21,3.13-1.34,4.54-2.14,1.8-1,7-2.66,6.57-5.42s-4.87-1.81-6.63-1.29c-1.59.47-1.34,3,.4,3,1,0,3.86-.38,4.46.37l-.39-1.46c-.32,1.59-4.89,2.58-6.08,2.93a61.42,61.42,0,0,1-6.84,1.53c-1.72.29-1.24,2.92.4,3a6.14,6.14,0,0,0,4.35-1.53,1.52,1.52,0,0,0-1.06-2.57c-3.42.45-6.1,2.48-9.63,2.52a28.68,28.68,0,0,0-4.54.15c-.93.16-2.39.67-3.33.42-1.31-.34-2.41-1.85-3.13-2.85l-2.36,1.82a16.66,16.66,0,0,0,3.48,2.53c1.43.78,3.21-1.25,1.83-2.37a5.13,5.13,0,0,1-2-5.06c.25-1.91-2.76-1.89-3,0Z"/><circle class="cls-11" cx="130.86" cy="139.57" r="2.81"/><path class="cls-12" d="M177.49,166.39l-.05.05.54-.54a1.46,1.46,0,0,1,.51-.12h-.16l-.29,0a1.82,1.82,0,0,0-1.28.58,1.86,1.86,0,0,0-.52,1.26,1.66,1.66,0,0,0,1.21,1.54v-2.9a1.23,1.23,0,0,1,1,2.24,1.51,1.51,0,0,0-1.52-2.61,1.79,1.79,0,0,0,1.36,3.27,1.52,1.52,0,0,0,1.1-1.45,1.57,1.57,0,0,0-1.1-1.45l-.05,0,.66.38,0,0,.39.67-.13,1-.41.41-.58.15h.07a2.11,2.11,0,0,0,.36,0,2,2,0,0,0,1.56-.88,1.52,1.52,0,0,0,.15-1.16,1.56,1.56,0,0,0-.69-.9,1.48,1.48,0,0,0-1.16-.15,1.76,1.76,0,0,0-.9.69Z"/><path class="cls-12" d="M164.53,174.28l.14.07c.12.08.08.05-.12-.1l.06.06-.08-.1.06.11c.06.1,0,.05-.05-.15,0,0,.12.64.05.05l.75-1.3,0,0,.76-.2h0l.76.21,0,0,.54.54c-.26-.39-.28,0,0,1.25l-.54.54,0,0a1.51,1.51,0,0,0-1.52-2.6,1.67,1.67,0,0,0-.59,2.26,1.61,1.61,0,0,0,2.21.63,1.48,1.48,0,0,0,.74-1.3,3.6,3.6,0,0,0-.47-1.53,2.69,2.69,0,0,0-1.08-1,1.61,1.61,0,0,0-1.16-.15,1.49,1.49,0,0,0-.9.69,1.52,1.52,0,0,0,.54,2.06Z"/><path class="cls-12" d="M174.41,158.51a1.74,1.74,0,0,0-.67-2.35,3.8,3.8,0,0,0-1.81-.46,1.51,1.51,0,1,0,0,3h.16l-.14,0a1.4,1.4,0,0,0,.28.06c.13,0,.35.18-.07,0l.06,0c-.56-.35-.7-.94-.41-1.77a1.51,1.51,0,1,0,2.6,1.52Z"/><path class="cls-4" d="M16.66,147.81c-1.51.63-2.37.86-2.66,2.6a9.77,9.77,0,0,0,.53,5.16l1.38-.58a5.62,5.62,0,0,1-.75-1.83c-.16-.79-.21-.93.31-1.42.3-.28.89-.43,1.24-.69A5.37,5.37,0,0,0,17.78,150c.6-.74-.4-1.8-1.06-1.06a6,6,0,0,0-1.9,4,.75.75,0,0,0,1.5,0A4.47,4.47,0,0,1,17.78,150l-1.06-1.06a6.81,6.81,0,0,1-2.22,1.59,1.74,1.74,0,0,0-.91,1.08c-.36,1.32.36,3,1,4.15.41.71,1.68.24,1.37-.58a8.85,8.85,0,0,1-.62-3.41,4.44,4.44,0,0,1,.23-1.63c.29-.52.92-.64,1.47-.87.88-.37.49-1.83-.4-1.45Z"/><path class="cls-4" d="M17,148.07a4,4,0,0,0,2.42-.68c.79-.55,0-1.85-.76-1.3a2.58,2.58,0,0,1-1.66.47c-1,0-1,1.46,0,1.51Z"/><path class="cls-4" d="M39.74,167.74l-3.05.77.85,1.11a3.62,3.62,0,0,1,.81-.8c.71-.57-.19-1.53-.91-1.18-1.65.79-4.17,2.07-5,3.78a3,3,0,0,0-.19,2.13c.13.51,1.36,3,1.25,3.09l.92.12a4.31,4.31,0,0,1-.95-1.38c-.34-.9-.33-1.16.51-1.62a4.27,4.27,0,0,0,1.85-1.64l-1.3-.76a23.11,23.11,0,0,0-1.12,2.49l1.48.2c-.1-1.38.23-3,2-3a.75.75,0,0,0,0-1.5c-2.52,0-3.7,2.18-3.54,4.48a.76.76,0,0,0,1.48.2,19.54,19.54,0,0,1,1-2.13.75.75,0,0,0-1.3-.76c-.71,1.19-3.06,1.32-3.13,2.87-.05,1.11,1.16,2.88,1.95,3.6a.79.79,0,0,0,.91.11c1.15-.51.62-2.09.24-3-.65-1.48-1.19-2.42.23-3.82a13.17,13.17,0,0,1,3.52-2.22l-.91-1.18a5,5,0,0,0-1,1.1c-.4.56.26,1.26.85,1.11l3-.78a.75.75,0,0,0-.4-1.45Z"/><path class="cls-4" d="M39.08,169.09a1.4,1.4,0,0,1,.09-.78.78.78,0,0,0-.27-1,.76.76,0,0,0-1,.27,2.84,2.84,0,0,0-.29,1.54.77.77,0,0,0,.75.76.76.76,0,0,0,.75-.76Z"/><path class="cls-4" d="M45.4,183.32c-.13,2.37-1.57,5.22,1.19,6.67.86.46,1.62-.84.76-1.3-1.93-1-.53-3.71-.45-5.37.05-1-1.45-1-1.5,0Z"/><path class="cls-4" d="M46.12,188.67c-.36-.52-1.06-1.34-1-2s1-1.28,1.5-1.64c.76-.58,0-1.89-.76-1.3a5.39,5.39,0,0,0-2.25,2.5c-.29,1.13.57,2.3,1.18,3.18s1.86,0,1.3-.76Z"/><path class="cls-4" d="M55.68,197.07a10.68,10.68,0,0,0,1.26,4c.47.85,1.77.09,1.3-.76a8.68,8.68,0,0,1-1.05-3.2c-.12-.95-1.62-1-1.51,0Z"/><path class="cls-4" d="M58.34,197.16v-1.25a.75.75,0,0,0-1.5,0v1.25a.75.75,0,0,0,1.5,0Z"/><path class="cls-4" d="M227.77,214.6c-.76.92-1.6,2-2.93,1.84-1-.11-1,1.4,0,1.5,1.73.2,3-1.05,4-2.28.61-.74-.45-1.81-1.06-1.06Z"/><path class="cls-4" d="M253.29,190.58c.14.83.29,1.65.41,2.48a1.76,1.76,0,0,1-1.16,2.22l.91,1.18A3.56,3.56,0,0,0,255,194c.15-1.33-.08-2.51.37-3.82.31-.92-1.14-1.32-1.45-.4a7.86,7.86,0,0,0-.43,2.76,5.3,5.3,0,0,1,0,1.54,2.75,2.75,0,0,1-1.12,1.29c-.73.57.2,1.49.91,1.18,2.77-1.22,1.84-4,1.44-6.4-.15-1-1.6-.55-1.45.4Z"/><path class="cls-4" d="M269,142.94a13.81,13.81,0,0,1-3.35,1.14l.85,1.11,1.14-1.72c.45-.69-.41-1.33-1-1l-2.11,1c-.8.37-.22,1.56.58,1.37a11.91,11.91,0,0,0,2.47-.88c.77-.36.23-1.63-.58-1.37l-2.72.86c-.78.25-.69,1.55.2,1.48a45.72,45.72,0,0,0,5.82-.79l-.58-1.38a14.37,14.37,0,0,1-2,.9.76.76,0,0,0,0,1.45l-.18-.41a.75.75,0,0,0,1.18.91,40.44,40.44,0,0,1,3.49-2.64l-1-1a2.25,2.25,0,0,1-1.23,1.45c-.89.15-.58,1.4.2,1.47,1.26.12,2.05-.31,3.38.25a16.11,16.11,0,0,1,3.21,2.28.75.75,0,0,0,1.25-.73,6.11,6.11,0,0,0-6-4.72.75.75,0,0,0,0,1.5,4.63,4.63,0,0,1,4.54,3.62l1.26-.73a21,21,0,0,0-3.87-2.71c-1.47-.7-2.17-.11-3.78-.26l.2,1.48c1.48-.25,1.4-.73,2.13-2.14.32-.62-.37-1.48-1-1a44,44,0,0,0-3.79,2.88l1.18.91a1.17,1.17,0,0,0-.72-1.8v1.45a22.6,22.6,0,0,0,2.36-1c.8-.41.22-1.54-.58-1.38a41.54,41.54,0,0,1-5.42.75l.2,1.48,2.72-.87-.58-1.38a7,7,0,0,1-2.11.73l.58,1.38,2.11-1-1-1-1.14,1.72c-.39.58.25,1.23.85,1.1a15.26,15.26,0,0,0,3.71-1.29c.87-.43.11-1.73-.76-1.3Z"/><path class="cls-4" d="M270.26,142.44c.43.3.31.35.87.33a4.19,4.19,0,0,0,.5,0c.75-.12,1.13-.45,1.8.07s1,1.17,2,1.27,1-1.4,0-1.5c-.65-.07-1.21-1.2-1.85-1.48-.9-.41-1.73.13-2.64.16s-1.56,0-2,.79a1.26,1.26,0,0,0,.48,1.69c.79.56,1.54-.74.76-1.3Z"/><path class="cls-4" d="M276.47,127.05l1.42,1.43c.5.49,1.56,0,1.26-.74a2.69,2.69,0,0,1-.09-2h-1.45l.6-.48-.38,1.4c.74,0,1.65,1.23,2.1,1.74l.91-1.18a2.22,2.22,0,0,0-2.59-.31c-.92.59-1.24,2-2.26,2.42l.85,1.11a3.5,3.5,0,0,1,3-1.26,3.61,3.61,0,0,1,2.75,1.22c.62.5,1.68-.14,1.19-.92a20.5,20.5,0,0,0-3.89-4.52c-.73-.63-1.8.43-1.07,1.07a18.86,18.86,0,0,1,3.66,4.21l1.18-.91a8.84,8.84,0,0,0-2-1.51,5.11,5.11,0,0,0-2.27-.11,4.67,4.67,0,0,0-3.78,2c-.35.51.24,1.35.85,1.1a3.3,3.3,0,0,0,1.49-1.12c.22-.27.39-.58.61-.85.54-.7.8-.83,1.59-.29s1.44-.57.91-1.18c-.8-.92-1.87-2.13-3.16-2.18-.8,0-.95,1-.38,1.4a1,1,0,0,0,1.61-1.22.76.76,0,0,0-1.45,0,3.89,3.89,0,0,0,.09,2.83l1.26-.73L277.54,126a.75.75,0,0,0-1.07,1.06Z"/><path class="cls-4" d="M278.28,123.72a12.22,12.22,0,0,0-5,1.37c-.86.44-.1,1.74.76,1.3a10.38,10.38,0,0,1,4.26-1.16c1,0,1-1.56,0-1.51Z"/><path class="cls-4" d="M263.57,144.1l5.52-.61c1-.1,1-1.61,0-1.51l-5.52.61c-1,.1-1,1.61,0,1.51Z"/><path class="cls-4" d="M253.81,186.42a4.45,4.45,0,0,1,.8,2.42.75.75,0,0,0,1.5,0,5.92,5.92,0,0,0-1-3.18c-.53-.8-1.84,0-1.3.76Z"/><path class="cls-4" d="M230,210.47a6.48,6.48,0,0,0-.66,2.05,12.6,12.6,0,0,1-.28,2.45c-.31.92,1.15,1.31,1.46.4.46-1.38.11-2.8.78-4.14.43-.86-.87-1.63-1.3-.76Z"/><path class="cls-4" d="M56.18,195a5.14,5.14,0,0,0-1.43,1.9l1.4.38c0-1,.69-1.75.8-2.73a.76.76,0,0,0-1.28-.53c-1.89,2.39-1.3,4.64.13,7.11a.75.75,0,0,0,1.3-.76c-1-1.77-1.8-3.48-.37-5.28l-1.28-.54a6.32,6.32,0,0,1-.56,1.34,4.11,4.11,0,0,0-.25,1.39c0,.71,1.1,1.07,1.41.38A4.07,4.07,0,0,1,57.24,196c.74-.63-.33-1.69-1.06-1.07Z"/><path class="cls-4" d="M46.32,182.16a2,2,0,0,1,.8-1.68.75.75,0,1,0-.76-1.3,3.62,3.62,0,0,0-1.54,3,.75.75,0,0,0,1.5,0Z"/><path class="cls-4" d="M40.36,164.9c-1.48-.24-2.79,1.11-3.94,1.88l.92,1.19a32.66,32.66,0,0,1,5-3.1.75.75,0,0,0-.76-1.3,36.2,36.2,0,0,0-5.29,3.33c-.65.55.21,1.66.91,1.19l1.41-1c.31-.21,1-.84,1.37-.78.95.15,1.36-1.3.4-1.45Z"/><path class="cls-5" d="M193.28,165.88c1,.4,2.23,0,3.24-.15.48-.07.28-.79-.2-.72a5.73,5.73,0,0,1-2.84.14c-.45-.18-.65.55-.2.73Z"/><path class="cls-4" d="M59.62,144.88h3.23a1.51,1.51,0,0,0,0-3H59.62a1.51,1.51,0,0,0,0,3Z"/><path class="cls-4" d="M231.25,172.38l.12-.19-.74.74c-.12.08-.11,0,.29,0s.67,0,1,0a8.67,8.67,0,0,1,1.75.38c2.55.77,3.64-3.21,1.1-4-2.1-.64-5.7-1.34-7.08.89s2.16,4.33,3.55,2.08Z"/><path class="cls-4" d="M180.89,176.13a3.17,3.17,0,0,0,3.54-1.53,2.06,2.06,0,1,0-3.56-2.08c-.1.18-.06.14.14-.14s.33-.23.15-.12q.48-.18.18-.09a1.11,1.11,0,0,1,.65,0,2.06,2.06,0,1,0-1.1,4Z"/><path class="cls-4" d="M199.12,137.21H199a2.07,2.07,0,0,0,0,4.13h.14a2.07,2.07,0,0,0,0-4.13Z"/><path class="cls-4" d="M222.22,135.47h-.09a2.06,2.06,0,0,0,0,4.12h.09a2.06,2.06,0,0,0,0-4.12Z"/><path class="cls-4" d="M233.47,151.4h.05a2.06,2.06,0,0,0,0-4.12h-.05a2.06,2.06,0,0,0,0,4.12Z"/><path class="cls-4" d="M282.27,130c.08.19.17.37.25.56a1.06,1.06,0,0,0,1.26.72,1,1,0,0,0,.72-1.27,3.84,3.84,0,0,0-.33-.85,1,1,0,0,0-1.41-.37,1.06,1.06,0,0,0-.37,1.41,1.91,1.91,0,0,1,.13.36l2-.55q-.21-.52-.45-1a1,1,0,0,0-1.41-.37,1,1,0,0,0-.37,1.41Z"/><path class="cls-4" d="M192.77,90.66l-.09-.14a1.05,1.05,0,0,0-1.41-.37,1,1,0,0,0-.37,1.41l.09.14a1.06,1.06,0,0,0,1.41.37,1,1,0,0,0,.37-1.41Z"/><path class="cls-4" d="M191.5,94l.32-.95c.38-1.12-1.29-1.77-1.88-.79A20.93,20.93,0,0,0,188.05,97c-.39,1.27,1.59,1.82,2,.55a18.17,18.17,0,0,1,1.68-4.26l-1.88-.79-.33,1c-.42,1.25,1.57,1.79,2,.54Z"/><path class="cls-1" d="M186.1,93.44c.29.17.35.19.17.06a2.1,2.1,0,0,0-1.59-.2,2.08,2.08,0,0,0-1.23.94,2.12,2.12,0,0,0,.74,2.82,2.09,2.09,0,1,0,1.91-3.62Z"/><path class="cls-1" d="M182.25,96.75c.29.26-.25-.42-.05-.09l.74-2.82-.13.09a2.1,2.1,0,0,0-.95,2.32,2.78,2.78,0,0,0,.72,1.2,2.06,2.06,0,1,0,2.92-2.91l.34.62-1,2.32.13-.08a2.09,2.09,0,0,0,.74-2.82,3.9,3.9,0,0,0-.59-.75,2.06,2.06,0,1,0-2.92,2.92Z"/><path class="cls-1" d="M178.38,92.51a5,5,0,0,0,1.21-.24,2.28,2.28,0,0,0,1.23-1,2.06,2.06,0,0,0-2.33-3c-.15.06-.72.17-.11.1a2.2,2.2,0,0,0-1.46.6,2,2,0,0,0-.6,1.46,2.08,2.08,0,0,0,2.06,2.06Z"/><path class="cls-4" d="M123.19,140.76q-.07.33.06-.12a2.07,2.07,0,0,0,.74,2.82,2.1,2.1,0,0,0,2.82-.74,2.28,2.28,0,0,0,.35-.87,2.17,2.17,0,0,0-.21-1.58,2.05,2.05,0,0,0-3.76.49Z"/><path class="cls-4" d="M128.84,137l.14-.18a2.23,2.23,0,0,0,.61-1.46,2.07,2.07,0,0,0-3.52-1.46l-.15.19a2.23,2.23,0,0,0-.6,1.45,2.06,2.06,0,0,0,3.52,1.46Z"/><path class="cls-4" d="M58.43,156.08c-1.34,2.25-1.36,5-2.6,7.32s2.32,4.43,3.56,2.08A18.36,18.36,0,0,0,61,161.66a13.57,13.57,0,0,1,1-3.5c1.36-2.28-2.2-4.36-3.55-2.08Z"/><path class="cls-4" d="M45,167.27a10,10,0,0,1,1.5-.47A2.08,2.08,0,0,0,48,164.27a2.1,2.1,0,0,0-2.54-1.44,10,10,0,0,0-1.5.46,2.28,2.28,0,0,0-1.23,1,2.05,2.05,0,0,0-.2,1.59A2.08,2.08,0,0,0,45,167.27Z"/><path class="cls-4" d="M37.24,171.78c3.21,0,3.22-5,0-5s-3.23,5,0,5Z"/><path class="cls-4" d="M35.44,172.91c3.22,0,3.22-5,0-5s-3.22,5,0,5Z"/><path class="cls-4" d="M49.85,181.37c3.22,0,3.22-5,0-5s-3.22,5,0,5Z"/><path class="cls-4" d="M17,151.89c3.22,0,3.23-5,0-5s-3.22,5,0,5Z"/><path class="cls-4" d="M121.39,163.23c3.22,0,3.22-5,0-5s-3.22,5,0,5Z"/><path class="cls-4" d="M121.3,159.92c3.21,0,3.22-5,0-5s-3.23,5,0,5Z"/><path class="cls-3" d="M135,191.72c3.22,0,3.22-5,0-5s-3.22,5,0,5Z"/><path class="cls-3" d="M138.92,192.85c3.22,0,3.22-5,0-5s-3.22,5,0,5Z"/></svg>