<svg xmlns="http://www.w3.org/2000/svg" viewBox="0 0 212.78 175.62"><defs><style>.cls-1{fill:#470e06;}.cls-2{fill:#fff;}</style></defs><title>海膽</title><g id="圖層_2" data-name="圖層 2"><g id="圖層_1-2" data-name="圖層 1"><ellipse class="cls-1" cx="112.16" cy="86.83" rx="44.26" ry="37.52"/><path class="cls-2" d="M112.16,124.69c-24.6,0-44.61-17-44.61-37.86S87.56,49,112.16,49s44.6,17,44.6,37.87S136.75,124.69,112.16,124.69Zm0-75c-24.22,0-43.92,16.68-43.92,37.18S87.94,124,112.16,124s43.91-16.68,43.91-37.17S136.37,49.65,112.16,49.65Z"/><path class="cls-1" d="M138.37,61c3.21,0,3.22-5,0-5s-3.23,5,0,5Z"/><path class="cls-1" d="M76.44,5.4c11.88,14.38,18.1,32.44,30.1,46.73.71.86,1.93-.37,1.22-1.22-12-14.28-18.22-32.35-30.1-46.73-.7-.86-1.92.37-1.22,1.22Z"/><path class="cls-1" d="M75.7,5.7a576,576,0,0,0,26.55,56.94c.52,1,2,.11,1.49-.87A570.05,570.05,0,0,1,77.37,5.24c-.41-1-2.08-.57-1.67.46Z"/><path class="cls-1" d="M96,174.78c-.56-18.63,5.56-36.72,4.86-55.37,0-1.11-1.78-1.11-1.73,0,.7,18.65-5.42,36.74-4.86,55.37a.87.87,0,0,0,1.73,0Z"/><path class="cls-1" d="M96.76,174.79a571.52,571.52,0,0,0,13.86-61c.19-1.08-1.48-1.55-1.66-.46a574,574,0,0,1-13.87,61.05.87.87,0,0,0,1.67.46Z"/><path class="cls-1" d="M115,123.4q5.77,18.3,11,36.77a.86.86,0,0,0,1.66-.46q-5.22-18.47-11-36.77c-.34-1.06-2-.6-1.67.46Z"/><path class="cls-1" d="M123.62,122.81q2.5,18.52,4.17,37.12c.1,1.1,1.83,1.11,1.73,0q-1.7-18.83-4.23-37.58c-.15-1.09-1.81-.63-1.67.46Z"/><path class="cls-1" d="M126.84,160.72a1.25,1.25,0,0,0,0-2.5,1.25,1.25,0,0,0,0,2.5Z"/><path class="cls-1" d="M127,159.93l.47.92a.86.86,0,0,0,1.18.31.88.88,0,0,0,.31-1.18l-.47-.92a.86.86,0,0,0-1.18-.31.88.88,0,0,0-.31,1.18Z"/><path class="cls-1" d="M147.86,105.1q18.54,5,36.92,10.47a.87.87,0,0,0,.46-1.67q-18.37-5.5-36.92-10.46a.86.86,0,0,0-.46,1.66Z"/><path class="cls-1" d="M151.81,97.4q17.06,7.89,33.76,16.52c1,.51,1.86-1,.87-1.5q-16.69-8.62-33.76-16.51c-1-.47-1.88,1-.87,1.49Z"/><path class="cls-1" d="M184.63,115.71a1.25,1.25,0,0,0,0-2.5,1.25,1.25,0,0,0,0,2.5Z"/><path class="cls-1" d="M185.12,114.6l1,.1a.87.87,0,0,0,.86-.86.88.88,0,0,0-.86-.87l-1-.1a.87.87,0,0,0,0,1.73Z"/><path class="cls-1" d="M72.64,100q-15,11.85-30.27,23.24c-.88.65,0,2.16.87,1.49q15.49-11.52,30.62-23.5c.88-.69-.36-1.91-1.22-1.23Z"/><path class="cls-1" d="M76.3,106.11q-16.36,9.24-33.13,17.75c-1,.5-.11,2,.88,1.49q16.76-8.5,33.13-17.75c1-.54.09-2-.88-1.49Z"/><path class="cls-1" d="M43.25,125.1a1.25,1.25,0,0,0,0-2.5,1.25,1.25,0,0,0,0,2.5Z"/><path class="cls-1" d="M42.93,124.06l-.69.77a.86.86,0,0,0,1.22,1.22l.69-.76a.9.9,0,0,0,0-1.23.88.88,0,0,0-1.22,0Z"/><path class="cls-1" d="M119.68,9.06q-5.61,22.28-10.34,44.77c-.23,1.09,1.44,1.55,1.67.46q4.72-22.49,10.34-44.77a.87.87,0,0,0-1.67-.46Z"/><path class="cls-1" d="M120,9.51c2.07,13.89-2,27.8-.25,41.72.14,1.09,1.87,1.1,1.73,0-1.79-14.07,2.28-28.12.19-42.18-.17-1.1-1.83-.63-1.67.46Z"/><path class="cls-1" d="M195.63,88.09Q173,84,150.24,80.89c-1.09-.15-1.56,1.52-.46,1.67q22.75,3.15,45.39,7.19c1.08.2,1.55-1.47.46-1.66Z"/><path class="cls-1" d="M195.19,88.38c-13.79,3.05-28,0-41.86,2.71-1.09.22-.62,1.89.46,1.67,13.83-2.75,28.06.34,41.86-2.71,1.09-.24.63-1.91-.46-1.67Z"/><path class="cls-1" d="M32.68,68.84q21.68,7.64,43.63,14.42c1.06.33,1.52-1.34.46-1.67q-22-6.78-43.63-14.42c-1-.37-1.51,1.3-.46,1.67Z"/><path class="cls-1" d="M33.16,68.29c14.12.34,27.19,6.77,41.28,7.42,1.12.05,1.11-1.68,0-1.73-14.08-.65-27.15-7.08-41.28-7.42a.87.87,0,0,0,0,1.73Z"/><path class="cls-1" d="M173.48.24C164,7.1,158,18,151.67,27.6q-11.35,17.15-22.2,34.61c-.59.95.9,1.82,1.49.87q10.14-16.32,20.72-32.36c6.57-10,12.83-21.85,22.67-29,.89-.65,0-2.15-.87-1.49Z"/><path class="cls-1" d="M173.53.4a657.51,657.51,0,0,0-37.38,66c-.49,1,1,1.87,1.49.87A657.51,657.51,0,0,1,175,1.27c.61-.93-.89-1.8-1.49-.87Z"/><path class="cls-1" d="M184.29,153.26c-4.64-10.87-14.19-19.26-22.19-27.65q-14-14.64-28.34-28.86c-.79-.78-2,.44-1.22,1.22q13.89,13.75,27.4,27.89c8.19,8.57,18.12,17.17,22.85,28.27.44,1,1.93.14,1.5-.87Z"/><path class="cls-1" d="M184.21,153.46a656.58,656.58,0,0,0-56-51.13c-.86-.69-2.09.52-1.22,1.22a658.36,658.36,0,0,1,56,51.14c.78.79,2-.43,1.22-1.23Z"/><path class="cls-1" d="M.94,102.8c12.06,3.09,25.29.39,37.45-.92q19.23-2.09,38.38-4.69c1.1-.15.63-1.81-.46-1.67q-18.93,2.58-37.92,4.63c-12,1.29-25.13,4-37,1a.86.86,0,0,0-.46,1.66Z"/><path class="cls-1" d="M.82,102.65A660.35,660.35,0,0,0,75.74,89.37c1.08-.26.63-1.93-.46-1.67A656.36,656.36,0,0,1,.82,100.92c-1.09.13-1.1,1.86,0,1.73Z"/><path class="cls-1" d="M137.46,57a33.09,33.09,0,0,0,7-7.68A1.74,1.74,0,0,0,142.07,47,11,11,0,0,0,136.9,58.5a1.73,1.73,0,0,0,1.67,1.27c2.33-.17,3-1.77,3.82-3.75q2.21-5.27,4.42-10.51c.59-1.41-1.36-2.73-2.55-2a15.51,15.51,0,0,0-5,5.22c-1,1.64,1.42,3.62,2.72,2.09a86.12,86.12,0,0,0,7.78-10.72,1.75,1.75,0,0,0-2.37-2.37,7.44,7.44,0,0,0-3.34,9c.46,1.3,2.43,1.82,3.16.41a153.82,153.82,0,0,0,6.41-14.16c.65-1.63-1.77-2.91-2.89-1.68A24.07,24.07,0,0,0,146.37,38a1.74,1.74,0,0,0,2.72,2.09c2.12-1.74,7.49-6.72,6.45-10a1.78,1.78,0,0,0-2.13-1.21l-.24,0a1.74,1.74,0,0,0-1.27,1.67v.19a1.74,1.74,0,0,0,3.22.87l6.16-11.15c1.08-1.95-1.91-3.7-3-1.75l-6.15,11.15,3.22.88v-.19l-1.27,1.66.24,0L152.21,31c.09.3-2.26,3.39-2.41,3.57a21.4,21.4,0,0,1-3.16,3.08l2.72,2.09a21.44,21.44,0,0,1,3.79-5.91l-2.89-1.68c-1.8,4.55-3.83,9-6.06,13.33l3.16.42a4,4,0,0,1,1.75-5.12l-2.37-2.37a80,80,0,0,1-7.24,10l2.72,2.09a11.35,11.35,0,0,1,3.79-4l-2.54-1.95L141,50.43c-.31.73-2,5.84-2.45,5.88l1.66,1.27A7.37,7.37,0,0,1,143.81,50l-2.36-2.37a30.53,30.53,0,0,1-6.43,7c-1.74,1.39.72,3.82,2.44,2.44Z"/><path class="cls-1" d="M152.66,33.3c3.22,0,3.22-5,0-5s-3.22,5,0,5Z"/><path class="cls-1" d="M160.17,20.42a13.21,13.21,0,0,1,3.49-5.2l-1.47-.61a8,8,0,0,1-2,4.58l1.48.62c-.17-1.51,1.11-3.15,1.79-4.4l1.9-3.46h-1.49a2.83,2.83,0,0,1-.31,3.18l1.61.43c.2-2.58,2.37-5.41,3.83-7.43.65-.91-.85-1.77-1.49-.88-1.71,2.37-3.84,5.32-4.07,8.31-.07,1,1.16,1.06,1.61.44a4.42,4.42,0,0,0,.31-4.92.87.87,0,0,0-1.49,0c-1,1.73-1.92,3.45-2.85,5.19-.65,1.21-1.24,2.15-1.08,3.54.08.66.94,1.23,1.48.61a10.14,10.14,0,0,0,2.5-5.81c.08-.78-1-1.09-1.48-.61a15.32,15.32,0,0,0-3.94,6c-.38,1.05,1.3,1.5,1.67.46Z"/><path class="cls-1" d="M168.47,8.12a8.48,8.48,0,0,0,3.17-3.39c.5-1-1-1.87-1.49-.88a6.79,6.79,0,0,1-2.56,2.78.87.87,0,0,0,.88,1.49Z"/><path class="cls-1" d="M154,88.46l6.81.92V87.72a18.68,18.68,0,0,1-5.36.77.87.87,0,0,0,0,1.73l3.92,0L159,88.66a4,4,0,0,1-3.15.67v1.73l7.72-1a.87.87,0,0,0,0-1.73,88.17,88.17,0,0,1-9.73-1V89a11.13,11.13,0,0,1,6.36-.6.86.86,0,0,0,.46-1.66l-5.09-1.9-.23,1.7a19.28,19.28,0,0,1,5.94,1,.87.87,0,0,0,.66-1.58l-5.64-3.32-.66,1.58a10.65,10.65,0,0,1,2.75,1.19v-1.5l-.95.14-.67,1.58,2.51.42.46-1.66-4.12-.57-.23,1.7a24.56,24.56,0,0,1,8.37.47l.23-1.7-4.35,0a.87.87,0,0,0-.44,1.61,14.8,14.8,0,0,0,5.16,1.57l-.44-1.61a10.14,10.14,0,0,1-3.75,1.43c-1,.18-.7,1.66.23,1.7l4.61.22-.23-1.7a2,2,0,0,0-1.57,1.12.87.87,0,0,0,.52,1.27,20.51,20.51,0,0,0,6.68-.07.87.87,0,0,0,0-1.67l-5.86-.86-.23,1.7,4.71-.39a.87.87,0,0,0,.23-1.7l-4.77-1.77L164,86.77l2.81.63.46-1.67a2.5,2.5,0,0,1-2.21-1.2l-1,1.27A23.63,23.63,0,0,1,171.21,88l.44-1.61-3.53.19a.87.87,0,0,0-.44,1.61,9.06,9.06,0,0,0,4.72,1.16L172,87.72l-1.42.69a.87.87,0,0,0,.23,1.7,24.35,24.35,0,0,0,5.91-.2.87.87,0,0,0,0-1.67l-3.61-.54-.23,1.69,4.47.28c1,.06,1.13-1.41.23-1.7q-4-1.26-7.84-2.77l-.46,1.66q5.13,1,10.3,1.76V87a8.23,8.23,0,0,1-4.69.11c-.92-.23-1.57,1.13-.67,1.58a9.58,9.58,0,0,0,5.17,1.12c1.11-.05,1.12-1.76,0-1.72l-2,.06c-.94,0-1.21,1.48-.23,1.69l1.62.36.23-1.7-2.55.08a.87.87,0,0,0,0,1.73,23.24,23.24,0,0,0,6.29,0,.86.86,0,0,0,.23-1.69l-2.85-.91-.23,1.7,2.22,0a.87.87,0,0,0,.23-1.7l-1-.61-.84,1.45,2.51.7-.38-1.44A2.33,2.33,0,0,0,182,89.1a.88.88,0,0,0,.83,1.1l5.34.06c.94,0,1.21-1.52.23-1.7l-4.83-.85c-1.08-.19-1.56,1.44-.46,1.67l6.15,1.3a.86.86,0,0,0,.46-1.66,22.67,22.67,0,0,0-6.23-1.49v1.73a44.23,44.23,0,0,1,7.26.74c1.09.2,1.56-1.47.46-1.67a46.47,46.47,0,0,0-7.72-.8c-1.14,0-1.09,1.62,0,1.73a21.11,21.11,0,0,1,5.77,1.42l.46-1.66-6.15-1.31-.46,1.67,4.83.85.23-1.7-5.34-.06.83,1.09.24-.61a.87.87,0,0,0-.38-1.44L181,86.8c-.8-.22-1.52.87-.84,1.44a4.43,4.43,0,0,0,1.78,1.06l.23-1.7-2.22,0a.87.87,0,0,0-.23,1.7l2.85.9.23-1.69a23.66,23.66,0,0,1-6.29,0v1.73l2.55-.08c.95,0,1.22-1.48.23-1.69l-1.62-.36-.23,1.7,2-.07V88a8,8,0,0,1-4.3-.89l-.66,1.58a10,10,0,0,0,5.61-.11c.75-.22.89-1.53,0-1.67q-5.17-.78-10.3-1.75a.86.86,0,0,0-.46,1.66q3.88,1.52,7.84,2.78l.23-1.7-4.47-.27c-.95-.06-1.2,1.55-.23,1.69l3.61.55V88.24a22.11,22.11,0,0,1-5.45.14l.23,1.7a5,5,0,0,0,1.83-.86.88.88,0,0,0-.44-1.62,5.83,5.83,0,0,1-3.85-.93l-.43,1.62,3.53-.19c.79,0,1.26-1.21.44-1.61a25.1,25.1,0,0,0-7.56-2.36c-.63-.09-1.49.59-1,1.27a4.57,4.57,0,0,0,3.24,2c1.07.16,1.57-1.42.46-1.67l-2.81-.63a.87.87,0,0,0-.46,1.67l4.77,1.77.23-1.7-4.71.39c-.89.08-1.27,1.55-.23,1.7l5.86.86V88.12a16.88,16.88,0,0,1-5.76.08l.51,1.27.54-.33a.87.87,0,0,0-.23-1.7l-4.61-.22.23,1.7a11.12,11.12,0,0,0,4.16-1.6.87.87,0,0,0-.43-1.61A11.82,11.82,0,0,1,160,84.36L159.6,86,164,86a.87.87,0,0,0,.23-1.7,26.21,26.21,0,0,0-8.83-.53c-.87.1-1.28,1.56-.23,1.7l4.12.56c1.08.15,1.57-1.48.46-1.66l-2.51-.43c-.87-.14-1.63,1.16-.66,1.59a2.46,2.46,0,0,0,2.69-.14.88.88,0,0,0,0-1.5,19.55,19.55,0,0,0-3.16-1.36.87.87,0,0,0-.67,1.58L161,87.4l.67-1.58a20.21,20.21,0,0,0-6.4-1,.87.87,0,0,0-.23,1.7l5.09,1.89.46-1.66a12.75,12.75,0,0,0-7.28.59c-.71.26-.93,1.51,0,1.67a91.69,91.69,0,0,0,10.19,1.09V88.35l-7.72,1a.87.87,0,0,0,0,1.73,6.34,6.34,0,0,0,4-.91.87.87,0,0,0-.44-1.61l-3.92-.05v1.73a19.84,19.84,0,0,0,5.82-.84c.75-.22.9-1.54,0-1.66l-6.81-.92c-1.09-.15-1.56,1.51-.46,1.66Z"/><path class="cls-1" d="M150.37,104.2l2.16.57c.77.2,1.55-.88.84-1.45l-.76-1.22-1.48.62,1.79,2a.87.87,0,0,0,1.44-.84l-1.07-3.44-1.44.84,2,2a.88.88,0,0,0,1.45-.84l-.49-2.39-1.58.67.55.77a.88.88,0,0,0,1.59-.67,4.59,4.59,0,0,0-.47-1.82.88.88,0,0,0-1.27-.52c-1.17.78-1.52,3.07.37,3.29s2.09-2.15,1.05-3.12l-1.23,1.22a9.8,9.8,0,0,1,2.52,3.5l.75-1.3a6.93,6.93,0,0,1-2.29-.56c-.87-.31-1.37.85-.84,1.45l1.38,1.56.38-1.44-1.59.18c-.7,0-1.22,1-.62,1.48a6.14,6.14,0,0,0,5,1.56.88.88,0,0,0,.44-1.62l-2.2-1.41-.66,1.58,4.09,1.46a.87.87,0,0,0,.84-1.44,17,17,0,0,1-2.9-3.09L156.94,103l1.86,1.14c.82.51,1.8-.71,1-1.35a20.92,20.92,0,0,1-3.36-3.61l-1,1.27a6.2,6.2,0,0,1,4.12,4l.83-1.09-1.86-1.08-1.19,1.19,3.42,1.52c.84.37,1.8-.63,1-1.36l-1-1.52-1.27,1L161,104c.82.74,2-.44,1.23-1.23l-1.55-1.51-1,1.36a7.64,7.64,0,0,1,2.52,1.81L163,103a16.56,16.56,0,0,1-2.51-.77c-.63-.25-1.24.48-1.07,1.06a4.15,4.15,0,0,0,1.35,2.14l.18-1.36-1.59.73c-.65.2-.92,1.26-.21,1.58l.61-.79v1.73l3.9.35a.87.87,0,0,0,.44-1.61l-2-1-.67,1.58,3.35.88c.67.17,1.44-.63,1-1.27a9.25,9.25,0,0,0-2.38-2.33c-.8-.56-1.8.72-1,1.36l.93.77,1-1.35a5,5,0,0,1-2.58-3.42l-1.44.84,4.06,3.15.61-1.48-1.07-.4c-.86-.66-2.09.51-1.22,1.23a31.87,31.87,0,0,0,4.7,3.24.87.87,0,0,0,.87-1.5l-1.62-1.64-1.19,1.18a4.28,4.28,0,0,0,1.68,1,.87.87,0,0,0,1-1.36,12.32,12.32,0,0,0-2.18-2.15l-1,1.35a3.33,3.33,0,0,1,1.8,1.43l.61-1.48a23.57,23.57,0,0,0-4.75.5.86.86,0,0,0-.61.6c-.33,2.46,3,3.28,4.89,3.7a.87.87,0,0,0,1-1.27,6.18,6.18,0,0,0-1.8-2l-.88,1.49,3.57,2,.66-1.58-1.15-.57-.62,1.47,1.39.33a.87.87,0,0,0,1-1.27l-1.55-2.24-1.36,1a12.18,12.18,0,0,0,2.12,1.44.86.86,0,0,0,1.05-1.35,7.5,7.5,0,0,1-1.59-2l-.74,1.3,2.27,1.3.61-1.47-1.69-.08c-.79-.2-1.51.85-.84,1.44a26.09,26.09,0,0,0,3,2.27l.44-1.62-1.48-.46-.67,1.58a7,7,0,0,1,1.63.45c.67.23,1.43-.67,1-1.27L171,106.9l-1.19,1.18,2.55,1.44a.87.87,0,0,0,1.18-1.18,4.45,4.45,0,0,0-1.33-1.56l-.84,1.45,1.62.82.21-1.58-1.94.18a.87.87,0,0,0-.83,1.1,2.8,2.8,0,0,0,1.09,1.58l1-1.35,0-.13-1.07,1.06a14.71,14.71,0,0,1,2.56.62l.23-1.7-.71,0a.87.87,0,0,0-.43,1.61l1.15.58a.87.87,0,0,0,1.19-1.18l-.74-1.43-.75,1.3,1.54.52.21-1.59-1,.15a.87.87,0,0,0-.46,1.67l2.15.93c1,.48,1.88-1,.87-1.5s-1.51-.69-2.56-1.1l-.46,1.67a2.74,2.74,0,0,0,1.89-.15.88.88,0,0,0,.2-1.58,3.34,3.34,0,0,0-2.41-.75.88.88,0,0,0-.75,1.3l.74,1.43,1.19-1.18-1.16-.58-.44,1.61.71,0c1,0,1.12-1.4.23-1.7a13.84,13.84,0,0,0-2.56-.61.87.87,0,0,0-1.06,1.06,1.5,1.5,0,0,0,.84,1.16c.81.53,1.8-.71,1.05-1.36l-.64-.82-.84,1.09a6.74,6.74,0,0,0,2.4-.25c.81-.18.74-1.17.2-1.58a3.4,3.4,0,0,0-2-1c-.79-.21-1.52.86-.84,1.45l1.06,1.2,1.18-1.18-2.54-1.44c-.7-.4-1.74.45-1.19,1.18l1.14,1.51,1-1.27a7,7,0,0,0-1.63-.44c-.92-.2-1.57,1.09-.66,1.58a4.07,4.07,0,0,0,2.35.69c.91.09,1.09-1.18.44-1.61a14.48,14.48,0,0,1-2.62-2l-.84,1.44a3.52,3.52,0,0,0,2.15.15.88.88,0,0,0,.61-1.48,4.84,4.84,0,0,0-3.49-1.81c-.66-.09-1.07.79-.75,1.3a12.67,12.67,0,0,0,1.86,2.34l1-1.36-1.77-1.17c-.7-.55-2,.16-1.36,1l1.55,2.25,1-1.27a4.92,4.92,0,0,0-1.85-.4.88.88,0,0,0-.61,1.48,2.44,2.44,0,0,0,1.93,1,.87.87,0,0,0,.66-1.58l-3.56-2c-1-.56-1.75.85-.88,1.49l1.19,1.35,1-1.27c-.59-.13-3.14-.6-2.79-1.08.22-.29,2.61-.3,2.8-.32a.88.88,0,0,0,.62-1.48,5.56,5.56,0,0,0-2.16-1.69c-.81-.38-1.88.71-1,1.36A12.38,12.38,0,0,1,167,106.7l1.05-1.36a4.49,4.49,0,0,1-1.67-1c-.7-.53-1.63.49-1.19,1.18a7.17,7.17,0,0,0,2.25,2.27l.87-1.5a27.86,27.86,0,0,1-4.35-3l-1.22,1.23a3.05,3.05,0,0,0,2.29.9.87.87,0,0,0,.61-1.47l-4.06-3.15c-.62-.48-1.72-.07-1.45.84a7.48,7.48,0,0,0,3.37,4.45c.82.52,1.81-.72,1.05-1.36l-.93-.78-1,1.36,1.76,1.71,1-1.27-3.35-.87a.87.87,0,0,0-.66,1.58l1.95,1,.43-1.62-3.9-.35c-1.12-.1-1.1,1.61,0,1.73l.32,0a.84.84,0,0,0,.75-.43l.16-.35a.93.93,0,0,0-.14-1,1.55,1.55,0,0,0-.82-.63l-.21,1.58a5.41,5.41,0,0,0,2-.9.87.87,0,0,0,.18-1.36l-.91-1.38L160,103.89a16.56,16.56,0,0,0,2.51.77.87.87,0,0,0,.84-1.45,12.53,12.53,0,0,0-2.87-2.08.87.87,0,0,0-1.05,1.36L161,104l1.23-1.23a4.64,4.64,0,0,0-1.73-1.18c-.63-.3-1.53.21-1.27,1a5.06,5.06,0,0,0,1.43,2.28l1-1.35L158.28,102c-.72-.32-1.69.39-1.18,1.19a3.69,3.69,0,0,0,3.36,1.92.87.87,0,0,0,.84-1.09A7.79,7.79,0,0,0,156,98.78c-.68-.21-1.43.66-1,1.27a22.74,22.74,0,0,0,3.63,4l1-1.36-1.86-1.14c-.7-.43-1.71.46-1.18,1.18a19.13,19.13,0,0,0,3.17,3.44l.84-1.45-4.09-1.46c-1-.34-1.46,1.07-.67,1.58l2.2,1.42.43-1.61a4.15,4.15,0,0,1-3.8-1.06L154.1,105a7.11,7.11,0,0,0,2.05-.25.87.87,0,0,0,.38-1.44l-1.38-1.56-.84,1.44a11.78,11.78,0,0,0,2.75.62c.73.08,1-.78.75-1.31A10.83,10.83,0,0,0,155,98.69c-.83-.74-2,.46-1.23,1.22l.68.11-1.27-.52a4.59,4.59,0,0,1,.47,1.82l1.58-.66-.55-.77a.87.87,0,0,0-1.58.66l.48,2.39,1.44-.84-2-2a.87.87,0,0,0-1.45.84l1.08,3.44,1.44-.84-1.78-2.05a.88.88,0,0,0-1.48.61,3,3,0,0,0,1.27,2.45l.84-1.45-2.16-.56a.86.86,0,0,0-.46,1.66Z"/><path class="cls-1" d="M157.47,101.09a4.13,4.13,0,0,0-2.18-.69.88.88,0,0,0-.61,1.48,7.13,7.13,0,0,1,1.21,1.67l1-1.27a10.93,10.93,0,0,1-2.11-.8c-1-.51-1.87,1-.88,1.49a12.74,12.74,0,0,0,2.53,1,.88.88,0,0,0,1-1.27,8.41,8.41,0,0,0-1.48-2l-.61,1.47a2.46,2.46,0,0,1,1.31.45c.93.62,1.79-.88.87-1.49Z"/><path class="cls-1" d="M175,111a1,1,0,0,1,.9.25l.66-1.58a3.74,3.74,0,0,0-1.88-.08.88.88,0,0,0-.21,1.58,1.82,1.82,0,0,0,1,.3.89.89,0,0,0,.84-.63l.35-1.21-1.06.6a2.93,2.93,0,0,1,.9.49l.61-1.47-1.4.06a.88.88,0,0,0-.75,1.3,2.61,2.61,0,0,0,3,1.26.87.87,0,0,0-.46-1.67.85.85,0,0,1-1-.46l-.75,1.3,1.4-.06c.68,0,1.23-1,.61-1.48a5.36,5.36,0,0,0-1.66-.94.87.87,0,0,0-1.06.61l-.36,1.21.83-.64a.12.12,0,0,1-.15-.06l-.21,1.58a1.75,1.75,0,0,1,1,.08c1,.31,1.4-1,.67-1.58a2.64,2.64,0,0,0-2.23-.42c-1.09.24-.63,1.91.46,1.66Z"/><path class="cls-1" d="M176.21,111.33a7.29,7.29,0,0,0,3.43,1c1.11.06,1.11-1.67,0-1.73a5.43,5.43,0,0,1-2.56-.81.86.86,0,0,0-.87,1.49Z"/><path class="cls-1" d="M177.58,111.37l.69.23a.87.87,0,1,0,.46-1.67l-.69-.23a.87.87,0,0,0-1.06.6.89.89,0,0,0,.6,1.07Z"/><path class="cls-1" d="M179.19,111.89a1.93,1.93,0,0,1,1,1c.24.5,1,.06.75-.44a2.63,2.63,0,0,0-1.32-1.29c-.5-.23-.94.52-.43.74Z"/><path class="cls-1" d="M180,112.07l1.17,1c.34.29,1-.1.68-.52a2.56,2.56,0,0,0-1.27-.93c-.53-.18-.75.65-.23.83l1.38.48c.46.16.78-.58.34-.79l-1.06-.5c-.5-.23-.94.51-.43.75l1,.5.33-.79-1.38-.48-.23.83a1.5,1.5,0,0,1,.75.54l.68-.53-1.16-1c-.43-.35-1.05.26-.62.61Z"/><path class="cls-1" d="M180,111.9l1.38.24c.55.1.78-.73.23-.83l-1.38-.25c-.54-.09-.78.74-.23.84Z"/><path class="cls-1" d="M158.29,105.58a1.9,1.9,0,0,0,1,1.31l.21-.8a.73.73,0,0,1-.69-.27c-.37-.42-1,.19-.62.61a1.5,1.5,0,0,0,1.31.52c.39,0,.65-.59.22-.8a1.08,1.08,0,0,1-.6-.8c-.11-.54-.95-.31-.84.23Z"/><path class="cls-1" d="M181.2,112.62a4.06,4.06,0,0,1,1.26.46l.11-.79-.39,0-.42.73a6.11,6.11,0,0,1,2.39,1.22c.43.35,1-.26.61-.62a7.42,7.42,0,0,0-2.77-1.44c-.39-.1-.77.44-.42.72a1.21,1.21,0,0,0,1.23.27.44.44,0,0,0,.1-.79,4.68,4.68,0,0,0-1.47-.55c-.55-.1-.78.73-.23.83Z"/><path class="cls-1" d="M184.39,114.49a2.16,2.16,0,0,0,1.13.89c.53.19.75-.65.23-.83a1.23,1.23,0,0,1-.61-.49c-.3-.47-1,0-.75.43Z"/><path class="cls-1" d="M184.9,114.73a1,1,0,0,0,1.44.58c.76-.38.67-1.34.5-2l-.79.33c.17.38-.2.8-.54.9a1.66,1.66,0,0,1-1.42-.42c-.43-.35-1,.26-.61.61a2.39,2.39,0,0,0,2.61.5,1.59,1.59,0,0,0,.71-2c-.2-.46-.89-.12-.79.34a1.55,1.55,0,0,1,.07.85c0,.11-.31.37-.35.15-.1-.55-.93-.32-.83.23Z"/><path class="cls-1" d="M141.43,114.65l3.66,2.11c1.35.78,2.45-.94,1.57-2a6.19,6.19,0,0,1-1.35-2.54l-2.17,1.26a8.05,8.05,0,0,0,3,1.91,1.3,1.3,0,0,0,1.6-1.59,11.11,11.11,0,0,0-1.11-2.46l-2.24,1.31c1.05,1.57,2,3.17,2.91,4.83l1.47-1.9-3-1.21c-1.22-.49-2.16,1.33-1.26,2.17l4.26,4c1.25,1.16,2.85-.55,1.83-1.84a12.51,12.51,0,0,1-2.31-4.59l-1.91,1.46a29,29,0,0,1,3.35,2.58l1.26-2.17-1.1-.57c-1.29-.91-2.44,1-1.57,2a33.65,33.65,0,0,0,4.17,4.27l1.84-1.83a4.22,4.22,0,0,1-1.7-2.26l-2.37,1,.68,1.54,1.12-2-2-.24c-1.07-.13-1.49,1.17-1.12,2a7.73,7.73,0,0,0,5.07,4.33,1.31,1.31,0,0,0,1.46-1.91,9.12,9.12,0,0,1-.89-2.08l-2.17,1.26a32.87,32.87,0,0,1,2.81,2.85l1.26-2.17a25,25,0,0,0-3.15-.89A1.31,1.31,0,0,0,152,123.4a22.17,22.17,0,0,0,5.08,4.23c1.32.81,2.49-1,1.57-2l-1.3-2.18-1.91,1.46a8.55,8.55,0,0,1,3.81,4.07l1.47-1.91a3.86,3.86,0,0,1-2.12-1c-1.36-1-2.66,1.28-1.31,2.24a7.26,7.26,0,0,0,2.74,1.25,1.32,1.32,0,0,0,1.46-1.91,10.74,10.74,0,0,0-4.74-5c-.9-.5-2.33.35-1.9,1.47a10.78,10.78,0,0,0,2,3.33l1.57-2a19.71,19.71,0,0,1-4.56-3.83l-1.26,2.17a26.83,26.83,0,0,1,3.15.89c1.32.46,2-1.27,1.26-2.17a29,29,0,0,0-2.81-2.84c-.9-.81-2.61,0-2.16,1.26a17.8,17.8,0,0,0,1.15,2.7l1.47-1.9a5.53,5.53,0,0,1-3.52-3.14l-1.12,2,2,.25c1.09.12,1.46-1.17,1.12-2l-.68-1.54c-.58-1.33-2.89-.38-2.37,1a7.42,7.42,0,0,0,2.36,3.4c1.28,1.05,3.11-.73,1.84-1.83a34.49,34.49,0,0,1-4.18-4.28l-1.57,2a4.44,4.44,0,0,0,1.72.83,1.31,1.31,0,0,0,1.26-2.17,34,34,0,0,0-3.87-3,1.31,1.31,0,0,0-1.9,1.47,15.91,15.91,0,0,0,3,5.74l1.83-1.84-4.26-4-1.26,2.17,3,1.21c1.12.45,1.95-1,1.46-1.91-.89-1.66-1.86-3.26-2.91-4.83a1.3,1.3,0,0,0-2.24,1.31l.85,1.84,1.59-1.6L145,111.6a1.31,1.31,0,0,0-2.16,1.27,11.14,11.14,0,0,0,2,3.68l1.57-2-3.66-2.11a1.3,1.3,0,0,0-1.31,2.24Z"/><path class="cls-1" d="M158.66,129.76a24.37,24.37,0,0,1,3.21,1.76c1.31.85,2.44-1,1.57-2a5.78,5.78,0,0,1-1.11-2.23l-2.37,1a10.06,10.06,0,0,0,1.88,1.92,5,5,0,0,1,1.77,1.71l1.47-1.9a19.34,19.34,0,0,0-3.08-.88c-1-.2-2.22.92-1.46,1.9a14.52,14.52,0,0,0,2.65,2.72c.83.65,1.73,1.44,2.8.87a1.34,1.34,0,0,0,.47-1.78l0-.05c-.73-1.5-3-.18-2.24,1.31l0,.05.46-1.77c.56-.3,1,0,.29-.51q-.42-.32-.81-.66a11.44,11.44,0,0,1-1.38-1.49l-1.47,1.91a19.34,19.34,0,0,1,3.08.88c1.15.43,1.91-1,1.46-1.91-.79-1.63-2.58-2.23-3.65-3.63-.84-1.1-2.79-.53-2.37,1a8.88,8.88,0,0,0,1.77,3.37l1.58-2a24.37,24.37,0,0,0-3.21-1.76c-1.51-.68-2.83,1.56-1.31,2.24Z"/><path class="cls-1" d="M163.63,132.48a9.39,9.39,0,0,1,3.1,3.41l1.77-1.77a29.72,29.72,0,0,1-2.71-1.61l-1.3,2.24a15.44,15.44,0,0,1,3.89,3.45c1.06,1.29,2.88-.55,1.84-1.84a17.94,17.94,0,0,0-4.43-3.85c-1.43-.88-2.68,1.32-1.3,2.24a27.23,27.23,0,0,0,2.71,1.61,1.31,1.31,0,0,0,1.77-1.78,12.14,12.14,0,0,0-4-4.34c-1.33-1-2.62,1.24-1.31,2.24Z"/><path class="cls-1" d="M167.64,136.42a8.33,8.33,0,0,1,2.14,2.58l1.46-1.91-.82-.22a1.3,1.3,0,0,0-.69,2.5l.82.22a1.31,1.31,0,0,0,1.47-1.9,10.18,10.18,0,0,0-2.55-3.1,1.33,1.33,0,0,0-1.83,0,1.29,1.29,0,0,0,0,1.83Z"/><path class="cls-1" d="M170,140a5.44,5.44,0,0,1,1.91,1.13l1.22-1.22a2.31,2.31,0,0,1-.8-1.28l-1.07,1.07c1,.33,1.49,1.41,1.91,2.32l1-1.27a2.77,2.77,0,0,1-.91-.56c-.83-.72-2,.45-1.22,1.22l2.49,2.34a.86.86,0,0,0,1.22-1.22,6,6,0,0,1-.84-1.28l-1.18,1.18a1.6,1.6,0,0,1,.9,1l1.27-1-2.21-1a.87.87,0,0,0-1.3.74c.05,1.5,2.25,2.23,3.33,2.88a.87.87,0,0,0,1.27-1l-.24-.7-1.45.84a2.12,2.12,0,0,1,.63,1.25l.83-1.09h0a.86.86,0,0,0-.87,1.49,1.62,1.62,0,0,0,.83.23.88.88,0,0,0,.83-1.1,3.68,3.68,0,0,0-1.06-2,.88.88,0,0,0-1.45.85l.25.7,1.27-1-1.46-.88c-.23-.14-1-.74-1-.51l-1.3.75c.73.35,1.47.7,2.21,1s1.51-.19,1.27-1a3.26,3.26,0,0,0-1.7-2.05.87.87,0,0,0-1.18,1.18,7.57,7.57,0,0,0,1.11,1.63l1.22-1.22-2.49-2.34L172,141.44a5.46,5.46,0,0,0,1.67,1c.77.32,1.25-.67,1-1.27a5.12,5.12,0,0,0-2.94-3.11.87.87,0,0,0-1.06,1.06,3.85,3.85,0,0,0,1.25,2c.83.73,2-.47,1.22-1.22a7.53,7.53,0,0,0-2.67-1.58c-1-.36-1.51,1.31-.46,1.67Z"/><path class="cls-1" d="M176.31,145.5a2.68,2.68,0,0,1,.86,1.33.87.87,0,0,0,1.27.52c-.5-.17-.65-.09-.44.24.06.14.12.29.19.44a4.78,4.78,0,0,0,.53.82,4.91,4.91,0,0,0,1.54,1.26c1,.52,1.86-1,.88-1.49a3.71,3.71,0,0,1-1.7-2.11,1.27,1.27,0,0,0-1.87-.65l1.27.51a4.34,4.34,0,0,0-1.31-2.1c-.83-.73-2.06.49-1.22,1.23Z"/><path class="cls-1" d="M116.25,124.41a29.65,29.65,0,0,0,1.6,3.06.87.87,0,0,0,1.58-.67l-.61-3.14-1.67.46a28,28,0,0,0,1.9,3.94.87.87,0,0,0,1.61-.44c.18-2,.68-5.82-2.35-5.36a.87.87,0,0,0-.52,1.27q1.63,2.49,3.51,4.81c.52.65,1.41,0,1.48-.61a13,13,0,0,0-.51-5.25.87.87,0,0,0-1.66,0,5.88,5.88,0,0,0-.47,2.77.87.87,0,0,0,1.61.44,10.61,10.61,0,0,0,1.13-3.26l-1.58.2a14,14,0,0,1,1.75,3.91.87.87,0,0,0,1.7-.23,22.86,22.86,0,0,0-.25-3.7c-.15-1-1.63-.67-1.7.23a47,47,0,0,0-.08,6.92l1.7-.23L123.36,126a.87.87,0,0,0-1.67,0,26.29,26.29,0,0,0-.6,3.83l1.61-.43L121,125.81a.87.87,0,0,0-1.58.21,9.93,9.93,0,0,0,.06,4.6l1.67-.46a11.13,11.13,0,0,0-1.23-2.89.87.87,0,0,0-1.61.43,7,7,0,0,0,.12,2.24c.16,1,1.72.73,1.7-.23a5.07,5.07,0,0,0-.36-2.28.87.87,0,0,0-1.7.23l-.12,1.48,1.61-.44-.52-.71c-.55-.73-1.89-.34-1.58.67l2.1,6.93a.87.87,0,0,0,1.7-.23,20.67,20.67,0,0,0-.86-5.46l-1.67.46q1.42,4.51,3.2,8.9c.34.84,1.72.82,1.7-.23a57.57,57.57,0,0,0-1.13-10.4c-.19-1-1.71-.74-1.7.23a50.87,50.87,0,0,0,.49,6c.13,1,1.81.74,1.7-.23a32.08,32.08,0,0,0-1.21-5.81l-1.67.46c.88,2.33,1.82,4.65,2.8,7,.36.83,1.59.34,1.61-.44a34.09,34.09,0,0,0-.29-5.44c-.14-1.06-1.71-1.15-1.73,0a19.92,19.92,0,0,0,.32,3.86c.18,1,1.68.71,1.7-.23l.13-5.33-1.7.23a37,37,0,0,1,1.54,11.26l1.7-.23-1.44-4a.87.87,0,0,0-1.7.23,28.83,28.83,0,0,0,.37,4.15l1.58-.67c-1-2-1.57-4.9-4.07-5.16-.61-.07-.92.6-.84,1.09a21.21,21.21,0,0,0,4,9.17.87.87,0,0,0,1.58-.67,22.58,22.58,0,0,0-1.69-5.38l-1.18,1.18a5.34,5.34,0,0,1,2.81,4.12l1.7-.23-.68-2.44c-.25-.91-1.78-.77-1.69.23l.39,4.68,1.62-.44a36.44,36.44,0,0,0-2.58-4.81.87.87,0,0,0-1.49,0c-2,2.91,1.19,6.66,2.57,9.18.49.9,1.77.26,1.58-.66l-1.14-5.57-1.66.46,1.43,5.65,1.44-.84L125.2,147a.87.87,0,0,0-1.45.84l1.34,4.09a.87.87,0,0,0,1.7-.23,6.54,6.54,0,0,0-.06-2.07l-1.47.61,1.37,1.69-1.58.67c.37.88,2.87,6.12,1.74,7.06a.86.86,0,0,0-.14,1,1.58,1.58,0,0,0,1.19.84c.9.19,1.6-1.14.67-1.58l-1-.47-.67,1.58,1.13.24c1.09.23,1.55-1.44.46-1.67l-1.13-.24c-.9-.19-1.6,1.14-.67,1.58l1,.47.67-1.58c.44.09.27,1.14.56-.49a4.19,4.19,0,0,0-.09-1.22,27.09,27.09,0,0,0-2.23-6.45c-.39-.91-1.84-.25-1.58.67a1.67,1.67,0,0,0,2.31,1.31.87.87,0,0,0,.63-.83,5.57,5.57,0,0,0-1.42-3.85.88.88,0,0,0-1.48.61,6.54,6.54,0,0,1,.06,2.07l1.7-.23-1.34-4.09-1.45.85,1.88,2.14c.59.67,1.65,0,1.44-.84l-1.43-5.65c-.27-1.09-1.89-.62-1.66.46l1.13,5.56,1.58-.66c-.84-1.55-3.8-5.67-2.57-7.44h-1.49a36.37,36.37,0,0,1,2.57,4.81.87.87,0,0,0,1.61-.43l-.4-4.68-1.69.23.67,2.44a.87.87,0,0,0,1.7-.23c.13-2.74-1.5-4.21-3.67-5.61-.79-.52-1.51.46-1.18,1.18a21.3,21.3,0,0,1,1.52,5l1.58-.66a20.22,20.22,0,0,1-3.79-8.76l-.83,1.1c1.18.12,2.16,3.43,2.58,4.31s1.73.22,1.58-.67a16.93,16.93,0,0,1-.31-3.69l-1.7.23,1.44,4a.87.87,0,0,0,1.7-.23,38.8,38.8,0,0,0-1.6-11.72.87.87,0,0,0-1.7.23L122.8,134l1.7-.23a12.15,12.15,0,0,1-.26-3.4h-1.73a34.15,34.15,0,0,1,.29,5.44l1.61-.44q-1.38-3.24-2.62-6.53c-.39-1-2-.62-1.67.46a29.47,29.47,0,0,1,1.15,5.35l1.7-.23a43.4,43.4,0,0,1-.43-5.58l-1.7.23a55.27,55.27,0,0,1,1.07,9.94l1.7-.23q-1.78-4.4-3.2-8.9c-.33-1.05-2-.61-1.67.46a19.27,19.27,0,0,1,.8,5l1.7-.23-2.11-6.93-1.58.67.53.7a.87.87,0,0,0,1.61-.43l.12-1.48-1.7.23.3,1.82,1.7-.23-.06-1.78-1.61.44a6.58,6.58,0,0,1,1,2.48.87.87,0,0,0,1.67-.46,6.32,6.32,0,0,1-.07-3.68l-1.58.2,1.7,3.58c.4.84,1.55.33,1.61-.44a14.81,14.81,0,0,1,.54-3.37h-1.67l1.06,3.54c.28.9,1.77.78,1.7-.23a47,47,0,0,1,.08-6.92l-1.7.23a13.52,13.52,0,0,1,.19,3.24l1.7-.23a14.85,14.85,0,0,0-1.93-4.32c-.37-.57-1.44-.57-1.58.21a6.71,6.71,0,0,1-1,2.85l1.61.43a3.75,3.75,0,0,1,.41-2.31h-1.66a12.31,12.31,0,0,1,.44,4.79l1.47-.61c-1.16-1.44-2.22-2.92-3.24-4.46l-.51,1.27c.51-.08.19,3.4.17,3.69l1.61-.44a23,23,0,0,1-1.73-3.52.87.87,0,0,0-1.67.46l.62,3.14,1.58-.67a28.59,28.59,0,0,1-1.61-3c-.46-1-1.95-.13-1.49.87Z"/><path class="cls-1" d="M100.25,120.18l1.48,4.79a.87.87,0,0,0,1.67-.46,14.48,14.48,0,0,1-.28-4.58l-1.7.23a35.87,35.87,0,0,1,1.74,5.44l1.67-.46a10.26,10.26,0,0,1-.44-4.89l-1.58.21a7.24,7.24,0,0,1,1.26,3.87.87.87,0,0,0,1.73,0,20.9,20.9,0,0,1,.73-4.18l-1.7-.23.22,5.13c0,.92,1.51,1.23,1.7.23a45.49,45.49,0,0,1,1.21-5l-1.7-.23a34.06,34.06,0,0,1-.55,6.21l1.58-.21-1.75-3.61a.87.87,0,0,0-1.58.2l-1.68,5.62,1.58-.21a29.63,29.63,0,0,1-2-6c-.23-1.1-1.86-.63-1.66.46a30.53,30.53,0,0,1,.45,7.14h1.73c0-1.71,1.43-7.43.45-2h1.67c-.34-1.43-.62-2.86-.84-4.32-.16-1-1.59-.64-1.7.23l-.69,5.52,1.61-.44a15.92,15.92,0,0,1-1.1-2.23.87.87,0,0,0-1.49,0,4.59,4.59,0,0,0-.38,4.35c.22.6,1.26,1,1.58.2a23.65,23.65,0,0,1,2.5-4.51h-1.49l.37,2.45c-.1,1,1.56,1.19,1.7.23A18.58,18.58,0,0,1,105.7,125l-1.7-.23a15,15,0,0,1-.24,4.47c-.22,1.08,1.38,1.55,1.66.46a17.09,17.09,0,0,1,1.36-3.52l-1.58-.2.06,3.19,1.44-.38-.49-.53a.88.88,0,0,0-1.45.39,27.75,27.75,0,0,0-1.53,5.43c-.2,1.08,1.42,1.56,1.66.46a47.44,47.44,0,0,0,1-6.61.87.87,0,0,0-1.7-.23l-.89,4.94h1.66c-.52-1.59-1-3.19-1.34-4.83-.24-1-1.62-.69-1.7.23a31.6,31.6,0,0,0,.07,6.45l1.7-.23-1-4.47a.87.87,0,0,0-1.7.23l0,3.53,1.61-.44-.59-1.25c-.27-.71-1.49-.92-1.67,0A12.36,12.36,0,0,0,100,134l1.7-.23L101.3,132l-1.67.46a7.89,7.89,0,0,1,.25,4.17l1.7.23a4.15,4.15,0,0,1,.23-2.48l-1.7-.23,0,5.41a.87.87,0,0,0,1.73,0,19.15,19.15,0,0,1,1.2-5.35h-1.67a10.2,10.2,0,0,1,.79,3.56c0,.92,1.53,1.24,1.7.23a25.51,25.51,0,0,1,1.27-4.7l-1.7-.23-.28,3.79c-.08,1.11,1.65,1.11,1.73,0a20.56,20.56,0,0,1,1.21-5.54h-1.66c.8,3.52-1.06,8-2,11.35h1.67a5.9,5.9,0,0,1-.27-4.22l-1.67-.46-1,3.86h1.67a14.37,14.37,0,0,1-.31-5.06c.1-1-1.5-1.18-1.7-.23l-1.06,5,1.58-.2a7.52,7.52,0,0,1-.82-3.63H98.82l.12,2.55c0,.94,1.47,1.22,1.7.23l.63-2.65-1.7-.23-.69,5.81,1.69-.23-.36-1.2a.87.87,0,0,0-1.7.23,43.9,43.9,0,0,0,.22,5.25c.11,1.09,1.75,1.14,1.73,0a11.68,11.68,0,0,1,1.25-5.8l-1.61-.43a11.72,11.72,0,0,1-.21,4.12l1.7.23a6.24,6.24,0,0,1,.79-3.33L100.8,142a8.26,8.26,0,0,1,.22,3.46c-.08,1.12,1.62,1.09,1.73,0l.71-2-1.61-.43a10.4,10.4,0,0,1-1.43,5.36h1.49l-.81-2.13a.87.87,0,0,0-1.61-.43A7.69,7.69,0,0,0,98,149.22l1.7.23c-.15-2,.78-2.26,2-3l-1.3-.75a7.47,7.47,0,0,1-1.23,4.78h1.5l-.78-1.95a.87.87,0,0,0-1.73,0,4.57,4.57,0,0,0,0,1.69c0,.5.54,1,1.1.83a2.69,2.69,0,0,0,1.87-1.92c.33-1-1.07-1.46-1.58-.67a6.15,6.15,0,0,0-1,2.14l1.58-.21a3.23,3.23,0,0,0-1.06-1.2.88.88,0,0,0-1.48.61,7.93,7.93,0,0,0,0,3.07.85.85,0,0,0,.6.6c1.75.28,2.51-1.3,3.58-2.53l-1.48-.61a9.46,9.46,0,0,1-1.26,4.24l1.61.43a13.79,13.79,0,0,0-.27-3.4.87.87,0,0,0-1.67,0,23.74,23.74,0,0,1-.86,3.21l1.45-.38-.5-.82a.87.87,0,0,0-1.67,0l-.86,5.15a.87.87,0,0,0,1.58.66l2.74-3.59-1.59-.67-1.46,6.19H99a4.45,4.45,0,0,0-1.93-2.61c-.93-.61-1.8.88-.87,1.49l1.14,1.58a.87.87,0,0,0,1.66,0l1.47-6.19a.87.87,0,0,0-1.58-.67l-2.73,3.6,1.58.67L98.6,154H96.93a1.89,1.89,0,0,0,.94,1.59.89.89,0,0,0,1.45-.39,23.74,23.74,0,0,0,.86-3.21H98.51a8.33,8.33,0,0,1,.21,2.94.88.88,0,0,0,1.62.44,12.53,12.53,0,0,0,1.49-5.11.88.88,0,0,0-1.48-.61c-.95,1.09-1.43,2-1.18.08l-1.47.61.79.86a.88.88,0,0,0,1.58-.21l.85-1.72-1.58-.67-.66.72,1.09.83a4.57,4.57,0,0,1,0-1.69H98.08a5.39,5.39,0,0,0,1,2.82.88.88,0,0,0,1.5,0,8.11,8.11,0,0,0,1.46-5.65.87.87,0,0,0-1.3-.74c-2.08,1.37-3,1.74-2.81,4.53.07.91,1.49,1.24,1.7.23a7,7,0,0,1,1.34-3l-1.61-.44a6.51,6.51,0,0,0,1,3,.87.87,0,0,0,1.49,0,12.08,12.08,0,0,0,1.67-6.23.87.87,0,0,0-1.61-.44,6.19,6.19,0,0,0-1,2.88h1.73a13.19,13.19,0,0,0-.28-3.92.87.87,0,0,0-1.58-.21,10.09,10.09,0,0,0-1,4.21.87.87,0,0,0,1.7.23,14.38,14.38,0,0,0,.27-4.58c-.07-.77-1.19-1.28-1.61-.44a13.67,13.67,0,0,0-1.49,6.67h1.73a43.9,43.9,0,0,1-.22-5.25l-1.7.23.37,1.2a.87.87,0,0,0,1.7-.23l.69-5.81c.11-1-1.48-1.16-1.7-.23L99,140l1.7.23-.12-2.55c-.06-1.11-1.78-1.12-1.73,0a11.85,11.85,0,0,0,1.05,4.5.88.88,0,0,0,1.59-.21l1.06-5-1.7-.23a15.55,15.55,0,0,0,.37,5.52.87.87,0,0,0,1.67,0l1-3.86a.87.87,0,0,0-1.67-.46,7.4,7.4,0,0,0,.27,5.14.87.87,0,0,0,1.67,0c1.08-3.8,2.93-8.29,2-12.27-.2-.89-1.39-.74-1.66,0a22.09,22.09,0,0,0-1.28,6h1.73l.28-3.79c.08-1-1.38-1.09-1.7-.23a25.51,25.51,0,0,0-1.27,4.7l1.7.23a12.15,12.15,0,0,0-.85-4,.88.88,0,0,0-1.67,0,21.11,21.11,0,0,0-1.26,5.81h1.73l0-5.41a.87.87,0,0,0-1.7-.23,6.94,6.94,0,0,0-.29,2.94c.1.88,1.55,1.28,1.7.23a12.32,12.32,0,0,0-.25-5.09c-.28-1.08-1.9-.62-1.67.46l.39,1.86c.21,1,1.66.71,1.7-.23l.2-1.71h-1.67A11.89,11.89,0,0,0,101,134a.88.88,0,0,0,1.62-.43l.05-3.53-1.7.23,1,4.47c.21.93,1.81.75,1.7-.23a31.61,31.61,0,0,1-.07-6.45l-1.7.23a50.07,50.07,0,0,0,1.35,4.83c.24.74,1.5.9,1.66,0l.9-4.94-1.7-.23a45.35,45.35,0,0,1-.9,6.15l1.66.46a28.49,28.49,0,0,1,1.54-5.43l-1.45.38.5.52a.86.86,0,0,0,1.44-.38,10.53,10.53,0,0,0,0-4.11.87.87,0,0,0-1.58-.21,18.09,18.09,0,0,0-1.53,3.93l1.66.46a17,17,0,0,0,.31-4.93.87.87,0,0,0-1.7-.23,18.58,18.58,0,0,0-1.09,4.14l1.7.23a5.47,5.47,0,0,0-.61-3.32.87.87,0,0,0-1.49,0,24.26,24.26,0,0,0-2.51,4.51l1.58.21.21-3h-1.49a15.91,15.91,0,0,0,1.1,2.23c.45.83,1.51.34,1.61-.44l.69-5.52-1.7.23c.22,1.46.5,2.89.84,4.32a.87.87,0,0,0,1.67,0c.24-1.36.49-5.12-1.93-4.78-2.18.31-1.93,4.85-1.92,6.28a.87.87,0,0,0,1.73,0,32.28,32.28,0,0,0-.52-7.6l-1.66.46a31.79,31.79,0,0,0,2.13,6.44c.32.71,1.38.44,1.58-.21l1.67-5.62-1.58.21,1.76,3.61a.87.87,0,0,0,1.58-.2,36.38,36.38,0,0,0,.61-6.67.86.86,0,0,0-1.69-.23,45.53,45.53,0,0,0-1.22,5l1.7.23-.22-5.13a.87.87,0,0,0-1.7-.23,24.47,24.47,0,0,0-.79,4.64h1.73a11,11,0,0,0-1.5-4.74c-.34-.59-1.47-.56-1.58.2a12.18,12.18,0,0,0,.44,5.81.87.87,0,0,0,1.67-.46,38.26,38.26,0,0,0-1.74-5.44.87.87,0,0,0-1.7.23,17,17,0,0,0,.34,5l1.67-.46-1.48-4.79c-.33-1.06-2-.61-1.67.46Z"/><path class="cls-1" d="M96.17,160a4,4,0,0,0-.67,2.7c.06.68,1,1.24,1.48.61a4.1,4.1,0,0,1,1-1l-1.48-.62c0,.33-.68,1-.79,1.47a.88.88,0,0,0,1.06,1.07,10.6,10.6,0,0,0,2.23-.58.87.87,0,0,0-.46-1.67c-1.9.49-3.49,1.54-3.09,3.7a.86.86,0,0,0,1.27.51,3.85,3.85,0,0,0,1.32-1.4.87.87,0,0,0-1.36-1.05c-1,1-2.25,3.38-.67,4.4a.85.85,0,0,0,.87,0,2.62,2.62,0,0,0,.87-3,.87.87,0,0,0-1.67,0,29.33,29.33,0,0,0-.69,3.48,13,13,0,0,0-.11,1.39c0,.33-.16,1.37.17,1.12-.88.66,0,2.16.88,1.5a1.6,1.6,0,0,0,.72-1.34c.16-1,0-2.12.15-3.17.13-.85.35-1.69.55-2.52H96.06c.89.81,1.5.6,1.83-.65l-1.36-1-.7.78,1.27.52A2.17,2.17,0,0,1,99,163.69L98.52,162a10.6,10.6,0,0,1-2.23.58l1.06,1.06c.22-.86.85-.95.86-1.93a.87.87,0,0,0-1.47-.61,4.38,4.38,0,0,0-1,1l1.48.61a2.13,2.13,0,0,1,.43-1.83c.59-.94-.9-1.81-1.49-.87Z"/><path class="cls-1" d="M71.76,102a5.77,5.77,0,0,0-2.91,3.15.87.87,0,0,0,1.36,1,19.26,19.26,0,0,1,3-2l-1-1.36a18.2,18.2,0,0,1-2.76,2.79.87.87,0,0,0,.84,1.44,12.21,12.21,0,0,0,3.7-2.17c.78-.66-.21-1.8-1.05-1.36a19.26,19.26,0,0,0-3.7,2.54c-.67.58,0,1.67.84,1.45a31.55,31.55,0,0,0,4.64-1.74l-.87-1.49-3.49,2.24a.87.87,0,0,0,.88,1.49,27.68,27.68,0,0,1,4.31-1.46L74.82,105c-1.53.71-3,1.49-4.46,2.35A.87.87,0,0,0,71,108.9a26.17,26.17,0,0,0,4.56-1.42c1-.41.65-2-.46-1.67-3.14.85-6,1.82-8.46,4-.75.69.2,1.79,1,1.36l4.16-2.15c.86-.44.25-2-.66-1.58a15.42,15.42,0,0,1-4.52,1.15l.74,1.3a4.43,4.43,0,0,1,2.4-2.28l-.88-1.5-2.29,1.63.88,1.49a11,11,0,0,1,3.61-1.78.87.87,0,0,0-.46-1.67l-3.87.84,1,1.27L69.53,106l-1-1.35L66,107.42l1.36,1c.19-.39.37-.79.55-1.19a.86.86,0,0,0-1.35-1l-3.73,2.92c-.78.6.22,1.86,1.05,1.35l1.57-1-.87-1.5a28.58,28.58,0,0,0-3.89,3.14c-.75.73.2,1.73,1.05,1.36L67.47,110l-1.18-1.19a8.29,8.29,0,0,1-3.16,2.57c-.83.46-.26,2,.67,1.58l4.33-1.8c1-.42.58-2.08-.46-1.67q-4.57,1.79-9,4l1.18,1.18a11.29,11.29,0,0,1,1.76-2c.68-.68-.21-1.91-1-1.36l-4.86,3.2A.87.87,0,0,0,56.4,116l8.52-2.26a.87.87,0,0,0-.46-1.67c-4,.79-7.16,2.91-10.39,5.28-.87.64-.1,2.07.88,1.49l4.15-2.47a.87.87,0,0,0-.66-1.58l-4.22,1.1.84,1.44c.3-.3.62-.58.95-.85.86-.74-.37-1.9-1.22-1.23L52.63,117l1.23,1.22a5.3,5.3,0,0,1,2.77-1.39L56,115.24c-3.38,1.48-7.12,2.51-9.16,5.84a.87.87,0,0,0,.51,1.27c3.48.63,5.84-2.15,8.36-4.1.81-.63-.22-1.79-1.05-1.36-3.14,1.63-6.32,3.18-9.42,4.88-1,.54-.1,2,.87,1.5,3.1-1.71,6.29-3.25,9.43-4.89l-1-1.36c-1.84,1.42-4.06,4.14-6.68,3.66l.52,1.27c1.83-3,5.52-3.89,8.55-5.22.91-.4.25-1.82-.67-1.58A8.84,8.84,0,0,0,52.63,117c-.86.71.37,1.9,1.23,1.22l2.15-1.7-1.22-1.23c-.34.27-.65.56-1,.86a.87.87,0,0,0,.85,1.44l4.22-1.1-.67-1.58-4.16,2.48.88,1.49c3.09-2.26,6.15-4.34,10-5.1l-.46-1.67-8.52,2.26.67,1.58,4.86-3.2-1-1.36a20.83,20.83,0,0,0-2,2.38c-.55.76.49,1.53,1.18,1.18,2.8-1.38,5.64-2.64,8.55-3.78l-.46-1.67-4.33,1.8.66,1.58a10.51,10.51,0,0,0,3.78-3.18c.57-.79-.49-1.49-1.18-1.19L60.87,111l1.05,1.36a25.52,25.52,0,0,1,3.53-2.86c.92-.62.09-2.09-.87-1.5L63,109l1,1.36,3.73-2.92-1.36-1c-.18.4-.37.8-.55,1.19-.4.83.65,1.83,1.35,1l2.49-2.78c.61-.69-.21-2-1-1.36a8,8,0,0,0-2.35,2.56.88.88,0,0,0,1,1.27l3.87-.84-.46-1.67a13.34,13.34,0,0,0-4,2c-.9.63,0,2.13.88,1.49l2.29-1.62a.87.87,0,0,0-.88-1.5,7.22,7.22,0,0,0-3,2.91.87.87,0,0,0,.75,1.3,17.61,17.61,0,0,0,5-1.21L71,107.57l-4.16,2.15,1,1.36c2.21-2,4.87-2.84,7.7-3.6l-.46-1.67a26.17,26.17,0,0,1-4.56,1.42l.66,1.58a50,50,0,0,1,4.47-2.35c.9-.42.25-1.82-.67-1.58a30.42,30.42,0,0,0-4.73,1.64l.88,1.49,3.48-2.24a.86.86,0,0,0-.87-1.49,27.6,27.6,0,0,1-4.23,1.56l.84,1.44A16.63,16.63,0,0,1,73.76,105l-1.05-1.36a8.11,8.11,0,0,1-2.94,1.73l.84,1.44a18.67,18.67,0,0,0,2.77-2.78c.58-.74-.14-1.87-1-1.36A21.92,21.92,0,0,0,69,105l1.36,1a3.82,3.82,0,0,1,2.29-2.52c1-.52.11-2-.87-1.5Z"/><path class="cls-1" d="M68,90.36a45.16,45.16,0,0,1-6,2.24l.45,1.67a31,31,0,0,1,6.68-1.72L68.44,91c-3.28,1.5-6.77,1.7-10.32,1.83l.23,1.7a17.58,17.58,0,0,1,5.42-1.12l-.23-1.7a24.25,24.25,0,0,1-8.31,1.56l.23,1.7a87.89,87.89,0,0,1,14.39-1.13l-.23-1.7a89.32,89.32,0,0,1-10.88,2.24c-1,.14-.74,1.79.23,1.7l11.54-1-.23-1.7c-2.9.66-5.81,1.19-8.77,1.58l.23,1.7a52.78,52.78,0,0,1,7.93-.73l-.23-1.7-3.78,1.11c-.91.27-.77,1.76.23,1.7l4.29-.25V95l-15.4,1.75.23,1.7a44,44,0,0,1,6.63-2.1c1.11-.26.61-1.82-.46-1.67a47.36,47.36,0,0,1-8.33.48l.44,1.61a27.25,27.25,0,0,1,5-1.58l-.46-1.67a23.72,23.72,0,0,1-6.44,1.36L52,96.37a4.25,4.25,0,0,1,3.94-1.06l-.23-1.7-12.21,2c-1,.17-.65,1.6.23,1.7a44.83,44.83,0,0,0,10.48-.33c1.08-.13,1.12-1.83,0-1.73a65.9,65.9,0,0,0-10,1.52.87.87,0,0,0,.23,1.7L56.26,98V96.25l-7,.83a.87.87,0,0,0,0,1.73l4.56.09V97.17c-5.22.51-10.43,1-15.65,1.41l.23,1.69L46,98.94c1-.17.72-1.68-.23-1.7l-7.15-.13v1.73a13.12,13.12,0,0,0,5.88-1.3c.79-.36.39-1.64-.43-1.61a59.23,59.23,0,0,0-12.63,1.9c-.76.21-.88,1.55,0,1.67a44.6,44.6,0,0,0,7.21.42.87.87,0,0,0,0-1.73,48.54,48.54,0,0,0-7.43.36c-.86.11-1.29,1.53-.23,1.7a30,30,0,0,0,8.51.19.87.87,0,0,0,0-1.73,29.75,29.75,0,0,0-9.66,1.16.87.87,0,0,0,.23,1.7,33.44,33.44,0,0,0,5.48.09c.91-.06,1.25-1.51.23-1.7A42.86,42.86,0,0,0,27,99.27.87.87,0,0,0,27,101a11.61,11.61,0,0,0,5.94-.78.87.87,0,0,0,0-1.67c-3.28-1.11-6.24,1-9.55.55-1-.14-1.08,1.39-.23,1.7A31.39,31.39,0,0,0,29,102.3l.23-1.7c-2.55,0-5.09-.14-7.64-.28v1.73l3-.17a.87.87,0,0,0,.43-1.61c-2.53-1.29-5-1.19-7.79-.83a.87.87,0,0,0-.23,1.7l5,1.47.23-1.7-5.54-.45c-.83-.07-1.22,1.27-.44,1.61A13.82,13.82,0,0,0,19,103l.23-1.7-4.67-.36c-1.13-.09-1.08,1.59,0,1.73a7.52,7.52,0,0,0,3.1-.2.86.86,0,0,0,0-1.66A36,36,0,0,0,6,100.55c-.89.13-.74,1.45,0,1.67a57.4,57.4,0,0,0,9.08,1.88c1,.13,1.12-1.43.23-1.7l-3.59-1.08-.23,1.7a59.17,59.17,0,0,1,6.08.67c1.09.18,1.56-1.49.46-1.67a65.4,65.4,0,0,0-6.54-.73c-1-.06-1.13,1.42-.23,1.7l3.59,1.08.23-1.7a53.93,53.93,0,0,1-8.62-1.82v1.67a33.12,33.12,0,0,1,10.79.25v-1.66a4.76,4.76,0,0,1-2.64.13v1.73l4.67.36a.87.87,0,0,0,.23-1.7,8.48,8.48,0,0,1-2.4-.75l-.43,1.61,5.54.45c1,.09,1.14-1.43.23-1.7l-5-1.47-.23,1.7c2.39-.31,4.68-.55,6.92.59l.44-1.61-3,.17a.87.87,0,0,0,0,1.73c2.55.14,5.09.23,7.64.28.95,0,1.21-1.55.23-1.7a31.39,31.39,0,0,1-5.81-1.5l-.23,1.7c3.08.41,6.1-1.63,9.09-.61V98.55a10.72,10.72,0,0,1-5.48.72V101a40.53,40.53,0,0,1,8.3.63l.23-1.7a33.44,33.44,0,0,1-5.48-.09l.23,1.7a28,28,0,0,1,9.2-1.1V98.71a27.84,27.84,0,0,1-8-.13l-.23,1.7a48.54,48.54,0,0,1,7.43-.36V98.19a41.17,41.17,0,0,1-6.75-.36V99.5a57.47,57.47,0,0,1,12.17-1.84l-.44-1.61a11.18,11.18,0,0,1-5,1.06.87.87,0,0,0,0,1.73l7.15.13-.23-1.7-7.6,1.34c-1,.16-.74,1.78.23,1.69q7.83-.64,15.65-1.4a.87.87,0,0,0,0-1.73l-4.56-.09v1.73l7-.83c1.08-.13,1.14-1.77,0-1.73l-11.84.44.23,1.7a61.34,61.34,0,0,1,9.52-1.46V95.2a44.83,44.83,0,0,1-10.48.33l.23,1.7,12.21-2c1-.16.64-1.58-.23-1.69a6.17,6.17,0,0,0-5.16,1.57.87.87,0,0,0,.61,1.47,25.16,25.16,0,0,0,6.9-1.42.87.87,0,0,0-.46-1.67,30.4,30.4,0,0,0-5.37,1.76c-.84.35-.35,1.59.43,1.61a50.7,50.7,0,0,0,8.79-.54l-.46-1.67a44.05,44.05,0,0,0-6.63,2.11c-.81.32-.83,1.82.23,1.69l15.4-1.75c1.08-.13,1.14-1.8,0-1.73l-4.29.25.23,1.7,3.78-1.11a.87.87,0,0,0-.23-1.7,56.19,56.19,0,0,0-8.39.79c-1,.16-.74,1.82.23,1.7,3.11-.41,6.18-1,9.23-1.64.94-.22.76-1.79-.23-1.7L59,94.32,59.2,96a91.26,91.26,0,0,0,10.88-2.24.87.87,0,0,0-.23-1.7A91.33,91.33,0,0,0,55,93.27c-1,.14-.73,1.76.23,1.7A25.7,25.7,0,0,0,64,93.35c.81-.34.84-1.75-.23-1.7a19.1,19.1,0,0,0-5.88,1.18c-.86.32-.81,1.74.23,1.7,3.89-.14,7.61-.43,11.19-2.07,1-.44.21-1.7-.67-1.58A30.71,30.71,0,0,0,62,92.6c-1,.39-.63,2,.45,1.67a49.17,49.17,0,0,0,6.46-2.42c1-.46.13-1.95-.87-1.49Z"/><path class="cls-1" d="M36.57,69.39a18.11,18.11,0,0,0,3.08,1.3.87.87,0,0,0,.66-1.58h0l.31,1.18.2.58.87-1.49L40.85,69l-.67,1.58a13.65,13.65,0,0,1,2.15.74c.91.37,1.52-1.12.66-1.58l-1.43-1.17L40.72,70A31.2,31.2,0,0,1,45,71.84l.67-1.59-1.79-.71-.46,1.67a7.68,7.68,0,0,1,2.25.62c1,.34,1.47-1.07.66-1.58L44.7,69l-.84,1.45q2.67.82,5.28,1.83l.23-1.7-2.64-.31c-.88-.1-1.14,1.22-.44,1.61A30.1,30.1,0,0,0,51,74l.46-1.67a6.87,6.87,0,0,1-2.94-1.06l-.44,1.61a22.33,22.33,0,0,1,3.64.62.87.87,0,0,0,.46-1.67,5.27,5.27,0,0,1-2.69-1.43l-.84,1.44a30.33,30.33,0,0,1,4.56,1.48l.46-1.67a8.29,8.29,0,0,0-2.3-.54c-.9-.14-1.6,1.08-.67,1.58a30.46,30.46,0,0,0,4.05,1.8l.23-1.7a5.53,5.53,0,0,1-2.67-.24.87.87,0,0,0-.46,1.67l4.87,1.53.46-1.66A10.16,10.16,0,0,1,53.12,72l-.84,1.45,4.5,1.48c1.07.35,1.49-1.29.46-1.67a4.79,4.79,0,0,1-2.61-1.84l-.84,1.45q2.9,1,5.73,2.15l.23-1.7-3.06-.15a.87.87,0,0,0-.44,1.61c1.16.71,2.32,1.35,3.54,1.94l.67-1.58c-1.28-.26-2.52-.55-3.78-.9l-.46,1.67a31.87,31.87,0,0,1,7.47,2.56l.88-1.5-1.4-.61-.66,1.58c2.74.9,5.45,1.87,8.13,2.93.91.35,1.56-1.18.67-1.58q-5.41-2.47-10.78-5c-1-.48-1.88,1-.88,1.49q5.37,2.58,10.79,5l.66-1.58q-4-1.58-8.13-2.93c-.92-.3-1.57,1.18-.67,1.58l1.39.62c1,.44,1.89-1,.88-1.5a34.78,34.78,0,0,0-7.89-2.73.87.87,0,0,0-.46,1.67c1.26.34,2.5.64,3.78.9.9.18,1.6-1.13.67-1.58a36.91,36.91,0,0,1-3.54-2l-.44,1.62,3.06.15c1.06,0,1.07-1.36.23-1.7q-2.83-1.15-5.73-2.15c-.88-.3-1.36.84-.84,1.45a7.43,7.43,0,0,0,3.37,2.28l.46-1.67-4.5-1.48a.87.87,0,0,0-.84,1.45,12,12,0,0,0,4.81,2.6.86.86,0,0,0,.46-1.66L52.3,72.58l-.46,1.67a9.14,9.14,0,0,0,3.13.3.87.87,0,0,0,.23-1.7,27.46,27.46,0,0,1-3.64-1.62l-.66,1.58a8.29,8.29,0,0,1,2.3.54c1.09.34,1.46-1.26.46-1.67A31.51,31.51,0,0,0,49.1,70.2c-.79-.19-1.53.86-.84,1.45a8.63,8.63,0,0,0,3.45,1.88l.46-1.67a37.69,37.69,0,0,0-4.1-.68c-.87-.1-1.14,1.22-.43,1.61A10.64,10.64,0,0,0,51,74a.87.87,0,0,0,.46-1.67,28,28,0,0,1-4.28-2L46.73,72l2.64.31c1,.12,1.07-1.38.23-1.7-1.74-.67-3.5-1.27-5.28-1.83a.87.87,0,0,0-.84,1.44,9.25,9.25,0,0,0,2,1.5l.67-1.58a8.35,8.35,0,0,0-2.25-.62.87.87,0,0,0-.46,1.67l1.79.71c.91.37,1.52-1.13.66-1.58a34.09,34.09,0,0,0-4.68-2c-.89-.31-1.34.84-.84,1.44a3.58,3.58,0,0,0,1.78,1.45l.67-1.58a12.7,12.7,0,0,0-2.15-.74c-.92-.28-1.56,1.14-.67,1.58l.83.4c1,.49,1.86-1,.87-1.49A3.76,3.76,0,0,0,40,68.84a.86.86,0,0,0-.75.42l-.09.15a.87.87,0,0,0,.31,1.18h0L40.11,69a9.84,9.84,0,0,1-2.67-1.13c-1-.52-1.85,1-.87,1.5Z"/><path class="cls-1" d="M59.44,74.05a24.49,24.49,0,0,0,4.82,2.5c1,.41,1.48-1.26.46-1.67a10.19,10.19,0,0,1-2.41-1.36l-.43,1.61c3.06,0,6.61,1.37,9.6,2l.23-1.7-7.78-.27a.87.87,0,0,0-.23,1.7Q67.83,78.08,72,79l.23-1.7a27.69,27.69,0,0,1-7.77-1.26C63.4,75.73,63,77.4,64,77.73a29.86,29.86,0,0,0,8.23,1.32.87.87,0,0,0,.23-1.7q-4.18-.93-8.31-2.13l-.23,1.69,7.78.27a.87.87,0,0,0,.23-1.7c-3.16-.69-6.83-2.08-10.06-2.08A.87.87,0,0,0,61.44,75a12.27,12.27,0,0,0,2.82,1.54l.46-1.67a22.37,22.37,0,0,1-4.41-2.32c-.93-.62-1.79.88-.87,1.49Z"/><path class="cls-1" d="M39.56,70a7.74,7.74,0,0,1,2.14.36l.46-1.67-.87-.16a.89.89,0,0,0-1.06.61.87.87,0,0,0,.6,1.06l.87.16a.87.87,0,0,0,.46-1.67,9.55,9.55,0,0,0-2.6-.42.87.87,0,0,0,0,1.73Z"/><path class="cls-1" d="M77.87,8.55a9.66,9.66,0,0,0,1.77,4.21.88.88,0,0,0,1.62-.43,6.89,6.89,0,0,0-.08-2.64l-1.67.45a41.77,41.77,0,0,0,2.14,5.95c.4.91,1.84.26,1.58-.66L82.82,14l-1.67.46a27,27,0,0,0,1.9,3.9.87.87,0,0,0,1.61-.44,7.6,7.6,0,0,0-.45-2.71l-1.67.46a32,32,0,0,1,1.13,3.56l1.67-.46a6.37,6.37,0,0,0-2.82-3.64.88.88,0,0,0-1.27,1,79.71,79.71,0,0,0,3.15,8.15c.43,1,1.72.22,1.58-.66a54.87,54.87,0,0,0-1.13-5.39l-1.66.46,1.68,4.27a.87.87,0,0,0,1.67-.46,46.7,46.7,0,0,0-1-5.09l-1.67.46,2.77,7.37a.87.87,0,0,0,1.67-.46q-.63-2.64-1.45-5.22L85.2,20l2.72,6.88,1.58-.67c-.72-1.28-1.28-2.86-2.4-3.84a.9.9,0,0,0-1.23,0c-1.18.92-.36,2.65.09,3.78l1.58-.67L87,24.3c-.41-.88-1.93-.26-1.58.66.71,1.84,1.48,3.64,2.33,5.42.42.88,1.89.26,1.58-.67a9.52,9.52,0,0,1-.7-3.55L87,26.6l2,3.11c.42.66,1.7.47,1.61-.44a34.05,34.05,0,0,0-1.2-6.16.87.87,0,0,0-1.67.46,24.91,24.91,0,0,0,3.42,7.6l1.5-.88-2.16-3.14c-.53-.77-1.88-.32-1.59.67l1.49,5L92,32.14l-1.8-2.53a.87.87,0,0,0-1.61.43,4.37,4.37,0,0,0,.09,2l1.45-.84-1.07-1.37c-.62-.8-1.8.22-1.36,1.05,1.25,2.31,2.39,4.66,3.44,7.06.39.9,1.89.26,1.58-.66a22.31,22.31,0,0,1-1-4.44l-1.61.43L92,36.68A.87.87,0,0,0,93.56,36L92.37,30.6l-1.58.67A31.64,31.64,0,0,1,93.07,36l1.58-.67a13.57,13.57,0,0,1-1.46-4.89l-1.61.44a60.3,60.3,0,0,1,3.59,8.68l1.58-.66-2.3-3.25a.88.88,0,0,0-1.62.44A4.18,4.18,0,0,0,93.6,39L95,38l-1.63-2.06a.88.88,0,0,0-1.48.62,8.15,8.15,0,0,0,.9,3l1.36-1-.92-1c-.69-.74-1.79.21-1.36,1l2.73,5.28c.48.92,1.74.24,1.58-.67l-.87-4.92c-.17-1-1.73-.73-1.7.23l.07,2.29,1.1-.83A7.62,7.62,0,0,0,93,39.7a.86.86,0,0,0-.83,1.09c.65,1.66,1.71,4.36,3.82,4.3a.87.87,0,0,0,.75-.43c.9-1.92.42-4-.34-5.92l-1.58.67,1.4,2.26A.87.87,0,0,0,97.75,41a47.35,47.35,0,0,0-1.19-4.69L95,37a44.45,44.45,0,0,0,3.49,6.39l1.36-1.05L97.94,40c-.6-.77-1.55.1-1.44.84A14.6,14.6,0,0,0,98,45.52l1.36-1.05a8,8,0,0,1-1.43-2.12.87.87,0,0,0-1.61.44,6.08,6.08,0,0,0,.26,2.32L97.65,44l-1.11-.58a.88.88,0,0,0-1.3.75c-.26,2.87,2,5.19,3.18,7.76a.87.87,0,0,0,1.61-.44c-.26-2.46.28-6.45-2.44-7.55a.88.88,0,0,0-1.07,1.07,28.2,28.2,0,0,0,3.18,6.73.87.87,0,0,0,1.58-.67l-1.51-7.86-1.06,1.06,1.34,1.31c.38.91,1.85.26,1.58-.66a4,4,0,0,0-.68-1.49l-1.36,1A53.59,53.59,0,0,1,104.3,51l1.19-1.18a13.92,13.92,0,0,1-4.17-4.5.87.87,0,0,0-1.58.67A19.39,19.39,0,0,0,102,51.36l1-1.27-1.53-1.68-1.61.43,1,1.38c.53.72,2,.33,1.58-.67a7.9,7.9,0,0,0-1.69-2.75c-.75-.82-2,.4-1.22,1.22l1.24,2,1.58-.66-1-1.38c-.46-.62-1.68-.51-1.62.44a3.25,3.25,0,0,0,2.8,3.35.88.88,0,0,0,1-1.27,17.88,17.88,0,0,1-2-4.94l-1.58.66a16.13,16.13,0,0,0,4.78,5.12c.72.51,1.62-.47,1.19-1.18a56.92,56.92,0,0,0-5-6.86c-.63-.75-1.89.23-1.36,1.05l.51,1.08,1.58-.67a3.28,3.28,0,0,0-2.37-2.11.88.88,0,0,0-1.07,1.07l1.51,7.86,1.58-.66a26.54,26.54,0,0,1-3-6.32l-1.06,1.06c1,.42,1.06,4.84,1.17,5.88l1.61-.44c-.92-2-3.14-4.69-2.94-6.88l-1.3.74a7.2,7.2,0,0,0,1.52.76c.65.26,1.2-.48,1.07-1.06l-.2-1.86-1.61.43a12.75,12.75,0,0,0,1.7,2.47c.67.78,1.78-.21,1.36-1a12.24,12.24,0,0,1-1.34-4.29l-1.45.84,1.89,2.36c.61.77,1.89-.23,1.35-1a43.76,43.76,0,0,1-3.48-6.38c-.4-.9-1.87-.26-1.58.66.47,1.55.86,3.1,1.18,4.69l1.58-.67-1.39-2.26c-.5-.8-2-.28-1.59.66a7.22,7.22,0,0,1,.77,3.24,2.38,2.38,0,0,1-1.67-2.11L93,41.43l1.32.17a.88.88,0,0,0,1.09-.84l-.07-2.29-1.7.23.87,4.92L96,43l-2.72-5.28-1.36,1,.91,1c.7.75,1.79-.2,1.36-1.05l-.66-2.12-1.48.61,1.64,2.05c.61.77,1.89-.23,1.36-1.05l-.53-2L93,36.56l2.3,3.25c.53.75,1.91.33,1.58-.67A62.7,62.7,0,0,0,93.07,30c-.37-.73-1.71-.42-1.61.44a16.8,16.8,0,0,0,1.7,5.76c.42.87,1.92.26,1.58-.66a34.21,34.21,0,0,0-2.46-5.19.87.87,0,0,0-1.58.67l1.19,5.42,1.58-.67L91.59,32.4c-.39-.71-1.72-.44-1.61.44a24.37,24.37,0,0,0,1.07,4.9l1.58-.67c-1-2.41-2.2-4.75-3.44-7.07l-1.36,1.05,1.06,1.37c.59.75,1.58-.1,1.45-.84l0-1.54-1.61.44L90.5,33c.53.75,1.87.33,1.58-.67l-1.49-5L89,28l2.16,3.15c.63.9,2.09.09,1.5-.88a23.42,23.42,0,0,1-3.25-7.18l-1.67.46a30.78,30.78,0,0,1,1.14,5.7l1.61-.44-2-3.1c-.43-.68-1.66-.47-1.61.43a15.29,15.29,0,0,0,.76,4l1.58-.66c-.78-1.65-1.5-3.31-2.15-5l-1.58.67.55,1.17c.41.88,1.94.25,1.58-.66a3.87,3.87,0,0,1-.53-2.1H85.87c.86.75,1.58,2.51,2.14,3.5.46.83,1.95.26,1.58-.67l-2.73-6.88c-.4-1-2-.63-1.66.46q.81,2.58,1.44,5.22l1.67-.46-2.77-7.37a.87.87,0,0,0-1.67.46,46.24,46.24,0,0,1,1,5.09l1.67-.46L84.85,18.2a.86.86,0,0,0-1.66.46c.46,1.79.83,3.57,1.12,5.39l1.58-.67a78.72,78.72,0,0,1-3-7.74l-1.27,1a4.27,4.27,0,0,1,2,2.61.87.87,0,0,0,1.67-.46,34.22,34.22,0,0,0-1.13-3.56c-.39-1-2-.6-1.67.46a4.34,4.34,0,0,1,.39,2.25l1.61-.43A24.57,24.57,0,0,1,82.82,14c-.41-1-2-.64-1.67.46l.41,1.44,1.58-.67a37.87,37.87,0,0,1-2-5.53c-.3-1.11-1.81-.61-1.67.45l0,2.19,1.61-.44a9,9,0,0,1-1.6-3.8c-.2-1.09-1.87-.63-1.67.46Z"/><path class="cls-1" d="M94.77,43.6a4.05,4.05,0,0,0,.3,2.28.87.87,0,0,0,1.19.31A.89.89,0,0,0,96.57,45a1.82,1.82,0,0,1-.13-.95A.9.9,0,0,0,95.83,43a.87.87,0,0,0-1.06.6Z"/><path class="cls-1" d="M119.53,13.35l-.24,7.74,1.7-.23a5.5,5.5,0,0,1-.33-2.78c0-1.14-1.6-1.07-1.73,0l-1,7.7,1.7-.23a7.6,7.6,0,0,1,.24-4.12l-1.7-.23a13.06,13.06,0,0,1-.31,5.13.86.86,0,0,0,1.66.46c.54-1.64,1.14-3.24,1.82-4.83l-1.61-.44c-.29,2.92-.72,5.8-1.29,8.68h1.67a48,48,0,0,1-.78-5.95.87.87,0,0,0-1.7-.23,44.53,44.53,0,0,0-2.51,9.72c-.12.89,1.08,1.62,1.58.67a50,50,0,0,0,2.67-6l-1.7-.23-.69,6c-.12,1,1.43,1.12,1.7.23a25.24,25.24,0,0,1,1.6-4.1l-1.58-.2a13.15,13.15,0,0,1-.37,6.5l1.58-.21a9,9,0,0,1-.64-4.95h-1.73a33.11,33.11,0,0,1-.43,7l1.45-.38c-1.34-1.7-1-3.67-.77-5.56h-1.73a26.16,26.16,0,0,1-.8,5.84h1.67a7.08,7.08,0,0,1-.1-4.39l-1.67-.46-1.67,7.81c-.23,1.09,1.4,1.55,1.67.46a16,16,0,0,1,1.34-3.66l-1.58-.2A5.38,5.38,0,0,1,115,41.7l1.7.23a11.43,11.43,0,0,1,1.38-4.76l-1.58-.2c.22,1.55.35,3.05.42,4.61l1.7-.23a9.38,9.38,0,0,1,.75-5.3l-1.58-.21a24.77,24.77,0,0,1,.48,6.48l1.7-.23-.6-3.24a.87.87,0,0,0-1.7.23,38.44,38.44,0,0,1-.46,8.57h1.66c-.49-2.46-.86-4.93-1.11-7.43H116a25.65,25.65,0,0,1,0,6.13l1.61-.44a12.76,12.76,0,0,1-1-4.48.87.87,0,0,0-1.73,0l-.54,4.12,1.61-.44-.71-3a.87.87,0,0,0-1.73,0,21.59,21.59,0,0,1-.8,3.77h1.67l-.09-2.09c.1-1-1.51-1.19-1.7-.23-.49,2.48-1.09,4.92-1.82,7.35a.87.87,0,0,0,1.45.84c1.89-1.61,1.84-4.16,3.3-6.06l-1.61-.44a17.67,17.67,0,0,1-1.34,5.07c-.39.95,1.07,1.44,1.58.67a57.56,57.56,0,0,0,3.32-5.75l-1.62-.44a27.83,27.83,0,0,1-1.08,5.36l1.67.46a12.06,12.06,0,0,1,1.6-4.11l-1.58-.21a16.2,16.2,0,0,1,.69,3.82h1.73a28.33,28.33,0,0,1-.17-3.68H117c.24,3.19,1.46-.11,2.29-1.24l-1.58-.2a37.26,37.26,0,0,1,.52,5.37L119.8,50l-.3-.7c-.44-1-1.94-.14-1.5.87l.31.7c.35.81,1.63.37,1.61-.44a42.33,42.33,0,0,0-.58-5.83c-.14-.82-1.19-.74-1.58-.21-1.18,1.6-3.5,5.45-.66,6.57a.87.87,0,0,0,.85-.23c1.23-1.1.86-2.68.74-4.23a.87.87,0,0,0-1.73,0,30.22,30.22,0,0,0,.17,3.68c.12,1.08,1.81,1.13,1.73,0a18.31,18.31,0,0,0-.76-4.28.87.87,0,0,0-1.58-.21,13.3,13.3,0,0,0-1.77,4.53.87.87,0,0,0,1.67.46,30.42,30.42,0,0,0,1.14-5.82A.87.87,0,0,0,116,44.4a56.66,56.66,0,0,1-3.31,5.75l1.58.66a19.89,19.89,0,0,0,1.4-5.53c.11-1-1.16-1-1.61-.43-1.34,1.74-1.35,4.27-3,5.71l1.45.84c.73-2.43,1.33-4.87,1.82-7.35l-1.7-.23a5,5,0,0,0,.15,2.55.87.87,0,0,0,1.67,0,26.43,26.43,0,0,0,.86-4.23h-1.73a9.49,9.49,0,0,0,.94,3.85c.41.87,1.52.3,1.62-.44l.54-4.12h-1.73a15.94,15.94,0,0,0,1.29,5.36c.4.87,1.52.31,1.61-.44a25.65,25.65,0,0,0,0-6.13c-.13-1.08-1.84-1.11-1.73,0,.27,2.66.66,5.27,1.18,7.89a.87.87,0,0,0,1.66,0,40.17,40.17,0,0,0,.53-9l-1.7.23.6,3.24c.19,1,1.65.7,1.7-.23a26.5,26.5,0,0,0-.54-6.94.87.87,0,0,0-1.58-.2,11.71,11.71,0,0,0-.93,6.63c.13,1,1.74.73,1.7-.23a50.55,50.55,0,0,0-.48-5.07.87.87,0,0,0-1.58-.21A14.27,14.27,0,0,0,115,41.93c-.08,1,1.47,1.16,1.7.23a8.44,8.44,0,0,0-.07-4.75A.88.88,0,0,0,115,37.2a19,19,0,0,0-1.51,4.07l1.67.46,1.67-7.81a.87.87,0,0,0-1.67-.46,8.75,8.75,0,0,0,.1,5.31.87.87,0,0,0,1.67,0,28,28,0,0,0,.86-6.3c0-1.15-1.59-1.07-1.73,0-.34,2.55-.36,4.71,1.27,6.78a.88.88,0,0,0,1.45-.38,35.44,35.44,0,0,0,.49-7.42.87.87,0,0,0-1.73,0,10.58,10.58,0,0,0,.88,5.82c.31.73,1.39.44,1.58-.2a15.17,15.17,0,0,0,.36-7.42.87.87,0,0,0-1.58-.21A29.11,29.11,0,0,0,117,34l1.7.23.69-6c.12-1-1.39-1.07-1.7-.23a46.2,46.2,0,0,1-2.49,5.56l1.58.67a44,44,0,0,1,2.51-9.72l-1.7-.23a50.94,50.94,0,0,0,.84,6.4.87.87,0,0,0,1.67,0q.9-4.53,1.35-9.13c.08-.83-1.28-1.22-1.61-.44-.74,1.73-1.41,3.46-2,5.25l1.66.46a14,14,0,0,0,.38-5.59c-.11-.9-1.43-1.26-1.7-.23a11.9,11.9,0,0,0-.24,5c.16,1,1.59.64,1.7-.23l1-7.7h-1.73a9.55,9.55,0,0,0,.39,3.24.87.87,0,0,0,1.7-.23l.24-7.74a.87.87,0,0,0-1.73,0Z"/><path class="cls-1" d="M70.41,163.24q14.31-20.76,26.75-42.71a.87.87,0,0,0-1.5-.87Q83.24,141.6,68.92,162.37c-.63.92.87,1.78,1.49.87Z"/><path class="cls-1" d="M70,163.56l22.72-45.4c.49-1-1-1.87-1.5-.87L68.55,162.68c-.5,1,1,1.87,1.49.88Z"/><path class="cls-1" d="M183.2,31.59Q162.32,45.92,142.76,62c-.86.71.37,1.92,1.22,1.22q19.38-16,40.09-30.16c.91-.63.05-2.13-.87-1.5Z"/><path class="cls-1" d="M183.48,31.57,146,65.82c-.82.75.4,2,1.22,1.22l37.47-34.25c.82-.75-.41-2-1.23-1.22Z"/><path class="cls-1" d="M53.8,26.26Q71.63,44.1,91,60.28c.85.71,2.08-.51,1.23-1.22Q72.87,42.88,55,25a.86.86,0,0,0-1.22,1.22Z"/><path class="cls-1" d="M53.73,26,94.28,56.51c.89.67,1.75-.83.87-1.49L54.61,24.48c-.89-.67-1.76.83-.88,1.5Z"/><path class="cls-1" d="M154.17,164.32q-8-24-18.07-47.28c-.44-1-1.93-.13-1.49.88q10,23,17.89,46.86c.35,1.05,2,.6,1.67-.46Z"/><path class="cls-1" d="M154.11,164.6l-22.56-45.47c-.49-1-2-.13-1.49.87l22.56,45.47c.49,1,2,.12,1.49-.87Z"/><path class="cls-1" d="M17.24,43.6A498.09,498.09,0,0,1,76.77,69.94c1,.51,1.86-1,.87-1.5A504.18,504.18,0,0,0,17.7,41.93c-1.05-.39-1.5,1.29-.46,1.67Z"/><path class="cls-1" d="M17.71,43.18l64,21.58c1.06.35,1.51-1.32.46-1.67l-64-21.58c-1.05-.36-1.51,1.31-.46,1.67Z"/><path class="cls-1" d="M42.41,162.79a501.94,501.94,0,0,1,45.28-47.07c.83-.75-.4-2-1.22-1.22a500.78,500.78,0,0,0-45.29,47.07c-.71.85.51,2.07,1.23,1.22Z"/><path class="cls-1" d="M42.18,162.2l42.19-52.76c.69-.86-.53-2.09-1.22-1.22L41,161c-.68.86.53,2.09,1.23,1.22Z"/><path class="cls-1" d="M211.72,52.54A501.17,501.17,0,0,1,148.49,68.9c-1.09.21-.63,1.88.46,1.67a502.88,502.88,0,0,0,63.23-16.36c1.06-.35.61-2-.46-1.67Z"/><path class="cls-1" d="M211.61,53.16,148,76c-1,.37-.59,2,.46,1.67l63.58-22.83c1-.38.59-2-.46-1.67Z"/><path class="cls-1" d="M131.38,120l1.72,4c.41,1,1.72.21,1.58-.66a28.29,28.29,0,0,1-.33-4l-1.7.23.5,2.25c.24,1.09,1.91.63,1.67-.46l-.5-2.25a.87.87,0,0,0-1.7.23,31.71,31.71,0,0,0,.39,4.46l1.58-.66-1.72-4c-.43-1-1.92-.14-1.49.87Z"/><path class="cls-1" d="M133.75,119.63l0,.73a.86.86,0,0,0,1.72,0l.08-.09-1.36-.18.63,1.17c.39.72,1.71.43,1.61-.44a9.29,9.29,0,0,0-.49-2.55.87.87,0,0,0-1.7.23,27.23,27.23,0,0,0,.24,6.25l1.58-.67-.65-2-1.7.23a9.24,9.24,0,0,0,1.61,3.19.88.88,0,0,0,1.58-.21,6.75,6.75,0,0,0,.22-4.19c-.25-1.11-1.83-.61-1.67.46l.76,5,1.27-1a5.43,5.43,0,0,1-2.24-2c-.53-.73-1.91-.34-1.58.67a25.14,25.14,0,0,0,2.93,6.09c.43.65,1.71.49,1.61-.43a25.25,25.25,0,0,0-.62-3.56l-1.67.46c.44,1.17.9,2.32,1.38,3.48a.87.87,0,0,0,1.7-.23,10.76,10.76,0,0,0-.31-4.38.87.87,0,0,0-1.67.46l.91,3.83c.26,1.08,1.91.62,1.67-.46a3.56,3.56,0,0,0-1.28-2.14.87.87,0,0,0-1.45.84,20.71,20.71,0,0,0,1.86,5.65c.49,1,1.95.13,1.49-.87s-1-2.15-1.38-3.26c-.27-.69-1.53-.94-1.67,0a4.16,4.16,0,0,0,.54,3.07.87.87,0,0,0,1.61-.44,4.57,4.57,0,0,0-.39-2l-1.58.67,1.57,3.1c.42.83,1.54.35,1.61-.44a7.67,7.67,0,0,0-.87-4.41c-.46-.92-1.78-.25-1.58.66l1.5,7.11,1.58-.67A4.53,4.53,0,0,1,140.1,134l-1.58.67,1.54,2.49a.87.87,0,0,0,1.58-.66,25,25,0,0,0-1.07-4.6l-1.58.66a17.1,17.1,0,0,1,1.48,4.41c.23,1.09,1.89.63,1.67-.45a19.58,19.58,0,0,0-1.66-4.83c-.43-.88-1.89-.26-1.58.67A24.19,24.19,0,0,1,140,137l1.59-.67-1.55-2.5a.87.87,0,0,0-1.58.67,7.39,7.39,0,0,0,1.25,2.77.87.87,0,0,0,1.58-.66l-1.51-7.11-1.58.67a5.06,5.06,0,0,1,.64,3.54l1.61-.43-1.57-3.1c-.44-.87-1.92-.26-1.58.66l.33,1.53,1.61-.43-.36-1.74h-1.67c.48,1.25,1,2.46,1.56,3.67l1.49-.87a19.09,19.09,0,0,1-1.68-5.24l-1.45.85.84,1.37,1.67-.46-.91-3.83-1.67.46a8.72,8.72,0,0,1,.25,3.92l1.69-.23c-.47-1.15-.93-2.31-1.37-3.48a.87.87,0,0,0-1.67.46,14.11,14.11,0,0,1,.56,3.1l1.62-.44a23.15,23.15,0,0,1-2.76-5.68l-1.58.67a9,9,0,0,0,2.86,2.6.88.88,0,0,0,1.27-1l-.76-5-1.67.46a4.29,4.29,0,0,1-.21,3.27l1.58-.2a6,6,0,0,1-1.44-2.78c-.27-.89-1.82-.78-1.7.23a7.57,7.57,0,0,0,.89,2.87c.5.93,1.72.24,1.58-.66a24.41,24.41,0,0,1-.18-5.79l-1.7.23.44,2.09,1.61-.43-.63-1.17a.88.88,0,0,0-1.36-.17,1.32,1.32,0,0,0-.58,1.31h1.72v-.73a.87.87,0,0,0-1.73,0Z"/><path class="cls-1" d="M140.18,136.53a9.29,9.29,0,0,0,1.18,2.92c.41.67,1.72.46,1.61-.44l-.37-2.95c-.14-1.08-1.86-1.11-1.73,0a24.18,24.18,0,0,0,1.91,7,.87.87,0,0,0,1.61-.43,36,36,0,0,0-.82-4.73c-.26-1.09-1.89-.63-1.67.46a53.62,53.62,0,0,0,2.58,8.67.87.87,0,0,0,1.67-.46l-.61-3.49-1.66.46c.83,3.94,1.81,7.66,4.34,10.86.6.76,1.56-.1,1.44-.84a22.18,22.18,0,0,0-2.17-6.65c-.5-1-2-.12-1.49.87a21,21,0,0,1,2,6.24l1.45-.84c-2.31-2.94-3.14-6.52-3.9-10.1-.23-1.1-1.85-.62-1.66.46l.6,3.49,1.67-.46a52.63,52.63,0,0,1-2.58-8.67l-1.67.46a31.77,31.77,0,0,1,.76,4.27l1.61-.44a21,21,0,0,1-1.67-6.17h-1.73l.37,2.95,1.61-.43a5.43,5.43,0,0,1-1-2.51c-.24-1.09-1.91-.63-1.67.46Z"/><path class="cls-1" d="M90.78,120.4l-1.2,4a.87.87,0,0,0,1.67.46A11.06,11.06,0,0,1,92.63,122l-1.58-.2a2.9,2.9,0,0,1-.57,2.86l1.44.84a7.65,7.65,0,0,1,.85-1.92c.16-.33.52-1.38.75-1.51l-.67.09q-.46-.78-.57,0L92,123c-.33.82.88,1.43,1.44.84a15.26,15.26,0,0,1,1.68-1.54l-1.27-1c-.26,1-1.23,1.78-1.83,2.6a21.28,21.28,0,0,0-1.68,2.73c-.52,1,1,1.86,1.49.87a20,20,0,0,1,2-3.15,7.33,7.33,0,0,0,1.68-2.59c.18-.66-.64-1.46-1.27-1a17.41,17.41,0,0,0-2,1.8l1.45.85c.28-.71.8-1.56.44-2.34a1.09,1.09,0,0,0-1.22-.63c-.71.16-1,1-1.25,1.56a11.65,11.65,0,0,0-1.35,3c-.12.76.82,1.56,1.45.84a4.66,4.66,0,0,0,1-4.54.87.87,0,0,0-1.58-.21,12.85,12.85,0,0,0-1.55,3.34l1.67.46,1.19-4a.86.86,0,0,0-1.66-.46Z"/><path class="cls-1" d="M89.07,124c-.2,1.16-.44,2.32-.72,3.46a.87.87,0,0,0,1.58.67,7,7,0,0,1,1.48-1.49l-1.27-1L89,128.72c-.28.74.66,1.31,1.27,1a2.77,2.77,0,0,0,1.33-1.62.87.87,0,0,0-1.44-.84l-2,2.28,1.35.17a2.39,2.39,0,0,1,.16-2.29.87.87,0,0,0-1.49-.88,4.17,4.17,0,0,0-.16,4,.87.87,0,0,0,1.36.17l2-2.28-1.44-.84a.86.86,0,0,1-.54.59l1.27,1,1.17-3.08a.87.87,0,0,0-1.27-1,9.6,9.6,0,0,0-2.11,2.11l1.58.66c.29-1.14.53-2.3.73-3.46s-1.48-1.56-1.67-.46Z"/><path class="cls-1" d="M98.16,148.27a6,6,0,0,0,.34,2.53.88.88,0,0,0,1.06.6.86.86,0,0,0,.61-1.06,4.69,4.69,0,0,1-.28-2.07.88.88,0,0,0-.87-.86.87.87,0,0,0-.86.86Z"/><path class="cls-1" d="M99.5,149.68l0-1.5-1.61.43a5,5,0,0,1,.55,2.07l1.7-.23a13.46,13.46,0,0,1-.44-1.77.86.86,0,0,0-1.06-.6.88.88,0,0,0-.61,1.06,15.25,15.25,0,0,0,.44,1.77c.29.89,1.75.79,1.7-.23a7,7,0,0,0-.79-2.94.87.87,0,0,0-1.61.44l0,1.5a.87.87,0,0,0,1.73,0Z"/><path class="cls-1" d="M87.94,127.88a14.69,14.69,0,0,1-.9,3.46c-.41,1,1.26,1.49,1.66.46a16.07,16.07,0,0,0,1-3.92c.13-1.1-1.6-1.09-1.73,0Z"/><path class="cls-1" d="M88.47,130a9.19,9.19,0,0,0-1.12,2h1.49c-.55-.84-.31-2.59-1.8-2.54-1.8.06-2,3.55-2.41,4.77a.87.87,0,0,0,1.27,1l2.58-1.7L87.61,132a11.14,11.14,0,0,0-3.68,5.52l1.7.23a7.81,7.81,0,0,1,.6-2.95c.26-.78-.91-1.53-1.45-.84a16.66,16.66,0,0,0-3.14,6.4.87.87,0,0,0,1.58.66,4.72,4.72,0,0,1,2.34-2c.87-.43.26-1.92-.66-1.58-3,1.12-4.22,3.59-5.26,6.48-.34.95,1.08,1.47,1.58.67a5.45,5.45,0,0,1,2.45-2.39c.8-.49.27-2-.67-1.59a7.33,7.33,0,0,0-3.62,3.52c-1.7,2.8-3.24,5.71-4.72,8.64-.5,1,1,1.87,1.5.88q1.47-2.94,3.07-5.81c1-1.88,2.12-4.72,4.23-5.56l-.67-1.58a8.9,8.9,0,0,0-3.06,3l1.58.67c.8-2.23,1.59-4.37,4-5.27l-.67-1.58a7.41,7.41,0,0,0-3,2.59l1.58.66a14.34,14.34,0,0,1,2.7-5.63l-1.45-.84a13,13,0,0,0-.66,3.41c-.08,1,1.37,1.08,1.7.23.67-1.79,1.24-3.27,2.88-4.49.87-.64.08-2.11-.87-1.49L85,133.68l1.27,1c.23-.73,1-2.77.77-2.93-.64-.36.52,1.48.28,1.11a.87.87,0,0,0,1.49,0,10.18,10.18,0,0,1,1.12-2c.61-.93-.88-1.8-1.49-.87Z"/><path class="cls-1" d="M80.43,113.26a8.79,8.79,0,0,1-1,2.32.87.87,0,0,0,1.18,1.18,10.41,10.41,0,0,0,2.57-1.94l-1.36-1-1.25,2.51c-.4.82.72,1.87,1.36,1a3.65,3.65,0,0,1,2.19-1.61l-1-1.27-1.8,1.9a.87.87,0,0,0,.67,1.58,22.25,22.25,0,0,0,3.64-1.14.86.86,0,0,0-.46-1.66c-3.38.71-5.64,3.68-8,6l1.23,1.23a22.07,22.07,0,0,0,3.41-5.79c.34-.82-.88-1.43-1.44-.84a26.08,26.08,0,0,0-2.5,3.06l1.61.44.75-2.18-1.49-.87c-1.81,2.75-4.25,4.15-5.48,7.35-.36.94,1.09,1.49,1.58.67a9,9,0,0,1,3.83-3.58l-1.27-1a9.84,9.84,0,0,1-3,4.63l1.44.84,1.49-2.19-1-1.36-4.2,4,1.47.61.7-2.19-1.45-.85L72,125.05a.87.87,0,0,0,.52,1.27,4.18,4.18,0,0,0,2.3.09l-.66-1.58a12.55,12.55,0,0,0-4.27,4.39l1.18-.31a22.9,22.9,0,0,1,1.92-3c.54-.81-.69-1.75-1.36-1a28.19,28.19,0,0,0-4.49,6.24.88.88,0,0,0,1,1.27c1.58-.39,2.53-1.06,2.59-2.72a.87.87,0,0,0-1.3-.74,8.44,8.44,0,0,0-3,2.42.87.87,0,0,0,.84,1.45,2.63,2.63,0,0,0,1.3-.57l-1.05-1.36c-2.24,2.46-4.52,4.88-6.73,7.37-1.69,1.88-3,4.41-5,6-.86.71.37,1.93,1.23,1.23,2-1.64,3.26-4.09,5-6,2.21-2.48,4.49-4.91,6.73-7.37.64-.69-.19-1.93-1-1.35l-.89.39.84,1.45a7.73,7.73,0,0,1,2.69-2.16l-1.3-.75-1.32,1.05,1,1.27a27,27,0,0,1,4.22-5.89l-1.36-1c-1,1.51-3.49,3.94-1.29,5.39a.86.86,0,0,0,1.18-.31,10.63,10.63,0,0,1,3.65-3.77.87.87,0,0,0-.67-1.58L73,124.65l.51,1.27a5.65,5.65,0,0,0,.89-2.27c.19-.79-.84-1.51-1.45-.84a4.09,4.09,0,0,0-1.2,3.42.88.88,0,0,0,1.48.61l4.21-4a.87.87,0,0,0-1-1.35,4.26,4.26,0,0,0-2.28,3.22.87.87,0,0,0,1.44.85,11.62,11.62,0,0,0,3.49-5.4.87.87,0,0,0-1.27-1,10.6,10.6,0,0,0-4.45,4.2l1.58.66c1.14-3,3.65-4.41,5.31-6.94.62-1-.85-1.75-1.49-.87a4.55,4.55,0,0,0-1,3,.87.87,0,0,0,1.61.43A16.58,16.58,0,0,1,81.58,117l-1.44-.84a18.72,18.72,0,0,1-3,5c-.69.85.42,2,1.23,1.23,2.08-2.06,4.26-4.94,7.23-5.57l-.46-1.66a22.22,22.22,0,0,1-3.64,1.13l.66,1.58a5.83,5.83,0,0,0,2.42-2.52.87.87,0,0,0-1-1.27,5.74,5.74,0,0,0-2.95,2.06l1.36,1,1.24-2.51a.87.87,0,0,0-1.35-1.05,6.47,6.47,0,0,1-2.22,1.67l1.18,1.18a15.86,15.86,0,0,0,1.21-2.73c.36-1-1.31-1.51-1.67-.46Z"/><path class="cls-1" d="M67.33,130.88a1.83,1.83,0,0,0-2,.57,3.26,3.26,0,0,0-.63,2.27.88.88,0,0,0,1.48.61,8,8,0,0,0,1.32-1.52.86.86,0,1,0-1.49-.87A5.85,5.85,0,0,1,65,133.1l1.48.62a2.14,2.14,0,0,1,.13-1,.58.58,0,0,1,.15-.16c.08-.06,0,0,.14,0a.87.87,0,0,0,1.07-.6.89.89,0,0,0-.61-1.06Z"/><path class="cls-1" d="M42.33,123.38a3.49,3.49,0,0,0-.88,2.23l1.7-.23s0-.22,0-.14,0-.15,0,0c0,0,.06-.23,0-.15s.08-.13.08-.14.17-.17.14-.14.13,0,0,0c0,0,.26,0,.11,0a.9.9,0,0,0,.87-.87.87.87,0,0,0-.87-.86,2.22,2.22,0,0,0-2,2.8.87.87,0,0,0,1.7-.23,1.6,1.6,0,0,1,.37-1,.89.89,0,0,0,0-1.23.88.88,0,0,0-1.22,0Z"/><path class="cls-1" d="M39.57,51.39c1.74,1.24,3.71,1.59,5.7,2.28a75.88,75.88,0,0,1,8.66,3.82c.69.34,1.75-.43,1.18-1.19a9.5,9.5,0,0,0-3.88-3.19c-.83-.38-1.84.66-1,1.36a36.75,36.75,0,0,0,8.62,5.7.87.87,0,0,0,.88-1.49,50.45,50.45,0,0,1-4.89-3.43l-1,1.36a71,71,0,0,1,7.74,4.27c.81.51,1.82-.74,1-1.36l-4.61-3.65-1,1.35c2.33,1.5,4.69,2.94,7.1,4.33L64.62,60a6,6,0,0,1-4.11-3l-1,1.27a47.29,47.29,0,0,1,9.25,4.48l.67-1.58-5.54-1.32a.87.87,0,0,0-.67,1.58,51.19,51.19,0,0,0,9.48,4.74c1,.36,1.45-1.07.66-1.58-1.28-.82-2.52-1.68-3.75-2.58L69,63.6l2.08.66a.87.87,0,0,0,1.09-.83c.27-2.88-3.66-3.94-5.85-4.49a.87.87,0,0,0-.66,1.58C69.44,62.87,74,62.84,78,64.72l.44-1.62a75,75,0,0,1-7.64-.54c-.93-.12-1.06,1.18-.44,1.61a15.49,15.49,0,0,0,6.18,2.55l.23-1.7a9.63,9.63,0,0,1-3.62-.3.87.87,0,0,0-.84,1.44,6.66,6.66,0,0,0,3.94,2,.88.88,0,0,0,1-1.27,9.76,9.76,0,0,0-2.89-3.14l-.67,1.58L79,67c.92.28,1.56-1.15.67-1.58-1.46-.71-3.18-2-4.84-2.09a.86.86,0,0,0-.86.86v.17a.88.88,0,0,0,.86.86h.13c1.11.06,1.11-1.67,0-1.73h-.13l.87.87v-.17l-.87.87c1.2.07,2.89,1.33,4,1.85l.66-1.58-5.29-1.65c-1-.3-1.42,1-.67,1.58a6.23,6.23,0,0,1,2.28,2.52l1-1.27a4.44,4.44,0,0,1-3.18-1.6l-.84,1.45a15.47,15.47,0,0,0,4.08.36c.93,0,1.23-1.51.23-1.7a14.4,14.4,0,0,1-5.76-2.38l-.44,1.62a74.83,74.83,0,0,0,7.64.54.87.87,0,0,0,.43-1.61c-4-1.87-8.58-1.87-12.36-4.19l-.67,1.58c1.11.27,4.74,1.15,4.58,2.82l1.1-.83-2.08-.67c-1-.31-1.41,1-.67,1.58,1.23.9,2.47,1.76,3.75,2.58l.67-1.58A48.75,48.75,0,0,1,64.11,60l-.66,1.58L69,62.85a.87.87,0,0,0,.67-1.58A49.78,49.78,0,0,0,60,56.61c-.73-.26-1.33.65-1,1.27a7.33,7.33,0,0,0,5.15,3.75.87.87,0,0,0,.67-1.58q-3.6-2.07-7.1-4.32c-.81-.52-1.82.74-1,1.36l4.62,3.65,1.05-1.35a71.9,71.9,0,0,0-7.73-4.28c-.82-.39-1.87.7-1,1.36a54.27,54.27,0,0,0,5.23,3.7l.88-1.49a35,35,0,0,1-8.28-5.44l-1,1.36a7.89,7.89,0,0,1,3.26,2.58L54.8,56c-2.19-1.07-4.39-2.15-6.66-3.07-2.46-1-5.53-1.48-7.69-3-.91-.65-1.78.85-.88,1.49Z"/><path class="cls-1" d="M62.62,33.89,70.05,39l.67-1.58a3.85,3.85,0,0,1-2.18-.94l-.67,1.58A22.93,22.93,0,0,1,72.19,40l.67-1.58-3.16-.75a.87.87,0,0,0-.84,1.45,22.94,22.94,0,0,0,5,3.61l.44-1.61-1.3-.6L72.14,42c1.59,1,3.13,2.1,4.64,3.23l.88-1.5L74.4,41.92a.87.87,0,0,0-1.05,1.35,15.43,15.43,0,0,0,3.27,2.41.86.86,0,0,0,.87-1.49,14.24,14.24,0,0,1-2.92-2.14l-1,1.36,3.25,1.83c1,.56,1.75-.84.88-1.5Q75.4,42,73,40.52c-1-.62-1.74.83-.88,1.49a4.13,4.13,0,0,0,2.18.84c.87.11,1.15-1.24.43-1.62a21.06,21.06,0,0,1-4.67-3.34l-.84,1.45,3.16.75a.87.87,0,0,0,.66-1.58,24.77,24.77,0,0,0-4.73-2.12c-1-.32-1.43,1-.66,1.58a6.38,6.38,0,0,0,2.59,1.12.87.87,0,0,0,.66-1.58L63.49,32.4c-.92-.64-1.78.86-.87,1.49Z"/><path class="cls-1" d="M76.37,46.18l1.35.93c.8.55,1.81-.73,1-1.36l-.88-1.3-1.27,1a7.93,7.93,0,0,1,1.58,1c.71.5,1.65-.48,1.18-1.18l-.39-.6L77.8,45.8l2.68,1.89.88-1.49-1.62-1c-.69-.44-1.39.29-1.27,1a2.89,2.89,0,0,0,.78,1.91l1.18-1.18-1-.76-.87,1.49,3,2.17.87-1.49-1.61-1c-.88-.54-1.67.64-1.05,1.36l1.62,1.89c.66.76,1.82-.22,1.36-1a21.59,21.59,0,0,1-1.35-3l-1.27,1A7.47,7.47,0,0,1,82,49a.87.87,0,0,0,1.35-1L83,47.37l-1.35,1.05c.94,1,1.9,2,2.9,3,.81.79,1.95-.39,1.22-1.22A16.57,16.57,0,0,0,83.5,48a.87.87,0,0,0-1.44.84,7.15,7.15,0,0,0,1.21,2.61l1.19-1.18-1.15-.77c-.88-.58-1.63.65-1,1.36a11,11,0,0,0,3.32,2.77.87.87,0,0,0,1-1.36,5.1,5.1,0,0,1-1.12-1.74L84.31,51.7l2.28,1.37a.87.87,0,0,0,1.18-1.18,18.6,18.6,0,0,0-2.27-3l-1,1.36a39.9,39.9,0,0,1,4.92,3.41l1-1.36c-.74-.44-1.47-.89-2.2-1.35s-1.71.66-1,1.36a32.23,32.23,0,0,0,4.62,4l.87-1.49a26.63,26.63,0,0,0-6.34-3.32.87.87,0,0,0-1,1.27A34.46,34.46,0,0,0,87.87,56l1.23-1.22-.95-1.14-1.36,1c.91.72,1.83,1.39,2.81,2,.59.39,1.56-.27,1.27-1a5.21,5.21,0,0,0-1.13-1.89c-.71-.86-1.93.37-1.22,1.22l.69,1.13,1.27-1A20.55,20.55,0,0,1,88,53.43c-.7-.56-2,.16-1.36,1A6.74,6.74,0,0,0,87.87,56a.87.87,0,0,0,1.23-1.22A29,29,0,0,1,86.83,52l-1,1.28a25.52,25.52,0,0,1,5.93,3.14c.91.65,1.77-.84.87-1.49a29.93,29.93,0,0,1-4.26-3.77l-1.05,1.36,2.2,1.35c.82.49,1.83-.73,1-1.36a43.72,43.72,0,0,0-5.28-3.68.86.86,0,0,0-1,1.35,17.37,17.37,0,0,1,2,2.61l1.18-1.18-2.27-1.37c-.79-.48-1.54.44-1.19,1.18a8.75,8.75,0,0,0,1.4,2.1l1-1.36a9.93,9.93,0,0,1-3-2.5l-1,1.36,1.15.76c.7.47,1.69-.48,1.19-1.18a4.37,4.37,0,0,1-1-2.2l-1.45.84a18.56,18.56,0,0,1,2.26,2.17l1.22-1.22c-1-1-2-1.95-2.9-3a.87.87,0,0,0-1.36,1.05l.36.63,1.36-1A12.57,12.57,0,0,0,81,46a.87.87,0,0,0-1.27,1,21.93,21.93,0,0,0,1.52,3.39l1.36-1L81,47.42l-1,1.36,1.62,1c1,.6,1.75-.85.87-1.49l-3-2.17c-.9-.67-1.73.83-.87,1.49l1,.76c.69.53,1.65-.5,1.18-1.18l-.61-1.5-1.27,1,1.62,1c1,.61,1.77-.85.88-1.49l-2.68-1.9c-.71-.5-1.65.48-1.19,1.19l.4.59,1.18-1.18a6.88,6.88,0,0,0-1.58-1,.87.87,0,0,0-1.27,1A3.6,3.6,0,0,0,77.55,47l1-1.35-1.35-.93c-.92-.63-1.79.87-.87,1.49Z"/><path class="cls-1" d="M146.06,62.85l2-1.32-.38-1.44a26.73,26.73,0,0,0-2.72,3.37.87.87,0,0,0,1,1.27,7.71,7.71,0,0,0,3.24-1.81l-1.45-.84-.89,1.53L148,64.83a61.53,61.53,0,0,0,4-5c.63-.86-.65-1.6-1.35-1l-2.84,2.24,1.44.84L150.7,60l-1.23-1.23-.91.67.84,1.44c1.38-1.31,2.87-.92,3.66-2.82.29-.7-.68-1.36-1.27-1l-2.14,1.4c-.78.51-.31,1.91.67,1.58a6.28,6.28,0,0,0,2.93-1.91c.54-.6,0-1.74-.84-1.45l-1.66.57.67,1.58c1.17-.55.53-.3.54-.37-.16.93-1.67,2.36-2.19,3.09-.65.92.84,1.75,1.49.87l5-6.72c.61-.81-.66-1.68-1.35-1a7,7,0,0,1-3,1.86l.84,1.44a8.48,8.48,0,0,1,3.36-1.76l-.84-1.44-1.9,2.44c-.54.7.17,2,1.05,1.36a22.16,22.16,0,0,0,4-3.63.87.87,0,0,0-1-1.36l-4.49,2.2,1.05,1.36a18.33,18.33,0,0,1,5.33-4l-1.27-1-.5,1.8a.87.87,0,0,0,1.67.46l2-2.45-1.27-1a3.73,3.73,0,0,1-1.52,2.51l1.36,1a28.91,28.91,0,0,1,2.23-4.23l-1.5-.87a13.07,13.07,0,0,0-.71,1.83c-.21.68.65,1.43,1.27,1l1.5-1.1-1.27-1-.43.82,1.36,1a4.27,4.27,0,0,1,1.67-2.34c.72-.64-.25-1.94-1.05-1.35l-1,.72c-.88.65,0,2.15.88,1.49l1-.72-1.05-1.36a6.61,6.61,0,0,0-1.93,2.69.86.86,0,0,0,1.35,1,1.79,1.79,0,0,0,.88-1.58c.1-.64-.59-1.47-1.27-1l-1.5,1.09,1.27,1,.54-1.42a.87.87,0,0,0-1.5-.87,29.26,29.26,0,0,0-2.22,4.22.87.87,0,0,0,1.36,1,6.25,6.25,0,0,0,2-3.27.87.87,0,0,0-1.27-1A5.81,5.81,0,0,0,157.49,54l1.67.46.5-1.81a.87.87,0,0,0-1.27-1A19.07,19.07,0,0,0,152.71,56a.87.87,0,0,0,1,1.36l4.5-2.2-1.05-1.36a20.43,20.43,0,0,1-3.65,3.36l1,1.35L156.5,56c.48-.61.07-1.74-.84-1.44a12.9,12.9,0,0,0-4.12,2.2c-.68.53.05,1.74.84,1.45a11,11,0,0,0,3.77-2.3l-1.36-1-5,6.72,1.49.87c1.12-1.57,3.75-3.88,2.08-5.8a.86.86,0,0,0-.84-.22c-.95.18-1,.48-1.95.93s-.26,1.9.66,1.58l1.66-.56L152,57l-2.17,1.47.66,1.58,2.14-1.4-1.27-1c-.31.73-2.5,1.39-3.21,2.06a.87.87,0,0,0,.84,1.45A2.7,2.7,0,0,0,150.7,60a.87.87,0,0,0-1.23-1.23,6.2,6.2,0,0,0-1.88,2.64c-.37.9.87,1.3,1.45.85L151.88,60l-1.36-1a59.16,59.16,0,0,1-3.72,4.62c-.74.83.44,2,1.22,1.22a5.17,5.17,0,0,0,1.34-2.29.87.87,0,0,0-1.45-.84l-2.47,1.36,1,1.27a24.49,24.49,0,0,1,2.45-3,.87.87,0,0,0-.38-1.45,3.24,3.24,0,0,0-4.15,3c-.15,1.1,1.59,1.09,1.73,0Z"/><path class="cls-1" d="M143.89,42.39l-.34.12a.88.88,0,0,0-.61,1.06.89.89,0,0,0,1.07.61l.34-.12A.88.88,0,0,0,145,43a.86.86,0,0,0-1.06-.61Z"/><path class="cls-1" d="M147.47,42.59a.63.63,0,0,1-.25-.26.86.86,0,0,0,1.06.6.87.87,0,0,0,.6-1.06,1.25,1.25,0,0,0-.95-.95.87.87,0,0,0-.46,1.67Z"/><path class="cls-1" d="M165.1,11.84a5.18,5.18,0,0,0,1.59-1.57.89.89,0,0,0-.31-1.19.9.9,0,0,0-1.19.31,3.07,3.07,0,0,1-1,1,.89.89,0,0,0-.31,1.18.87.87,0,0,0,1.19.31Z"/><path class="cls-1" d="M159.55,52.33l.91-1-1.22-1.22a3.09,3.09,0,0,0-.61,1.09c-.33,1.06,1.34,1.52,1.67.46a1.12,1.12,0,0,1,.16-.33.9.9,0,0,0,0-1.22.87.87,0,0,0-1.22,0l-.92,1c-.75.82.47,2,1.23,1.23Z"/><path class="cls-1" d="M163.2,49.41,164.45,48,163,47.6l-.13,1.26,1.58.66a3.33,3.33,0,0,1,2.17-2.25l-1-1.27a20.66,20.66,0,0,1-2,2.43l1.35,1c2.55-4.16,7.21-5.77,10.14-9.46.69-.87-.53-2.1-1.22-1.23-1.64,2.07-3.94,3.3-6,4.92a18.78,18.78,0,0,0-4.43,4.89.87.87,0,0,0,1.36,1,22.55,22.55,0,0,0,2.29-2.78c.41-.59-.28-1.55-1-1.27a5.55,5.55,0,0,0-3.38,3.46c-.34.91,1.16,1.55,1.58.67a3.43,3.43,0,0,0,.31-2.59.87.87,0,0,0-1.44-.38L162,48.18c-.74.84.48,2.07,1.22,1.23Z"/><path class="cls-1" d="M164.12,46.61a3.61,3.61,0,0,1-.79,1l1.44.38a.24.24,0,0,1,.07-.27.88.88,0,0,0,.31-1.18.87.87,0,0,0-1.18-.31,2,2,0,0,0-.86,2.22.87.87,0,0,0,1.44.38,5.53,5.53,0,0,0,1.07-1.29.87.87,0,0,0-1.5-.88Z"/><path class="cls-1" d="M151.17,71.51a19,19,0,0,0,4.57-1l-.67-1.58a39.7,39.7,0,0,0-3.94,2.63c-.73.56-.35,1.85.67,1.58l3.13-.84-.67-1.58a7.69,7.69,0,0,0-2.89,2.22.88.88,0,0,0,.61,1.48c3.32-.08,5.84-2.25,9-2.87a.87.87,0,0,0-.23-1.7,44.57,44.57,0,0,0-6.2.81L155,72.3c.52-.13,4.14-.88,4.26-1.3-.07.24-2.81.61-3,.66l1,1.27c1-1.65,1-4.25-1.62-3.7l.67,1.58a7.54,7.54,0,0,1,4-1.3L159.71,68l-1.33.8a.87.87,0,0,0,.46,1.67l3.81-.7-1-1.27-1.41,1.4a.87.87,0,0,0,.66,1.58l1.37-.23-.84-1.45-.83.65c-.8.62.22,1.8,1.05,1.36a47.84,47.84,0,0,1,6.49-2.92.87.87,0,0,0-.46-1.67,25.8,25.8,0,0,1-7.26.94l.23,1.7a103.18,103.18,0,0,1,10.13-2.33L170,66.12,167,68.58c-.78.65.22,1.8,1.05,1.36l3.52-1.86c.81-.43.36-1.55-.44-1.61a17.86,17.86,0,0,0-7.57.91.87.87,0,0,0,.46,1.67l10.31-2.16c1.08-.22.62-1.89-.46-1.67l-10.31,2.16.46,1.67a17,17,0,0,1,7.11-.85l-.43-1.62-3.52,1.87,1,1.35,2.93-2.46c.73-.61-.08-1.58-.84-1.44a103.13,103.13,0,0,0-10.13,2.32.87.87,0,0,0,.23,1.7,27.19,27.19,0,0,0,7.72-1l-.46-1.67a51.34,51.34,0,0,0-6.9,3.09l1,1.36.84-.64c.76-.59-.11-1.57-.85-1.45l-1.37.23.67,1.58a8.08,8.08,0,0,0,2-2c.49-.68-.31-1.4-1-1.28l-3.81.7.46,1.67a5,5,0,0,0,2.09-1.25.87.87,0,0,0-.61-1.47,9.24,9.24,0,0,0-4.91,1.54.87.87,0,0,0,.67,1.58l-.33,1.15a.87.87,0,0,0,1,1.27c1.33-.28,5.19-.37,4.47-2.69s-5.22-.36-6.61,0A.87.87,0,0,0,155,72.3a41.18,41.18,0,0,1,5.74-.75l-.23-1.7c-3,.58-5.48,2.73-8.57,2.81l.61,1.48a6.68,6.68,0,0,1,2.55-2c.91-.42.25-1.83-.67-1.58l-3.13.83L152,73a38.43,38.43,0,0,1,3.93-2.63c.82-.48.28-1.92-.66-1.58a16.31,16.31,0,0,1-4.11,1c-1.1.11-1.11,1.85,0,1.73Z"/><path class="cls-1" d="M170.3,66.05l-.34.09.66,1.58a9,9,0,0,1,4.87-1.51.87.87,0,0,0,0-1.73,10.83,10.83,0,0,0-5.74,1.74.87.87,0,0,0,.67,1.58l.34-.08c1.08-.26.63-1.93-.46-1.67Z"/><path class="cls-1" d="M173.3,67.54a13.7,13.7,0,0,0,5-1.79.87.87,0,0,0-.66-1.58,10.34,10.34,0,0,1-2.47.28v1.73c5.32-.61,10.51-2.67,15.61-4.22,1.06-.33.61-2-.46-1.67-4.92,1.5-10,3.57-15.15,4.16-1.08.12-1.14,1.76,0,1.73a19.34,19.34,0,0,0,2.93-.34l-.67-1.58a12.59,12.59,0,0,1-4.59,1.61c-1.09.17-.63,1.84.46,1.67Z"/><path class="cls-1" d="M77.56,4.92a.23.23,0,0,1,0,.24.87.87,0,0,0-1-1.27l-.3.07a.87.87,0,0,0,.46,1.67l.3-.08-1-1.27a1.67,1.67,0,0,0,0,1.51.88.88,0,0,0,1.19.31.89.89,0,0,0,.31-1.18Z"/><path class="cls-1" d="M128.66,160.73c-.15,0-.2-.07-.16-.14s0-.05-.05,0-.18,0-.27,0a2.17,2.17,0,0,1-.76-.13.43.43,0,0,0-.49.63,1.28,1.28,0,0,0,1.77.38,1.52,1.52,0,0,0,.39-2c-.25-.5-1-.06-.75.44a.66.66,0,0,1-.1.8.4.4,0,0,1-.56-.09l-.49.64a1.89,1.89,0,0,0,2-.21.76.76,0,0,0-.5-1.26c-.55-.06-.55.8,0,.86Z"/><path class="cls-1" d="M186.25,113.31a.79.79,0,0,1-.27,1.22c-.4.12-.77.06-1,.51a.44.44,0,0,0,.37.65,1.85,1.85,0,0,0,1.83-2.45c-.18-.52-1-.3-.84.23a1,1,0,0,1-1,1.35l.38.65c.06-.12.35-.08.47-.11a1.46,1.46,0,0,0,.44-.2,1.42,1.42,0,0,0,.5-.64,1.7,1.7,0,0,0-.29-1.82c-.4-.38-1,.23-.61.61Z"/><path class="cls-1" d="M146,1.48q-9.71,25.61-21,50.53c-.46,1,1,1.89,1.49.87q11.43-25.12,21.21-50.94c.4-1-1.27-1.49-1.66-.46Z"/><path class="cls-1" d="M146.6,2.5Q143,15.64,139.36,28.76c-2.41,8.72-5,17.37-9.26,25.41-.52,1,1,1.86,1.49.87,4.1-7.79,6.74-16.15,9.1-24.6,2.56-9.15,5.05-18.32,7.58-27.48a.87.87,0,0,0-1.67-.46Z"/><path class="cls-1" d="M127.9,52a7.4,7.4,0,0,1,1.28-2.63l-1.58-.66-.69,3.73c-.16.9,1.1,1.6,1.58.67L130,50.21l-1.61-.43a12.8,12.8,0,0,0,.27,3.38.88.88,0,0,0,1.59.2A39.7,39.7,0,0,0,132.47,47a.87.87,0,0,0-1.58-.67l-2.57,3.53,1.58.66a18.54,18.54,0,0,1,2.33-6.83l-1.61-.44a19.83,19.83,0,0,0,.47,5.9c.26,1,1.58.67,1.7-.23l1.12-8.65c.1-.84-1.27-1.19-1.62-.44l-2,4.33,1.62.43a16.82,16.82,0,0,1,1.8-5.69l-1.61-.44a48.46,48.46,0,0,1,.12,7.62.87.87,0,0,0,1.7.23q1.2-5.36,2.84-10.59c.31-1-1-1.39-1.58-.67a21.67,21.67,0,0,0-2.33,3.79l1.58.21c-.59-1.71,1.79-4.81,2.57-6.29l-1.58-.21,0,2.85a.86.86,0,0,0,1.66.46l1.79-5.3a.87.87,0,0,0-1.45-.84,28.12,28.12,0,0,1-2.1,2.13l1.44.84.93-1.84c.76-.81-.46-2-1.22-1.22a4.93,4.93,0,0,0-1.38,2.6.87.87,0,0,0,1.45.84,28.28,28.28,0,0,0,2.11-2.13l-1.45-.84-1.78,5.3,1.66.46a7.3,7.3,0,0,0,0-3.77.87.87,0,0,0-1.58-.21c-1.13,2.14-3.63,5.08-2.75,7.63.23.64,1.24.92,1.58.2a21.59,21.59,0,0,1,2.33-3.78l-1.58-.67q-1.63,5.24-2.83,10.59l1.69.23a49.7,49.7,0,0,0-.12-7.62c-.08-.78-1.19-1.27-1.61-.44a19.55,19.55,0,0,0-2,6.57c-.11.85,1.26,1.2,1.61.44l2-4.32-1.61-.44-1.12,8.65,1.7-.23a18.4,18.4,0,0,1-.41-5.44.87.87,0,0,0-1.61-.44,20.05,20.05,0,0,0-2.51,7.26.87.87,0,0,0,1.58.66l2.58-3.52-1.58-.67a38.17,38.17,0,0,1-2.06,6l1.58.21a7.8,7.8,0,0,1-.21-2.92.88.88,0,0,0-1.62-.44l-1.5,2.9,1.58.67.69-3.73a.87.87,0,0,0-1.58-.67,12.16,12.16,0,0,0-1.46,3c-.35,1.06,1.32,1.52,1.67.46Z"/><path class="cls-1" d="M138.18,30.42c-1.38-1.56.71-4.4,1.43-6.12L143,16.16c.43-1-1.25-1.48-1.67-.46l-4.52,10.86c-1.05,2.52-1.55,3.16.15,5.08.74.84,2-.39,1.22-1.22Z"/><path class="cls-1" d="M138.66,30.22c-.12-2.76,1.6-6,2.61-8.53.41-1-1.26-1.48-1.67-.46-1.09,2.74-2.8,6-2.67,9,0,1.11,1.77,1.12,1.73,0Z"/><path class="cls-1" d="M147,2.43l.24-.11-.63-.49a.77.77,0,0,0,0,.61c.14.33.59.24.75,0a.85.85,0,0,0,.12-.69c-.08-.49-.86-.37-.85.11v.26l.85-.11h-.71a.09.09,0,0,1,0,.09l.84.12V1.89a.43.43,0,0,0-.86,0,5.33,5.33,0,0,1-.17,1,.43.43,0,0,0,.79.33A1.9,1.9,0,0,0,147.33,1c-.34-.44-1,.18-.61.61a1,1,0,0,1,0,1.15l.79.33a6,6,0,0,0,.2-1.2h-.86v.34c0,.47.75.6.85.11a1,1,0,0,0-.12-.75.43.43,0,0,0-.74,0,.83.83,0,0,0-.13.65c.07.48.86.36.85-.12V1.86l-.85.12,0,0h.75l0,.05c.14-.39-.32-.64-.63-.49l-.25.12c-.5.23-.06,1,.44.74Z"/><path class="cls-1" d="M93.68,121.68l.61-2.83-1.28.52c1.09.57-1.84,2.39-2.15,2.65a4.13,4.13,0,0,0-1.25,1.92c-.82,2.2-2.33,4-3,6.25a.87.87,0,0,0,1.67.46c.54-1.79,1.69-3,2.45-4.59.59-1.24.38-1.92,1.72-3,.5-.42,1.16-.61,1.65-1.07,1.3-1.2,1.54-3.16-.19-4.08a.88.88,0,0,0-1.27.52L92,121.22c-.23,1.09,1.44,1.55,1.67.46Z"/><path class="cls-1" d="M130.35,53.6a30.37,30.37,0,0,1,2-4.94l-1.61-.44a7.72,7.72,0,0,1-1.65,5.4l1.18-.31c.28.41.44.27.47-.43.17-.43.33-.86.49-1.3.25-.65.5-1.29.76-1.94q.88-2.27,1.81-4.51c.43-1-1.24-1.47-1.66-.46q-1.4,3.38-2.7,6.78c-.44,1.18-1.23,2.44,0,3.36a.9.9,0,0,0,1.19-.31,9.16,9.16,0,0,0,1.88-6.28c0-.79-1.2-1.25-1.61-.43a31.19,31.19,0,0,0-2.12,5.35.86.86,0,0,0,1.66.46Z"/><path class="cls-1" d="M132.53,49.14a15.19,15.19,0,0,1,1.8-3.79l-1.61-.44-1.12,2.45,1.44.85a95.52,95.52,0,0,1,3.58-10.59L135,37.16a26.16,26.16,0,0,1-2.58,8.1l1.58.66a38.91,38.91,0,0,1,3.69-11.3L136,34.19a8.79,8.79,0,0,1-1.85,5.64l1.58.66q5.35-15,9.39-30.48a.87.87,0,0,0-1.67-.46Q139.46,25,134.11,40c-.36,1,1,1.39,1.58.66a10.24,10.24,0,0,0,2.08-6.51.87.87,0,0,0-1.61-.44,40.32,40.32,0,0,0-3.87,11.71c-.15.9,1.1,1.61,1.58.67a27.21,27.21,0,0,0,2.75-8.51.86.86,0,0,0-1.66-.46,93.55,93.55,0,0,0-3.59,10.59.87.87,0,0,0,1.45.84,3.88,3.88,0,0,0,1.63-3.68.88.88,0,0,0-1.62-.44,18.36,18.36,0,0,0-2,4.21c-.35,1.06,1.32,1.51,1.67.46Z"/><path class="cls-1" d="M147.33,3.45A2.52,2.52,0,0,0,148,1.69l-.85.11.09.32A.43.43,0,0,0,148,2a1.27,1.27,0,0,0-.32-.87c-.23-.3-.74,0-.73.31a4.83,4.83,0,0,0,.17,1.14.44.44,0,0,0,.79.1,1.57,1.57,0,0,0,.18-1l-.53.53L147.5,2l.84.23a1,1,0,0,0-.27-1,.44.44,0,0,0-.73.31L147.19,3c-.06.51.7.55.84.11.23-.69.26-1.72-.65-1.91-.75-.17-1.16.61-1.29,1.22s.72.77.83.23c0-.11.11-.6.27-.61s0,.75,0,.84l.85.12.15-1.41-.74.31c.06.05.06,0,0,.12a.44.44,0,0,0,.84.23.73.73,0,0,0-.51-.93.45.45,0,0,0-.54.54.63.63,0,0,1-.08.38l.79.1a3.53,3.53,0,0,1-.15-.91l-.74.3a.3.3,0,0,1,.06.26l.85-.12-.09-.32c-.13-.45-.88-.38-.85.12a1.6,1.6,0,0,1-.36,1.15c-.35.42.25,1,.61.61Z"/></g></g></svg>