<?xml version="1.0" encoding="utf-8"?>
<!-- Generator: Adobe Illustrator 21.1.0, SVG Export Plug-In . SVG Version: 6.00 Build 0)  -->
<svg version="1.1" id="圖層_1" xmlns="http://www.w3.org/2000/svg" xmlns:xlink="http://www.w3.org/1999/xlink" x="0px" y="0px"
	 viewBox="0 0 365 365" style="enable-background:new 0 0 365 365;" xml:space="preserve">
<style type="text/css">
	.st0{fill:#EFEFEF;}
</style>
<g>
	<path class="st0" d="M355.6,296.1L69.6,10.1c-12.5-12.5-32.7-12.5-45.2,0L9.4,25.1c-12.5,12.5-12.5,32.7,0,45.2l286.1,286.1
		c12.5,12.5,32.7,12.5,45.2,0l15.1-15.1C368.1,328.8,368.1,308.6,355.6,296.1z"/>
	<path class="st0" d="M295.4,10.1L9.4,296.1c-12.5,12.5-12.5,32.7,0,45.2l15.1,15.1c12.5,12.5,32.7,12.5,45.2,0l286.1-286
		c12.5-12.5,12.5-32.7,0-45.2l-15.1-15.1C328.1-2.4,307.9-2.4,295.4,10.1z"/>
</g>
</svg>
