<svg xmlns="http://www.w3.org/2000/svg" width="99.159" height="39.896" viewBox="0 0 99.159 39.896">
  <g id="Group_258" data-name="Group 258" transform="matrix(0.996, -0.087, 0.087, 0.996, -1.29, 8.432)">
    <path id="Path_658" data-name="Path 658" d="M.6,1.322a11.457,11.457,0,0,1,4.731.324c.738.3,1.058-.9.329-1.193A12.191,12.191,0,0,0,.6.086C-.2.122-.2,1.359.6,1.322Z" transform="translate(10.138 23.591)" fill="#247cd4"/>
    <path id="Path_659" data-name="Path 659" d="M.324,1.124A25.59,25.59,0,0,0,4.393,2.516a10.058,10.058,0,0,0,3.781.51.6.6,0,0,0,.432-.432C8.791,1.473,7.448.822,6.6.38c-.7-.366-1.327.687-.624,1.068A14.5,14.5,0,0,0,8.526,2.534c.76.242,1.086-.952.329-1.193A12.87,12.87,0,0,1,6.6.38L5.974,1.448c.188.1,1.441.8,1.439.817l.432-.432A9.828,9.828,0,0,1,4.3,1.216,23.777,23.777,0,0,1,.949.056C.225-.255-.405.81.324,1.124Z" transform="translate(10.75 26.377)" fill="#247cd4"/>
    <g id="Group_68" data-name="Group 68" transform="translate(0 0)">
      <g id="Group_67" data-name="Group 67">
        <path id="Path_660" data-name="Path 660" d="M.431,2.637A7.724,7.724,0,0,0,5.41,2.5a.623.623,0,0,0,.37-.908C5.323.984,4.758-.136,3.833.014a1.671,1.671,0,0,0-.78.492,4.3,4.3,0,0,1-1.661.881.619.619,0,0,0,.329,1.193l1.125-.292c.108-.028,1.025-.177.794-.374.6.513,1.482-.358.874-.874-.766-.65-2.275.128-3.122.348l.329,1.193a5.5,5.5,0,0,0,1.619-.734c.171-.117.407-.42.587-.465q.22-.3.337.241l.446.591.37-.908a6.624,6.624,0,0,1-4.321.14C0,1.206-.327,2.4.431,2.637Z" transform="translate(68.854 21.029)" fill="#247cd4"/>
        <g id="Group_66" data-name="Group 66">
          <path id="Path_661" data-name="Path 661" d="M0,0" transform="translate(78.641 17.124)" fill="#247cd4" stroke="#6a6a6a" stroke-miterlimit="10" stroke-width="1"/>
          <path id="Path_662" data-name="Path 662" d="M1.21,4.634Q3.14,6.118,5.159,7.477A2.49,2.49,0,0,0,8.543,6.59a2.533,2.533,0,0,0-.887-3.384Q5.637,1.846,3.707.363A2.479,2.479,0,0,0,.323,1.25,2.551,2.551,0,0,0,1.21,4.634Z" transform="translate(28.363 17.076)" fill="#247cd4"/>
          <path id="Path_663" data-name="Path 663" d="M.425,1.229A31.36,31.36,0,0,1,3.5,2.416a3.641,3.641,0,0,0,2.3.532c1.662-.23,2-.655,1.324-2.172l-.7.908A13.851,13.851,0,0,1,9.886,3.311c.67.433,1.291-.637.624-1.068A15.065,15.065,0,0,0,6.751.493c-.565-.175-.9.45-.7.908a3.644,3.644,0,0,1,.284.761l.159-.6c-.277.291-1.778.049-1.99-.02-.4-.13-.787-.379-1.174-.543C2.487.638,1.621.337.754.037,0-.224-.324.971.425,1.229Z" transform="translate(16.498 22.232)" fill="#247cd4"/>
          <g id="Group_65" data-name="Group 65">
            <path id="Path_664" data-name="Path 664" d="M.7,1.241q-.053.1.046-.026a.186.186,0,0,1,.1-.082.252.252,0,0,1,.181-.023.323.323,0,0,1,.2.161.086.086,0,0,1,.012.055c0,.048,0,.039,0-.025-.024.031-.028.072,0,0-.042.094.02-.031.03-.049q.035-.051,0-.007l.043-.05c.045-.049.09-.1.137-.144a.629.629,0,0,0,0-.874.626.626,0,0,0-.874,0,1.408,1.408,0,0,0-.43,1.691.943.943,0,0,0,1.626,0,.637.637,0,0,0-.222-.846A.623.623,0,0,0,.7,1.241Z" transform="translate(79.613 13.413)" fill="#247cd4"/>
            <path id="Path_665" data-name="Path 665" d="M.511.808a2.5,2.5,0,0,1-.088.265L.535.807a2.228,2.228,0,0,1-.281.481l.174-.225c-.035.044-.071.086-.109.127a1.132,1.132,0,0,0,0,1.574,1.129,1.129,0,0,0,1.574,0A3.3,3.3,0,0,0,2.657,1.4,1.127,1.127,0,0,0,1.88.031,1.133,1.133,0,0,0,.511.808Z" transform="translate(79.566 12.811)" fill="#247cd4"/>
            <path id="Path_666" data-name="Path 666" d="M1.326,12.683c0-.4,0-.289-.382-.031a2.365,2.365,0,0,0-.6.559A1.73,1.73,0,0,0,.07,14.742c.386,1.387,2.094,1.932,3.3,2.355,3.231,1.135,6.783,1.512,10.139,2.135.735.137,1.716-.506,1.369-1.369a2.346,2.346,0,0,0-.5-.85q-.2-.167-.4-.321-.61-.562-.236.91c.746.35,1.693-1.227,2.117-1.052a1.114,1.114,0,0,0,1.369-.777c.265-1.656-.993-3.2-1.448-4.759L14.4,12.383l-.054-.047-.326-.787.033.257,1.9-.787c-1.432-1.273.348-2.338.607-3.668a18.77,18.77,0,0,0,.124-2.428,27.968,27.968,0,0,1,.456-3.515l-1.073.817.127,0-.961-.551.06.135V.689q.468-.392-.171.043-.368.222-.737.442c-.493.291-.989.579-1.494.85a18.494,18.494,0,0,1-3.268,1.4l1.257,1.635a1.044,1.044,0,0,1,.787-.449c1.392-.337.8-2.484-.592-2.147A3.549,3.549,0,0,0,8.96,3.935c-.589.792.385,1.907,1.257,1.635a24.033,24.033,0,0,0,4.923-2.256c1.1-.638,2.7-1.236,2.018-2.759A1.1,1.1,0,0,0,16.2,0L16.07,0A1.123,1.123,0,0,0,15,.817a33.041,33.041,0,0,0-.518,3.867c-.043.618-.034,1.237-.072,1.854s-.309.838-.644,1.331a3.643,3.643,0,0,0,.62,4.725c.634.563,2.032.251,1.9-.787A1.57,1.57,0,0,0,15,10.237a1.127,1.127,0,0,0-1.369,1.369,16.828,16.828,0,0,0,.688,1.933c.172.4.824,1.244.76,1.643l1.369-.777a2.138,2.138,0,0,0-2.219.506,1.732,1.732,0,0,1-.787.5,3.3,3.3,0,0,0-1.056.309,1.558,1.558,0,0,0-.64,1.651,1.786,1.786,0,0,0,.512.8c.1.094.607.61.477.289L14.1,17.085c-2.665-.495-5.362-.909-8-1.528-.577-.136-1.152-.286-1.717-.467-.377-.121-.748-.254-1.114-.407-.094-.039-.8-.252-.825-.278q-.345.092.082-.1l.211-.132a2.34,2.34,0,0,0,.391-.32,1.675,1.675,0,0,0,.425-1.172,1.114,1.114,0,0,0-2.226,0Z" transform="translate(79.163 0.472)" fill="#247cd4"/>
            <path id="Path_667" data-name="Path 667" d="M20.161,19.013c-.068-.032-.13-.068-.192-.1.238-.013.011-.562-.036-.811a10.467,10.467,0,0,0-.286-1.155,11.974,11.974,0,0,0-.964-2.271,4.834,4.834,0,0,0-.343-.52c-.279-1.23-.776-2.356-1.048-3.609a3.289,3.289,0,0,1,.159-.536c.266-.648.814-1.077.637-1.854a1.386,1.386,0,0,0-.425-.707q.68-2.116,1.186-4.286A1.157,1.157,0,0,0,18.5,2.071c.041-.044.083-.09.124-.142C19.5.839,18.064-.7,17.05.355c-.051.053-.1.1-.157.156a6.943,6.943,0,0,1-1.087.524.935.935,0,0,0-.552.015,13.623,13.623,0,0,0-3.3,1.885l-.025.008c-.939.324-1.887.618-2.841.895a1.08,1.08,0,0,0-.78,1c-.179.084-.357.168-.534.257a41.874,41.874,0,0,0-4.14,2.447A15.7,15.7,0,0,0,.293,10.126c-.947,1.069.621,2.649,1.574,1.574a7.69,7.69,0,0,1,.826-.793.98.98,0,0,0,.376.655,5.1,5.1,0,0,0,.435.329c.607.75-2.054,2.828-2.5,3.122a1.109,1.109,0,0,0,.722,2.044c.52.83,1.962,1.1,2.809,1.268a1.327,1.327,0,0,0,.388.023,1.2,1.2,0,0,0,.476.658,4.436,4.436,0,0,0,.51.294,1.167,1.167,0,0,1,.362.113c.024.007.045.017.068.025a1.176,1.176,0,0,1,.208.055,1.172,1.172,0,0,1,.39.121,1.212,1.212,0,0,1,.286.073,1.2,1.2,0,0,1,.451.123,1.273,1.273,0,0,1,.15.037,1.249,1.249,0,0,1,.285.059,8.081,8.081,0,0,0,2.256-.133,12.638,12.638,0,0,0,1.888.6,8.827,8.827,0,0,0,2.6.1,3.036,3.036,0,0,0,1,.651,5.079,5.079,0,0,0,2.812-.384,1.824,1.824,0,0,0,.631.307C20.482,21.376,21.333,19.557,20.161,19.013ZM4.285,9.765l.37-.237c.009.148.028.295.052.44a2.313,2.313,0,0,0-.289-.155A1.086,1.086,0,0,0,4.285,9.765ZM4.5,14.954q.1-.118.2-.24c.041.108.087.216.139.322C4.725,15.006,4.611,14.978,4.5,14.954Zm5.832-8.544-.019-.036.133-.059Zm4.315,10.348c-.076-.025-.154-.048-.23-.072,0-.172,0-.347-.015-.523.075.139.153.277.237.411.048.076.1.15.149.225C14.72,16.781,14.67,16.767,14.644,16.759Zm.378-11.988a1.092,1.092,0,0,0-.1-.123l.122-.061C15.037,4.648,15.03,4.709,15.021,4.771Z" transform="translate(77.594 0.87)" fill="#247cd4"/>
            <path id="Path_668" data-name="Path 668" d="M0,.007v0Z" transform="translate(87.256 13.093)" fill="#247cd4"/>
            <path id="Path_669" data-name="Path 669" d="M1.225.279,1.01.361a.621.621,0,0,0,.164,1.215,2.148,2.148,0,0,1,1.045.3.625.625,0,0,0,.908-.7C2.934.609,2.45-.063,1.77,0A1.364,1.364,0,0,0,.973.5l-.788.775c-.568.559.306,1.433.874.874l.526-.516c.107-.105.3-.386.432-.422H1.687c.13.027.207.178.247.3l.909-.7A3.469,3.469,0,0,0,1.174.339l.164,1.215.216-.082A.636.636,0,0,0,1.986.711.623.623,0,0,0,1.225.279Z" transform="translate(70.371 10.237)" fill="#247cd4"/>
            <path id="Path_670" data-name="Path 670" d="M.6,2.9c.754-.03,1.512-.084,2.267-.091a3.347,3.347,0,0,1,2.55,1,.621.621,0,0,0,.971-.749C5.838,1.864,4.563,1.985,3.5,1.592l.432.761c.015-.077,2.056-.722,2.367-.82A6.106,6.106,0,0,1,7.553,1.27a3.832,3.832,0,0,1,.833-.024,1.392,1.392,0,0,0-.1.394c.128,1.158.059,1.981,1.091,2.8.5.4,1.4-.116.971-.749a2.363,2.363,0,0,1-.464-1.516.626.626,0,0,0-.783-.6,16.394,16.394,0,0,1-4.913.095l.164,1.215c.242-.073,3.128-.832,2.912-1.148-.172-.252-.957.735-.994.882C5.877,4.148,8.073,4.127,8.943,4.2c.794.064.789-1.173,0-1.237-.129-.01-1.51-.2-1.491.043,0-.032.683-.329.761-.4a.954.954,0,0,0,.257-1.223c-.728-1.452-3.423.005-4.448.313a.622.622,0,0,0,.164,1.215,17.439,17.439,0,0,0,5.242-.139l-.783-.6a3.474,3.474,0,0,0,.633,2.14l.971-.749a1.836,1.836,0,0,1-.779-1.52c.01-.455.3-.8.157-1.256C9.41.068,8.582,0,7.919,0A8.742,8.742,0,0,0,4.666.828c-.6.241-1.777.428-1.93,1.2a.639.639,0,0,0,.432.761c.671.247,1.809.155,2.148.895l.971-.749A4.513,4.513,0,0,0,3.93,1.6,18.169,18.169,0,0,0,.6,1.659C-.2,1.691-.2,2.928.6,2.9Z" transform="translate(39.37 5.385)" fill="#247cd4"/>
            <path id="Path_671" data-name="Path 671" d="M5.5,3.562a16.392,16.392,0,0,1,3.4-.593l3.62-.564L11.867.019A7.794,7.794,0,0,0,8.939,2.1,15.749,15.749,0,0,1,5.213,4.718l.953-.125-.32-.05.739.568a7.376,7.376,0,0,1,.706-.9L5.225,3.661c.314.962-.885,2.1-1.515,2.692A8.519,8.519,0,0,1,.842,8.115l1.2,2.067c.512-.605,1.37-.667,2.073-.971A12.176,12.176,0,0,0,6.331,7.705c1.384-.994,2.944-1.682,4.025-3.048.978-1.235-.761-3-1.749-1.749C7.527,4.272,5.887,4.933,4.536,5.98A7.548,7.548,0,0,1,2.191,7.267,4.091,4.091,0,0,0,.3,8.433C-.419,9.28.232,10.974,1.5,10.5,4.156,9.507,8.732,6.446,7.61,3a1.248,1.248,0,0,0-2.067-.546c-.788.9-1.609,2-1.354,3.272A1.6,1.6,0,0,0,6.314,6.916,13.277,13.277,0,0,0,9.729,4.669c.91-.7,1.688-1.894,2.8-2.265A1.238,1.238,0,0,0,11.867.019L8.247.583a16.423,16.423,0,0,0-3.4.593c-1.463.579-.825,2.972.657,2.385Z" transform="translate(67.465 12.287)" fill="#247cd4"/>
            <path id="Path_672" data-name="Path 672" d="M2.389,4.957A53.277,53.277,0,0,1,9.9,5.346a2.487,2.487,0,0,0,2.474-2.474A2.535,2.535,0,0,0,9.9.4,53.278,53.278,0,0,0,2.389.009c-3.18.06-3.19,5.007,0,4.947Z" transform="translate(30.659 15.328)" fill="#247cd4"/>
            <path id="Path_673" data-name="Path 673" d="M18.6,7.751A100.484,100.484,0,0,0,30.244,6.659c1.742-.295,3.42-.235,5.172-.372A12.123,12.123,0,0,0,40.777,4.6L37.055,2.467c.005-.287.127-.145-.362.126a11.509,11.509,0,0,1-1.366.51A23.033,23.033,0,0,1,33.1,4.11c-1.034.281-2.178.27-3.234.52a20.618,20.618,0,0,0-3.1,1.015,5.716,5.716,0,0,1-2.426.787,6.245,6.245,0,0,0-3.28.43c-.039.018-1,.4-.443.318a8.421,8.421,0,0,1-1.459-.254,3.847,3.847,0,0,0-3.211,1.191,2.5,2.5,0,0,0,0,3.5,3.712,3.712,0,0,0,2.6,1.038l-.657-4.859c-1.957.269-3.931.414-5.9.494l1.749,4.223a1.088,1.088,0,0,1,.682-.3L12.516,7.693a5.035,5.035,0,0,1-2.008.158A25.452,25.452,0,0,0,7.6,8.142a49.168,49.168,0,0,1-5.175.7c-2.73.1-3.43,4.119-.658,4.859a10.377,10.377,0,0,0,6.387-.259A2.544,2.544,0,0,0,9.88,10.4,2.492,2.492,0,0,0,6.837,8.67a5.794,5.794,0,0,1-3.756.259l-.657,4.859c2.2-.083,4.317-.608,6.49-.876,2.12-.261,4.113.033,6.1-.948,2.61-1.29.723-5.106-1.906-4.521a6.09,6.09,0,0,0-2.865,1.57,2.5,2.5,0,0,0,1.749,4.223c2.421-.1,4.819-.341,7.219-.671a2.445,2.445,0,0,0,1.772-2.714,2.472,2.472,0,0,0-2.43-2.145l.042-.019,1.091.636-.24-.207v3.5c-.128.142-.66.09-.543.248.084.113.661.126.8.148a4.759,4.759,0,0,0,2.042-.071c.769-.215,1.238-.707,2.022-.627,2.623.266,4.721-1.242,7.205-1.86,1.126-.28,2.258-.342,3.391-.556a17.477,17.477,0,0,0,2.87-1.24C39.684,6.73,41.946,5.4,42,2.467A2.5,2.5,0,0,0,38.28.331a7.567,7.567,0,0,1-4.025,1.047,33.607,33.607,0,0,0-5.325.51A89.26,89.26,0,0,1,18.6,2.8c-3.168.163-3.187,5.111,0,4.947Z" transform="translate(25.421 17.276)" fill="#247cd4"/>
            <path id="Path_674" data-name="Path 674" d="M4.274,8.2q2.914.684,5.857,1.234a21.063,21.063,0,0,0,5.525.62c1.909-.163,3.75-.625,5.671-.754a37.655,37.655,0,0,0,5.921-1.006c3.832-.877,7.777-1.272,11.667-1.807L51.115,4.8,48.072,1.761c-.592,3.127-3.238,4.855-6.223,5.41a27.585,27.585,0,0,1-5.45.092,19.641,19.641,0,0,0-5.953.788,2.5,2.5,0,0,0,0,4.77,14.487,14.487,0,0,0,6.284.7L35.482,8.908c-4.966,2.118-10.932-.094-15.827-1.334v4.771a2.467,2.467,0,0,1,2.133.058L21.2,7.881a5.878,5.878,0,0,1-2.412-.053c-1.057-.081-2.111-.192-3.159-.357-2.18-.343-4.319-.9-6.512-1.167-3.6-.435-10.172.881-8.969,5.977a5.5,5.5,0,0,0,4.4,3.871c2.144.417,4.128-.175,6.227-.549,1.947-.347,3.912.181,5.836.445a14.837,14.837,0,0,0,3,.188,23.176,23.176,0,0,1,3.183-.5,11.98,11.98,0,0,0,3.267.292,5.857,5.857,0,0,0,4.567-7.735c-.748-2.1-4.259-2.588-4.77,0-.235,1.187-1.876,1.579-2.817,2.085-.754.406-1.343,1.072-2.067,1.482.354-.2.289-.036-.132-.112a11.055,11.055,0,0,0-1.3-.084,58.668,58.668,0,0,0-11.581.581l1.315,4.77c1.187-.2,2.486.341,3.635.563a9.117,9.117,0,0,0,4.648-.081c3.012-.987,1.723-5.765-1.315-4.77a6.573,6.573,0,0,1-3.545-.256,12.145,12.145,0,0,0-4.738-.226,2.493,2.493,0,0,0-1.728,3.043,2.539,2.539,0,0,0,3.043,1.728,51.085,51.085,0,0,1,6.457-.483q1.666-.024,3.332.054a12.255,12.255,0,0,0,3.127.007,6.386,6.386,0,0,0,2.527-1.463,17.648,17.648,0,0,1,2.24-1.2,6.61,6.61,0,0,0,3.666-4.328h-4.77c.374,1.053-.151,1.739-1.265,1.484a7.657,7.657,0,0,0-3.313-.144,11.523,11.523,0,0,1-2.73.351c-2.014-.076-3.974-.668-5.992-.747-2.055-.08-3.925.694-5.938.817a3.855,3.855,0,0,1-.927-.02A7.016,7.016,0,0,1,5,11.1a2.342,2.342,0,0,1-.2.661c-.105-.083.624-.4.582-.382,1.539-.688,3.708-.152,5.279.163,2.219.445,4.43.86,6.684,1.1,2.146.228,4.357.537,6.344-.491,2.1-1.084,1.206-3.784-.591-4.521a6.621,6.621,0,0,0-4.763-.058c-2.156.8-2.536,4.128,0,4.771,6.518,1.652,13.144,3.6,19.639.836C40.2,12.234,39.108,8.3,36.73,8.57a11.03,11.03,0,0,1-4.968-.518v4.77c4.261-1.289,8.734.109,13.007-1.293,3.89-1.276,7.288-4.3,8.074-8.452A2.517,2.517,0,0,0,49.8.034L38.088,1.645c-3.746.515-7.542.9-11.246,1.673a40.642,40.642,0,0,1-5.294,1.015c-1.905.14-3.727.429-5.611.716a14.156,14.156,0,0,1-4.717-.433Q8.391,4.088,5.59,3.425C2.493,2.7,1.171,7.467,4.274,8.2Z" transform="translate(20.003 13.215)" fill="#247cd4"/>
            <path id="Path_675" data-name="Path 675" d="M.491.449C.484.473.477.5.47.521.436.639.518.438.481.495A1.4,1.4,0,0,0,.393.639C.405.613.476.545.417.6L.364.654C.289.731.448.6.386.64.36.656.334.674.307.69a.626.626,0,0,0-.222.846.629.629,0,0,0,.846.222,1.638,1.638,0,0,0,.752-.98A.626.626,0,0,0,1.252.017.63.63,0,0,0,.491.449Z" transform="translate(8.724 19.827)" fill="#247cd4"/>
            <path id="Path_676" data-name="Path 676" d="M7.5.925a7.084,7.084,0,0,1,.681,1.534c.179.6.178.7-.49.775-.862.1-1.683-.4-2.539-.428a5.586,5.586,0,0,0-1.969.544c-.907.3-1.853.08-2.753.435l.477,1.13c.829-.5,2.1-.224,3.036-.217a30.615,30.615,0,0,0,3.481-.22c2.124-.228,4.338-.07,6.432-.436l-.761-.432a4.12,4.12,0,0,0,.273,1.467c.27.5.976,1.176.864,1.794l.6-.454a2.241,2.241,0,0,0-.367-.4.619.619,0,0,0-.875.874c.356.353.691.827,1.242.76a.637.637,0,0,0,.6-.454,2.808,2.808,0,0,0-.367-1.762c-.168-.327-.491-.647-.622-.986a5.945,5.945,0,0,1-.149-1.171.631.631,0,0,0-.761-.432c-1.314.23-2.669.084-4,.182-1.174.087-2.34.252-3.513.349-1.129.093-2.243.061-3.373.052a4.271,4.271,0,0,0-2.362.414c-.576.347-.2,1.4.477,1.13a7.916,7.916,0,0,1,1.99-.264,8.429,8.429,0,0,0,1.54-.489c1.279-.418,2.662.358,4.016.211C10.6,4.189,9.3,1.583,8.568.3A.619.619,0,0,0,7.5.925Z" transform="translate(5.371 19.282)" fill="#247cd4"/>
            <path id="Path_677" data-name="Path 677" d="M.592,1.24l1.041.095.208.019q-.247-.178-.092.025c.024.123.1.236.113.367a.637.637,0,0,0,.618.618A.622.622,0,0,0,3.1,1.746,1.932,1.932,0,0,0,2.4.272a1.875,1.875,0,0,0-.832-.18L.592,0C-.2-.069-.2,1.168.592,1.24Z" transform="translate(20.545 18.412)" fill="#247cd4"/>
            <path id="Path_678" data-name="Path 678" d="M1.517,1.123a20.993,20.993,0,0,1,4.7,2.742.622.622,0,0,0,.971-.749A4.136,4.136,0,0,0,5.387,1.1L4.763,2.168a8.587,8.587,0,0,1,1.883,1.19c.6.5,1.466-.326.874-.875a1.26,1.26,0,0,1-.431-.568l-.222.846L7.6,2.383l-.749-.1a2.128,2.128,0,0,0,1.516.705A.624.624,0,0,0,8.8,1.936a4.014,4.014,0,0,0-2.026-.9C6.012.924,5.65,2.048,6.447,2.224a4.258,4.258,0,0,1,1.981.98V2.33A25.428,25.428,0,0,1,4.832,5.3c-1.349.774-2.947.423-4.394.889A.619.619,0,0,0,.766,7.383,24.431,24.431,0,0,0,6.677,5.367l-.908-.7A2.227,2.227,0,0,1,3.317,6.036c-.491-.057-.738.56-.534.931.823,1.5,3.167,1.361,4.6,1.114a.629.629,0,0,0,.432-.761A3.464,3.464,0,0,1,8.291,4.7L7.16,4.227a7.524,7.524,0,0,1-.271,1.3.814.814,0,0,0,.128,1.3L7.4,6.583A8.517,8.517,0,0,0,9.722,5,1.4,1.4,0,0,0,10.367,4a3.377,3.377,0,0,0-.523-1.052L8.652,2.615a12.13,12.13,0,0,1-1.03,2.639,1.854,1.854,0,0,0-.3.682c-.075.7.409.655-.066,1.47a.621.621,0,0,0,.971.749c1.53-1.56,3.018-3.19,3.544-5.369a.628.628,0,0,0-.761-.761l-.765.045a.619.619,0,0,0,0,1.237c.758.022,1.766.18,2.357-.388a.618.618,0,0,0,.159-.6.74.74,0,0,0-.423-.53.651.651,0,0,0-.749.1l-.07.059c-.5.429.047,1.151.6,1.034l.678-.144-.7-.908q-1.7,2.8-3.671,5.418c-.419.557.521,1.288.971.749.391-.468,4.93-5.962,5.112-5.766-.024-.026-1.429,2.556-1.537,2.809a17.408,17.408,0,0,1-.73,1.638,3.528,3.528,0,0,1-.508.74c-.321.342-.487.444-.854.386l-.37-.909-.223.369a.623.623,0,0,0,.534.931,1.472,1.472,0,0,0,1-2.56v.874l2.865-3.49-1.034-.6A28.219,28.219,0,0,1,11.81,6.251a.63.63,0,0,0,.1.749,3.023,3.023,0,0,0,1.188.8.621.621,0,0,0-.476,1.13l2.152,1.158a8.44,8.44,0,0,0,1.74.891,1.1,1.1,0,0,0,1.474-.852c.123-.933-.923-1.858-1.484-2.458-1.06-1.134-2.261-2.251-2.124-3.935L13.161,3.9A17.893,17.893,0,0,1,14.011,6.6c.163.7,1.181.511,1.215-.164a1.512,1.512,0,0,0-.148-.924.624.624,0,0,0-1.193,0c-.235.923-.572,1.577-.1,2.449a4.645,4.645,0,0,0,1.833,1.8.623.623,0,0,0,.846-.846c-.813-1.593-1.632-3.291-1.064-5.1H14.212A16.941,16.941,0,0,0,16.1,7.284a.619.619,0,0,0,1.068-.624c-.7-1.392-1.4-2.851-.908-4.425l-1.034.273c.769.83.607,2.106.757,3.151a10.161,10.161,0,0,0,.934,2.956l.534-.931a20.077,20.077,0,0,1,.066-2.709A12.338,12.338,0,0,1,18.14,2.4a.627.627,0,0,0-.432-.761l-.646-.2L16.9,2.655l1.41.061a6.887,6.887,0,0,1,1.41.062c-.236-.232-.041.393-.036.544.014.421.018.842-.006,1.263A4.808,4.808,0,0,1,17.432,8.8l.846.846c1.233-2.175,2.329-4.545,1.159-6.986a.623.623,0,0,0-1.152.312A7.973,7.973,0,0,1,17.5,6.751h1.068a5.291,5.291,0,0,1-.295-3.563H17.081a3.534,3.534,0,0,1,.063,1.7l1.215.164.022-.931a.619.619,0,0,0-1.237,0l-.022.931c-.016.683,1.076.859,1.215.164a4.94,4.94,0,0,0-.062-2.358.623.623,0,0,0-1.193,0,6.728,6.728,0,0,0,.42,4.516.622.622,0,0,0,1.068,0,9.31,9.31,0,0,0,.953-4.4l-1.152.312c.948,1.979-.183,4.016-1.159,5.737a.623.623,0,0,0,.846.846c2.021-1.1,2.788-3.3,2.869-5.494.027-.725.226-2.025-.4-2.571a1.648,1.648,0,0,0-1.039-.273c-.859-.06-1.725-.075-2.585-.113a.621.621,0,0,0-.164,1.215l.646.2-.432-.761a12.774,12.774,0,0,0-.742,4.866c.045.9.161,1.909,1.241,1.981a.625.625,0,0,0,.534-.931,11.918,11.918,0,0,1-.925-4A3.86,3.86,0,0,0,16.1,1.634a.624.624,0,0,0-1.034.273c-.592,1.91.174,3.678,1.033,5.378l1.068-.624A15.6,15.6,0,0,1,15.4,3.477a.625.625,0,0,0-1.193,0c-.669,2.134.224,4.163,1.189,6.053l.846-.846a2.914,2.914,0,0,1-1.39-1.352,2.951,2.951,0,0,1,.221-1.5H13.885l.1.6L15.2,6.267a17.892,17.892,0,0,0-.849-2.693.622.622,0,0,0-1.215.164,5.549,5.549,0,0,0,1.893,4.191c.291.314.6.611.886.931.263.3,1.357,1.241.337.628-.974-.585-2.012-1.083-3.013-1.622L12.766,9A1.11,1.11,0,0,0,14.2,8.13c.183-.993-.835-1.445-1.417-2l.1.749a30.4,30.4,0,0,0,1.967-4.033c.227-.566-.652-1.067-1.034-.6l-2.865,3.49a.635.635,0,0,0,0,.874l-.122.449.534.931.223-.369a.623.623,0,0,0-.37-.909C9.686,6.468,8.732,8.6,10.352,9.2c2.286.844,3.349-2.762,4.012-4.17a13.628,13.628,0,0,1,.988-1.746c.244-.367.6-.662.528-1.131a1.41,1.41,0,0,0-1.572-1c-1.177.126-1.958,1.493-2.639,2.307L8.525,7.218l.971.75q1.969-2.62,3.67-5.419a.626.626,0,0,0-.7-.908l-.678.143.6,1.034.07-.059-.749.1-.145-.209.159-.6c-.191.184-1.223.033-1.482.025V3.306a6.487,6.487,0,0,0,1.094-.089l-.761-.761C10.1,4.431,8.734,5.87,7.351,7.28l.971.749c.453-.778.207-1.346.368-2.152a8.894,8.894,0,0,1,.625-1.3,12.949,12.949,0,0,0,.53-1.63.619.619,0,0,0-1.193-.329.913.913,0,0,0,.122.911c.041.066.344.332.339.388a7.039,7.039,0,0,1-1.194.855c-.721.49-2.284,1.059-2.344,2.1A.92.92,0,0,0,6.89,7.79C7.9,7.319,8.22,5.518,8.353,4.556a.622.622,0,0,0-1.13-.476,4.727,4.727,0,0,0-.6,3.57l.432-.761c-.81.139-2.715.345-3.205-.546l-.534.931A3.459,3.459,0,0,0,6.961,5c.218-.548-.477-.909-.908-.7A23.167,23.167,0,0,1,.438,6.19L.766,7.383c1.574-.507,3.21-.132,4.69-1.014A29.451,29.451,0,0,0,9.3,3.2a.621.621,0,0,0,0-.874,5.541,5.541,0,0,0-2.527-1.3L6.447,2.224a2.87,2.87,0,0,1,1.48.586l.437-1.055-.641-.343a.633.633,0,0,0-.75-.1l-.731.378a.629.629,0,0,0-.222.846,2.864,2.864,0,0,0,.625.818l.874-.875A9.831,9.831,0,0,0,5.387,1.1c-.709-.336-1.322.66-.624,1.068A3.1,3.1,0,0,1,6.12,3.74l.971-.75A22.1,22.1,0,0,0,2.142.055C1.418-.253.787.812,1.517,1.123Z" transform="translate(3.201 16.392)" fill="#247cd4"/>
            <g id="Group_64" data-name="Group 64">
              <g id="Group_51" data-name="Group 51">
                <path id="Path_679" data-name="Path 679" d="M2.779.113A8.218,8.218,0,0,1,.442,1.282.622.622,0,0,0,.606,2.5a12.381,12.381,0,0,1,3.115.423c.882.334,1.72.757,2.615,1.063a21.044,21.044,0,0,0,5.575,1.064c.8.048.792-1.189,0-1.237A19.675,19.675,0,0,1,5.835,2.485,18.89,18.89,0,0,0,3.246,1.469,23.988,23.988,0,0,0,.606,1.26L.77,2.475A9.325,9.325,0,0,0,3.4,1.181C4.048.725,3.431-.348,2.779.113Z" transform="translate(13.504 25.78)" fill="#247cd4"/>
                <g id="Group_50" data-name="Group 50">
                  <g id="Group_42" data-name="Group 42" transform="translate(14.954 25.275)">
                    <path id="Path_680" data-name="Path 680" d="M.444,1.21A36.934,36.934,0,0,1,6.636,3.631l6.111,2.587c.725.307,1.356-.758.624-1.068L6.823,2.379A36.146,36.146,0,0,0,.773.017C0-.154-.334,1.038.444,1.21Z" fill="#247cd4"/>
                    <path id="Path_681" data-name="Path 681" d="M.318,1.134A30.025,30.025,0,0,0,6.088,3.2c.773.189,1.1-1,.329-1.193A28.429,28.429,0,0,1,.942.066C.227-.274-.4.792.318,1.134Z" transform="translate(0.82 1.465)" fill="#247cd4"/>
                    <path id="Path_682" data-name="Path 682" d="M.325,1.123A20.436,20.436,0,0,0,4.786,2.465c.778.138,1.113-1.054.329-1.193A19.135,19.135,0,0,1,.949.055C.225-.253-.406.813.325,1.123Z" transform="translate(0.094 2.272)" fill="#247cd4"/>
                  </g>
                  <g id="Group_49" data-name="Group 49">
                    <g id="Group_43" data-name="Group 43" transform="translate(1.972 22.061)">
                      <path id="Path_683" data-name="Path 683" d="M0,0A20.435,20.435,0,0,0,7.935,2.664" transform="translate(0.614 0.62)" fill="#247cd4"/>
                      <path id="Path_684" data-name="Path 684" d="M.3,1.154A22.121,22.121,0,0,0,8.549,3.9c.787.1.78-1.137,0-1.237A20.571,20.571,0,0,1,.925.086.619.619,0,0,0,.3,1.154Z" fill="#247cd4"/>
                    </g>
                    <g id="Group_48" data-name="Group 48">
                      <g id="Group_44" data-name="Group 44" transform="translate(4.338 23.93)">
                        <path id="Path_685" data-name="Path 685" d="M.428,1.017a31.673,31.673,0,0,0,4.753.48,9.876,9.876,0,0,1,2.343.271c1,.431-.837,1.093-1.5,1.274C5.074,3.3,5.594,4.26,6.547,4c1.227-.336,4.463-1.984,2.835-2.933A10.29,10.29,0,0,0,6.005.5a35.837,35.837,0,0,1-4.9-.467C.2-.2-.479.788.428,1.017Z" transform="translate(2.215 0.083)" fill="#247cd4"/>
                        <path id="Path_686" data-name="Path 686" d="M.262.886a26.678,26.678,0,0,0,7.5,2.239c.93.142,1.628-.766.69-.91A25.447,25.447,0,0,1,1.282.091C.532-.268-.487.527.262.886Z" transform="translate(0 0.423)" fill="#247cd4"/>
                        <path id="Path_687" data-name="Path 687" d="M.621,1.539,5.275,2.895C6.607,3.283,7.625,1.807,6.3,1.42L1.643.064C.311-.323-.706,1.152.621,1.539Z" transform="translate(3.858 0.458)" fill="#247cd4"/>
                        <path id="Path_688" data-name="Path 688" d="M.266.945,3.057,2.095A1.1,1.1,0,0,0,4.15,1.974a.415.415,0,0,0-.081-.734L1.278.09A1.106,1.106,0,0,0,.184.211.415.415,0,0,0,.266.945Z" transform="translate(0.869 0)" fill="#247cd4"/>
                      </g>
                      <path id="Path_689" data-name="Path 689" d="M.377,1.226C2.741,2.314,4.942,3.662,7.606,3.6c.79-.017.891-1.25.1-1.233C5.172,2.426,3.032,1.092.786.059.062-.274-.341.9.377,1.226Z" transform="translate(0.557 22.421)" fill="#247cd4"/>
                      <ellipse id="Ellipse_30" data-name="Ellipse 30" cx="27.075" cy="1.674" rx="27.075" ry="1.674" transform="matrix(0.996, -0.094, 0.094, 0.996, 23.69, 16.071)" fill="#247cd4"/>
                      <g id="Group_45" data-name="Group 45" transform="translate(0.749 6.971)">
                        <path id="Path_690" data-name="Path 690" d="M44.671,10.34A245.946,245.946,0,0,0,78.268,5.6l-8.53-.583a.3.3,0,0,1-.159-.057,114.273,114.273,0,0,1-14.842-.88A115.661,115.661,0,0,1,41.8,1.687C37.368.606,33.076-.332,28.5.114A81.934,81.934,0,0,0,3.67,7a.315.315,0,0,1-.074.058A26.221,26.221,0,0,0,0,9.466C7.414,11.474,24.68,11.929,44.671,10.34Z" fill="#247cd4"/>
                      </g>
                      <ellipse id="Ellipse_31" data-name="Ellipse 31" cx="2.384" cy="2.384" rx="2.384" ry="2.384" transform="translate(11.443 14.59)" fill="#247cd4"/>
                      <g id="Group_47" data-name="Group 47">
                        <path id="Path_691" data-name="Path 691" d="M.368,7.292A85.1,85.1,0,0,1,25.189.754C29.74.334,34,1.217,38.413,2.235A120.686,120.686,0,0,0,51.265,4.486a119.966,119.966,0,0,0,15.127.828.309.309,0,0,0,0-.618A119.033,119.033,0,0,1,39.031,1.743C34.9.8,30.843-.2,26.572.033A68.555,68.555,0,0,0,14.057,2.107,92.707,92.707,0,0,0,.2,6.7c-.361.152-.2.75.164.6Z" transform="translate(4.682 6.747)" fill="#247cd4"/>
                        <g id="Group_46" data-name="Group 46" transform="translate(0.425 13.46)">
                          <path id="Path_692" data-name="Path 692" d="M0,2.763A25,25,0,0,1,4.219,0" transform="translate(0.325 0.305)" fill="#247cd4"/>
                          <path id="Path_693" data-name="Path 693" d="M.543,3.287A26.059,26.059,0,0,1,4.7.572c.352-.186.04-.719-.312-.534A26.862,26.862,0,0,0,.106,2.85c-.311.249.129.684.437.437Z" fill="#247cd4"/>
                        </g>
                        <path id="Path_694" data-name="Path 694" d="M.411.744c1.806-.481,3.452.53,4.98,1.3A28.551,28.551,0,0,1,8.971,3.995c.341.24.673-.3.336-.534A33.917,33.917,0,0,0,4.414.853,5.919,5.919,0,0,0,.234.147a.311.311,0,1,0,.177.6Z" transform="translate(0.096 16.461)" fill="#247cd4"/>
                        <path id="Path_695" data-name="Path 695" d="M8.894,5.2a10.015,10.015,0,0,1-8.5,1.828c-.176-.042-.415.089-.391.3.246,2.2,2.552,3.122,4.366,3.825,2.756,1.068,5.667,1.676,8.5,2.5a89.346,89.346,0,0,0,9.1,2.381,50.471,50.471,0,0,0,9.365.754A84.179,84.179,0,0,0,49.592,14.3a134.439,134.439,0,0,0,16.8-4.81C71.5,7.567,76.348,4.859,79.7.443c.24-.317-.3-.626-.534-.312C73.056,8.183,61.918,10.552,52.657,12.912,41.323,15.8,29.5,17.59,18.008,14.494c-3.11-.838-6.192-1.78-9.3-2.624a41.486,41.486,0,0,1-4.174-1.317C3.05,9.977.826,9.168.62,7.324l-.391.3a10.674,10.674,0,0,0,9.1-1.987c.314-.244-.127-.679-.437-.437Z" transform="translate(0 14.8)" fill="#247cd4"/>
                        <path id="Path_696" data-name="Path 696" d="M.294,2.938A65.331,65.331,0,0,0,8.531,1.369C9.2,1.194,9.905.9,10.589.8c.355-.055.894-.21,1.164.2a3.343,3.343,0,0,1,.126,1,10.606,10.606,0,0,0,.991,3.262c.174.358.707.045.534-.312a9.516,9.516,0,0,1-.83-2.46A6.819,6.819,0,0,0,12.24.549c-.364-.686-.935-.6-1.588-.418A69.574,69.574,0,0,1,.294,2.32c-.39.049-.395.669,0,.618Z" transform="translate(37.02 4.881)" fill="#247cd4"/>
                        <path id="Path_697" data-name="Path 697" d="M.315,2.219a9.583,9.583,0,0,0,3.2-.834A7.4,7.4,0,0,1,4.652.753c.681-.156.974.979,1.228,1.48.179.354.694.011.516-.341C6.048,1.2,5.738-.216,4.739.028A13.919,13.919,0,0,0,2.951.964,9,9,0,0,1,.281,1.6c-.4.037-.363.654.034.617Z" transform="translate(67.646 9.831)" fill="#247cd4"/>
                        <path id="Path_698" data-name="Path 698" d="M20.9,4.087A41.67,41.67,0,0,1,.471.034C.114-.138-.2.395.159.568A42.54,42.54,0,0,0,7.4,3.271l.013,0A42.223,42.223,0,0,0,20.9,4.705C21.291,4.683,21.294,4.065,20.9,4.087Z" transform="translate(77.705 17.338)" fill="#247cd4"/>
                        <path id="Path_699" data-name="Path 699" d="M.016.38,3.3,10.941c.118.379.715.217.6-.164L.612.216C.494-.163-.1,0,.016.38Z" transform="translate(94.873 10.737)" fill="#247cd4"/>
                        <path id="Path_700" data-name="Path 700" d="M.055,2.705a2.279,2.279,0,0,0,2,.949,34.258,34.258,0,0,0,4.4-.4.313.313,0,0,0,.267-.465C6.143,1.874,5.527.99,4.867.13c-.239-.311-.776,0-.534.312C4.993,1.3,5.609,2.186,6.186,3.1l.267-.465-2.916.295c-.931.094-2.31.389-2.949-.541-.224-.326-.76-.017-.534.312Z" transform="translate(68.508 20.756)" fill="#247cd4"/>
                        <path id="Path_701" data-name="Path 701" d="M.525,5.163a22.145,22.145,0,0,0,3.43-4.7C4.145.116,3.611-.2,3.42.153A21.528,21.528,0,0,1,.087,4.726c-.275.288.162.726.437.437Z" transform="translate(77.186 12.584)" fill="#247cd4"/>
                        <path id="Path_702" data-name="Path 702" d="M.3.619l9.869.639c.4.026.4-.593,0-.618L.3,0C-.1-.025-.1.593.3.619Z" transform="translate(70.558 11.496)" fill="#247cd4"/>
                        <path id="Path_703" data-name="Path 703" d="M.531,12.175A51.052,51.052,0,0,1,19.465.615c.374-.128.213-.726-.165-.6A51.78,51.78,0,0,0,.094,11.737c-.287.277.15.714.437.437Z" transform="translate(77.073 0)" fill="#247cd4"/>
                        <path id="Path_704" data-name="Path 704" d="M1.273.3C1.6,3.884.829,7.38.009,10.852c-.091.387.5.552.6.164C1.438,7.492,2.219,3.938,1.891.3,1.856-.1,1.237-.1,1.273.3Z" transform="translate(94.708 0.287)" fill="#247cd4"/>
                        <path id="Path_705" data-name="Path 705" d="M.215,14.936,0,14.494c3.138-1.629,5.022-3.747,5.6-6.3C6.517,4.147,3.786.336,3.758.3L4.14,0c.119.162,2.893,4.028,1.926,8.307C5.456,11.006,3.487,13.237.215,14.936Z" transform="translate(18.324 13.864)" fill="#247cd4"/>
                        <path id="Path_706" data-name="Path 706" d="M.172,9.076,0,8.807c2.516-.99,4.027-2.277,4.49-3.826C5.226,2.52,3.036.2,3.014.181L3.32,0C3.415.1,5.64,2.448,4.864,5.048,4.375,6.688,2.8,8.043.172,9.076Z" transform="translate(16.126 17.759)" fill="#247cd4"/>
                        <path id="Path_707" data-name="Path 707" d="M0,0" transform="translate(30.693 0.093)" fill="#247cd4"/>
                        <path id="Path_708" data-name="Path 708" d="M2.381,4.761A2.381,2.381,0,1,1,4.761,2.381,2.383,2.383,0,0,1,2.381,4.761Zm0-4.514A2.133,2.133,0,1,0,4.514,2.381,2.136,2.136,0,0,0,2.381.247Z" transform="translate(11.437 14.598)" fill="#247cd4"/>
                        <ellipse id="Ellipse_32" data-name="Ellipse 32" cx="1.484" cy="1.484" rx="1.484" ry="1.484" transform="translate(12.333 15.494)" fill="#247cd4"/>
                        <path id="Path_709" data-name="Path 709" d="M.673.889c1.25-.112,2.5-.2,3.755-.235q.94-.03,1.881-.03.47,0,.941.007.427.382-.095.694A8.112,8.112,0,0,1,6.008,2.773C5.441,3.482,4.89,4,3.9,3.743A15.7,15.7,0,0,1,.465,2.23c-.35-.189-.662.344-.312.534C1.4,3.44,3.406,4.717,4.9,4.451a2.1,2.1,0,0,0,1.26-.879A15.084,15.084,0,0,0,8.166,1.04C8.585.2,8.086.033,7.25.013A57.865,57.865,0,0,0,.673.271c-.393.035-.4.654,0,.618Z" transform="translate(25.026 23.32)" fill="#247cd4"/>
                      </g>
                      <ellipse id="Ellipse_33" data-name="Ellipse 33" cx="0.583" cy="0.002" rx="0.583" ry="0.002" transform="translate(48.329 16.975)" fill="#247cd4"/>
                    </g>
                  </g>
                </g>
              </g>
              <g id="Group_52" data-name="Group 52" transform="translate(33.721 14.64)">
                <ellipse id="Ellipse_34" data-name="Ellipse 34" cx="0.858" cy="0.858" rx="0.858" ry="0.858" transform="translate(0.124 0.124)" fill="#247cd4"/>
                <path id="Path_710" data-name="Path 710" d="M.982,1.964A.982.982,0,1,1,1.963.982.983.983,0,0,1,.982,1.964Zm0-1.716a.734.734,0,1,0,.734.734A.735.735,0,0,0,.982.247Z" fill="#247cd4"/>
              </g>
              <g id="Group_53" data-name="Group 53" transform="translate(38.902 12.882)">
                <ellipse id="Ellipse_35" data-name="Ellipse 35" cx="0.858" cy="0.858" rx="0.858" ry="0.858" transform="translate(0.124 0.124)" fill="#247cd4"/>
                <path id="Path_711" data-name="Path 711" d="M.982,1.964A.982.982,0,1,1,1.964.982.983.983,0,0,1,.982,1.964Zm0-1.716a.734.734,0,1,0,.734.734A.735.735,0,0,0,.982.247Z" fill="#247cd4"/>
              </g>
              <g id="Group_54" data-name="Group 54" transform="translate(47.581 16.86)">
                <ellipse id="Ellipse_36" data-name="Ellipse 36" cx="0.429" cy="0.429" rx="0.429" ry="0.429" transform="translate(0.062 0.062)" fill="#247cd4"/>
                <path id="Path_712" data-name="Path 712" d="M.491.982A.491.491,0,1,1,.982.491.491.491,0,0,1,.491.982Zm0-.858A.367.367,0,1,0,.858.491.368.368,0,0,0,.491.124Z" fill="#247cd4"/>
              </g>
              <g id="Group_55" data-name="Group 55" transform="translate(40.374 14.397)">
                <ellipse id="Ellipse_37" data-name="Ellipse 37" cx="0.429" cy="0.429" rx="0.429" ry="0.429" transform="translate(0.062 0.062)" fill="#247cd4"/>
                <path id="Path_713" data-name="Path 713" d="M.491.982A.491.491,0,1,1,.982.491.492.492,0,0,1,.491.982Zm0-.858A.367.367,0,1,0,.858.491.367.367,0,0,0,.491.124Z" fill="#247cd4"/>
              </g>
              <g id="Group_56" data-name="Group 56" transform="translate(53.379 16.777)">
                <ellipse id="Ellipse_38" data-name="Ellipse 38" cx="0.858" cy="0.858" rx="0.858" ry="0.858" transform="translate(0.124 0.124)" fill="#247cd4"/>
                <path id="Path_714" data-name="Path 714" d="M.982,1.964A.982.982,0,1,1,1.964.982.983.983,0,0,1,.982,1.964Zm0-1.716a.734.734,0,1,0,.734.734A.735.735,0,0,0,.982.247Z" fill="#247cd4"/>
              </g>
              <g id="Group_57" data-name="Group 57" transform="translate(58.256 13.906)">
                <ellipse id="Ellipse_39" data-name="Ellipse 39" cx="0.429" cy="0.429" rx="0.429" ry="0.429" transform="translate(0.062 0.062)" fill="#247cd4"/>
                <path id="Path_715" data-name="Path 715" d="M.491.982A.491.491,0,1,1,.982.491.491.491,0,0,1,.491.982Zm0-.858A.367.367,0,1,0,.858.491.368.368,0,0,0,.491.124Z" fill="#247cd4"/>
              </g>
              <g id="Group_58" data-name="Group 58" transform="translate(41.776 18.13)">
                <ellipse id="Ellipse_40" data-name="Ellipse 40" cx="0.429" cy="0.429" rx="0.429" ry="0.429" transform="translate(0.062 0.062)" fill="#247cd4"/>
                <path id="Path_716" data-name="Path 716" d="M.491.982A.491.491,0,1,1,.982.491.491.491,0,0,1,.491.982Zm0-.858A.367.367,0,1,0,.858.491.368.368,0,0,0,.491.124Z" fill="#247cd4"/>
              </g>
              <g id="Group_59" data-name="Group 59" transform="translate(64.935 15.333)">
                <ellipse id="Ellipse_41" data-name="Ellipse 41" cx="0.429" cy="0.429" rx="0.429" ry="0.429" transform="translate(0.062 0.062)" fill="#247cd4"/>
                <path id="Path_717" data-name="Path 717" d="M.491.982A.491.491,0,1,1,.982.491.492.492,0,0,1,.491.982Zm0-.858A.367.367,0,1,0,.858.491.367.367,0,0,0,.491.124Z" fill="#247cd4"/>
              </g>
              <g id="Group_60" data-name="Group 60" transform="translate(66.011 16.109)">
                <ellipse id="Ellipse_42" data-name="Ellipse 42" cx="0.621" cy="0.621" rx="0.621" ry="0.621" transform="translate(0.09 0.09)" fill="#247cd4"/>
                <path id="Path_718" data-name="Path 718" d="M.711,1.422A.711.711,0,1,1,1.422.711.712.712,0,0,1,.711,1.422Zm0-1.243a.532.532,0,1,0,.532.532A.533.533,0,0,0,.711.179Z" fill="#247cd4"/>
              </g>
              <g id="Group_61" data-name="Group 61" transform="translate(48.562 11.773)">
                <ellipse id="Ellipse_43" data-name="Ellipse 43" cx="0.772" cy="0.772" rx="0.772" ry="0.772" transform="translate(0.111 0.111)" fill="#247cd4"/>
                <path id="Path_719" data-name="Path 719" d="M.883,1.766A.883.883,0,1,1,1.766.883.884.884,0,0,1,.883,1.766Zm0-1.544a.66.66,0,1,0,.661.66A.661.661,0,0,0,.883.223Z" fill="#247cd4"/>
              </g>
              <g id="Group_62" data-name="Group 62" transform="translate(50.804 13.863)">
                <ellipse id="Ellipse_44" data-name="Ellipse 44" cx="0.429" cy="0.429" rx="0.429" ry="0.429" transform="translate(0.062 0.062)" fill="#247cd4"/>
                <path id="Path_720" data-name="Path 720" d="M.491.982A.491.491,0,1,1,.982.491.491.491,0,0,1,.491.982Zm0-.858A.367.367,0,1,0,.858.491.368.368,0,0,0,.491.124Z" fill="#247cd4"/>
              </g>
              <g id="Group_63" data-name="Group 63" transform="translate(78.399 7.766)">
                <path id="Path_721" data-name="Path 721" d="M.215,4.422,7.93.3C8.1.205,7.974-.075,7.8.019L.083,4.143c-.175.094-.044.374.132.28Z" fill="#247cd4"/>
                <path id="Path_722" data-name="Path 722" d="M.257,4.471C2.237,2.959,4.332,1.635,6.435.3,6.6.2,6.471-.083,6.3.024,4.178,1.37,2.059,2.706.058,4.234c-.159.121.041.357.2.237Z" transform="translate(1.432 0.114)" fill="#247cd4"/>
              </g>
            </g>
            <path id="Path_723" data-name="Path 723" d="M.1,2.516A12.708,12.708,0,0,1,3.777.115c.07-.039.007-.145-.062-.107a12.748,12.748,0,0,0-3.7,2.42c-.052.06.035.148.088.087Z" transform="translate(79.421 9.699)" fill="#247cd4"/>
            <path id="Path_724" data-name="Path 724" d="M.178,2.639l-.1-.074a.062.062,0,0,0-.033.119,1.213,1.213,0,0,0,1.014-.069c.061-.028.024-.111-.031-.115-1.047-.081.14-.384.1-.4-.136-.066-.678.814-.06.084a.063.063,0,0,0-.013-.1l-.039-.024a.063.063,0,0,0-.085.022L.915,2.11c-.026.042.019.112.07.091.508-.211-.107.362.5-.1A.062.062,0,0,0,1.427,2c-.193.093-.971.525-.341.57.362.026.694-.6.875-.834.042-.055-.053-.13-.1-.075-.28.355.649-.325.74-.383S3.734.613,3.276.9a10.188,10.188,0,0,0-1.516.964c-.053.047.015.131.075.1.489-.278.972-.565,1.443-.872C3.556.9,3.853.721,4.114.516c.234-.184.355-.244.007-.089a6.463,6.463,0,0,0-1.177.618c-.273.214-.469.515-.775.724-.133.091-.344.177-.378.327.036-.156.72-.517.854-.616.477-.352.964-.689,1.441-1.04.119-.088.427-.322-.034.013-.266.193-.507.421-.783.605-.236.158-1.565,1.053-1.778.76a.063.063,0,0,0-.1-.013A5.061,5.061,0,0,0,.7,2.512a.063.063,0,0,0,.027.1l.154.13c-.023.076.1.109.119.033S.934,2.554.938,2.543a.8.8,0,0,1,.526-.554c-.039.013.363.032.173.066A6.093,6.093,0,0,0,4.535.124c.044-.049-.014-.14-.075-.1a16.359,16.359,0,0,0-2.933,2.18c-.044.05.014.139.075.1a13.18,13.18,0,0,0,1.429-1.04C3.5.843,4.378.673,4.681.1,4.707.046,4.65-.028,4.6.011c-.407.3-.818.6-1.241.874q-.352.232-.711.453c-.064.039-.791.456-.484.308A4.13,4.13,0,0,0,3.744.616c.04-.053-.035-.111-.085-.085A15.21,15.21,0,0,0,1.49,1.915a.062.062,0,0,0,.047.113C2.262,1.847.948,2.4.9,2.25a.063.063,0,0,0-.076-.043c-.18.059-.16.033-.238.211A.062.062,0,0,0,.669,2.5c.256-.124.794-.606.343-.14-.047.048.016.14.075.1l.12-.087c.064-.046,0-.153-.062-.107-.227.161-.164.083-.286.333-.025.051.029.123.085.085.233-.16.688-.392.595-.723a.063.063,0,0,0-.06-.046c-.186.013-.708.166-.6.425a.063.063,0,0,0,.1.027.846.846,0,0,0,.288-.447c.021-.05-.027-.124-.085-.085a1.868,1.868,0,0,0-.662.733c-.027.051.031.121.085.085a4.587,4.587,0,0,0,.813-.7.062.062,0,0,0-.075-.1,10.389,10.389,0,0,0-1.076.594A.062.062,0,0,0,.3,2.569c.854.066-.516.271.306.128.068-.012.049-.1,0-.119C.343,2.469.46,2.486.178,2.516c-.078.008-.079.132,0,.124Z" transform="translate(78.96 9.374)" fill="#247cd4"/>
            <path id="Path_725" data-name="Path 725" d="M.76.021a2.19,2.19,0,0,1-.409.4L.435.51A1.78,1.78,0,0,1,.672.2l-.1-.06C.483.434.142.564.052.868L.143.831.124.809A.062.062,0,0,0,0,.809.123.123,0,0,0,.081.937.063.063,0,0,0,.171.9C.259.6.6.473.688.168a.062.062,0,0,0-.1-.06A1.923,1.923,0,0,0,.328.447C.3.5.362.571.413.532A2.3,2.3,0,0,0,.847.109C.9.047.809-.041.76.021Z" transform="translate(79.872 11.202)" fill="#247cd4"/>
            <path id="Path_726" data-name="Path 726" d="M.231,2.4,3.969.288A.155.155,0,0,0,3.812.021L.076,2.134A.155.155,0,0,0,.231,2.4Z" transform="translate(41.72 5.969)" fill="#247cd4"/>
            <path id="Path_727" data-name="Path 727" d="M5.258.022a.133.133,0,0,0-.15,0L.073,3.171c-.168.105-.013.373.156.267L5.264.291A.163.163,0,0,0,5.3.264,1.174,1.174,0,0,1,5.258.022Z" transform="translate(44.161 5.728)" fill="#247cd4"/>
            <path id="Path_728" data-name="Path 728" d="M.231,1.958,3.146.289A.155.155,0,0,0,2.991.022L.075,1.691a.155.155,0,0,0,.156.267Z" transform="translate(46.411 7.479)" fill="#247cd4"/>
          </g>
          <path id="Path_729" data-name="Path 729" d="M7.142.3c-.435.726.426,1.175.058,1.916-.462.929-1.972,1.425-2.717,2.11a3.894,3.894,0,0,0-.922,1.762A4.359,4.359,0,0,1,.826,8.292l.7.909.246-.384L.7,8.193a1.2,1.2,0,0,1-.489.6l.971.749A10.789,10.789,0,0,0,1.8,8.582.619.619,0,0,0,.734,7.958a10.836,10.836,0,0,1-.618.962c-.439.61.47,1.164.971.749a2.54,2.54,0,0,0,.683-.852A.619.619,0,0,0,.7,8.193l-.246.384c-.268.42.19,1.122.7.909A8.281,8.281,0,0,0,3.742,8.013c.879-.831.89-2.119,1.745-2.911.788-.729,1.884-1.126,2.564-1.982a2.239,2.239,0,0,0,.532-1.282C8.589,1.7,8.382.633,8.21.92A.619.619,0,0,0,7.142.3Z" transform="translate(80.194 5.511)" fill="#247cd4"/>
          <path id="Path_730" data-name="Path 730" d="M.191.619C.2.679.194.739.2.8Q.186.912.2.815C.2.845.19.875.183.9.17.963.15,1.02.132,1.078c-.015.041-.014.038,0-.009q-.026.054-.057.106A.627.627,0,0,0,.3,2.021.629.629,0,0,0,1.147,1.8,2.11,2.11,0,0,0,1.428.619.63.63,0,0,0,.81,0,.626.626,0,0,0,.191.619Z" transform="translate(91.798 4.659)" fill="#247cd4"/>
        </g>
      </g>
      <path id="Path_731" data-name="Path 731" d="M.446.986a21.792,21.792,0,0,1,4.235.1c.591.072.586-.856,0-.928A21.793,21.793,0,0,0,.446.058c-.592.043-.6.971,0,.928Z" transform="translate(25.306 24.157)" fill="#247cd4"/>
    </g>
  </g>
</svg>
