<svg xmlns="http://www.w3.org/2000/svg" width="289" height="105" viewBox="0 0 289 105">
  <g id="Group_391" data-name="Group 391" transform="translate(-748 -4409)">
    <g id="Group_253" data-name="Group 253" transform="translate(7558 -8858)">
      <ellipse id="Ellipse_231" data-name="Ellipse 231" cx="143" cy="52.5" rx="143" ry="52.5" transform="translate(-6807 13267)" fill="#20314b"/>
      <ellipse id="Ellipse_232" data-name="Ellipse 232" cx="142" cy="51" rx="142" ry="51" transform="translate(-6810 13270)" fill="#1d496c"/>
      <path id="Path_1462" data-name="Path 1462" d="M4.868,11.522C13.448-1.1,39.7-3.327,51.053,7.357c2.431,2.672.819,4.324-2.286,2.819C47.074,9.1,24.741,2.414,11.1,15.688c-3.588,3.757-5.2,6.366-8.773,5.556C-1.024,19.226,4.868,11.522,4.868,11.522Z" transform="translate(-6568.596 13283.475) rotate(69)" fill="#6ea7cd"/>
      <text id="點餐" transform="translate(-6694 13332)" fill="#fff" font-size="30" font-family="YuGothicUI-Bold, Yu Gothic UI" font-weight="700"><tspan x="0" y="0">點餐</tspan></text>
    </g>
    <ellipse id="Ellipse_231-2" data-name="Ellipse 231" cx="143" cy="52.5" rx="143" ry="52.5" transform="translate(751 4409)" fill="#20314b"/>
    <ellipse id="Ellipse_232-2" data-name="Ellipse 232" cx="142" cy="51" rx="142" ry="51" transform="translate(748 4412)" fill="#1d496c"/>
    <path id="Path_1462-2" data-name="Path 1462" d="M4.868,11.522C13.448-1.1,39.7-3.327,51.053,7.357c2.431,2.672.819,4.324-2.286,2.819C47.074,9.1,24.741,2.414,11.1,15.688c-3.588,3.757-5.2,6.366-8.773,5.556C-1.024,19.226,4.868,11.522,4.868,11.522Z" transform="translate(989.404 4425.475) rotate(69)" fill="#6ea7cd"/>
  </g>
</svg>
